<!-- Generated by IcoMoon.io -->
<svg version="1.1" xmlns="http://www.w3.org/2000/svg" width="20" height="20" viewBox="0 0 20 20">
<title>accounts-folders</title>
<path d="M5.716 5.014h-5.428c-0.159 0-0.288 0.129-0.288 0.288v12.86c0 0.159 0.129 0.288 0.288 0.288h5.428c0.159 0 0.288-0.129 0.288-0.288v-12.86c0-0.159-0.129-0.288-0.288-0.288zM5.428 17.874h-4.852v-12.285h4.852v12.285z"></path>
<path d="M17.137 5.474c-0.035-0.15-0.199-0.248-0.346-0.214l-4.017 0.959c-0.031 0.007-0.058 0.023-0.083 0.038v-4.732c0-0.159-0.129-0.288-0.288-0.288h-5.428c-0.159 0-0.288 0.129-0.288 0.288v16.636c0 0.159 0.129 0.288 0.288 0.288h5.428c0.159 0 0.288-0.129 0.288-0.288v-11.051l2.725 11.429c0.018 0.074 0.064 0.138 0.129 0.179 0.045 0.028 0.097 0.043 0.151 0.043 0.022 0 0.043-0.003 0.067-0.008l4.018-0.959c0.154-0.037 0.25-0.193 0.213-0.347l-2.855-11.974zM12.114 17.874h-4.852v-16.061h4.852v16.061zM15.908 18.127l-2.722-11.415 3.457-0.824 2.722 11.414-3.457 0.825z"></path>
<path d="M3.002 13.769c1.026 0 1.861-0.835 1.861-1.861s-0.835-1.861-1.861-1.861c-1.026 0-1.861 0.835-1.861 1.861s0.835 1.861 1.861 1.861zM3.002 10.623c0.709 0 1.285 0.577 1.285 1.286s-0.577 1.285-1.285 1.285-1.285-0.576-1.285-1.285c0-0.709 0.576-1.286 1.285-1.286z"></path>
<path d="M1.429 17.624h3.146c0.159 0 0.288-0.129 0.288-0.288v-1.18c0-0.159-0.129-0.288-0.288-0.288h-3.146c-0.159 0-0.288 0.129-0.288 0.288v1.18c0 0.159 0.129 0.288 0.288 0.288zM1.717 16.443h2.57v0.604h-2.57c0 0 0-0.604 0-0.604z"></path>
<path d="M1.429 8.303h3.146c0.159 0 0.288-0.129 0.288-0.288v-1.179c0-0.159-0.129-0.288-0.288-0.288h-3.146c-0.159 0-0.288 0.129-0.288 0.288v1.179c0 0.159 0.129 0.288 0.288 0.288zM1.717 7.123h2.57v0.603h-2.57c0 0 0-0.603 0-0.603z"></path>
<path d="M9.688 12.471c1.026 0 1.861-0.835 1.861-1.861s-0.835-1.861-1.861-1.861-1.861 0.835-1.861 1.861 0.835 1.861 1.861 1.861zM9.688 9.326c0.708 0 1.285 0.576 1.285 1.285s-0.577 1.285-1.285 1.285c-0.708 0-1.285-0.576-1.285-1.285s0.576-1.285 1.285-1.285z"></path>
<path d="M8.115 17.624h3.146c0.159 0 0.288-0.129 0.288-0.288v-1.18c0-0.159-0.129-0.288-0.288-0.288h-3.146c-0.159 0-0.288 0.129-0.288 0.288v1.18c0 0.159 0.129 0.288 0.288 0.288zM8.403 16.443h2.57v0.604h-2.57v-0.604z"></path>
<path d="M8.115 4.173h3.146c0.159 0 0.288-0.129 0.288-0.288v-1.18c0-0.159-0.129-0.288-0.288-0.288h-3.146c-0.159 0-0.288 0.129-0.288 0.288v1.18c0 0.158 0.129 0.288 0.288 0.288zM8.403 2.994h2.57v0.604h-2.57v-0.604z"></path>
<path d="M15.972 10.733c-0.34 0.082-0.628 0.29-0.812 0.588s-0.24 0.65-0.159 0.99c0.141 0.593 0.665 1.007 1.273 1.007 0.103 0 0.206-0.012 0.306-0.037 0.702-0.168 1.138-0.876 0.97-1.577-0.139-0.583-0.678-1.007-1.28-1.007-0.1 0-0.2 0.012-0.298 0.035zM16.99 11.838c0.046 0.19 0.014 0.386-0.089 0.553s-0.264 0.284-0.456 0.33c-0.055 0.013-0.112 0.020-0.169 0.020-0.336 0-0.637-0.238-0.715-0.565-0.046-0.19-0.014-0.388 0.089-0.555s0.264-0.284 0.455-0.329c0.056-0.013 0.114-0.020 0.171-0.020 0.341 0 0.634 0.233 0.714 0.565z"></path>
<path d="M15.849 16.151c-0.040 0.064-0.053 0.144-0.035 0.218l0.274 1.148c0.018 0.074 0.064 0.138 0.129 0.179 0.045 0.028 0.097 0.043 0.151 0.043 0.022 0 0.043-0.003 0.067-0.008l2.333-0.558c0.154-0.037 0.25-0.192 0.213-0.346l-0.274-1.148c-0.036-0.152-0.196-0.249-0.347-0.213l-2.333 0.556c-0.075 0.017-0.138 0.064-0.178 0.129zM18.214 16.092l0.14 0.588-1.773 0.423-0.14-0.588 1.773-0.423z"></path>
<path d="M16.199 6.513l-2.333 0.556c-0.075 0.018-0.139 0.064-0.178 0.129s-0.053 0.144-0.035 0.218l0.274 1.148c0.031 0.13 0.146 0.221 0.28 0.221 0.023 0 0.047-0.003 0.067-0.008l2.333-0.557c0.154-0.037 0.25-0.192 0.213-0.346l-0.274-1.148c-0.036-0.152-0.194-0.248-0.347-0.213zM14.42 8.151l-0.14-0.588 1.773-0.422 0.14 0.588-1.773 0.422z"></path>
</svg>
