<!-- Generated by IcoMoon.io -->
<svg version="1.1" xmlns="http://www.w3.org/2000/svg" width="36" height="20" viewBox="0 0 36 20">
<title>affiliaction</title>
<path d="M4.988 9.952v9.952h3.309v-8.489h1.918v8.489h3.261v-19.904h-8.489v9.952zM8.633 2.71v0.935h-1.918v-1.871h1.918v0.935zM11.751 2.71v0.935h-1.918v-1.871h1.918v0.935zM8.633 5.779v0.935h-1.918v-1.871h1.918v0.935zM11.751 5.779v0.935h-1.918v-1.871h1.918v0.935zM8.633 8.873v0.959h-1.918v-1.918h1.918v0.959zM11.751 8.873v0.959h-1.918v-1.918h1.918v0.959z"></path>
<path d="M26.811 0.959c-0.096 0.096-0.096 0.158-0.096 8.528 0 8.393 0 8.436 0.096 8.523 0.125 0.11 0.355 0.11 0.48 0 0.096-0.086 0.096-0.129 0.096-8.283v-8.192h7.722v8.101c0 5.64 0.014 8.139 0.053 8.245 0.091 0.259 0.489 0.302 0.614 0.062 0.038-0.067 0.053-2.662 0.053-8.489 0-8.336 0-8.398-0.096-8.494s-0.158-0.096-4.46-0.096c-4.302 0-4.365 0-4.46 0.096z"></path>
<path d="M0 10.6v9.305h3.022v-8.201h1.247v-10.408h-4.269v9.305zM3.309 3.765v0.839h-1.727v-1.679h1.727v0.839zM3.309 6.571v0.863h-1.727v-1.727h1.727v0.863zM3.309 9.4v0.863h-1.727v-1.727h1.727v0.863z"></path>
<path d="M28.758 2.854c-0.115 0.115-0.129 0.317-0.115 1.353 0.014 0.854 0.024 0.978 0.101 1.055 0.072 0.077 0.192 0.086 0.873 0.101 0.787 0.014 0.791 0.014 0.911-0.106l0.12-0.12v-1.084c0-1.017-0.005-1.084-0.096-1.175-0.086-0.086-0.158-0.096-0.906-0.096-0.667 0-0.825 0.014-0.887 0.072zM29.928 4.053v0.6h-0.576v-1.199h0.576v0.6z"></path>
<path d="M31.971 2.887c-0.062 0.091-0.077 0.288-0.077 1.194v1.094l0.129 0.101c0.125 0.096 0.173 0.101 0.916 0.086 0.71-0.014 0.791-0.024 0.854-0.106 0.053-0.077 0.067-0.321 0.067-1.204 0-1.017-0.010-1.118-0.086-1.189-0.077-0.067-0.216-0.082-0.911-0.082-0.791 0-0.82 0.005-0.892 0.106zM33.189 4.053v0.6h-0.623v-1.199h0.623v0.6z"></path>
<path d="M21.775 4.686c-0.038 0.014-0.11 0.058-0.153 0.101-0.082 0.067-0.086 0.293-0.086 3.42v3.348l0.125 0.096c0.163 0.125 0.259 0.125 0.422 0l0.125-0.096v-6.182h1.803c1.784 0 1.942-0.014 2.043-0.163 0.072-0.106 0.038-0.35-0.062-0.441-0.096-0.086-0.211-0.091-2.125-0.101-1.108-0.005-2.053 0.005-2.091 0.019z"></path>
<path d="M15.17 7.3c-0.643 0.638-0.83 0.854-0.83 0.95 0 0.182 1.612 1.784 1.799 1.784 0.139 0 0.216-0.072 0.216-0.225 0-0.058-0.235-0.331-0.609-0.705l-0.614-0.614h2.571c1.933 0 2.58-0.014 2.623-0.058 0.091-0.091 0.072-0.317-0.034-0.374-0.062-0.029-0.974-0.048-2.628-0.048h-2.532l0.614-0.614c0.6-0.6 0.681-0.734 0.552-0.863-0.158-0.158-0.283-0.072-1.127 0.767z"></path>
<path d="M23.655 6.619c-0.058 0.024-0.129 0.101-0.153 0.168-0.029 0.072-0.048 0.571-0.048 1.108 0 0.959 0.024 1.137 0.163 1.228 0.029 0.019 0.422 0.038 0.878 0.038 0.796 0 0.825-0.005 0.897-0.106 0.062-0.091 0.077-0.288 0.077-1.17 0-1.391 0.077-1.285-0.945-1.3-0.417-0.005-0.806 0.010-0.868 0.034zM24.748 7.89v0.6h-0.576v-1.199h0.576v0.6z"></path>
<path d="M28.835 6.619c-0.058 0.024-0.129 0.101-0.153 0.168-0.067 0.173-0.062 1.995 0.005 2.168 0.024 0.072 0.077 0.149 0.106 0.168 0.034 0.019 0.427 0.038 0.882 0.038 0.796 0 0.825-0.005 0.897-0.106 0.062-0.091 0.077-0.288 0.077-1.18v-1.070l-0.12-0.115c-0.115-0.115-0.134-0.12-0.849-0.115-0.403 0-0.782 0.019-0.844 0.043zM29.928 7.89v0.6h-0.576v-1.199h0.576v0.6z"></path>
<path d="M32.019 6.671l-0.125 0.096v1.094c0 0.906 0.014 1.103 0.077 1.194 0.072 0.101 0.101 0.106 0.902 0.106 0.743 0 0.839-0.010 0.906-0.086 0.072-0.077 0.082-0.23 0.082-1.189 0-0.604-0.019-1.122-0.038-1.151-0.086-0.134-0.269-0.163-0.959-0.163-0.652 0-0.729 0.010-0.844 0.101zM33.189 7.89v0.6h-0.623v-1.199h0.623v0.6z"></path>
<path d="M23.592 10.499c-0.106 0.086-0.115 0.125-0.115 0.576 0 0.556 0.048 0.647 0.341 0.647 0.235 0 0.355-0.149 0.355-0.432v-0.211h0.576v0.835c0 0.767 0.010 0.839 0.101 0.959 0.125 0.158 0.379 0.173 0.523 0.029 0.091-0.091 0.096-0.158 0.096-1.175v-1.084l-0.12-0.115c-0.115-0.115-0.134-0.12-0.878-0.12-0.681 0-0.777 0.010-0.878 0.091z"></path>
<path d="M28.772 10.499c-0.115 0.091-0.115 0.096-0.115 1.194 0 1.017 0.005 1.113 0.091 1.204 0.086 0.096 0.139 0.101 0.902 0.101 0.743 0 0.815-0.010 0.902-0.096 0.091-0.091 0.096-0.158 0.096-1.175v-1.084l-0.12-0.115c-0.115-0.115-0.134-0.12-0.878-0.12-0.681 0-0.777 0.010-0.878 0.091zM29.928 11.703v0.623h-0.576v-1.247h0.576v0.623z"></path>
<path d="M32.019 10.508l-0.125 0.096v1.103c0 1.036 0.005 1.103 0.096 1.194 0.086 0.086 0.158 0.096 0.902 0.096 0.724 0 0.82-0.010 0.887-0.086 0.072-0.077 0.082-0.235 0.082-1.223 0-1.113 0-1.132-0.106-1.204-0.086-0.062-0.254-0.077-0.859-0.077-0.686 0-0.763 0.010-0.878 0.101zM33.189 11.703v0.623h-0.623v-1.247h0.623v0.623z"></path>
<path d="M18.427 11.089c-0.153 0.153-0.067 0.283 0.571 0.897l0.633 0.604-5.266 0.048-0.014 0.163c-0.010 0.096 0.010 0.177 0.048 0.201 0.034 0.024 1.223 0.043 2.638 0.043h2.576l-0.619 0.604c-0.508 0.499-0.623 0.633-0.623 0.743 0 0.139 0.134 0.254 0.264 0.225 0.038-0.010 0.446-0.388 0.906-0.844 0.695-0.686 0.844-0.859 0.844-0.969s-0.149-0.273-0.859-0.954c-0.499-0.48-0.897-0.82-0.95-0.82-0.048 0-0.115 0.024-0.149 0.058z"></path>
<path d="M22.801 12.393c-0.71 0.321-1.218 1.875-1.237 3.77-0.005 0.71 0 0.758 0.12 1.007 0.168 0.35 0.47 0.638 0.844 0.801l0.302 0.129v0.873c0 0.974 0.019 1.026 0.345 1.026 0.307 0 0.326-0.062 0.326-1.041v-0.868l0.216-0.072c0.475-0.163 0.854-0.547 1.017-1.026 0.062-0.177 0.072-0.36 0.048-0.969-0.067-1.746-0.494-3.141-1.089-3.535-0.24-0.158-0.657-0.206-0.892-0.096zM23.329 13.098c0.388 0.307 0.758 1.779 0.767 3.098 0.005 0.571 0.005 0.585-0.139 0.791-0.398 0.576-1.218 0.556-1.583-0.034-0.139-0.225-0.144-0.249-0.134-0.763 0.029-1.285 0.345-2.643 0.705-3.026 0.187-0.197 0.216-0.201 0.384-0.067z"></path>
<path d="M28.106 14.341c-0.053 0.053-0.096 0.158-0.096 0.24s0.043 0.187 0.096 0.24c0.086 0.086 0.158 0.096 0.647 0.096h0.552v1.501c0 1.448 0.005 1.511 0.096 1.592 0.125 0.11 0.355 0.11 0.48 0 0.091-0.082 0.096-0.144 0.096-1.592v-1.501h2.542v1.439c0 0.969 0.019 1.472 0.053 1.554 0.11 0.235 0.499 0.254 0.614 0.034 0.034-0.062 0.053-0.619 0.053-1.559v-1.468h0.542c0.508 0 0.552-0.010 0.647-0.11 0.129-0.139 0.134-0.341 0.010-0.465-0.096-0.096-0.158-0.096-3.165-0.096s-3.070 0-3.165 0.096z"></path>
<path d="M31.017 16.249c-0.11 0.12-0.101 0.374 0.014 0.489 0.206 0.206 0.576 0.053 0.576-0.24 0-0.082-0.043-0.187-0.096-0.24-0.125-0.125-0.388-0.125-0.494-0.010z"></path>
<path d="M26.158 18.806c-0.067 0.072-0.096 0.192-0.106 0.456-0.029 0.566 0.053 0.739 0.355 0.739 0.235 0 0.355-0.139 0.355-0.408v-0.216h4.436c4.374 0 4.436 0 4.532-0.096 0.125-0.125 0.125-0.336 0-0.47l-0.101-0.106h-9.381l-0.091 0.101z"></path>
</svg>
