<!-- Generated by IcoMoon.io -->
<svg version="1.1" xmlns="http://www.w3.org/2000/svg" width="22" height="20" viewBox="0 0 22 20">
<title>affi-small</title>
<path fill="#555" d="M2.84 3.13c-0.019 0.008-0.026 1.376-0.022 4.041l0.007 4.029 1.355 0.015v-3.432h0.72l0.007 1.708 0.007 1.708 1.341 0.015v-4.033c0-3.651-0.004-4.035-0.046-4.051-0.050-0.019-3.325-0.020-3.371-0.001zM11.566 3.523c-0.027 0.027-0.035 0.834-0.035 3.457 0 3.729-0.010 3.513 0.155 3.513 0.138 0 0.133 0.127 0.133-3.379v-3.31h3.085v3.296c0 3.157 0.002 3.298 0.053 3.344 0.073 0.066 0.166 0.059 0.22-0.016 0.075-0.107 0.068-6.825-0.008-6.894-0.068-0.062-3.542-0.074-3.603-0.013zM0.821 3.697c-0.008 0.020-0.010 1.716-0.006 3.769l0.007 3.733h1.24l0.007-1.65 0.007-1.65h0.49v-4.238h-0.866c-0.666 0-0.869 0.008-0.879 0.036zM4.267 4.252v0.36h-0.721v-0.721h0.721v0.36zM5.529 4.245l-0.008 0.353-0.706 0.016v-0.723h0.723l-0.008 0.353zM12.355 4.283c-0.054 0.054-0.067 0.898-0.015 0.994 0.049 0.091 0.697 0.084 0.761-0.008 0.082-0.117 0.064-0.888-0.022-0.969-0.087-0.082-0.646-0.095-0.724-0.017zM13.661 4.293c-0.114 0.092-0.12 0.884-0.007 0.996 0.079 0.079 0.687 0.063 0.745-0.020 0.076-0.109 0.064-0.855-0.015-0.955s-0.604-0.117-0.723-0.021zM2.133 4.685v0.332h-0.634v-0.663h0.634v0.332zM12.829 4.786v0.231h-0.202v-0.461h0.202v0.231zM14.126 4.786v0.231h-0.231v-0.461h0.231v0.231zM9.52 5.061l-0.064 0.045v2.734l0.071 0.046c0.225 0.147 0.246 0.028 0.246-1.378l0-1.175h0.729c0.783 0 0.799-0.003 0.799-0.148 0-0.167-0.014-0.169-0.904-0.169-0.689 0-0.823 0.007-0.877 0.045zM4.267 5.492v0.36h-0.721v-0.721h0.721v0.36zM5.535 5.492v0.36h-0.721v-0.721h0.721v0.36zM2.133 5.809v0.332h-0.634v-0.663h0.634v0.332zM6.91 6.095c-0.201 0.197-0.366 0.373-0.366 0.393 0 0.088 0.685 0.724 0.769 0.715 0.15-0.017 0.117-0.105-0.135-0.355l-0.232-0.231 1.014-0.014c1.079-0.015 1.106-0.019 1.054-0.155-0.016-0.042-0.122-0.047-1.063-0.047h-1.045l0.251-0.251c0.249-0.249 0.284-0.31 0.217-0.377-0.062-0.062-0.093-0.040-0.464 0.323zM10.298 5.839c-0.062 0.043-0.064 0.062-0.064 0.501 0 0.562-0.020 0.535 0.405 0.535 0.435 0 0.425 0.013 0.43-0.532l0.004-0.427-0.077-0.061c-0.1-0.079-0.591-0.090-0.697-0.016zM12.374 5.839c-0.062 0.043-0.064 0.062-0.064 0.501 0 0.557-0.018 0.533 0.391 0.542 0.445 0.010 0.445 0.009 0.445-0.54v-0.428l-0.076-0.060c-0.099-0.078-0.591-0.089-0.696-0.015zM13.65 5.865c-0.098 0.098-0.102 0.863-0.005 0.959 0.081 0.081 0.699 0.076 0.76-0.006 0.057-0.077 0.046-0.913-0.013-0.972-0.082-0.082-0.656-0.068-0.742 0.019zM10.753 6.342v0.231h-0.202v-0.461h0.202v0.231zM12.829 6.342v0.231h-0.202v-0.461h0.202v0.231zM14.126 6.342v0.231h-0.231v-0.461h0.231v0.231zM4.267 6.746v0.346h-0.721v-0.692h0.721v0.346zM5.535 6.746v0.346h-0.721v-0.692h0.721v0.346zM2.133 6.948v0.346h-0.634v-0.692h0.634v0.346zM10.264 7.407c-0.065 0.121-0.037 0.428 0.044 0.481 0.093 0.061 0.223-0.018 0.238-0.144 0.008-0.066 0.023-0.076 0.108-0.076h0.099v0.332c0 0.416 0.067 0.527 0.235 0.392 0.093-0.075 0.123-0.89 0.037-0.985-0.076-0.084-0.716-0.083-0.761 0.001zM12.34 7.407c-0.066 0.123-0.037 0.945 0.034 0.995 0.105 0.074 0.597 0.063 0.696-0.015 0.095-0.075 0.12-0.845 0.031-0.972-0.065-0.092-0.713-0.099-0.761-0.008zM13.654 7.396c-0.113 0.113-0.106 0.892 0.008 0.991 0.116 0.101 0.638 0.090 0.721-0.016 0.079-0.101 0.091-0.847 0.015-0.955-0.058-0.083-0.666-0.099-0.745-0.020zM8.207 7.63c-0.054 0.054 0.001 0.15 0.204 0.351l0.223 0.221-1.001 0.014c-1.091 0.016-1.14 0.024-1.062 0.17 0.032 0.060 0.043 0.061 1.062 0.061h1.029l-0.24 0.241c-0.255 0.256-0.299 0.368-0.155 0.388 0.078 0.011 0.757-0.645 0.757-0.731 0-0.076-0.66-0.734-0.736-0.734-0.034 0-0.070 0.009-0.081 0.019zM12.829 7.899v0.231h-0.202v-0.461h0.202v0.231zM14.126 7.899v0.231h-0.231v-0.461h0.231v0.231zM9.932 8.183c-0.146 0.090-0.182 0.144-0.318 0.48-0.013 0.032-0.027 0.077-0.032 0.101s-0.029 0.128-0.054 0.231c-0.083 0.345-0.091 0.95-0.014 1.109 0.070 0.145 0.313 0.361 0.406 0.361 0.051 0 0.055 0.025 0.055 0.357 0 0.37 0.007 0.395 0.131 0.433 0.14 0.043 0.186-0.066 0.186-0.445 0-0.278 0.008-0.345 0.041-0.345 0.022 0 0.108-0.053 0.189-0.118 0.241-0.191 0.308-0.426 0.253-0.891-0.088-0.742-0.165-0.983-0.389-1.221-0.109-0.116-0.313-0.139-0.454-0.052zM10.215 8.499c0.061 0.068 0.122 0.242 0.18 0.518 0.026 0.122 0.053 0.249 0.061 0.28 0.045 0.187 0.045 0.564-0.001 0.66-0.118 0.25-0.431 0.302-0.603 0.101l-0.084-0.098 0.016-0.404c0.030-0.767 0.237-1.273 0.431-1.058zM12.115 8.928c-0.184 0.129-0.054 0.269 0.25 0.269h0.204v0.603c0 0.653 0.009 0.694 0.159 0.694 0.141 0 0.158-0.077 0.158-0.713v-0.585h0.98v0.603c0 0.652 0.009 0.694 0.157 0.694 0.127 0 0.136-0.046 0.132-0.689l-0.003-0.606 0.238-0.008c0.299-0.011 0.398-0.108 0.245-0.241l-0.081-0.070-1.188 0.002c-1.031 0.001-1.196 0.007-1.252 0.047zM13.259 9.718c-0.101 0.101-0.035 0.256 0.109 0.257s0.207-0.189 0.089-0.272c-0.085-0.060-0.126-0.057-0.198 0.015zM11.336 10.74c-0.075 0.052-0.097 0.412-0.028 0.467 0.129 0.103 0.252 0.051 0.252-0.106v-0.089h1.77c1.672 0 1.773-0.003 1.835-0.053 0.085-0.069 0.059-0.196-0.047-0.236-0.137-0.052-3.706-0.036-3.782 0.017z"></path>
</svg>
