<!-- Generated by IcoMoon.io -->
<svg version="1.1" xmlns="http://www.w3.org/2000/svg" width="29" height="20" viewBox="0 0 29 20">
<title>affiliation</title>
<path d="M7.74 0.074c-0.19 0.095-0.373 0.309-0.425 0.499-0.032 0.109-0.039 2.394-0.032 8.91l0.011 8.759h-0.499l-0.042-0.2c-0.028-0.144-0.039-2.13-0.039-7.293v-7.097l-2.362 0.011c-2.351 0.011-2.366 0.011-2.51 0.088-0.19 0.102-0.39 0.327-0.436 0.496-0.025 0.095-0.032 2.274-0.028 7.069l0.011 6.928h-1.388v1.757l6.32-0.004c3.473-0.004 6.411-0.018 6.527-0.032s0.169-0.028 0.12-0.032c-0.45-0.025-0.896-0.475-0.977-0.981-0.025-0.158-0.004-0.482 0.049-0.703l0.018-0.077h-1.968v-8.014h3.48l0.007 2.2 0.011 2.2 0.281-0.362c0.527-0.675 1.248-1.346 1.975-1.835l0.323-0.218 0.004-5.757c0-6.355 0.018-5.884-0.221-6.137-0.063-0.063-0.176-0.148-0.253-0.183-0.134-0.063-0.313-0.067-3.972-0.067-3.831 0-3.831 0-3.982 0.074zM12.337 0.478c0.334 0.067 0.896 0.341 1.178 0.566 0.668 0.545 1.107 1.448 1.107 2.295 0 0.703-0.218 1.336-0.65 1.884-1.047 1.318-2.96 1.473-4.169 0.337-0.33-0.309-0.478-0.506-0.661-0.872-0.225-0.45-0.302-0.791-0.299-1.35 0.004-0.411 0.018-0.517 0.098-0.791 0.299-0.984 1.030-1.733 1.979-2.021 0.471-0.141 0.882-0.155 1.417-0.049zM3.831 6.397v0.598h-1.125v-1.195h1.125v0.598zM5.694 6.397v0.598h-1.16v-1.195h1.16v0.598zM3.831 8.453v0.58h-1.125v-1.16h1.125v0.58zM5.694 8.453v0.58h-1.16v-1.16h1.16v0.58zM3.831 10.58v0.598h-1.125v-1.195h1.125v0.598zM5.694 10.58v0.598h-1.16v-1.195h1.16v0.598z"></path>
<path d="M11.002 2.039v0.562h-1.125v1.511h1.125v1.16h1.476v-1.16h1.090v-1.511h-1.090v-1.125h-1.476v0.562z"></path>
<path d="M19.666 3.325c-0.056 0.007-0.302 0.032-0.545 0.053-0.787 0.067-2.425 0.383-2.425 0.464 0 0.046 0.707 2.956 0.724 2.97 0.004 0.007 0.179-0.025 0.39-0.074 0.984-0.232 1.764-0.32 2.823-0.32s1.838 0.088 2.822 0.32c0.211 0.049 0.387 0.081 0.39 0.074 0.011-0.011 0.471-1.873 0.636-2.569 0.049-0.211 0.081-0.394 0.070-0.411-0.046-0.074-1.424-0.348-2.214-0.439-0.46-0.056-2.401-0.105-2.671-0.067zM20.914 4.183v0.351h0.668v0.598h-0.668v0.703h-0.562v-0.703h-0.668v-0.598h0.668v-0.703h0.562v0.351z"></path>
<path d="M19.385 7.156c-0.735 0.084-2.151 0.376-2.236 0.46-0.060 0.060-0.109 0.675-0.091 1.083 0.056 1.118 0.562 2.144 1.388 2.798 0.629 0.503 1.23 0.724 2.046 0.759 0.548 0.021 0.938-0.042 1.427-0.232 0.787-0.306 1.582-1.069 1.944-1.87 0.278-0.615 0.373-1.142 0.344-1.873-0.032-0.738 0.025-0.657-0.58-0.805-1.132-0.278-1.951-0.376-3.047-0.373-0.425 0.004-0.963 0.025-1.195 0.053z"></path>
<path d="M23.406 11.691c-0.51 0.531-1.448 0.988-2.26 1.1-1.121 0.158-2.351-0.232-3.188-1.009-0.123-0.112-0.225-0.179-0.243-0.162-0.049 0.053-0.169 0.457-0.228 0.756-0.028 0.151-0.060 0.46-0.074 0.689l-0.025 0.415 0.19 0.063c0.626 0.197 1.213 0.815 1.515 1.592 0.33 0.851 0.383 1.807 0.151 2.703-0.176 0.668-0.359 0.935-0.728 1.058-0.408 0.134-0.707 0.025-0.886-0.327-0.169-0.337 0.067-0.844 0.422-0.91 0.123-0.021 0.348-0.004 0.496 0.039 0.067 0.021 0.081 0.007 0.116-0.13 0.151-0.552 0.060-1.866-0.141-2.067-0.084-0.084-0.45-0.197-0.861-0.271-0.341-0.060-0.858-0.049-1.213 0.025-0.278 0.056-0.728 0.207-0.77 0.257-0.049 0.060-0.169 0.689-0.197 1.026-0.021 0.288 0.018 0.78 0.088 1.040 0.035 0.127 0.049 0.141 0.116 0.12 0.295-0.088 0.566-0.060 0.731 0.077 0.362 0.306 0.295 0.907-0.123 1.125-0.239 0.123-0.714 0.011-0.946-0.228-0.155-0.158-0.337-0.633-0.432-1.118-0.081-0.422-0.084-1.227-0.004-1.638 0.228-1.163 0.847-2.046 1.645-2.348l0.197-0.077 0.021-0.443c0.014-0.246 0.049-0.587 0.077-0.756 0.032-0.172 0.053-0.327 0.046-0.344s-0.186 0.070-0.397 0.2c-2.081 1.244-3.554 3.357-4.084 5.852-0.176 0.84-0.102 1.251 0.292 1.61 0.341 0.313-0.422 0.285 7.937 0.285h7.42l0.211-0.098c0.302-0.144 0.555-0.446 0.629-0.759 0.049-0.2 0.025-0.576-0.063-1.016-0.485-2.383-1.856-4.432-3.831-5.715-0.214-0.137-0.401-0.25-0.418-0.25s-0.021 0.042-0.011 0.095c0.137 0.671 0.116 2.552-0.032 3.142-0.021 0.084-0.004 0.102 0.165 0.197 0.246 0.141 0.432 0.348 0.566 0.64 0.193 0.411 0.144 0.935-0.127 1.315-0.471 0.664-1.353 0.721-1.902 0.127-0.622-0.671-0.425-1.694 0.404-2.12l0.225-0.116 0.042-0.207c0.112-0.566 0.148-1.49 0.081-2.281-0.032-0.387-0.13-1.146-0.151-1.163-0.042-0.032-0.243-0.12-0.281-0.12-0.025 0-0.102 0.056-0.169 0.127z"></path>
<path d="M16.717 14.221c-0.148 0.053-0.531 0.323-0.499 0.355 0.007 0.011 0.158-0.004 0.334-0.025 0.309-0.042 1.132-0.032 1.357 0.021l0.105 0.025-0.105-0.112c-0.056-0.060-0.197-0.158-0.313-0.214-0.179-0.091-0.246-0.105-0.475-0.102-0.148 0-0.33 0.025-0.404 0.053z"></path>
<path d="M23.873 16.165c-0.366 0.232-0.337 0.837 0.046 1.023 0.081 0.039 0.183 0.070 0.228 0.070s0.148-0.032 0.228-0.070c0.19-0.091 0.299-0.281 0.299-0.524 0-0.204-0.053-0.33-0.19-0.457-0.13-0.123-0.446-0.144-0.612-0.042z"></path>
</svg>
