<!-- Generated by IcoMoon.io -->
<svg version="1.1" xmlns="http://www.w3.org/2000/svg" width="23" height="20" viewBox="0 0 23 20">
<title>affiliaction1</title>
<path d="M4.043 9.973v5.631h1.872v-4.803h1.085v4.803h1.845v-11.262h-4.803v5.631zM6.106 5.875v0.529h-1.085v-1.058h1.085v0.529zM7.87 5.875v0.529h-1.085v-1.058h1.085v0.529zM6.106 7.612v0.529h-1.085v-1.058h1.085v0.529zM7.87 7.612v0.529h-1.085v-1.058h1.085v0.529zM6.106 9.362v0.543h-1.085v-1.085h1.085v0.543zM7.87 9.362v0.543h-1.085v-1.085h1.085v0.543z"></path>
<path d="M16.391 4.885c-0.054 0.054-0.054 0.090-0.054 4.825 0 4.749 0 4.773 0.054 4.822 0.071 0.062 0.201 0.062 0.271 0 0.054-0.049 0.054-0.073 0.054-4.687v-4.635h4.369v4.583c0 3.191 0.008 4.605 0.030 4.665 0.052 0.147 0.277 0.171 0.347 0.035 0.022-0.038 0.030-1.506 0.030-4.803 0-4.716 0-4.752-0.054-4.806s-0.090-0.054-2.524-0.054c-2.434 0-2.469 0-2.524 0.054z"></path>
<path d="M1.221 10.339v5.265h1.71v-4.64h0.706v-5.889h-2.415v5.265zM3.094 6.472v0.475h-0.977v-0.95h0.977v0.475zM3.094 8.060v0.488h-0.977v-0.977h0.977v0.488zM3.094 9.661v0.488h-0.977v-0.977h0.977v0.488z"></path>
<path d="M17.493 5.957c-0.065 0.065-0.073 0.179-0.065 0.765 0.008 0.483 0.014 0.554 0.057 0.597 0.041 0.043 0.109 0.049 0.494 0.057 0.445 0.008 0.448 0.008 0.516-0.060l0.068-0.068v-0.613c0-0.575-0.003-0.613-0.054-0.665-0.049-0.049-0.090-0.054-0.513-0.054-0.377 0-0.467 0.008-0.502 0.041zM18.155 6.635v0.339h-0.326v-0.678h0.326v0.339z"></path>
<path d="M19.311 5.976c-0.035 0.052-0.043 0.163-0.043 0.676v0.619l0.073 0.057c0.071 0.054 0.098 0.057 0.518 0.049 0.402-0.008 0.448-0.014 0.483-0.060 0.030-0.043 0.038-0.182 0.038-0.681 0-0.575-0.005-0.632-0.049-0.673-0.043-0.038-0.122-0.046-0.516-0.046-0.448 0-0.464 0.003-0.505 0.060zM20 6.635v0.339h-0.353v-0.678h0.353v0.339z"></path>
<path d="M13.541 6.993c-0.022 0.008-0.062 0.033-0.087 0.057-0.046 0.038-0.049 0.166-0.049 1.935v1.894l0.071 0.054c0.092 0.071 0.147 0.071 0.239 0l0.071-0.054v-3.498h1.020c1.009 0 1.099-0.008 1.156-0.092 0.041-0.060 0.022-0.198-0.035-0.25-0.054-0.049-0.119-0.052-1.202-0.057-0.627-0.003-1.161 0.003-1.183 0.011z"></path>
<path d="M9.805 8.472c-0.364 0.361-0.469 0.483-0.469 0.537 0 0.103 0.912 1.009 1.018 1.009 0.079 0 0.122-0.041 0.122-0.128 0-0.033-0.133-0.187-0.345-0.399l-0.347-0.347h1.455c1.094 0 1.46-0.008 1.484-0.033 0.052-0.052 0.041-0.179-0.019-0.212-0.035-0.016-0.551-0.027-1.487-0.027h-1.433l0.347-0.347c0.339-0.339 0.385-0.415 0.312-0.488-0.090-0.090-0.16-0.041-0.638 0.434z"></path>
<path d="M14.605 8.087c-0.033 0.014-0.073 0.057-0.087 0.095-0.016 0.041-0.027 0.323-0.027 0.627 0 0.543 0.014 0.643 0.092 0.695 0.016 0.011 0.239 0.022 0.497 0.022 0.45 0 0.467-0.003 0.507-0.060 0.035-0.052 0.043-0.163 0.043-0.662 0-0.787 0.043-0.727-0.535-0.735-0.236-0.003-0.456 0.005-0.491 0.019zM15.224 8.806v0.339h-0.326v-0.678h0.326v0.339z"></path>
<path d="M17.536 8.087c-0.033 0.014-0.073 0.057-0.087 0.095-0.038 0.098-0.035 1.129 0.003 1.227 0.014 0.041 0.043 0.084 0.060 0.095 0.019 0.011 0.242 0.022 0.499 0.022 0.45 0 0.467-0.003 0.507-0.060 0.035-0.052 0.043-0.163 0.043-0.668v-0.605l-0.068-0.065c-0.065-0.065-0.076-0.068-0.48-0.065-0.228 0-0.442 0.011-0.478 0.024zM18.155 8.806v0.339h-0.326v-0.678h0.326v0.339z"></path>
<path d="M19.338 8.117l-0.071 0.054v0.619c0 0.513 0.008 0.624 0.043 0.676 0.041 0.057 0.057 0.060 0.51 0.060 0.421 0 0.475-0.005 0.513-0.049 0.041-0.043 0.046-0.13 0.046-0.673 0-0.342-0.011-0.635-0.022-0.651-0.049-0.076-0.152-0.092-0.543-0.092-0.369 0-0.412 0.005-0.478 0.057zM20 8.806v0.339h-0.353v-0.678h0.353v0.339z"></path>
<path d="M14.57 10.282c-0.060 0.049-0.065 0.071-0.065 0.326 0 0.315 0.027 0.366 0.193 0.366 0.133 0 0.201-0.084 0.201-0.244v-0.119h0.326v0.472c0 0.434 0.005 0.475 0.057 0.543 0.071 0.090 0.214 0.098 0.296 0.016 0.052-0.052 0.054-0.090 0.054-0.665v-0.613l-0.068-0.065c-0.065-0.065-0.076-0.068-0.497-0.068-0.385 0-0.44 0.005-0.497 0.052z"></path>
<path d="M17.501 10.282c-0.065 0.052-0.065 0.054-0.065 0.676 0 0.575 0.003 0.63 0.052 0.681 0.049 0.054 0.079 0.057 0.51 0.057 0.421 0 0.461-0.005 0.51-0.054 0.052-0.052 0.054-0.090 0.054-0.665v-0.613l-0.068-0.065c-0.065-0.065-0.076-0.068-0.497-0.068-0.385 0-0.44 0.005-0.497 0.052zM18.155 10.963v0.353h-0.326v-0.706h0.326v0.353z"></path>
<path d="M19.338 10.288l-0.071 0.054v0.624c0 0.586 0.003 0.624 0.054 0.676 0.049 0.049 0.090 0.054 0.51 0.054 0.41 0 0.464-0.005 0.502-0.049 0.041-0.043 0.046-0.133 0.046-0.692 0-0.63 0-0.64-0.060-0.681-0.049-0.035-0.144-0.043-0.486-0.043-0.388 0-0.431 0.005-0.497 0.057zM20 10.963v0.353h-0.353v-0.706h0.353v0.353z"></path>
<path d="M11.647 10.616c-0.087 0.087-0.038 0.16 0.323 0.507l0.358 0.342-2.98 0.027-0.008 0.092c-0.005 0.054 0.005 0.1 0.027 0.114 0.019 0.014 0.692 0.024 1.493 0.024h1.457l-0.35 0.342c-0.288 0.282-0.353 0.358-0.353 0.421 0 0.079 0.076 0.144 0.149 0.128 0.022-0.005 0.252-0.22 0.513-0.478 0.393-0.388 0.478-0.486 0.478-0.548s-0.084-0.155-0.486-0.54c-0.282-0.271-0.507-0.464-0.537-0.464-0.027 0-0.065 0.014-0.084 0.033z"></path>
<path d="M14.122 11.354c-0.402 0.182-0.689 1.061-0.7 2.133-0.003 0.402 0 0.429 0.068 0.57 0.095 0.198 0.266 0.361 0.478 0.453l0.171 0.073v0.494c0 0.551 0.011 0.581 0.195 0.581 0.174 0 0.185-0.035 0.185-0.589v-0.491l0.122-0.041c0.269-0.092 0.483-0.309 0.575-0.581 0.035-0.1 0.041-0.204 0.027-0.548-0.038-0.988-0.28-1.777-0.616-2-0.136-0.090-0.372-0.117-0.505-0.054zM14.421 11.753c0.22 0.174 0.429 1.007 0.434 1.753 0.003 0.323 0.003 0.331-0.079 0.448-0.225 0.326-0.689 0.315-0.896-0.019-0.079-0.128-0.081-0.141-0.076-0.431 0.016-0.727 0.195-1.495 0.399-1.712 0.106-0.111 0.122-0.114 0.217-0.038z"></path>
<path d="M17.123 12.456c-0.030 0.030-0.054 0.090-0.054 0.136s0.024 0.106 0.054 0.136c0.049 0.049 0.090 0.054 0.366 0.054h0.312v0.849c0 0.82 0.003 0.855 0.054 0.901 0.071 0.062 0.201 0.062 0.271 0 0.052-0.046 0.054-0.081 0.054-0.901v-0.849h1.438v0.814c0 0.548 0.011 0.833 0.030 0.879 0.062 0.133 0.282 0.144 0.347 0.019 0.019-0.035 0.030-0.35 0.030-0.882v-0.83h0.307c0.288 0 0.312-0.005 0.366-0.062 0.073-0.079 0.076-0.193 0.005-0.263-0.054-0.054-0.090-0.054-1.791-0.054s-1.737 0-1.791 0.054z"></path>
<path d="M18.771 13.536c-0.062 0.068-0.057 0.212 0.008 0.277 0.117 0.117 0.326 0.030 0.326-0.136 0-0.046-0.024-0.106-0.054-0.136-0.071-0.071-0.22-0.071-0.28-0.005z"></path>
<path d="M16.022 14.982c-0.038 0.041-0.054 0.109-0.060 0.258-0.016 0.32 0.030 0.418 0.201 0.418 0.133 0 0.201-0.079 0.201-0.231v-0.122h2.51c2.475 0 2.51 0 2.564-0.054 0.071-0.071 0.071-0.19 0-0.266l-0.057-0.060h-5.308l-0.052 0.057z"></path>
</svg>
