<!-- Generated by IcoMoon.io -->
<svg version="1.1" xmlns="http://www.w3.org/2000/svg" width="20" height="20" viewBox="0 0 20 20">
<title>application-info</title>
<path fill="#555" d="M2.425 0.178c-0.048 0.026-0.102 0.075-0.12 0.109-0.022 0.042-0.033 2.526-0.033 7.735l-0 7.674 0.177 0.144 8.534 0 0.949-0.941c0.522-0.517 1.147-1.136 1.389-1.375l0.44-0.434v-12.759l-0.196-0.188-5.526-0.007c-4.833-0.006-5.537-0.001-5.613 0.041zM13.12 3.712v2.944h-0.066c-0.287 0-0.305 0.494-0.022 0.611l0.088 0.037v5.336h-1.182c-1.263 0-1.314 0.006-1.376 0.158-0.023 0.056-0.038 0.49-0.042 1.252l-0.007 1.167h-7.616l-0.008-3.956-0.008-3.957 0.076-0.019c0.375-0.094 0.326-0.691-0.052-0.632-0.013 0.002-0.024-1.321-0.024-2.94v-2.944h10.24v2.944zM5.392 1.5c-0.51 0.134-0.674 0.49-0.612 1.326 0.062 0.846 0.81 1.231 1.386 0.714 0.304-0.273 0.421-1.114 0.222-1.59-0.139-0.332-0.618-0.548-0.996-0.45zM5.76 2.176c0.035 0.035 0.065 0.089 0.067 0.12 0.005 0.095-0.006 0.347-0.019 0.411-0.006 0.033-0.013 0.114-0.014 0.18-0.003 0.131-0.099 0.25-0.189 0.232-0.029-0.006-0.064-0.011-0.076-0.013-0.124-0.013-0.172-0.859-0.054-0.942 0.1-0.070 0.207-0.066 0.285 0.012zM8.3 2.207c-0.215 0.087-0.262 0.334-0.095 0.501l0.11 0.11 1.956-0.005 0.096-0.081c0.156-0.132 0.123-0.411-0.061-0.506-0.107-0.056-1.874-0.072-2.007-0.018zM8.256 3.657c-0.183 0.093-0.201 0.382-0.032 0.508 0.076 0.057 0.18 0.060 2.096 0.060l2.016 0.001 0.088-0.098c0.138-0.153 0.088-0.414-0.092-0.482-0.13-0.050-3.977-0.039-4.076 0.011zM4.522 3.964c-0.287 0.1-0.682 0.417-0.682 0.546 0 0.019-0.013 0.034-0.029 0.034-0.065 0-0.234 0.612-0.232 0.838 0.003 0.352-0.018 0.349 2.075 0.339l1.797-0.009 0.086-0.080c0.176-0.164 0.123-0.654-0.121-1.109-0.272-0.507-1.090-0.782-1.567-0.525-0.241 0.13-0.373 0.122-0.493-0.029-0.060-0.076-0.62-0.079-0.834-0.004zM5.088 4.572c0 0.151 0.686 0.189 0.972 0.053 0.363-0.172 0.784 0.009 0.87 0.375l0.021 0.088h-1.331c-0.9 0-1.331-0.011-1.331-0.033 0-0.137 0.205-0.382 0.384-0.46 0.12-0.052 0.416-0.069 0.416-0.023zM8.244 5.103c-0.162 0.123-0.182 0.36-0.041 0.492l0.074 0.070 2.006 0c1.344 0 2.027-0.011 2.069-0.034 0.177-0.095 0.195-0.395 0.031-0.512-0.118-0.084-4.030-0.099-4.139-0.016zM3.633 6.646c-0.238 0.066-0.326 0.299-0.19 0.506 0.144 0.22 0.841 0.162 0.941-0.078 0.127-0.307-0.303-0.552-0.75-0.428zM4.768 6.666c-0.13 0.044-0.242 0.233-0.212 0.355 0.075 0.3 0.813 0.373 0.993 0.098 0.213-0.326-0.294-0.62-0.781-0.454zM5.924 6.678c-0.407 0.219-0.201 0.592 0.328 0.591 0.425-0.001 0.589-0.135 0.498-0.409-0.070-0.213-0.566-0.323-0.826-0.182zM7.146 6.659c-0.298 0.086-0.293 0.586 0.006 0.61 0.646 0.052 0.893-0.099 0.755-0.462-0.060-0.158-0.457-0.236-0.761-0.148zM8.298 6.669c-0.258 0.117-0.237 0.587 0.027 0.597 0.72 0.025 0.924-0.098 0.76-0.458-0.074-0.163-0.55-0.247-0.788-0.139zM9.52 6.645c-0.164 0.044-0.266 0.235-0.225 0.421 0.059 0.267 0.839 0.298 0.977 0.038 0.167-0.311-0.283-0.586-0.752-0.459zM10.7 6.644c-0.231 0.052-0.318 0.362-0.148 0.531 0.093 0.093 0.101 0.095 0.427 0.094l0.333-0 0.090-0.106c0.271-0.319-0.163-0.64-0.702-0.518zM11.902 6.654c-0.295 0.089-0.371 0.409-0.134 0.564 0.195 0.128 0.782 0.056 0.867-0.106 0.169-0.32-0.274-0.597-0.733-0.458zM3.952 8.396c-0.197 0.086-0.242 0.347-0.089 0.507l0.085 0.089h4.023l0.077-0.077c0.156-0.156 0.128-0.387-0.061-0.502-0.127-0.077-3.862-0.093-4.036-0.017zM3.914 9.67c-0.157 0.076-0.194 0.369-0.062 0.5l0.086 0.086 4.156 0.008c2.618 0.005 4.186-0.003 4.238-0.023 0.227-0.086 0.258-0.412 0.055-0.569-0.067-0.052-8.365-0.055-8.472-0.003zM3.964 10.92c-0.237 0.088-0.268 0.441-0.049 0.561 0.133 0.073 8.175 0.103 8.391 0.032 0.242-0.080 0.306-0.395 0.109-0.542-0.083-0.062-8.287-0.112-8.451-0.051zM3.872 13.144c-0.18 0.164-0.116 0.463 0.112 0.526 0.053 0.014 0.584 0.026 1.181 0.025l1.085-0.002 0.107-0.107c0.12-0.12 0.136-0.222 0.058-0.373s-0.136-0.157-1.328-0.157h-1.117l-0.097 0.088zM7.064 13.091c-0.203 0.118-0.191 0.444 0.022 0.558 0.426 0.23 0.946-0.183 0.629-0.499-0.1-0.1-0.515-0.138-0.65-0.059zM12.64 13.275c0 0.015-0.328 0.348-0.728 0.741l-0.728 0.715-0.009-0.701c-0.005-0.385-0.002-0.719 0.007-0.741 0.018-0.047 1.458-0.061 1.458-0.014z"></path>
</svg>
