<!-- Generated by IcoMoon.io -->
<svg version="1.1" xmlns="http://www.w3.org/2000/svg" width="20" height="20" viewBox="0 0 20 20">
<title>arrows2</title>
<path d="M5.489 15.607c-1.64-1.319-2.69-3.342-2.69-5.611 0-3.354 2.297-6.164 5.401-6.965v-1.855c-4.109 0.834-7.201 4.466-7.201 8.82 0 2.691 1.181 5.104 3.052 6.753 1.448 1.349 2.348-0.451 1.437-1.141zM15.873 3.178c-0.922-0.833-2.272 0.517-1.387 1.186 1.655 1.319 2.715 3.352 2.715 5.632 0 3.354-2.297 6.165-5.401 6.965v1.856c4.109-0.835 7.201-4.466 7.201-8.821 0-2.726-1.213-5.167-3.128-6.818zM8.995 4.586l2.93-1.755c0.426-0.255 0.427-0.671 0.002-0.928l-2.957-1.79c-0.425-0.257-0.769-0.063-0.767 0.434l0.016 3.601c0.001 0.497 0.349 0.693 0.775 0.438zM11.030 15.416l-2.957 1.79c-0.425 0.257-0.424 0.673 0.002 0.928l2.93 1.755c0.426 0.255 0.774 0.059 0.777-0.438l0.015-3.6c0.002-0.497-0.342-0.691-0.767-0.434z"></path>
</svg>
