<!-- Generated by IcoMoon.io -->
<svg version="1.1" xmlns="http://www.w3.org/2000/svg" width="16" height="20" viewBox="0 0 16 20">
<title>attch</title>
<path d="M5.595 0.378c-0.295 0.104-0.476 0.249-0.629 0.506-0.077 0.134-0.15 0.43-0.15 0.613v0.118h-0.862c-0.952 0-1.015 0.008-1.092 0.161-0.038 0.071-0.044 0.252-0.044 1.343v1.259h-2.435l-0.088 0.079-0.090 0.079-0.008 5.765c-0.005 4.586 0 5.776 0.027 5.828 0.044 0.079 2.99 3.163 3.157 3.302l0.123 0.104h4.334c3.059 0 4.353-0.008 4.399-0.030 0.145-0.066 0.156-0.123 0.156-0.884v-0.7h1.587c1.171 0 1.603-0.008 1.655-0.033 0.161-0.074 0.15 0.512 0.15-8.055v-7.869l-0.101-0.096c-0.057-0.052-0.129-0.118-0.159-0.145-0.030-0.030-0.090-0.066-0.131-0.079-0.052-0.022-1.168-0.030-3.535-0.030h-3.456l-0.030-0.167c-0.033-0.197-0.134-0.427-0.246-0.569-0.107-0.131-0.446-0.394-0.618-0.473-0.131-0.060-0.17-0.063-0.958-0.068-0.728-0.008-0.837-0.003-0.958 0.041zM7.497 1.149c0.060 0.033 0.109 0.186 0.109 0.347v0.118h-2.005l0.016-0.098c0.022-0.137 0.131-0.293 0.241-0.347 0.079-0.038 0.202-0.047 0.84-0.047 0.454 0 0.769 0.011 0.799 0.027zM4.815 3.393v0.985l-0.607-0.005-0.61-0.008-0.008-0.979-0.005-0.977h1.231v0.985zM15.021 9.781v7.373h-2.627v-6.205c0-6.134 0-6.202-0.055-6.293-0.030-0.047-0.066-0.088-0.079-0.088s-0.077-0.044-0.14-0.096l-0.115-0.096h-4.399v-0.706c0-0.654-0.003-0.709-0.055-0.793-0.030-0.047-0.066-0.088-0.079-0.088s-0.077-0.044-0.14-0.096c-0.126-0.107-0.227-0.12-0.353-0.055-0.044 0.022-0.088 0.060-0.101 0.088s-0.030 0.405-0.038 0.843l-0.014 0.793-0.607 0.008-0.61 0.005v-1.97h9.412v7.373zM4.815 5.814v0.67h-1.215c-1.182 0-1.215 0.003-1.283 0.057-0.041 0.030-0.088 0.101-0.104 0.159-0.025 0.088-0.022 0.12 0.016 0.205 0.025 0.055 0.055 0.098 0.066 0.098s0.077 0.055 0.145 0.123l0.129 0.123h2.35l0.068 0.118c0.093 0.159 0.451 0.492 0.616 0.577 0.17 0.085 0.391 0.126 0.703 0.126 0.328 0 0.539-0.041 0.733-0.142 0.2-0.107 0.356-0.279 0.462-0.503l0.082-0.175h1.365c1.127 0 1.382-0.008 1.442-0.038 0.194-0.101 0.205-0.397 0.019-0.525-0.038-0.030-0.112-0.085-0.159-0.129l-0.085-0.074h-2.561v-1.341l4.008 0.014v13.598l-7.702 0.014v-1.33c0-1.174-0.005-1.341-0.044-1.423-0.025-0.052-0.071-0.109-0.104-0.126-0.030-0.016-0.098-0.066-0.148-0.107l-0.090-0.079h-2.542v-10.561h3.83v0.67zM6.826 5.814v0.657l-0.607 0.008-0.61 0.005v-1.341l0.61 0.005 0.607 0.008v0.657zM3.119 17.368v0.9l-0.295-0.304c-0.161-0.167-0.55-0.572-0.865-0.9l-0.569-0.594h1.729v0.897z"></path>
<path d="M2.361 9.1c-0.109 0.055-0.183 0.202-0.156 0.32 0.019 0.096 0.274 0.361 0.386 0.405 0.041 0.014 1.592 0.025 3.888 0.025 3.787 0 3.822 0 3.912-0.055 0.213-0.131 0.205-0.402-0.014-0.55-0.041-0.030-0.118-0.082-0.17-0.12l-0.093-0.068h-3.833c-3.425 0-3.841 0.005-3.921 0.044z"></path>
<path d="M2.317 11.713c-0.041 0.030-0.088 0.101-0.104 0.159-0.025 0.088-0.022 0.12 0.016 0.205 0.027 0.055 0.068 0.112 0.096 0.126 0.025 0.014 0.090 0.068 0.145 0.123l0.096 0.096h3.874c4.293 0 3.986 0.014 4.079-0.181 0.038-0.085 0.041-0.118 0.016-0.205-0.019-0.057-0.063-0.129-0.104-0.153-0.038-0.027-0.098-0.077-0.134-0.109-0.038-0.036-0.090-0.074-0.12-0.090-0.033-0.019-1.335-0.027-3.921-0.027-3.86 0-3.869 0-3.94 0.057z"></path>
<path d="M2.408 14.246c-0.077 0.027-0.189 0.153-0.205 0.227-0.008 0.038-0.003 0.107 0.014 0.15 0.033 0.082 0.252 0.315 0.347 0.367 0.044 0.022 1.075 0.030 3.918 0.030h3.855l0.085-0.068c0.17-0.145 0.164-0.369-0.014-0.501-0.044-0.033-0.104-0.082-0.134-0.112-0.030-0.027-0.082-0.066-0.115-0.082-0.044-0.022-1.111-0.030-3.885-0.027-2.104 0-3.844 0.008-3.866 0.016z"></path>
</svg>
