<!-- Generated by IcoMoon.io -->
<svg version="1.1" xmlns="http://www.w3.org/2000/svg" width="20" height="20" viewBox="0 0 20 20">
<title>attention-sign-outline</title>
<path d="M10 0c-5.522 0-10 4.478-10 10s4.478 10 10 10 10-4.478 10-10-4.478-10-10-10zM10 18.75c-4.825 0-8.75-3.926-8.75-8.75 0-4.825 3.925-8.75 8.75-8.75 4.824 0 8.75 3.925 8.75 8.75 0 4.824-3.926 8.75-8.75 8.75z"></path>
<path d="M10 3.75c-0.69 0-1.25 0.56-1.25 1.25v6.25c0 0.69 0.56 1.25 1.25 1.25s1.25-0.56 1.25-1.25v-6.25c0-0.69-0.56-1.25-1.25-1.25z"></path>
<path d="M11.25 14.98c0 0.69-0.56 1.25-1.25 1.25s-1.25-0.56-1.25-1.25c0-0.69 0.56-1.25 1.25-1.25s1.25 0.56 1.25 1.25z"></path>
</svg>
