<!-- Generated by IcoMoon.io -->
<svg version="1.1" xmlns="http://www.w3.org/2000/svg" width="20" height="20" viewBox="0 0 20 20">
<title>bar-graph2</title>
<path d="M19.602 15.938h-0.755v-11.326c0-0.22-0.178-0.398-0.398-0.398h-2.48c-0.22 0-0.398 0.178-0.398 0.398v11.326h-1.035v-10.208c0-0.22-0.178-0.398-0.398-0.398h-2.48c-0.22 0-0.398 0.178-0.398 0.398v10.208h-1.035v-12.164c0-0.22-0.178-0.398-0.398-0.398h-2.48c-0.22 0-0.398 0.178-0.398 0.398v12.164h-1.035v-8.85c0-0.22-0.178-0.398-0.398-0.398h-2.48c-0.22 0-0.398 0.178-0.398 0.398v8.85h-1.040v-12.274c0-0.22-0.178-0.398-0.398-0.398s-0.398 0.178-0.398 0.398v0.51h-0.4c-0.22 0-0.398 0.178-0.398 0.398s0.178 0.398 0.398 0.398h0.4v0.96h-0.4c-0.22 0-0.398 0.178-0.398 0.398s0.178 0.398 0.398 0.398h0.4v0.96h-0.4c-0.22 0-0.398 0.178-0.398 0.398s0.178 0.398 0.398 0.398h0.4v0.96h-0.4c-0.22 0-0.398 0.178-0.398 0.398s0.178 0.398 0.398 0.398h0.4v0.96h-0.4c-0.22 0-0.398 0.178-0.398 0.398s0.178 0.398 0.398 0.398h0.4v0.96h-0.4c-0.22 0-0.398 0.178-0.398 0.398s0.178 0.398 0.398 0.398h0.4v0.96h-0.4c-0.22 0-0.398 0.178-0.398 0.398s0.178 0.398 0.398 0.398h0.4v0.826c0 0.22 0.178 0.398 0.398 0.398h18.405c0.22 0 0.398-0.178 0.398-0.398s-0.178-0.398-0.398-0.398zM5.115 15.938h-1.683v-6.655h1.683v6.655zM5.115 8.486h-1.683c0 0 0-1 0-1h1.683v1zM9.426 15.938h-1.683v-8.325h1.683v8.325zM9.426 6.816h-1.683v-2.644h1.683v2.644zM13.738 15.938h-1.683v-5.178h1.683v5.178zM13.738 9.963h-1.683v-3.834h1.683v3.834zM18.050 15.938h-1.683v-7.135h1.683v7.135zM18.050 8.006h-1.683v-2.996h1.683v2.996z"></path>
</svg>
