<!-- Generated by IcoMoon.io -->
<svg version="1.1" xmlns="http://www.w3.org/2000/svg" width="20" height="20" viewBox="0 0 20 20">
<title>bible</title>
<path d="M16.928 17.494c0.413 0 0.748-0.335 0.748-0.748v-15.997c0-0.413-0.335-0.748-0.748-0.748h-13.112c-0.824 0-1.493 0.67-1.493 1.493v15.794c0 0.026 0.001 0.051 0.004 0.076-0.001 0.025-0.004 0.050-0.004 0.076v1.056c0 0.83 0.676 1.506 1.506 1.506h13.099c0.413 0 0.748-0.335 0.748-0.748s-0.335-0.748-0.748-0.748h-0.040v-1.009h0.040zM7.771 5.895h1.48v-1.447c0-0.413 0.335-0.748 0.748-0.748s0.748 0.335 0.748 0.748v1.448h1.48c0.413 0 0.748 0.335 0.748 0.748s-0.335 0.748-0.748 0.748h-1.48v4.54c0 0.413-0.335 0.748-0.748 0.748s-0.748-0.335-0.748-0.748v-4.54h-1.48c-0.413 0-0.748-0.335-0.748-0.748s0.335-0.748 0.748-0.748zM15.391 18.503h-11.562c-0.005 0-0.009-0.004-0.009-0.009v-1h11.571v1.009z"></path>
</svg>
