<!-- Generated by IcoMoon.io -->
<svg version="1.1" xmlns="http://www.w3.org/2000/svg" width="20" height="20" viewBox="0 0 20 20">
<title>black</title>
<path d="M18.661 4.982c-0.893-1.097-2.106-1.964-3.638-2.6s-3.207-0.954-5.022-0.954c-1.354 0-2.649 0.188-3.884 0.564s-2.299 0.884-3.192 1.523c-0.893 0.64-1.603 1.401-2.132 2.282s-0.792 1.806-0.792 2.773c0 1.116 0.337 2.162 1.010 3.136s1.594 1.793 2.762 2.455c-0.082 0.298-0.179 0.58-0.29 0.848s-0.212 0.488-0.301 0.659c-0.089 0.171-0.21 0.361-0.363 0.569s-0.268 0.355-0.346 0.441c-0.078 0.086-0.206 0.227-0.385 0.424s-0.294 0.326-0.346 0.385c-0.008 0.003-0.037 0.037-0.089 0.1s-0.078 0.095-0.078 0.095l-0.067 0.1c-0.037 0.056-0.054 0.091-0.050 0.106s-0.004 0.052-0.022 0.111c-0.019 0.060-0.017 0.104 0.006 0.134v0.011c0.030 0.134 0.095 0.242 0.195 0.324s0.214 0.115 0.34 0.1c0.484-0.059 0.908-0.141 1.272-0.245 1.949-0.499 3.661-1.399 5.134-2.701 0.558 0.059 1.097 0.089 1.618 0.089 1.815 0 3.49-0.318 5.022-0.954s2.745-1.503 3.638-2.6c0.893-1.097 1.339-2.293 1.339-3.588s-0.446-2.491-1.339-3.588z"></path>
</svg>
