<!-- Generated by IcoMoon.io -->
<svg version="1.1" xmlns="http://www.w3.org/2000/svg" width="20" height="20" viewBox="0 0 20 20">
<title>book</title>
<path d="M17.212 17.039c0.351-0.391 0.468-0.888 0.303-1.411-0.007-0.020-1.519-5.019-1.519-5.019-0.164-0.544-0.665-0.907-1.235-0.907h-1.978v2.541c0 1.54-1.257 2.792-2.797 2.792s-2.797-1.253-2.797-2.792v-2.541h-1.601c-0.568 0-1.070 0.36-1.234 0.906-1.207 4.199-1.219 4.244-1.72 5.707-0.117 0.344-0.239 0.709-0.239 1.095 0 1.422 1.156 2.591 2.577 2.591h11.348c0.526 0 0.999-0.332 1.195-0.821s0.055-1.033-0.303-1.417c-0.145-0.155-0.244-0.451-0-0.723zM16.32 18.663h-11.348c-0.712 0-1.289-0.575-1.289-1.287s0.577-1.287 1.289-1.287h11.348c-0.692 0.693-0.692 1.931-0 2.574z"></path>
<path d="M6.345 6.484h2.131v5.759c0 0.83 0.68 1.503 1.51 1.503s1.51-0.673 1.51-1.503v-5.759h2.147c0.83 0 1.503-0.679 1.503-1.509s-0.673-1.51-1.503-1.51h-2.147v-1.961c0-0.831-0.68-1.504-1.51-1.504s-1.51 0.673-1.51 1.504v1.961h-2.131c-0.83 0-1.503 0.68-1.503 1.51s0.674 1.509 1.503 1.509z"></path>
</svg>
