<!-- Generated by IcoMoon.io -->
<svg version="1.1" xmlns="http://www.w3.org/2000/svg" width="20" height="20" viewBox="0 0 20 20">
<title>book-1</title>
<path d="M18.041 18.505v-17.825c0-0.543-0.679-0.68-0.679-0.68h-13.366c-2.038 0-2.038 1.881-2.038 1.881v17.395c0 0.399 0.323 0.724 0.725 0.724h13.044c0.4 0 0.724-0.325 0.724-0.724l0.863-0.003c0.779 0 0.725-0.768 0.725-0.768zM10.39 8.869v7.851h-1.501v-7.851h-3.309v-1.501h3.309v-2.656h1.501v2.656h3.307l0.001 1.501c0 0-3.309 0-3.309 0zM17.202 17.559c0 0-0.13 0.472-0.749 0.472v-15.394c0-0.4-0.324-0.724-0.724-0.724l-12.344-0.006c0-0.497 0.749-0.75 0.749-0.75h12.319c0.772 0 0.749 0.68 0.749 0.68s0 15.724 0 15.724z"></path>
</svg>
