<!-- Generated by IcoMoon.io -->
<svg version="1.1" xmlns="http://www.w3.org/2000/svg" width="20" height="20" viewBox="0 0 20 20">
<title>buildings</title>
<path d="M10.332 0.628l9.515 8.855c0.192 0.186 0.206 0.488 0.027 0.687-0.096 0.103-0.227 0.151-0.357 0.151v0.007h-2.406v8.69c0 0.268-0.22 0.488-0.488 0.488h-3.788c-0.268 0-0.481-0.22-0.481-0.488v-6.682h-4.702v6.682c0 0.268-0.22 0.488-0.488 0.488h-3.788c-0.268 0-0.481-0.22-0.481-0.488v-8.69h-2.413c-0.268 0-0.481-0.22-0.481-0.488 0-0.151 0.069-0.289 0.179-0.378l9.493-8.841c0.186-0.172 0.474-0.172 0.66 0.007v0zM14.43 5.764l-4.427-4.125-8.284 7.714h1.657c0.268 0 0.488 0.22 0.488 0.488v8.69h2.819v-6.676c0-0.268 0.213-0.488 0.481-0.488h5.672c0.268 0 0.488 0.22 0.488 0.488v6.675h2.819v-8.689c0-0.268 0.213-0.488 0.481-0.488h1.664l-3.857-3.589z"></path>
</svg>
