<!-- Generated by IcoMoon.io -->
<svg version="1.1" xmlns="http://www.w3.org/2000/svg" width="20" height="20" viewBox="0 0 20 20">
<title>businesswoman</title>
<path d="M10.518 11.5l0.793 2.339-1.108-0.086-0.781 0.961 2.065 2.065 2.923-2.923c-0.225-0.376-0.556-0.683-0.957-0.883l-2.51-1.239c-0.143-0.074-0.282-0.151-0.425-0.233z"></path>
<path d="M5.322 13.753l-1.108 0.086 0.81-2.339-0.503 0.258-2.449 1.21c-0.654 0.323-1.12 0.936-1.251 1.656l-0.401 2.216c-0.029 0.164 0.094 0.315 0.262 0.315h2.936l2.465-2.465-0.76-0.936z"></path>
<path d="M13.92 9.276c0.286 0.139 0.593 0.209 0.908 0.262 0.245 0.037 0.253 0.049 0.253 0.303 0 0.114 0 0.229 0.004 0.348 0 0.147 0.074 0.229 0.221 0.233 0.168 0.004 0.339 0.004 0.511 0 0.139-0.004 0.209-0.078 0.213-0.221 0-0.159 0.008-0.315 0-0.474s0.061-0.241 0.217-0.282c0.356-0.098 0.658-0.286 0.891-0.572 0.646-0.785 0.397-1.934-0.515-2.441-0.286-0.159-0.593-0.278-0.895-0.405-0.176-0.074-0.343-0.159-0.491-0.274-0.29-0.233-0.237-0.609 0.106-0.76 0.094-0.041 0.196-0.057 0.303-0.061 0.397-0.020 0.773 0.049 1.128 0.225 0.18 0.086 0.237 0.057 0.298-0.127 0.065-0.196 0.119-0.397 0.176-0.593 0.037-0.135-0.008-0.221-0.135-0.278-0.229-0.102-0.466-0.176-0.711-0.213-0.323-0.049-0.323-0.053-0.323-0.376 0-0.458 0-0.458-0.462-0.458-0.065 0-0.135 0-0.2 0-0.213 0.008-0.249 0.045-0.258 0.258-0.004 0.098 0 0.192 0 0.29 0 0.286-0.004 0.282-0.278 0.384-0.666 0.241-1.075 0.695-1.12 1.419-0.041 0.642 0.294 1.075 0.822 1.39 0.323 0.196 0.683 0.311 1.026 0.462 0.135 0.057 0.262 0.127 0.376 0.221 0.331 0.274 0.27 0.728-0.123 0.899-0.209 0.090-0.433 0.114-0.658 0.086-0.352-0.045-0.687-0.135-1.006-0.303-0.184-0.098-0.241-0.070-0.303 0.131-0.053 0.172-0.102 0.348-0.151 0.523-0.074 0.241-0.049 0.298 0.176 0.405z"></path>
<path d="M5.767 10.196v0.74l1.051 3.066c0.27-0.18 0.589-0.278 0.92-0.278 0.348 0 0.683 0.106 0.961 0.307l1.055-3.079-0.004-0.053v-0.72c0 0 2.273 0.070 3.353-1.030 0 0-1.57-0.446-1.288-3.304s-0.352-5.364-2.649-5.152c0 0-0.994-1.198-2.976-0.446-0.679 0.258-2.506 0.912-2.412 4.869s-1.406 3.982-1.406 3.982 0.773 1.116 3.398 1.096z"></path>
<path d="M19.239 11.197c-0.012 0-0.029 0-0.041 0-0.887 0.041-1.774 0.082-2.662 0.127-0.139 0.008-0.274 0.012-0.352 0.18-0.078 0.164 0.012 0.258 0.106 0.352 0.274 0.274 0.54 0.548 0.818 0.818l-5.622 5.622-3.336-3.336c-0.114-0.114-0.266-0.172-0.413-0.172-0.151 0-0.298 0.057-0.413 0.172l-0.143 0.147-3.066 3.066c-0.229 0.229-0.229 0.601 0 0.826l0.147 0.147c0.114 0.114 0.266 0.172 0.413 0.172 0.151 0 0.298-0.057 0.413-0.172l2.649-2.649 3.332 3.332c0.114 0.114 0.266 0.172 0.413 0.172 0.151 0 0.298-0.057 0.413-0.172l6.178-6.178 0.801 0.793c0.074 0.074 0.147 0.155 0.253 0.155 0.041 0 0.082-0.012 0.131-0.037 0.159-0.086 0.196-0.225 0.2-0.384 0.037-0.867 0.082-1.729 0.123-2.596 0.020-0.266-0.090-0.384-0.343-0.384z"></path>
</svg>
