<!-- Generated by IcoMoon.io -->
<svg version="1.1" xmlns="http://www.w3.org/2000/svg" width="29" height="20" viewBox="0 0 29 20">
<title>business</title>
<path d="M9.794 0.043c-0.21 0.039-0.388 0.148-0.567 0.346-0.276 0.307-0.26-0.373-0.249 9.021l0.012 8.454h-0.594l-0.043-0.171c-0.031-0.124-0.043-2.012-0.043-6.68v-6.509h-2.889c-3.165 0-3.060-0.008-3.363 0.233-0.085 0.070-0.198 0.214-0.26 0.342l-0.109 0.221-0.012 6.066c-0.004 3.336 0.004 6.163 0.023 6.283l0.035 0.214h-1.736v2.136h28.971v-2.136h-1.573l0.012-6.221c0.012-6.905 0.027-6.462-0.252-6.784-0.078-0.093-0.229-0.21-0.338-0.26l-0.198-0.093h-5.961v6.482c0 4.819-0.012 6.536-0.047 6.68l-0.043 0.198h-0.59v-17.068l-0.089-0.183c-0.101-0.206-0.338-0.435-0.548-0.528-0.128-0.062-0.555-0.066-4.761-0.074-2.544 0-4.695 0.012-4.788 0.031zM15.235 0.602c1.285 0.272 2.353 1.305 2.715 2.629 0.078 0.276 0.089 0.412 0.085 0.924-0.004 0.536-0.016 0.641-0.105 0.944-0.206 0.668-0.52 1.177-1.025 1.662-0.715 0.683-1.565 0.998-2.571 0.955-0.579-0.023-0.917-0.109-1.421-0.357-0.905-0.447-1.608-1.297-1.891-2.291-0.078-0.268-0.089-0.396-0.085-0.951 0-0.583 0.012-0.672 0.109-0.99 0.35-1.15 1.192-2.031 2.307-2.412 0.206-0.074 0.501-0.148 0.649-0.167 0.33-0.047 0.878-0.023 1.235 0.054zM4.738 7.825v0.718h-1.398v-1.437h1.398v0.718zM7.029 7.825v0.718h-1.437v-1.437h1.437v0.718zM23.767 7.825v0.718h-1.437v-1.437h1.437v0.718zM26.058 7.825v0.718h-1.437v-1.437h1.437v0.718zM4.738 10.35v0.718h-1.398v-1.437h1.398v0.718zM7.029 10.35v0.718h-1.437v-1.437h1.437v0.718zM23.767 10.35v0.718h-1.437v-1.437h1.437v0.718zM26.058 10.35v0.718h-1.437v-1.437h1.437v0.718zM4.738 12.913v0.718h-1.398v-1.437h1.398v0.718zM7.029 12.913v0.718h-1.437v-1.437h1.437v0.718zM23.767 12.913v0.718h-1.437v-1.437h1.437v0.718zM26.058 12.913v0.718h-1.437v-1.437h1.437v0.718zM16.738 15.107v2.68h-4.272v-5.359h4.272v2.68z"></path>
<path d="M13.553 2.524v0.699h-1.359v1.825h1.359v1.398h1.825v-1.398h1.398v-1.825h-1.398v-1.398h-1.825v0.699z"></path>
</svg>
