<!-- Generated by IcoMoon.io -->
<svg version="1.1" xmlns="http://www.w3.org/2000/svg" width="20" height="20" viewBox="0 0 20 20">
<title>calendertime</title>
<path fill="#555" d="M3.127 0.913c-0.162 0.071-0.321 0.181-0.412 0.287-0.098 0.113-0.17 0.229-0.179 0.284-0.005 0.036-0.022 0.073-0.036 0.082-0.034 0.022-0.031-0.097-0.035 1.483l-0.004 1.37 0.081 0.176c0.142 0.309 0.492 0.579 0.786 0.605 0.062 0.005 0.119 0.012 0.128 0.016s0.081 0.003 0.16 0c0.323-0.013 0.68-0.279 0.858-0.64l0.087-0.176v-2.72l-0.087-0.185c-0.048-0.102-0.088-0.191-0.090-0.198-0.008-0.035-0.239-0.245-0.336-0.305-0.268-0.165-0.647-0.198-0.921-0.078zM9.76 0.866c-0.171 0.034-0.384 0.125-0.384 0.163 0 0.015-0.020 0.027-0.045 0.027s-0.093 0.061-0.151 0.136c-0.058 0.075-0.121 0.147-0.139 0.16s-0.023 0.024-0.011 0.024c0.012 0-0.009 0.069-0.048 0.152-0.076 0.164-0.11 2.482-0.043 2.87 0.106 0.608 0.907 1.006 1.46 0.725 0.284-0.144 0.512-0.389 0.58-0.623 0.058-0.199 0.037-2.759-0.024-2.944-0.103-0.312-0.478-0.67-0.716-0.684-0.026-0.002-0.113-0.010-0.192-0.019s-0.209-0.003-0.288 0.013zM0.291 7.496c0.003 4.647 0.015 5.125 0.127 5.264 0.004 0.004 0.010 0.022 0.014 0.040s0.011 0.036 0.014 0.040c0.004 0.004 0.013 0.043 0.021 0.087s0.027 0.086 0.042 0.096 0.043 0.072 0.061 0.138c0.038 0.138 0.38 0.695 0.427 0.695 0.017 0 0.024 0.012 0.015 0.026s0.068 0.107 0.17 0.206 0.179 0.188 0.169 0.198c-0.010 0.010-0.002 0.018 0.016 0.018s0.104 0.058 0.189 0.128 0.167 0.128 0.183 0.128c0.015 0 0.083 0.043 0.149 0.096s0.141 0.096 0.165 0.096c0.024 0 0.074 0.021 0.111 0.047 0.067 0.047 0.588 0.247 0.588 0.225 0-0.006 0.047 0.002 0.104 0.020s0.147 0.040 0.2 0.052c0.164 0.035 6.971 0.044 7.024 0.009 0.043-0.028 0.043-0.032 0-0.032-0.066-0.001-0.288-0.189-0.584-0.496s-0.38-0.401-0.357-0.401c0.009 0-0.026-0.053-0.080-0.117s-0.089-0.129-0.080-0.144c0.009-0.015 0.002-0.027-0.015-0.027s-0.042-0.032-0.054-0.072c-0.012-0.040-0.031-0.079-0.042-0.088-0.037-0.030-0.1-0.159-0.1-0.204 0-0.082-0.085-0.084-2.773-0.083-1.469 0.001-2.682-0.006-2.695-0.014s-0.072-0.024-0.13-0.034c-0.058-0.010-0.15-0.042-0.205-0.072s-0.12-0.056-0.144-0.061c-0.024-0.004-0.074-0.035-0.112-0.068s-0.095-0.081-0.127-0.106c-0.059-0.046-0.208-0.195-0.286-0.287-0.092-0.108-0.254-0.497-0.279-0.667-0.014-0.099-0.029-0.194-0.033-0.212s-0.005-1.238-0.003-2.712l0.004-2.68h9.504v0.706c0 0.461 0.011 0.699 0.032 0.686 0.033-0.021 0.089-0.033 0.303-0.068 0.191-0.031 0.829-0.032 1.113-0.001l0.248 0.027v-4.997h-1.538l0.001 0.728c0.002 0.985-0.035 1.175-0.302 1.541-0.429 0.588-1.342 0.865-1.953 0.593-0.070-0.031-0.135-0.059-0.144-0.062-0.077-0.025-0.192-0.097-0.192-0.12 0-0.016-0.014-0.020-0.031-0.009-0.031 0.019-0.362-0.295-0.44-0.417-0.080-0.125-0.201-0.366-0.212-0.421-0.006-0.031-0.020-0.079-0.032-0.105-0.042-0.098-0.048-0.226-0.051-0.968l-0.002-0.76h-3.099l-0.013 0.84c-0.013 0.866-0.042 1.052-0.191 1.232-0.018 0.022-0.023 0.040-0.011 0.040s0.001 0.021-0.025 0.047c-0.026 0.026-0.076 0.094-0.112 0.152-0.159 0.256-0.899 0.697-1.032 0.615-0.013-0.008-0.033-0.001-0.044 0.016-0.049 0.080-0.661 0.008-0.887-0.104-0.083-0.041-0.144-0.063-0.135-0.049 0.079 0.127-0.418-0.291-0.586-0.494-0.116-0.139-0.337-0.632-0.325-0.722 0.002-0.012 0.001-0.371-0.001-0.797l-0.004-0.776h-1.536l0.003 4.616zM3.181 7.629c-0.128 0.057-0.332 0.261-0.333 0.332-0.014 1.241-0.006 1.361 0.106 1.522 0.162 0.233 1.487 0.325 1.709 0.119 0.032-0.029 0.071-0.053 0.088-0.052 0.156 0.009 0.274-1.343 0.139-1.594-0.020-0.037-0.036-0.075-0.035-0.084 0.003-0.034-0.076-0.118-0.183-0.193-0.139-0.098-1.298-0.137-1.491-0.050zM5.979 7.65c-0.116 0.060-0.235 0.214-0.275 0.356-0.028 0.097-0.042 1.135-0.017 1.257 0.023 0.114 0.286 0.381 0.396 0.4 0.233 0.041 1.356 0.012 1.421-0.037 0.108-0.082 0.204-0.18 0.242-0.25 0.062-0.115 0.084-1.148 0.028-1.344-0.023-0.079-0.037-0.158-0.033-0.176s-0.002-0.021-0.015-0.008c-0.013 0.013-0.040-0.008-0.059-0.048-0.106-0.217-1.345-0.327-1.688-0.15zM8.912 7.617c-0.124 0.038-0.268 0.172-0.323 0.304-0.070 0.168-0.068 1.336 0.003 1.444 0.205 0.313 0.354 0.356 0.511 0.145 0.145-0.195 0.333-0.414 0.429-0.499 0.042-0.037 0.138-0.126 0.214-0.198s0.2-0.172 0.276-0.222c0.076-0.051 0.171-0.122 0.212-0.158s0.077-0.060 0.080-0.054c0.024 0.050 0.306-0.146 0.321-0.223 0.034-0.17-0.17-0.508-0.306-0.508-0.032 0-0.058-0.013-0.058-0.029 0-0.038-1.236-0.040-1.36-0.002zM11.76 8.565c-0.27 0.057-0.264 0.055-0.384 0.105-0.053 0.022-0.139 0.048-0.192 0.059s-0.165 0.060-0.249 0.11c-0.084 0.050-0.168 0.090-0.185 0.090s-0.049 0.015-0.071 0.034c-0.021 0.018-0.139 0.105-0.263 0.193-0.349 0.248-0.926 0.905-0.91 1.035 0.002 0.016-0.019 0.042-0.047 0.058s-0.051 0.043-0.051 0.060c0 0.017-0.024 0.085-0.053 0.15-0.125 0.281-0.174 0.439-0.255 0.823-0.022 0.104-0.031 0.71-0.014 0.944 0.011 0.149 0.084 0.479 0.132 0.592 0.015 0.035 0.036 0.1 0.048 0.144 0.030 0.117 0.108 0.282 0.144 0.305 0.017 0.011 0.031 0.042 0.031 0.071s0.020 0.074 0.045 0.102c0.025 0.028 0.084 0.122 0.132 0.209s0.147 0.222 0.219 0.299c0.25 0.268 0.411 0.423 0.439 0.423 0.016 0 0.028 0.011 0.028 0.025 0 0.050 0.702 0.474 0.827 0.499 0.029 0.006 0.107 0.035 0.174 0.064s0.167 0.061 0.224 0.070c0.057 0.009 0.125 0.020 0.152 0.025s0.067 0.020 0.090 0.034c0.078 0.048 0.886 0.063 1.1 0.020 0.111-0.022 0.241-0.046 0.289-0.052s0.217-0.062 0.375-0.124c0.159-0.062 0.303-0.113 0.321-0.113s0.033-0.014 0.033-0.032 0.012-0.028 0.026-0.024c0.014 0.004 0.097-0.036 0.184-0.090s0.168-0.097 0.179-0.096c0.012 0.001 0.055-0.036 0.096-0.082s0.091-0.089 0.111-0.096c0.041-0.013 0.363-0.31 0.363-0.334 0-0.009 0.040-0.057 0.088-0.106 0.124-0.127 0.195-0.225 0.267-0.363 0.034-0.066 0.076-0.12 0.094-0.12s0.031-0.022 0.031-0.050c0-0.027 0.031-0.11 0.070-0.184 0.126-0.243 0.145-0.292 0.215-0.557 0.107-0.403 0.15-1.345 0.066-1.441-0.008-0.009-0.010-0.018-0.043-0.184-0.088-0.44-0.362-0.987-0.674-1.344-0.211-0.241-0.496-0.508-0.642-0.601-0.088-0.056-0.188-0.127-0.222-0.158s-0.074-0.058-0.088-0.061c-0.066-0.010-0.289-0.103-0.418-0.175-0.048-0.027-0.088-0.042-0.088-0.033s-0.049-0.004-0.109-0.029c-0.060-0.025-0.169-0.053-0.242-0.062s-0.157-0.029-0.187-0.044c-0.092-0.047-0.96-0.036-1.206 0.016zM12.192 9.582c0 0.195 0.006 0.211 0.088 0.253 0.2 0.101 0.328-0.006 0.328-0.276v-0.191l0.168 0.022c0.215 0.028 0.505 0.114 0.572 0.17 0.029 0.024 0.083 0.046 0.12 0.049s0.068 0.016 0.068 0.030c0 0.014 0.021 0.025 0.046 0.025s0.068 0.023 0.096 0.050c0.028 0.028 0.050 0.041 0.050 0.029 0-0.083 0.696 0.599 0.724 0.71 0.010 0.038 0.037 0.077 0.061 0.086s0.061 0.075 0.082 0.146c0.021 0.071 0.051 0.13 0.066 0.13s0.027 0.028 0.027 0.062 0.014 0.071 0.032 0.082c0.018 0.011 0.032 0.054 0.032 0.096s0.015 0.085 0.033 0.096c0.018 0.011 0.026 0.031 0.017 0.045s-0.002 0.074 0.014 0.134c0.078 0.289 0.080 0.285-0.116 0.285-0.299 0-0.407 0.115-0.292 0.31 0.065 0.111 0.076 0.114 0.32 0.106 0.149-0.005 0.152-0.004 0.122 0.074-0.017 0.044-0.022 0.087-0.012 0.097 0.141 0.141-0.661 1.514-0.89 1.524-0.011 0-0.068 0.044-0.128 0.096s-0.126 0.096-0.148 0.096-0.040 0.012-0.040 0.027c0 0.037-0.601 0.268-0.736 0.283-0.062 0.007-0.152 0.019-0.2 0.027-0.086 0.014-0.088 0.011-0.088-0.143 0-0.166-0.055-0.33-0.101-0.302-0.015 0.009-0.027 0.004-0.027-0.011 0-0.053-0.2-0.020-0.244 0.041-0.025 0.034-0.044 0.139-0.044 0.243v0.184l-0.136-0.015c-0.195-0.022-0.228-0.028-0.264-0.049-0.018-0.010-0.075-0.030-0.128-0.044-0.282-0.076-0.554-0.214-0.784-0.398-0.278-0.223-0.377-0.319-0.435-0.426-0.027-0.049-0.077-0.122-0.112-0.162-0.087-0.099-0.258-0.435-0.238-0.467 0.009-0.014-0.004-0.042-0.029-0.063s-0.041-0.062-0.036-0.092-0.008-0.098-0.029-0.151c-0.021-0.053-0.042-0.157-0.046-0.232l-0.009-0.136h0.172c0.205 0 0.312-0.077 0.312-0.225 0-0.13-0.121-0.205-0.312-0.196-0.080 0.004-0.156-0.008-0.167-0.028-0.030-0.048 0.024-0.359 0.076-0.443 0.014-0.023 0.019-0.050 0.010-0.059s0.025-0.097 0.076-0.195c0.051-0.098 0.083-0.192 0.073-0.21s-0.004-0.022 0.017-0.009c0.020 0.013 0.037 0.006 0.037-0.014s0.030-0.079 0.066-0.13c0.036-0.051 0.059-0.093 0.049-0.093-0.057 0 0.51-0.567 0.626-0.626 0.058-0.030 0.113-0.063 0.122-0.074 0.044-0.054 0.38-0.219 0.492-0.242 0.037-0.008 0.13-0.033 0.207-0.056s0.196-0.046 0.264-0.051l0.124-0.009v0.208zM11.238 10.209c-0.039 0.036-0.070 0.054-0.071 0.040-0.002-0.094-0.063 0.096-0.063 0.197-0 0.123 0.13 0.37 0.196 0.37 0.015 0 0.028 0.018 0.028 0.040s0.036 0.079 0.080 0.127c0.044 0.047 0.080 0.098 0.080 0.112s0.036 0.065 0.080 0.112c0.044 0.047 0.080 0.102 0.080 0.121s0.032 0.068 0.072 0.109c0.118 0.121 0.153 0.201 0.125 0.279-0.102 0.275 0.206 0.668 0.523 0.667 0.216-0.001 0.543-0.166 0.47-0.238-0.011-0.011 0.176-0.018 0.416-0.015s0.452-0.005 0.471-0.016 0.034-0.013 0.034-0.003c0 0.010 0.043-0.020 0.096-0.067 0.103-0.092 0.12-0.188 0.063-0.352-0.059-0.169-0.166-0.203-0.634-0.203h-0.417l-0.105-0.096c-0.088-0.080-0.228-0.136-0.36-0.143-0.016-0.001-0.044-0.029-0.064-0.064s-0.068-0.099-0.107-0.144c-0.040-0.045-0.072-0.098-0.072-0.119s-0.013-0.042-0.028-0.048c-0.027-0.010-0.096-0.104-0.364-0.496-0.168-0.246-0.376-0.313-0.53-0.169zM3.248 10.334c-0.035 0.014-0.075 0.020-0.088 0.012s-0.024 0.001-0.024 0.020c0 0.019-0.019 0.034-0.042 0.034-0.046 0-0.141 0.1-0.208 0.219-0.077 0.137-0.053 1.397 0.029 1.53 0.142 0.23 0.204 0.249 0.843 0.262 0.803 0.017 0.91-0.010 1.084-0.267l0.086-0.127v-0.633c0-1.018-0.062-1.082-1.046-1.078-0.314 0.001-0.599 0.014-0.634 0.028zM6.121 10.336c-0.195 0.041-0.348 0.193-0.411 0.41-0.070 0.241-0.057 1.272 0.017 1.318 0.026 0.016 0.038 0.038 0.027 0.049-0.038 0.038 0.152 0.206 0.29 0.255 0.175 0.062 1.159 0.070 1.356 0.011 0.2-0.060 0.326-0.204 0.373-0.429 0.064-0.302 0.036-1.144-0.044-1.309-0.061-0.125-0.208-0.284-0.237-0.255-0.008 0.008-0.036-0.003-0.062-0.025-0.058-0.048-1.104-0.067-1.309-0.024z"></path>
</svg>
