<!-- Generated by IcoMoon.io -->
<svg version="1.1" xmlns="http://www.w3.org/2000/svg" width="20" height="20" viewBox="0 0 20 20">
<title>calendar</title>
<path d="M13.804 2.118v-1.176h-1.412v1.176h-4.784v-1.176h-1.412v1.176h-6.196v16.941h20v-16.941h-6.196zM6.196 3.529v1.176h1.412v-1.176h4.784v0.941h1.412v-0.941h4.784v2.353h-17.176v-2.353h4.784zM1.412 17.647v-10.353h17.176v10.353h-17.176z"></path>
<path d="M4.588 13.412h2.353v2.353h-2.353v-2.353z"></path>
<path d="M8.824 13.412h2.353v2.353h-2.353v-2.353z"></path>
<path d="M13.059 13.412h2.353v2.353h-2.353v-2.353z"></path>
<path d="M8.824 9.176h2.353v2.353h-2.353v-2.353z"></path>
<path d="M13.059 9.176h2.353v2.353h-2.353v-2.353z"></path>
<path d="M4.588 9.176h2.353v2.353h-2.353v-2.353z"></path>
</svg>
