<!-- Generated by IcoMoon.io -->
<svg version="1.1" xmlns="http://www.w3.org/2000/svg" width="20" height="20" viewBox="0 0 20 20">
<title>captured-criminal-hands</title>
<path d="M20 13.651c0-0.474-0.604-0.741-1.328-0.891l-0.103-1.6c0.682-2.015-0.062-4.623-0.062-4.623-0.090-1.439-1.662-1.328-1.662-1.328-0.646-1.215-1.693-0.369-1.693-0.369-0.779-1.195-1.791-0.127-1.791-0.127-1.717-0.229-1.671 1.217-1.671 1.217-0.047 0.458 0.216 1.886 0.216 1.886-0.244-0.825-0.806-0.158-0.806-0.158-0.695 1.063-0.192 1.665-0.192 1.665 0.905 1.129 2.847 2.504 2.847 2.504 0.181 0.112 0.34 0.47 0.476 0.94-0.021 0.004-0.043 0.010-0.064 0.014-0.206-0.279-0.403-0.57-0.417-0.677-0.030-0.228-0.134-0.349-0.616 0.071-0.118 0.103-0.26 0.193-0.406 0.27l-0.587-0.674c0.077-0.18 0.097-0.379 0.046-0.572-0.060-0.229-0.206-0.421-0.41-0.54l-0.813-0.475c-0.136-0.079-0.29-0.121-0.447-0.121-0.314 0-0.607 0.168-0.766 0.439-0.072 0.123-0.108 0.259-0.116 0.398h-0.405c-0.124-0.401-0.493-0.695-0.934-0.695-0.525 0-0.952 0.416-0.978 0.935l-0.441 0.143c-0.048-0.185-0.082-0.379-0.082-0.559 0-0.006-0-0.011-0-0.017 0.645-0.494 1.689-1.343 2.284-2.086 0 0 0.504-0.602-0.192-1.665 0 0-0.563-0.667-0.806 0.158 0 0 0.262-1.427 0.216-1.886 0 0 0.046-1.446-1.671-1.217 0 0-1.013-1.068-1.791 0.127 0 0-1.047-0.846-1.693 0.369 0 0-1.572-0.111-1.663 1.328 0 0-0.744 2.608-0.062 4.623l-0.060 0.945c-0.737 0.149-1.356 0.417-1.356 0.897 0 0.455 0.557 0.719 1.243 0.873l-0.126 1.963 4.040 0.591c0 0 0.114-1.277 0.335-2.49 0.151-0.025 0.299-0.056 0.441-0.091h1.278v-0.984c0 0-0.069-0.133-0.15-0.333l0.402-0.13c0.173 0.281 0.481 0.471 0.834 0.471 0.441 0 0.81-0.294 0.934-0.695h0.573c0.071 0.096 0.16 0.178 0.266 0.24l0.813 0.475c0.135 0.079 0.29 0.121 0.446 0.121 0.151 0 0.296-0.040 0.425-0.11l0.42 0.483c-0.229 0.081-0.396 0.121-0.396 0.121l-0.742 0.646 0.922 1.060 1.143-0.475c0.277 0.298 0.874 0.469 1.505 0.567 0.148 0.973 0.225 1.825 0.225 1.825l4.040-0.591-0.085-1.32c0.673-0.155 1.215-0.418 1.215-0.867zM6.412 11.076c0 0.106-0.086 0.191-0.192 0.191-0.039 0-0.073-0.014-0.103-0.034 0.037-0.046 0.075-0.084 0.115-0.108 0 0 0.061-0.044 0.165-0.12 0.009 0.022 0.014 0.045 0.014 0.071zM0.897 12.299c0.1-0.040 0.238-0.083 0.409-0.124l-0.016 0.244c-0.164-0.040-0.296-0.081-0.394-0.12zM8.296 11.595c-0.225 0-0.407-0.183-0.407-0.407s0.183-0.407 0.407-0.407c0.112 0 0.214 0.046 0.288 0.12h-0.288v0.575h0.288c-0.074 0.074-0.176 0.12-0.288 0.12zM11.172 11.694l-0.577-0.337v-0.457h-0.386c0.006-0.037 0.018-0.074 0.038-0.108 0.056-0.095 0.159-0.155 0.269-0.155 0.055 0 0.109 0.015 0.157 0.043l0.813 0.475c0.072 0.042 0.123 0.109 0.144 0.19 0.004 0.015 0.006 0.031 0.007 0.046l-0.335 0.292 0.043 0.049c-0.059 0.004-0.12-0.007-0.173-0.039zM13.12 12.694c0.080-0.069 0.201-0.061 0.27 0.019s0.061 0.201-0.019 0.27c-0.080 0.069-0.201 0.061-0.27-0.019-0.004-0.004-0.005-0.010-0.008-0.014l0.042-0.036-0.080-0.092c0.004-0.048 0.025-0.094 0.064-0.128zM12.421 13.454c-0.080 0.069-0.201 0.061-0.27-0.019s-0.061-0.201 0.018-0.27c0.080-0.069 0.201-0.061 0.271 0.019s0.061 0.2-0.019 0.27zM13.938 13.688l0.469-0.196c0.023 0.109 0.045 0.22 0.066 0.331-0.221-0.043-0.4-0.090-0.536-0.136zM18.737 13.764l-0.015-0.229c0.159 0.039 0.286 0.079 0.381 0.116-0.092 0.037-0.215 0.075-0.366 0.113z"></path>
</svg>
