<!-- Generated by IcoMoon.io -->
<svg version="1.1" xmlns="http://www.w3.org/2000/svg" width="20" height="20" viewBox="0 0 20 20">
<title>car-black-side-silhouette</title>
<path d="M19.699 9.599c-0.028-0.339-0.060-0.722-0.121-1.052-0.043-0.231-0.137-0.539-0.454-0.539-0.032 0-0.064 0.003-0.095 0.006-0.020 0.002-0.039 0.005-0.071 0.005-0.001 0-0.011-0.010-0.024-0.048-0.093-0.267-0.484-0.599-0.986-1.005-0.124-0.1-0.271-0.22-0.334-0.282 0.023-0.16 0.020-0.356-0.092-0.492-0.052-0.063-0.149-0.139-0.317-0.139-0.025 0-0.051 0.002-0.109 0.007-0.121 0-0.364-0.050-0.7-0.119-0.866-0.178-2.478-0.509-4.896-0.561-3.52-0.070-6.285 2.47-6.4 2.577l-0.082 0.076c-0.145 0.070-0.601 0.237-1.996 0.511-1.979 0.39-2.357 1.020-2.428 1.264-0.158 0.118-0.414 0.399-0.454 0.73-0.033 0.264-0.106 0.372-0.106 0.372l-0.034 0.044v1.863l0.004 0.034c0.107 0.495 0.62 0.756 1.482 0.756 0.275 0 0.481-0.028 0.473-0.028 0.012-0.001 0.118-0.002 0.303-0.006-0.019-0.052-0.036-0.105-0.051-0.159-0.014-0.052-0.027-0.104-0.038-0.158-0.024-0.126-0.038-0.256-0.038-0.39 0-1.145 0.931-2.076 2.076-2.076s2.076 0.931 2.076 2.076c0 0.104-0.010 0.204-0.025 0.303-0.008 0.054-0.017 0.108-0.029 0.16-0.012 0.054-0.026 0.108-0.042 0.161 2.592-0.056 5.891-0.129 8.445-0.193-0.011-0.052-0.018-0.105-0.026-0.159s-0.011-0.106-0.014-0.16c-0.002-0.037-0.006-0.074-0.006-0.112 0-1.145 0.931-2.076 2.076-2.076 1.128 0 2.048 0.906 2.073 2.028 0 0.016 0.002 0.031 0.002 0.047 0 0.040-0.004 0.080-0.006 0.119-0.003 0.057-0.009 0.113-0.016 0.169 0.488-0.080 0.855-0.337 1.067-0.753 0.363-0.711 0.178-1.673 0.048-1.878-0.070-0.111-0.105-0.543-0.136-0.924z"></path>
<path d="M2.601 13.565c0.271 0.622 0.889 1.057 1.611 1.057 0.747 0 1.384-0.468 1.638-1.125 0.020-0.052 0.038-0.106 0.053-0.161 0.015-0.052 0.027-0.106 0.037-0.16 0.018-0.101 0.029-0.204 0.029-0.31 0-0.97-0.786-1.757-1.756-1.757s-1.756 0.786-1.756 1.757c0 0.132 0.016 0.26 0.043 0.383 0.012 0.054 0.026 0.106 0.043 0.158 0.017 0.054 0.037 0.107 0.059 0.158z"></path>
<path d="M14.963 13.288c0.19 0.765 0.88 1.334 1.703 1.334 0.861 0 1.577-0.621 1.726-1.439 0.010-0.053 0.017-0.106 0.022-0.161 0.005-0.052 0.008-0.104 0.008-0.157 0-0.001 0-0.003 0-0.004-0.002-0.968-0.788-1.752-1.756-1.752-0.97 0-1.756 0.786-1.756 1.757 0 0.035 0.003 0.070 0.005 0.104 0.003 0.054 0.008 0.107 0.017 0.159 0.008 0.054 0.019 0.107 0.031 0.159z"></path>
</svg>
