<!-- Generated by IcoMoon.io -->
<svg version="1.1" xmlns="http://www.w3.org/2000/svg" width="20" height="20" viewBox="0 0 20 20">
<title>check-form</title>
<path d="M15.308 10.604v-8.993h-13.423v16.779h6.174c0.443 0 0.805 0.362 0.805 0.805s-0.362 0.805-0.805 0.805h-6.98c-0.443 0-0.805-0.362-0.805-0.805v-18.389c0-0.443 0.362-0.805 0.805-0.805h15.034c0.443 0 0.805 0.362 0.805 0.805v9.799c0 0.443-0.362 0.805-0.805 0.805s-0.805-0.362-0.805-0.805zM19.456 12.564c-0.336-0.295-0.846-0.268-1.141 0.067l-4.416 4.913-2.215-2.134c-0.322-0.309-0.832-0.295-1.141 0.027s-0.295 0.832 0.027 1.141l2.819 2.711c0.148 0.148 0.349 0.228 0.564 0.228 0.013 0 0.013 0 0.027 0 0.215-0.013 0.43-0.107 0.564-0.268l4.966-5.53c0.309-0.349 0.282-0.859-0.054-1.154zM12.355 4.698h-7.248c-0.443 0-0.805 0.362-0.805 0.805s0.362 0.805 0.805 0.805h7.248c0.443 0 0.805-0.362 0.805-0.805s-0.362-0.805-0.805-0.805zM13.161 9.933c0-0.443-0.362-0.805-0.805-0.805h-7.248c-0.443 0-0.805 0.362-0.805 0.805s0.362 0.805 0.805 0.805h7.248c0.443 0 0.805-0.362 0.805-0.805zM5.107 13.423c-0.443 0-0.805 0.362-0.805 0.805s0.362 0.805 0.805 0.805h2.148c0.443 0 0.805-0.362 0.805-0.805s-0.362-0.805-0.805-0.805h-2.148z"></path>
</svg>
