<!-- Generated by IcoMoon.io -->
<svg version="1.1" xmlns="http://www.w3.org/2000/svg" width="20" height="20" viewBox="0 0 20 20">
<title>checked-files</title>
<path d="M2.788 16.746c-0.187 0-0.339-0.152-0.339-0.339v-12.476c0-0.187 0.152-0.339 0.339-0.339h8.669c0.187 0 0.339 0.152 0.339 0.339v6.304c0.422-0.185 0.872-0.315 1.34-0.388v-5.916c0-0.926-0.753-1.679-1.679-1.679h-6.758v-0.573c0-0.187 0.152-0.339 0.339-0.339h8.669c0.187 0 0.339 0.152 0.339 0.339v8.101c0.456 0.005 0.903 0.073 1.34 0.192v-8.292c0-0.926-0.753-1.679-1.679-1.679h-8.669c-0.926 0-1.679 0.753-1.679 1.679v0.573h-0.571c-0.925 0-1.679 0.753-1.679 1.679v12.476c0 0.926 0.754 1.679 1.679 1.679h6.565c-0.257-0.414-0.461-0.862-0.601-1.34h-5.964z"></path>
<path d="M4.843 7.092h3.486c0.37 0 0.67-0.3 0.67-0.67s-0.3-0.67-0.67-0.67h-3.486c-0.37 0-0.67 0.3-0.67 0.67s0.3 0.67 0.67 0.67z"></path>
<path d="M9.402 8.434h-4.56c-0.37 0-0.67 0.3-0.67 0.67s0.3 0.67 0.67 0.67h4.56c0.37 0 0.67-0.3 0.67-0.67s-0.3-0.67-0.67-0.67z"></path>
<path d="M10.007 11.507c-0.106-0.23-0.335-0.391-0.605-0.391h-4.56c-0.37 0-0.67 0.3-0.67 0.67s0.3 0.67 0.67 0.67h4.452c0.203-0.342 0.442-0.66 0.712-0.949z"></path>
<path d="M4.173 14.467c0 0.37 0.3 0.67 0.67 0.67h3.693c0.007-0.463 0.075-0.912 0.191-1.34h-3.884c-0.37 0-0.67 0.3-0.67 0.67z"></path>
<path d="M17.59 14.302c0.075 0.295 0.12 0.603 0.12 0.921 0 2.057-1.674 3.731-3.731 3.731s-3.732-1.674-3.732-3.731c0-2.058 1.674-3.732 3.732-3.732 0.524 0 1.023 0.11 1.476 0.305l0.555-0.891c-0.618-0.292-1.304-0.46-2.031-0.46-2.634 0-4.777 2.143-4.777 4.778s2.143 4.777 4.777 4.777c2.634 0 4.777-2.143 4.777-4.777 0-0.732-0.171-1.424-0.466-2.044l-0.7 1.123z"></path>
<path d="M18.48 9.905c-0.143-0.089-0.302-0.132-0.46-0.132-0.29 0-0.575 0.145-0.74 0.41l-3.464 5.567-1.161-1.655c-0.169-0.241-0.44-0.37-0.714-0.37-0.173 0-0.347 0.051-0.499 0.158-0.393 0.276-0.489 0.819-0.213 1.213l1.917 2.734c0.164 0.233 0.43 0.371 0.714 0.371 0.008 0 0.016 0 0.024 0 0.293-0.008 0.561-0.162 0.716-0.41l4.16-6.686c0.255-0.409 0.13-0.946-0.279-1.2z"></path>
</svg>
