<!-- Generated by IcoMoon.io -->
<svg version="1.1" xmlns="http://www.w3.org/2000/svg" width="20" height="20" viewBox="0 0 20 20">
<title>check2</title>
<path d="M11.996 10.277c-1.991 0-3.611 1.62-3.611 3.611s1.62 3.611 3.611 3.611 3.611-1.62 3.611-3.611-1.62-3.611-3.611-3.611zM11.996 16.175c-1.261 0-2.287-1.026-2.287-2.287 0-0.39 0.099-0.758 0.272-1.080l1.548 1.548c0.124 0.124 0.292 0.194 0.468 0.194h2.189c-0.285 0.94-1.158 1.626-2.189 1.626zM12.27 13.226l-1.354-1.354c0.322-0.173 0.69-0.272 1.080-0.272 1.031 0 1.905 0.686 2.189 1.626h-1.915z"></path>
<path d="M15.892 1.966h-1.904c-0.233-0.576-0.797-0.983-1.455-0.983h-1.028c-0.255-0.578-0.834-0.983-1.506-0.983s-1.251 0.405-1.506 0.983h-1.028c-0.658 0-1.222 0.407-1.455 0.983h-1.904c-0.91 0-1.651 0.741-1.651 1.651v14.732c0 0.91 0.741 1.651 1.651 1.651h11.783c0.91 0 1.651-0.741 1.651-1.651v-14.732c0-0.91-0.741-1.651-1.651-1.651zM7.221 2.552v0c0-0.135 0.11-0.246 0.246-0.246h1.55c0.365 0 0.662-0.296 0.662-0.662 0-0.177 0.144-0.321 0.321-0.321s0.321 0.144 0.321 0.321c0 0.365 0.296 0.662 0.662 0.662h1.55c0.135 0 0.246 0.11 0.246 0.246v1.134c0 0.135-0.11 0.246-0.246 0.246h-5.066c-0.135 0-0.246-0.11-0.246-0.246v-1.134zM15.892 18.677h-11.783c-0.181 0-0.328-0.147-0.328-0.328v-14.732c0-0.181 0.147-0.328 0.328-0.328h1.79v0.397c0 0.865 0.704 1.569 1.569 1.569h5.066c0.865 0 1.569-0.704 1.569-1.569v-0.397h1.79c0.181 0 0.328 0.147 0.328 0.328v14.732h0c-0 0.181-0.147 0.328-0.328 0.328z"></path>
<path d="M5.085 7.668h4.915c0.365 0 0.662-0.296 0.662-0.662s-0.296-0.662-0.662-0.662h-4.915c-0.365 0-0.662 0.296-0.662 0.662s0.296 0.662 0.662 0.662z"></path>
<path d="M5.085 9.634h2.949c0.365 0 0.662-0.296 0.662-0.662s-0.296-0.662-0.662-0.662h-2.949c-0.365 0-0.662 0.296-0.662 0.662s0.296 0.662 0.662 0.662z"></path>
<path d="M8.696 10.938c0-0.365-0.296-0.662-0.662-0.662h-2.949c-0.365 0-0.662 0.296-0.662 0.662s0.296 0.662 0.662 0.662h2.949c0.365 0 0.662-0.296 0.662-0.662z"></path>
</svg>
