<!-- Generated by IcoMoon.io -->
<svg version="1.1" xmlns="http://www.w3.org/2000/svg" width="20" height="20" viewBox="0 0 20 20">
<title>check-1</title>
<path d="M19.127 1.302c-0.902-0.486-1.909 0.451-2.499 1.007-1.354 1.319-2.499 2.846-3.784 4.235-1.423 1.527-2.742 3.055-4.2 4.547-0.833 0.833-1.736 1.736-2.291 2.777-1.25-1.215-2.326-2.534-3.714-3.61-1.007-0.764-2.673-1.319-2.638 0.521 0.069 2.395 2.187 4.964 3.749 6.595 0.66 0.694 1.527 1.423 2.534 1.458 1.215 0.069 2.465-1.388 3.193-2.187 1.284-1.388 2.326-2.951 3.506-4.374 1.527-1.874 3.089-3.714 4.582-5.623 0.937-1.18 3.888-4.096 1.562-5.346zM1.528 10.639c-0.035 0-0.069 0-0.139 0.035-0.139-0.035-0.243-0.069-0.382-0.139v0c0.104-0.069 0.278-0.035 0.521 0.104z"></path>
</svg>
