<!-- Generated by IcoMoon.io -->
<svg version="1.1" xmlns="http://www.w3.org/2000/svg" width="36" height="20" viewBox="0 0 36 20">
<title>cheque</title>
<path d="M1.105 0.132c-0.389 0.14-0.84 0.56-0.996 0.926-0.093 0.218-0.109 1.712-0.109 8.957 0 8.296 0.008 8.716 0.148 9.019 0.171 0.381 0.607 0.755 1.012 0.879 0.428 0.125 32.895 0.125 33.323-0.008 0.171-0.047 0.444-0.202 0.607-0.35 0.591-0.506 0.56 0.125 0.537-9.681l-0.023-8.763-0.226-0.327c-0.125-0.179-0.389-0.42-0.584-0.537l-0.358-0.21-16.498-0.016c-14.654-0.008-16.537 0-16.833 0.109zM34.156 1.284c0.125 0.062 0.241 0.171 0.272 0.233 0.023 0.070 0.047 3.907 0.047 8.529v8.405l-0.195 0.187-0.187 0.195h-32.545l-0.187-0.195-0.195-0.187v-8.436c0-8.911-0.016-8.56 0.35-8.755 0.109-0.062 4.763-0.086 16.288-0.093 14.008 0 16.163 0.016 16.35 0.117z"></path>
<path d="M6.109 3.152c-0.156 0.156-0.195 0.265-0.195 0.607v0.42l-0.319 0.054c-0.412 0.062-1.043 0.366-1.409 0.669-0.77 0.638-0.848 1.743-0.195 2.677 0.21 0.296 0.988 0.794 1.502 0.957l0.42 0.132v2.467l-0.171-0.054c-0.607-0.187-0.996-0.521-0.996-0.872 0-0.257-0.335-0.56-0.607-0.56-0.132 0-0.311 0.070-0.412 0.148-0.381 0.303-0.117 1.323 0.459 1.798 0.366 0.303 0.996 0.607 1.409 0.669l0.319 0.054v0.42c0 0.506 0.226 0.802 0.623 0.802 0.381 0 0.545-0.233 0.545-0.77v-0.459l0.342-0.047c0.521-0.078 1.245-0.475 1.588-0.872 0.708-0.802 0.615-1.953-0.226-2.716-0.272-0.249-1.035-0.654-1.564-0.84-0.125-0.047-0.14-0.179-0.14-1.261v-1.214l0.179 0.054c0.296 0.093 0.708 0.319 0.848 0.467 0.070 0.086 0.163 0.296 0.21 0.475 0.14 0.514 0.623 0.661 0.981 0.296 0.218-0.21 0.241-0.451 0.101-0.911-0.195-0.661-1.136-1.385-1.977-1.51l-0.342-0.047v-0.459c0-0.358-0.039-0.498-0.156-0.615-0.218-0.218-0.584-0.202-0.817 0.039zM5.914 6.381c0 0.553-0.023 1.012-0.054 1.012-0.14 0-0.879-0.482-0.988-0.638-0.163-0.226-0.156-0.599 0-0.833 0.109-0.156 0.809-0.553 0.988-0.553 0.031 0 0.054 0.451 0.054 1.012zM7.58 9.323c1.043 0.576 0.887 1.385-0.319 1.759l-0.179 0.054v-1.012c0-0.56 0.023-1.019 0.062-1.019 0.031 0 0.226 0.101 0.436 0.218z"></path>
<path d="M11.44 3.735c-0.195 0.195-0.202 0.553-0.008 0.786l0.148 0.187 9.961 0.039 0.218-0.179c0.257-0.218 0.288-0.591 0.070-0.833-0.14-0.156-0.226-0.156-5.191-0.156-4.942 0-5.043 0-5.198 0.156z"></path>
<path d="M26.895 3.751c-0.195 0.272-0.156 0.646 0.078 0.833 0.179 0.14 0.319 0.163 0.965 0.163s0.786-0.023 0.965-0.163c0.156-0.125 0.202-0.226 0.202-0.451 0-0.49-0.14-0.553-1.191-0.553-0.84 0-0.911 0.008-1.019 0.171z"></path>
<path d="M30.482 3.72c-0.21 0.233-0.171 0.677 0.070 0.864 0.179 0.14 0.319 0.163 0.965 0.163s0.786-0.023 0.965-0.163c0.233-0.187 0.272-0.56 0.078-0.833-0.109-0.163-0.179-0.171-1.035-0.171-0.794 0-0.934 0.023-1.043 0.14z"></path>
<path d="M11.44 6.070c-0.233 0.233-0.21 0.646 0.047 0.848 0.202 0.163 0.265 0.163 5.767 0.163h5.556l0.187-0.195c0.233-0.233 0.249-0.498 0.031-0.77l-0.156-0.202h-5.642c-5.533 0-5.634 0-5.79 0.156z"></path>
<path d="M29.261 6.125c-0.202 0.257-0.163 0.615 0.086 0.817 0.14 0.125 0.342 0.14 1.549 0.14 1.276 0 1.393-0.016 1.588-0.163 0.257-0.202 0.28-0.615 0.047-0.848-0.148-0.148-0.257-0.156-1.626-0.156h-1.479l-0.163 0.21z"></path>
<path d="M11.455 8.428c-0.218 0.233-0.226 0.623-0.016 0.833 0.148 0.148 0.257 0.156 3.377 0.156 3.027 0 3.23-0.008 3.401-0.148 0.249-0.202 0.249-0.669 0-0.872-0.171-0.14-0.374-0.148-3.385-0.148h-3.214l-0.163 0.179z"></path>
<path d="M25.751 8.397c-0.132 0.101-0.179 0.226-0.179 0.436s0.047 0.335 0.179 0.436c0.171 0.14 0.374 0.148 3.401 0.148 3.121 0 3.23-0.008 3.377-0.156 0.218-0.218 0.202-0.63-0.023-0.84-0.179-0.171-0.202-0.171-3.377-0.171-3.004 0-3.206 0.008-3.377 0.148z"></path>
<path d="M23.961 12.521l-0.187 0.148v2.023c0 1.883 0.008 2.031 0.148 2.187 0.101 0.109 0.241 0.163 0.436 0.163 0.265 0 0.381-0.086 1.354-1.019l1.066-1.027 0.763 0.755c0.778 0.763 0.934 0.84 1.268 0.661 0.187-0.101 3.735-3.012 3.813-3.136 0.031-0.047 0.062-0.202 0.062-0.342 0-0.327-0.233-0.56-0.568-0.56-0.218 0-0.498 0.195-1.868 1.323-0.879 0.724-1.626 1.323-1.658 1.323s-0.397-0.335-0.817-0.739c-1.004-0.988-1.004-0.988-2.023 0.016l-0.77 0.755v-1.152c0-1.113-0.008-1.152-0.195-1.331-0.226-0.233-0.576-0.249-0.825-0.047z"></path>
<path d="M3.837 15.969c-0.195 0.093-0.35 0.467-0.28 0.669 0.14 0.397 0.187 0.405 1.782 0.405 1.463 0 1.502-0.008 1.619-0.171 0.195-0.272 0.156-0.646-0.078-0.833-0.195-0.148-0.303-0.163-1.541-0.156-0.77 0-1.401 0.039-1.502 0.086z"></path>
<path d="M8.529 16.039c-0.156 0.125-0.202 0.226-0.202 0.451 0 0.482 0.14 0.553 1.152 0.553 0.77 0 0.887-0.016 1.027-0.156 0.233-0.233 0.21-0.646-0.047-0.848-0.179-0.14-0.319-0.163-0.965-0.163s-0.786 0.023-0.965 0.163z"></path>
<path d="M12.179 15.969c-0.226 0.125-0.272 0.218-0.272 0.537 0 0.467 0.148 0.537 1.152 0.537 0.77 0 0.887-0.016 1.027-0.156 0.218-0.218 0.202-0.584-0.039-0.817-0.171-0.179-0.241-0.195-0.949-0.195-0.42 0-0.833 0.047-0.918 0.093z"></path>
<path d="M15.751 15.969c-0.342 0.163-0.405 0.623-0.125 0.934 0.109 0.132 0.342 0.14 2.786 0.14 2.646 0 2.669 0 2.833-0.171 0.21-0.233 0.202-0.568-0.039-0.802l-0.187-0.195-2.553 0.008c-1.588 0-2.615 0.031-2.716 0.086z"></path>
</svg>
