<!-- Generated by IcoMoon.io -->
<svg version="1.1" xmlns="http://www.w3.org/2000/svg" width="20" height="20" viewBox="0 0 20 20">
<title>chevron-arrow-down</title>
<path d="M19.525 5.135l-0.963-0.963c-0.334-0.317-0.723-0.475-1.168-0.475-0.454 0-0.839 0.158-1.156 0.475l-6.239 6.239-6.239-6.239c-0.317-0.317-0.702-0.475-1.155-0.475-0.445 0-0.834 0.158-1.168 0.475l-0.95 0.963c-0.325 0.325-0.488 0.715-0.488 1.168 0 0.462 0.163 0.847 0.488 1.155l8.357 8.357c0.308 0.325 0.693 0.488 1.155 0.488 0.454 0 0.843-0.163 1.168-0.488l8.357-8.357c0.317-0.317 0.475-0.702 0.475-1.155 0-0.445-0.158-0.834-0.475-1.168z"></path>
</svg>
