<!-- Generated by IcoMoon.io -->
<svg version="1.1" xmlns="http://www.w3.org/2000/svg" width="20" height="20" viewBox="0 0 20 20">
<title>circle</title>
<path d="M10 0c-5.514 0-10 4.486-10 10s4.486 10 10 10 10-4.486 10-10-4.486-10-10-10zM15.742 8.311l-6.282 6.282c-0.267 0.267-0.622 0.414-1 0.414s-0.733-0.147-1-0.414l-3.202-3.202c-0.267-0.267-0.414-0.622-0.414-1s0.147-0.733 0.414-1c0.267-0.267 0.622-0.414 1-0.414s0.733 0.147 1 0.414l2.202 2.202 5.282-5.282c0.267-0.267 0.622-0.414 1-0.414s0.733 0.147 1 0.414c0.552 0.552 0.552 1.449 0 2z"></path>
</svg>
