<!-- Generated by IcoMoon.io -->
<svg version="1.1" xmlns="http://www.w3.org/2000/svg" width="20" height="20" viewBox="0 0 20 20">
<title>clip</title>
<path d="M9.364 9.023c0.248-0.248 0.248-0.651 0-0.899s-0.651-0.248-0.899 0l-3.364 3.364c-0.574 0.574-0.884 1.318-0.884 2.124s0.31 1.55 0.884 2.124c1.178 1.178 3.085 1.178 4.248 0l7.597-7.597c0.791-0.791 1.225-1.845 1.225-2.961s-0.434-2.171-1.225-2.961c-1.643-1.643-4.295-1.643-5.938 0l-7.581 7.581c-1.023 1.023-1.581 2.372-1.581 3.814s0.558 2.806 1.581 3.814c1.023 1.023 2.372 1.581 3.814 1.581s2.806-0.558 3.814-1.581l3.364-3.364c0.248-0.248 0.248-0.651 0-0.899s-0.651-0.248-0.899 0l-3.364 3.364c-0.775 0.775-1.814 1.209-2.915 1.209s-2.14-0.434-2.915-1.209-1.209-1.814-1.209-2.915 0.434-2.14 1.209-2.915l7.581-7.581c0.558-0.558 1.287-0.853 2.062-0.853s1.519 0.31 2.062 0.853c0.558 0.558 0.853 1.287 0.853 2.062s-0.31 1.519-0.853 2.062l-7.597 7.597c-0.667 0.667-1.767 0.667-2.45 0-0.326-0.326-0.512-0.76-0.512-1.225s0.186-0.899 0.512-1.225l3.38-3.364z"></path>
</svg>
