<!-- Generated by IcoMoon.io -->
<svg version="1.1" xmlns="http://www.w3.org/2000/svg" width="20" height="20" viewBox="0 0 20 20">
<title>close-sm</title>
<path d="M11.273 10.045l8.455-8.455c0.364-0.364 0.364-0.909 0-1.273s-0.909-0.364-1.273 0l-8.455 8.455-8.455-8.455c-0.364-0.364-0.909-0.364-1.273 0s-0.364 0.909 0 1.273l8.454 8.455-8.454 8.454c-0.364 0.364-0.364 0.909 0 1.273 0.182 0.182 0.545 0.182 0.727 0.182s0.545 0 0.545-0.182l8.455-8.455 8.455 8.455c0.182 0.182 0.545 0.182 0.727 0.182s0.545 0 0.545-0.182c0.364-0.364 0.364-0.909 0-1.273l-8.454-8.454z"></path>
</svg>
