<!-- Generated by IcoMoon.io -->
<svg version="1.1" xmlns="http://www.w3.org/2000/svg" width="20" height="20" viewBox="0 0 20 20">
<title>close2</title>
<path d="M9.364 10.636l-2.591-2.591c-0.091-0.091-0.227-0.091-0.318 0l-0.045 0.045c-0.318 0.591-0.5 1.227-0.5 1.909 0 1.136 0.455 2.136 1.182 2.909 0.727 0.727 1.773 1.182 2.909 1.182 0.682 0 1.318-0.182 1.909-0.5l0.045-0.045c0.091-0.091 0.091-0.227 0-0.318l-2.591-2.591z"></path>
<path d="M10 5.909c-0.682 0-1.318 0.182-1.909 0.5l-0.045 0.045c-0.091 0.091-0.091 0.227 0 0.318l5.182 5.182c0.091 0.091 0.227 0.091 0.318 0l0.045-0.045c0.318-0.591 0.5-1.227 0.5-1.909 0-1.136-0.455-2.136-1.182-2.909-0.773-0.727-1.773-1.182-2.909-1.182z"></path>
<path d="M10 0c-5.545 0-10 4.455-10 10s4.455 10 10 10 10-4.455 10-10-4.455-10-10-10zM14.182 14.182c-1.091 1.091-2.545 1.727-4.182 1.727s-3.091-0.682-4.182-1.727c-1.091-1.091-1.727-2.545-1.727-4.182s0.682-3.091 1.727-4.182c1.091-1.091 2.545-1.727 4.182-1.727s3.091 0.682 4.182 1.727c1.091 1.091 1.727 2.545 1.727 4.182s-0.682 3.091-1.727 4.182z"></path>
</svg>
