<!-- Generated by IcoMoon.io -->
<svg version="1.1" xmlns="http://www.w3.org/2000/svg" width="20" height="20" viewBox="0 0 20 20">
<title>close-cross</title>
<path d="M13.386 10l5.912-5.911c0.935-0.935 0.935-2.452 0-3.387s-2.452-0.935-3.386 0l-5.912 5.912-5.912-5.912c-0.934-0.935-2.452-0.935-3.386 0s-0.935 2.452 0 3.387l5.911 5.911-5.911 5.911c-0.935 0.935-0.935 2.452 0 3.387 0.467 0.468 1.081 0.701 1.693 0.701s1.226-0.233 1.693-0.701l5.912-5.911 5.912 5.912c0.467 0.468 1.081 0.701 1.693 0.701s1.226-0.233 1.693-0.701c0.935-0.935 0.935-2.452 0-3.387l-5.912-5.912z"></path>
</svg>
