<!-- Generated by IcoMoon.io -->
<svg version="1.1" xmlns="http://www.w3.org/2000/svg" width="20" height="20" viewBox="0 0 20 20">
<title>coins</title>
<path d="M19.063 12.312c-0.476-0.476-1.149-0.648-1.768-0.514 0.55-1.097 0.86-2.334 0.86-3.643 0-4.497-3.659-8.156-8.156-8.156s-8.156 3.659-8.156 8.156c0 1.752 0.555 3.377 1.499 4.707-0.787 0.117-1.517 0.505-2.053 1.107-0.591 0.663-0.916 1.517-0.916 2.404v1.905c0 0.297 0.219 0.548 0.513 0.59l7.413 1.034c0.465 0.065 0.93 0.097 1.393 0.097 1.599 0 3.169-0.384 4.607-1.135 0.476-0.248 0.937-0.539 1.371-0.863 0.938-0.702 1.841-1.471 2.681-2.287l0.69-0.669c0.372-0.361 0.579-0.844 0.583-1.362s-0.196-1.005-0.562-1.371zM3.034 8.156c0-3.841 3.125-6.966 6.965-6.966s6.966 3.125 6.966 6.965c0 3.481-2.566 6.373-5.906 6.885h-0.065l0.744-0.325c0.015-0.007 0.031-0.014 0.046-0.022 0.999-0.543 1.401-1.773 0.913-2.801-0.070-0.148-0.157-0.286-0.258-0.413 0.179-0.362 0.28-0.77 0.28-1.201 0-1.295-0.91-2.38-2.124-2.653v-3.003c0.548 0.233 0.933 0.776 0.933 1.408 0 0.329 0.266 0.595 0.595 0.595s0.595-0.266 0.595-0.595c0-1.295-0.91-2.38-2.124-2.653v-0.56c0-0.329-0.266-0.595-0.595-0.595s-0.595 0.266-0.595 0.595v0.56c-1.214 0.272-2.124 1.358-2.124 2.653s0.91 2.38 2.124 2.653v2.404l-0.511 0.244c-0.261-0.274-0.422-0.645-0.422-1.053 0-0.329-0.266-0.595-0.595-0.595s-0.595 0.266-0.595 0.595c0 0.589 0.189 1.135 0.509 1.581l-2.023 0.967-0.93-0.001c-1.12-1.236-1.803-2.875-1.803-4.671zM11.528 10.28c-0 0.176-0.030 0.344-0.085 0.501-0.012-0.004-0.024-0.009-0.036-0.012-0.264-0.084-0.541-0.114-0.813-0.092v-1.804c0.548 0.233 0.933 0.776 0.933 1.408zM9.405 4.624v2.816c-0.548-0.233-0.933-0.776-0.933-1.408s0.385-1.175 0.933-1.408zM18.214 14.191l-0.69 0.669c-0.804 0.78-1.668 1.517-2.565 2.188-0.383 0.286-0.79 0.543-1.209 0.761-1.633 0.853-3.46 1.168-5.284 0.914l-6.9-0.962v-1.387c0-0.595 0.218-1.168 0.614-1.612 0.422-0.474 1.028-0.746 1.663-0.746 0.001 0 0.001 0 0.002 0l2.057 0.002c0 0 0 0 0.001 0 0.089 0 0.177-0.020 0.257-0.058l4.098-1.959c0.012-0.006 0.024-0.012 0.036-0.019 0.233-0.131 0.501-0.159 0.756-0.079s0.458 0.258 0.572 0.5c0.213 0.45 0.043 0.987-0.386 1.233l-3.325 1.454c-0.258 0.113-0.402 0.391-0.344 0.667s0.301 0.473 0.583 0.473h3.95c1.262 0 2.448-0.491 3.341-1.382l1.763-1.704c0.284-0.274 0.741-0.27 1.020 0.009 0.139 0.139 0.215 0.324 0.213 0.52s-0.080 0.38-0.221 0.517z"></path>
</svg>
