<!-- Generated by IcoMoon.io -->
<svg version="1.1" xmlns="http://www.w3.org/2000/svg" width="20" height="20" viewBox="0 0 20 20">
<title>commerce</title>
<path d="M18.993 9.376l-8.852-8.853c-0.349-0.349-0.806-0.523-1.263-0.523s-0.914 0.175-1.263 0.523l-4.848 4.847c-0.698 0.698-0.698 1.85 0 2.548l0.803 0.825h1.853l-1.73-1.752c-0.121-0.122-0.139-0.274-0.139-0.347s0.018-0.22 0.139-0.342l0.64-0.62 3.042 3.062h2.918l-4.501-4.524 2.748-2.759c0.121-0.121 0.263-0.144 0.336-0.144s0.215 0.015 0.336 0.136l8.852 8.852c0.122 0.122 0.14 0.262 0.14 0.336s-0.031 0.215-0.153 0.336l-0.502 0.49v1.853l1.429-1.416c0.697-0.699 0.71-1.829 0.012-2.527z"></path>
<path d="M14.839 9.573h-12.52c-0.986 0-1.83 0.794-1.83 1.781v4.736h16.113v-4.736c0-0.986-0.777-1.781-1.764-1.781zM4.865 14.477c-0.35 0-0.666-0.139-0.9-0.364-0.233 0.224-0.55 0.364-0.899 0.364-0.717 0-1.299-0.581-1.299-1.3s0.582-1.299 1.299-1.299c0.349 0 0.666 0.139 0.899 0.363 0.233-0.224 0.55-0.363 0.9-0.363 0.718 0 1.299 0.582 1.299 1.299s-0.582 1.3-1.299 1.3z"></path>
<path d="M0.49 18.209c0 0.986 0.843 1.791 1.83 1.791h12.52c0.986 0 1.764-0.805 1.764-1.791v-0.105h-16.114v0.105z"></path>
</svg>
