<!-- Generated by IcoMoon.io -->
<svg version="1.1" xmlns="http://www.w3.org/2000/svg" width="20" height="20" viewBox="0 0 20 20">
<title>court</title>
<path d="M11.875 17.048v-0.173c0-1.379-1.122-2.5-2.5-2.5h-6.25c-1.379 0-2.5 1.122-2.5 2.5v0.174c-0.625 0.217-0.625 0.615-0.625 1.076 0 0.69 0.56 1.25 1.25 1.25h10c0.69 0 1.25-0.56 1.25-1.25-0-0.462-0-0.86-0.625-1.077z"></path>
<path d="M18.75 5h-10v-1.25c0.625 0 1.25-0.56 1.25-1.25v-0.625c0-0.69-0.56-1.25-1.25-1.25h-5c-0.69 0-1.25 0.56-1.25 1.25v0.625c0 0.69 0.625 1.25 1.25 1.25v5c-0.625 0-1.25 0.56-1.25 1.25v0.625c0 0.69 0.559 1.25 1.25 1.25h5c0.69 0 1.25-0.56 1.25-1.25v-0.625c0-0.69-0.625-1.25-1.25-1.25v-1.25h10c0.69 0 1.25-0.56 1.25-1.25s-0.56-1.25-1.25-1.25z"></path>
</svg>
