<!-- Generated by IcoMoon.io -->
<svg version="1.1" xmlns="http://www.w3.org/2000/svg" width="20" height="20" viewBox="0 0 20 20">
<title>credit-card</title>
<path d="M15.756 5.155c0.291 0 0.372-0.393 0.111-0.512l-10.228-4.535c-0.622-0.278-1.355 0-1.633 0.626l-3.581 8.031c-0.278 0.622 0 1.355 0.626 1.633l2.063 0.892c0.258 0.115 0.553-0.074 0.553-0.356v-3.409c0-1.306 1.060-2.366 2.366-2.366l9.725-0.004z"></path>
<path d="M18.432 6.268h-12.406c-0.692 0-1.252 0.561-1.252 1.252v8.763c0 0.692 0.561 1.252 1.252 1.252h1.666c-0.041-0.246-0.061-0.495-0.061-0.749 0-0.287 0.029-0.565 0.078-0.839h-1.343v-4.195h11.731v4.191h-1.347c0.049 0.274 0.078 0.553 0.078 0.839 0 0.254-0.020 0.503-0.061 0.749h1.666c0.692 0 1.252-0.561 1.252-1.252v-8.759c0-0.692-0.561-1.252-1.252-1.252zM18.097 9.17h-11.731v-1.314h11.731v1.314z"></path>
<path d="M12.231 13.566c-1.776 0-3.217 1.441-3.217 3.217s1.441 3.217 3.217 3.217 3.217-1.441 3.217-3.217-1.441-3.217-3.217-3.217zM13.156 18.052c-0.139 0.172-0.323 0.287-0.536 0.344-0.094 0.025-0.135 0.074-0.131 0.172 0.004 0.094 0 0.188 0 0.287 0 0.086-0.045 0.131-0.127 0.131-0.102 0.004-0.205 0.004-0.307 0-0.090 0-0.131-0.053-0.131-0.139 0-0.070 0-0.139 0-0.209 0-0.151-0.008-0.16-0.156-0.184-0.188-0.029-0.372-0.074-0.544-0.156-0.135-0.065-0.151-0.098-0.111-0.241 0.029-0.106 0.057-0.213 0.090-0.315 0.037-0.123 0.070-0.135 0.184-0.078 0.192 0.098 0.393 0.156 0.606 0.18 0.135 0.016 0.27 0.004 0.397-0.053 0.237-0.102 0.274-0.377 0.074-0.54-0.070-0.057-0.143-0.098-0.225-0.131-0.209-0.090-0.426-0.16-0.618-0.278-0.319-0.188-0.52-0.45-0.495-0.839 0.025-0.438 0.274-0.708 0.675-0.855 0.164-0.061 0.168-0.057 0.168-0.229 0-0.057 0-0.119 0-0.176 0.004-0.131 0.025-0.151 0.156-0.156 0.041 0 0.082 0 0.119 0 0.278 0 0.278 0 0.278 0.278 0 0.196 0 0.196 0.196 0.225 0.147 0.025 0.291 0.065 0.43 0.127 0.078 0.033 0.106 0.086 0.082 0.168-0.033 0.119-0.065 0.241-0.106 0.356-0.037 0.111-0.074 0.127-0.18 0.078-0.217-0.106-0.442-0.147-0.679-0.135-0.061 0.004-0.123 0.012-0.18 0.037-0.205 0.090-0.241 0.319-0.065 0.458 0.090 0.070 0.188 0.123 0.295 0.168 0.184 0.074 0.364 0.147 0.54 0.246 0.54 0.299 0.692 0.991 0.303 1.461z"></path>
</svg>
