<!-- Generated by IcoMoon.io -->
<svg version="1.1" xmlns="http://www.w3.org/2000/svg" width="20" height="20" viewBox="0 0 20 20">
<title>degrees</title>
<path d="M16.313 8.78c-0.221-0.063-0.452 0.065-0.515 0.286s0.065 0.452 0.286 0.515c1.902 0.544 3.083 1.333 3.083 2.059 0 0.531-0.646 1.115-1.773 1.6-1.24 0.534-2.998 0.925-4.954 1.101l-1.707-0.023c-0.002 0-0.004-0-0.006-0-0.227 0-0.413 0.183-0.417 0.411-0.003 0.23 0.181 0.419 0.411 0.422l1.728 0.023c0.002 0 0.004 0 0.006 0 0.012 0 0.025-0.001 0.037-0.002 2.050-0.183 3.907-0.597 5.231-1.168 1.882-0.811 2.277-1.734 2.277-2.365 0-1.164-1.31-2.18-3.687-2.86z"></path>
<path d="M4.037 8.306c-0.23 0-0.417 0.187-0.417 0.417s0.187 0.417 0.417 0.417h1.713v1.722h-1.713c-0.23 0-0.417 0.187-0.417 0.417s0.187 0.417 0.417 0.417h2.13c0.23 0 0.417-0.187 0.417-0.417v-5.111c0-0.23-0.187-0.417-0.417-0.417h-2.13c-0.23 0-0.417 0.187-0.417 0.417s0.187 0.417 0.417 0.417h1.713v1.722h-1.713z"></path>
<path d="M7.87 11.694h2.556c0.23 0 0.417-0.187 0.417-0.417v-2.556c0-0.23-0.187-0.417-0.417-0.417h-2.139v-1.722h1.713c0.23 0 0.417-0.187 0.417-0.417s-0.187-0.417-0.417-0.417h-2.13c-0.23 0-0.417 0.187-0.417 0.417v5.111c0 0.23 0.187 0.417 0.417 0.417zM8.287 9.139h1.722v1.722h-1.722v-1.722z"></path>
<path d="M12.13 11.694h2.556c0.23 0 0.417-0.187 0.417-0.417v-5.111c0-0.23-0.187-0.417-0.417-0.417h-2.556c-0.23 0-0.417 0.187-0.417 0.417v5.111c0 0.23 0.187 0.417 0.417 0.417zM12.547 6.583h1.722v4.278h-1.722v-4.278z"></path>
<path d="M7.619 12.731c-0.149-0.176-0.412-0.198-0.587-0.049s-0.198 0.412-0.049 0.587l0.932 1.102c-1.967-0.15-3.748-0.51-5.057-1.027-1.286-0.508-2.024-1.128-2.024-1.703 0-0.667 0.989-1.387 2.646-1.924 0.219-0.071 0.339-0.306 0.268-0.525s-0.306-0.339-0.525-0.268c-0.964 0.313-1.728 0.684-2.271 1.105-0.631 0.488-0.95 1.030-0.95 1.611 0 0.963 0.882 1.82 2.552 2.478 1.357 0.535 3.176 0.911 5.176 1.073l-0.831 0.921c-0.154 0.171-0.141 0.434 0.030 0.588 0.080 0.072 0.179 0.107 0.279 0.107 0.114 0 0.227-0.046 0.309-0.138l1.516-1.68c0.069-0.077 0.107-0.176 0.107-0.279v-0.032c0-0.099-0.035-0.194-0.099-0.269l-1.421-1.68z"></path>
<path d="M15.892 5.729h1.703c0.23 0 0.417-0.187 0.417-0.417v-1.704c0-0.23-0.187-0.417-0.417-0.417h-1.703c-0.23 0-0.417 0.187-0.417 0.417v1.704c0 0.23 0.187 0.417 0.417 0.417zM16.309 4.025h0.87v0.871h-0.87v-0.871z"></path>
</svg>
