<!-- Generated by IcoMoon.io -->
<svg version="1.1" xmlns="http://www.w3.org/2000/svg" width="22" height="20" viewBox="0 0 22 20">
<title>deligate</title>
<path d="M10.46 0.039c0 0.022-0.064 0.073-0.139 0.112-0.078 0.039-0.198 0.128-0.268 0.198-0.073 0.070-0.137 0.126-0.148 0.126-0.017 0-0.112 0.145-0.148 0.229-0.011 0.028-0.033 0.050-0.050 0.050-0.014 0-0.028 0.025-0.028 0.056 0 0.033-0.022 0.098-0.047 0.148-0.042 0.073-0.050 0.162-0.050 0.494 0 0.34 0.008 0.416 0.050 0.474 0.025 0.036 0.047 0.098 0.047 0.134 0 0.033 0.020 0.070 0.042 0.078 0.022 0.011 0.042 0.028 0.042 0.042 0 0.036 0.109 0.19 0.198 0.273 0.12 0.117 0.254 0.226 0.276 0.226 0.011 0 0.036 0.020 0.056 0.042s0.056 0.042 0.084 0.042c0.028 0 0.064 0.020 0.084 0.042s0.064 0.042 0.098 0.042c0.033 0 0.109 0.020 0.162 0.042 0.134 0.056 0.591 0.056 0.689 0 0.039-0.022 0.103-0.039 0.142-0.042 0.042 0 0.089-0.020 0.109-0.042s0.056-0.042 0.084-0.042c0.028 0 0.064-0.020 0.084-0.042s0.047-0.042 0.061-0.042c0.014 0 0.114-0.084 0.22-0.19 0.181-0.176 0.332-0.379 0.332-0.452 0-0.017 0.020-0.050 0.042-0.073 0.025-0.025 0.042-0.095 0.042-0.165s0.022-0.167 0.047-0.223c0.042-0.086 0.042-0.114 0.011-0.218-0.020-0.064-0.042-0.173-0.050-0.243-0.011-0.109-0.067-0.243-0.187-0.466-0.050-0.092-0.388-0.427-0.43-0.427-0.020 0-0.042-0.017-0.050-0.039s-0.050-0.045-0.095-0.053c-0.047-0.011-0.086-0.042-0.098-0.075-0.017-0.053-0.039-0.056-0.616-0.056-0.502 0-0.597 0.006-0.597 0.039z"></path>
<path d="M4.759 2.19c-0.031 0.022-0.084 0.042-0.114 0.042-0.033 0-0.117 0.031-0.184 0.070s-0.142 0.078-0.165 0.089c-0.022 0.008-0.053 0.033-0.064 0.056-0.011 0.020-0.033 0.036-0.050 0.036-0.036 0-0.212 0.201-0.312 0.357-0.148 0.229-0.215 0.463-0.215 0.748 0 0.173 0.014 0.282 0.042 0.335 0.022 0.045 0.042 0.106 0.042 0.137s0.045 0.123 0.098 0.206c0.053 0.081 0.098 0.156 0.098 0.165 0 0.031 0.34 0.338 0.393 0.354 0.031 0.011 0.053 0.031 0.053 0.045s0.022 0.025 0.050 0.025c0.028 0 0.075 0.020 0.106 0.042 0.028 0.022 0.078 0.042 0.109 0.042s0.092 0.020 0.137 0.042c0.112 0.059 0.51 0.056 0.697-0.006 0.215-0.070 0.402-0.165 0.566-0.282 0.112-0.081 0.371-0.404 0.371-0.463 0-0.025 0.020-0.053 0.042-0.061 0.022-0.011 0.042-0.042 0.042-0.073 0-0.028 0.020-0.117 0.045-0.192 0.053-0.162 0.045-0.644-0.011-0.7-0.020-0.020-0.033-0.070-0.033-0.112s-0.011-0.078-0.025-0.078c-0.014 0-0.036-0.028-0.045-0.059-0.036-0.109-0.234-0.374-0.335-0.441-0.053-0.036-0.098-0.075-0.098-0.089s-0.017-0.025-0.039-0.025c-0.022 0-0.059-0.017-0.078-0.036-0.061-0.053-0.218-0.131-0.268-0.131-0.025 0-0.084-0.020-0.128-0.042-0.109-0.059-0.65-0.059-0.725 0z"></path>
<path d="M16.642 2.19c-0.031 0.022-0.081 0.042-0.112 0.042-0.033 0-0.084 0.020-0.112 0.042-0.031 0.022-0.075 0.042-0.103 0.042-0.025 0-0.053 0.020-0.064 0.042-0.008 0.022-0.033 0.042-0.056 0.042-0.061 0-0.407 0.351-0.407 0.416 0 0.014-0.020 0.031-0.042 0.042-0.022 0.008-0.042 0.033-0.042 0.056 0 0.025-0.025 0.084-0.056 0.134s-0.056 0.139-0.056 0.198c0 0.061-0.020 0.151-0.045 0.204-0.042 0.086-0.042 0.106 0 0.232 0.025 0.078 0.045 0.181 0.045 0.232s0.036 0.162 0.084 0.245c0.045 0.084 0.092 0.17 0.103 0.192 0.008 0.022 0.039 0.061 0.061 0.086 0.025 0.028 0.081 0.095 0.126 0.151s0.1 0.1 0.12 0.1c0.022 0 0.045 0.017 0.053 0.039s0.036 0.047 0.061 0.056c0.025 0.008 0.103 0.047 0.17 0.086s0.151 0.070 0.181 0.070c0.033 0 0.095 0.020 0.139 0.042 0.053 0.028 0.162 0.042 0.324 0.042s0.271-0.014 0.324-0.042c0.045-0.022 0.114-0.042 0.153-0.042 0.042 0 0.089-0.020 0.109-0.042s0.053-0.042 0.075-0.042c0.092 0 0.594-0.466 0.594-0.552 0-0.020 0.020-0.042 0.042-0.050 0.022-0.011 0.042-0.050 0.042-0.095s0.020-0.084 0.042-0.095c0.033-0.011 0.042-0.092 0.042-0.477s-0.008-0.466-0.042-0.477c-0.022-0.011-0.042-0.050-0.042-0.095s-0.020-0.084-0.042-0.095c-0.022-0.008-0.042-0.033-0.042-0.056s-0.061-0.109-0.139-0.19c-0.075-0.081-0.139-0.156-0.139-0.17 0-0.011-0.020-0.020-0.042-0.020-0.020 0-0.050-0.017-0.061-0.036-0.033-0.053-0.209-0.145-0.455-0.243-0.145-0.059-0.722-0.067-0.792-0.014z"></path>
<path d="M9.038 3.261c-0.084 0.011-0.181 0.033-0.215 0.053s-0.084 0.033-0.114 0.033c-0.031 0-0.070 0.017-0.086 0.039-0.020 0.022-0.067 0.047-0.109 0.059s-0.081 0.028-0.089 0.036c-0.008 0.011-0.064 0.053-0.126 0.095-0.229 0.156-0.572 0.524-0.572 0.616 0 0.022-0.020 0.047-0.042 0.059-0.022 0.008-0.042 0.042-0.042 0.073 0 0.033-0.017 0.078-0.039 0.098-0.020 0.022-0.047 0.1-0.056 0.173-0.011 0.073-0.039 0.176-0.061 0.223-0.036 0.078-0.039 0.29-0.033 1.417l0.008 1.325-0.089 0.042c-0.047 0.022-0.117 0.042-0.153 0.042-0.033 0-0.089 0.020-0.117 0.042-0.031 0.022-0.084 0.042-0.117 0.042s-0.075 0.020-0.095 0.042c-0.020 0.022-0.056 0.042-0.084 0.042s-0.064 0.020-0.084 0.042c-0.020 0.022-0.047 0.042-0.064 0.042s-0.050 0.017-0.073 0.039c-0.042 0.036-0.045-0.025-0.045-0.689-0.003-0.717-0.031-1.052-0.095-1.074-0.017-0.006-0.031-0.033-0.031-0.064 0-0.059-0.167-0.31-0.271-0.407-0.117-0.112-0.324-0.259-0.357-0.259-0.020 0-0.050-0.020-0.070-0.042s-0.061-0.042-0.095-0.042c-0.031 0-0.084-0.020-0.112-0.042-0.042-0.031-0.142-0.042-0.407-0.042s-0.365 0.011-0.407 0.042c-0.028 0.022-0.078 0.042-0.109 0.042-0.081 0-0.382 0.206-0.522 0.354-0.067 0.070-0.142 0.148-0.167 0.173-0.028 0.022-0.050 0.059-0.050 0.075s-0.025 0.064-0.056 0.103c-0.031 0.039-0.056 0.1-0.056 0.137-0.003 0.033-0.020 0.095-0.042 0.134-0.033 0.059-0.039 0.413-0.042 2.245v2.176l-0.259 0.265c-0.142 0.145-0.285 0.287-0.315 0.312-0.053 0.045-0.053 0.033-0.053-0.753 0-0.815-0.025-1.071-0.117-1.18-0.020-0.022-0.036-0.061-0.036-0.084 0-0.078-0.446-0.555-0.516-0.555-0.020 0-0.050-0.020-0.070-0.042s-0.056-0.042-0.084-0.042c-0.028 0-0.064-0.020-0.084-0.042s-0.081-0.042-0.137-0.042c-0.056-0.003-0.131-0.020-0.17-0.042-0.089-0.053-0.385-0.053-0.474 0-0.039 0.022-0.109 0.039-0.156 0.042-0.047 0-0.103 0.020-0.123 0.042s-0.059 0.042-0.089 0.042c-0.117 0-0.58 0.399-0.58 0.502 0 0.014-0.011 0.028-0.025 0.028-0.042 0-0.165 0.287-0.209 0.494-0.039 0.173-0.045 0.519-0.045 2.449 0 2.212 0 2.245-0.056 2.293-0.053 0.047-0.056 0.084-0.056 0.789 0 0.536 0.011 0.756 0.036 0.798 0.017 0.031 0.073 0.123 0.117 0.201 0.047 0.081 0.092 0.145 0.1 0.145 0.011 0 0.098 0.081 0.195 0.181s0.192 0.181 0.209 0.181c0.020 0 0.039 0.020 0.050 0.042 0.008 0.022 0.042 0.042 0.073 0.042s0.064 0.020 0.073 0.042c0.011 0.022 0.039 0.042 0.064 0.042 0.028 0 0.073 0.020 0.103 0.042 0.028 0.022 0.084 0.042 0.123 0.042s0.106 0.020 0.151 0.042c0.070 0.036 0.46 0.042 2.985 0.042h2.904v0.901c0 0.823 0.006 0.907 0.050 0.951 0.025 0.028 0.047 0.061 0.047 0.078 0 0.036 0.173 0.206 0.293 0.29 0.181 0.123 0.6 0.126 0.734 0.003 0.028-0.028 0.061-0.047 0.073-0.047 0.047 0 0.215-0.212 0.245-0.31 0.017-0.061 0.042-0.109 0.056-0.109 0.011 0 0.022-0.396 0.022-0.881v-0.879l0.257 0.017-0.006 1.029c0 0.566 0.006 1.222 0.017 1.456l0.020 0.43h4.148v-2.932l0.254 0.017-0.003 0.759c0 0.421 0.008 0.764 0.022 0.773s0.033 0.092 0.045 0.184c0.014 0.106 0.033 0.176 0.059 0.184 0.022 0.008 0.047 0.045 0.059 0.075 0.011 0.033 0.045 0.089 0.078 0.123 0.056 0.061 0.078 0.064 0.522 0.064h0.466l0.086-0.089c0.047-0.047 0.086-0.103 0.086-0.123s0.014-0.039 0.033-0.045c0.017-0.006 0.053-0.081 0.075-0.165 0.033-0.117 0.042-0.324 0.045-0.954v-0.801h2.901c2.463-0.003 2.912-0.008 2.971-0.042 0.039-0.022 0.098-0.039 0.131-0.042 0.033 0 0.095-0.020 0.139-0.039 0.042-0.022 0.098-0.050 0.12-0.059 0.142-0.056 0.432-0.282 0.558-0.435 0.053-0.067 0.117-0.139 0.139-0.162 0.025-0.025 0.078-0.117 0.12-0.206 0.045-0.089 0.098-0.17 0.12-0.179 0.033-0.011 0.039-0.12 0.039-0.625 0-0.388-0.011-0.611-0.028-0.611-0.014 0-0.028-0.022-0.028-0.053 0-0.028-0.020-0.067-0.042-0.086s-0.042-0.059-0.042-0.089c0-0.028-0.020-0.059-0.042-0.067-0.036-0.014-0.042-0.298-0.042-2.312 0-1.386-0.011-2.304-0.025-2.315-0.014-0.008-0.036-0.084-0.045-0.167-0.011-0.084-0.036-0.167-0.059-0.184s-0.039-0.050-0.039-0.073c0-0.053-0.293-0.418-0.371-0.457-0.033-0.020-0.067-0.042-0.075-0.050-0.036-0.045-0.198-0.142-0.232-0.142-0.022 0-0.056-0.020-0.075-0.042s-0.081-0.042-0.137-0.042c-0.056-0.003-0.131-0.020-0.17-0.042-0.089-0.053-0.385-0.053-0.474 0-0.039 0.022-0.112 0.039-0.162 0.042-0.050 0-0.112 0.020-0.134 0.042-0.025 0.022-0.067 0.042-0.092 0.042-0.028 0-0.067 0.020-0.086 0.042s-0.050 0.042-0.067 0.042c-0.017 0-0.109 0.078-0.204 0.176-0.265 0.268-0.285 0.293-0.304 0.365-0.008 0.039-0.033 0.084-0.056 0.103-0.022 0.017-0.039 0.075-0.039 0.128s-0.020 0.114-0.045 0.139c-0.036 0.036-0.042 0.151-0.033 0.87l0.008 0.826-0.312-0.312-0.315-0.312v-2.201c0-1.933-0.006-2.206-0.042-2.22-0.025-0.008-0.042-0.050-0.042-0.112 0-0.053-0.014-0.106-0.028-0.114-0.017-0.011-0.045-0.059-0.067-0.106-0.042-0.098-0.349-0.438-0.396-0.438-0.017 0-0.053-0.025-0.081-0.056s-0.067-0.056-0.084-0.056c-0.020 0-0.050-0.020-0.070-0.042s-0.070-0.042-0.112-0.042c-0.042 0-0.092-0.020-0.112-0.042-0.050-0.059-0.703-0.059-0.82 0-0.042 0.022-0.1 0.042-0.128 0.042s-0.064 0.020-0.084 0.042c-0.020 0.022-0.050 0.042-0.070 0.042-0.075 0-0.516 0.388-0.516 0.455 0 0.014-0.025 0.056-0.056 0.095s-0.056 0.095-0.056 0.12c0 0.028-0.020 0.056-0.042 0.067-0.031 0.011-0.042 0.056-0.042 0.151 0 0.075-0.020 0.184-0.042 0.237-0.033 0.078-0.042 0.226-0.042 0.653 0 0.304 0.011 0.597 0.028 0.647 0.031 0.106 0.011 0.156-0.031 0.078-0.017-0.025-0.045-0.047-0.064-0.047-0.022 0-0.053-0.020-0.073-0.042s-0.056-0.042-0.084-0.042c-0.028 0-0.064-0.020-0.084-0.042s-0.061-0.042-0.095-0.042c-0.033 0-0.086-0.020-0.117-0.042-0.028-0.022-0.086-0.042-0.128-0.042s-0.106-0.011-0.145-0.028l-0.070-0.025-0.008-1.478c-0.006-1.138-0.017-1.487-0.042-1.515-0.020-0.017-0.036-0.059-0.036-0.092s-0.011-0.070-0.025-0.084c-0.014-0.017-0.064-0.106-0.114-0.204-0.050-0.095-0.1-0.173-0.114-0.173s-0.025-0.017-0.025-0.036c0-0.053-0.441-0.466-0.497-0.466-0.014 0-0.042-0.017-0.059-0.039-0.020-0.022-0.064-0.047-0.106-0.059-0.039-0.008-0.089-0.036-0.112-0.056-0.022-0.022-0.064-0.042-0.095-0.042s-0.089-0.022-0.128-0.050c-0.070-0.045-0.223-0.047-2.086-0.050-1.105-0.003-2.078 0.003-2.162 0.014zM9.127 6.563l0.008 0.94h-0.237v-0.965c0-0.89 0.003-0.971 0.050-1.004 0.039-0.031 0.056-0.028 0.109 0.025 0.061 0.061 0.061 0.075 0.070 1.004zM13.172 6.262c0.008 0.399 0.022 0.842 0.031 0.982l0.011 0.259h-0.243v-0.94c0-0.842 0.006-0.943 0.047-0.99 0.025-0.028 0.067-0.047 0.089-0.045 0.039 0.008 0.047 0.109 0.064 0.734zM14.586 8.123c0.053 0.028 0.128 0.050 0.17 0.050s0.092 0.020 0.112 0.042c0.020 0.022 0.053 0.042 0.073 0.042 0.053 0 0.259 0.114 0.427 0.237 0.070 0.050 0.884 0.848 3.632 3.556 0.895 0.881 1.813 1.785 2.039 2.008 0.229 0.22 0.413 0.418 0.413 0.435 0 0.020 0.020 0.039 0.042 0.050 0.022 0.008 0.042 0.045 0.042 0.084 0 0.036 0.020 0.073 0.042 0.084 0.022 0.008 0.042 0.050 0.042 0.092 0.003 0.042 0.020 0.109 0.042 0.148 0.056 0.098 0.056 0.524 0 0.597-0.022 0.031-0.042 0.084-0.042 0.117 0 0.059-0.067 0.206-0.126 0.279-0.014 0.020-0.059 0.078-0.095 0.128-0.12 0.167-0.441 0.385-0.566 0.385-0.036 0-0.089 0.020-0.117 0.042-0.047 0.036-0.444 0.042-2.901 0.042h-2.848l0.008-1.353c0.006-1.144 0-1.375-0.036-1.517-0.022-0.089-0.042-0.195-0.042-0.234s-0.017-0.106-0.039-0.151c-0.022-0.042-0.081-0.159-0.128-0.259-0.089-0.187-0.184-0.318-0.377-0.513-0.128-0.131-0.444-0.351-0.499-0.351-0.020 0-0.053-0.020-0.073-0.042s-0.064-0.042-0.098-0.042c-0.033 0-0.078-0.020-0.098-0.042s-0.067-0.042-0.109-0.042c-0.039 0-0.123-0.020-0.184-0.042-0.17-0.061-4.276-0.061-4.449 0-0.064 0.022-0.151 0.042-0.192 0.042-0.039 0-0.098 0.020-0.126 0.042-0.031 0.022-0.075 0.042-0.103 0.042-0.025 0-0.061 0.020-0.081 0.042s-0.053 0.042-0.075 0.042c-0.045 0-0.206 0.109-0.24 0.159-0.011 0.020-0.036 0.036-0.050 0.036-0.039 0-0.385 0.335-0.418 0.404-0.050 0.103-0.095 0.173-0.145 0.22-0.025 0.028-0.047 0.073-0.047 0.1s-0.020 0.056-0.042 0.067c-0.025 0.008-0.042 0.050-0.042 0.109 0 0.050-0.020 0.117-0.042 0.148-0.033 0.045-0.039 0.285-0.042 1.593v1.543h-2.867c-2.48 0-2.876-0.006-2.923-0.042-0.028-0.022-0.084-0.042-0.123-0.042-0.098 0-0.396-0.201-0.53-0.357-0.212-0.248-0.343-0.622-0.318-0.912 0.025-0.287 0.075-0.441 0.218-0.656 0.084-0.128 0.377-0.421 3.252-3.264 0.89-0.881 1.894-1.877 2.229-2.209 0.335-0.335 0.639-0.619 0.675-0.636s0.117-0.059 0.179-0.098c0.061-0.036 0.131-0.067 0.156-0.070 0.025 0 0.061-0.020 0.081-0.042s0.075-0.042 0.123-0.042c0.050 0 0.106-0.017 0.123-0.033 0.064-0.064 0.497-0.070 3.771-0.067 3.038 0.003 3.255 0.006 3.344 0.050zM8.923 14.402c0.020 0.025 0.031 0.365 0.031 1.082l0.003 1.043-0.254 0.017v-1.071c0-0.589 0.008-1.079 0.020-1.088 0.031-0.033 0.167-0.022 0.201 0.017zM13.372 14.391c0.008 0.011 0.017 0.499 0.017 1.079l0.003 1.057-0.254 0.017v-1.035c0-0.661 0.011-1.054 0.028-1.091 0.031-0.056 0.179-0.075 0.206-0.028z"></path>
<path d="M10.628 8.391c-0.070 0.022-0.159 0.059-0.201 0.078-0.039 0.022-0.092 0.039-0.114 0.039s-0.047 0.020-0.059 0.042c-0.008 0.022-0.033 0.042-0.056 0.042-0.036 0-0.391 0.329-0.477 0.446-0.073 0.098-0.126 0.195-0.126 0.234 0 0.022-0.020 0.061-0.045 0.086s-0.053 0.103-0.059 0.176c-0.006 0.073-0.025 0.159-0.042 0.192-0.050 0.1 0.025 0.686 0.1 0.795 0.025 0.033 0.045 0.084 0.045 0.112 0 0.025 0.017 0.059 0.036 0.070 0.017 0.011 0.050 0.053 0.070 0.092 0.045 0.089 0.273 0.335 0.31 0.335 0.017 0 0.039 0.017 0.050 0.033 0.028 0.045 0.192 0.162 0.226 0.162 0.014 0 0.042 0.020 0.061 0.042s0.061 0.042 0.095 0.042c0.033 0 0.075 0.014 0.095 0.033 0.103 0.103 0.957 0.106 1.040 0.006 0.017-0.022 0.061-0.039 0.095-0.039s0.078-0.020 0.098-0.042c0.020-0.022 0.047-0.042 0.061-0.042 0.033 0 0.198-0.117 0.226-0.162 0.011-0.017 0.033-0.033 0.050-0.033 0.059 0 0.321-0.315 0.393-0.477 0.036-0.075 0.073-0.137 0.084-0.137 0.014 0 0.022-0.033 0.022-0.078 0-0.042 0.020-0.112 0.042-0.156 0.059-0.112 0.059-0.636 0-0.697-0.022-0.022-0.042-0.084-0.042-0.137s-0.020-0.112-0.042-0.131c-0.022-0.020-0.042-0.056-0.042-0.081 0-0.028-0.036-0.092-0.084-0.142-0.045-0.050-0.084-0.103-0.084-0.117 0-0.025-0.271-0.301-0.293-0.301-0.025 0-0.192-0.123-0.204-0.148-0.006-0.011-0.031-0.020-0.059-0.020-0.025 0-0.073-0.020-0.103-0.042-0.028-0.022-0.078-0.042-0.109-0.042s-0.092-0.020-0.137-0.042c-0.106-0.056-0.65-0.053-0.826 0.008z"></path>
<path d="M1.144 5.484c-0.209 0.089-0.349 0.167-0.371 0.198-0.011 0.020-0.033 0.036-0.050 0.036-0.033 0-0.304 0.268-0.346 0.338-0.128 0.226-0.167 0.312-0.204 0.457-0.073 0.285-0.036 0.711 0.078 0.907 0.022 0.039 0.064 0.114 0.098 0.17 0.031 0.053 0.075 0.123 0.098 0.153 0.070 0.089 0.371 0.346 0.407 0.346 0.017 0 0.047 0.020 0.067 0.042s0.061 0.042 0.092 0.042c0.031 0 0.078 0.020 0.106 0.045 0.073 0.064 0.82 0.067 0.954 0.003 0.047-0.022 0.137-0.064 0.198-0.095 0.204-0.095 0.603-0.477 0.603-0.577 0-0.022 0.017-0.053 0.036-0.064 0.064-0.042 0.112-0.271 0.123-0.594 0.011-0.257 0.003-0.351-0.039-0.474-0.028-0.084-0.067-0.165-0.084-0.176-0.020-0.011-0.036-0.047-0.036-0.078 0-0.073-0.424-0.497-0.558-0.558-0.053-0.025-0.156-0.073-0.226-0.106-0.112-0.050-0.179-0.059-0.488-0.059-0.259 0.003-0.388 0.014-0.457 0.045z"></path>
<path d="M20.047 5.495c-0.056 0.031-0.123 0.056-0.145 0.056s-0.042 0.011-0.042 0.025c0 0.014-0.033 0.036-0.078 0.053-0.117 0.039-0.466 0.396-0.536 0.544-0.033 0.073-0.073 0.139-0.086 0.148s-0.025 0.047-0.025 0.089c0 0.042-0.020 0.112-0.042 0.156-0.056 0.106-0.056 0.51 0 0.586 0.022 0.031 0.042 0.086 0.042 0.126s0.045 0.145 0.098 0.234c0.053 0.089 0.098 0.173 0.098 0.19 0 0.014 0.017 0.025 0.036 0.025 0.017 0 0.059 0.036 0.089 0.084 0.056 0.081 0.298 0.279 0.346 0.279 0.011 0 0.039 0.020 0.059 0.042s0.061 0.042 0.092 0.042c0.031 0 0.078 0.020 0.106 0.045 0.075 0.067 0.854 0.067 0.948 0 0.036-0.025 0.084-0.045 0.103-0.045 0.022 0 0.095-0.039 0.165-0.084 0.067-0.047 0.134-0.084 0.145-0.084 0.059 0 0.404-0.432 0.457-0.572 0.006-0.017 0.028-0.073 0.050-0.126 0.020-0.056 0.042-0.243 0.047-0.438 0.006-0.276 0-0.354-0.033-0.404-0.025-0.033-0.045-0.095-0.045-0.137s-0.020-0.081-0.042-0.092c-0.022-0.008-0.042-0.039-0.042-0.067s-0.045-0.092-0.098-0.145c-0.053-0.053-0.098-0.112-0.098-0.131 0-0.042-0.318-0.276-0.446-0.329-0.022-0.011-0.092-0.042-0.156-0.073-0.095-0.045-0.179-0.053-0.488-0.053-0.321 0-0.391 0.008-0.48 0.056z"></path>
</svg>
