<!-- Generated by IcoMoon.io -->
<svg version="1.1" xmlns="http://www.w3.org/2000/svg" width="20" height="20" viewBox="0 0 20 20">
<title>detalles-de-perfil-de-usuario</title>
<path d="M19.278 17.795h-18.556c-0.399 0-0.722-0.323-0.722-0.722v-14.147c0-0.399 0.323-0.722 0.722-0.722h18.556c0.399 0 0.722 0.323 0.722 0.722v14.147c-0 0.399-0.323 0.722-0.722 0.722zM1.444 16.352h17.113v-12.704h-17.113v12.704z"></path>
<path d="M4.647 9.839c-1.26 0-2.285-1.025-2.285-2.285s1.025-2.285 2.285-2.285 2.285 1.025 2.285 2.285-1.025 2.285-2.285 2.285zM4.647 6.712c-0.464 0-0.842 0.378-0.842 0.842s0.378 0.842 0.842 0.842 0.842-0.378 0.842-0.842-0.378-0.842-0.842-0.842z"></path>
<path d="M6.211 14.731h-3.127c-0.399 0-0.722-0.323-0.722-0.722v-3.127c0-0.398 0.323-0.722 0.722-0.722h3.127c0.399 0 0.722 0.323 0.722 0.722v3.127c0 0.399-0.323 0.722-0.722 0.722zM3.806 13.287h1.684v-1.684h-1.684c0 0 0 1.684 0 1.684z"></path>
<path d="M16.916 7.073h-6.873c-0.399 0-0.722-0.323-0.722-0.722s0.323-0.722 0.722-0.722h6.873c0.399 0 0.722 0.323 0.722 0.722s-0.323 0.722-0.722 0.722z"></path>
<path d="M16.916 9.478h-6.873c-0.399 0-0.722-0.323-0.722-0.722s0.323-0.722 0.722-0.722h6.873c0.399 0 0.722 0.323 0.722 0.722s-0.323 0.722-0.722 0.722z"></path>
<path d="M16.916 11.884h-6.873c-0.399 0-0.722-0.323-0.722-0.722s0.323-0.722 0.722-0.722h6.873c0.399 0 0.722 0.323 0.722 0.722s-0.323 0.722-0.722 0.722z"></path>
<path d="M16.916 14.289h-6.873c-0.399 0-0.722-0.323-0.722-0.722s0.323-0.722 0.722-0.722h6.873c0.399 0 0.722 0.323 0.722 0.722s-0.323 0.722-0.722 0.722z"></path>
</svg>
