<!-- Generated by IcoMoon.io -->
<svg version="1.1" xmlns="http://www.w3.org/2000/svg" width="20" height="20" viewBox="0 0 20 20">
<title>disabled</title>
<path d="M0 10c0 5.514 4.486 10 10 10s10-4.486 10-10-4.486-10-10-10c-5.514 0-10 4.486-10 10zM10 2.745c4 0 7.255 3.254 7.255 7.255 0 1.505-0.461 2.904-1.249 4.065l-10.071-10.071c1.16-0.788 2.56-1.249 4.065-1.249zM14.065 16.006c-1.16 0.788-2.56 1.249-4.065 1.249-4 0-7.255-3.254-7.255-7.255 0-1.505 0.461-2.904 1.249-4.065l10.071 10.071z"></path>
</svg>
