<!-- Generated by IcoMoon.io -->
<svg version="1.1" xmlns="http://www.w3.org/2000/svg" width="20" height="20" viewBox="0 0 20 20">
<title>doc-file-format</title>
<path d="M17.735 7.154h-0.48v-2.318c0-0.014-0.002-0.029-0.004-0.044-0.001-0.092-0.030-0.182-0.093-0.254l-3.856-4.405c-0.001-0.001-0.002-0.002-0.003-0.003-0.023-0.026-0.050-0.047-0.078-0.066-0.008-0.006-0.017-0.010-0.026-0.015-0.025-0.013-0.051-0.024-0.077-0.033-0.007-0.002-0.014-0.005-0.021-0.007-0.029-0.007-0.059-0.011-0.090-0.011h-9.477c-0.433 0-0.784 0.352-0.784 0.784v6.369h-0.48c-0.619 0-1.121 0.502-1.121 1.121v5.829c0 0.619 0.502 1.121 1.121 1.121h0.48v3.991c0 0.432 0.352 0.784 0.784 0.784h12.941c0.432 0 0.784-0.352 0.784-0.784v-3.991h0.48c0.619 0 1.121-0.502 1.121-1.121v-5.829c0-0.619-0.502-1.121-1.121-1.121zM3.529 0.784h9.085v4.013c0 0.217 0.176 0.392 0.392 0.392h3.464v1.965h-12.941v-6.37zM12.94 10.871c0 1.783-1.081 2.864-2.67 2.864-1.613 0-2.557-1.218-2.557-2.767 0-1.63 1.041-2.848 2.646-2.848 1.67 0 2.582 1.25 2.582 2.751zM2.347 13.622v-5.34c0.452-0.073 1.041-0.113 1.662-0.113 1.032 0 1.702 0.186 2.226 0.581 0.565 0.42 0.92 1.089 0.92 2.049 0 1.041-0.379 1.759-0.903 2.202-0.573 0.476-1.444 0.702-2.509 0.702-0.638 0-1.089-0.040-1.396-0.081zM16.471 19.003h-12.941v-3.778h12.941v3.778zM16.53 12.71c0.371 0 0.783-0.081 1.024-0.178l0.186 0.96c-0.226 0.113-0.734 0.234-1.396 0.234-1.88 0-2.848-1.17-2.848-2.718 0-1.855 1.323-2.888 2.968-2.888 0.637 0 1.122 0.129 1.34 0.242l-0.25 0.976c-0.25-0.105-0.597-0.202-1.033-0.202-0.976 0-1.734 0.589-1.734 1.799-0 1.089 0.645 1.775 1.742 1.775z"></path>
<path d="M5.848 10.839c0.008-1.13-0.654-1.726-1.71-1.726-0.274 0-0.452 0.024-0.557 0.048v3.558c0.105 0.024 0.274 0.024 0.428 0.024 1.113 0.008 1.839-0.605 1.839-1.904z"></path>
<path d="M9.011 10.943c0 1.065 0.5 1.815 1.323 1.815 0.831 0 1.307-0.791 1.307-1.847 0-0.976-0.468-1.815-1.315-1.815-0.831 0-1.315 0.791-1.315 1.847z"></path>
</svg>
