<!-- Generated by IcoMoon.io -->
<svg version="1.1" xmlns="http://www.w3.org/2000/svg" width="20" height="20" viewBox="0 0 20 20">
<title>Doctor</title>
<path d="M9.538 0.013c-1.107 0.029-2.321 0.175-3.388 0.412-0.398 0.087-0.855 0.202-0.87 0.218-0.012 0.010 0.048 0.258 0.552 2.32 0.167 0.691 0.312 1.263 0.316 1.269 0.006 0.004 0.156-0.027 0.333-0.069 0.768-0.189 1.586-0.321 2.412-0.393 0.458-0.038 1.894-0.033 2.348 0.010 0.778 0.073 1.474 0.187 2.175 0.354 0.206 0.050 0.397 0.090 0.423 0.090 0.046 0.002 0.050-0.012 0.196-0.604 0.264-1.070 0.708-2.922 0.708-2.953 0-0.033-0.013-0.037-0.472-0.15-1.14-0.281-2.366-0.449-3.657-0.497-0.472-0.017-0.61-0.017-1.078-0.006zM10.356 1.068v0.433h0.808v0.712h-0.808v0.847h-0.693v-0.847h-0.808v-0.712h0.808v-0.866h0.693v0.433z"></path>
<path d="M9.124 4.603c-0.803 0.060-1.829 0.223-2.639 0.422-0.524 0.129-0.67 0.175-0.681 0.212-0.035 0.106-0.090 0.593-0.1 0.866-0.027 0.797 0.127 1.53 0.475 2.243 0.445 0.914 1.132 1.611 2.012 2.042 0.583 0.285 1.147 0.414 1.8 0.416 0.51 0 0.872-0.056 1.328-0.208 1.409-0.468 2.5-1.682 2.876-3.203 0.106-0.429 0.135-0.676 0.135-1.165 0-0.3-0.010-0.489-0.033-0.645-0.035-0.225-0.062-0.362-0.075-0.377-0.017-0.015-0.668-0.183-1.005-0.256-0.799-0.175-1.582-0.291-2.37-0.348-0.314-0.023-1.401-0.021-1.723 0.002z"></path>
<path d="M13.33 10.167c-0.747 0.681-1.577 1.097-2.533 1.267-0.298 0.054-0.986 0.075-1.29 0.038-1.047-0.119-1.992-0.554-2.799-1.286-0.106-0.096-0.198-0.169-0.204-0.162-0.027 0.029-0.137 0.35-0.191 0.551-0.114 0.431-0.173 0.914-0.173 1.411v0.293l0.083 0.021c1.147 0.289 2.031 1.53 2.26 3.176 0.050 0.366 0.044 1.091-0.012 1.463-0.069 0.466-0.156 0.789-0.314 1.19-0.052 0.135-0.125 0.283-0.164 0.333-0.208 0.273-0.716 0.479-1.038 0.42-0.377-0.069-0.643-0.397-0.643-0.795 0-0.441 0.31-0.791 0.722-0.814 0.1-0.006 0.179 0.004 0.308 0.038 0.096 0.025 0.187 0.052 0.204 0.060 0.027 0.012 0.038-0.012 0.071-0.137 0.085-0.316 0.108-0.514 0.108-0.968 0-0.551-0.046-0.901-0.183-1.405l-0.040-0.152-0.137-0.058c-1.001-0.412-2.187-0.404-3.242 0.027l-0.079 0.031-0.060 0.216c-0.21 0.768-0.231 1.65-0.056 2.31 0.023 0.092 0.048 0.146 0.062 0.141 0.152-0.064 0.308-0.096 0.474-0.098 0.169 0 0.194 0.006 0.312 0.064 0.21 0.104 0.343 0.256 0.422 0.489 0.060 0.179 0.046 0.423-0.037 0.601-0.112 0.239-0.327 0.408-0.574 0.452-0.291 0.054-0.783-0.129-1.001-0.368-0.185-0.206-0.41-0.884-0.51-1.536-0.058-0.375-0.064-1.176-0.012-1.53 0.127-0.855 0.41-1.577 0.841-2.15 0.173-0.231 0.449-0.502 0.654-0.649 0.173-0.123 0.479-0.277 0.656-0.329l0.127-0.038 0.012-0.449c0.010-0.468 0.042-0.766 0.121-1.167 0.027-0.131 0.042-0.243 0.038-0.248-0.021-0.021-0.562 0.298-0.955 0.562-1.105 0.745-2.098 1.754-2.855 2.903-0.835 1.267-1.411 2.745-1.661 4.26-0.062 0.372-0.058 0.647 0.012 0.866 0.148 0.474 0.504 0.833 0.943 0.953l0.148 0.038 17.802-0.010 0.141-0.052c0.212-0.077 0.343-0.162 0.514-0.333 0.112-0.112 0.177-0.196 0.235-0.308 0.185-0.358 0.218-0.641 0.133-1.155-0.254-1.536-0.828-2.997-1.696-4.312-0.739-1.12-1.759-2.146-2.878-2.891-0.256-0.169-0.599-0.375-0.61-0.366-0.004 0.006 0.010 0.164 0.031 0.352 0.071 0.633 0.089 0.953 0.087 1.654 0 0.52-0.008 0.776-0.033 1.026-0.031 0.295-0.114 0.866-0.139 0.949-0.008 0.021 0.019 0.040 0.090 0.071 0.335 0.139 0.654 0.462 0.814 0.824 0.098 0.223 0.133 0.398 0.131 0.672-0.002 0.308-0.040 0.474-0.179 0.753-0.148 0.3-0.381 0.537-0.683 0.687-0.354 0.177-0.747 0.204-1.126 0.079-0.198-0.067-0.383-0.179-0.552-0.341-0.487-0.462-0.637-1.161-0.389-1.806 0.164-0.425 0.547-0.791 0.974-0.93l0.098-0.033 0.031-0.139c0.050-0.225 0.087-0.46 0.121-0.77 0.042-0.37 0.048-1.6 0.010-2.054-0.046-0.543-0.16-1.432-0.187-1.459-0.017-0.017-0.304-0.139-0.325-0.137-0.012 0-0.115 0.089-0.233 0.194z"></path>
<path d="M5.494 13.118c-0.237 0.052-0.554 0.231-0.73 0.412-0.040 0.044-0.067 0.079-0.060 0.079s0.115-0.017 0.239-0.038c0.595-0.1 1.176-0.1 1.698 0 0.1 0.019 0.187 0.031 0.192 0.025 0.004-0.004-0.025-0.038-0.067-0.075-0.416-0.362-0.843-0.497-1.272-0.402z"></path>
<path d="M14.090 15.444c-0.437 0.123-0.622 0.689-0.356 1.084 0.071 0.104 0.127 0.15 0.26 0.221 0.071 0.037 0.117 0.044 0.25 0.046 0.141 0 0.179-0.008 0.273-0.054 0.495-0.243 0.499-1.005 0.008-1.245-0.142-0.071-0.302-0.090-0.435-0.052z"></path>
</svg>
