<!-- Generated by IcoMoon.io -->
<svg version="1.1" xmlns="http://www.w3.org/2000/svg" width="21" height="20" viewBox="0 0 21 20">
<title>document</title>
<path d="M3.732 0.036c-0.283 0.064-0.547 0.297-0.683 0.601-0.057 0.122-0.061 0.644-0.061 7.503 0 6.998 0.004 7.377 0.064 7.47 0.032 0.054 0.086 0.097 0.114 0.097 0.032 0 0.172-0.236 0.358-0.608l0.304-0.608v-6.737c0-6.039 0.007-6.744 0.057-6.816l0.054-0.079h3.66c3.102 0 3.667 0.007 3.728 0.050 0.064 0.050 0.068 0.118 0.086 1.288l0.018 1.238 0.1 0.097 0.097 0.1 1.106 0.018c0.862 0.014 1.116 0.029 1.159 0.068 0.057 0.043 0.061 0.326 0.061 3.37v3.324h0.859v-3.649c0-3.106-0.007-3.667-0.050-3.75-0.075-0.143-2.637-2.912-2.741-2.966-0.072-0.036-0.945-0.047-4.132-0.043-2.222 0.004-4.093 0.014-4.157 0.032zM12.884 2.218c0.225 0.247 0.429 0.476 0.458 0.508 0.047 0.061 0.018 0.064-0.512 0.064h-0.558v-1.234l0.104 0.107c0.054 0.061 0.283 0.308 0.508 0.555z"></path>
<path d="M4.869 4.533c-0.34 0.168-0.343 0.748-0.007 0.923 0.097 0.047 0.562 0.054 4.047 0.054 4.351 0 4.079 0.014 4.222-0.225 0.097-0.154 0.093-0.426 0-0.58-0.154-0.247 0.107-0.233-4.229-0.233-3.574 0-3.921 0.007-4.032 0.061z"></path>
<path d="M0.894 5.918c-0.225 0.057-0.397 0.172-0.587 0.383-0.315 0.351-0.29-0.247-0.29 6.633 0 5.807 0.004 6.089 0.064 6.272 0.093 0.265 0.358 0.54 0.64 0.673l0.225 0.104h15.456l0.243-0.114c0.497-0.236 0.462-0.175 2.215-3.517 0.866-1.642 1.742-3.317 1.95-3.717l0.376-0.73-0.014-0.254c-0.014-0.304-0.097-0.444-0.326-0.555-0.15-0.075-0.2-0.075-2.218-0.075h-2.064v-0.98c0-1.195-0.014-1.252-0.34-1.581-0.15-0.154-0.268-0.236-0.39-0.275-0.34-0.114-0.308-0.254-0.308 1.388v1.449l-4.462 0.007c-5.081 0.011-4.583-0.021-4.93 0.333-0.161 0.165-0.347 0.522-1.993 3.864l-1.818 3.685-0.436 0.011c-0.497 0.011-0.608-0.029-0.744-0.25-0.072-0.118-0.072-0.193-0.072-5.75v-5.635l0.079-0.114c0.14-0.204 0.222-0.229 0.723-0.229h0.451v-1.073l-0.633 0.004c-0.383 0-0.701 0.018-0.798 0.047z"></path>
<path d="M4.841 7.513c-0.15 0.089-0.225 0.243-0.225 0.447 0 0.211 0.086 0.361 0.258 0.451 0.129 0.064 0.268 0.068 4.036 0.068s3.907-0.004 4.036-0.068c0.072-0.039 0.161-0.118 0.197-0.175 0.082-0.147 0.079-0.422-0.011-0.569-0.143-0.24 0.129-0.225-4.229-0.225-3.85 0-3.95 0.004-4.061 0.072z"></path>
<path d="M4.841 10.483c-0.15 0.089-0.225 0.243-0.225 0.454 0 0.322 0.204 0.512 0.547 0.512 0.15 0 0.154-0.004 0.25-0.197 0.172-0.354 0.49-0.64 0.859-0.769l0.186-0.068h-0.751c-0.683-0.004-0.762 0.004-0.866 0.068z"></path>
</svg>
