<!-- Generated by IcoMoon.io -->
<svg version="1.1" xmlns="http://www.w3.org/2000/svg" width="20" height="20" viewBox="0 0 20 20">
<title>docx-file-format-symbol</title>
<path d="M17.735 7.154h-0.48v-2.317c0-0.015-0.002-0.029-0.004-0.044-0.001-0.092-0.030-0.182-0.093-0.254l-3.856-4.405c-0.001-0.001-0.002-0.002-0.003-0.003-0.023-0.026-0.050-0.047-0.078-0.066-0.008-0.006-0.017-0.010-0.026-0.015-0.025-0.013-0.051-0.025-0.077-0.033-0.007-0.002-0.014-0.005-0.021-0.007-0.029-0.007-0.059-0.011-0.090-0.011h-9.477c-0.433 0-0.784 0.352-0.784 0.784v6.369h-0.48c-0.619 0-1.121 0.502-1.121 1.121v5.829c0 0.619 0.502 1.121 1.121 1.121h0.48v3.991c0 0.432 0.352 0.784 0.784 0.784h12.941c0.432 0 0.784-0.352 0.784-0.784v-3.991h0.48c0.619 0 1.121-0.502 1.121-1.121v-5.829c0-0.619-0.502-1.121-1.121-1.121zM3.529 0.785h9.085v4.013c0 0.217 0.176 0.392 0.392 0.392h3.464v1.965h-12.941v-6.37zM13.407 12.251c0.286 0 0.604-0.062 0.79-0.137l0.143 0.741c-0.174 0.087-0.566 0.181-1.076 0.181-1.45 0-2.196-0.902-2.196-2.096 0-1.431 1.020-2.227 2.289-2.227 0.491 0 0.865 0.1 1.033 0.187l-0.193 0.753c-0.193-0.081-0.46-0.156-0.796-0.156-0.753 0-1.337 0.454-1.337 1.387-0 0.839 0.497 1.368 1.343 1.368zM10.638 10.833c0 1.375-0.834 2.208-2.059 2.208-1.244 0-1.972-0.94-1.972-2.134 0-1.257 0.802-2.196 2.041-2.196 1.288 0 1.991 0.965 1.991 2.122zM2.47 12.954v-4.118c0.348-0.056 0.802-0.087 1.281-0.087 0.796 0 1.312 0.143 1.716 0.448 0.436 0.323 0.71 0.84 0.71 1.58 0 0.802-0.292 1.356-0.697 1.698-0.442 0.367-1.114 0.541-1.935 0.541-0.491-0-0.839-0.031-1.076-0.062zM16.471 19.003h-12.941v-3.778h12.941v3.778zM17.19 12.972l-0.38-0.759c-0.156-0.292-0.255-0.51-0.373-0.753h-0.012c-0.087 0.243-0.193 0.46-0.323 0.753l-0.348 0.759h-1.082l1.213-2.121-1.169-2.071h1.089l0.367 0.765c0.124 0.255 0.218 0.46 0.317 0.696h0.012c0.1-0.267 0.181-0.454 0.286-0.696l0.355-0.765h1.083l-1.182 2.046 1.244 2.146h-1.095z"></path>
<path d="M5.17 10.807c0.006-0.871-0.504-1.331-1.319-1.331-0.212 0-0.348 0.019-0.429 0.037v2.743c0.081 0.019 0.212 0.019 0.33 0.019 0.858 0.007 1.418-0.466 1.418-1.468z"></path>
<path d="M7.609 10.888c0 0.821 0.386 1.4 1.020 1.4 0.641 0 1.007-0.609 1.007-1.424 0-0.753-0.361-1.4-1.014-1.4-0.641 0-1.014 0.61-1.014 1.424z"></path>
</svg>
