<!-- Generated by IcoMoon.io -->
<svg version="1.1" xmlns="http://www.w3.org/2000/svg" width="20" height="20" viewBox="0 0 20 20">
<title>edit-document</title>
<path d="M1.25 17.5v-15c0-0.69 0.562-1.25 1.25-1.25h12.5c0.69 0 1.25 0.56 1.25 1.25v7.349l1.25-1.25v-6.099c0-1.381-1.119-2.5-2.5-2.5h-12.5c-1.381 0-2.5 1.119-2.5 2.5v15c0 1.381 1.119 2.5 2.5 2.5h6.875v-1.25h-6.875c-0.688 0-1.25-0.56-1.25-1.25zM13.75 3.75h-10v1.25h10v-1.25zM13.75 6.25h-10v1.25h10v-1.25zM13.75 8.75h-10v1.25h10v-1.25zM3.75 12.5h5v-1.25h-5v1.25zM19.634 11.25l-0.884-0.884c-0.244-0.244-0.564-0.366-0.884-0.366s-0.64 0.122-0.884 0.366l-5.366 5.366c-0.244 0.244-0.991 1.188-0.991 1.508l-0.625 2.759 2.759-0.625c0 0 1.265-0.747 1.509-0.991l5.366-5.366c0.488-0.488 0.488-1.28 0-1.768zM13.827 17.941c-0.071 0.067-0.316 0.233-0.615 0.423l-1.619-1.619c0.166-0.228 0.351-0.457 0.465-0.57l4.040-4.040 1.768 1.768-4.039 4.039z"></path>
</svg>
