<!-- Generated by IcoMoon.io -->
<svg version="1.1" xmlns="http://www.w3.org/2000/svg" width="22" height="20" viewBox="0 0 22 20">
<title>efund</title>
<path d="M14.125 2.688c-1.444 1.486-3.181 3.257-3.861 3.951-1.215 1.236-1.236 1.257-1.236 1.556 0 0.278 0.035 0.333 0.576 0.875l0.569 0.583 4.097-4.208c2.257-2.313 4.111-4.236 4.125-4.278s-0.222-0.319-0.521-0.618c-0.507-0.507-0.569-0.549-0.833-0.549-0.285 0-0.292 0.007-2.917 2.688z"></path>
<path d="M1.382 1.132c-0.542 0.153-0.931 0.493-1.187 1.056l-0.16 0.347v8.021c0 7.993 0 8.021 0.146 8.333 0.215 0.458 0.5 0.764 0.896 0.944l0.347 0.167h4.882c4.806 0 4.882 0 5.188-0.146 0.167-0.076 0.424-0.271 0.563-0.424 0.472-0.528 0.479-0.535 0.5-3.035l0.021-2.243-1.076-1.090-1.083-1.083v1.917c0 1.771-0.007 1.924-0.125 2.028s-0.5 0.118-4.028 0.118h-3.896l-0.104-0.153c-0.097-0.139-0.111-0.833-0.111-6.118v-5.958l0.174-0.167 0.167-0.174h3.757c3.757 0 3.965 0.014 4.111 0.236 0.028 0.042 0.056 0.208 0.056 0.368 0 0.167 0.021 0.292 0.056 0.292 0.028-0.007 0.479-0.458 1.014-1.007 0.826-0.847 0.958-1.014 0.924-1.16-0.069-0.264-0.576-0.785-0.938-0.965l-0.326-0.16-4.722-0.014c-3.59-0.014-4.799 0.007-5.042 0.069zM5.021 17.639c0.271 0.215 0.361 0.562 0.222 0.861-0.188 0.389-0.424 0.458-1.597 0.458-1.16 0-1.368-0.063-1.535-0.465-0.139-0.319-0.069-0.597 0.194-0.819 0.201-0.174 0.222-0.174 1.368-0.174 1.069 0 1.187 0.014 1.347 0.139zM10.319 17.736c0.264 0.264 0.299 0.486 0.132 0.806-0.194 0.375-0.403 0.431-1.646 0.403l-1.111-0.021-0.201-0.229c-0.285-0.313-0.285-0.708 0-0.993l0.201-0.201h2.389l0.236 0.236z"></path>
<path d="M15.653 6.694c-2.25 2.313-4.090 4.243-4.090 4.299s0.535 0.653 1.194 1.326c1.174 1.201 1.194 1.222 1.486 1.222 0.347 0 0.035 0.299 4.743-4.535 1.785-1.84 3.257-3.403 3.278-3.493 0.090-0.347-0.056-0.549-1.243-1.764-0.66-0.667-1.215-1.222-1.236-1.236-0.021-0.007-1.882 1.875-4.132 4.181z"></path>
</svg>
