<!-- Generated by IcoMoon.io -->
<svg version="1.1" xmlns="http://www.w3.org/2000/svg" width="20" height="20" viewBox="0 0 20 20">
<title>error-triangle</title>
<path d="M19.852 17.581l-8.724-16.346c-0.218-0.409-0.644-0.665-1.108-0.665h-0.001c-0.464 0-0.889 0.255-1.108 0.664l-8.763 16.346c-0.209 0.392-0.197 0.863 0.029 1.24 0.228 0.378 0.638 0.611 1.079 0.611h17.485c0.443 0 0.851-0.231 1.079-0.611 0.228-0.378 0.239-0.849 0.031-1.238zM10.019 16.916c-0.694 0-1.257-0.563-1.257-1.257s0.563-1.257 1.257-1.257c0.693 0 1.257 0.563 1.257 1.257s-0.563 1.257-1.257 1.257zM11.278 11.906c0 0.695-0.565 1.257-1.257 1.257-0.694 0-1.257-0.562-1.257-1.257v-5.030c0-0.694 0.563-1.257 1.257-1.257 0.693 0 1.257 0.563 1.257 1.257v5.030z"></path>
</svg>
