<!-- Generated by IcoMoon.io -->
<svg version="1.1" xmlns="http://www.w3.org/2000/svg" width="20" height="20" viewBox="0 0 20 20">
<title>escalator</title>
<path d="M16.56 10.874l-2.377 0.813c-0.131 0.045-0.22 0.143-0.239 0.264s0.038 0.241 0.15 0.323l0.356 0.26-2.835 3.887c-0.138 0.189-0.096 0.456 0.093 0.594l0.976 0.712c0.073 0.053 0.16 0.081 0.25 0.081 0.136 0 0.264-0.065 0.344-0.174l2.835-3.887 0.356 0.259c0.068 0.049 0.143 0.075 0.217 0.075 0.153 0 0.311-0.117 0.315-0.34l0.048-2.512c0.002-0.106-0.035-0.203-0.104-0.274-0.096-0.098-0.244-0.13-0.384-0.082z"></path>
<path d="M19.027 3.699h-5.416c-0.478 0-1.083 0.295-1.377 0.671l-2.968 3.789v-2.123c0-0.311-0.253-0.564-0.564-0.564h-0.168c0.431-0.336 0.708-0.859 0.708-1.446 0-1.011-0.823-1.834-1.834-1.834s-1.834 0.823-1.834 1.834c0 0.587 0.278 1.11 0.708 1.446h-0.168c-0.311 0-0.564 0.253-0.564 0.564v4.315c0 0.293 0.225 0.535 0.512 0.561v1.338l-0.493 0.629c-0.204 0.261-0.674 0.489-1.005 0.489h-3.591c-0.537 0-0.973 0.437-0.973 0.973v2.361c0 0.536 0.436 0.973 0.973 0.973h5.907c0.478 0 1.082-0.295 1.376-0.672l6.623-8.507c0.203-0.261 0.672-0.49 1.003-0.49h3.145c0.536 0 0.973-0.436 0.973-0.973v-2.361c0-0.536-0.437-0.973-0.973-0.973z"></path>
</svg>
