<!-- Generated by IcoMoon.io -->
<svg version="1.1" xmlns="http://www.w3.org/2000/svg" width="20" height="20" viewBox="0 0 20 20">
<title>expand-screen</title>
<path d="M19.999 13.818c0-0.612-0.469-1.107-1.051-1.107-0.578 0.001-1.052 0.495-1.052 1.107v2.292l-4.244-4.246c-0.41-0.411-1.075-0.411-1.485 0s-0.41 1.077 0 1.487l4.223 4.222h-2.281c-0.621 0.001-1.122 0.472-1.122 1.051 0 0.581 0.501 1.051 1.122 1.051h4.768c0.621 0 1.121-0.469 1.123-1.051-0.002-0.016-0.004-0.027-0.006-0.043 0.002-0.020 0.006-0.041 0.006-0.061v-4.702h-0.001z"></path>
<path d="M6.347 11.864l-4.242 4.246v-2.292c0-0.612-0.474-1.106-1.053-1.107-0.581 0-1.051 0.495-1.051 1.107l-0.001 4.703c0 0.020 0.006 0.042 0.007 0.061-0.001 0.015-0.004 0.027-0.006 0.043 0.001 0.582 0.502 1.051 1.123 1.051h4.769c0.62 0 1.121-0.47 1.121-1.051 0-0.58-0.501-1.050-1.121-1.051h-2.281l4.223-4.222c0.409-0.41 0.409-1.077 0-1.487-0.411-0.412-1.076-0.412-1.488-0.001z"></path>
<path d="M13.652 8.134l4.244-4.243v2.292c0 0.61 0.475 1.104 1.052 1.106 0.582 0 1.051-0.496 1.051-1.106v-4.704c0-0.020-0.004-0.042-0.006-0.060 0.002-0.015 0.004-0.029 0.006-0.044-0.002-0.582-0.502-1.051-1.123-1.051h-4.768c-0.621 0-1.122 0.469-1.122 1.051 0 0.579 0.501 1.051 1.122 1.052h2.281l-4.223 4.222c-0.41 0.41-0.41 1.075 0 1.484 0.41 0.413 1.075 0.413 1.485 0.001z"></path>
<path d="M3.611 2.427h2.281c0.62-0.001 1.121-0.473 1.121-1.052 0-0.582-0.501-1.051-1.121-1.051h-4.768c-0.621 0-1.121 0.469-1.123 1.051 0.001 0.015 0.004 0.029 0.006 0.044-0.001 0.018-0.007 0.039-0.007 0.060l0.001 4.705c0 0.61 0.47 1.106 1.051 1.106 0.579-0.002 1.053-0.496 1.053-1.106v-2.292l4.242 4.242c0.412 0.413 1.077 0.413 1.488 0 0.409-0.41 0.409-1.075 0-1.484l-4.223-4.223z"></path>
</svg>
