<!-- Generated by IcoMoon.io -->
<svg version="1.1" xmlns="http://www.w3.org/2000/svg" width="20" height="20" viewBox="0 0 20 20">
<title>folder</title>
<path d="M19.163 9h-1.163v-2.089c0-0.502-0.409-0.911-0.911-0.911h-1.089v-0.805l-0.165-0.165c-0 0-0-0-0-0.001l-5.030-5.030h-8.138v3.667h-1.756c-0.502 0-0.911 0.409-0.911 0.911v14.562h0.002c-0.002 0.188 0.057 0.371 0.174 0.525 0.163 0.213 0.411 0.335 0.679 0.335h14.92c0.385 0 0.725-0.26 0.817-0.604l3.409-9.346v-0.059c0-0.574-0.352-0.991-0.837-0.991zM17.089 6.667c0.134 0 0.244 0.109 0.244 0.244v2.089h-1.333v-2.333h1.089zM11 1.138l3.862 3.862h-3.862v-3.862zM3.333 0.667h7v5h5v3.333h-11.090c-0.048 0-0.095 0.004-0.141 0.012-0.325 0.054-0.595 0.291-0.676 0.593l-0.094 0.257v-9.195zM0.667 4.577c0-0.135 0.11-0.244 0.244-0.244h1.756v7.345l-2 5.455v-12.556zM15.956 19.194c-0.022 0.082-0.097 0.139-0.182 0.139h-14.92c-0.081 0-0.128-0.046-0.149-0.074s-0.053-0.085-0.041-0.136l3.397-9.318c0.022-0.082 0.097-0.139 0.182-0.139h14.92c0.127 0 0.159 0.182 0.167 0.273l-3.374 9.255z"></path>
<path d="M5.333 5.667h3.333c0.184 0 0.333-0.149 0.333-0.333s-0.149-0.333-0.333-0.333h-3.333c-0.184 0-0.333 0.149-0.333 0.333s0.149 0.333 0.333 0.333z"></path>
<path d="M5.333 3.333h3.333c0.184 0 0.333-0.149 0.333-0.333s-0.149-0.333-0.333-0.333h-3.333c-0.184 0-0.333 0.149-0.333 0.333s0.149 0.333 0.333 0.333z"></path>
<path d="M5.333 8h8c0.184 0 0.333-0.149 0.333-0.333s-0.149-0.333-0.333-0.333h-8c-0.184 0-0.333 0.149-0.333 0.333s0.149 0.333 0.333 0.333z"></path>
</svg>
