<!-- Generated by IcoMoon.io -->
<svg version="1.1" xmlns="http://www.w3.org/2000/svg" width="20" height="20" viewBox="0 0 20 20">
<title>funnel</title>
<path d="M7.072 19.162v-9.81l-6.858-7.942c-0.367-0.449-0.326-1.373 0.623-1.373h18.292c0.891 0 1.097 0.816 0.623 1.373l-6.693 7.732v6.070c0 0.247-0.082 0.458-0.293 0.623l-4.28 3.95c-0.495 0.367-1.414 0.169-1.414-0.623zM2.668 1.703l5.864 6.775c0.124 0.165 0.206 0.334 0.206 0.54v8.272l2.66-2.412v-6.025c0-0.206 0.082-0.375 0.206-0.54l5.695-6.61h-14.631z"></path>
</svg>
