<!-- Generated by IcoMoon.io -->
<svg version="1.1" xmlns="http://www.w3.org/2000/svg" width="20" height="20" viewBox="0 0 20 20">
<title>geolocation</title>
<path d="M12.262 14.715c1.613-2.676 3.652-6.438 3.652-8.371 0-3.262-2.652-5.914-5.914-5.914s-5.914 2.652-5.914 5.914c0 1.934 2.039 5.695 3.652 8.371-1.914 0.145-6.27 0.664-6.27 2.387 0 1.695 4.422 2.469 8.535 2.469 4.109 0 8.535-0.773 8.535-2.469-0.004-1.723-4.363-2.242-6.277-2.387zM4.902 6.344c0-2.813 2.289-5.102 5.098-5.102 2.813 0 5.102 2.289 5.102 5.102 0 2.457-3.914 8.621-5.102 10.434-1.188-1.813-5.098-7.977-5.098-10.434zM10 18.754c-4.996 0-7.719-1.094-7.719-1.656 0-0.434 1.797-1.367 5.938-1.605 0.777 1.254 1.367 2.141 1.445 2.246 0.105 0.141 0.414 0.309 0.676 0 0.082-0.098 0.668-0.992 1.445-2.246 4.141 0.238 5.938 1.168 5.938 1.605-0.004 0.566-2.727 1.656-7.723 1.656z"></path>
<path d="M12.574 6.344c0-1.422-1.152-2.574-2.574-2.574s-2.574 1.152-2.574 2.574c0 1.422 1.152 2.574 2.574 2.574s2.574-1.152 2.574-2.574zM8.238 6.344c0-0.973 0.789-1.762 1.762-1.762s1.762 0.789 1.762 1.762c0 0.973-0.789 1.762-1.762 1.762s-1.762-0.789-1.762-1.762z"></path>
</svg>
