<!-- Generated by IcoMoon.io -->
<svg version="1.1" xmlns="http://www.w3.org/2000/svg" width="20" height="20" viewBox="0 0 20 20">
<title>gift-box-with-a-ribbon</title>
<path d="M6.918 14.716l-0.779-1.264-1.645 0.295 2.163-3.836h-4.218v10.088h7.186v-10.088z"></path>
<path d="M18.746 5.098h-4.772c0.279-0.144 0.528-0.294 0.749-0.454 0.849-0.608 1.299-1.378 1.298-2.143 0-0.627-0.297-1.526-0.728-1.9-0.432-0.379-1.005-0.601-1.617-0.601-0.654 0-1.261 0.224-1.781 0.573-0.782 0.524-1.395 1.659-1.831 2.525-0.022 0.043-0.044 0.085-0.066 0.127-0.159-0.334-0.346-1.002-0.557-1.307-0.37-0.528-0.815-0.995-1.338-1.345-0.519-0.349-1.126-0.573-1.778-0.573-0.651 0.002-1.247 0.275-1.692 0.696-0.444 0.416-0.754 1.354-0.757 2.024-0.003 0.391 0.111 0.8 0.347 1.173 0.296 0.466 0.765 0.873 1.413 1.205h-4.393l0.010 4.012h8.25v-4.012h1.005v4.012h8.251l-0.012-4.012zM5.92 3.843c-0.331-0.209-0.535-0.419-0.654-0.608-0.116-0.187-0.157-0.516-0.157-0.678-0.003-0.27 0.132-0.743 0.371-0.965 0.234-0.223 0.551-0.36 0.836-0.36h0.009c0.367 0.003 0.73 0.125 1.096 0.367 0.545 0.36 1.058 1.337 1.415 2.053 0.187 0.365 0.329 0.745 0.425 1.118-1.652-0.171-2.72-0.535-3.34-0.926zM11.568 2.971c0.298-0.426 0.649-1.13 1.012-1.373 0.362-0.241 0.729-0.364 1.096-0.367h0.004c0.305 0 0.599 0.12 0.8 0.297 0.201 0.18 0.308 0.51 0.308 0.742-0.004 0.274-0.146 0.905-0.786 1.373-0.607 0.443-1.662 0.896-3.283 1.214 0.153-0.643 0.453-1.324 0.849-1.886z"></path>
<path d="M15.514 13.731l-1.644-0.279-0.776 1.279-2.673-4.754v10.023h7.15v-10.088h-4.218z"></path>
</svg>
