<!-- Generated by IcoMoon.io -->
<svg version="1.1" xmlns="http://www.w3.org/2000/svg" width="20" height="20" viewBox="0 0 20 20">
<title>giftbox</title>
<path d="M15.128 6.088c0.358-0.255 0.702-0.538 1.017-0.853 0.66-0.66 1.102-1.472 1.243-2.287 0.155-0.893-0.073-1.722-0.625-2.275-0.441-0.441-1.038-0.674-1.726-0.674-0.981 0-2.014 0.471-2.835 1.292-1.314 1.314-2.079 3.127-2.491 4.421-0.305-1.3-0.913-3.056-2.095-4.238-0.634-0.634-1.445-0.96-2.21-0.96-0.626 0-1.221 0.217-1.665 0.662-0.988 0.988-0.854 2.723 0.298 3.875 0.411 0.411 0.891 0.752 1.398 1.036h-4.289v5.059h1.265v8.853h15.177v-8.853h1.265v-5.059h-3.725zM13.208 2.298c0.548-0.548 1.232-0.875 1.829-0.875 0.211 0 0.508 0.045 0.72 0.257 0.514 0.514 0.226 1.706-0.618 2.549-0.869 0.868-2.037 1.466-3.052 1.859h-1.001c0.367-1.137 1.029-2.697 2.122-3.79zM4.505 2.943c-0.014-0.18-0.001-0.519 0.241-0.761 0.202-0.202 0.47-0.245 0.659-0.245v0c0.42 0 0.859 0.198 1.204 0.543 0.669 0.669 1.221 1.735 1.594 3.080 0.010 0.036 0.020 0.073 0.030 0.108-0.036-0.010-0.072-0.019-0.108-0.030-1.346-0.374-2.411-0.925-3.080-1.594-0.313-0.313-0.509-0.715-0.539-1.102zM8.735 18.735h-5.059v-8.221h5.059v8.221zM8.735 9.882h-6.324v-2.529h6.324v2.529zM16.324 18.735h-5.059v-8.221h5.059v8.221zM17.589 9.882h-6.324v-2.529h6.324v2.529z"></path>
</svg>
