<!-- Generated by IcoMoon.io -->
<svg version="1.1" xmlns="http://www.w3.org/2000/svg" width="20" height="20" viewBox="0 0 20 20">
<title>give-money</title>
<path d="M14.963 6.15c-0.598-0.24-0.77-0.384-0.77-0.646 0-0.209 0.159-0.454 0.606-0.454 0.395 0 0.699 0.156 0.701 0.157 0.032 0.017 0.068 0.026 0.103 0.026 0.087 0 0.163-0.052 0.195-0.133l0.109-0.278c0.038-0.101-0.020-0.189-0.093-0.221-0.243-0.106-0.719-0.188-0.724-0.189-0.008-0.001-0.034-0.007-0.034-0.038l-0.002-0.403c0-0.121-0.101-0.22-0.226-0.22h-0.195c-0.124 0-0.225 0.099-0.225 0.22l0.001 0.424c0 0.032-0.035 0.047-0.048 0.050-0.601 0.143-0.976 0.583-0.976 1.138 0 0.692 0.572 1.004 1.189 1.239 0.494 0.194 0.695 0.39 0.695 0.679 0 0.314-0.285 0.533-0.694 0.533-0.349 0-0.821-0.221-0.826-0.223-0.030-0.014-0.062-0.022-0.095-0.022-0.090 0-0.168 0.054-0.199 0.138l-0.104 0.281c-0.037 0.105 0.020 0.19 0.093 0.228 0.29 0.151 0.851 0.24 0.876 0.243 0.007 0.001 0.041 0.013 0.041 0.044v0.422c0 0.121 0.101 0.22 0.226 0.22h0.201c0.124 0 0.226-0.099 0.226-0.22v-0.444c0-0.041 0.031-0.045 0.037-0.047 0.64-0.144 1.034-0.612 1.034-1.2-0-0.604-0.335-0.994-1.121-1.304z"></path>
<path d="M14.712 1.269c-2.921 0-5.289 2.368-5.289 5.289s2.368 5.289 5.289 5.289c2.921 0 5.288-2.368 5.288-5.289s-2.368-5.289-5.288-5.289zM14.712 10.62c-2.244 0-4.063-1.819-4.063-4.063s1.819-4.063 4.063-4.063c2.244 0 4.063 1.819 4.063 4.063s-1.819 4.063-4.063 4.063z"></path>
<path d="M18.925 14.409c-1.125 0.621-2.671 1.195-4.214 1.437-1.372 0.215-3.954-0.304-3.954-0.917 0-0.232 2.264 0.572 3.634 0.207 1.050-0.28 0.901-1.263 0.33-1.392-0.568-0.129-3.896-1.348-5.317-1.39-0.67-0.020-2.323 0.233-3.123 0.363-0.274 0.045-0.446 0.040-0.463 0.302-0.080 1.219-0.236 3.711-0.322 5.013-0.002 0.027 0.036 0.397 0.342 0.137 0.334-0.285 0.803-0.601 1.236-0.502 0.68 0.154 6.563 1.232 7.374 1.043 1.161-0.27 4.447-2.217 5.077-2.823 0.977-0.938 0.217-1.929-0.601-1.478z"></path>
<path d="M4.195 12.669l-3.082-0.152c-0.238-0.012-0.481 0.168-0.54 0.398l-0.56 5.088c-0.059 0.231 0.087 0.427 0.325 0.436l3.415-0c0.238 0.009 0.448-0.178 0.466-0.415l0.375-4.902c0.018-0.237-0.162-0.441-0.4-0.453zM2.381 17.765c-0.471 0-0.852-0.382-0.852-0.852s0.382-0.852 0.852-0.852 0.852 0.382 0.852 0.852c0 0.471-0.381 0.852-0.852 0.852z"></path>
</svg>
