<!-- Generated by IcoMoon.io -->
<svg version="1.1" xmlns="http://www.w3.org/2000/svg" width="20" height="20" viewBox="0 0 20 20">
<title>graphic</title>
<path d="M10.243 9.174c0.058 0.057 0.136 0.090 0.217 0.090h9.205c0.087 0 0.17-0.037 0.228-0.102s0.086-0.151 0.077-0.238c-0.263-2.467-1.415-4.73-3.245-6.374-1.831-1.645-4.209-2.551-6.698-2.551-2.274 0-4.501 0.784-6.269 2.209-0.068 0.055-0.109 0.135-0.114 0.222s0.028 0.172 0.089 0.233l6.509 6.509zM9.003 5.678l2.64-3.926c0.303 0.059 0.604 0.135 0.898 0.227l-2.889 4.348-0.649-0.649zM10.028 1.595c0.079 0 0.158 0.001 0.238 0.003l-2.148 3.195-0.696-0.696 1.72-2.456c0.294-0.031 0.591-0.046 0.885-0.046zM7.379 2.021l-0.837 1.196-0.576-0.576c0.373-0.206 0.764-0.385 1.165-0.532 0.082-0.030 0.165-0.059 0.249-0.087zM15.205 7.669l1.681-2.529c0.116 0.163 0.226 0.332 0.331 0.504l-1.39 2.025h-0.622zM17.315 7.669l0.527-0.768c0.1 0.252 0.188 0.509 0.263 0.768h-0.79zM12.734 7.669l2.717-4.090c0.087 0.074 0.172 0.148 0.253 0.222 0.122 0.111 0.243 0.23 0.363 0.354l-2.335 3.514h-0.998zM11.261 7.669h-0.267l-0.457-0.457 3.17-4.77c0.258 0.126 0.509 0.264 0.752 0.415l-3.197 4.813z"></path>
<path d="M8.925 9.938l-6.232-6.232c-0.062-0.062-0.147-0.094-0.233-0.089s-0.168 0.046-0.222 0.114c-1.425 1.769-2.209 3.995-2.209 6.269 0 3.114 1.412 5.996 3.875 7.905 0.054 0.042 0.12 0.064 0.188 0.064 0.018 0 0.037-0.002 0.055-0.005 0.086-0.016 0.161-0.067 0.206-0.141l4.617-7.507c0.074-0.121 0.056-0.277-0.044-0.378zM7.078 10.347l-3.265 5.309c-0.509-0.559-0.938-1.179-1.278-1.846-0.605-1.186-0.911-2.468-0.911-3.81 0-0.997 0.172-1.972 0.513-2.898 0.147-0.401 0.326-0.791 0.532-1.165l4.41 4.41z"></path>
<path d="M19.665 10.736h-9.054c-0.107 0-0.205 0.055-0.261 0.146l-4.744 7.713c-0.046 0.074-0.058 0.164-0.033 0.248s0.084 0.152 0.162 0.19c1.346 0.641 2.79 0.967 4.293 0.967 2.488 0 4.867-0.906 6.698-2.551 1.829-1.644 2.982-3.907 3.245-6.374 0.009-0.086-0.019-0.173-0.077-0.238s-0.141-0.102-0.228-0.102z"></path>
</svg>
