<!-- Generated by IcoMoon.io -->
<svg version="1.1" xmlns="http://www.w3.org/2000/svg" width="20" height="20" viewBox="0 0 20 20">
<title>group</title>
<path d="M13.428 14.046l-0.176-0.176c-0.008-0.008-0.012-0.012-0.020-0.020-0.975 0.578-2.098 0.889-3.249 0.889-1.446 0-2.823-0.479-3.942-1.364-0.303 0.209-0.615 0.443-0.918 0.692-0.242 0.197-0.381 0.496-0.381 0.807v1.479h10.51v-0.488l-1.545-1.545-0.279-0.275z"></path>
<path d="M10.232 5.011h-0.467c-1.074 0-1.946 0.873-1.946 1.946v2.159c0 0.34 0.172 0.635 0.434 0.811v1.844c0.529 0.27 1.119 0.418 1.733 0.418 0.623 0 1.221-0.148 1.754-0.426v-1.832c0.262-0.176 0.434-0.471 0.434-0.811v-2.159c0.004-1.082-0.869-1.95-1.942-1.95z"></path>
<path d="M19.68 12.608c-1.123-0.922-2.331-1.532-2.577-1.655-0.029-0.012-0.045-0.041-0.045-0.074v-1.746c0.221-0.148 0.365-0.397 0.365-0.68v-1.811c0-0.901-0.729-1.631-1.631-1.631h-0.377c0.574 0.93 0.906 1.995 0.947 3.106 0.049 1.237-0.262 2.45-0.885 3.499 0.008 0.008 0.012 0.012 0.020 0.020l2.897 2.897h1.606v-1.242c0-0.266-0.119-0.516-0.32-0.684z"></path>
<path d="M18.599 15.886l-3.68-3.68-0.217 0.217-0.467-0.467c1.852-2.184 1.75-5.462-0.316-7.527-1.086-1.086-2.512-1.631-3.934-1.631s-2.848 0.545-3.934 1.631c-2.172 2.172-2.172 5.696 0 7.867 1.086 1.086 2.512 1.631 3.934 1.631 1.278 0 2.557-0.438 3.594-1.315l0.467 0.467-0.217 0.217 3.68 3.68c0.152 0.152 0.348 0.225 0.545 0.225s0.393-0.074 0.545-0.225c0.299-0.299 0.299-0.787 0-1.090 0 0.004 0 0 0 0zM13.264 11.645c-0.906 0.906-2.094 1.356-3.278 1.356-1.188 0-2.372-0.451-3.278-1.356-1.811-1.811-1.811-4.745 0-6.556 0.906-0.906 2.094-1.356 3.278-1.356 1.188 0 2.372 0.451 3.278 1.356 1.811 1.807 1.811 4.745 0 6.556z"></path>
<path d="M4.565 5.011h-0.356c-0.901 0-1.631 0.729-1.631 1.631v1.811c0 0.283 0.143 0.533 0.365 0.68v1.746c0 0.033-0.016 0.057-0.045 0.074-0.246 0.119-1.455 0.733-2.577 1.655-0.201 0.168-0.32 0.418-0.32 0.68v1.242h3.983c0.082-0.422 0.303-0.803 0.639-1.078 0.27-0.221 0.545-0.43 0.815-0.623-2.094-2.131-2.385-5.376-0.873-7.818z"></path>
</svg>
