<!-- Generated by IcoMoon.io -->
<svg version="1.1" xmlns="http://www.w3.org/2000/svg" width="20" height="20" viewBox="0 0 20 20">
<title>handcuffs</title>
<path d="M19.581 3.378c-0.559-1.35-1.611-2.402-2.961-2.961-0.669-0.277-1.373-0.418-2.091-0.418-1.349 0-2.633 0.489-3.638 1.383l-2.694-1.116-0.66 1.593c-1.615-0.665-3.476-0.303-4.729 0.95s-1.615 3.114-0.95 4.729l-1.593 0.66 1.116 2.694c-1.388 1.562-1.769 3.788-0.965 5.729 0.85 2.052 2.835 3.378 5.056 3.379 0 0 0 0 0 0 0.718 0 1.422-0.141 2.091-0.418 1.35-0.559 2.402-1.611 2.961-2.961s0.559-2.837 0-4.187c-0.804-1.941-2.647-3.245-4.733-3.369l-1.116-2.694-1.686 0.698c-0.476-1.159-0.215-2.495 0.684-3.394s2.235-1.16 3.394-0.684l-0.698 1.686 2.694 1.116c0.123 2.086 1.428 3.929 3.369 4.733 0.669 0.277 1.373 0.418 2.092 0.418 0 0 0 0 0 0 2.221 0 4.206-1.326 5.056-3.379 0.559-1.35 0.559-2.837 0-4.187zM3.17 8.975c0.295-0.122 0.632 0.018 0.754 0.313s-0.018 0.632-0.313 0.754c-0.295 0.122-0.632-0.018-0.754-0.313s0.018-0.632 0.313-0.754zM4.365 11.86c0.352-0.146 0.723-0.22 1.101-0.22 1.175 0 2.224 0.7 2.672 1.783 0.295 0.711 0.294 1.496-0.001 2.21s-0.85 1.269-1.561 1.563c-0.352 0.146-0.723 0.22-1.101 0.22-1.175 0-2.224-0.7-2.672-1.783-0.609-1.471 0.092-3.164 1.563-3.773zM10.040 3.614c-0.122 0.295-0.46 0.434-0.754 0.312s-0.434-0.46-0.312-0.754c0.122-0.295 0.46-0.434 0.754-0.312s0.434 0.46 0.312 0.754zM17.194 6.577c-0.449 1.083-1.497 1.783-2.672 1.783-0.378 0-0.749-0.074-1.101-0.22-1.471-0.609-2.172-2.302-1.563-3.773 0.449-1.083 1.497-1.783 2.672-1.783 0.378 0 0.749 0.074 1.101 0.22 1.471 0.609 2.172 2.302 1.563 3.773z"></path>
</svg>
