<!-- Generated by IcoMoon.io -->
<svg version="1.1" xmlns="http://www.w3.org/2000/svg" width="20" height="20" viewBox="0 0 20 20">
<title>hand-holding-up-a-sack-of-money</title>
<path d="M17.283 13.48c-0.993 0.061-2.299 1.053-3.558 1.624-1.544 0.699-3.947 0.137-3.948 0.137 0.371-0.174 1.877-0.533 2.181-0.666 1.613-0.71 1.476-2.188 0.708-2.176-1.015 0.016-1.611 0.265-3.635 0.541-1.535 0.209-3.35 0.132-4.221 0.465-1.229 0.469-3.208 3.628-3.208 3.628l3.061 2.966c0 0 1.895-1.866 2.817-1.866 2.101 0 2.186-0.028 4.136-0.134 0.829-0.044 1.003-0.078 1.478-0.238 2.528-0.855 5.243-3.132 5.293-3.406 0.115-0.634-0.578-0.907-1.103-0.875z"></path>
<path d="M11.24 2.972c0.426-0.253 0.806-0.605 1.141-0.963 0.283-0.301 0.657-0.687 0.616-1.133-0.028-0.314-0.292-0.47-0.58-0.506-0.093-0.012-0.186-0.015-0.28-0.013-0.063 0.001-0.19-0.016-0.239 0.032-0.103 0.1-0.206 0.201-0.309 0.302-0.022-0.069-0.044-0.137-0.065-0.207-0.013-0.041-0.049-0.057-0.090-0.051-0.285 0.045-0.564 0.101-0.85 0.048-0.352-0.065-0.698-0.163-1.046-0.245-0.040-0.010-0.077 0.012-0.090 0.051-0.028 0.089-0.057 0.179-0.085 0.268-0.123-0.122-0.246-0.242-0.37-0.362-0.029-0.028-0.070-0.090-0.114-0.097-0.082-0.015-0.165-0.029-0.248-0.042-0.13-0.020-0.26-0.035-0.391-0.045-0.287-0.022-0.807-0.027-0.823 0.371-0.015 0.637 0.547 1.141 0.95 1.564 0.249 0.262 0.549 0.564 0.716 0.907-1.78 0.575-3.298 2.737-3.298 5.063 0 2.717 1.289 3.461 4.216 3.461s4.215-0.745 4.215-3.461c-0-2.184-1.338-4.222-2.976-4.939zM11.238 8.311c-0.107 0.16-0.255 0.288-0.425 0.378-0.090 0.046-0.184 0.083-0.28 0.111-0.014 0.005-0.139 0.039-0.139 0.039v0.351c0 0.163-0.031 0.336-0.178 0.433-0.16 0.105-0.396 0.074-0.515-0.079-0.087-0.112-0.092-0.258-0.092-0.394 0-0.103 0-0.312 0-0.312s-0.080-0.024-0.097-0.029c-0.056-0.015-0.112-0.033-0.167-0.052-0.033-0.012-0.065-0.024-0.097-0.036-0.023 0.016-0.047 0.030-0.072 0.042-0.044 0.022-0.092 0.037-0.14 0.043-0.192 0.018-0.361-0.096-0.411-0.282-0.031-0.118-0.022-0.244-0.022-0.366s-0.009-0.249 0.022-0.367c0.053-0.196 0.234-0.307 0.434-0.279 0.094 0.013 0.179 0.059 0.236 0.134 0.030 0.039 0.052 0.085 0.068 0.131 0.015 0.044 0.025 0.089 0.054 0.126 0.057 0.072 0.161 0.109 0.244 0.136 0.111 0.036 0.228 0.054 0.345 0.054 0.187 0 0.419-0.040 0.554-0.182 0.093-0.098 0.058-0.268-0.070-0.312-0.122-0.041-0.226-0.062-0.344-0.084-0.109-0.021-0.219-0.040-0.328-0.061-0.3-0.055-0.611-0.129-0.831-0.355-0.281-0.288-0.336-0.744-0.127-1.091 0.103-0.17 0.257-0.308 0.434-0.398 0.092-0.047 0.19-0.080 0.29-0.104 0.029-0.007 0.025-0.005 0.025-0.031 0-0.022 0-0.045 0-0.068 0-0.107-0.006-0.218 0.003-0.324 0.016-0.189 0.119-0.36 0.319-0.393 0.196-0.031 0.378 0.074 0.435 0.266 0.036 0.118 0.027 0.246 0.027 0.369 0 0.052 0 0.103 0 0.155 0 0.005 0 0.011 0 0.015 0 0.002 0.051 0.011 0.057 0.012 0.028 0.006 0.057 0.013 0.084 0.021 0.023 0.006 0.061 0.027 0.079 0.012 0.161-0.131 0.42-0.126 0.557 0.037 0.102 0.122 0.099 0.317 0.099 0.468 0 0.139 0.011 0.286-0.046 0.416-0.082 0.183-0.299 0.26-0.483 0.192-0.090-0.032-0.164-0.1-0.207-0.185-0.013-0.025-0.022-0.051-0.030-0.078-0.003-0.012-0.007-0.025-0.009-0.037-0.009-0.006-0.019-0.012-0.029-0.017-0.040-0.022-0.082-0.040-0.125-0.054-0.102-0.032-0.208-0.042-0.314-0.041-0.098 0.001-0.197 0.010-0.291 0.038-0.117 0.036-0.319 0.178-0.16 0.293 0.095 0.069 0.233 0.089 0.344 0.111 0.1 0.019 0.199 0.039 0.298 0.058 0.296 0.058 0.618 0.119 0.854 0.319-0.161-0.136 0.215 0.18 0 0 0.364 0.305 0.426 0.858 0.164 1.25z"></path>
</svg>
