<!-- Generated by IcoMoon.io -->
<svg version="1.1" xmlns="http://www.w3.org/2000/svg" width="20" height="20" viewBox="0 0 20 20">
<title>home</title>
<path d="M19.749 9.766c0.363-0.399 0.328-1.010-0.078-1.365l-8.938-7.821c-0.406-0.355-1.056-0.347-1.453 0.017l-8.969 8.221c-0.397 0.364-0.417 0.974-0.043 1.363l0.225 0.234c0.373 0.388 0.976 0.435 1.346 0.103l0.67-0.6v8.788c0 0.539 0.437 0.976 0.976 0.976h3.496c0.539 0 0.976-0.436 0.976-0.976v-6.148h4.459v6.148c-0.008 0.539 0.378 0.975 0.917 0.975h3.705c0.539 0 0.976-0.436 0.976-0.976v-8.664c0 0 0.185 0.162 0.414 0.363s0.707 0.040 1.069-0.359l0.254-0.279z"></path>
</svg>
