<!-- Generated by IcoMoon.io -->
<svg version="1.1" xmlns="http://www.w3.org/2000/svg" width="20" height="20" viewBox="0 0 20 20">
<title>house</title>
<path d="M9.089 18.033l-0.688-3.031c-0.004-0.018-0.009-0.035-0.016-0.052-0.137-0.364-0.3-0.721-0.485-1.063-0.003-0.005-0.006-0.011-0.009-0.016l-2.83-4.688c-0.175-0.335-0.469-0.585-0.829-0.702-0.274-0.090-0.562-0.095-0.834-0.018l-0.531-4.508c-0.093-0.788-0.809-1.353-1.597-1.26s-1.353 0.809-1.26 1.597c0 0.001 0 0.003 0.001 0.004l0.554 4.299c0.14 1.086 0.492 2.115 1.045 3.059l2.749 4.687c0.003 0.005 0.006 0.010 0.009 0.015 0.153 0.237 0.267 0.496 0.339 0.769l0.435 1.653c0.173 0.657 0.795 1.050 1.664 1.050h0.915c0.392 0 0.771-0.164 1.039-0.45 0.266-0.284 0.398-0.651 0.374-1.035-0.007-0.101-0.022-0.204-0.045-0.308zM8.179 18.831c-0.118 0.126-0.285 0.198-0.457 0.198h-0.915c-0.289 0-0.789-0.059-0.894-0.456l-0.435-1.653c-0.093-0.352-0.239-0.685-0.436-0.991l-2.745-4.68c-0.499-0.851-0.816-1.779-0.942-2.758l-0.554-4.296c-0.040-0.351 0.212-0.669 0.562-0.71s0.671 0.211 0.712 0.562l0.58 4.924c-0.305 0.404-0.385 0.955-0.168 1.447 0.010 0.024 0.042 0.088 0.047 0.096l1.137 1.885c0.075 0.124 0.207 0.193 0.342 0.193 0.070 0 0.141-0.018 0.205-0.057 0.188-0.114 0.249-0.358 0.135-0.547l-1.128-1.871c-0.003-0.007-0.006-0.014-0.009-0.020-0.135-0.305-0.012-0.661 0.279-0.82 0.153-0.077 0.326-0.091 0.489-0.038s0.295 0.167 0.373 0.319c0.004 0.009 0.009 0.017 0.014 0.026l2.832 4.692c0.162 0.3 0.305 0.612 0.426 0.93l0.682 3.004c0.014 0.063 0.023 0.125 0.027 0.184 0.011 0.162-0.046 0.318-0.16 0.439z"></path>
<path d="M4.859 12.825c-0.114-0.188-0.358-0.249-0.547-0.135s-0.249 0.358-0.135 0.547l0.253 0.419c0.075 0.124 0.207 0.193 0.342 0.193 0.070 0 0.141-0.018 0.205-0.057 0.188-0.114 0.249-0.358 0.135-0.547l-0.253-0.419z"></path>
<path d="M18.73 2.694c-0.787-0.093-1.504 0.472-1.597 1.26l-0.531 4.508c-0.642-0.18-1.344 0.109-1.662 0.72l-2.83 4.688c-0.003 0.005-0.006 0.011-0.009 0.016-0.185 0.342-0.349 0.699-0.485 1.063-0.006 0.017-0.012 0.034-0.016 0.052l-0.688 3.032c-0.019 0.085-0.033 0.171-0.041 0.255-0.036 0.391 0.095 0.783 0.361 1.075 0.268 0.294 0.65 0.463 1.048 0.463h0.914c0.869 0 1.491-0.392 1.664-1.050l0.435-1.653c0.072-0.273 0.186-0.532 0.339-0.769 0.003-0.005 0.006-0.010 0.009-0.015l2.749-4.687c0.554-0.944 0.905-1.973 1.045-3.059l0.554-4.299c0-0.001 0-0.003 0.001-0.004 0.093-0.788-0.473-1.504-1.26-1.597zM19.199 4.195l-0.554 4.296c-0.126 0.979-0.443 1.907-0.942 2.758l-2.745 4.68c-0.197 0.306-0.343 0.639-0.436 0.991l-0.435 1.653c-0.104 0.397-0.605 0.456-0.894 0.456h-0.914c-0.177 0-0.34-0.072-0.459-0.203-0.117-0.128-0.172-0.293-0.156-0.464 0.005-0.050 0.013-0.102 0.025-0.153l0.682-3.004c0.121-0.318 0.264-0.631 0.426-0.93l2.832-4.692c0.005-0.008 0.010-0.017 0.014-0.026 0.078-0.153 0.21-0.266 0.373-0.319s0.336-0.040 0.489 0.038c0.291 0.159 0.414 0.515 0.279 0.82-0.003 0.007-0.006 0.014-0.009 0.020l-1.128 1.871c-0.114 0.188-0.053 0.433 0.135 0.547 0.064 0.039 0.135 0.057 0.205 0.057 0.135 0 0.267-0.069 0.342-0.193l1.137-1.885c0.005-0.008 0.010-0.017 0.014-0.025 0.012-0.023 0.023-0.047 0.034-0.071 0.217-0.492 0.137-1.043-0.168-1.447l0.58-4.924c0.041-0.351 0.361-0.603 0.712-0.562s0.603 0.36 0.562 0.71z"></path>
<path d="M15.688 12.69c-0.188-0.114-0.433-0.053-0.547 0.135l-0.253 0.419c-0.114 0.188-0.053 0.433 0.135 0.547 0.064 0.039 0.135 0.057 0.205 0.057 0.135 0 0.267-0.069 0.342-0.193l0.253-0.419c0.114-0.188 0.053-0.433-0.135-0.547z"></path>
<path d="M5.801 4.247l0.313-0.237v4.983c0 0.22 0.178 0.398 0.398 0.398h6.974c0.22 0 0.398-0.178 0.398-0.398v-4.983l0.313 0.237c0.072 0.054 0.156 0.081 0.24 0.081 0.121 0 0.24-0.055 0.318-0.158 0.133-0.175 0.098-0.425-0.077-0.558l-4.439-3.357c-0.142-0.107-0.338-0.107-0.481 0l-4.439 3.357c-0.175 0.133-0.21 0.383-0.077 0.558s0.383 0.21 0.558 0.077zM10.778 8.594h-1.556v-2.88h1.556v2.88zM6.911 3.407l3.089-2.335 3.089 2.335v5.187h-1.514v-3.278c0-0.22-0.178-0.398-0.398-0.398h-2.353c-0.22 0-0.398 0.178-0.398 0.398v3.278h-1.514v-5.187z"></path>
</svg>
