<!-- Generated by IcoMoon.io -->
<svg version="1.1" xmlns="http://www.w3.org/2000/svg" width="20" height="20" viewBox="0 0 20 20">
<title>id-card</title>
<path d="M18.638 5h-5.91c0-1.504-1.223-2.727-2.727-2.727s-2.727 1.223-2.727 2.727h-5.91c-0.751 0-1.362 0.611-1.362 1.362v10.003c0 0.751 0.611 1.362 1.362 1.362h17.275c0.751 0 1.362-0.611 1.362-1.362v-10.003c0-0.751-0.611-1.362-1.362-1.362zM10 3.182c1.003 0 1.818 0.815 1.818 1.818h-3.636c0-1.003 0.815-1.818 1.818-1.818zM19.091 16.365c0 0.25-0.203 0.453-0.453 0.453h-17.275c-0.25 0-0.453-0.203-0.453-0.453v-10.003c0-0.25 0.203-0.453 0.453-0.453h17.276c0.25 0 0.453 0.203 0.453 0.453v10.003z"></path>
<path d="M5.909 7.273c-2.255 0-4.091 1.835-4.091 4.091s1.835 4.091 4.091 4.091 4.091-1.835 4.091-4.091-1.835-4.091-4.091-4.091zM5.909 14.545c-1.755 0-3.182-1.428-3.182-3.182s1.427-3.182 3.182-3.182 3.182 1.428 3.182 3.182-1.427 3.182-3.182 3.182z"></path>
<path d="M7.273 10.682h-0.682v-0.682c0-0.377-0.305-0.682-0.682-0.682s-0.682 0.305-0.682 0.682v0.682h-0.682c-0.377 0-0.682 0.305-0.682 0.682s0.305 0.682 0.682 0.682h0.682v0.682c0 0.377 0.305 0.682 0.682 0.682s0.682-0.305 0.682-0.682v-0.682h0.682c0.377 0 0.682-0.305 0.682-0.682s-0.305-0.682-0.682-0.682z"></path>
<path d="M17.727 8.182h-5.909c-0.251 0-0.455 0.203-0.455 0.455s0.204 0.455 0.455 0.455h5.909c0.251 0 0.455-0.203 0.455-0.455s-0.204-0.455-0.455-0.455z"></path>
<path d="M13.182 10h-1.364c-0.251 0-0.455 0.203-0.455 0.455s0.204 0.455 0.455 0.455h1.364c0.251 0 0.455-0.203 0.455-0.455s-0.204-0.455-0.455-0.455z"></path>
<path d="M17.727 10h-2.727c-0.251 0-0.455 0.203-0.455 0.455s0.204 0.455 0.455 0.455h2.727c0.251 0 0.455-0.203 0.455-0.455s-0.204-0.455-0.455-0.455z"></path>
<path d="M17.727 11.818h-5.909c-0.251 0-0.455 0.203-0.455 0.455s0.204 0.455 0.455 0.455h5.909c0.251 0 0.455-0.203 0.455-0.455s-0.204-0.455-0.455-0.455z"></path>
<path d="M16.818 13.636h-5c-0.251 0-0.455 0.203-0.455 0.455s0.204 0.455 0.455 0.455h5c0.251 0 0.455-0.203 0.455-0.455s-0.204-0.455-0.455-0.455z"></path>
<path d="M10.455 4.091c0 0.251-0.204 0.455-0.455 0.455s-0.455-0.204-0.455-0.455c0-0.251 0.204-0.455 0.455-0.455s0.455 0.204 0.455 0.455z"></path>
</svg>
