<!-- Generated by IcoMoon.io -->
<svg version="1.1" xmlns="http://www.w3.org/2000/svg" width="20" height="20" viewBox="0 0 20 20">
<title>image2vector-6</title>
<path d="M7.187 0.049c-1.772 0.26-2.426 1.14-2.426 3.262v0.768l-0.090-0.013c-0.312-0.046-0.331 0.607-0.042 1.458 0.182 0.538 0.312 0.732 0.487 0.732 0.066 0 0.072 0.013 0.072 0.15 0 0.838 0.372 1.729 0.92 2.206l0.182 0.158-0.040 1.559 0.209 0.147c0.934 0.659 1.904 0.652 2.76-0.021l0.171-0.134 0.020-0.53c0.011-0.291 0.020-0.663 0.020-0.826 0-0.295 0.001-0.297 0.092-0.365 0.472-0.349 0.806-1.143 0.9-2.139 0.017-0.179 0.027-0.206 0.080-0.206 0.273 0 0.616-0.873 0.684-1.741 0.025-0.32-0.042-0.441-0.242-0.435l-0.111 0.003v-0.758c0-2.024-0.552-2.874-2.090-3.22-0.208-0.047-1.342-0.088-1.556-0.057zM12.152 10.073c-1.692 0.22-2.678 2.1-1.911 3.645 0.973 1.958 3.838 1.84 4.634-0.191 0.711-1.815-0.779-3.706-2.723-3.453zM5.020 10.776c-0.151 0.086-0.79 0.437-1.419 0.782-2.559 1.4-3.159 1.744-3.323 1.905-0.209 0.205-0.215 0.243-0.216 1.239l-0.001 0.893h3.662c2.014 0 3.662-0.007 3.662-0.016s-0.135-0.218-0.3-0.465c-0.819-1.227-1.26-2.299-1.56-3.791-0.166-0.826-0.113-0.768-0.505-0.546zM13.043 10.826c0.009 0.046 0.016 0.28 0.014 0.519l-0.002 0.435h-1.062v-1.038h1.033l0.017 0.084zM13.58 12.405v0.168h-0.519v1.343h0.225c0.246 0 0.262 0.013 0.263 0.221l0 0.084h-2.106v-0.303l0.565-0.018 0.008-0.664 0.008-0.664h-0.551v-0.336h2.106v0.168zM9.212 13.924c-0.182 0.364-0.423 0.782-0.633 1.099-0.187 0.281-0.34 0.525-0.34 0.542 0 0.019 0.719 0.030 2.019 0.030 1.111 0 2.013-0.006 2.005-0.014s-0.116-0.030-0.242-0.049c-1.054-0.162-1.818-0.755-2.288-1.776-0.106-0.231-0.201-0.42-0.211-0.42s-0.15 0.264-0.311 0.587zM15.199 13.859c-0.254 0.518-0.602 0.92-1.049 1.21-0.393 0.255-0.647 0.348-1.332 0.49-0.093 0.019 0.33 0.030 1.308 0.032l1.445 0.004-0.013-0.587c-0.013-0.58-0.123-1.457-0.183-1.457-0.013 0-0.093 0.139-0.176 0.31z"></path>
</svg>
