<!-- Generated by IcoMoon.io -->
<svg version="1.1" xmlns="http://www.w3.org/2000/svg" width="20" height="20" viewBox="0 0 20 20">
<title>image2vector-2</title>
<path fill="#2e375a" d="M7.79 0.157c0.015 0.024-0.042 0.037-0.18 0.040-0.111 0.003-0.238 0.009-0.282 0.015s-0.131 0.015-0.193 0.022c-0.062 0.007-0.142 0.028-0.177 0.046s-0.119 0.044-0.188 0.057c-0.136 0.025-0.599 0.206-0.802 0.312-0.070 0.037-0.139 0.064-0.152 0.061s-0.024 0.006-0.024 0.022c0 0.015-0.045 0.047-0.1 0.070s-0.144 0.081-0.197 0.13c-0.054 0.049-0.111 0.080-0.129 0.069s-0.021-0.003-0.009 0.017c0.013 0.020 0.008 0.037-0.009 0.037-0.042 0-0.644 0.593-0.644 0.634 0 0.017-0.041 0.075-0.092 0.129s-0.084 0.106-0.075 0.115c0.009 0.009 0 0.017-0.020 0.017s-0.034 0.011-0.030 0.024c0.007 0.023-0.224 0.455-0.261 0.488-0.010 0.009-0.019 0.030-0.020 0.048-0.004 0.068-0.054 0.208-0.075 0.208-0.012 0-0.024 0.025-0.026 0.056s-0.022 0.099-0.043 0.152c-0.021 0.053-0.043 0.118-0.047 0.144s-0.038 0.178-0.074 0.336c-0.106 0.465-0.181 1.353-0.122 1.447 0.011 0.017 0.014 0.077 0.007 0.133s-0.001 0.094 0.013 0.085c0.021-0.013 0.052 0.105 0.083 0.319 0.003 0.018 0.015 0.057 0.028 0.086s0.013 0.072-0 0.093c-0.016 0.026-0.010 0.030 0.019 0.012 0.030-0.019 0.037-0.012 0.023 0.023-0.010 0.027-0.007 0.062 0.007 0.077s0.058 0.129 0.098 0.252 0.1 0.287 0.135 0.364c0.034 0.077 0.067 0.165 0.073 0.196s0.048 0.13 0.094 0.22c0.046 0.090 0.072 0.164 0.059 0.165s-0.010 0.011 0.009 0.024c0.042 0.030 0.239 0.471 0.239 0.536 0 0.026 0.013 0.048 0.028 0.048 0.031 0 0.12 0.193 0.107 0.232-0.004 0.013 0.006 0.024 0.022 0.024 0.035 0 0.082 0.125 0.070 0.187-0.005 0.024 0.005 0.035 0.021 0.025s0.046 0.018 0.066 0.063c0.025 0.055 0.026 0.074 0.002 0.060-0.019-0.012-0.016 0.009 0.007 0.046s0.050 0.067 0.060 0.067c0.010 0 0.096 0.162 0.192 0.36s0.184 0.367 0.194 0.376c0.036 0.029 0.396 0.72 0.388 0.744-0.004 0.013 0.004 0.024 0.018 0.024s0.075 0.097 0.136 0.216c0.061 0.119 0.125 0.227 0.142 0.24s0.020 0.024 0.006 0.024c-0.014 0-0.004 0.023 0.024 0.051s0.050 0.070 0.050 0.093c0 0.024 0.012 0.048 0.026 0.054 0.038 0.015 0.688 1.122 0.688 1.17 0 0.022 0.007 0.033 0.016 0.025 0.018-0.018 0.23 0.323 0.23 0.369 0 0.017 0.011 0.030 0.024 0.030s0.060 0.068 0.103 0.152c0.044 0.084 0.087 0.159 0.097 0.168 0.046 0.042 0.288 0.441 0.288 0.474 0 0.021 0.012 0.038 0.027 0.038s0.076 0.086 0.136 0.191c0.136 0.237 0.107 0.247 0.327-0.112 0.102-0.167 0.2-0.303 0.218-0.303s0.024-0.013 0.014-0.029c-0.010-0.016 0.004-0.051 0.030-0.078s0.048-0.056 0.048-0.065c0-0.041 0.296-0.499 0.322-0.499 0.016 0 0.026-0.011 0.022-0.024-0.010-0.033 0.135-0.315 0.197-0.385 0.028-0.031 0.093-0.14 0.146-0.241s0.122-0.213 0.153-0.247c0.031-0.034 0.056-0.073 0.056-0.086s0.035-0.080 0.079-0.148c0.044-0.068 0.080-0.136 0.080-0.152s0.014-0.029 0.032-0.029 0.029-0.011 0.024-0.024c-0.010-0.030 0.459-0.852 0.494-0.867 0.014-0.006 0.018-0.024 0.008-0.040s0.004-0.038 0.032-0.049 0.050-0.046 0.050-0.080c0-0.033 0.014-0.061 0.032-0.061s0.032-0.021 0.032-0.046c0-0.025 0.050-0.132 0.112-0.237s0.112-0.207 0.112-0.226 0.014-0.035 0.032-0.035c0.018 0 0.032-0.022 0.032-0.048s0.017-0.048 0.037-0.048c0.021 0 0.028-0.009 0.017-0.020-0.026-0.026 0.099-0.271 0.166-0.326 0.028-0.023 0.036-0.035 0.018-0.026s0.12-0.293 0.306-0.67c0.187-0.377 0.336-0.686 0.332-0.686-0.007 0 0.165-0.406 0.299-0.704 0.058-0.13 0.063-0.143 0.068-0.21 0.002-0.029 0.019-0.040 0.041-0.027s0.028 0.009 0.016-0.011c-0.022-0.036 0.075-0.337 0.115-0.355 0.013-0.006 0.016-0.024 0.007-0.039s-0-0.061 0.021-0.101c0.022-0.040 0.042-0.101 0.046-0.137s0.039-0.208 0.079-0.384c0.1-0.445 0.083-1.030-0.047-1.666-0.022-0.107-0.036-0.218-0.032-0.248s-0.005-0.054-0.021-0.054-0.027-0.011-0.024-0.024c0.003-0.013-0.012-0.065-0.032-0.114s-0.037-0.103-0.037-0.119c0-0.016-0.056-0.159-0.124-0.318s-0.117-0.289-0.108-0.289c0.009 0-0.022-0.049-0.068-0.11s-0.084-0.119-0.084-0.129-0.058-0.097-0.128-0.193c-0.070-0.095-0.128-0.18-0.128-0.189s-0.032-0.050-0.072-0.091c-0.040-0.041-0.137-0.146-0.216-0.233s-0.18-0.182-0.224-0.211c-0.044-0.029-0.118-0.086-0.164-0.128-0.103-0.093-0.133-0.113-0.492-0.317-0.3-0.17-0.502-0.253-0.842-0.345-0.111-0.030-0.193-0.064-0.181-0.076s-0.007-0.014-0.042-0.005c-0.035 0.009-0.11-0.007-0.167-0.037-0.064-0.033-0.094-0.038-0.079-0.014s0.011 0.031-0.012 0.017c-0.037-0.023-0.077-0.027-0.629-0.067-0.158-0.012-0.315-0.029-0.348-0.038-0.039-0.011-0.052-0.004-0.038 0.018zM8.272 3.014c0.088 0.019 0.175 0.046 0.193 0.060s0.070 0.033 0.116 0.041c0.094 0.017 0.219 0.088 0.219 0.124 0 0.013 0.020 0.024 0.044 0.024 0.087 0 0.563 0.575 0.477 0.576-0.014 0-0.007 0.012 0.014 0.025s0.044 0.053 0.049 0.088c0.005 0.034 0.022 0.082 0.037 0.106 0.111 0.178-0.013 1.093-0.148 1.093-0.016 0-0.021 0.013-0.011 0.029 0.028 0.046-0.215 0.333-0.395 0.465-0.798 0.586-2.018 0.181-2.258-0.75-0.002-0.009-0.021-0.066-0.043-0.128-0.079-0.229 0.030-1 0.132-0.937 0.017 0.011 0.021 0.003 0.009-0.017-0.083-0.135 0.578-0.718 0.857-0.756 0.037-0.005 0.089-0.017 0.116-0.027 0.15-0.057 0.369-0.063 0.592-0.016zM5.696 10.566c-0.079 0.015-0.197 0.021-0.263 0.015s-0.111 0.001-0.102 0.016c0.009 0.015-0.017 0.028-0.057 0.029-0.221 0.006-0.314 0.017-0.314 0.039 0 0.013-0.011 0.021-0.024 0.018s-0.074 0.003-0.136 0.015c-0.232 0.045-0.337 0.063-0.385 0.069-0.027 0.003-0.063 0.013-0.080 0.022s-0.063 0.014-0.103 0.011c-0.041-0.003-0.063 0.008-0.051 0.027 0.012 0.020-0.012 0.026-0.064 0.016-0.046-0.009-0.076-0.004-0.067 0.011s-0.018 0.027-0.060 0.027-0.122 0.023-0.177 0.050c-0.055 0.028-0.115 0.041-0.133 0.030s-0.032-0.006-0.032 0.011-0.043 0.041-0.096 0.053c-0.053 0.012-0.14 0.043-0.193 0.070s-0.114 0.051-0.136 0.054c-0.157 0.023-0.987 0.569-1.082 0.712-0.025 0.037-0.098 0.147-0.163 0.244s-0.128 0.214-0.139 0.26c-0.012 0.048-0.036 0.075-0.055 0.063-0.022-0.013-0.026-0.001-0.013 0.034 0.012 0.030-0.001 0.099-0.029 0.153-0.030 0.058-0.035 0.088-0.013 0.074 0.027-0.017 0.030-0.006 0.011 0.036-0.1 0.219 0.059 0.818 0.314 1.187 0.058 0.084 0.102 0.164 0.098 0.177s0.003 0.021 0.016 0.016c0.013-0.004 0.091 0.060 0.173 0.142s0.236 0.214 0.342 0.292c0.106 0.078 0.183 0.152 0.171 0.165s-0.007 0.018 0.011 0.012c0.029-0.009 0.117 0.034 0.398 0.195 0.026 0.015 0.124 0.060 0.216 0.101s0.168 0.085 0.168 0.1c0 0.015 0.037 0.027 0.082 0.027 0.054 0 0.074 0.013 0.059 0.037s-0.006 0.031 0.030 0.017c0.029-0.011 0.053-0.005 0.053 0.013s0.018 0.027 0.040 0.019c0.022-0.008 0.094 0.013 0.16 0.046s0.12 0.052 0.12 0.042c0-0.010 0.032-0 0.072 0.021s0.104 0.043 0.144 0.047c0.062 0.007 0.152 0.032 0.36 0.101 0.026 0.009 0.070 0.019 0.096 0.022 0.098 0.013 0.274 0.058 0.352 0.089 0.044 0.018 0.116 0.036 0.16 0.042 0.312 0.036 0.397 0.050 0.426 0.068 0.018 0.011 0.070 0.023 0.116 0.026 0.212 0.014 0.567 0.054 0.61 0.069 0.065 0.022 0.457 0.049 0.666 0.045 0.094-0.002 0.163 0.008 0.155 0.021s0.27 0.024 0.619 0.024 0.629-0.008 0.622-0.019c-0.006-0.010 0.042-0.020 0.107-0.022 0.479-0.013 0.874-0.050 1.303-0.12 0.176-0.029 0.363-0.058 0.416-0.066 0.171-0.024 0.254-0.041 0.352-0.070 0.053-0.016 0.128-0.026 0.168-0.023s0.072-0.008 0.072-0.024c0-0.017 0.021-0.022 0.046-0.012s0.050 0.007 0.056-0.006c0.015-0.035 0.409-0.137 0.444-0.116 0.017 0.010 0.030 0.005 0.030-0.012 0-0.029 0.082-0.058 0.255-0.090 0.043-0.008 0.094-0.027 0.112-0.042 0.040-0.033 0.443-0.196 0.465-0.188 0.009 0.003 0.074-0.031 0.144-0.075s0.162-0.092 0.203-0.105c0.041-0.013 0.103-0.048 0.137-0.077s0.070-0.048 0.081-0.042c0.011 0.006 0.028-0.001 0.039-0.016 0.025-0.034 0.219-0.171 0.242-0.171 0.021 0 0.071-0.044 0.353-0.311 0.123-0.117 0.238-0.208 0.256-0.204s0.022-0.002 0.009-0.014c-0.022-0.022 0.147-0.297 0.207-0.338 0.016-0.011 0.029-0.032 0.030-0.048s0.016-0.064 0.035-0.108c0.018-0.044 0.036-0.091 0.040-0.104s0.010-0.028 0.013-0.032c0.004-0.004 0.010-0.037 0.014-0.072s0.020-0.122 0.034-0.192c0.072-0.348-0.043-0.851-0.256-1.12-0.056-0.070-0.107-0.144-0.115-0.163-0.014-0.037-0.289-0.266-0.477-0.396-0.062-0.043-0.123-0.093-0.136-0.111s-0.024-0.021-0.024-0.006c-0 0.015-0.021 0.011-0.045-0.009-0.040-0.033-0.428-0.234-0.467-0.242-0.067-0.014-0.467-0.158-0.48-0.173-0.009-0.011-0.052-0.024-0.096-0.030s-0.096-0.024-0.115-0.040c-0.019-0.016-0.044-0.019-0.055-0.008s-0.040 0.004-0.064-0.016c-0.024-0.020-0.050-0.030-0.058-0.022s-0.093-0.006-0.189-0.032c-0.221-0.059-0.817-0.166-1.078-0.194-0.11-0.012-0.193-0.032-0.185-0.045 0.026-0.042-0.286 0.006-0.339 0.052-0.028 0.024-0.068 0.044-0.090 0.044s-0.031 0.014-0.021 0.030c0.010 0.017-0.007 0.045-0.038 0.063s-0.049 0.034-0.041 0.035 0.11 0.009 0.224 0.018c0.114 0.009 0.258 0.030 0.32 0.049s0.177 0.040 0.256 0.049c0.079 0.009 0.166 0.024 0.192 0.035s0.075 0.016 0.107 0.012c0.040-0.005 0.052 0.005 0.035 0.032-0.015 0.025-0.011 0.031 0.011 0.017 0.034-0.021 0.401 0.059 0.47 0.102 0.018 0.011 0.061 0.025 0.096 0.030 0.169 0.026 0.836 0.33 0.943 0.43 0.036 0.033 0.065 0.053 0.065 0.044 0-0.027 0.128 0.081 0.296 0.248 0.085 0.085 0.146 0.166 0.137 0.181s0.006 0.036 0.035 0.046c0.030 0.012 0.043 0.040 0.032 0.069-0.012 0.032-0.006 0.041 0.018 0.027 0.025-0.015 0.031-0.001 0.019 0.046-0.011 0.041-0.005 0.061 0.013 0.050 0.078-0.048 0.007 0.489-0.086 0.647-0.249 0.426-1.136 1.018-1.668 1.114-0.039 0.007-0.098 0.028-0.132 0.046s-0.096 0.041-0.139 0.050c-0.042 0.009-0.179 0.045-0.303 0.080-0.301 0.084-0.977 0.219-1.197 0.238-0.097 0.008-0.313 0.030-0.48 0.048s-0.419 0.034-0.56 0.036c-0.141 0.002-0.299 0.009-0.35 0.016s-0.109 0.004-0.126-0.007c-0.041-0.025-0.189-0.025-0.23 0-0.018 0.011-0.074 0.013-0.126 0.006s-0.26-0.020-0.462-0.027c-0.467-0.017-0.83-0.046-0.912-0.074-0.035-0.012-0.089-0.018-0.12-0.013s-0.056-0.004-0.056-0.018c0-0.015-0.047-0.024-0.104-0.022-0.225 0.010-1.575-0.325-1.623-0.402-0.009-0.015-0.099-0.051-0.201-0.080s-0.184-0.069-0.184-0.089c0-0.019-0.009-0.026-0.020-0.015-0.026 0.026-0.359-0.143-0.479-0.242-0.051-0.042-0.118-0.086-0.149-0.097s-0.056-0.035-0.056-0.053c0-0.018-0.019-0.033-0.042-0.033-0.092 0-0.458-0.452-0.42-0.519 0.013-0.023 0.012-0.030-0.003-0.017-0.038 0.035-0.11-0.193-0.111-0.351-0-0.125 0.017-0.189 0.107-0.394 0.052-0.118 0.276-0.384 0.324-0.384 0.023 0 0.050-0.022 0.060-0.048s0.040-0.048 0.067-0.048 0.049-0.013 0.049-0.029c0-0.025 0.58-0.343 0.6-0.329 0.031 0.022 0.136-0.001 0.12-0.026-0.019-0.030 0.045-0.046 0.136-0.034 0.022 0.003 0.040-0.011 0.040-0.032s0.022-0.029 0.048-0.018c0.026 0.010 0.048 0.004 0.048-0.014s0.013-0.025 0.030-0.014c0.016 0.010 0.039 0.003 0.051-0.016s0.042-0.027 0.066-0.018c0.025 0.009 0.045 0.001 0.045-0.019s0.008-0.028 0.018-0.019c0.010 0.010 0.083-0.002 0.164-0.026s0.158-0.037 0.172-0.028c0.014 0.009 0.030 0.002 0.036-0.015 0.012-0.035 0.406-0.105 0.447-0.079 0.015 0.009 0.027 0.003 0.027-0.014s0.097-0.043 0.216-0.056c0.119-0.014 0.227-0.027 0.24-0.031s0.061-0.007 0.106-0.010c0.098-0.005 0.084-0.033-0.074-0.156-0.108-0.084-0.133-0.090-0.264-0.066z"></path>
</svg>
