<!-- Generated by IcoMoon.io -->
<svg version="1.1" xmlns="http://www.w3.org/2000/svg" width="20" height="20" viewBox="0 0 20 20">
<title>image2vector-1</title>
<path fill="#2e375a" d="M7.922 0.381c-0.010 0.016-0.066 0.029-0.124 0.029-0.138 0-0.505 0.103-0.485 0.136 0.009 0.014-0.028 0.035-0.081 0.047s-0.088 0.034-0.078 0.051c0.010 0.016-0.002 0.029-0.026 0.029-0.128 0-0.535 0.524-0.535 0.688 0 0.047-0.014 0.075-0.032 0.064s-0.023 0.002-0.013 0.030c0.010 0.027 0.006 0.050-0.011 0.050-0.037 0-0.045 0.698-0.008 0.721 0.015 0.009 0.021 0.045 0.015 0.080s0.001 0.063 0.018 0.063 0.030 0.036 0.030 0.080c0 0.044 0.014 0.080 0.032 0.080s0.032 0.022 0.032 0.048c0 0.026 0.014 0.048 0.032 0.048s0.032 0.019 0.032 0.042c0 0.023 0.036 0.076 0.079 0.117s0.071 0.087 0.062 0.102c-0.009 0.015-0.003 0.027 0.013 0.027s0.089 0.056 0.162 0.124c0.137 0.129 0.311 0.228 0.403 0.228 0.029 0 0.044 0.014 0.033 0.032-0.012 0.019 0.026 0.032 0.094 0.032 0.063 0 0.114 0.012 0.114 0.027 0 0.047 0.511 0.045 0.569-0.002 0.044-0.035 0.047-0.034 0.025 0.006-0.022 0.039-0.019 0.041 0.016 0.008 0.024-0.022 0.076-0.040 0.117-0.040s0.131-0.036 0.201-0.080c0.070-0.044 0.141-0.080 0.159-0.080s0.033-0.011 0.033-0.025c0-0.014 0.050-0.052 0.112-0.085s0.106-0.066 0.099-0.074c-0.007-0.007 0.043-0.068 0.112-0.135s0.125-0.138 0.125-0.157c0-0.020 0.013-0.036 0.029-0.036s0.039-0.058 0.051-0.128 0.034-0.128 0.049-0.128c0.025 0 0.060-0.078 0.086-0.192 0.031-0.133 0.033-0.544 0.003-0.544-0.018 0-0.025-0.020-0.016-0.044s0-0.062-0.021-0.085c-0.029-0.032-0.027-0.035 0.011-0.015 0.039 0.021 0.041 0.017 0.008-0.018-0.022-0.024-0.040-0.077-0.040-0.119s-0.014-0.067-0.032-0.056c-0.018 0.011-0.032-0.013-0.032-0.054-0-0.091-0.107-0.259-0.143-0.226-0.015 0.013-0.017 0.007-0.005-0.013s-0.034-0.089-0.111-0.16c-0.073-0.067-0.167-0.154-0.208-0.193s-0.076-0.062-0.076-0.051c0 0.011-0.026-0.004-0.059-0.034s-0.068-0.043-0.080-0.032c-0.012 0.012-0.021 0.007-0.021-0.012 0-0.047-0.32-0.142-0.494-0.147-0.080-0.002-0.146-0.016-0.146-0.030 0-0.035-0.056-0.032-0.078 0.003zM6.224 3.68c-0.011 0.018-0.062 0.032-0.114 0.032s-0.094 0.013-0.094 0.029c0 0.016-0.043 0.039-0.096 0.051s-0.088 0.034-0.078 0.051-0.001 0.029-0.024 0.029c-0.063 0-0.282 0.222-0.282 0.286 0 0.018-0.028 0.083-0.063 0.145-0.059 0.105-0.063 0.177-0.063 1.107 0 0.946 0.003 0.998 0.063 1.063 0.035 0.037 0.063 0.094 0.063 0.127 0 0.065 0.24 0.31 0.309 0.317 0.024 0.002 0.057 0.008 0.075 0.012s0.062 0.010 0.098 0.012c0.036 0.002 0.057 0.018 0.047 0.035-0.012 0.020 0.67 0.032 1.902 0.032 1.375 0.001 1.921-0.009 1.921-0.034 0-0.019 0.018-0.029 0.040-0.021 0.111 0.039 0.536-0.217 0.536-0.324 0-0.025 0.025-0.068 0.056-0.097 0.086-0.079 0.088-0.11 0.088-1.185 0-0.776-0.009-1.008-0.040-1.019-0.022-0.007-0.040-0.034-0.040-0.059s-0.014-0.045-0.032-0.045-0.032-0.026-0.032-0.058c0-0.058-0.191-0.3-0.193-0.244-0.001 0.016-0.016 0.005-0.034-0.026-0.081-0.139-0.275-0.188-0.765-0.192l-0.464-0.004 0.768-0.039-0.426-0.006c-0.397-0.006-0.53 0.015-0.582 0.090-0.075 0.11-0.153 0.211-0.2 0.26-0.031 0.033-0.056 0.074-0.056 0.092s-0.050 0.079-0.112 0.136c-0.062 0.057-0.112 0.114-0.112 0.128 0 0.032-0.027 0.068-0.191 0.247-0.072 0.079-0.127 0.128-0.122 0.108s-0.031-0.073-0.079-0.118-0.088-0.1-0.088-0.121c0-0.021-0.050-0.087-0.112-0.147s-0.112-0.122-0.112-0.138-0.034-0.063-0.075-0.104c-0.041-0.041-0.103-0.118-0.136-0.169-0.11-0.17-0.179-0.234-0.23-0.215-0.033 0.013-0.042 0.006-0.026-0.018 0.017-0.028-0.091-0.037-0.425-0.037-0.264 0-0.456 0.013-0.468 0.032zM6.825 3.704c-0.092 0.006-0.25 0.006-0.352 0s-0.027-0.012 0.167-0.012c0.194-0 0.277 0.005 0.185 0.012zM7.792 7.533c-0.035 0.016-0.107 0.080-0.16 0.142l-0.096 0.112-0.010 1.083c-0.006 0.671-0.021 1.076-0.040 1.064-0.017-0.010-0.038 0.002-0.048 0.028s-0.056 0.054-0.104 0.064-0.115 0.044-0.15 0.076c-0.035 0.032-0.129 0.087-0.208 0.122s-0.163 0.081-0.186 0.104c-0.023 0.022-0.064 0.041-0.090 0.041s-0.039 0.014-0.028 0.032-0.004 0.032-0.034 0.032c-0.029 0-0.122 0.050-0.206 0.112s-0.169 0.112-0.189 0.112c-0.038 0-0.198 0.094-0.227 0.133-0.009 0.012-0.056 0.032-0.104 0.044s-0.080 0.035-0.070 0.051-0.002 0.029-0.026 0.029c-0.136 0-0.282 0.527-0.157 0.569 0.020 0.007 0.037 0.033 0.037 0.058 0 0.184 0.594 0.308 0.702 0.146 0.010-0.015 0.079-0.053 0.153-0.086s0.128-0.066 0.119-0.075c-0.009-0.009 0.076-0.062 0.189-0.117s0.238-0.132 0.279-0.17c0.041-0.038 0.1-0.069 0.132-0.069s0.058-0.014 0.058-0.032c0-0.018 0.029-0.032 0.065-0.032s0.073-0.022 0.083-0.048c0.010-0.026 0.029-0.041 0.042-0.033s0.080-0.027 0.149-0.079c0.068-0.052 0.151-0.095 0.182-0.095s0.050-0.014 0.040-0.029c-0.028-0.045 0.143-0.075 0.193-0.033 0.025 0.020 0.045 0.026 0.045 0.012s0.026 0.005 0.058 0.042 0.097 0.076 0.144 0.088c0.047 0.012 0.086 0.034 0.086 0.050s0.022 0.029 0.048 0.029 0.048 0.013 0.048 0.029 0.036 0.038 0.080 0.049c0.044 0.011 0.080 0.034 0.080 0.051s0.024 0.031 0.053 0.031c0.029 0 0.1 0.036 0.158 0.080s0.12 0.080 0.139 0.080c0.019 0 0.034 0.014 0.034 0.032s0.016 0.032 0.036 0.032c0.020 0 0.088 0.032 0.152 0.072s0.123 0.074 0.132 0.076c0.102 0.029 0.16 0.055 0.16 0.074 0 0.029 0.212 0.13 0.273 0.13 0.026 0 0.047 0.011 0.047 0.025s0.028 0.025 0.062 0.025c0.034 0 0.055-0.011 0.046-0.025s0.032-0.026 0.090-0.026c0.105-0.001 0.25-0.090 0.25-0.154 0-0.018 0.025-0.057 0.055-0.087 0.058-0.058 0.089-0.334 0.038-0.334-0.016 0-0.029-0.026-0.029-0.057s-0.028-0.077-0.062-0.102c-0.034-0.025-0.056-0.055-0.049-0.066s-0.065-0.060-0.162-0.107-0.175-0.101-0.175-0.12c0-0.019-0.022-0.026-0.048-0.016s-0.048 0.006-0.048-0.009-0.064-0.057-0.141-0.094c-0.078-0.037-0.151-0.081-0.162-0.1s-0.083-0.062-0.161-0.097-0.149-0.079-0.16-0.096-0.034-0.024-0.050-0.014c-0.016 0.010-0.030 0.002-0.030-0.017 0-0.043-0.196-0.13-0.237-0.105-0.016 0.010-0.020 0.003-0.008-0.016s-0.039-0.059-0.12-0.092c-0.078-0.032-0.135-0.068-0.128-0.080s-0.016-0.029-0.051-0.038c-0.062-0.016-0.064-0.045-0.064-1.041 0-1.081-0.029-1.286-0.182-1.286-0.023 0-0.042-0.014-0.042-0.032s-0.030-0.032-0.066-0.032c-0.036 0-0.059-0.012-0.050-0.026 0.022-0.035-0.301-0.029-0.38 0.007zM2.775 8.435c-0.005 0.005-0.063 0.013-0.129 0.018s-0.119 0.019-0.119 0.033c0 0.014-0.035 0.025-0.078 0.025s-0.087 0.014-0.097 0.031c-0.011 0.017-0.073 0.055-0.138 0.085s-0.147 0.079-0.183 0.11c-0.202 0.177-0.336 0.331-0.336 0.386 0 0.035-0.013 0.055-0.029 0.046-0.032-0.020-0.131 0.207-0.131 0.301 0 0.034-0.014 0.070-0.032 0.081s-0.032 0.083-0.032 0.16c0 0.077-0.014 0.149-0.032 0.16s-0.032 0.049-0.032 0.084c0 0.035 0.012 0.056 0.028 0.047s0.028 0.008 0.028 0.038c-0.001 0.208 0.012 0.297 0.041 0.279 0.018-0.011 0.032 0.012 0.032 0.051 0 0.088 0.151 0.413 0.192 0.413 0.017 0 0.040 0.037 0.051 0.081s0.028 0.074 0.038 0.064c0.010-0.010 0.044 0.026 0.076 0.079 0.052 0.086 0.093 0.112 0.139 0.088 0.008-0.004 0.038 0.024 0.066 0.064s0.077 0.072 0.109 0.072c0.032 0 0.067 0.022 0.077 0.048 0.011 0.028 0.059 0.048 0.117 0.048 0.060 0 0.091 0.013 0.078 0.033s0.021 0.034 0.086 0.035c0.647 0.013 0.85 0.003 0.879-0.043 0.009-0.014 0.046-0.025 0.083-0.025s0.058-0.009 0.047-0.020c-0.011-0.011 0.037-0.049 0.107-0.083s0.127-0.077 0.127-0.093c0-0.017 0.012-0.023 0.026-0.014s0.067-0.019 0.117-0.062c0.050-0.043 0.080-0.078 0.067-0.078s0.018-0.040 0.070-0.088c0.111-0.104 0.297-0.477 0.297-0.597 0-0.046 0.018-0.084 0.040-0.084 0.027-0 0.024-0.011-0.008-0.032s-0.035-0.031-0.008-0.032c0.028-0 0.040-0.070 0.040-0.24 0-0.132-0.013-0.24-0.028-0.24s-0.038-0.079-0.050-0.176c-0.012-0.097-0.035-0.176-0.052-0.176s-0.030-0.022-0.030-0.048-0.014-0.048-0.032-0.048c-0.018 0-0.032-0.019-0.032-0.043s-0.028-0.069-0.063-0.1c-0.035-0.031-0.054-0.072-0.043-0.090s0.005-0.023-0.014-0.011c-0.019 0.012-0.044-0.008-0.055-0.044s-0.034-0.057-0.050-0.047c-0.016 0.010-0.030 0.006-0.030-0.009s-0.023-0.056-0.050-0.090c-0.028-0.034-0.039-0.041-0.025-0.014s-0.019 0.011-0.073-0.034c-0.054-0.045-0.147-0.102-0.207-0.126s-0.115-0.052-0.124-0.062c-0.045-0.050-0.166-0.102-0.141-0.060 0.021 0.034 0.016 0.035-0.024 0.002-0.043-0.034-0.52-0.080-0.547-0.053zM12.784 8.442c-0.053 0.006-0.11 0.024-0.126 0.041s-0.061 0.030-0.098 0.030-0.082 0.015-0.1 0.033c-0.018 0.018-0.067 0.039-0.108 0.047s-0.084 0.027-0.094 0.042c-0.010 0.015-0.065 0.054-0.122 0.088s-0.104 0.070-0.104 0.081-0.029 0.053-0.064 0.094c-0.035 0.041-0.064 0.063-0.064 0.049 0-0.057-0.261 0.372-0.276 0.453-0.009 0.048-0.032 0.107-0.050 0.13-0.041 0.050-0.046 0.743-0.006 0.772 0.015 0.011 0.033 0.049 0.039 0.084s0.031 0.111 0.055 0.169c0.024 0.058 0.047 0.115 0.052 0.128s0.045 0.065 0.089 0.115 0.078 0.105 0.073 0.12c-0.004 0.015 0.014 0.028 0.042 0.028s0.042 0.012 0.033 0.027c-0.009 0.015 0.032 0.054 0.092 0.086s0.102 0.070 0.093 0.085c-0.009 0.014 0.015 0.026 0.052 0.026s0.059 0.014 0.048 0.032c-0.011 0.018 0.008 0.032 0.042 0.032s0.080 0.022 0.102 0.048c0.022 0.026 0.067 0.048 0.1 0.048s0.060 0.015 0.060 0.034c0 0.019 0.040 0.031 0.088 0.027s0.115 0.004 0.147 0.018c0.126 0.054 0.669-0.010 0.838-0.099 0.276-0.145 0.3-0.16 0.423-0.281 0.066-0.065 0.153-0.15 0.192-0.188 0.065-0.064 0.088-0.122 0.075-0.194-0.003-0.015 0.010-0.017 0.028-0.006 0.029 0.018 0.037 0.001 0.031-0.064-0.001-0.009 0.023-0.063 0.053-0.12 0.104-0.2 0.107-0.21 0.068-0.226-0.030-0.012-0.029-0.016 0.001-0.018 0.049-0.003 0.057-0.5 0.008-0.531-0.018-0.011-0.032-0.068-0.032-0.128s-0.015-0.117-0.033-0.128c-0.018-0.011-0.023-0.035-0.012-0.053s0.008-0.043-0.007-0.054c-0.015-0.011-0.063-0.085-0.106-0.164-0.094-0.172-0.283-0.384-0.343-0.384-0.024 0-0.043-0.014-0.043-0.032s-0.068-0.064-0.152-0.102c-0.084-0.039-0.157-0.082-0.163-0.096s-0.054-0.026-0.106-0.026-0.088-0.012-0.079-0.027c0.009-0.015-0.001-0.028-0.022-0.030-0.15-0.014-0.536-0.022-0.615-0.013zM1.152 11.737c0 0.014-0.036 0.028-0.081 0.032-0.078 0.006-0.27 0.090-0.303 0.132-0.009 0.011-0.056 0.046-0.105 0.077s-0.080 0.071-0.070 0.087-0.003 0.039-0.031 0.050c-0.028 0.011-0.050 0.047-0.050 0.082s-0.014 0.054-0.032 0.043c-0.018-0.011-0.034-0.005-0.036 0.014s-0.008 0.048-0.012 0.066c-0.004 0.018-0.010 0.047-0.012 0.066s-0.018 0.025-0.036 0.014c-0.021-0.013-0.032 0.332-0.032 1.011v1.031l0.080 0.105c0.044 0.058 0.080 0.124 0.080 0.147s0.051 0.076 0.112 0.118 0.112 0.089 0.112 0.104c0 0.015 0.035 0.028 0.078 0.028s0.087 0.014 0.098 0.032c0.013 0.021 0.748 0.032 2.1 0.032 1.213 0 2.073-0.012 2.062-0.029s0.022-0.038 0.070-0.050c0.087-0.021 0.264-0.185 0.264-0.243 0-0.017 0.014-0.030 0.031-0.030s0.040-0.050 0.051-0.112c0.012-0.061 0.033-0.104 0.048-0.095s0.028-0.43 0.029-0.976c0.002-0.693-0.008-0.993-0.032-0.993-0.019 0-0.027-0.012-0.018-0.027 0.022-0.035-0.047-0.227-0.109-0.303-0.116-0.143-0.192-0.214-0.228-0.214-0.021 0-0.029-0.010-0.017-0.022 0.031-0.031-0.142-0.138-0.225-0.138-0.039-0-0.079-0.015-0.090-0.032s-0.037-0.032-0.058-0.032c-0.023 0-0.019 0.013 0.010 0.032s0.033 0.031 0.010 0.032c-0.021 0-0.047-0.014-0.058-0.032-0.012-0.019-0.208-0.032-0.482-0.032h-0.463l-0.095 0.104c-0.052 0.057-0.095 0.119-0.096 0.136s-0.037 0.059-0.081 0.092-0.080 0.080-0.080 0.104c0 0.024-0.011 0.044-0.025 0.044s-0.052 0.046-0.085 0.102c-0.061 0.103-0.109 0.163-0.291 0.362l-0.1 0.11-0.077-0.101c-0.042-0.056-0.094-0.131-0.116-0.167s-0.039-0.054-0.040-0.039c-0.002 0.037-0.097-0.063-0.097-0.102 0-0.018-0.044-0.080-0.099-0.138s-0.148-0.182-0.208-0.274c-0.072-0.111-0.131-0.168-0.173-0.168-0.035 0-0.064-0.014-0.064-0.032 0-0.020-0.176-0.032-0.464-0.032-0.255 0-0.464 0.011-0.464 0.025zM11.219 11.74c-0.009 0.015-0.074 0.037-0.144 0.048s-0.146 0.045-0.169 0.076c-0.023 0.031-0.063 0.060-0.088 0.066-0.049 0.011-0.112 0.086-0.197 0.234-0.028 0.050-0.061 0.081-0.072 0.070s-0.022-0-0.023 0.025c-0.001 0.025-0.010 0.074-0.020 0.109-0.026 0.095-0.061 2.004-0.037 2.019 0.011 0.007 0.030 0.063 0.041 0.125s0.036 0.112 0.053 0.112 0.024 0.014 0.014 0.030c-0.010 0.017 0.010 0.046 0.046 0.065s0.065 0.052 0.065 0.074c0 0.021 0.076 0.078 0.169 0.127l0.168 0.088h2.072c1.36 0 2.071-0.011 2.071-0.032 0-0.018 0.015-0.032 0.033-0.032 0.037 0 0.060-0.016 0.227-0.167 0.064-0.058 0.126-0.137 0.138-0.177s0.035-0.064 0.051-0.054c0.018 0.011 0.030-0.422 0.030-1.104 0-0.941-0.007-1.122-0.045-1.122-0.025 0-0.059-0.041-0.077-0.092-0.058-0.167-0.388-0.452-0.523-0.452-0.048 0-0.096-0.014-0.107-0.032-0.012-0.019-0.214-0.032-0.498-0.032-0.297 0-0.478 0.012-0.478 0.032 0 0.018-0.028 0.032-0.062 0.032s-0.071 0.029-0.082 0.064c-0.011 0.035-0.059 0.104-0.106 0.154-0.108 0.114-0.198 0.226-0.198 0.248 0 0.024-0.065 0.1-0.168 0.198-0.048 0.046-0.088 0.099-0.088 0.119s-0.029 0.056-0.064 0.082-0.064 0.065-0.064 0.087c0 0.065-0.052 0.047-0.108-0.037-0.028-0.043-0.087-0.114-0.132-0.159s-0.081-0.102-0.081-0.128c0-0.026-0.028-0.056-0.062-0.067s-0.071-0.048-0.082-0.082c-0.011-0.034-0.033-0.062-0.050-0.062s-0.028-0.011-0.025-0.024c0.008-0.040-0.042-0.137-0.064-0.123-0.011 0.007-0.039-0.008-0.062-0.032s-0.031-0.045-0.017-0.045c0.013 0-0.032-0.058-0.101-0.128l-0.125-0.128h-0.472c-0.259 0-0.479 0.013-0.489 0.028z"></path>
</svg>
