<!-- Generated by IcoMoon.io -->
<svg version="1.1" xmlns="http://www.w3.org/2000/svg" width="20" height="20" viewBox="0 0 20 20">
<title>image2vector-3</title>
<path fill="#2e375a" d="M1.776 6.036c-1.372 0.332-1.981 2.005-1.153 3.165 0.881 1.235 2.798 1.080 3.472-0.28 0.768-1.55-0.632-3.293-2.319-2.885zM7.84 6.034c-1.525 0.399-2.048 2.289-0.944 3.409 1.27 1.287 3.474 0.382 3.472-1.426-0.002-1.327-1.261-2.314-2.528-1.983zM13.234 6.035c-1.52 0.368-2.053 2.292-0.945 3.408 1.283 1.291 3.476 0.378 3.467-1.443-0.006-1.317-1.236-2.276-2.521-1.965z"></path>
</svg>
