<!-- Generated by IcoMoon.io -->
<svg version="1.1" xmlns="http://www.w3.org/2000/svg" width="16" height="20" viewBox="0 0 16 20">
<title>image2vector-5</title>
<path d="M4.421 0.062c-0.351 0.166-0.511 0.406-0.528 0.787l-0.009 0.214h-0.77c-0.859 0-0.861 0-0.91 0.176-0.016 0.059-0.027 0.494-0.027 1.113l-0 1.017-2.053 0.015-0.125 0.146v9.769l0.093 0.113c0.051 0.062 0.182 0.204 0.292 0.316 0.5 0.511 0.613 0.629 0.99 1.029 0.221 0.234 0.508 0.533 0.638 0.664s0.28 0.291 0.333 0.357c0.203 0.248-0.233 0.224 3.938 0.224 2.636 0 3.689-0.008 3.735-0.029 0.109-0.050 0.121-0.119 0.121-0.737v-0.582h2.699l0.127-0.127v-13.334l-0.127-0.127h-6.063l-0.016-0.191c-0.030-0.36-0.271-0.704-0.57-0.816-0.24-0.090-1.576-0.085-1.768 0.006zM6.010 0.596c0.12 0.073 0.188 0.196 0.188 0.344l0 0.123h-1.789l0.001-0.097c0.001-0.165 0.085-0.312 0.212-0.37 0.17-0.077 1.262-0.077 1.388 0zM3.89 2.489v0.882h-1.167v-1.763h1.167v0.882zM12.447 7.857v6.25h-2.308v-5.263c0-3.873-0.008-5.28-0.029-5.328-0.066-0.146-0.060-0.145-2.123-0.145h-1.893v-0.673c0-0.8-0.005-0.815-0.259-0.815s-0.259 0.016-0.259 0.815v0.673h-1.167v-1.763h8.039v6.25zM3.89 4.537v0.596l-2.079 0.015-0.063 0.073c-0.095 0.111-0.089 0.307 0.013 0.409l0.076 0.076h2.073l0.057 0.139c0.072 0.178 0.179 0.292 0.39 0.419l0.169 0.101 0.838 0.019 0.173-0.080c0.213-0.099 0.425-0.304 0.483-0.469l0.041-0.117 2.367-0.026 0.070-0.070c0.103-0.103 0.104-0.301 0.002-0.403l-0.072-0.072-2.333-0.015v-1.191h3.475v11.514h-6.587v-2.416l-0.152-0.152h-2.312v-8.947h3.371v0.596zM5.575 4.538v0.596h-1.167v-1.193h1.167v0.596zM5.342 5.757c-0.158 0.087-0.778 0.057-0.778-0.038 0-0.008 0.195-0.014 0.434-0.013l0.434 0.001-0.091 0.050zM1.765 7.38c-0.109 0.091-0.117 0.313-0.016 0.414l0.064 0.064h3.304c3.255 0 3.305-0.001 3.369-0.051 0.132-0.104 0.112-0.38-0.033-0.455-0.065-0.033-0.505-0.038-3.341-0.038h-3.267l-0.080 0.067zM1.749 9.555c-0.092 0.091-0.092 0.314-0 0.412l0.064 0.069h3.302c3.65 0 3.383 0.013 3.442-0.167 0.021-0.065 0.022-0.117 0.001-0.193-0.054-0.2 0.238-0.184-3.444-0.184h-3.302l-0.064 0.064zM1.85 11.661c-0.179 0.036-0.227 0.345-0.075 0.488l0.096 0.090h6.472l0.088-0.059c0.167-0.113 0.194-0.301 0.063-0.453l-0.061-0.071-3.263-0.003c-1.795-0.002-3.288 0.002-3.319 0.008zM2.437 14.243l-0.001 0.81-0.081-0.091c-0.078-0.088-0.46-0.486-0.98-1.024-0.138-0.143-0.301-0.315-0.363-0.382l-0.112-0.123h1.537l-0.001 0.81z"></path>
</svg>
