<!-- Generated by IcoMoon.io -->
<svg version="1.1" xmlns="http://www.w3.org/2000/svg" width="20" height="20" viewBox="0 0 20 20">
<title>interface-3</title>
<path d="M10.274 17.107h-2.865l0.417 0.417c0.266 0.266 0.434 0.589 0.521 0.928h2.753l-0.267-0.267c-0.305-0.305-0.489-0.683-0.558-1.078z"></path>
<path d="M4.376 12.73v-11.345h11.184v13.173l1.345-1.346v-12.499c0-0.371-0.301-0.673-0.672-0.673h-12.529c-0.372 0-0.672 0.301-0.672 0.673v12.017l0.672 0.673 0.673-0.673z"></path>
<path d="M6.656 4.184h3.935c0.372 0 0.672-0.301 0.672-0.673s-0.301-0.672-0.672-0.672h-3.935c-0.372 0-0.672 0.301-0.672 0.672s0.301 0.673 0.672 0.673z"></path>
<path d="M13.28 5.529h-6.625c-0.372 0-0.673 0.301-0.673 0.672s0.301 0.673 0.673 0.673h6.625c0.372 0 0.672-0.301 0.672-0.673s-0.301-0.672-0.672-0.672z"></path>
<path d="M13.28 8.219h-6.625c-0.372 0-0.673 0.301-0.673 0.673s0.301 0.672 0.673 0.672h6.625c0.372 0 0.672-0.301 0.672-0.672s-0.301-0.673-0.672-0.673z"></path>
<path d="M13.28 10.909h-3.935c-0.372 0-0.672 0.301-0.672 0.672s0.301 0.672 0.672 0.672h3.935c0.372 0 0.672-0.301 0.672-0.672s-0.301-0.672-0.672-0.672z"></path>
<path d="M19.704 13.266c-0.394-0.393-1.032-0.394-1.426 0l-4.042 4.043-1.265-1.264c-0.394-0.394-1.032-0.394-1.426 0s-0.394 1.033 0 1.426l1.978 1.978c0.189 0.189 0.446 0.296 0.713 0.296s0.524-0.106 0.713-0.296l4.756-4.757c0.394-0.394 0.394-1.033 0-1.427z"></path>
<path d="M5.13 16.256c0.9-0.9 0.468-0.469 1.981-1.981 0.394-0.394 0.394-1.033 0-1.426s-1.032-0.394-1.426 0c-1.522 1.521-1.089 1.089-1.982 1.981l-1.981-1.981c-0.394-0.394-1.032-0.394-1.426 0s-0.394 1.033 0 1.426l1.982 1.981c-0.903 0.903-0.469 0.47-1.982 1.982-0.394 0.394-0.394 1.033 0 1.426s1.032 0.394 1.426 0c1.512-1.512 1.080-1.080 1.981-1.982l1.982 1.982c0.394 0.394 1.032 0.394 1.427 0s0.394-1.033 0-1.426l-1.982-1.982z"></path>
</svg>
