<!-- Generated by IcoMoon.io -->
<svg version="1.1" xmlns="http://www.w3.org/2000/svg" width="20" height="20" viewBox="0 0 20 20">
<title>interface</title>
<path d="M18.024 0.845l-11.381-0.023c-1.090 0-1.977 0.887-1.977 1.977v1.708l-2.69 0.006c-1.090 0-1.977 0.887-1.977 1.977v7.047c0 1.090 0.887 1.977 1.976 1.977h2.024v3.333c0 0.138 0.085 0.261 0.213 0.311 0.039 0.015 0.080 0.022 0.12 0.022 0.092 0 0.182-0.038 0.247-0.109l3.235-3.558 5.542-0.023c1.090 0 1.977-0.887 1.977-1.977v-0.038l1.753 1.929c0.064 0.071 0.155 0.109 0.247 0.109 0.040 0 0.081-0.007 0.12-0.022 0.129-0.049 0.213-0.173 0.213-0.311v-3.333h0.357c1.090 0 1.977-0.887 1.977-1.977v-7.047c0-1.090-0.886-1.976-1.976-1.977zM14.667 13.512c0 0.722-0.588 1.31-1.311 1.31l-5.69 0.023c-0.094 0-0.182 0.040-0.245 0.109l-2.753 3.029v-2.804c0-0.184-0.149-0.333-0.333-0.333h-2.357c-0.722 0-1.31-0.588-1.31-1.31v-7.047c0-0.722 0.588-1.31 1.311-1.31l3.023-0.006c0 0 0 0 0 0s0.001 0 0.001 0l8.356-0.017c0.722 0 1.31 0.588 1.31 1.31v7.047zM19.333 9.868c0 0.722-0.588 1.31-1.31 1.31h-0.69c-0.184 0-0.333 0.149-0.333 0.333v2.804l-1.667-1.833v-6.018c0-1.090-0.887-1.976-1.977-1.976v0 0h-0.035l-7.988 0.016v-1.707c0-0.722 0.588-1.31 1.309-1.31l11.38 0.023c0 0 0 0 0.001 0 0.722 0 1.31 0.588 1.31 1.31v7.047z"></path>
<path d="M4 8.816c-0.735 0-1.333 0.598-1.333 1.333s0.598 1.333 1.333 1.333 1.333-0.598 1.333-1.333-0.598-1.333-1.333-1.333zM4 10.816c-0.368 0-0.667-0.299-0.667-0.667s0.299-0.667 0.667-0.667 0.667 0.299 0.667 0.667-0.299 0.667-0.667 0.667z"></path>
<path d="M7.667 8.816c-0.735 0-1.333 0.598-1.333 1.333s0.598 1.333 1.333 1.333 1.333-0.598 1.333-1.333-0.598-1.333-1.333-1.333zM7.667 10.816c-0.368 0-0.667-0.299-0.667-0.667s0.299-0.667 0.667-0.667 0.667 0.299 0.667 0.667-0.299 0.667-0.667 0.667z"></path>
<path d="M11.333 8.816c-0.735 0-1.333 0.598-1.333 1.333s0.598 1.333 1.333 1.333 1.333-0.598 1.333-1.333-0.598-1.333-1.333-1.333zM11.333 10.816c-0.368 0-0.667-0.299-0.667-0.667s0.299-0.667 0.667-0.667 0.667 0.299 0.667 0.667-0.299 0.667-0.667 0.667z"></path>
</svg>
