<!-- Generated by IcoMoon.io -->
<svg version="1.1" xmlns="http://www.w3.org/2000/svg" width="20" height="20" viewBox="0 0 20 20">
<title>interface2</title>
<path d="M13.125 10.625h-6.25c-0.345 0-0.625 0.28-0.625 0.625s0.28 0.625 0.625 0.625h6.25c0.345 0 0.625-0.28 0.625-0.625s-0.28-0.625-0.625-0.625zM14.375 6.875h-8.75c-0.345 0-0.625 0.28-0.625 0.625s0.28 0.625 0.625 0.625h8.75c0.345 0 0.625-0.28 0.625-0.625s-0.28-0.625-0.625-0.625zM10 0c-5.522 0-10 3.917-10 8.75 0 2.762 1.466 5.221 3.75 6.824v4.426l4.381-2.658c0.606 0.1 1.23 0.158 1.869 0.158 5.523 0 10-3.917 10-8.75s-4.477-8.75-10-8.75zM10 16.25c-0.73 0-1.435-0.085-2.113-0.229l-2.943 1.769 0.039-2.899c-2.256-1.357-3.734-3.599-3.734-6.141 0-4.142 3.917-7.5 8.75-7.5s8.75 3.358 8.75 7.5-3.917 7.5-8.75 7.5z"></path>
</svg>
