<!-- Generated by IcoMoon.io -->
<svg version="1.1" xmlns="http://www.w3.org/2000/svg" width="20" height="20" viewBox="0 0 20 20">
<title>interface-1</title>
<path d="M19.475 2.667c-0.35-0.35-0.77-0.525-1.261-0.525h-16.429c-0.491 0-0.912 0.175-1.261 0.525s-0.525 0.77-0.525 1.261v12.143c0 0.491 0.175 0.911 0.525 1.261s0.77 0.525 1.261 0.525h16.429c0.491 0 0.911-0.175 1.261-0.525s0.525-0.77 0.525-1.261v-12.143c-0-0.491-0.175-0.912-0.525-1.261zM18.571 16.071c0 0.097-0.035 0.18-0.106 0.251s-0.154 0.106-0.251 0.106h-16.429c-0.097 0-0.18-0.035-0.251-0.106s-0.106-0.154-0.106-0.251v-8.571c0.238 0.268 0.495 0.513 0.77 0.737 1.994 1.533 3.579 2.79 4.755 3.772 0.379 0.32 0.688 0.569 0.926 0.748s0.56 0.359 0.965 0.541c0.405 0.182 0.787 0.273 1.144 0.273h0.022c0.357 0 0.739-0.091 1.144-0.273s0.728-0.363 0.966-0.541c0.238-0.179 0.547-0.428 0.926-0.748 1.176-0.982 2.76-2.24 4.754-3.772 0.275-0.223 0.532-0.469 0.77-0.737v8.571zM18.571 4.219v0.123c0 0.439-0.173 0.928-0.519 1.468s-0.72 0.969-1.122 1.289c-1.436 1.131-2.928 2.31-4.476 3.538-0.045 0.037-0.175 0.147-0.391 0.329s-0.387 0.322-0.513 0.419c-0.127 0.097-0.292 0.214-0.497 0.352s-0.393 0.24-0.564 0.307c-0.171 0.067-0.331 0.1-0.48 0.1h-0.022c-0.149 0-0.309-0.033-0.48-0.1s-0.359-0.169-0.564-0.307c-0.204-0.138-0.37-0.255-0.497-0.352s-0.298-0.236-0.513-0.419c-0.216-0.182-0.346-0.292-0.391-0.329-1.548-1.228-3.039-2.407-4.475-3.538-1.094-0.863-1.641-1.92-1.641-3.17 0-0.097 0.035-0.18 0.106-0.251s0.154-0.106 0.251-0.106h16.429c0.059 0.033 0.112 0.043 0.156 0.028s0.078 0.013 0.1 0.084c0.022 0.071 0.043 0.104 0.061 0.1s0.030 0.043 0.034 0.14c0.003 0.097 0.005 0.145 0.005 0.145v0.15h-0z"></path>
</svg>
