<!-- Generated by IcoMoon.io -->
<svg version="1.1" xmlns="http://www.w3.org/2000/svg" width="20" height="20" viewBox="0 0 20 20">
<title>interface-5</title>
<path d="M18.023 0.333h-12.713c-1.090 0-1.977 0.887-1.977 1.977v2.023h11.357c1.457 0 2.643 1.186 2.643 2.643v4.357h0.69c1.090 0 1.977-0.887 1.977-1.977v-7.047c0-1.090-0.887-1.977-1.977-1.977z"></path>
<path d="M14.69 5h-12.713c-1.090 0-1.977 0.887-1.977 1.976v7.047c0 1.090 0.887 1.977 1.977 1.977h2.023v3.333c0 0.138 0.085 0.261 0.213 0.311 0.039 0.015 0.080 0.022 0.12 0.022 0.092 0 0.182-0.038 0.247-0.109l3.234-3.558h6.876c1.090 0 1.977-0.887 1.977-1.977v-7.047c0-1.090-0.887-1.976-1.977-1.976zM4 8.338h4.667c0.184 0 0.333 0.149 0.333 0.333s-0.149 0.333-0.333 0.333h-4.667c-0.184 0-0.333-0.149-0.333-0.333s0.149-0.333 0.333-0.333zM13 13.005h-9c-0.184 0-0.333-0.149-0.333-0.333s0.149-0.333 0.333-0.333h9c0.184 0 0.333 0.149 0.333 0.333s-0.149 0.333-0.333 0.333zM13 11.005h-9c-0.184 0-0.333-0.149-0.333-0.333s0.149-0.333 0.333-0.333h9c0.184 0 0.333 0.149 0.333 0.333s-0.149 0.333-0.333 0.333z"></path>
</svg>
