<!-- Generated by IcoMoon.io -->
<svg version="1.1" xmlns="http://www.w3.org/2000/svg" width="20" height="20" viewBox="0 0 20 20">
<title>internet</title>
<path d="M18.884 12.736c-1.471-0.374-2.662-1.216-2.662-1.216l-0.933 2.945-0.177 0.555-0.004-0.008-0.152 0.468-0.493-1.393c1.208-1.684-0.242-1.668-0.325-1.664-0.082-0.004-1.532-0.021-0.325 1.664l-0.493 1.393-0.152-0.468-0.004 0.008-0.177-0.555-0.933-2.945c0 0-1.195 0.842-2.662 1.216-1.097 0.279-1.15 1.545-1.105 2.169 0 0 0.062 0.85 0.127 1.224 0 0 2.136 1.388 5.718 1.393 3.586-0.004 5.727-1.393 5.727-1.393 0.066-0.374 0.127-1.224 0.127-1.224 0.045-0.624-0.008-1.89-1.105-2.169z"></path>
<path d="M11.153 3.842c0.016-0.016 0.029-0.029 0.045-0.045-1.191-0.854-2.621-1.319-4.116-1.319-1.894-0.004-3.673 0.731-5.008 2.070-1.339 1.339-2.075 3.114-2.075 5.008 0 1.89 0.735 3.668 2.075 5.008s3.114 2.075 5.008 2.075c0.094 0 0.189-0.004 0.283-0.004-0.045-0.094-0.078-0.197-0.094-0.304-0.041-0.234-0.078-0.6-0.103-0.887-0.029 0-0.058 0-0.086 0-0.185 0-0.37-0.008-0.555-0.025-0.608-0.941-1.060-1.968-1.343-3.040h2.662c0.329-0.378 0.76-0.641 1.265-0.772 0.464-0.119 0.904-0.296 1.269-0.468 0.049-0.357 0.082-0.715 0.103-1.080-0.021-0.033-0.045-0.062-0.066-0.099-0.16-0.255-0.296-0.575-0.419-1.015-0.144-0.513-0.288-1.249 0.078-1.853-0.045-0.312-0.053-0.6-0.033-0.871-0.214-0.744-0.497-1.462-0.85-2.153 0.46 0.177 0.887 0.411 1.282 0.69 0.177-0.325 0.403-0.633 0.678-0.916zM6.63 3.686c0.148-0.012 0.296-0.016 0.448-0.016 0.173 0 0.345 0.008 0.518 0.025 0.608 0.941 1.060 1.964 1.343 3.032h-3.714c0.304-1.076 0.776-2.099 1.405-3.040zM5.024 4.039c-0.456 0.85-0.801 1.754-1.035 2.687h-2.066c0.674-1.228 1.775-2.19 3.102-2.687zM1.195 9.556c0-0.567 0.082-1.113 0.23-1.631h2.325c-0.082 0.563-0.123 1.13-0.123 1.705 0 0.522 0.033 1.035 0.099 1.545h-2.3c-0.148-0.513-0.23-1.060-0.23-1.619zM1.918 12.374h2.033c0.218 0.92 0.546 1.812 0.978 2.658-1.29-0.509-2.354-1.458-3.011-2.658zM9.296 9.478c0 0.571-0.045 1.138-0.136 1.697h-4.223c-0.074-0.509-0.111-1.027-0.111-1.545 0-0.575 0.045-1.146 0.136-1.705h4.223c0.074 0.509 0.111 1.031 0.111 1.553z"></path>
<path d="M16.83 7.56c0.045-0.131 0.082-0.259 0.103-0.39 0.407-2.452-0.797-2.539-0.797-2.539s-0.201-0.386-0.727-0.674c-0.349-0.21-0.842-0.374-1.491-0.316-0.21 0.008-0.407 0.049-0.596 0.115-0.238 0.082-0.456 0.197-0.653 0.337-0.242 0.152-0.472 0.341-0.674 0.555-0.32 0.325-0.604 0.748-0.727 1.278-0.103 0.394-0.082 0.805 0.004 1.245 0.025 0.127 0.058 0.259 0.103 0.39-0.242-0.025-0.526 0.119-0.259 1.064 0.197 0.69 0.378 0.887 0.518 0.896 0.127 0.822 0.76 1.869 1.803 2.239 0.427 0.152 0.9 0.152 1.323-0.004 1.027-0.37 1.684-1.413 1.812-2.235 0.14-0.012 0.32-0.205 0.518-0.896 0.267-0.945-0.016-1.089-0.259-1.064z"></path>
</svg>
