<!-- Generated by IcoMoon.io -->
<svg version="1.1" xmlns="http://www.w3.org/2000/svg" width="20" height="20" viewBox="0 0 20 20">
<title>interface-2</title>
<path d="M15.080 4.444h-3.252l1.626 1.626z"></path>
<path d="M5.981 6.032c0.010-0.229 0.108-0.453 0.269-0.615l0.972-0.972h-7.222v2.222h6.198c-0.148-0.175-0.226-0.406-0.217-0.635z"></path>
<path d="M0 0h15.556v2.222h-15.556v-2.222z"></path>
<path d="M6.25 14.583c-0.162-0.162-0.26-0.386-0.27-0.615s0.069-0.46 0.216-0.635h-6.196v2.222h7.222l-0.972-0.972z"></path>
<path d="M0 17.778h15.556v2.222h-15.556v-2.222z"></path>
<path d="M11.826 15.556h3.255l-1.628-1.628z"></path>
<path d="M17.778 11.111v-2.222h-0.595l2.818-2.818-2.619-2.619-3.928 3.928-3.929-3.928-2.619 2.619 2.819 2.818h-9.724v2.222h9.723l-2.818 2.818 2.619 2.619 3.929-3.929 3.928 3.929 2.619-2.619-2.817-2.818z"></path>
</svg>
