<!-- Generated by IcoMoon.io -->
<svg version="1.1" xmlns="http://www.w3.org/2000/svg" width="20" height="20" viewBox="0 0 20 20">
<title>investigation</title>
<path d="M6.106 0.066c-0.708 0.246-1.101 1.16-1.317 3.075-0.018 0.18-0.011 0.194 0.128 0.356 0.389 0.44 1.229 0.815 2.239 0.998 0.462 0.084 1.761 0.117 2.279 0.059 1.215-0.139 2.272-0.565 2.69-1.079l0.121-0.154-0.044-0.429c-0.125-1.119-0.363-1.916-0.708-2.374-0.506-0.668-1.211-0.683-2.264-0.037-0.569 0.349-0.697 0.404-0.804 0.363-0.048-0.018-0.239-0.125-0.422-0.239-0.895-0.554-1.42-0.705-1.897-0.539z"></path>
<path d="M3.89 3.655c-0.481 0.268-0.771 0.539-0.958 0.895-0.132 0.25-0.125 0.646 0.018 0.917 0.191 0.367 0.734 0.796 1.321 1.046l0.228 0.095 0.044 0.466c0.235 2.418 1.406 4.136 3.13 4.602 0.44 0.117 1.237 0.117 1.677 0 0.624-0.169 1.134-0.466 1.6-0.936 0.844-0.851 1.369-2.114 1.53-3.695l0.044-0.426 0.389-0.191c1.31-0.635 1.64-1.541 0.848-2.316-0.22-0.213-0.763-0.565-0.877-0.569-0.037-0.004-0.139 0.092-0.246 0.231-1.064 1.394-4.506 1.875-6.859 0.954-0.65-0.25-1.207-0.646-1.45-1.024-0.066-0.099-0.136-0.183-0.161-0.183-0.022 0-0.147 0.059-0.279 0.132z"></path>
<path d="M16.037 10.198c-0.561 0.121-1.149 0.418-1.582 0.804-0.429 0.382-0.815 1.035-0.976 1.648-0.125 0.488-0.132 1.16-0.015 1.64 0.088 0.36 0.29 0.822 0.492 1.123 0.114 0.169 0.128 0.209 0.088 0.261-0.275 0.389-0.418 0.543-0.525 0.561-0.066 0.015-0.183 0.073-0.264 0.128-0.154 0.114-1.571 1.886-1.725 2.161-0.059 0.103-0.095 0.242-0.106 0.389-0.037 0.437 0.172 0.807 0.558 0.994 0.172 0.088 0.235 0.099 0.47 0.088 0.481-0.026 0.517-0.059 1.413-1.189 0.811-1.024 0.961-1.259 0.961-1.497 0-0.114 0.037-0.187 0.209-0.404 0.114-0.147 0.22-0.279 0.235-0.297 0.018-0.018 0.121 0 0.242 0.044 0.998 0.363 2.077 0.268 2.958-0.253 0.481-0.286 1.009-0.859 1.266-1.372 0.228-0.455 0.308-0.796 0.33-1.369 0.018-0.55-0.011-0.8-0.147-1.218-0.367-1.141-1.325-2-2.506-2.242-0.418-0.088-0.961-0.084-1.376 0zM17.27 11.229c0.459 0.117 0.723 0.268 1.083 0.624 0.488 0.481 0.697 0.98 0.697 1.651 0 0.661-0.209 1.16-0.679 1.633-0.745 0.745-1.714 0.91-2.661 0.459-0.437-0.209-0.851-0.624-1.061-1.064-0.183-0.389-0.242-0.631-0.242-1.028-0.007-1.505 1.424-2.639 2.862-2.275z"></path>
<path d="M6.617 11.927c-0.158 0.037-0.213 0.073-0.745 0.528l-0.459 0.389-1.982 0.793c-1.090 0.433-2.051 0.833-2.139 0.881-0.639 0.374-1.017 1.835-1.218 4.712-0.022 0.312-0.048 0.613-0.059 0.672l-0.022 0.099h5.508c3.031 0 5.508-0.007 5.508-0.018 0-0.007-0.033-0.070-0.073-0.136-0.217-0.352-0.279-0.928-0.147-1.358 0.088-0.286 0.213-0.466 1.145-1.644 0.708-0.899 0.789-0.98 1.222-1.229 0.062-0.037 0.055-0.059-0.066-0.312-0.257-0.543-0.385-1.042-0.418-1.651l-0.022-0.389-0.506-0.198c-0.506-0.202-0.514-0.206-1.046-0.65-0.294-0.25-0.576-0.462-0.631-0.473s-0.128-0.029-0.161-0.037c-0.033-0.011-0.132 0-0.22 0.022-0.132 0.037-0.264 0.15-0.866 0.745l-0.705 0.705-0.69-0.686c-0.378-0.374-0.719-0.697-0.76-0.719-0.114-0.055-0.319-0.077-0.448-0.044z"></path>
<path d="M15.49 17.585c-0.070 0.308-0.213 0.536-0.943 1.468-0.393 0.495-0.712 0.914-0.712 0.925s0.719 0.022 1.596 0.022h1.596l-0.018-0.081c-0.007-0.048-0.044-0.429-0.073-0.855-0.033-0.426-0.073-0.91-0.092-1.083-0.022-0.172-0.037-0.33-0.037-0.352 0-0.026-0.136-0.048-0.356-0.062-0.198-0.015-0.488-0.055-0.642-0.092l-0.283-0.070-0.037 0.18z"></path>
</svg>
