<!-- Generated by IcoMoon.io -->
<svg version="1.1" xmlns="http://www.w3.org/2000/svg" width="20" height="20" viewBox="0 0 20 20">
<title>jpg-file-format-variant</title>
<path d="M9.173 9.097c-0.269 0-0.452 0.026-0.547 0.052v1.729c0.113 0.026 0.252 0.035 0.443 0.035 0.704 0 1.139-0.357 1.139-0.956 0-0.539-0.374-0.86-1.034-0.86z"></path>
<path d="M17.735 7.154h-0.48v-2.317c0-0.014-0.002-0.029-0.004-0.044-0.001-0.092-0.030-0.182-0.093-0.254l-3.856-4.405c-0.001-0.001-0.002-0.002-0.003-0.003-0.023-0.026-0.050-0.047-0.078-0.066-0.008-0.006-0.017-0.010-0.026-0.015-0.025-0.013-0.051-0.025-0.077-0.033-0.007-0.002-0.014-0.005-0.021-0.007-0.029-0.007-0.059-0.011-0.090-0.011h-9.477c-0.433 0-0.784 0.352-0.784 0.784v6.369h-0.48c-0.619 0-1.121 0.502-1.121 1.121v5.83c0 0.619 0.502 1.121 1.121 1.121h0.48v3.99c0 0.432 0.352 0.784 0.784 0.784h12.941c0.432 0 0.784-0.352 0.784-0.784v-3.99h0.48c0.619 0 1.121-0.502 1.121-1.121v-5.829c-0-0.619-0.502-1.121-1.121-1.121zM3.529 0.784h9.085v4.013c0 0.217 0.176 0.392 0.392 0.392h3.464v1.965h-12.941v-6.37zM11.519 9.923c0 0.573-0.191 1.060-0.538 1.39-0.452 0.426-1.121 0.617-1.903 0.617-0.174 0-0.331-0.008-0.452-0.026v2.094h-1.312v-5.778c0.409-0.070 0.982-0.122 1.79-0.122 0.817 0 1.399 0.156 1.79 0.469 0.373 0.295 0.625 0.782 0.625 1.355zM3.16 13.954l0.148-1.069c0.183 0.061 0.417 0.105 0.677 0.105 0.556 0 0.904-0.252 0.904-1.165v-3.684h1.321v3.701c0 1.668-0.8 2.25-2.085 2.25-0.304 0-0.704-0.052-0.964-0.139zM16.471 19.003h-12.941v-3.778h12.941v3.778zM17.254 13.729c-0.408 0.139-1.181 0.33-1.955 0.33-1.068 0-1.842-0.269-2.38-0.791-0.539-0.504-0.835-1.268-0.826-2.129 0.008-1.946 1.425-3.058 3.345-3.058 0.756 0 1.338 0.147 1.625 0.287l-0.278 1.060c-0.322-0.139-0.722-0.252-1.364-0.252-1.103 0-1.937 0.626-1.937 1.894 0 1.208 0.756 1.92 1.842 1.92 0.304 0 0.547-0.035 0.652-0.087v-1.225h-0.904v-1.034h2.181v3.085z"></path>
</svg>
