<!-- Generated by IcoMoon.io -->
<svg version="1.1" xmlns="http://www.w3.org/2000/svg" width="20" height="20" viewBox="0 0 20 20">
<title>like</title>
<path d="M4.24 17.984c0 1.113-0.201 2.016-0.448 2.016h-2.128c-0.247 0-0.448-0.903-0.448-2.016v-9.577c0-1.114 0.201-2.016 0.448-2.016h2.128c0.247 0 0.448 0.903 0.448 2.016v9.577z"></path>
<path d="M16.769 6.049h-2.587c0.042-0.161 0.066-0.33 0.066-0.504v-3.529c0-1.114-0.903-2.016-2.016-2.016l-2.52 5.545c0 0.174-4.537 1.407-4.537 2.52v9.577c0 1.113 0.903 2.016 2.016 2.016h9.578c1.114 0 2.016-0.903 2.016-2.016v-9.578c0-1.114-0.903-2.016-2.016-2.016z"></path>
</svg>
