<!-- Generated by IcoMoon.io -->
<svg version="1.1" xmlns="http://www.w3.org/2000/svg" width="20" height="20" viewBox="0 0 20 20">
<title>link-create-profile</title>
<path fill="#555" d="M0.608 8v7.392l5.592-0.010c3.076-0.005 5.628-0.018 5.672-0.028s0.13-0.029 0.192-0.042c0.526-0.111 1.505-0.546 1.563-0.694 0.006-0.015 0.027-0.028 0.048-0.028 0.035-0.001 0.143-0.092 0.469-0.398 1.395-1.308 1.645-3.772 0.535-5.281-0.777-1.057-1.787-1.677-2.943-1.805-0.013-0.001-0.024-0.878-0.024-1.947v-1.944l-2.608-2.608h-8.496v7.392zM7.968 2.944v1.376h2.784v2.775l-0.246 0.040c-1.307 0.211-2.505 1.149-3.080 2.411l-0.142 0.311-2.055-0.001c-2.351-0.001-2.279-0.009-2.537 0.272-0.252 0.274-0.243 0.198-0.244 1.905l-0.001 1.52 5.321 0.016 0.091 0.12c0.152 0.2 0.273 0.334 0.507 0.56l0.224 0.216h-7.054v-12.896h6.432v1.376zM10.463 3.286l0.079 0.074h-1.615v-1.58l0.728 0.716c0.4 0.394 0.764 0.749 0.807 0.79zM5.856 5.245c-1.163 0.196-1.813 1.312-1.447 2.483 0.527 1.688 3.14 1.527 3.541-0.218 0.216-0.938-0.413-2.026-1.278-2.211-0.053-0.011-0.132-0.029-0.176-0.038-0.144-0.032-0.493-0.041-0.64-0.016zM11.606 8.045c0.482 0.041 1.434 0.42 1.509 0.601 0.006 0.014 0.026 0.026 0.045 0.026 0.125 0 0.795 0.807 0.957 1.152 0.405 0.863 0.417 2.112 0.028 2.768-0.031 0.053-0.104 0.182-0.161 0.288-0.434 0.799-1.403 1.435-2.352 1.543-2.331 0.266-4.137-1.865-3.491-4.119 0.139-0.485 0.555-1.141 0.92-1.45 0.306-0.259 0.371-0.306 0.586-0.421 0.43-0.231 0.924-0.382 1.298-0.398 0.114-0.005 0.212-0.014 0.219-0.021s0.072-0.006 0.144 0.002c0.073 0.008 0.206 0.020 0.297 0.028zM11 10.072c-0.629 0.629-1.144 1.159-1.144 1.176s0.306 0.338 0.68 0.712l0.68 0.68 2.32-2.32-1.393-1.391-1.144 1.144zM9.376 12.395v0.693h1.423l-0.16-0.155c-0.088-0.085-0.408-0.397-0.712-0.693l-0.552-0.539v0.693z"></path>
</svg>
