<!-- Generated by IcoMoon.io -->
<svg version="1.1" xmlns="http://www.w3.org/2000/svg" width="20" height="20" viewBox="0 0 20 20">
<title>list-with-one-cross</title>
<path d="M15.485 3.237h-2.118v-0.406c0-0.522-0.425-0.947-0.947-0.947h-0.117c-0.217-1.073-1.167-1.884-2.303-1.884s-2.086 0.811-2.303 1.884h-0.117c-0.522 0-0.947 0.425-0.947 0.947v0.406h-2.118c-0.87 0-1.578 0.708-1.578 1.578v13.607c0 0.87 0.708 1.578 1.578 1.578h10.97c0.87 0 1.578-0.708 1.578-1.578v-13.607c0-0.87-0.708-1.578-1.578-1.578zM7.685 2.936h4.63v1.724h-4.63v-1.724zM10 1.052c0.551 0 1.022 0.346 1.21 0.831h-2.419c0.188-0.486 0.659-0.831 1.21-0.831zM16.011 18.422c0 0.29-0.236 0.526-0.526 0.526h-10.97c-0.29 0-0.526-0.236-0.526-0.526v-13.607c0-0.29 0.236-0.526 0.526-0.526h2.118v0.476c0 0.522 0.425 0.947 0.947 0.947h4.841c0.522 0 0.947-0.425 0.947-0.947v-0.476h2.118c0.29 0 0.526 0.236 0.526 0.526v13.607z"></path>
<path d="M10.795 7.571h-4.349c-0.291 0-0.526 0.235-0.526 0.526s0.235 0.526 0.526 0.526h4.349c0.291 0 0.526-0.236 0.526-0.526s-0.236-0.526-0.526-0.526z"></path>
<path d="M10.795 10.276h-4.349c-0.291 0-0.526 0.235-0.526 0.526s0.235 0.526 0.526 0.526h4.349c0.291 0 0.526-0.235 0.526-0.526s-0.236-0.526-0.526-0.526z"></path>
<path d="M10.795 12.981h-4.349c-0.291 0-0.526 0.235-0.526 0.526s0.235 0.526 0.526 0.526h4.349c0.291 0 0.526-0.235 0.526-0.526s-0.236-0.526-0.526-0.526z"></path>
<path d="M10.795 15.685h-4.349c-0.291 0-0.526 0.235-0.526 0.526s0.235 0.526 0.526 0.526h4.349c0.291 0 0.526-0.235 0.526-0.526s-0.236-0.526-0.526-0.526z"></path>
<path d="M12.773 8.434c0.142 0.129 0.321 0.198 0.51 0.198 0.016 0 0.032-0.001 0.048-0.001 0.206-0.013 0.394-0.106 0.53-0.264l0.731-0.85c0.126-0.147 0.11-0.368-0.037-0.495s-0.368-0.11-0.495 0.037l-0.731 0.85c-0.014 0.016-0.030 0.020-0.041 0.021s-0.028-0.001-0.043-0.016l-0.46-0.418c-0.143-0.13-0.365-0.12-0.495 0.024s-0.12 0.365 0.024 0.495l0.46 0.419z"></path>
<path d="M14.060 9.867l-0.731 0.85c-0.014 0.016-0.030 0.020-0.041 0.021s-0.027-0.001-0.043-0.016l-0.46-0.418c-0.143-0.13-0.365-0.12-0.496 0.024s-0.12 0.365 0.024 0.496l0.46 0.418c0.142 0.129 0.321 0.198 0.51 0.198 0.016 0 0.032-0 0.048-0.001 0.206-0.013 0.395-0.106 0.53-0.264l0.731-0.85c0.126-0.147 0.11-0.368-0.037-0.495s-0.368-0.11-0.495 0.037z"></path>
<path d="M14.060 15.203l-0.731 0.85c-0.014 0.016-0.030 0.020-0.041 0.021s-0.028-0.001-0.043-0.016l-0.46-0.418c-0.143-0.13-0.365-0.12-0.496 0.024s-0.12 0.365 0.024 0.495l0.46 0.418c0.142 0.129 0.321 0.198 0.51 0.198 0.016 0 0.032-0 0.048-0.001 0.206-0.013 0.394-0.106 0.53-0.264l0.731-0.85c0.126-0.147 0.11-0.368-0.037-0.495s-0.368-0.11-0.495 0.037z"></path>
<path d="M12.594 14.262c0.068 0.069 0.158 0.103 0.248 0.103s0.18-0.034 0.248-0.103l0.347-0.347 0.347 0.347c0.068 0.069 0.158 0.103 0.248 0.103s0.18-0.034 0.248-0.103c0.137-0.137 0.137-0.359 0-0.496l-0.347-0.347 0.347-0.347c0.137-0.137 0.137-0.359 0-0.496s-0.359-0.137-0.496 0l-0.347 0.347-0.347-0.347c-0.137-0.137-0.359-0.137-0.496 0s-0.137 0.359 0 0.496l0.347 0.347-0.347 0.347c-0.137 0.137-0.137 0.359 0 0.496z"></path>
</svg>
