<!-- Generated by IcoMoon.io -->
<svg version="1.1" xmlns="http://www.w3.org/2000/svg" width="20" height="20" viewBox="0 0 20 20">
<title>logout</title>
<path d="M14.885 5.115c-0.355-0.355-0.931-0.355-1.286-0s-0.355 0.931 0 1.286l2.691 2.691h-11.139c-0.502 0-0.909 0.407-0.909 0.909s0.407 0.909 0.909 0.909h11.138l-2.69 2.69c-0.355 0.355-0.355 0.931 0 1.286 0.178 0.178 0.41 0.266 0.643 0.266s0.465-0.089 0.643-0.266l4.242-4.242c0.355-0.355 0.355-0.931 0-1.286l-4.242-4.243z"></path>
<path d="M9.394 20c0.502 0 0.909-0.407 0.909-0.909s-0.407-0.909-0.909-0.909h-6.97v-16.364h6.97c0.502 0 0.909-0.407 0.909-0.909s-0.407-0.909-0.909-0.909h-7.879c-0.502 0-0.909 0.407-0.909 0.909v18.182c0 0.502 0.407 0.909 0.909 0.909h7.879z"></path>
</svg>
