<!-- Generated by IcoMoon.io -->
<svg version="1.1" xmlns="http://www.w3.org/2000/svg" width="20" height="20" viewBox="0 0 20 20">
<title>magnifying-glass</title>
<path d="M19.825 18.98l-4.86-4.86c1.304-1.499 2.093-3.455 2.093-5.592 0-4.705-3.827-8.528-8.528-8.528-4.705 0-8.528 3.827-8.528 8.528s3.827 8.528 8.528 8.528c2.137 0 4.093-0.789 5.592-2.093l4.86 4.86c0.115 0.115 0.271 0.177 0.421 0.177s0.306-0.058 0.421-0.177c0.231-0.231 0.231-0.612 0-0.843zM1.195 8.528c0-4.044 3.29-7.33 7.33-7.33 4.044 0 7.33 3.29 7.33 7.33s-3.286 7.335-7.33 7.335c-4.040 0-7.33-3.29-7.33-7.335z"></path>
</svg>
