<!-- Generated by IcoMoon.io -->
<svg version="1.1" xmlns="http://www.w3.org/2000/svg" width="28" height="20" viewBox="0 0 28 20">
<title>mcsis</title>
<path d="M13.015 0.037c-1.066 0.109-2.303 0.525-3.203 1.077-0.48 0.296-1.039 0.739-1.448 1.152-0.988 0.988-1.67 2.181-2.010 3.506-0.181 0.702-0.235 1.162-0.235 1.963 0 0.985 0.106 1.639 0.412 2.535 0.266 0.78 0.624 1.451 1.138 2.133 1.683 2.238 4.46 3.376 7.254 2.978 1.278-0.181 2.562-0.722 3.574-1.503l0.286-0.221 0.62 0.62-0.307 0.307 2.606 2.61c2.102 2.102 2.641 2.624 2.784 2.692 0.351 0.174 0.818 0.136 1.124-0.085 0.296-0.215 0.484-0.647 0.436-1.009-0.051-0.412 0.017-0.337-2.794-3.152l-2.603-2.606-0.157 0.153-0.153 0.153-0.62-0.62 0.245-0.32c0.773-1.009 1.281-2.228 1.486-3.574 0.085-0.542 0.085-1.642 0.003-2.181-0.399-2.596-1.963-4.743-4.262-5.86-0.729-0.354-1.332-0.545-2.15-0.685-0.48-0.078-1.53-0.112-2.027-0.061zM14.474 1.366c2.027 0.218 3.823 1.38 4.859 3.138 1.196 2.037 1.158 4.624-0.099 6.62-1.227 1.949-3.329 3.077-5.605 3.005-0.869-0.027-1.615-0.191-2.365-0.521-1.922-0.842-3.274-2.528-3.724-4.63-0.085-0.412-0.092-0.497-0.092-1.244 0-0.743 0.007-0.831 0.092-1.237 0.187-0.886 0.494-1.615 0.974-2.327 1.325-1.973 3.635-3.060 5.959-2.804z"></path>
<path d="M12.981 3.118c-1.131 0.238-1.969 1.111-2.147 2.232-0.027 0.181-0.034 0.784-0.027 2.014l0.010 1.755 0.129 0.259c0.085 0.177 0.184 0.31 0.296 0.412l0.17 0.153v2.549l0.348 0.147c0.709 0.3 1.465 0.436 2.273 0.402 0.729-0.031 1.356-0.177 1.99-0.463l0.228-0.102v-2.528l0.187-0.184c0.211-0.204 0.341-0.45 0.395-0.746 0.024-0.129 0.031-0.804 0.020-1.939-0.014-1.928-0.010-1.918-0.245-2.433-0.337-0.736-0.978-1.274-1.772-1.496-0.283-0.078-1.537-0.099-1.857-0.031z"></path>
<path d="M5.387 3.104c-0.409 0.068-0.845 0.307-1.175 0.641-0.269 0.273-0.436 0.545-0.559 0.906l-0.089 0.273-0.014 1.526c-0.010 1.332-0.003 1.55 0.044 1.714 0.068 0.235 0.174 0.409 0.337 0.552l0.123 0.106v2.457l-0.303 0.153c-0.797 0.399-1.942 1.118-2.746 1.721-0.617 0.463-0.739 0.579-0.872 0.825l-0.116 0.215-0.010 1.049-0.010 1.046 5.533-0.017 0.058-0.204c0.116-0.399 0.303-0.736 0.576-1.019 0.17-0.177 0.852-0.739 1.169-0.957 0.109-0.075 0.198-0.153 0.198-0.17 0-0.020-0.061-0.099-0.14-0.17-0.075-0.075-0.259-0.286-0.405-0.467-1.005-1.244-1.632-2.675-1.877-4.29-0.099-0.647-0.106-1.785-0.017-2.399 0.126-0.879 0.365-1.717 0.702-2.467 0.157-0.358 0.232-0.497 0.47-0.917l0.082-0.143-0.388 0.003c-0.211 0.003-0.467 0.017-0.569 0.034z"></path>
<path d="M21.4 3.244c0.252 0.433 0.593 1.186 0.763 1.704 0.29 0.889 0.416 1.567 0.45 2.48 0.055 1.516-0.29 3.029-1.002 4.392l-0.221 0.422 0.968 0.974c0.532 0.535 1.431 1.445 2.003 2.020l1.039 1.049h2.269l-0.010-1.049-0.010-1.046-0.116-0.215c-0.136-0.249-0.256-0.361-0.872-0.825-0.797-0.596-1.734-1.189-2.627-1.659l-0.422-0.221v-2.45l0.123-0.106c0.164-0.143 0.269-0.317 0.337-0.552 0.048-0.164 0.055-0.382 0.044-1.714l-0.014-1.526-0.092-0.273c-0.269-0.811-0.964-1.417-1.762-1.547-0.123-0.020-0.385-0.037-0.589-0.037h-0.365l0.106 0.177z"></path>
<path d="M8.157 14.79c-0.419 0.296-1.022 0.77-1.192 0.94-0.184 0.181-0.327 0.443-0.385 0.695-0.020 0.085-0.037 0.644-0.037 1.281v1.135h14.583v-0.698l-1.019-1.039c-0.559-0.572-1.196-1.206-1.417-1.411-0.371-0.351-0.402-0.371-0.47-0.327-0.041 0.024-0.266 0.14-0.501 0.259-2.538 1.261-5.458 1.233-7.966-0.072-0.385-0.201-1.029-0.61-1.288-0.818l-0.106-0.085-0.201 0.14z"></path>
</svg>
