<!-- Generated by IcoMoon.io -->
<svg version="1.1" xmlns="http://www.w3.org/2000/svg" width="20" height="20" viewBox="0 0 20 20">
<title>medic-suitcase</title>
<path d="M19.248 5.915c-0.501-0.474-1.091-0.711-1.768-0.711h-2.073v-2.154c0-0.786-0.271-1.457-0.813-2.012s-1.192-0.833-1.951-0.833h-5.285c-0.759 0-1.409 0.278-1.951 0.833s-0.813 1.226-0.813 2.012v2.154h-2.073c-0.678 0-1.267 0.237-1.768 0.711s-0.752 1.064-0.752 1.768v9.593c0 0.678 0.251 1.267 0.752 1.768s1.091 0.752 1.768 0.752h14.959c0.678 0 1.267-0.251 1.768-0.752s0.752-1.104 0.752-1.809v-9.553c0-0.705-0.251-1.294-0.752-1.768zM6.26 3.049c0-0.298 0.115-0.569 0.346-0.813s0.481-0.366 0.752-0.366h5.285c0.271 0 0.522 0.122 0.752 0.366s0.346 0.515 0.346 0.813v2.154h-7.48v-2.154zM14.593 14.35h-2.927v2.927h-3.333v-2.927h-2.927v-3.333h2.927v-2.886h3.333v2.886h2.927v3.333z"></path>
</svg>
