<!-- Generated by IcoMoon.io -->
<svg version="1.1" xmlns="http://www.w3.org/2000/svg" width="20" height="20" viewBox="0 0 20 20">
<title>minimize-arrows</title>
<path d="M15.47 13.659h2.281c0.619-0.002 1.121-0.473 1.121-1.052 0-0.581-0.501-1.052-1.121-1.052h-4.77c-0.62 0-1.121 0.471-1.122 1.052 0.001 0.013 0.005 0.029 0.005 0.043 0 0.019-0.005 0.040-0.005 0.061v4.706c0 0.609 0.47 1.104 1.051 1.104 0.58-0.001 1.052-0.495 1.052-1.104v-2.293l4.244 4.246c0.41 0.411 1.075 0.411 1.487 0 0.409-0.41 0.409-1.076 0-1.487l-4.223-4.223z"></path>
<path d="M8.141 12.607c-0.001-0.581-0.502-1.052-1.123-1.052h-4.769c-0.618 0-1.123 0.471-1.123 1.052 0 0.58 0.505 1.050 1.123 1.052h2.281l-4.225 4.222c-0.407 0.41-0.407 1.076 0 1.487 0.412 0.411 1.077 0.411 1.487 0l4.245-4.246v2.293c0 0.609 0.473 1.103 1.052 1.104 0.583 0 1.052-0.495 1.052-1.104v-4.706c0-0.020-0.006-0.042-0.006-0.061 0.001-0.013 0.005-0.028 0.006-0.042z"></path>
<path d="M11.859 7.39c0.001 0.581 0.502 1.052 1.122 1.052h4.77c0.619 0 1.121-0.47 1.121-1.052 0-0.58-0.501-1.049-1.121-1.050h-2.281l4.224-4.222c0.409-0.412 0.409-1.078 0-1.487-0.411-0.41-1.076-0.41-1.487 0l-4.244 4.246v-2.293c0-0.611-0.473-1.106-1.052-1.106-0.581 0-1.051 0.494-1.051 1.106v4.705c0 0.021 0.005 0.040 0.005 0.061-0.001 0.014-0.005 0.025-0.006 0.042z"></path>
<path d="M7.089 1.477c-0.579 0-1.052 0.494-1.052 1.106v2.293l-4.245-4.246c-0.41-0.41-1.075-0.41-1.487 0-0.407 0.41-0.407 1.075 0 1.487l4.225 4.222h-2.282c-0.618 0.002-1.123 0.471-1.123 1.051 0 0.581 0.505 1.052 1.123 1.052h4.768c0.621 0 1.121-0.47 1.123-1.052-0.001-0.016-0.006-0.028-0.006-0.042 0-0.021 0.006-0.040 0.006-0.061v-4.704c0-0.611-0.469-1.106-1.052-1.106z"></path>
</svg>
