<!-- Generated by IcoMoon.io -->
<svg version="1.1" xmlns="http://www.w3.org/2000/svg" width="26" height="20" viewBox="0 0 26 20">
<title>misc</title>
<path d="M6.585 0.063c-0.213 0.107-0.261 0.228-0.261 0.699v0.415h-0.412c-0.853 0.004-1.401 0.235-1.754 0.75-0.136 0.195-3.963 7.699-4.063 7.963-0.077 0.202-0.077 0.232-0.077 4.449 0 4.055 0.004 4.254 0.070 4.449 0.187 0.555 0.61 0.971 1.151 1.14 0.239 0.074 0.327 0.074 11.721 0.074 11.349 0 11.485 0 11.717-0.074 0.607-0.188 1.081-0.699 1.206-1.298 0.026-0.132 0.037-1.474 0.029-4.382-0.011-3.923-0.015-4.202-0.077-4.357-0.037-0.092-0.952-1.908-2.040-4.040-2.114-4.151-2.088-4.11-2.5-4.375-0.324-0.206-0.559-0.265-1.132-0.287l-0.522-0.022-0.015-0.393c-0.018-0.452-0.081-0.603-0.287-0.706-0.121-0.063-0.5-0.066-6.379-0.066-5.754 0-6.261 0.007-6.375 0.063zM18.566 2.096v1.066h-11.213v-2.132h11.213v1.066zM6.324 2.739v0.423h-0.368c-0.408 0-0.551 0.040-0.699 0.202l-0.092 0.099-0.022 2.853-0.375 0.015c-0.456 0.018-0.588 0.077-0.691 0.298-0.063 0.14-0.070 0.25-0.070 1.118v0.967h-1.011c-0.555 0-1.011-0.007-1.011-0.015s0.684-1.36 1.522-3.004c0.864-1.699 1.577-3.051 1.647-3.132 0.165-0.187 0.338-0.243 0.794-0.246h0.375v0.423zM20.599 2.404c0.074 0.037 0.169 0.11 0.206 0.165 0.070 0.099 3.129 6.085 3.129 6.121 0 0.011-0.456 0.022-1.011 0.022h-1.011v-0.974c0-1.085-0.011-1.158-0.224-1.309-0.11-0.077-0.173-0.088-0.518-0.103l-0.397-0.011v-1.397c0-1.574 0.004-1.548-0.276-1.684-0.121-0.059-0.228-0.074-0.507-0.074h-0.357v-0.853l0.415 0.015c0.309 0.007 0.445 0.029 0.551 0.081zM19.743 5.257v1.066h-13.566v-2.132h13.566v1.066zM20.882 8.033v0.68h-1.445c-1.669 0-1.669 0-1.996 0.309-0.188 0.173-0.232 0.254-0.603 1.070l-0.404 0.882-6.937 0.018-0.379-0.835c-0.423-0.93-0.515-1.088-0.732-1.239-0.287-0.199-0.313-0.202-1.868-0.206h-1.445v-1.36h15.809v0.68zM8.092 10.706c0.43 0.956 0.574 1.162 0.923 1.32l0.195 0.088h7.5l0.21-0.099c0.364-0.169 0.456-0.301 0.897-1.279l0.401-0.882h3.048c3.004 0 3.048 0 3.18 0.077 0.074 0.040 0.176 0.132 0.224 0.206l0.092 0.136 0.011 3.989c0.007 2.772 0 4.033-0.029 4.129-0.051 0.176-0.202 0.357-0.357 0.419-0.099 0.044-1.96 0.051-11.423 0.051-7.919 0-11.335-0.011-11.408-0.040-0.129-0.048-0.257-0.165-0.335-0.309-0.059-0.099-0.063-0.467-0.074-4.074-0.007-2.625 0.004-4.011 0.029-4.103 0.044-0.169 0.158-0.32 0.309-0.412 0.11-0.066 0.243-0.070 3.169-0.070h3.051l0.386 0.853z"></path>
<path d="M9.904 13.864c-0.173 0.040-0.426 0.243-0.522 0.415-0.055 0.099-0.063 0.243-0.063 1.217 0 1.206 0 1.202 0.224 1.43 0.243 0.239 0.015 0.224 3.419 0.224h3.092l0.176-0.11c0.132-0.081 0.21-0.165 0.283-0.309l0.103-0.195v-1.037c0-1.037 0-1.037-0.092-1.224-0.11-0.217-0.29-0.357-0.533-0.412-0.21-0.048-5.875-0.048-6.088 0zM15.588 15.496v0.643h-5.221v-1.287h5.221v0.643z"></path>
</svg>
