<!-- Generated by IcoMoon.io -->
<svg version="1.1" xmlns="http://www.w3.org/2000/svg" width="36" height="20" viewBox="0 0 36 20">
<title>moca</title>
<path d="M10.026 0.048c-0.863 0.144-1.634 0.688-2.022 1.42-0.214 0.405-0.292 0.736-0.292 1.216 0 0.963 0.497 1.974 1.268 2.588l0.205 0.161-0.37 0.118c-1.39 0.453-2.667 1.508-3.172 2.61-0.139 0.296-0.253 0.837-0.222 1.015 0.087 0.449 0.98 0.789 2.662 1.002 1.024 0.131 4.34 0.126 4.885-0.009 0.083-0.022 0.096-0.061 0.118-0.466 0.052-0.937 0.401-1.752 1.089-2.562l0.244-0.288-0.139-0.135c-0.444-0.423-1.355-0.941-2.057-1.168l-0.362-0.118 0.205-0.161c0.471-0.37 0.863-0.932 1.102-1.573 0.118-0.318 0.139-0.436 0.157-0.911 0.017-0.501 0.009-0.571-0.096-0.889-0.144-0.427-0.279-0.662-0.562-0.967-0.645-0.706-1.66-1.046-2.641-0.885zM11.068 5.839c0 0.009-0.078 0.1-0.174 0.196l-0.174 0.179 0.588 1.333c0.322 0.732 0.588 1.351 0.588 1.373 0 0.035-0.841 0.845-1.22 1.181l-0.157 0.135-0.671-0.632c-0.37-0.344-0.68-0.645-0.688-0.667-0.004-0.017 0.253-0.641 0.58-1.377l0.588-1.342-0.174-0.187c-0.096-0.105-0.174-0.196-0.174-0.2 0-0.009 0.244-0.013 0.545-0.013s0.545 0.009 0.545 0.022z"></path>
<path d="M24.532 0.065c-0.797 0.157-1.529 0.671-1.908 1.342-0.497 0.871-0.405 2.1 0.231 3.054 0.209 0.314 0.475 0.614 0.723 0.81l0.205 0.161-0.379 0.122c-0.671 0.218-1.481 0.671-1.978 1.111l-0.205 0.183 0.231 0.266c0.719 0.828 1.102 1.747 1.129 2.71 0.004 0.288 0.017 0.322 0.096 0.344 0.566 0.135 3.847 0.139 4.885 0.009 1.678-0.214 2.575-0.553 2.662-1.002 0.031-0.179-0.083-0.719-0.222-1.015-0.275-0.606-0.832-1.255-1.49-1.743-0.431-0.322-1.168-0.702-1.673-0.863l-0.375-0.122 0.266-0.222c0.736-0.623 1.203-1.603 1.203-2.527 0-0.479-0.078-0.81-0.292-1.216-0.566-1.072-1.852-1.656-3.107-1.403zM25.664 5.83c0 0.004-0.078 0.096-0.174 0.2l-0.174 0.187 0.588 1.333c0.322 0.736 0.588 1.351 0.588 1.373 0 0.035-1.338 1.294-1.373 1.294-0.039 0-1.373-1.259-1.373-1.294 0-0.022 0.266-0.641 0.588-1.373l0.588-1.342-0.174-0.174c-0.096-0.096-0.174-0.187-0.174-0.196 0-0.013 0.244-0.022 0.545-0.022s0.545 0.004 0.545 0.013z"></path>
<path d="M16.832 6.645c-1.264 0.327-2.283 1.303-2.614 2.505-0.118 0.44-0.109 1.346 0.022 1.83 0.126 0.466 0.414 1.081 0.702 1.495 0.214 0.309 0.758 0.871 1.024 1.059l0.126 0.092-0.497 0.161c-2.401 0.776-4.423 2.845-4.458 4.562-0.004 0.266 0.009 0.309 0.131 0.458 0.418 0.519 1.826 0.906 4.048 1.115 0.824 0.078 4.183 0.078 5.011 0 2.466-0.231 3.965-0.697 4.161-1.298 0.070-0.2 0.022-0.606-0.118-1.020-0.532-1.612-2.279-3.155-4.322-3.817l-0.497-0.161 0.126-0.092c0.266-0.187 0.81-0.749 1.024-1.059 1.316-1.904 1.011-4.157-0.715-5.303-0.697-0.462-1.303-0.636-2.187-0.632-0.449 0-0.649 0.022-0.967 0.105z"></path>
<path d="M1.743 11.346l-1.721 1.059-0.013 0.832-0.009 0.837h12.858l0.314-0.209c0.174-0.118 0.471-0.296 0.662-0.401s0.357-0.196 0.366-0.2c0.009-0.009-0.074-0.148-0.183-0.309s-0.222-0.349-0.253-0.414l-0.052-0.122-12.566-0.022 1.063-0.915c0.58-0.505 1.133-0.98 1.22-1.054 0.092-0.078 0.135-0.139 0.1-0.139-0.035 0.004-0.841 0.479-1.786 1.059z"></path>
<path d="M32.113 10.344c0.035 0.031 0.593 0.51 1.233 1.068l1.168 1.007h-12.584l-0.052 0.118c-0.031 0.070-0.144 0.257-0.253 0.418s-0.192 0.301-0.183 0.309c0.009 0.004 0.174 0.096 0.366 0.2s0.488 0.283 0.662 0.401l0.314 0.209h12.858l-0.009-0.837-0.013-0.832-1.739-1.063c-1.573-0.959-1.956-1.176-1.769-0.998z"></path>
</svg>
