<!-- Generated by IcoMoon.io -->
<svg version="1.1" xmlns="http://www.w3.org/2000/svg" width="23" height="20" viewBox="0 0 23 20">
<title>moca1</title>
<path d="M6.488 3.802c-0.537 0.090-1.018 0.429-1.259 0.885-0.133 0.252-0.182 0.459-0.182 0.757 0 0.6 0.309 1.229 0.79 1.612l0.128 0.1-0.231 0.073c-0.866 0.282-1.661 0.939-1.976 1.626-0.087 0.185-0.157 0.521-0.138 0.632 0.054 0.28 0.611 0.491 1.658 0.624 0.638 0.081 2.703 0.079 3.042-0.005 0.052-0.014 0.060-0.038 0.073-0.29 0.033-0.583 0.25-1.091 0.678-1.596l0.152-0.179-0.087-0.084c-0.277-0.263-0.844-0.586-1.281-0.727l-0.225-0.073 0.128-0.1c0.293-0.231 0.537-0.581 0.687-0.98 0.073-0.198 0.087-0.271 0.098-0.567 0.011-0.312 0.005-0.355-0.060-0.554-0.090-0.266-0.174-0.412-0.35-0.602-0.402-0.44-1.034-0.651-1.645-0.551zM7.137 7.408c0 0.005-0.049 0.062-0.109 0.122l-0.109 0.111 0.366 0.83c0.201 0.456 0.366 0.841 0.366 0.855 0 0.022-0.524 0.526-0.76 0.735l-0.098 0.084-0.418-0.393c-0.231-0.214-0.423-0.402-0.429-0.415-0.003-0.011 0.157-0.399 0.361-0.858l0.366-0.836-0.109-0.117c-0.060-0.065-0.109-0.122-0.109-0.125 0-0.005 0.152-0.008 0.339-0.008s0.339 0.005 0.339 0.014z"></path>
<path d="M15.522 3.813c-0.497 0.098-0.953 0.418-1.189 0.836-0.309 0.543-0.252 1.308 0.144 1.902 0.13 0.195 0.296 0.383 0.45 0.505l0.128 0.1-0.236 0.076c-0.418 0.136-0.923 0.418-1.232 0.692l-0.128 0.114 0.144 0.166c0.448 0.516 0.687 1.088 0.703 1.688 0.003 0.179 0.011 0.201 0.060 0.214 0.353 0.084 2.396 0.087 3.042 0.005 1.045-0.133 1.604-0.345 1.658-0.624 0.019-0.111-0.052-0.448-0.138-0.632-0.171-0.377-0.518-0.782-0.928-1.085-0.269-0.201-0.727-0.437-1.042-0.537l-0.233-0.076 0.166-0.138c0.459-0.388 0.749-0.999 0.749-1.574 0-0.299-0.049-0.505-0.182-0.757-0.353-0.668-1.153-1.031-1.935-0.874zM16.228 7.403c0 0.003-0.049 0.060-0.109 0.125l-0.109 0.117 0.366 0.83c0.201 0.459 0.366 0.841 0.366 0.855 0 0.022-0.833 0.806-0.855 0.806-0.024 0-0.855-0.784-0.855-0.806 0-0.014 0.166-0.399 0.366-0.855l0.366-0.836-0.109-0.109c-0.060-0.060-0.109-0.117-0.109-0.122 0-0.008 0.152-0.014 0.339-0.014s0.339 0.003 0.339 0.008z"></path>
<path d="M10.727 7.91c-0.787 0.204-1.422 0.811-1.628 1.56-0.073 0.274-0.068 0.839 0.014 1.14 0.079 0.29 0.258 0.673 0.437 0.931 0.133 0.193 0.472 0.543 0.638 0.659l0.079 0.057-0.309 0.1c-1.495 0.483-2.754 1.772-2.776 2.841-0.003 0.166 0.005 0.193 0.081 0.285 0.261 0.323 1.137 0.564 2.521 0.695 0.513 0.049 2.605 0.049 3.121 0 1.536-0.144 2.469-0.434 2.592-0.809 0.043-0.125 0.014-0.377-0.073-0.635-0.331-1.004-1.419-1.965-2.692-2.377l-0.309-0.1 0.079-0.057c0.166-0.117 0.505-0.467 0.638-0.659 0.82-1.186 0.63-2.589-0.445-3.303-0.434-0.288-0.811-0.396-1.362-0.393-0.28 0-0.404 0.014-0.602 0.065z"></path>
<path d="M1.33 10.839l-1.072 0.659-0.008 0.518-0.005 0.521h8.008l0.195-0.13c0.109-0.073 0.293-0.185 0.412-0.25s0.223-0.122 0.228-0.125c0.005-0.005-0.046-0.092-0.114-0.193s-0.138-0.217-0.157-0.258l-0.033-0.076-7.826-0.014 0.662-0.57c0.361-0.315 0.706-0.611 0.76-0.657 0.057-0.049 0.084-0.087 0.062-0.087-0.022 0.003-0.524 0.299-1.113 0.659z"></path>
<path d="M20.244 10.214c0.022 0.019 0.369 0.317 0.768 0.665l0.727 0.627h-7.837l-0.033 0.073c-0.019 0.043-0.090 0.16-0.157 0.261s-0.119 0.187-0.114 0.193c0.005 0.003 0.109 0.060 0.228 0.125s0.304 0.176 0.412 0.25l0.195 0.13h8.008l-0.005-0.521-0.008-0.518-1.083-0.662c-0.98-0.597-1.218-0.733-1.102-0.621z"></path>
</svg>
