<!-- Generated by IcoMoon.io -->
<svg version="1.1" xmlns="http://www.w3.org/2000/svg" width="20" height="20" viewBox="0 0 20 20">
<title>money-1</title>
<path d="M11.478 12.53c0.035-0.147 0.059-0.303 0.066-0.471 0.139-3.033-1.519-5.516-4.002-7.112-1.477-0.95-2.879 0.086-3.235 1.406-0.916-0.729-2.501 0.362-1.788 1.56 0.026 0.044 0.053 0.087 0.080 0.131-0.716-0.003-2.998-0.010-2.359 0.001 0.755 0.013 2.567 2.045 2.567 2.045v-1.715c0.557 0.851 1.268 1.647 2.327 1.768 0.483 0.055 0.882-0.094 1.21-0.356 0.414 0.507 0.625 1.075 0.666 1.758-0.362-0.005-0.726 0.009-1.093 0.052-1.266 0.149-2.047 0.428-2.303 1.752-0.385 1.997 0.654 3.456 1.774 4.983 0.912 1.242 3.010 0.038 2.086-1.221-0.755-1.029-1.515-1.874-1.484-3.070 0.738-0.112 1.472-0.082 2.221-0.010 0.367 0.158 0.78 0.222 1.19 0.19 0.611 2.042 1.771 3.861 3.273 5.413 1.086 1.122 2.793-0.591 1.708-1.707-1.489-1.54-2.487-3.323-2.905-5.396z"></path>
<path d="M2.334 2.727c0.003 0.034 0.004 0.069 0.009 0.103 0.154 1.118 1.184 1.9 2.302 1.746s1.898-1.184 1.746-2.302c-0.032-0.233-0.103-0.449-0.204-0.646 0.069-0.033 0.1-0.112 0.077-0.277l-0.067-0.488c-0.075-0.546-0.579-0.928-1.123-0.852l-2.175 0.298c-0.547 0.075-0.928 0.579-0.853 1.125l0.053 0.395c-0.305 0.243-0.562 0.55-0.507 0.876 0.049 0.289 0.369 0.217 0.742 0.023z"></path>
<path d="M7.851 4.595c0 0 4.897 2.626 4.319 6.495-1.268 3.226 4.269 6.549 7.28-0.892-0 0 3.834-10.198-11.599-5.604zM16.142 10.667v0.622h-0.662v-0.585c-0.307-0.029-0.611-0.13-0.809-0.27l-0.093-0.067 0.24-0.671 0.161 0.107c0.209 0.14 0.479 0.22 0.737 0.22 0.317 0 0.528-0.164 0.528-0.408 0-0.165-0.066-0.343-0.55-0.539-0.512-0.2-1.036-0.492-1.036-1.127 0-0.511 0.336-0.909 0.862-1.042v-0.605h0.656v0.563c0.251 0.025 0.47 0.095 0.667 0.211l0.11 0.065-0.25 0.661-0.154-0.088c-0.091-0.052-0.304-0.174-0.643-0.174-0.334 0-0.453 0.176-0.453 0.34 0 0.178 0.088 0.293 0.614 0.511 0.455 0.185 0.978 0.488 0.978 1.183-0.001 0.527-0.359 0.953-0.903 1.092z"></path>
</svg>
