<!-- Generated by IcoMoon.io -->
<svg version="1.1" xmlns="http://www.w3.org/2000/svg" width="20" height="20" viewBox="0 0 20 20">
<title>money-3</title>
<path d="M18.841 3.289l-11.163 0.006c-0.64-0.001-1.161 0.52-1.16 1.161v0.532c-0.237-0.102-0.531-0.174-0.907-0.174-0.469 0-0.858 0.105-0.901 0.119-0.091 0.025-0.173 0.070-0.244 0.132l-4.255 3.728c-0.139 0.123-0.217 0.302-0.213 0.487l0.037 6.136c0.008 0.327 0.384 0.594 0.712 0.608 0.017 0 1.603 0.066 3.005 0.066 0.855 0 1.458-0.022 1.843-0.071 1.122-0.141 1.612-0.472 1.815-0.683 0.211-0.154 0.398-0.306 0.595-0.458-0.163 0.599 0.11 1.251 0.683 1.541 0.186 0.095 0.394 0.145 0.601 0.145 0.368 0 0.705-0.153 0.952-0.406 0.121 0.164 0.275 0.308 0.469 0.408 0.187 0.092 0.394 0.142 0.602 0.142 0.504 0 0.959-0.281 1.187-0.731l0.882-1.737c0.161-0.318 0.195-0.68 0.083-1.017-0.036-0.11-0.093-0.212-0.156-0.307l5.523 0.003c0.64 0 1.162-0.521 1.163-1.16l0.004-7.299c0.001-0.642-0.519-1.174-1.159-1.174zM10.618 13.717l-0.88 1.739c-0.119 0.24-0.429 0.343-0.67 0.221-0.246-0.125-0.344-0.427-0.22-0.672l0.724-1.426c0 0 0.237-0.579 0.616-0.585 0.074 0.002 0.145 0.018 0.213 0.053 0.118 0.061 0.207 0.161 0.248 0.289 0.042 0.128 0.034 0.261-0.030 0.381zM9.23 12.187l-0.796 0.729h0.007c-0.499 0.432-1.092 0.912-1.823 1.452-0.055 0.040-0.059 0.036-0.098 0.091-0.002 0.002-0.244 0.217-1.076 0.32-0.228 0.028-0.704 0.024-1.69 0.024-0.857 0-1.924 0.013-2.507-0.007l0.009-5.256 3.915-3.431c0.105-0.020 0.266-0.043 0.44-0.043 0.255 0 0.431 0.045 0.526 0.139v4.339c0 0.22 0.116 0.423 0.306 0.537 0.022 0.013 0.047 0.011 0.071 0.021v0.046l0.058-0.030c0.161 0.054 0.335 0.061 0.489-0.024 0.973-0.527 2.817-1.365 3.62-1.365 0.036 0 0.066 0 0.088 0.004 0.003 0.007 0.006 0.012 0.011 0.018 0.017 0.083 0.097 0.806-1.55 2.436zM12.639 13.863l-0.88 1.739c-0.12 0.24-0.431 0.342-0.672 0.22-0.245-0.123-0.342-0.426-0.218-0.67l0.881-1.739c0.085-0.169 0.255-0.275 0.445-0.275 0.079 0 0.155 0.020 0.227 0.056 0.12 0.061 0.208 0.163 0.248 0.288 0.042 0.129 0.033 0.262-0.031 0.382zM19.224 11.759c-0.001 0.216-0.174 0.387-0.387 0.387l-7.881-0.002c0.644-0.795 1.014-1.507 1.075-2.125 0.045-0.489-0.099-0.801-0.206-0.956-0.132-0.249-0.442-0.587-1.144-0.587-0.918 0-2.35 0.601-3.293 1.050v-1.732l11.836-0.003-0.001 3.969zM19.225 5.497l-11.933-0.005v-1.037c0-0.214 0.173-0.387 0.386-0.387l11.164-0.008c0.211 0 0.387 0.188 0.387 0.401l-0.003 1.037z"></path>
<path d="M18.346 11.429l-0.008-1.049-3.056-0.002 0.009 1.051z"></path>
</svg>
