<!-- Generated by IcoMoon.io -->
<svg version="1.1" xmlns="http://www.w3.org/2000/svg" width="20" height="20" viewBox="0 0 20 20">
<title>money-bag-with-dollar-symbol</title>
<path d="M11.36 13.286c-0.075-0.082-0.169-0.143-0.267-0.194-0.213-0.111-0.445-0.178-0.676-0.239v1.789c0.375-0.042 0.805-0.178 1.002-0.528v0c0.094-0.167 0.113-0.372 0.074-0.558-0.021-0.101-0.064-0.193-0.133-0.27z"></path>
<path d="M11.417 14.117c0.001-0.001 0.001-0.002 0.002-0.003v0c-0.001 0.001-0.001 0.002-0.002 0.003z"></path>
<path d="M8.66 10.426c-0.064 0.094-0.105 0.201-0.116 0.315s-0.005 0.24 0.038 0.348c0.041 0.102 0.127 0.178 0.216 0.238 0.1 0.068 0.21 0.121 0.322 0.166 0.094 0.038 0.199 0.074 0.313 0.109v-1.619c-0.288 0.061-0.602 0.192-0.774 0.444z"></path>
<path d="M11.427 14.1c-0.002 0.004-0.005 0.009-0.007 0.013v0c0.003-0.005 0.005-0.009 0.007-0.013z"></path>
<path d="M11.436 14.084c0.001-0.001 0.001-0.001 0 0v0z"></path>
<path d="M11.048 4.352c1.521-1.278 2.538-4.157 1.912-4.283-0.831-0.167-2.636 0.567-3.509 0.696-1.238 0.149-2.585-1.342-3.342-0.511-0.615 0.676 0.441 3.134 2.093 4.205-4.93 2.423-11.859 14.586 0.229 15.469 16.726 1.221 8.351-13.214 2.616-15.575zM12.484 13.944c-0.051 0.474-0.303 0.903-0.678 1.194-0.397 0.307-0.894 0.45-1.388 0.49v0.524c0 0.14-0.061 0.276-0.166 0.369-0.144 0.128-0.356 0.159-0.531 0.078-0.173-0.080-0.286-0.257-0.286-0.447v-0.573c-0.085-0.016-0.169-0.035-0.252-0.058-0.462-0.127-0.89-0.374-1.203-0.74-0.156-0.182-0.283-0.389-0.371-0.613-0.023-0.058-0.043-0.118-0.061-0.178-0.016-0.054-0.033-0.11-0.039-0.167-0.010-0.095 0.009-0.192 0.054-0.277 0.091-0.174 0.283-0.28 0.48-0.262 0.193 0.017 0.362 0.151 0.423 0.335 0.019 0.057 0.031 0.115 0.052 0.171s0.046 0.11 0.076 0.161c0.058 0.102 0.132 0.195 0.216 0.276 0.174 0.168 0.395 0.276 0.626 0.341v-1.947c-0.451-0.117-0.917-0.268-1.29-0.558-0.181-0.141-0.335-0.316-0.436-0.523-0.106-0.219-0.15-0.462-0.152-0.704-0.002-0.246 0.045-0.489 0.147-0.713 0.096-0.21 0.234-0.398 0.404-0.554 0.362-0.334 0.844-0.52 1.327-0.588v-0.544c0-0.14 0.061-0.276 0.166-0.369 0.144-0.128 0.356-0.159 0.531-0.078 0.173 0.080 0.286 0.257 0.286 0.447v0.541c0.064 0.008 0.128 0.018 0.192 0.029 0.474 0.086 0.938 0.282 1.284 0.623 0.164 0.162 0.299 0.355 0.393 0.565 0.026 0.059 0.050 0.119 0.070 0.18 0.019 0.057 0.037 0.116 0.046 0.175 0.014 0.095-0 0.193-0.041 0.28-0.083 0.178-0.27 0.292-0.467 0.283-0.193-0.008-0.368-0.134-0.438-0.315-0.021-0.054-0.031-0.111-0.052-0.164s-0.049-0.106-0.080-0.155c-0.062-0.095-0.141-0.177-0.232-0.244-0.197-0.146-0.436-0.221-0.675-0.264v1.863c0.284 0.068 0.568 0.142 0.84 0.249 0.411 0.162 0.801 0.411 1.025 0.803-0.035-0.061-0.069-0.121 0.001 0.002 0.069 0.12 0.036 0.063 0.001 0.003 0.179 0.315 0.237 0.691 0.198 1.049z"></path>
<path d="M11.412 14.126c-0.003 0.005-0.005 0.010-0.007 0.013 0.002-0.003 0.004-0.007 0.007-0.013z"></path>
</svg>
