<!-- Generated by IcoMoon.io -->
<svg version="1.1" xmlns="http://www.w3.org/2000/svg" width="20" height="20" viewBox="0 0 20 20">
<title>money-2</title>
<path d="M8.151 3.953c-0.416 0-0.751-0.339-0.751-0.751s0.339-0.751 0.751-0.751c0.416 0 0.751 0.339 0.751 0.751s-0.334 0.751-0.751 0.751zM8.151 4.434c1.501 0 2.721 1.22 2.721 2.721 0 0.828-0.371 1.566-0.955 2.068-0.265-0.131-0.563-0.204-0.893-0.204-0.069 0-0.143 0.004-0.2 0.008-0.159 0.012-0.706 0.102-1.11 0.689-0.024 0.037-0.049 0.073-0.069 0.11-1.26-0.237-2.215-1.342-2.215-2.672 0-1.501 1.216-2.721 2.721-2.721zM7.217 7.746c0.012 0.233 0.086 0.416 0.228 0.543 0.151 0.139 0.343 0.22 0.567 0.245v0.302c0 0.041 0.033 0.073 0.073 0.073h0.269c0.041 0 0.073-0.033 0.073-0.073v-0.31c0.184-0.033 0.33-0.106 0.445-0.216 0.135-0.131 0.204-0.302 0.204-0.518 0-0.224-0.065-0.4-0.2-0.518-0.135-0.122-0.343-0.241-0.628-0.363-0.122-0.053-0.208-0.106-0.253-0.159s-0.069-0.122-0.069-0.208 0.020-0.151 0.061-0.208c0.041-0.053 0.106-0.082 0.196-0.082 0.086 0 0.155 0.033 0.208 0.098 0.041 0.053 0.065 0.126 0.073 0.224 0.004 0.045 0.045 0.078 0.086 0.073l0.441-0.008c0.049 0 0.090-0.041 0.086-0.090-0.012-0.192-0.073-0.355-0.188-0.485-0.118-0.135-0.273-0.224-0.465-0.261v-0.33c0-0.041-0.033-0.073-0.073-0.073h-0.269c-0.041 0-0.073 0.033-0.073 0.073v0.322c-0.204 0.029-0.371 0.106-0.498 0.228-0.139 0.135-0.212 0.306-0.212 0.514 0 0.228 0.065 0.404 0.2 0.522 0.131 0.118 0.343 0.237 0.632 0.351 0.118 0.053 0.204 0.106 0.249 0.159s0.069 0.131 0.069 0.224c0 0.086-0.024 0.151-0.069 0.204s-0.114 0.078-0.2 0.078c-0.106 0-0.192-0.033-0.257-0.102-0.053-0.053-0.086-0.139-0.098-0.253-0.004-0.045-0.045-0.078-0.086-0.078l-0.441 0.008c-0.045 0.004-0.082 0.045-0.082 0.094zM15.775 11.136c-0.224-0.175-2.57-2.778-3.198-3.145v-6.751c0-0.685-0.555-1.24-1.24-1.24h-6.372c-0.685 0-1.24 0.555-1.24 1.24v11.817c0 0.685 0.555 1.24 1.24 1.24h2.774l-0.114-0.971c-0.037-0.033-0.061-0.053-0.098-0.086h-1.224c0.037-0.151 0.049-0.31 0.029-0.473-0.065-0.514-0.457-0.942-0.959-1.057-0.208-0.049-0.404-0.041-0.587 0.004v-9.207c0.208 0.041 0.436 0.029 0.669-0.061 0.249-0.094 0.457-0.273 0.604-0.494 0.208-0.318 0.241-0.624 0.192-0.901h3.806c-0.049 0.273-0.016 0.571 0.184 0.889 0.143 0.228 0.355 0.408 0.604 0.502 0.237 0.090 0.465 0.102 0.677 0.061v11.556c-0.432-0.318-0.918-1.313-0.918-1.313s-0.237-2.651-1.579-2.651c-0.037 0-0.069 0-0.106 0.004 0 0-1.016 0.086-0.175 2.994l0.375 3.227c0 0 0.42 1.754 1.579 2.966v0.363c0 0.192 0.155 0.351 0.351 0.351h3.777c0.179 0 0.326-0.135 0.347-0.31 0.135-1.244 0.649-5.829 0.955-6.616 0.057-0.151 0.11-0.302 0.131-0.461 0.049-0.408 0.037-1.077-0.481-1.477z"></path>
</svg>
