<!-- Generated by IcoMoon.io -->
<svg version="1.1" xmlns="http://www.w3.org/2000/svg" width="20" height="20" viewBox="0 0 20 20">
<title>money-bag-1</title>
<path d="M15.451 7.41c-0.778-0.996-1.659-1.835-2.547-2.426-0.321-0.213-0.638-0.393-0.952-0.539 0.318-0.284 0.629-0.639 0.93-1.066 0.609-0.862 0.963-1.715 0.978-1.751 0.129-0.312-0.003-0.671-0.303-0.825s-0.669-0.053-0.848 0.233c-0.272 0.435-0.65 0.544-0.92 0.559-0.467 0.026-0.941-0.205-1.268-0.618-0.492-0.621-1.269-0.977-2.133-0.977s-1.641 0.356-2.133 0.977c-0.146 0.184-0.181 0.433-0.091 0.651 0.015 0.036 0.37 0.889 0.978 1.751 0.302 0.427 0.612 0.782 0.93 1.066-0.316 0.147-0.636 0.328-0.96 0.543-0.891 0.594-1.775 1.436-2.555 2.436-1.647 2.111-2.63 4.628-2.63 6.734 0 1.732 0.617 3.12 1.833 4.126 1.38 1.139 3.483 1.717 6.252 1.717 2.759 0 4.856-0.582 6.233-1.731 1.214-1.012 1.829-2.409 1.829-4.151-0-2.098-0.981-4.605-2.623-6.708zM7.55 1.534c0.231-0.15 0.525-0.235 0.837-0.235 0.458 0 0.874 0.181 1.115 0.484 0.536 0.677 1.314 1.081 2.119 1.111-0.465 0.592-1.031 1.084-1.609 1.084-1.022 0-2.005-1.536-2.461-2.445zM15.413 17.271c-1.137 0.949-2.954 1.43-5.401 1.43-2.459 0-4.284-0.478-5.425-1.42-0.903-0.747-1.361-1.798-1.361-3.124 0-1.826 0.881-4.045 2.356-5.935 1.417-1.817 3.115-2.945 4.431-2.945 1.311 0 3.003 1.124 4.415 2.932 1.47 1.882 2.348 4.091 2.348 5.908 0 1.339-0.458 2.4-1.362 3.154z"></path>
<path d="M10.323 11.821c-0.681-0.36-1.386-0.733-1.386-1.158 0-0.597 0.486-1.083 1.083-1.083s1.083 0.486 1.083 1.083c0 0.359 0.291 0.65 0.65 0.65s0.65-0.291 0.65-0.65c0-1.088-0.734-2.007-1.732-2.291v-0.307c0-0.359-0.291-0.65-0.65-0.65s-0.65 0.291-0.65 0.65v0.307c-0.998 0.284-1.732 1.203-1.732 2.291 0 1.208 1.152 1.817 2.078 2.306 0.681 0.36 1.386 0.733 1.386 1.158 0 0.597-0.486 1.083-1.083 1.083s-1.083-0.486-1.083-1.083c0-0.359-0.291-0.65-0.65-0.65s-0.65 0.291-0.65 0.65c0 1.088 0.734 2.007 1.732 2.291v0.307c0 0.359 0.291 0.65 0.65 0.65s0.65-0.291 0.65-0.65v-0.307c0.998-0.284 1.732-1.203 1.732-2.291 0-1.208-1.152-1.817-2.078-2.306z"></path>
</svg>
