<!-- Generated by IcoMoon.io -->
<svg version="1.1" xmlns="http://www.w3.org/2000/svg" width="20" height="20" viewBox="0 0 20 20">
<title>money-bag</title>
<path d="M10.674 12.553h-1.143c-0.416 0-0.753-0.337-0.753-0.753s0.337-0.753 0.753-0.753h2.012c0.274 0 0.499-0.225 0.499-0.499s-0.225-0.499-0.499-0.499h-0.944v-0.694c0-0.274-0.225-0.499-0.499-0.499s-0.499 0.225-0.499 0.499v0.694h-0.071c-0.965 0-1.751 0.786-1.751 1.751s0.786 1.751 1.751 1.751h1.143c0.416 0 0.753 0.337 0.753 0.753s-0.337 0.753-0.753 0.753h-2.050c-0.274 0-0.499 0.225-0.499 0.499s0.225 0.499 0.499 0.499h0.981v0.711c0 0.274 0.225 0.499 0.499 0.499s0.499-0.225 0.499-0.499v-0.711h0.083c0.004 0 0.008 0 0.012 0 0.956-0.012 1.726-0.794 1.726-1.751 0-0.965-0.786-1.751-1.751-1.751z"></path>
<path d="M17.601 11.422c-0.524-1.206-1.247-2.374-2.162-3.468-1.106-1.331-2.208-2.22-2.769-2.632l2.121-3.933c0.104-0.195 0.071-0.437-0.091-0.59-0.549-0.536-1.131-0.798-1.78-0.798-0.595 0-1.139 0.225-1.613 0.424-0.374 0.154-0.728 0.304-1.015 0.304-0.087 0-0.162-0.012-0.237-0.042-0.99-0.362-1.751-0.586-2.486-0.586-0.931 0-1.726 0.374-2.503 1.173-0.162 0.166-0.187 0.428-0.058 0.624l2.287 3.455c-0.565 0.42-1.647 1.301-2.732 2.603-0.911 1.094-1.638 2.262-2.162 3.468-0.657 1.518-0.99 3.102-0.99 4.707 0 2.133 1.738 3.871 3.871 3.871h9.439c2.133 0 3.871-1.738 3.871-3.871 0-1.605-0.333-3.189-0.99-4.707zM6.071 1.688c0.482-0.416 0.944-0.599 1.497-0.599 0.59 0 1.256 0.2 2.141 0.528 0.183 0.067 0.378 0.1 0.578 0.1 0.486 0 0.952-0.191 1.397-0.378 0.428-0.179 0.836-0.349 1.231-0.349 0.191 0 0.462 0.033 0.802 0.274l-1.996 3.709h-3.476l-2.175-3.285zM14.719 19.002h-9.439c-1.584 0-2.873-1.289-2.873-2.873 0-2.665 0.977-5.193 2.898-7.514 1.214-1.468 2.449-2.378 2.823-2.644h3.734c0.378 0.262 1.609 1.177 2.823 2.644 1.925 2.32 2.898 4.844 2.898 7.514 0.008 1.584-1.281 2.873-2.865 2.873z"></path>
</svg>
