<!-- Generated by IcoMoon.io -->
<svg version="1.1" xmlns="http://www.w3.org/2000/svg" width="20" height="20" viewBox="0 0 20 20">
<title>money</title>
<path d="M19.405 8.27l-8.66-6.481c-0.444-0.332-1.053-0.332-1.498 0l-3.503 2.621v-0.632c0-0.69-0.559-1.25-1.25-1.25h-1.155c-0.69 0-1.25 0.56-1.25 1.25v3.367l-1.589 1.19c-0.431 0.322-0.607 0.884-0.437 1.395s0.648 0.855 1.186 0.855h0.841v6.627c0 0.69 0.559 1.25 1.25 1.25h13.311c0.69 0 1.25-0.559 1.25-1.25v-6.627h0.841c0.003 0 0.005 0 0.008 0 0.69 0 1.25-0.559 1.25-1.25-0-0.45-0.238-0.845-0.595-1.065zM13.174 12.619c0 1.426-0.968 2.293-2.404 2.472v0.573c0 0.425-0.344 0.77-0.77 0.77s-0.771-0.345-0.771-0.77v-0.637c-0.73-0.137-1.441-0.422-2.068-0.871-0.197-0.138-0.335-0.393-0.335-0.671 0-0.462 0.369-0.82 0.832-0.82 0.231 0 0.392 0.080 0.508 0.161 0.614 0.451 1.284 0.728 2.070 0.728 0.729 0 1.168-0.289 1.168-0.763v-0.023c0-0.45-0.277-0.681-1.631-1.029-1.63-0.416-2.683-0.867-2.683-2.475v-0.023c0-1.252 0.862-2.136 2.138-2.371v-0.603c0-0.426 0.345-0.771 0.771-0.771s0.77 0.345 0.77 0.771v0.609c0.635 0.104 1.212 0.319 1.722 0.644 0.197 0.114 0.394 0.358 0.394 0.705 0 0.462-0.37 0.821-0.833 0.821-0.174 0-0.312-0.046-0.45-0.128-0.591-0.346-1.146-0.544-1.702-0.544-0.682 0-1.040 0.312-1.040 0.705v0.024c0 0.532 0.347 0.705 1.746 1.064 1.641 0.428 2.567 1.018 2.567 2.428v0.025l-0.001-0z"></path>
</svg>
