<!-- Generated by IcoMoon.io -->
<svg version="1.1" xmlns="http://www.w3.org/2000/svg" width="20" height="20" viewBox="0 0 20 20">
<title>music</title>
<path d="M17.221 14.178c-1.193-1.193-1.863-2.811-1.863-4.498v-1.578c0-2.51-1.727-4.617-4.057-5.198v-1.604c0-0.718-0.582-1.3-1.3-1.3s-1.3 0.582-1.3 1.3v1.604c-2.33 0.581-4.057 2.688-4.057 5.198v1.578c0 1.687-0.67 3.305-1.863 4.498-0.524 0.524-0.681 1.313-0.397 1.998s0.952 1.132 1.694 1.132h3.233c0 1.487 1.205 2.692 2.692 2.692s2.692-1.205 2.692-2.692h3.233c0.742 0 1.41-0.447 1.694-1.132s0.127-1.474-0.397-1.998zM10 18.679c-0.756 0-1.37-0.615-1.37-1.37h2.741c0 0.756-0.615 1.37-1.37 1.37zM16.397 15.671c-0.080 0.192-0.265 0.316-0.473 0.316h-11.848c-0.208 0-0.394-0.124-0.473-0.316s-0.036-0.411 0.111-0.558c1.451-1.451 2.25-3.38 2.25-5.432v-1.578c0-2.226 1.811-4.036 4.036-4.036s4.036 1.811 4.036 4.036v1.578c0 2.052 0.799 3.981 2.25 5.432 0.147 0.147 0.191 0.366 0.111 0.558z"></path>
</svg>
