<!-- Generated by IcoMoon.io -->
<svg version="1.1" xmlns="http://www.w3.org/2000/svg" width="20" height="20" viewBox="0 0 20 20">
<title>Network</title>
<path d="M19.758 5.926c-0.256-0.479-0.683-0.829-1.203-0.986s-1.069-0.103-1.548 0.154c-0.479 0.256-0.829 0.684-0.986 1.203-0.105 0.346-0.113 0.705-0.033 1.048l-2.194 1.175c-0.667-0.937-1.708-1.59-2.903-1.74v-1.873c0.865-0.233 1.504-1.024 1.504-1.962 0-1.121-0.912-2.032-2.032-2.032s-2.032 0.912-2.032 2.032c0 0.938 0.639 1.729 1.504 1.962v1.872c-1.527 0.192-2.801 1.204-3.368 2.58l-2.402-0.647c0.001-0.352-0.089-0.7-0.27-1.013-0.271-0.471-0.709-0.807-1.233-0.949-1.082-0.292-2.199 0.352-2.491 1.434-0.141 0.524-0.070 1.072 0.201 1.542s0.709 0.807 1.233 0.949c0.176 0.047 0.354 0.071 0.532 0.071 0.351 0 0.698-0.092 1.010-0.272s0.566-0.436 0.742-0.741l2.402 0.647c-0.026 0.189-0.040 0.381-0.040 0.577 0 0.971 0.331 1.866 0.885 2.579l-1.761 1.761c-0.777-0.446-1.786-0.34-2.449 0.323-0.792 0.792-0.792 2.082 0 2.874 0.396 0.396 0.917 0.594 1.437 0.594s1.041-0.198 1.437-0.594c0.663-0.663 0.769-1.673 0.323-2.449l1.761-1.761c0.713 0.554 1.608 0.885 2.579 0.885s1.866-0.331 2.579-0.885l1.761 1.761c-0.446 0.777-0.34 1.786 0.323 2.449 0.396 0.396 0.917 0.594 1.437 0.594s1.041-0.198 1.437-0.594c0.792-0.792 0.792-2.082 0-2.874-0.663-0.663-1.673-0.769-2.449-0.323l-1.761-1.761c0.554-0.713 0.885-1.608 0.885-2.579 0-0.531-0.1-1.038-0.279-1.506l2.193-1.174c0.241 0.257 0.545 0.449 0.891 0.553 0.195 0.059 0.393 0.088 0.591 0.088 0.33 0 0.657-0.081 0.957-0.242 0.479-0.256 0.829-0.683 0.986-1.203s0.102-1.069-0.154-1.548zM18.427 7.744c-0.23 0.123-0.493 0.149-0.742 0.074s-0.454-0.243-0.577-0.473c-0.123-0.23-0.149-0.493-0.074-0.743s0.243-0.454 0.473-0.577c0.144-0.077 0.301-0.116 0.459-0.116 0.095 0 0.19 0.014 0.284 0.042 0.249 0.075 0.454 0.243 0.577 0.473s0.149 0.493 0.074 0.743c-0.075 0.249-0.243 0.454-0.473 0.577zM13.517 10.957c0 1.739-1.415 3.155-3.155 3.155s-3.155-1.415-3.155-3.155 1.415-3.155 3.155-3.155 3.155 1.415 3.155 3.155zM9.387 2.945c0-0.538 0.437-0.975 0.975-0.975s0.975 0.437 0.975 0.975c0 0.538-0.437 0.975-0.975 0.975s-0.975-0.437-0.975-0.975zM1.779 9.654c-0.251-0.068-0.461-0.229-0.591-0.455s-0.164-0.488-0.096-0.74c0.14-0.519 0.676-0.828 1.195-0.688 0.251 0.068 0.461 0.229 0.591 0.455s0.164 0.488 0.096 0.74c-0.14 0.519-0.676 0.828-1.195 0.688zM4.952 17.746c-0.38 0.38-0.999 0.38-1.379 0s-0.38-0.999 0-1.379c0.19-0.19 0.44-0.285 0.689-0.285s0.499 0.095 0.689 0.285c0.38 0.38 0.38 0.999 0 1.379zM17.151 16.367c0.38 0.38 0.38 0.999 0 1.379s-0.999 0.38-1.379 0c-0.38-0.38-0.38-0.999 0-1.379 0.19-0.19 0.44-0.285 0.689-0.285s0.499 0.095 0.689 0.285z"></path>
</svg>
