<!-- Generated by IcoMoon.io -->
<svg version="1.1" xmlns="http://www.w3.org/2000/svg" width="20" height="20" viewBox="0 0 20 20">
<title>networking</title>
<path d="M19.477 0.407c-0.27-0.264-0.604-0.407-0.987-0.407h-12.892c-0.79 0-1.428 0.604-1.428 1.394v2.718h1.312v-2.718c0-0.081 0.035-0.116 0.116-0.116h12.892c0.081 0 0.116 0.035 0.116 0.116v9.28c0 0.081-0.035 0.116-0.116 0.116h-1.754v1.289h1.754c0.383 0 0.717-0.142 0.987-0.407 0.276-0.27 0.418-0.604 0.418-0.999v-9.28c-0-0.395-0.142-0.717-0.418-0.987z"></path>
<path d="M14.402 5.47h-12.892c-0.395 0-0.732 0.139-0.999 0.418s-0.406 0.615-0.406 1.010v9.269c0 0.383 0.136 0.723 0.406 0.999 0.264 0.27 0.604 0.406 0.999 0.406h5.83l4.367 2.427v-2.427h2.695c0.395 0 0.735-0.136 0.999-0.406 0.27-0.276 0.407-0.615 0.407-0.999v-9.269c0-0.395-0.14-0.732-0.407-1.010s-0.604-0.418-0.999-0.418zM14.518 16.167c0 0.081-0.035 0.116-0.116 0.116h-3.972v1.533l-2.451-1.382-0.29-0.151h-6.179c-0.082 0-0.116-0.035-0.116-0.116v-9.269c0-0.105 0.035-0.151 0.116-0.151h12.892c0.081 0 0.116 0.047 0.116 0.151v9.269z"></path>
<path d="M11.928 12.311h-4.634c-0.36 0-0.65 0.29-0.65 0.65s0.29 0.639 0.65 0.639h4.634c0.36 0 0.639-0.279 0.639-0.639s-0.279-0.65-0.639-0.65z"></path>
<path d="M11.928 9.466h-7.944c-0.36 0-0.639 0.279-0.639 0.639s0.279 0.639 0.639 0.639h7.944c0.36 0 0.639-0.279 0.639-0.639s-0.279-0.639-0.639-0.639z"></path>
</svg>
