<!-- Generated by IcoMoon.io -->
<svg version="1.1" xmlns="http://www.w3.org/2000/svg" width="20" height="20" viewBox="0 0 20 20">
<title>nJbGCH101</title>
<path d="M13.365 0.235c-1.459 0.188-2.965 1.247-3.694 2.588-0.4 0.8-0.494 0.894-0.4 0.376 0.188-0.776-0.329-1.718-1.106-2-1.176-0.447-2.494 0.729-2.188 1.929 0.118 0.494 0.047 0.612-0.447 0.729-0.847 0.212-2.424 1.694-2.988 2.824-0.424 0.8-0.541 1.576-0.659 4.376-0.165 3.718-0.212 3.882-1.247 5.365-0.988 1.365-0.753 1.529 2.141 1.482 2.141-0.047 2.376 0 2.494 0.4 0.659 2.047 4.094 2.047 4.753 0 0.118-0.4 0.353-0.447 2.494-0.4 2.8 0.047 3.106-0.141 2.235-1.271-0.847-1.106-1.271-2.353-1.459-4.118l-0.141-1.459h1.153c2.165 0 3.859-0.918 4.847-2.659 0.518-0.894 1.012-3.106 0.659-2.894-0.094 0.047-0.165-0.4-0.165-1.012 0-2.753-2.824-4.659-6.282-4.259zM16.306 1.553c1.624 0.824 2.518 2.235 2.518 3.976 0 1.412-0.447 2.424-1.482 3.341-2.635 2.306-6.588 0.871-7.341-2.682-0.329-1.624 0.965-3.976 2.588-4.682 0.988-0.424 2.824-0.4 3.718 0.047zM8.188 2.682c0.094 0.494-0.329 0.871-0.824 0.682-0.329-0.118-0.424-0.824-0.141-1.106s0.894-0.024 0.965 0.424zM8.941 3.765c0 0.118-0.094 0.235-0.235 0.235-0.118 0-0.235-0.118-0.235-0.235 0-0.141 0.118-0.235 0.235-0.235 0.141 0 0.235 0.094 0.235 0.235zM8.565 4.612c0.259 0.094 0.376 0.471 0.376 1.247 0.024 1.459 0.659 2.824 1.882 3.859 0.565 0.471 1.106 0.871 1.2 0.871 0.071 0 0.188 0.941 0.259 2.071 0.071 1.671 0.212 2.282 0.706 3.176l0.635 1.106h-11.906l0.612-1.224c0.518-1.082 0.612-1.6 0.729-4.659 0.118-3.012 0.188-3.529 0.682-4.306 1.012-1.647 3.365-2.706 4.824-2.141zM8.941 18.071c0 0.682-1.741 1.035-2.306 0.471-0.518-0.518-0.306-0.659 1.012-0.659 0.706 0 1.294 0.094 1.294 0.188z"></path>
<path d="M13.976 2.424c-0.071 0.188-0.094 1.059-0.047 1.953l0.071 1.624 1.318 0.071c1.012 0.047 1.365-0.024 1.459-0.282 0.188-0.494-0.424-0.918-1.129-0.8-0.541 0.118-0.565 0.071-0.635-1.318-0.047-1.153-0.165-1.435-0.494-1.506-0.212-0.047-0.471 0.071-0.541 0.259z"></path>
</svg>
