<!-- Generated by IcoMoon.io -->
<svg version="1.1" xmlns="http://www.w3.org/2000/svg" width="16" height="20" viewBox="0 0 16 20">
<title>npi</title>
<path d="M0 2.313v2.313h1.438v-3.187h13.5v7.469h1.437v-8.906h-16.375v2.313z"></path>
<path d="M4.044 2.934c-0.469 0.212-0.4 1 0.1 1.125 0.184 0.047 9.134 0.047 9.3 0.003 0.15-0.044 0.303-0.172 0.356-0.303 0.025-0.056 0.044-0.188 0.044-0.294 0-0.256-0.097-0.431-0.291-0.525l-0.134-0.066h-4.625c-4.441 0-4.628 0.003-4.75 0.059z"></path>
<path d="M1.334 5.625c-0.409 0.103-0.672 0.425-0.794 0.975-0.072 0.319-0.072 1.231 0.003 1.556 0.106 0.478 0.347 0.809 0.666 0.919 0.188 0.066 0.55 0.063 0.737 0 0.272-0.094 0.509-0.391 0.628-0.794 0.084-0.281 0.122-0.878 0.081-1.3-0.081-0.894-0.403-1.331-1.006-1.372-0.109-0.006-0.25 0-0.316 0.016zM1.697 6.003c0.269 0.075 0.425 0.319 0.491 0.772 0.050 0.337 0.025 1.206-0.044 1.441-0.097 0.35-0.334 0.553-0.613 0.528-0.419-0.041-0.594-0.444-0.594-1.369 0-0.697 0.084-1.050 0.306-1.259 0.078-0.078 0.206-0.138 0.303-0.144 0.019-0.003 0.084 0.013 0.15 0.031z"></path>
<path d="M4.222 5.778c-0.153 0.213-0.347 0.384-0.641 0.569l-0.206 0.128v0.216c0 0.119 0.006 0.216 0.016 0.216 0.047 0 0.431-0.212 0.603-0.334l0.194-0.138v2.659h0.438v-3.5h-0.134c-0.125 0-0.141 0.009-0.269 0.184z"></path>
<path d="M8.766 5.694c-0.231 0.081-0.366 0.294-0.366 0.575 0 0.259 0.103 0.447 0.297 0.541 0.134 0.066 0.166 0.066 2.434 0.066h2.297l0.134-0.072c0.184-0.097 0.281-0.278 0.281-0.528 0-0.309-0.137-0.516-0.391-0.584-0.169-0.047-4.553-0.044-4.688 0.003z"></path>
<path d="M12.959 10.575c-0.556 0.2-0.809 0.834-0.762 1.925 0.044 1.025 0.362 1.516 1.006 1.556 0.547 0.034 0.894-0.231 1.081-0.838 0.069-0.216 0.075-0.288 0.075-0.922 0-0.578-0.009-0.716-0.056-0.872-0.191-0.613-0.519-0.897-1.034-0.894-0.103 0.003-0.244 0.022-0.309 0.044zM13.5 10.975c0.188 0.097 0.322 0.303 0.378 0.578 0.059 0.287 0.059 1.275 0 1.509-0.056 0.219-0.131 0.369-0.244 0.475-0.322 0.303-0.75 0.128-0.903-0.372-0.072-0.231-0.109-0.819-0.075-1.228 0.034-0.4 0.088-0.625 0.194-0.784 0.078-0.116 0.306-0.247 0.431-0.247 0.044 0 0.144 0.031 0.219 0.069z"></path>
<path d="M1.322 10.775c-0.563 0.2-0.784 0.753-0.75 1.866 0.022 0.741 0.106 1.031 0.387 1.331 0.178 0.191 0.397 0.278 0.694 0.278 0.4 0 0.684-0.172 0.872-0.525 0.144-0.269 0.194-0.522 0.216-1.072 0.028-0.762-0.069-1.234-0.328-1.575-0.234-0.309-0.706-0.441-1.091-0.303zM1.938 11.2c0.141 0.091 0.266 0.325 0.309 0.566 0.091 0.513 0.069 1.253-0.047 1.641-0.059 0.206-0.269 0.425-0.431 0.453-0.278 0.053-0.528-0.109-0.641-0.409-0.159-0.422-0.166-1.394-0.012-1.872 0.134-0.428 0.497-0.594 0.822-0.378z"></path>
<path d="M4.316 10.878c-0.137 0.203-0.4 0.438-0.666 0.597l-0.212 0.125v0.216c0 0.119 0.009 0.216 0.019 0.216 0.053 0 0.541-0.278 0.672-0.381l0.153-0.119v2.656h0.438v-3.469h-0.147c-0.144 0.003-0.153 0.006-0.256 0.159z"></path>
<path d="M6.534 10.903c-0.153 0.213-0.347 0.384-0.641 0.569l-0.206 0.128v0.216c0 0.119 0.006 0.216 0.016 0.216 0.044 0 0.403-0.2 0.587-0.325l0.209-0.144v2.625h0.438v-3.469h-0.134c-0.125 0-0.141 0.009-0.269 0.184z"></path>
<path d="M8.759 10.762c-0.544 0.178-0.791 0.713-0.791 1.722 0 0.713 0.119 1.178 0.369 1.456 0.197 0.219 0.341 0.284 0.65 0.303 0.791 0.044 1.172-0.534 1.169-1.772-0.003-0.906-0.209-1.434-0.641-1.647-0.213-0.103-0.55-0.131-0.756-0.063zM9.334 11.191c0.131 0.081 0.256 0.294 0.309 0.522 0.062 0.266 0.087 0.887 0.047 1.225-0.050 0.438-0.109 0.606-0.269 0.766-0.216 0.219-0.466 0.228-0.697 0.031-0.175-0.15-0.247-0.362-0.294-0.847-0.063-0.672 0.034-1.341 0.231-1.591 0.156-0.2 0.447-0.244 0.672-0.106z"></path>
<path d="M11.653 16.197c-0.281 0.106-0.438 0.256-0.578 0.566-0.134 0.297-0.178 0.578-0.178 1.159 0 0.803 0.116 1.219 0.422 1.5 0.216 0.203 0.331 0.247 0.666 0.247 0.338 0.003 0.5-0.063 0.703-0.281 0.288-0.313 0.384-0.691 0.384-1.497 0-0.469-0.012-0.603-0.066-0.803-0.116-0.431-0.278-0.678-0.544-0.822-0.137-0.075-0.209-0.094-0.431-0.1-0.169-0.006-0.306 0.006-0.378 0.031zM12.206 16.597c0.166 0.078 0.306 0.281 0.362 0.522 0.025 0.116 0.041 0.4 0.041 0.803 0 0.791-0.044 0.984-0.266 1.203-0.241 0.244-0.478 0.244-0.719 0.003-0.228-0.228-0.266-0.4-0.266-1.191 0-0.516 0.012-0.681 0.056-0.844 0.128-0.475 0.438-0.669 0.791-0.497z"></path>
<path d="M14.672 16.269c-0.084 0.156-0.444 0.488-0.684 0.628l-0.206 0.119v0.209c0 0.125 0.012 0.212 0.031 0.212 0.063 0 0.459-0.216 0.603-0.325 0.081-0.063 0.153-0.113 0.163-0.113s0.016 0.591 0.016 1.313v1.313h0.438v-3.469h-0.15c-0.137 0-0.153 0.006-0.209 0.113z"></path>
<path d="M1.409 16.5c-0.6 0.128-0.872 0.737-0.837 1.891 0.025 0.9 0.209 1.325 0.659 1.534 0.228 0.106 0.625 0.106 0.847 0 0.325-0.153 0.537-0.497 0.628-1.019 0.066-0.375 0.044-1.225-0.034-1.512-0.116-0.416-0.334-0.719-0.597-0.834-0.166-0.069-0.478-0.097-0.666-0.059zM1.859 16.916c0.128 0.063 0.269 0.228 0.328 0.391 0.144 0.381 0.153 1.391 0.016 1.844-0.088 0.288-0.303 0.475-0.547 0.475-0.294 0-0.506-0.228-0.597-0.641-0.053-0.241-0.056-1.184-0.003-1.438 0.047-0.234 0.184-0.509 0.291-0.587 0.15-0.109 0.35-0.125 0.512-0.044z"></path>
<path d="M3.962 16.509c-0.363 0.103-0.606 0.384-0.731 0.85-0.131 0.478-0.112 1.444 0.037 1.884 0.188 0.563 0.494 0.781 1.053 0.75 0.3-0.016 0.478-0.097 0.647-0.297 0.266-0.322 0.356-0.691 0.353-1.462 0-0.781-0.097-1.153-0.381-1.463-0.225-0.244-0.644-0.356-0.978-0.262zM4.472 16.925c0.103 0.053 0.234 0.206 0.291 0.338 0.078 0.184 0.112 0.506 0.112 1.006 0 0.725-0.091 1.069-0.325 1.247-0.325 0.247-0.719 0.075-0.863-0.381-0.137-0.431-0.119-1.459 0.034-1.869 0.131-0.35 0.45-0.494 0.75-0.341z"></path>
<path d="M6.584 16.5c-0.403 0.103-0.656 0.406-0.794 0.953-0.072 0.303-0.075 1.244 0 1.572 0.097 0.434 0.294 0.747 0.566 0.891 0.178 0.097 0.722 0.1 0.909 0.006 0.291-0.144 0.5-0.472 0.591-0.928 0.066-0.319 0.066-1.206 0.003-1.506-0.056-0.266-0.191-0.563-0.325-0.716-0.2-0.228-0.631-0.35-0.95-0.272zM7.1 16.956c0.138 0.087 0.253 0.278 0.309 0.512 0.069 0.272 0.059 1.334-0.012 1.594-0.1 0.366-0.306 0.563-0.591 0.563-0.294 0-0.509-0.269-0.591-0.728-0.053-0.316-0.022-1.297 0.050-1.531 0.138-0.444 0.5-0.622 0.834-0.409z"></path>
<path d="M9.469 16.659c-0.153 0.212-0.369 0.4-0.656 0.575l-0.188 0.113v0.219c0 0.119 0.006 0.216 0.016 0.216 0.047 0 0.431-0.212 0.603-0.334l0.194-0.137v2.659h0.438v-3.5h-0.134c-0.128 0-0.138 0.009-0.272 0.191z"></path>
</svg>
