<!-- Generated by IcoMoon.io -->
<svg version="1.1" xmlns="http://www.w3.org/2000/svg" width="20" height="20" viewBox="0 0 20 20">
<title>payment</title>
<path d="M4.642 0.044c-0.327 0.072-0.62 0.274-0.794 0.542-0.137 0.215-3.782 8.274-3.819 8.449-0.109 0.514 0.168 1.109 0.626 1.34 0.059 0.028 0.595 0.259 1.187 0.511 0.732 0.308 1.115 0.455 1.193 0.455 0.146 0 0.274-0.065 0.349-0.178 0.056-0.084 0.059-0.19 0.075-2.097l0.016-2.009 0.081-0.224c0.125-0.336 0.293-0.614 0.517-0.854 0.355-0.377 0.735-0.601 1.199-0.713 0.252-0.059 0.364-0.062 5.352-0.062 3.474 0 5.131-0.009 5.212-0.034 0.234-0.062 0.274-0.38 0.069-0.498-0.227-0.131-10.579-4.604-10.726-4.636-0.202-0.044-0.315-0.041-0.536 0.009z"></path>
<path d="M5.53 6.305c-0.389 0.093-0.701 0.346-0.869 0.701l-0.097 0.206-0.009 4.626c-0.006 4.545-0.006 4.629 0.056 4.829 0.112 0.371 0.436 0.695 0.807 0.81 0.178 0.056 0.287 0.062 1.162 0.062h0.969l-0.019-0.146c-0.050-0.405-0.056-0.682-0.025-0.991 0.022-0.19 0.047-0.374 0.056-0.414l0.016-0.069h-1.377v-4.143h11.931v4.143h-1.377l0.025 0.224c0.034 0.274 0.037 1.006 0.006 1.231l-0.022 0.165h0.959c1.034 0 1.15-0.016 1.424-0.174 0.184-0.109 0.408-0.358 0.502-0.561 0.044-0.097 0.090-0.28 0.109-0.411 0.016-0.14 0.022-2.109 0.019-4.664-0.009-4.118-0.012-4.436-0.065-4.586-0.118-0.346-0.411-0.651-0.76-0.791l-0.181-0.075-6.542-0.006c-5.087-0.003-6.576 0.003-6.698 0.034zM18.131 8.52v0.639h-11.931v-1.277h11.931v0.639z"></path>
<path d="M11.595 13.598c-1.34 0.237-2.393 1.237-2.657 2.523-0.075 0.355-0.078 0.953-0.009 1.287 0.128 0.617 0.405 1.14 0.854 1.598 0.439 0.449 0.903 0.723 1.502 0.888 0.361 0.1 0.975 0.134 1.368 0.075 1.327-0.193 2.389-1.15 2.713-2.452 0.093-0.368 0.1-1.056 0.012-1.427-0.15-0.651-0.47-1.196-0.981-1.67-0.414-0.386-0.963-0.67-1.536-0.794-0.324-0.069-0.947-0.084-1.265-0.028zM12.424 14.782c0.012 0.271 0.022 0.287 0.168 0.312 0.209 0.034 0.511 0.137 0.551 0.184 0.025 0.031 0.019 0.093-0.031 0.255-0.090 0.299-0.106 0.312-0.312 0.227-0.234-0.093-0.664-0.118-0.813-0.047-0.112 0.053-0.181 0.159-0.181 0.274 0 0.109 0.215 0.287 0.483 0.396 0.579 0.24 0.782 0.389 0.922 0.682 0.084 0.174 0.112 0.452 0.059 0.617-0.053 0.178-0.234 0.43-0.371 0.523-0.065 0.047-0.196 0.112-0.287 0.146-0.093 0.037-0.178 0.081-0.19 0.1-0.012 0.022-0.025 0.128-0.025 0.24 0 0.118-0.016 0.221-0.037 0.243-0.050 0.050-0.405 0.050-0.455 0-0.022-0.022-0.037-0.122-0.037-0.231 0-0.115-0.016-0.203-0.037-0.221-0.022-0.016-0.146-0.053-0.274-0.078-0.349-0.075-0.53-0.162-0.53-0.255 0-0.087 0.115-0.477 0.15-0.495 0.012-0.009 0.128 0.028 0.255 0.081 0.206 0.084 0.271 0.097 0.551 0.097 0.274 0.003 0.327-0.006 0.405-0.062 0.137-0.1 0.181-0.215 0.137-0.358-0.047-0.15-0.156-0.227-0.576-0.402-0.66-0.274-0.891-0.523-0.891-0.959 0-0.377 0.19-0.667 0.548-0.829 0.287-0.131 0.277-0.118 0.287-0.302 0.016-0.321 0.006-0.312 0.28-0.302l0.24 0.009 0.009 0.156z"></path>
</svg>
