<!-- Generated by IcoMoon.io -->
<svg version="1.1" xmlns="http://www.w3.org/2000/svg" width="20" height="20" viewBox="0 0 20 20">
<title>pen</title>
<path d="M19.52 0.482c-0.318-0.318-0.751-0.482-1.197-0.482-0.447 0.007-0.868 0.185-1.188 0.503l-0.764 0.763c-0.003 0.004-0.005 0.008-0.008 0.011l-9.972 9.943c-0.032 0.032-0.049 0.073-0.073 0.11-0.041 0.047-0.077 0.099-0.102 0.158l-1.017 2.344c-0.101 0.234-0.053 0.506 0.124 0.691 0.122 0.128 0.29 0.197 0.461 0.197 0.075 0 0.152-0.013 0.225-0.041l2.445-0.92c0.068-0.025 0.127-0.065 0.181-0.11 0.039-0.025 0.082-0.044 0.115-0.077l10.011-9.983c0.002-0.002 0.003-0.004 0.005-0.006l0.732-0.728c0.662-0.66 0.672-1.725 0.023-2.374zM8.299 12.225l-0.555-0.554 9.11-9.084 0.555 0.554-9.109 9.084zM18.596 1.957l-0.286 0.285-0.558-0.556 0.285-0.284c0.083-0.083 0.19-0.128 0.304-0.13 0.108-0.002 0.204 0.037 0.276 0.109 0.153 0.153 0.143 0.412-0.021 0.577z"></path>
<path d="M18.267 6.954c-0.352 0-0.637 0.285-0.637 0.636v10.503c0 0.35-0.286 0.635-0.637 0.635h-15.079c-0.352 0-0.637-0.285-0.637-0.635v-15.035c0-0.35 0.286-0.636 0.637-0.636h10.438c0.352 0 0.637-0.285 0.637-0.636s-0.285-0.636-0.637-0.636h-10.438c-1.055 0-1.913 0.855-1.913 1.907v15.035c0 1.052 0.858 1.907 1.913 1.907h15.079c1.054 0 1.913-0.855 1.913-1.907v-10.503c0-0.351-0.285-0.636-0.638-0.636z"></path>
</svg>
