<!-- Generated by IcoMoon.io -->
<svg version="1.1" xmlns="http://www.w3.org/2000/svg" width="20" height="20" viewBox="0 0 20 20">
<title>people</title>
<path d="M13.923 5.657c0.065-0.187 0.118-0.375 0.151-0.562 0.587-3.528-1.149-3.65-1.149-3.65s-0.289-0.554-1.047-0.974c-0.509-0.301-1.218-0.534-2.151-0.456-0.301 0.016-0.587 0.073-0.855 0.163-0.342 0.114-0.656 0.285-0.941 0.481-0.35 0.22-0.68 0.493-0.97 0.803-0.46 0.468-0.872 1.079-1.047 1.837-0.151 0.566-0.114 1.157 0.008 1.796 0.033 0.187 0.081 0.371 0.151 0.562-0.346-0.033-0.758 0.167-0.371 1.532 0.277 0.998 0.538 1.275 0.737 1.291 0.183 1.185 1.096 2.693 2.599 3.222 0.615 0.216 1.291 0.216 1.906-0.004 1.479-0.534 2.424-2.037 2.607-3.218 0.2-0.016 0.46-0.297 0.741-1.291 0.387-1.365-0.024-1.564-0.371-1.532z"></path>
<path d="M16.827 13.112c-2.114-0.538-3.833-1.748-3.833-1.748l-1.593 5.039-0.004-0.012-0.22 0.676-0.709-2.008c1.739-2.428-0.35-2.403-0.468-2.399-0.118-0.004-2.208-0.029-0.468 2.399l-0.709 2.008-0.22-0.676-0.004 0.012-0.253-0.798-1.34-4.241c0 0-1.719 1.21-3.833 1.748-1.576 0.399-1.654 2.22-1.589 3.124-0.008 0 0.086 1.222 0.175 1.76 0 0 3.080 2 8.237 2.004 5.157 0 8.237-2.004 8.237-2.004 0.094-0.538 0.183-1.76 0.183-1.76 0.065-0.9-0.012-2.721-1.589-3.124z"></path>
</svg>
