<!-- Generated by IcoMoon.io -->
<svg version="1.1" xmlns="http://www.w3.org/2000/svg" width="20" height="20" viewBox="0 0 20 20">
<title>photoshop-file-format</title>
<path d="M17.735 7.154h-0.48v-2.317c0-0.015-0.002-0.029-0.004-0.044-0.001-0.092-0.030-0.182-0.093-0.254l-3.856-4.405c-0.001-0.001-0.002-0.002-0.003-0.003-0.023-0.026-0.050-0.047-0.078-0.066-0.008-0.006-0.017-0.010-0.026-0.015-0.025-0.013-0.051-0.025-0.077-0.033-0.007-0.002-0.014-0.005-0.021-0.007-0.029-0.007-0.059-0.011-0.090-0.011h-9.477c-0.433 0-0.784 0.352-0.784 0.784v6.369h-0.48c-0.619 0-1.121 0.502-1.121 1.121v5.829c0 0.619 0.502 1.121 1.121 1.121h0.48v3.99c0 0.432 0.352 0.784 0.784 0.784h12.941c0.432 0 0.784-0.352 0.784-0.784v-3.99h0.48c0.619 0 1.121-0.502 1.121-1.121v-5.829c-0-0.619-0.502-1.121-1.121-1.121zM3.529 0.784h9.085v4.013c0 0.217 0.176 0.392 0.392 0.392h3.464v1.965h-12.941v-6.37zM9.423 11.434c-0.973-0.339-1.608-0.878-1.608-1.729 0-0.999 0.834-1.764 2.216-1.764 0.66 0 1.147 0.139 1.495 0.295l-0.296 1.069c-0.235-0.113-0.651-0.278-1.226-0.278s-0.851 0.261-0.851 0.565c0 0.374 0.331 0.539 1.087 0.825 1.033 0.382 1.52 0.921 1.52 1.746 0 0.982-0.756 1.816-2.364 1.816-0.669 0-1.329-0.174-1.659-0.356l0.27-1.095c0.356 0.183 0.903 0.365 1.468 0.365 0.608 0 0.929-0.252 0.929-0.634 0-0.365-0.278-0.573-0.981-0.825zM2.914 13.893v-5.778c0.409-0.069 0.982-0.122 1.79-0.122 0.816 0 1.399 0.157 1.79 0.469 0.373 0.296 0.625 0.782 0.625 1.356s-0.191 1.060-0.538 1.39c-0.452 0.426-1.121 0.617-1.902 0.617-0.174 0-0.331-0.008-0.452-0.026v2.094h-1.312zM16.471 19.003h-12.941v-3.778h12.941v3.778zM16.861 13.197c-0.617 0.513-1.555 0.756-2.702 0.756-0.686 0-1.173-0.043-1.503-0.087v-5.752c0.487-0.078 1.121-0.122 1.79-0.122 1.112 0 1.834 0.2 2.398 0.626 0.608 0.452 0.991 1.173 0.991 2.207-0 1.121-0.409 1.895-0.974 2.372z"></path>
<path d="M14.584 9.009c-0.296 0-0.486 0.027-0.6 0.052v3.832c0.113 0.026 0.296 0.026 0.461 0.026 1.199 0.008 1.981-0.652 1.981-2.051 0.008-1.216-0.704-1.86-1.842-1.86z"></path>
<path d="M5.808 9.852c0-0.539-0.374-0.86-1.034-0.86-0.269 0-0.452 0.027-0.548 0.052v1.729c0.113 0.026 0.252 0.035 0.443 0.035 0.704 0 1.139-0.356 1.139-0.956z"></path>
</svg>
