<!-- Generated by IcoMoon.io -->
<svg version="1.1" xmlns="http://www.w3.org/2000/svg" width="20" height="20" viewBox="0 0 20 20">
<title>png-file-format-symbol</title>
<path d="M5.328 10.047c0-0.508-0.353-0.812-0.976-0.812-0.254 0-0.426 0.025-0.516 0.049v1.631c0.106 0.025 0.237 0.033 0.418 0.033 0.664 0 1.074-0.336 1.074-0.901z"></path>
<path d="M17.735 7.154h-0.48v-2.317c0-0.014-0.002-0.029-0.004-0.044-0.001-0.092-0.030-0.182-0.093-0.254l-3.856-4.405c-0.001-0.001-0.002-0.002-0.003-0.003-0.023-0.026-0.050-0.047-0.078-0.066-0.008-0.006-0.017-0.010-0.026-0.015-0.025-0.013-0.051-0.025-0.077-0.033-0.007-0.002-0.014-0.005-0.021-0.007-0.029-0.007-0.059-0.011-0.090-0.011h-9.477c-0.433 0-0.784 0.352-0.784 0.784v6.369h-0.48c-0.619 0-1.121 0.502-1.121 1.121v5.83c0 0.619 0.502 1.121 1.121 1.121h0.48v3.99c0 0.432 0.352 0.784 0.784 0.784h12.941c0.432 0 0.784-0.352 0.784-0.784v-3.99h0.48c0.619 0 1.121-0.502 1.121-1.121v-5.829c-0-0.619-0.502-1.121-1.121-1.121zM3.529 0.784h9.085v4.013c0 0.217 0.176 0.392 0.392 0.392h3.464v1.965h-12.941v-6.37zM8.509 12.195v1.664h-1.147v-5.525h1.459l1.148 2.025c0.328 0.582 0.656 1.27 0.901 1.894h0.025c-0.082-0.73-0.107-1.476-0.107-2.304v-1.615h1.148v5.525h-1.311l-1.181-2.132c-0.329-0.59-0.689-1.303-0.96-1.951l-0.024 0.008c0.034 0.73 0.049 1.508 0.049 2.41zM2.598 13.859v-5.451c0.385-0.066 0.927-0.115 1.689-0.115 0.77 0 1.32 0.147 1.689 0.443 0.352 0.279 0.59 0.738 0.59 1.279s-0.18 1-0.508 1.312c-0.426 0.402-1.057 0.582-1.795 0.582-0.164 0-0.312-0.008-0.426-0.025v1.976l-1.238-0zM16.471 19.003h-12.941v-3.778h12.941v3.778zM17.634 13.605c-0.385 0.131-1.115 0.312-1.845 0.312-1.008 0-1.738-0.254-2.246-0.746-0.508-0.476-0.787-1.197-0.779-2.009 0.008-1.836 1.345-2.885 3.156-2.885 0.713 0 1.263 0.139 1.533 0.27l-0.262 1c-0.304-0.131-0.681-0.238-1.287-0.238-1.041 0-1.828 0.59-1.828 1.787 0 1.14 0.713 1.812 1.738 1.812 0.287 0 0.516-0.033 0.615-0.082v-1.156h-0.853v-0.976h2.058v2.91z"></path>
</svg>
