<!-- Generated by IcoMoon.io -->
<svg version="1.1" xmlns="http://www.w3.org/2000/svg" width="20" height="20" viewBox="0 0 20 20">
<title>ppt-business-presentation-file-format-symbol</title>
<path d="M10.197 9.162c-0.269 0-0.452 0.026-0.547 0.052v1.729c0.113 0.026 0.252 0.035 0.443 0.035 0.704 0 1.138-0.356 1.138-0.956 0-0.539-0.374-0.86-1.034-0.86z"></path>
<path d="M6.182 10.022c0-0.539-0.373-0.86-1.034-0.86-0.269 0-0.452 0.026-0.547 0.052v1.729c0.113 0.026 0.252 0.035 0.443 0.035 0.704 0 1.138-0.356 1.138-0.956z"></path>
<path d="M17.735 7.154h-0.48v-2.317c0-0.014-0.002-0.029-0.004-0.044-0.001-0.092-0.030-0.182-0.093-0.254l-3.856-4.405c-0.001-0.001-0.002-0.002-0.003-0.003-0.023-0.026-0.050-0.047-0.078-0.066-0.008-0.006-0.017-0.010-0.026-0.015-0.025-0.013-0.051-0.025-0.077-0.033-0.007-0.002-0.014-0.005-0.021-0.007-0.029-0.007-0.059-0.011-0.090-0.011h-9.477c-0.433 0-0.784 0.352-0.784 0.784v6.369h-0.48c-0.619 0-1.121 0.502-1.121 1.121v5.83c0 0.619 0.502 1.121 1.121 1.121h0.48v3.99c0 0.432 0.352 0.784 0.784 0.784h12.941c0.432 0 0.784-0.352 0.784-0.784v-3.99h0.48c0.619 0 1.121-0.502 1.121-1.121v-5.829c-0-0.619-0.502-1.121-1.121-1.121zM3.529 0.784h9.085v4.013c0 0.217 0.176 0.392 0.392 0.392h3.464v1.965h-12.941v-6.37zM12.543 9.987c0 0.574-0.191 1.060-0.538 1.39-0.452 0.425-1.121 0.617-1.903 0.617-0.174 0-0.33-0.009-0.452-0.026v2.094h-1.312v-5.778c0.408-0.069 0.982-0.122 1.79-0.122 0.817 0 1.399 0.157 1.79 0.469 0.374 0.296 0.626 0.782 0.626 1.355zM3.288 14.062v-5.778c0.408-0.069 0.982-0.122 1.79-0.122 0.817 0 1.399 0.157 1.79 0.469 0.374 0.296 0.626 0.782 0.626 1.356s-0.191 1.060-0.538 1.39c-0.452 0.426-1.121 0.617-1.903 0.617-0.174 0-0.33-0.009-0.452-0.026v2.094h-1.312zM16.471 19.003h-12.941v-3.778h12.941v3.778zM17.444 9.318h-1.599v4.744h-1.329v-4.744h-1.573v-1.112h4.501v1.112z"></path>
</svg>
