<!-- Generated by IcoMoon.io -->
<svg version="1.1" xmlns="http://www.w3.org/2000/svg" width="22" height="20" viewBox="0 0 22 20">
<title>practice</title>
<path d="M10.597 0.038c-0.057 0.042-0.093 0.188-0.278 1.153-0.105 0.562-0.115 0.639-0.054 0.687 0.038 0.032 0.489 0.131 0.933 0.201 0.339 0.058 1.61 0.058 1.949 0.003 0.46-0.077 0.891-0.169 0.933-0.204 0.022-0.019 0.042-0.070 0.042-0.115 0-0.099-0.281-1.55-0.319-1.652-0.042-0.109-0.115-0.118-0.431-0.051-0.818 0.179-1.633 0.166-2.62-0.045-0.057-0.013-0.118-0.003-0.153 0.022zM12.428 0.751c0 0.105 0.006 0.112 0.112 0.112h0.112v0.511h-0.112c-0.105 0-0.112 0.006-0.112 0.112v0.112h-0.511v-0.112c0-0.105-0.006-0.112-0.112-0.112h-0.112v-0.511h0.112c0.105 0 0.112-0.006 0.112-0.112v-0.112h0.511v0.112z"></path>
<path d="M10.24 2.55c-0.080 0.23-0.099 0.712-0.035 0.965 0.169 0.674 0.658 1.192 1.332 1.422 0.224 0.073 0.326 0.089 0.604 0.093 0.399 0.003 0.597-0.042 0.958-0.211 0.505-0.24 0.898-0.735 1.042-1.304 0.077-0.304 0.035-0.904-0.077-1.077-0.016-0.026-0.096-0.019-0.31 0.022-1.099 0.23-2.265 0.214-3.393-0.048-0.057-0.013-0.077 0.006-0.121 0.137z"></path>
<path d="M10.137 5.46c-0.089 0.029-0.214 0.093-0.272 0.137-0.080 0.061-0.463 0.706-1.569 2.639-0.802 1.403-1.46 2.565-1.46 2.581s0.339 0.211 0.751 0.431c0.524 0.284 0.757 0.393 0.776 0.367 0.016-0.019 0.262-0.447 0.55-0.952s0.527-0.914 0.53-0.911c0.003 0.003-0.099 0.486-0.23 1.073s-0.236 1.093-0.236 1.121c0 0.035 0.335 0.233 1.073 0.633l1.073 0.578 2.035-0.521c1.118-0.288 2.080-0.534 2.137-0.546 0.054-0.013 0.102-0.032 0.102-0.042 0-0.013-0.153-0.709-0.339-1.55-0.185-0.843-0.329-1.537-0.323-1.546 0.010-0.006 0.147 0.173 0.304 0.399 0.377 0.534 0.54 0.645 0.946 0.645 0.24 0 0.249-0.003 1.668-0.767 0.594-0.319 1.131-0.626 1.188-0.684 0.246-0.227 0.329-0.607 0.198-0.907-0.086-0.201-0.297-0.403-0.476-0.457-0.115-0.035-0.141-0.061-0.208-0.208-0.153-0.332-0.489-0.581-0.888-0.655-0.712-0.131-1.396 0.409-1.412 1.112 0 0.109 0.006 0.204 0.016 0.217 0.013 0.010 0.157-0.038 0.319-0.105 0.272-0.115 0.304-0.141 0.332-0.233 0.016-0.058 0.080-0.157 0.144-0.22 0.355-0.355 0.958-0.112 0.958 0.383 0 0.38-0.447 0.668-0.78 0.495-0.048-0.026-0.105-0.048-0.121-0.048s-0.473 0.188-1.010 0.419c-1.227 0.527-1.316 0.553-1.812 0.556-0.339 0-0.415-0.010-0.668-0.093-0.696-0.23-1.208-0.764-1.406-1.476l-0.067-0.249-0.157-0.038c-0.224-0.058-0.521-0.214-0.696-0.364-0.31-0.268-0.537-0.735-0.537-1.105v-0.173h-0.134c-0.077 0.003-0.211 0.029-0.304 0.061z"></path>
<path d="M11.157 5.597c0.022 0.364 0.252 0.687 0.601 0.853 0.15 0.070 0.22 0.083 0.479 0.083 0.358 0 0.514-0.058 0.751-0.275 0.195-0.182 0.307-0.406 0.329-0.658l0.016-0.201h-2.188l0.013 0.198z"></path>
<path d="M13.898 5.55c0 0.355-0.195 0.783-0.489 1.070-0.188 0.188-0.54 0.39-0.744 0.428-0.128 0.022-0.128 0.038-0.045 0.284 0.252 0.728 1.045 1.166 1.827 1.003 0.204-0.042 1.527-0.597 1.527-0.639 0-0.019-0.319-0.486-0.709-1.042-0.748-1.058-0.805-1.121-1.099-1.211-0.249-0.073-0.268-0.067-0.268 0.105z"></path>
<path d="M2.099 7.463c-0.387 0.093-0.812 0.364-1.038 0.661-0.275 0.361-0.39 0.703-0.39 1.163 0 0.837 0.581 1.569 1.422 1.783 0.243 0.061 0.748 0.061 0.99 0 1.428-0.364 1.927-2.077 0.898-3.099-0.262-0.259-0.518-0.406-0.869-0.495-0.291-0.077-0.735-0.080-1.013-0.013z"></path>
<path d="M4.578 11.006c-0.668 0.144-1.185 0.687-1.291 1.355-0.093 0.559 0.153 1.173 0.601 1.508 0.128 0.096 5.454 2.99 6.102 3.316 0.291 0.144 0.578 0.204 0.888 0.185 0.188-0.013 0.85-0.169 2.553-0.61l2.294-0.591 2.115 0.69c2.045 0.671 2.121 0.693 2.419 0.706 0.537 0.022 0.923-0.121 1.294-0.489 0.262-0.259 0.403-0.521 0.463-0.859 0.118-0.687-0.243-1.399-0.866-1.709-0.272-0.137-4.898-1.636-5.153-1.671-0.144-0.019-0.291-0.019-0.431 0.003-0.118 0.019-1.188 0.284-2.377 0.591l-2.166 0.556-2.514-1.358c-1.387-0.748-2.617-1.409-2.738-1.47-0.377-0.192-0.783-0.243-1.192-0.153z"></path>
<path d="M0.735 13.288c-0.3 0.093-0.597 0.371-0.69 0.649-0.038 0.115-0.048 0.23-0.038 0.406 0.019 0.288 0.096 0.463 0.291 0.649 0.093 0.089 1.473 0.869 4.431 2.508 2.364 1.31 4.374 2.409 4.466 2.441 0.163 0.061 0.332 0.061 5.911 0.054l5.741-0.010 0.179-0.089c0.214-0.102 0.422-0.316 0.518-0.527 0.105-0.233 0.096-0.575-0.019-0.812-0.112-0.227-0.351-0.447-0.585-0.534-0.173-0.067-0.204-0.067-5.626-0.067h-5.45l-4.096-2.268c-2.252-1.246-4.176-2.304-4.268-2.348-0.141-0.064-0.22-0.080-0.428-0.077-0.141 0-0.291 0.013-0.335 0.026z"></path>
</svg>
