<!-- Generated by IcoMoon.io -->
<svg version="1.1" xmlns="http://www.w3.org/2000/svg" width="20" height="20" viewBox="0 0 20 20">
<title>printer</title>
<path d="M16.549 4.099h-0.514v-1.144c0-1.629-1.326-2.955-2.955-2.955h-6.205c-1.629 0-2.955 1.326-2.955 2.955v1.144h-0.468c-1.629 0-2.955 1.326-2.955 2.955v4.767c0 1.629 1.326 2.955 2.955 2.955h0.464v3.747c0 0.812 0.663 1.476 1.476 1.476h9.165c0.812 0 1.476-0.663 1.476-1.476v-3.747h0.518c1.629 0 2.955-1.326 2.955-2.955v-4.767c0-1.629-1.326-2.955-2.955-2.955zM5.034 2.955c0-1.011 0.825-1.836 1.836-1.836h6.201c1.011 0 1.836 0.825 1.836 1.836v1.144h-9.874v-1.144zM14.912 18.533c0 0.195-0.162 0.356-0.356 0.356h-9.165c-0.195 0-0.356-0.162-0.356-0.356v-6.18h9.878v6.18zM18.385 11.826c0 1.011-0.825 1.836-1.836 1.836h-0.514v-1.31h0.738c0.311 0 0.56-0.249 0.56-0.56s-0.249-0.56-0.56-0.56h-13.679c-0.311 0-0.56 0.249-0.56 0.56s0.249 0.56 0.56 0.56h0.825v1.31h-0.468c-1.011 0-1.836-0.825-1.836-1.836v-4.767c0-1.011 0.825-1.836 1.836-1.836h13.098c1.011 0 1.836 0.825 1.836 1.836v4.767z"></path>
<path d="M6.39 15.105h7.125c0.311 0 0.56-0.249 0.56-0.56s-0.249-0.56-0.56-0.56h-7.125c-0.311 0-0.56 0.249-0.56 0.56s0.253 0.56 0.56 0.56z"></path>
<path d="M13.561 16.274h-7.13c-0.311 0-0.56 0.249-0.56 0.56s0.249 0.56 0.56 0.56h7.125c0.311 0 0.56-0.249 0.56-0.56s-0.249-0.56-0.555-0.56z"></path>
<path d="M16.537 6.296h-1.136c-0.311 0-0.56 0.249-0.56 0.56s0.249 0.56 0.56 0.56h1.136c0.311 0 0.56-0.249 0.56-0.56s-0.249-0.56-0.56-0.56z"></path>
</svg>
