<!-- Generated by IcoMoon.io -->
<svg version="1.1" xmlns="http://www.w3.org/2000/svg" width="20" height="20" viewBox="0 0 20 20">
<title>prison</title>
<path d="M8.258 0.968c0-0.043 0.002-0.086 0.005-0.129-1.58 0.845-2.695 2.81-2.724 5.107h2.718v-4.979z"></path>
<path d="M11.742 5.946h2.718c-0.029-2.298-1.143-4.262-2.724-5.107 0.003 0.043 0.005 0.085 0.005 0.129v4.979z"></path>
<path d="M8.258 9.43c-0.505 0-0.407 0-1.822 0 0.42 0.703 0.966 1.278 1.597 1.671l-0.094 1.174-4.358 1.264v5.493c0 0.2-0.034 0.393-0.097 0.572h4.872c-0.063-0.179-0.097-0.372-0.097-0.572-0-0.493-0-9.342-0-9.602z"></path>
<path d="M16.419 13.539l-4.358-1.264-0.094-1.174c0.631-0.392 1.177-0.967 1.597-1.671-2.478 0-1.513 0-1.822 0 0 0.263 0 9.122 0 9.602 0 0.2-0.034 0.393-0.097 0.572h4.872c-0.063-0.179-0.097-0.372-0.097-0.572v-5.493z"></path>
<path d="M9.032 19.032c0 0.534 0.433 0.968 0.968 0.968s0.968-0.433 0.968-0.968v-9.602h-1.935v9.602z"></path>
<path d="M10.968 0.968c0-0.534-0.433-0.968-0.968-0.968s-0.968 0.433-0.968 0.968v4.979h1.935v-4.979z"></path>
<path d="M0.871 9.427v9.605c0 0.534 0.433 0.968 0.968 0.968s0.968-0.433 0.968-0.968v-9.602c-1.999 0-1.862 0.001-1.935-0.003z"></path>
<path d="M2.806 5.946v-4.979c0-0.534-0.433-0.968-0.968-0.968s-0.968 0.433-0.968 0.968v4.981c0.074-0.004-0.063-0.003 1.935-0.003z"></path>
<path d="M17.194 9.43v9.602c0 0.534 0.433 0.968 0.968 0.968s0.968-0.433 0.968-0.968v-9.605c-0.074 0.004 0.063 0.003-1.935 0.003z"></path>
<path d="M19.129 5.949v-4.981c0-0.534-0.433-0.968-0.968-0.968s-0.968 0.433-0.968 0.968v4.979c2 0 1.862-0.001 1.935 0.003z"></path>
<path d="M19.032 6.72h-18.065c-0.534 0-0.968 0.433-0.968 0.968s0.433 0.968 0.968 0.968h18.065c0.534 0 0.968-0.433 0.968-0.968s-0.433-0.968-0.968-0.968z"></path>
</svg>
