<!-- Generated by IcoMoon.io -->
<svg version="1.1" xmlns="http://www.w3.org/2000/svg" width="20" height="20" viewBox="0 0 20 20">
<title>providerreturn</title>
<path d="M7.866 0.031c-1.266 0.2-2.125 0.797-2.647 1.834-0.366 0.734-0.553 1.831-0.475 2.8 0.031 0.353 0.028 0.437-0.013 0.569-0.059 0.197-0.069 0.603-0.012 0.828 0.084 0.359 0.294 0.728 0.65 1.147 0.125 0.147 0.203 0.275 0.253 0.416 0.112 0.316 0.409 0.891 0.625 1.219 0.384 0.578 0.997 1.097 1.534 1.306 0.481 0.188 1.131 0.228 1.609 0.103 1.013-0.266 1.884-1.166 2.437-2.516 0.103-0.256 0.169-0.369 0.316-0.531 0.25-0.284 0.516-0.713 0.603-0.975 0.141-0.431 0.116-0.884-0.069-1.25-0.072-0.138-0.072-0.147-0.025-0.381 0.069-0.362 0.066-1.384-0.003-1.712-0.281-1.291-1.078-2.184-2.347-2.634-0.522-0.181-0.809-0.228-1.569-0.237-0.378-0.006-0.769 0-0.869 0.016zM10.944 3.231c0.066 0.134 0.166 0.366 0.219 0.513 0.116 0.328 0.297 0.703 0.381 0.797 0.063 0.066 0.066 0.094 0.044 0.428-0.056 0.95-0.303 1.941-0.681 2.741-0.475 0.997-1.109 1.597-1.856 1.75-0.437 0.088-0.881-0.016-1.316-0.306-0.834-0.559-1.509-1.931-1.747-3.563-0.072-0.481-0.075-0.469 0.109-0.553 0.188-0.091 0.75-0.622 1.091-1.031 0.128-0.156 0.238-0.275 0.241-0.262s-0.063 0.269-0.144 0.569c-0.081 0.3-0.138 0.55-0.125 0.556 0.059 0.025 1.1-0.353 1.45-0.525 0.378-0.181 0.847-0.509 1.206-0.837 0.172-0.156 0.175-0.159 0.209-0.091 0.050 0.109 0.256 0.334 0.306 0.334 0.025 0 0.059-0.037 0.078-0.087 0.044-0.106 0.184-0.797 0.184-0.894 0-0.187 0.063-0.103 0.35 0.463z"></path>
<path d="M16.734 8.581c-0.291 0.047-0.65 0.153-0.881 0.262-1.041 0.488-1.697 1.512-1.697 2.659 0 1.087 0.628 2.116 1.594 2.606 1.109 0.562 2.481 0.372 3.369-0.466 0.588-0.556 0.891-1.203 0.934-1.994 0.078-1.397-0.856-2.659-2.212-2.994-0.256-0.066-0.897-0.106-1.106-0.075zM16.95 10.456c0.009 0.028 0.019 0.197 0.019 0.378v0.331l0.384-0.022c0.813-0.044 1.222-0.219 1.578-0.672 0.172-0.222 0.175 0.234 0.003 0.584-0.153 0.316-0.416 0.556-0.816 0.753-0.288 0.144-0.697 0.275-1.031 0.331l-0.119 0.019v0.306c0 0.506 0.050 0.516-0.894-0.188-0.444-0.334-0.809-0.625-0.809-0.644 0-0.044 1.569-1.228 1.628-1.228 0.019 0 0.047 0.022 0.056 0.050z"></path>
<path d="M4.797 10.125c-1.237 0.456-1.325 0.494-1.734 0.762-1.222 0.803-2.15 1.938-2.672 3.266-0.213 0.55-0.431 1.556-0.378 1.763 0.031 0.128 1.147 1.234 1.619 1.609 1.65 1.306 3.519 2.1 5.65 2.397 0.553 0.078 2.016 0.097 2.616 0.034 1.425-0.15 2.647-0.5 3.9-1.113 1.303-0.634 2.553-1.591 3.528-2.694l0.213-0.244-0.053-0.319c-0.028-0.178-0.059-0.334-0.069-0.35s-0.094-0.019-0.188-0.009c-0.234 0.025-0.703-0.028-1.059-0.119-0.372-0.094-0.719-0.244-1.066-0.459-0.353-0.216-0.913-0.762-1.134-1.103-0.559-0.866-0.747-1.856-0.528-2.803 0.037-0.169 0.063-0.313 0.056-0.322-0.019-0.019-1.897-0.703-1.931-0.703-0.013 0-0.094 0.169-0.178 0.378-0.125 0.309-0.144 0.381-0.106 0.403 0.025 0.016 0.169 0.072 0.322 0.128 0.216 0.075 0.275 0.109 0.262 0.15-0.075 0.284-2.319 7.591-2.328 7.584-0.013-0.012-0.288-4.738-0.288-4.95v-0.131h-0.963l-0.016 0.163c-0.012 0.091-0.078 1.231-0.153 2.534-0.072 1.303-0.138 2.359-0.141 2.344-0.003-0.012-0.519-1.706-1.147-3.759-0.625-2.053-1.144-3.759-1.15-3.791-0.006-0.050 0.044-0.078 0.284-0.166 0.162-0.059 0.3-0.112 0.306-0.119 0.028-0.025-0.3-0.753-0.338-0.759-0.025-0.003-0.534 0.175-1.137 0.397zM13.994 16.569l-0.009 0.225-0.156 0.059c-0.244 0.091-0.813 0.234-1.141 0.284-0.431 0.069-1.172 0.122-1.397 0.097l-0.197-0.022v-0.425h0.572c0.834-0.003 1.472-0.109 2.056-0.344 0.128-0.053 0.244-0.094 0.256-0.097s0.022 0.097 0.016 0.222z"></path>
<path d="M7.944 11.9c-0.072 0.188-0.131 0.359-0.131 0.384s0.097 0.178 0.213 0.341l0.213 0.297 0.512 0.009 0.516 0.006 0.116-0.163c0.063-0.091 0.166-0.237 0.228-0.325l0.113-0.159-0.141-0.356-0.138-0.356-0.684-0.009-0.688-0.006-0.128 0.337z"></path>
</svg>
