<!-- Generated by IcoMoon.io -->
<svg version="1.1" xmlns="http://www.w3.org/2000/svg" width="20" height="20" viewBox="0 0 20 20">
<title>refresh-button</title>
<path d="M2.271 8.359c0.643 0 1.224-0.386 1.472-0.979 1.027-2.447 3.442-4.171 6.257-4.171 1.552 0 2.974 0.532 4.114 1.414l-0.894 0.138c-0.305 0.047-0.543 0.29-0.584 0.596s0.123 0.603 0.405 0.729l4.915 2.211c0.215 0.097 0.465 0.078 0.664-0.049s0.319-0.347 0.32-0.583l0.025-5.416c0.002-0.308-0.199-0.581-0.494-0.67s-0.614 0.024-0.784 0.281l-0.677 1.018c-1.806-1.778-4.281-2.877-7.011-2.877-4.138 0-7.696 2.527-9.213 6.119-0.211 0.498-0.158 1.068 0.141 1.518s0.803 0.722 1.343 0.722z"></path>
<path d="M19.073 12.363c-0.298-0.451-0.803-0.722-1.343-0.722-0.643 0-1.224 0.386-1.472 0.979-1.027 2.447-3.442 4.171-6.257 4.171-1.552 0-2.974-0.532-4.114-1.414l0.894-0.138c0.305-0.047 0.543-0.29 0.584-0.596s-0.123-0.603-0.405-0.729l-4.915-2.211c-0.216-0.097-0.465-0.078-0.664 0.049s-0.319 0.347-0.32 0.583l-0.026 5.416c-0.002 0.308 0.199 0.581 0.494 0.67s0.614-0.024 0.784-0.281l0.677-1.018c1.806 1.778 4.281 2.877 7.011 2.877 4.138 0 7.696-2.527 9.213-6.119 0.211-0.498 0.158-1.068-0.141-1.518z"></path>
</svg>
