<!-- Generated by IcoMoon.io -->
<svg version="1.1" xmlns="http://www.w3.org/2000/svg" width="20" height="20" viewBox="0 0 20 20">
<title>reload</title>
<path d="M10.317 0.422c-0.795-0.021-1.599 0.064-2.392 0.259-3.172 0.783-5.665 3.23-6.494 6.375-0.143 0.492 0.143 1.005 0.637 1.147s1.011-0.142 1.153-0.633c0.004-0.014 0.008-0.029 0.011-0.043 0.658-2.492 2.627-4.426 5.141-5.047 2.365-0.584 4.851 0.083 6.597 1.743-0.571 0.544-0.931 1.307-0.931 2.15 0 1.633 1.346 2.977 2.981 2.977s2.98-1.344 2.98-2.977c0-1.633-1.345-2.977-2.98-2.977-0.089 0-0.177 0.005-0.264 0.013-0.028-0.041-0.059-0.079-0.094-0.115-1.659-1.795-3.96-2.808-6.345-2.872zM17.020 5.256c0.628 0 1.118 0.489 1.118 1.116s-0.489 1.116-1.118 1.116-1.118-0.489-1.118-1.116 0.49-1.116 1.118-1.116z"></path>
<path d="M2.98 10.651c-1.635 0-2.98 1.344-2.98 2.977s1.345 2.977 2.98 2.977c0.089 0 0.176-0.006 0.263-0.014 0.028 0.041 0.060 0.079 0.094 0.115 1.659 1.795 3.96 2.809 6.345 2.873 0.795 0.021 1.599-0.064 2.392-0.259 3.172-0.783 5.665-3.23 6.494-6.375 0.143-0.492-0.142-1.005-0.637-1.147s-1.011 0.142-1.153 0.633c-0.004 0.014-0.008 0.029-0.012 0.044-0.658 2.492-2.627 4.426-5.141 5.047-2.365 0.584-4.851-0.083-6.597-1.743 0.571-0.544 0.931-1.307 0.931-2.15 0-1.633-1.346-2.977-2.981-2.977v0zM2.98 12.512c0.628 0 1.118 0.489 1.118 1.116s-0.49 1.116-1.118 1.116c-0.628 0-1.118-0.489-1.118-1.116s0.489-1.116 1.118-1.116z"></path>
</svg>
