<!-- Generated by IcoMoon.io -->
<svg version="1.1" xmlns="http://www.w3.org/2000/svg" width="20" height="20" viewBox="0 0 20 20">
<title>resolution</title>
<path fill="#dfaf46" d="M7.496 0.433c-0.386 0.104-0.441 0.15-1.743 1.45-1.379 1.377-1.383 1.382-1.466 1.897-0.173 1.076 0.96 2.011 1.97 1.627 0.146-0.056 0.177-0.037 0.534 0.325l0.351 0.356-3.199 3.204c-3.279 3.284-3.348 3.357-3.461 3.693-0.382 1.135 0.703 2.252 1.854 1.908 0.349-0.105 0.404-0.156 3.699-3.446l3.235-3.23 0.752 0.726-0.067 0.199c-0.418 1.238 0.9 2.364 2.105 1.797 0.352-0.166 2.602-2.431 2.773-2.793 0.569-1.199-0.579-2.498-1.831-2.071l-0.166 0.057-3.597-3.597 0.054-0.156c0.389-1.116-0.661-2.252-1.797-1.946zM8.084 1.46c0.224 0.106 0.329 0.402 0.223 0.625-0.079 0.166-2.215 2.284-2.367 2.347-0.386 0.161-0.776-0.247-0.601-0.63 0.071-0.155 2.156-2.258 2.326-2.345 0.124-0.064 0.282-0.063 0.42 0.002zM10.328 5.064l1.736 1.736-1.376 1.375-3.488-3.487 0.68-0.68c0.374-0.374 0.687-0.68 0.696-0.68s0.798 0.781 1.752 1.736zM5.408 10.641c-1.734 1.734-3.201 3.184-3.26 3.221-0.401 0.251-0.908-0.242-0.659-0.64 0.030-0.048 1.482-1.508 3.227-3.246l3.172-3.16 0.672 0.671-3.152 3.153zM13.754 7.091c0.141 0.093 0.203 0.235 0.19 0.439l-0.012 0.186-1.134 1.137c-0.629 0.631-1.18 1.157-1.237 1.182-0.394 0.171-0.805-0.274-0.603-0.653 0.076-0.143 2.23-2.271 2.354-2.325 0.128-0.056 0.326-0.041 0.442 0.034zM9.92 12.63c-0.67 0.112-1.167 0.647-1.253 1.347-0.107 0.876-0.008 1.435 0.279 1.576 0.185 0.090 6.217 0.101 6.391 0.011 0.275-0.142 0.285-0.182 0.273-1.104l-0.010-0.751-0.12-0.243c-0.197-0.399-0.565-0.695-1.006-0.81-0.174-0.045-4.298-0.068-4.554-0.026zM14.39 13.714c0.16 0.116 0.234 0.312 0.234 0.613v0.265h-4.96l0.001-0.248c0.002-0.374 0.093-0.574 0.303-0.667 0.184-0.082 4.306-0.047 4.422 0.037z"></path>
</svg>
