<!-- Generated by IcoMoon.io -->
<svg version="1.1" xmlns="http://www.w3.org/2000/svg" width="20" height="20" viewBox="0 0 20 20">
<title>rotate</title>
<path d="M10 20c-4.996 0-9.061-4.069-9.061-9.064s4.064-9.062 9.061-9.062c0.332 0 0.667 0.019 1.001 0.057v-1.465c0-0.188 0.116-0.359 0.287-0.432 0.178-0.069 0.376-0.030 0.512 0.105l3.21 3.217c0.183 0.183 0.183 0.474 0 0.659l-3.209 3.224c-0.137 0.133-0.335 0.174-0.513 0.101-0.171-0.074-0.287-0.243-0.287-0.431v-1.625c-0.332-0.061-0.666-0.088-1.001-0.088-3.165 0-5.741 2.575-5.741 5.739s2.576 5.741 5.741 5.741 5.739-2.578 5.739-5.741c0-0.257 0.209-0.467 0.468-0.467h2.384c0.258 0 0.468 0.21 0.468 0.467 0 4.995-4.067 9.064-9.060 9.064z"></path>
</svg>
