<!-- Generated by IcoMoon.io -->
<svg version="1.1" xmlns="http://www.w3.org/2000/svg" width="20" height="20" viewBox="0 0 20 20">
<title>rubbish-bin</title>
<path fill="#d80027" d="M16.541 2.355h-2.67v-1.735c0-0.349-0.282-0.62-0.631-0.62-0.034 0-0.056 0.011-0.068 0.023-0.011-0.011-0.034-0.023-0.045-0.023h-6.366c-0.349 0-0.62 0.27-0.62 0.62v1.735h-2.682c-0.766 0-1.363 0.597-1.363 1.363v2.231h1.183v12.698c0 0.766 0.586 1.352 1.352 1.352h10.738c0.766 0 1.363-0.586 1.363-1.352v-12.698h1.172v-2.231c0-0.766-0.597-1.363-1.363-1.363zM7.38 1.239h5.24v1.116h-5.24v-1.116zM15.482 18.648c0 0.079-0.034 0.113-0.113 0.113h-10.738c-0.079 0-0.113-0.034-0.113-0.113v-12.699h10.963v12.699zM16.654 4.71h-13.307v-0.992c0-0.079 0.034-0.124 0.113-0.124h13.082c0.079 0 0.113 0.045 0.113 0.124v0.992z"></path>
<path fill="#d80027" d="M12.27 7.403h1.251v10.253h-1.251v-10.253z"></path>
<path fill="#d80027" d="M9.386 7.403h1.251v10.253h-1.251v-10.253z"></path>
<path fill="#d80027" d="M6.501 7.403h1.251v10.253h-1.251v-10.253z"></path>
</svg>
