<!-- Generated by IcoMoon.io -->
<svg version="1.1" xmlns="http://www.w3.org/2000/svg" width="25" height="20" viewBox="0 0 25 20">
<title>s_tab12</title>
<path fill="#555" d="M4.544 2.068c-0.042 0.023-0.106 0.043-0.141 0.046s-0.078 0.006-0.095 0.008c-0.018 0.002-0.024 0.021-0.015 0.046 0.010 0.026 0.006 0.036-0.011 0.026-0.035-0.022-0.186 0.054-0.205 0.103-0.011 0.027-0.020 0.029-0.033 0.008-0.012-0.019-0.029-0.001-0.046 0.049-0.015 0.044-0.034 0.079-0.041 0.079s-0.006-0.020 0.003-0.045c0.015-0.039 0.011-0.040-0.026-0.010-0.024 0.019-0.043 0.051-0.043 0.070s-0.020 0.035-0.045 0.036c-0.038 0-0.039 0.004-0.007 0.024s0.031 0.026-0.006 0.041c-0.024 0.009-0.044 0.034-0.044 0.054s-0.009 0.031-0.021 0.024c-0.011-0.007-0.042 0.023-0.068 0.066s-0.034 0.071-0.017 0.061 0.029-0.007 0.029 0.007c0 0.014-0.012 0.029-0.026 0.034-0.063 0.021-0.104 0.584-0.047 0.654 0.024 0.030 0.025 0.037 0.003 0.024-0.018-0.011-0.032-0.008-0.032 0.006s0.013 0.033 0.028 0.043c0.055 0.034 0.098 0.174 0.066 0.215-0.023 0.029-0.023 0.033 0.002 0.018 0.022-0.013 0.032 0 0.032 0.045 0 0.035 0.014 0.073 0.032 0.085 0.047 0.030 0.119 0.126 0.074 0.099-0.023-0.014-0.020 0.002 0.009 0.046 0.024 0.037 0.054 0.061 0.066 0.053s0.015 0.007 0.006 0.032c-0.009 0.025-0.008 0.038 0.003 0.028 0.020-0.018 0.108 0.053 0.099 0.080-0.003 0.008 0.020 0.029 0.051 0.046s0.047 0.032 0.036 0.032c-0.011 0.001 0.004 0.027 0.034 0.059l0.054 0.058-0.066 0.008c-0.036 0.004-0.060 0.018-0.053 0.030s-0.010 0.015-0.038 0.008c-0.028-0.007-0.051-0.001-0.051 0.014s-0.040 0.035-0.089 0.044c-0.049 0.009-0.083 0.027-0.075 0.040s-0.004 0.023-0.026 0.023-0.040 0.012-0.040 0.026c0 0.014-0.009 0.024-0.019 0.023-0.060-0.009-0.108 0.007-0.102 0.035 0.004 0.018-0.021 0.033-0.058 0.034s-0.061 0.015-0.057 0.034c0.004 0.018-0.003 0.026-0.016 0.018s-0.053 0.015-0.089 0.052c-0.040 0.040-0.079 0.058-0.099 0.047-0.018-0.011-0.026-0.011-0.016-0 0.021 0.023-0.075 0.124-0.103 0.107-0.011-0.007-0.048 0.033-0.082 0.089s-0.074 0.101-0.088 0.101c-0.041 0.001-0.141 0.117-0.141 0.164 0 0.023-0.017 0.048-0.037 0.056s-0.031 0.029-0.024 0.048-0.001 0.042-0.018 0.053c-0.021 0.013-0.025 0.008-0.013-0.017 0.010-0.020 0.001-0.014-0.022 0.014s-0.040 0.069-0.040 0.093-0.018 0.050-0.040 0.059c-0.027 0.010-0.035 0.033-0.024 0.067 0.010 0.032 0.005 0.051-0.015 0.051-0.017 0-0.024 0.007-0.015 0.016s0.004 0.039-0.011 0.067c-0.022 0.041-0.020 0.047 0.007 0.030s0.029-0.014 0.001 0.020c-0.027 0.033-0.027 0.043 0 0.054 0.025 0.010 0.026 0.014 0.001 0.015-0.045 0.003-0.041 0.16 0.006 0.221 0.021 0.027 0.038 0.040 0.038 0.028 0.001-0.020 0.177 0.076 0.206 0.111 0.023 0.029 0.106 0.052 0.089 0.025-0.009-0.014-0.003-0.025 0.011-0.025s0.027 0.011 0.027 0.024c0 0.013 0.040 0.032 0.090 0.041s0.090 0.028 0.090 0.042c0 0.015 0.036 0.019 0.090 0.009 0.056-0.010 0.090-0.007 0.090 0.010s0.037 0.022 0.090 0.015c0.049-0.006 0.090-0.001 0.090 0.012s0.032 0.023 0.070 0.023c0.19-0.002 0.48 0.029 0.488 0.053 0.005 0.015 0.037 0.027 0.072 0.027 0.041 0 0.057-0.010 0.045-0.030-0.013-0.020-0.007-0.022 0.018-0.006 0.043 0.028 0.279 0.031 0.262 0.004-0.007-0.011 0-0.019 0.015-0.019s0.027 0.009 0.027 0.020c0 0.032 0.24 0.014 0.252-0.020 0.014-0.041-0.126-0.184-0.165-0.169-0.017 0.007-0.037-0.005-0.045-0.026-0.010-0.025-0.004-0.032 0.017-0.020 0.017 0.010 0.004-0.012-0.030-0.050s-0.072-0.068-0.085-0.068c-0.037 0-0.095-0.069-0.076-0.089 0.010-0.010 0.006-0.016-0.008-0.013-0.054 0.011-0.092-0.002-0.077-0.026 0.009-0.014 0.006-0.026-0.006-0.026-0.087 0-0.118-0.070-0.062-0.14 0.030-0.039 0.049-0.081 0.040-0.095s0.006-0.040 0.032-0.060c0.026-0.020 0.037-0.036 0.025-0.037s-0.007-0.020 0.013-0.044c0.030-0.037 0.030-0.041-0.003-0.024-0.021 0.011-0.017 0.003 0.008-0.018s0.046-0.045 0.045-0.053c-0.001-0.008-0-0.021 0.001-0.028s0.006-0.024 0.010-0.038c0.004-0.014 0.008-0.038 0.010-0.053s0.017-0.019 0.033-0.009c0.020 0.013 0.025 0.001 0.015-0.037-0.008-0.030-0.005-0.050 0.006-0.043s0.027-0.005 0.036-0.027c0.008-0.022 0.004-0.033-0.009-0.025s-0.022-0.009-0.020-0.038c0.002-0.031 0.017-0.047 0.037-0.040 0.029 0.011 0.046-0.035 0.035-0.096-0.002-0.012 0.008-0.014 0.023-0.005 0.027 0.017 0.029 0.013 0.039-0.082 0.003-0.031 0.018-0.072 0.032-0.090s0.022-0.061 0.018-0.096c-0.004-0.035-0.002-0.050 0.005-0.032s0.024 0.032 0.038 0.032c0.014 0 0.013-0.021-0.003-0.052-0.015-0.028-0.020-0.065-0.010-0.081 0.011-0.018 0.006-0.022-0.013-0.010s-0.036-0-0.045-0.034c-0.008-0.029-0.023-0.048-0.035-0.041s-0.027 0.004-0.034-0.008c-0.007-0.011 0.027-0.024 0.075-0.027 0.053-0.004 0.088 0.006 0.088 0.024 0 0.020 0.014 0.018 0.042-0.006 0.049-0.040 0.059-0.040 0.089 0.007 0.016 0.026 0.022 0.026 0.022 0.002 0-0.018 0.023-0.032 0.052-0.032 0.060 0 0.069 0.065 0.011 0.087-0.022 0.008-0.033 0.027-0.024 0.041s0.002 0.026-0.014 0.026c-0.022 0-0.023 0.009-0.002 0.034 0.015 0.019 0.031 0.070 0.034 0.113s0.015 0.074 0.026 0.068 0.027 0.020 0.037 0.059c0.009 0.039 0.024 0.083 0.032 0.097 0.015 0.026 0.018 0.040 0.025 0.121 0.002 0.025 0.018 0.038 0.038 0.031s0.036 0.005 0.038 0.026c0.002 0.022 0.006 0.057 0.009 0.078s0.019 0.038 0.036 0.038c0.019 0 0.029 0.026 0.025 0.064-0.004 0.035 0.004 0.064 0.017 0.064s0.018 0.009 0.011 0.021c-0.007 0.012 0.004 0.053 0.024 0.093s0.037 0.086 0.037 0.103c0 0.017 0.023 0.052 0.051 0.078 0.070 0.063 0.065 0.102-0.026 0.196-0.042 0.044-0.077 0.071-0.077 0.059s-0.028 0.006-0.063 0.038c-0.035 0.032-0.060 0.067-0.058 0.077 0.007 0.022-0.15 0.181-0.178 0.18-0.012-0-0.004-0.012 0.017-0.025s0.026-0.025 0.011-0.025c-0.049-0.001-0.062 0.032-0.030 0.073 0.025 0.031 0.025 0.035-0 0.020-0.019-0.011-0.038-0.004-0.047 0.019-0.008 0.021-0.029 0.033-0.046 0.027-0.018-0.007-0.032 0.012-0.034 0.046-0.002 0.032 0.002 0.045 0.008 0.030 0.007-0.019 0.046-0.022 0.113-0.010 0.069 0.013 0.102 0.009 0.102-0.010s0.006-0.020 0.019-0.002c0.026 0.036 0.29 0.037 0.27 0.001-0.008-0.015 0-0.013 0.019 0.005 0.040 0.037 0.127 0.043 0.127 0.009 0-0.013 0.055-0.025 0.122-0.027s0.164-0.005 0.215-0.006c0.060-0.002 0.089-0.013 0.082-0.032-0.006-0.016 0-0.060 0.015-0.098 0.016-0.042 0.017-0.068 0.002-0.068s-0.016-0.024-0.004-0.058c0.011-0.032 0.036-0.141 0.054-0.242 0.020-0.11 0.044-0.178 0.059-0.169 0.014 0.009 0.018 0.004 0.009-0.011s0.018-0.092 0.061-0.171 0.070-0.157 0.061-0.171 0.028-0.068 0.082-0.118 0.081-0.082 0.060-0.070c-0.039 0.023 0.065-0.098 0.179-0.208 0.052-0.050 0.056-0.061 0.020-0.061-0.024 0-0.056-0.023-0.071-0.052s-0.037-0.046-0.049-0.039c-0.012 0.007-0.027-0.010-0.035-0.038-0.008-0.030-0.035-0.051-0.067-0.051s-0.054-0.016-0.054-0.040c0-0.022-0.011-0.033-0.024-0.025s-0.036-0.006-0.050-0.031c-0.015-0.025-0.027-0.034-0.027-0.021s-0.019 0.002-0.041-0.026c-0.022-0.027-0.033-0.032-0.024-0.011 0.011 0.026 0.004 0.024-0.020-0.006-0.020-0.024-0.044-0.037-0.052-0.028s-0.023-0.003-0.032-0.027c-0.013-0.033-0.024-0.036-0.052-0.013s-0.035 0.020-0.035-0.012c0-0.024-0.021-0.042-0.051-0.042-0.028 0-0.051-0.011-0.051-0.025s-0.017-0.018-0.038-0.010c-0.021 0.008-0.045-0.002-0.052-0.023-0.009-0.024-0.037-0.033-0.081-0.025-0.050 0.010-0.061 0.005-0.046-0.021 0.015-0.024 0.009-0.029-0.022-0.017-0.023 0.009-0.043 0.005-0.043-0.010s-0.011-0.020-0.023-0.012c-0.013 0.008-0.021-0.005-0.017-0.028s0.027-0.046 0.053-0.050c0.026-0.004 0.071-0.033 0.1-0.065s0.036-0.047 0.014-0.034c-0.026 0.016-0.024 0.009 0.005-0.018 0.025-0.023 0.038-0.049 0.029-0.058s0.001-0.016 0.023-0.016 0.060-0.024 0.086-0.052c0.046-0.051 0.046-0.052-0.002-0.038-0.036 0.011-0.033 0.006 0.008-0.016 0.040-0.021 0.053-0.045 0.043-0.078s-0.002-0.047 0.024-0.047c0.021 0 0.047-0.013 0.057-0.030 0.012-0.020 0.007-0.023-0.017-0.008-0.020 0.012-0.010-0.011 0.021-0.050s0.051-0.082 0.044-0.093-0.001-0.028 0.013-0.037c0.014-0.009 0.026-0.039 0.026-0.067 0-0.033 0.011-0.044 0.030-0.033s0.025 0.005 0.015-0.021c-0.008-0.022-0.002-0.052 0.014-0.068 0.021-0.021 0.020-0.029-0.004-0.029-0.019 0-0.024-0.013-0.012-0.032 0.034-0.055 0.035-0.122 0.002-0.122-0.023-0-0.024-0.005-0.002-0.019 0.034-0.022 0.042-0.061 0.038-0.18-0.002-0.051-0.014-0.078-0.029-0.068-0.014 0.009-0.024 0.007-0.021-0.005s-0.002-0.056-0.011-0.098-0.023-0.121-0.031-0.176c-0.017-0.116-0.034-0.15-0.066-0.13-0.013 0.008-0.016-0.005-0.007-0.029 0.010-0.026 0.007-0.038-0.009-0.028-0.014 0.009-0.045-0.024-0.068-0.073s-0.054-0.089-0.068-0.089c-0.014 0-0.047-0.020-0.073-0.045-0.133-0.125-0.214-0.182-0.246-0.17-0.019 0.007-0.041-0.007-0.050-0.033-0.011-0.033-0.044-0.048-0.118-0.053-0.062-0.004-0.126-0.027-0.159-0.058-0.055-0.051-0.191-0.074-0.162-0.027 0.015 0.024-0.045 0.019-0.145-0.013-0.040-0.013-0.047-0.008-0.031 0.018 0.017 0.029 0.014 0.029-0.020 0.002-0.029-0.023-0.046-0.025-0.058-0.005-0.011 0.018-0.028 0.019-0.047 0.004s-0.056-0.011-0.107 0.016zM10.961 2.051c-0.031 0.011-0.056 0.015-0.056 0.007s-0.024 0.004-0.054 0.024c-0.030 0.021-0.072 0.031-0.094 0.023-0.028-0.011-0.034-0.005-0.018 0.019s0.010 0.030-0.025 0.017c-0.025-0.010-0.061-0.005-0.080 0.011s-0.048 0.020-0.065 0.009c-0.019-0.012-0.024-0.008-0.012 0.011 0.010 0.016 0.008 0.030-0.005 0.030s-0.062 0.034-0.11 0.075c-0.047 0.041-0.092 0.066-0.099 0.055s-0.036 0.003-0.065 0.031c-0.028 0.028-0.037 0.043-0.019 0.033 0.022-0.012 0.027-0.005 0.016 0.023-0.009 0.023-0.032 0.035-0.051 0.028s-0.035-0.003-0.035 0.009c0 0.013-0.020 0.043-0.045 0.068s-0.045 0.055-0.045 0.067c0 0.012-0.017 0.032-0.038 0.045s-0.030 0.031-0.021 0.040-0.003 0.039-0.026 0.066c-0.023 0.027-0.044 0.058-0.045 0.068s-0.011 0.039-0.022 0.063-0.015 0.080-0.009 0.122c0.006 0.042 0.003 0.076-0.007 0.076s-0.018 0.057-0.018 0.127c0 0.087 0.009 0.122 0.029 0.11 0.016-0.009 0.014 0.001-0.004 0.024-0.027 0.033-0.027 0.043 0 0.054s0.026 0.014 0 0.015c-0.025 0.002-0.023 0.017 0.007 0.062 0.023 0.035 0.032 0.080 0.022 0.107s-0.008 0.040 0.007 0.031c0.013-0.008 0.026 0.004 0.028 0.028 0.007 0.088 0.025 0.134 0.079 0.202 0.051 0.063 0.068 0.112 0.059 0.167-0.002 0.011 0.019 0.019 0.046 0.019 0.035 0 0.045 0.013 0.036 0.048-0.007 0.027 0.002 0.057 0.019 0.068 0.022 0.014 0.025 0.009 0.010-0.016-0.018-0.031-0.015-0.031 0.022-0.001 0.024 0.019 0.043 0.054 0.043 0.077s0.043 0.065 0.096 0.092c0.109 0.056 0.203 0.141 0.157 0.141-0.017 0-0.045-0.020-0.064-0.045-0.031-0.041-0.033-0.040-0.024 0.011 0.008 0.043 0 0.052-0.031 0.040-0.029-0.011-0.035-0.006-0.020 0.018 0.016 0.026 0.005 0.031-0.046 0.021-0.046-0.009-0.081 0.003-0.111 0.036-0.024 0.027-0.059 0.043-0.077 0.036s-0.049 0.004-0.069 0.023c-0.020 0.020-0.043 0.029-0.052 0.020s-0.016-0.002-0.016 0.014c0 0.016-0.022 0.030-0.050 0.030-0.072 0-0.227 0.098-0.245 0.155-0.009 0.027-0.027 0.049-0.041 0.049s-0.018-0.013-0.008-0.028c0.012-0.020 0.001-0.020-0.037 0.001-0.030 0.016-0.054 0.047-0.054 0.068s-0.011 0.032-0.024 0.024c-0.013-0.008-0.055 0.012-0.093 0.045-0.073 0.063-0.057 0.172 0.025 0.172 0.019 0 0.033 0.020 0.031 0.044s0.014 0.045 0.035 0.046c0.021 0.001 0.036 0.016 0.032 0.033s0.005 0.031 0.019 0.031c0.014 0 0.026 0.019 0.026 0.043s0.008 0.035 0.017 0.026c0.027-0.027 0.086 0.036 0.086 0.093 0 0.029 0.020 0.075 0.045 0.104 0.032 0.037 0.034 0.045 0.006 0.030-0.034-0.019-0.034-0.016 0 0.028 0.060 0.076 0.133 0.216 0.112 0.216-0.010 0 0.004 0.025 0.031 0.056s0.033 0.046 0.013 0.035c-0.025-0.015-0.031-0.010-0.019 0.015 0.009 0.020 0.023 0.056 0.032 0.080s0.027 0.045 0.040 0.045c0.015 0 0.015 0.016 0 0.042-0.013 0.023-0.015 0.080-0.004 0.126s0.013 0.115 0.006 0.154c-0.016 0.085 0.035 0.12 0.199 0.134 0.063 0.005 0.13 0.022 0.147 0.036 0.023 0.019 0.032 0.017 0.032-0.009 0-0.028 0.006-0.027 0.025 0.003 0.022 0.034 0.025 0.034 0.026 0 0.001-0.031 0.005-0.032 0.023-0.004s0.024 0.028 0.033 0.002c0.007-0.022 0.023-0.025 0.048-0.009 0.051 0.033 0.203 0.032 0.204-0.001 0-0.018 0.007-0.018 0.019-0.001 0.030 0.040 0.089 0.044 0.112 0.008 0.015-0.023 0.028-0.025 0.041-0.006 0.026 0.037 0.147 0.028 0.197-0.014 0.034-0.028 0.038-0.028 0.026 0.004-0.017 0.045 0.192 0.052 0.224 0.008 0.012-0.017 0.019-0.016 0.019 0.002 0 0.030 0.090 0.032 0.119 0.003 0.010-0.010 0.030-0.017 0.045-0.017s0.010 0.012-0.011 0.025c-0.034 0.022-0.034 0.025 0.001 0.025 0.022 0 0.055-0.014 0.074-0.032 0.028-0.026 0.031-0.026 0.016 0-0.010 0.018-0.006 0.032 0.009 0.032s0.027-0.012 0.027-0.026c0-0.014 0.012-0.026 0.027-0.026s0.020 0.012 0.011 0.026c-0.009 0.015 0.022 0.026 0.077 0.026s0.086-0.010 0.077-0.026c-0.014-0.023 0.077-0.039 0.162-0.027 0.019 0.003 0.050-0.009 0.070-0.026s0.037-0.019 0.037-0.005c0 0.026 0.117 0.021 0.23-0.010 0.035-0.010 0.070-0.019 0.077-0.020s0.028-0.012 0.047-0.024c0.020-0.013 0.046-0.010 0.063 0.007 0.036 0.036 0.078 0.037 0.056 0.002-0.010-0.017 0.008-0.022 0.050-0.014 0.041 0.007 0.060 0.002 0.051-0.014-0.009-0.014-0-0.023 0.019-0.020s0.081-0.004 0.137-0.016 0.111-0.020 0.122-0.017c0.011 0.003 0.027-0.012 0.035-0.033s0.026-0.039 0.039-0.039c0.013 0 0.017 0.011 0.009 0.025s0.001 0.019 0.024 0.010c0.022-0.008 0.033-0.026 0.025-0.039s0.021-0.036 0.064-0.051 0.079-0.039 0.079-0.052c0-0.014 0.013-0.016 0.030-0.006 0.020 0.012 0.025 0.005 0.014-0.023-0.009-0.023-0.007-0.048 0.005-0.055s0.016-0.045 0.010-0.084c-0.009-0.058-0.006-0.064 0.019-0.033 0.026 0.033 0.028 0.031 0.015-0.008-0.008-0.026-0.015-0.070-0.015-0.098 0-0.030-0.011-0.044-0.028-0.033-0.020 0.012-0.023-0.006-0.011-0.060 0.011-0.050 0.006-0.084-0.014-0.097-0.021-0.013-0.024-0.008-0.010 0.014 0.013 0.022 0.011 0.027-0.007 0.016-0.015-0.009-0.024-0.040-0.018-0.068 0.006-0.029-0.017-0.080-0.053-0.118-0.067-0.072-0.080-0.1-0.035-0.072 0.015 0.009 0.012-0.007-0.006-0.037s-0.043-0.054-0.055-0.054-0.015-0.010-0.007-0.023c0.008-0.013-0.015-0.042-0.050-0.065s-0.064-0.059-0.064-0.080-0.018-0.038-0.040-0.038c-0.022 0-0.033-0.012-0.024-0.026s-0.008-0.026-0.037-0.026c-0.047 0-0.065-0.026-0.056-0.083 0.002-0.011-0.011-0.016-0.029-0.013s-0.029-0.008-0.026-0.026c0.004-0.018-0.010-0.032-0.029-0.032s-0.055-0.029-0.078-0.065c-0.023-0.036-0.053-0.058-0.067-0.050s-0.024 0.002-0.024-0.015c0-0.016-0.016-0.024-0.035-0.017s-0.065-0.015-0.101-0.048c-0.037-0.034-0.078-0.062-0.092-0.062s-0.038-0.023-0.053-0.051c-0.015-0.028-0.041-0.051-0.059-0.051-0.020 0-0.017 0.010 0.007 0.028 0.032 0.023 0.031 0.025-0.008 0.012-0.026-0.008-0.052-0.015-0.059-0.015s-0.004-0.013 0.006-0.030c0.012-0.019 0.007-0.023-0.014-0.010-0.019 0.012-0.041 0.006-0.053-0.014-0.012-0.019-0.054-0.035-0.093-0.036s-0.070-0.014-0.067-0.029c0.003-0.016-0.024-0.023-0.064-0.016-0.048 0.008-0.059 0.004-0.035-0.013 0.027-0.019 0.023-0.027-0.018-0.038-0.029-0.008-0.056-0.001-0.061 0.014-0.006 0.019-0.015 0.018-0.028-0.003-0.010-0.017-0.006-0.031 0.010-0.031s0.021-0.012 0.012-0.026c-0.009-0.014-0.001-0.023 0.017-0.019s0.033-0.010 0.034-0.031c0.001-0.021 0.021-0.039 0.045-0.039s0.059-0.017 0.077-0.037c0.028-0.031 0.027-0.033-0.007-0.012-0.022 0.013-0.002-0.008 0.045-0.049s0.084-0.095 0.084-0.123c0-0.031 0.011-0.043 0.030-0.032s0.023 0.007 0.012-0.010c-0.021-0.035 0.036-0.133 0.078-0.133 0.016 0 0.038-0.045 0.047-0.1s0.034-0.107 0.055-0.115c0.028-0.011 0.034-0.035 0.022-0.092-0.010-0.044-0.006-0.077 0.008-0.077s0.030-0.040 0.035-0.090c0.006-0.052-0.001-0.090-0.016-0.090s-0.012-0.010 0.007-0.022c0.027-0.017 0.028-0.056 0.006-0.198-0.015-0.097-0.028-0.211-0.027-0.254 0.001-0.059-0.005-0.068-0.024-0.038-0.027 0.040-0.039 0.011-0.028-0.070 0.002-0.018-0.009-0.032-0.025-0.032s-0.023-0.017-0.015-0.037c0.008-0.022-0.005-0.043-0.033-0.052-0.033-0.010-0.044-0.032-0.035-0.072 0.009-0.043 0.006-0.048-0.013-0.021-0.020 0.029-0.027 0.023-0.034-0.026-0.006-0.041-0.024-0.060-0.055-0.058-0.030 0.002-0.042-0.009-0.033-0.032 0.008-0.020-0-0.033-0.017-0.029s-0.028-0.008-0.025-0.025c0.004-0.019-0.010-0.025-0.036-0.015-0.033 0.013-0.039 0.006-0.025-0.029 0.013-0.034 0.008-0.042-0.021-0.031-0.021 0.008-0.039 0.005-0.039-0.007s-0.040-0.041-0.090-0.064c-0.049-0.023-0.090-0.054-0.090-0.067s-0.009-0.023-0.019-0.021c-0.011 0.002-0.025 0.001-0.032-0.002-0.028-0.011-0.119-0.027-0.186-0.033-0.042-0.004-0.071-0.022-0.071-0.045-0-0.032-0.004-0.032-0.023-0.003-0.014 0.022-0.035 0.027-0.057 0.013-0.046-0.029-0.279-0.033-0.35-0.007zM11.418 4.587c0 0.019-0.040 0.030-0.058 0.016-0.004-0.003-0.039 0.027-0.079 0.067-0.070 0.070-0.083 0.222-0.016 0.181 0.014-0.008 0.025 0.008 0.025 0.037s0.012 0.053 0.027 0.053c0.015 0 0.020 0.012 0.011 0.026s-0.005 0.026 0.009 0.026c0.014 0 0.018 0.025 0.010 0.055-0.011 0.041-0.006 0.050 0.019 0.034s0.030-0.007 0.019 0.034c-0.008 0.030-0.005 0.050 0.006 0.043s0.028 0.018 0.038 0.056c0.009 0.038 0.040 0.098 0.069 0.134s0.040 0.069 0.027 0.074c-0.014 0.005-0.009 0.040 0.013 0.084 0.021 0.042 0.046 0.071 0.056 0.065s0.020 0.011 0.023 0.038c0.011 0.11 0.015 0.126 0.036 0.126 0.012 0 0.021 0.022 0.021 0.050s0.013 0.058 0.030 0.068c0.020 0.012 0.023 0.007 0.009-0.018-0.011-0.020-0.011-0.027 0.001-0.016 0.048 0.044 0.033 0.214-0.016 0.184-0.013-0.008-0.024-0.003-0.024 0.012s-0.011 0.027-0.025 0.027c-0.041 0-0.129 0.084-0.17 0.162-0.024 0.047-0.052 0.067-0.076 0.058-0.021-0.008-0.032-0.004-0.024 0.008s-0.006 0.038-0.029 0.057c-0.030 0.024-0.037 0.025-0.024 0.003 0.030-0.050 0.003-0.038-0.050 0.024-0.031 0.035-0.035 0.048-0.010 0.034 0.027-0.015 0.025-0.006-0.007 0.030-0.039 0.045-0.078 0.053-0.18 0.037-0.011-0.002-0.014-0.015-0.005-0.029s-0.003-0.026-0.026-0.026c-0.023 0-0.034-0.012-0.026-0.026s0.004-0.026-0.011-0.026c-0.015 0-0.050-0.023-0.078-0.051s-0.043-0.051-0.034-0.051c0.010 0-0.005-0.016-0.032-0.036s-0.058-0.031-0.070-0.024c-0.011 0.007-0.017-0.003-0.013-0.021s-0.008-0.031-0.027-0.027c-0.019 0.004-0.027-0.004-0.018-0.018s-0.019-0.043-0.062-0.065c-0.043-0.022-0.078-0.046-0.078-0.054s0.014-0.005 0.032 0.005c0.018 0.010 0.003-0.013-0.032-0.052s-0.061-0.075-0.058-0.081c0.021-0.040 0.074-0.080 0.092-0.069 0.012 0.007 0.019-0.009 0.016-0.035-0.009-0.086 0-0.115 0.031-0.096 0.020 0.012 0.025 0.005 0.014-0.024-0.009-0.023-0.007-0.043 0.005-0.043 0.020 0 0.059-0.14 0.047-0.165-0.003-0.006 0.017-0.030 0.045-0.053s0.037-0.034 0.020-0.026c-0.021 0.011-0.019-0.007 0.006-0.056 0.020-0.039 0.037-0.085 0.037-0.102s0.013-0.039 0.030-0.049c0.020-0.012 0.023-0.007 0.009 0.015-0.013 0.021-0.011 0.027 0.006 0.017 0.025-0.015 0.069-0.161 0.062-0.203-0.002-0.011 0.020-0.042 0.048-0.070 0.057-0.057 0.070-0.116 0.019-0.087-0.025 0.014-0.025 0.011-0.001-0.016 0.023-0.025 0.024-0.043 0.003-0.068s-0.020-0.034 0.002-0.034c0.017 0 0.023-0.012 0.014-0.026s-0.026-0.020-0.037-0.013c-0.023 0.014-0.061-0.063-0.041-0.084 0.007-0.007 0.031 0.002 0.052 0.020s0.047 0.025 0.056 0.016c0.009-0.009 0.001-0.016-0.018-0.016s-0.027-0.007-0.019-0.015c0.008-0.008 0.040-0.001 0.071 0.015 0.038 0.020 0.051 0.021 0.039 0.002-0.011-0.017 0.005-0.028 0.042-0.028 0.048 0 0.052 0.005 0.021 0.025-0.057 0.037-0.016 0.031 0.060-0.009 0.074-0.039 0.145-0.045 0.145-0.013zM7.88 4.878c-0.012 0.012-0.184 0.040-0.27 0.045-0.032 0.002-0.058 0.010-0.058 0.019s-0.026 0.014-0.058 0.011c-0.032-0.003-0.072 0.006-0.090 0.020s-0.032 0.016-0.032 0.005c0-0.011-0.022 0.005-0.048 0.035s-0.073 0.055-0.104 0.055c-0.034 0-0.049 0.011-0.039 0.028 0.012 0.019-0.001 0.022-0.040 0.010-0.037-0.012-0.052-0.009-0.041 0.008 0.019 0.031-0.012 0.054-0.092 0.069-0.031 0.006-0.074 0.030-0.096 0.053-0.028 0.030-0.030 0.037-0.004 0.022 0.024-0.014 0.030-0.011 0.017 0.010-0.010 0.016-0.027 0.024-0.038 0.018-0.020-0.013-0.158 0.118-0.165 0.156-0.002 0.012-0.013 0.018-0.025 0.015s-0.014 0.005-0.005 0.019c0.021 0.033-0.050 0.107-0.079 0.082-0.012-0.010-0.004 0.004 0.016 0.032 0.034 0.045 0.033 0.048-0.006 0.033-0.029-0.011-0.039-0.005-0.031 0.015 0.007 0.017-0.012 0.057-0.041 0.089s-0.045 0.070-0.035 0.086c0.011 0.018 0.007 0.022-0.011 0.011-0.016-0.010-0.030-0.009-0.032 0.002s-0.007 0.044-0.014 0.072c-0.006 0.028-0.019 0.094-0.027 0.147s-0.023 0.096-0.033 0.096c-0.026 0-0.024 0.084 0.003 0.119 0.014 0.018 0.009 0.034-0.016 0.044-0.021 0.008-0.039 0.045-0.039 0.081s0.010 0.060 0.023 0.052c0.026-0.016 0.057 0.077 0.034 0.1-0.029 0.029-0.032 0.125-0.004 0.142 0.015 0.009 0.030 0.059 0.033 0.111s0.014 0.093 0.026 0.094c0.011 0 0.014 0.010 0.007 0.023s0.004 0.037 0.025 0.055c0.025 0.020 0.035 0.059 0.028 0.105-0.006 0.040-0.001 0.067 0.012 0.059s0.025-0.002 0.027 0.013 0.006 0.036 0.010 0.046c0.004 0.011 0.015 0.045 0.025 0.077s0.035 0.058 0.054 0.058 0.035 0.023 0.035 0.051c0 0.028 0.012 0.051 0.027 0.051s0.020 0.012 0.011 0.026c-0.009 0.014 0.002 0.026 0.024 0.026s0.040 0.012 0.040 0.027c0 0.015-0.013 0.019-0.028 0.010-0.020-0.013-0.020-0.004-0 0.030 0.054 0.093 0.13 0.167 0.156 0.151 0.014-0.009 0.026-0.001 0.026 0.017s0.023 0.048 0.052 0.066c0.029 0.018 0.045 0.044 0.037 0.057-0.014 0.022 0.020 0.036 0.071 0.028 0.011-0.002 0.016 0.011 0.013 0.028s0.016 0.031 0.044 0.032c0.028 0.001 0.054 0.020 0.059 0.044 0.006 0.029-0.007 0.041-0.037 0.036-0.025-0.004-0.061 0.009-0.080 0.028s-0.048 0.034-0.065 0.034c-0.018-0-0.014-0.011 0.008-0.025s0.026-0.025 0.008-0.025c-0.017-0-0.065 0.029-0.108 0.065-0.051 0.043-0.095 0.060-0.128 0.050-0.027-0.009-0.058-0.002-0.068 0.015-0.013 0.021-0.007 0.024 0.017 0.012 0.020-0.010 0.014-0.001-0.013 0.021s-0.058 0.033-0.070 0.026c-0.012-0.007-0.022 0.002-0.022 0.020-0 0.024-0.007 0.023-0.025-0.005-0.022-0.034-0.036-0.019-0.029 0.030 0.001 0.010-0.026 0.012-0.060 0.006-0.050-0.009-0.059-0.003-0.046 0.032 0.011 0.029 0.007 0.037-0.013 0.024-0.016-0.010-0.030-0.007-0.030 0.007s-0.026 0.034-0.058 0.045c-0.057 0.019-0.077 0.024-0.141 0.031-0.018 0.002-0.032 0.017-0.032 0.033 0 0.041-0.080 0.097-0.141 0.098-0.038 0.001-0.042 0.007-0.017 0.023 0.032 0.021-0.049 0.065-0.105 0.057-0.011-0.002-0.019 0.008-0.019 0.021s-0.023 0.031-0.051 0.040c-0.028 0.009-0.051 0.031-0.051 0.048 0 0.036-0.068 0.112-0.149 0.168-0.029 0.020-0.048 0.046-0.040 0.057s-0.008 0.013-0.033 0.004c-0.025-0.009-0.038-0.007-0.027 0.004s-0.006 0.042-0.036 0.068c-0.030 0.026-0.044 0.048-0.032 0.048s0.008 0.010-0.010 0.021c-0.018 0.011-0.055 0.060-0.081 0.108s-0.063 0.084-0.080 0.080c-0.025-0.006-0.025 0 0.001 0.032 0.027 0.033 0.026 0.042-0.008 0.055-0.022 0.008-0.047 0.038-0.056 0.065s-0.025 0.043-0.037 0.036-0.028 0.004-0.035 0.024c-0.008 0.021-0.002 0.045 0.014 0.055 0.019 0.012 0.012 0.029-0.019 0.052-0.026 0.019-0.038 0.034-0.026 0.034s0.005 0.019-0.014 0.043c-0.029 0.035-0.029 0.040-0.001 0.023s0.029-0.011 0.005 0.033c-0.016 0.030-0.043 0.054-0.060 0.055-0.022 0-0.021 0.007 0.003 0.022 0.039 0.025 0.035 0.052-0.014 0.102-0.024 0.024-0.027 0.044-0.008 0.066 0.014 0.017 0.018 0.040 0.009 0.049-0.031 0.031-0.031 0.103 0 0.142 0.024 0.030 0.024 0.034-0.004 0.017s-0.029-0.011-0.009 0.027c0.037 0.069 0.12 0.14 0.175 0.149 0.026 0.004 0.044 0.022 0.040 0.040-0.005 0.020 0.011 0.027 0.043 0.019 0.030-0.008 0.056 0.001 0.064 0.022 0.007 0.020 0.047 0.036 0.088 0.036 0.044 0 0.081 0.016 0.090 0.040 0.012 0.030 0.038 0.036 0.107 0.025 0.050-0.008 0.086-0.005 0.079 0.006-0.012 0.020 0.040 0.030 0.155 0.031 0.031 0 0.064 0.014 0.074 0.030 0.012 0.019 0.007 0.022-0.015 0.008s-0.027-0.011-0.014 0.010c0.015 0.024 0.028 0.024 0.057-0.001s0.042-0.025 0.059 0.002c0.012 0.019 0.035 0.025 0.053 0.014 0.022-0.013 0.026-0.010 0.013 0.011-0.014 0.023 0.014 0.028 0.111 0.020 0.072-0.006 0.13-0.001 0.13 0.012s0.031 0.018 0.068 0.011c0.037-0.007 0.081-0.005 0.096 0.005s0.096 0.021 0.179 0.025c0.083 0.004 0.169 0.022 0.191 0.039 0.031 0.025 0.035 0.025 0.020-0-0.013-0.022-0.001-0.032 0.040-0.032 0.048 0 0.052 0.005 0.021 0.026-0.027 0.018 0.026 0.024 0.179 0.019 0.12-0.004 0.234 0.004 0.254 0.016 0.023 0.015 0.030 0.013 0.019-0.004-0.010-0.016 0.008-0.025 0.045-0.023 0.034 0.002 0.056 0.012 0.050 0.023s0.007 0.019 0.030 0.019c0.023 0 0.034-0.012 0.026-0.026-0.017-0.028 0.020-0.035 0.046-0.009 0.021 0.021 0.546 0.018 0.58-0.003 0.014-0.009 0.026-0.004 0.026 0.011s0.026 0.026 0.058 0.025c0.055-0.002 0.055-0.003 0.006-0.024-0.051-0.022-0.051-0.022 0.001-0.024 0.029-0.001 0.068 0.013 0.087 0.030 0.028 0.026 0.031 0.025 0.015-0.002-0.015-0.026 0.001-0.032 0.067-0.027 0.048 0.004 0.102-0.002 0.122-0.015 0.022-0.014 0.030-0.012 0.020 0.003s0.048 0.024 0.15 0.023c0.091-0.001 0.165-0.010 0.165-0.020s0.032-0.017 0.070-0.015c0.039 0.002 0.151-0.005 0.25-0.015s0.22-0.019 0.269-0.020c0.049-0.001 0.104-0.013 0.122-0.027s0.032-0.017 0.032-0.006 0.018 0.004 0.040-0.014c0.033-0.027 0.044-0.027 0.061-0 0.015 0.025 0.025 0.026 0.039 0.003 0.010-0.017 0.035-0.024 0.056-0.016 0.024 0.009 0.030 0.003 0.019-0.015-0.012-0.020-0-0.025 0.037-0.015 0.030 0.008 0.061 0.006 0.067-0.005s0.041-0.014 0.077-0.007c0.036 0.007 0.065 0.001 0.065-0.014s0.020-0.023 0.045-0.019c0.025 0.004 0.068-0.005 0.096-0.020s0.067-0.024 0.087-0.020c0.020 0.004 0.044-0.006 0.054-0.022s0.034-0.032 0.054-0.036c0.118-0.023 0.174-0.049 0.159-0.073-0.011-0.017-0.001-0.021 0.027-0.010 0.026 0.010 0.038 0.007 0.028-0.008-0.009-0.014 0.002-0.025 0.024-0.025s0.037-0.014 0.034-0.031c-0.004-0.017 0.011-0.032 0.032-0.033 0.025-0.001 0.036-0.023 0.032-0.062-0.005-0.046 0.001-0.054 0.026-0.033s0.033-0.006 0.037-0.125c0.002-0.083-0.006-0.151-0.019-0.151s-0.024-0.047-0.024-0.104c0-0.062-0.010-0.098-0.025-0.088s-0.019-0.001-0.010-0.025c0.009-0.022-0.003-0.061-0.026-0.087s-0.034-0.054-0.025-0.063-0.008-0.039-0.039-0.066c-0.040-0.035-0.047-0.053-0.023-0.062 0.025-0.010 0.026-0.014 0.001-0.015-0.018-0.001-0.032-0.017-0.032-0.034s-0.043-0.072-0.096-0.12c-0.053-0.049-0.076-0.080-0.051-0.071 0.071 0.027 0.014-0.061-0.102-0.16-0.053-0.045-0.081-0.073-0.061-0.063 0.024 0.012 0.030 0.009 0.018-0.011-0.010-0.016-0.032-0.030-0.049-0.030s-0.042-0.025-0.056-0.055c-0.014-0.030-0.034-0.053-0.045-0.051-0.021 0.004-0.091-0.053-0.090-0.074 0.002-0.049-0.010-0.058-0.031-0.026-0.017 0.026-0.025 0.028-0.025 0.006-0-0.018-0.017-0.032-0.037-0.032s-0.044-0.023-0.053-0.051c-0.015-0.046-0.043-0.063-0.076-0.045-0.006 0.004-0.041-0.033-0.077-0.082s-0.066-0.072-0.067-0.051c-0.001 0.023-0.010 0.017-0.024-0.014-0.012-0.028-0.023-0.035-0.024-0.016-0.001 0.028-0.009 0.029-0.040 0.004-0.021-0.017-0.031-0.044-0.021-0.059 0.010-0.017 0-0.021-0.027-0.010s-0.049 0.003-0.057-0.019c-0.008-0.020-0.036-0.032-0.063-0.027-0.029 0.006-0.060-0.011-0.076-0.040-0.015-0.027-0.043-0.050-0.064-0.050s-0.037-0.013-0.037-0.029c0-0.017-0.026-0.024-0.063-0.017-0.038 0.007-0.068-0.001-0.076-0.023-0.007-0.019-0.022-0.033-0.033-0.032-0.036 0.005-0.135-0.034-0.135-0.053 0-0.010-0.038-0.016-0.084-0.013-0.104 0.007-0.23-0.080-0.17-0.117 0.020-0.013 0.051-0.024 0.069-0.024s0.032-0.012 0.032-0.026 0.018-0.026 0.040-0.026c0.022 0 0.033-0.012 0.024-0.026s0.002-0.026 0.024-0.026c0.022 0 0.040-0.012 0.040-0.027 0-0.029 0.051-0.088 0.083-0.096 0.011-0.003 0.018-0.011 0.018-0.019s0.029-0.041 0.067-0.074c0.038-0.033 0.061-0.072 0.051-0.088s-0.001-0.028 0.020-0.028c0.021 0 0.045-0.033 0.054-0.075s0.034-0.081 0.055-0.089c0.021-0.008 0.032-0.025 0.024-0.038s0.001-0.036 0.020-0.052c0.020-0.017 0.029-0.056 0.022-0.097-0.011-0.057-0.006-0.065 0.033-0.050 0.037 0.014 0.040 0.011 0.016-0.018-0.023-0.028-0.021-0.039 0.011-0.052 0.022-0.009 0.033-0.028 0.024-0.043s-0.003-0.044 0.015-0.065c0.031-0.037 0.040-0.082 0.047-0.224 0.002-0.041 0.014-0.065 0.029-0.056s0.026 0.004 0.026-0.011-0.012-0.027-0.026-0.027c-0.014 0-0.026-0.018-0.026-0.040s0.009-0.035 0.019-0.028c0.028 0.017 0.024-0.143-0.005-0.187-0.016-0.024-0.013-0.040 0.006-0.047 0.017-0.006 0.030-0.021 0.030-0.035s-0.011-0.018-0.024-0.010c-0.013 0.008-0.025-0.011-0.025-0.043-0.002-0.129-0.006-0.148-0.031-0.148-0.014 0-0.018-0.011-0.010-0.026s-0.001-0.057-0.022-0.096c-0.051-0.095-0.076-0.167-0.071-0.202 0.002-0.016-0.014-0.036-0.036-0.045s-0.033-0.028-0.024-0.042c0.024-0.039-0.040-0.106-0.085-0.089-0.030 0.012-0.032 0.007-0.007-0.022s0.020-0.040-0.022-0.054c-0.029-0.009-0.047-0.027-0.039-0.039s-0.010-0.029-0.038-0.038c-0.029-0.009-0.046-0.026-0.038-0.038s-0.010-0.029-0.038-0.038c-0.028-0.009-0.052-0.027-0.052-0.040s-0.016-0.024-0.034-0.024c-0.019 0-0.075-0.039-0.125-0.088s-0.138-0.102-0.197-0.12c-0.072-0.021-0.096-0.039-0.074-0.053 0.019-0.012-0.002-0.016-0.051-0.010-0.046 0.006-0.078 0.001-0.071-0.011 0.022-0.036-0.067-0.055-0.319-0.068-0.134-0.007-0.256-0.017-0.273-0.022s-0.034-0.005-0.040 0.001zM1.724 6.575c-0.009 0.033-0.032 0.045-0.075 0.041-0.034-0.004-0.056 0.003-0.049 0.014s-0.005 0.028-0.027 0.036c-0.022 0.008-0.032 0.027-0.023 0.042 0.010 0.017-0.008 0.022-0.050 0.015-0.047-0.009-0.074 0.002-0.093 0.038-0.015 0.027-0.042 0.050-0.061 0.050s-0.049 0.017-0.066 0.038-0.042 0.032-0.054 0.024c-0.032-0.020-0.178 0.094-0.159 0.125 0.009 0.014 0.003 0.018-0.012 0.008s-0.035-0.005-0.044 0.009-0.027 0.020-0.040 0.012c-0.013-0.008-0.024-0.002-0.024 0.013s-0.029 0.039-0.064 0.052-0.064 0.037-0.064 0.054-0.022 0.023-0.051 0.016c-0.028-0.007-0.046-0.004-0.039 0.007 0.012 0.019-0.080 0.061-0.122 0.054-0.011-0.002-0.027 0.014-0.035 0.035s-0.024 0.033-0.036 0.025-0.028-0.001-0.037 0.013c-0.009 0.014-0.001 0.026 0.017 0.027 0.021 0 0.016 0.011-0.011 0.027-0.025 0.014-0.055 0.020-0.068 0.012s-0.028 0-0.034 0.018c-0.006 0.018-0.033 0.032-0.060 0.032-0.046 0-0.049 0.023-0.049 0.397v0.397l5.53 0-5.504-0.026 5.545-0.012 0.081-0.076c0.058-0.054 0.087-0.067 0.101-0.045 0.015 0.023 0.020 0.023 0.020-0.003 0-0.018 0.012-0.026 0.026-0.018s0.026 0.004 0.026-0.011c0-0.015 0.023-0.027 0.051-0.027s0.051-0.011 0.051-0.025c0-0.014-0.020-0.019-0.045-0.012s0.007-0.013 0.070-0.044 0.135-0.056 0.16-0.055c0.025 0.001 0.045-0.009 0.045-0.021s-0.013-0.022-0.028-0.022c-0.016 0-0.021-0.018-0.013-0.040s0.004-0.033-0.010-0.024c-0.014 0.009-0.025 0.003-0.025-0.011s-0.020-0.028-0.045-0.029c-0.027-0.001-0.032-0.007-0.013-0.015 0.046-0.018 0.040-0.060-0.009-0.060-0.022 0-0.036-0.013-0.031-0.030s-0.015-0.057-0.045-0.089l-0.055-0.060-2.711-0.001c-2.41-0.001-2.703-0.006-2.64-0.039 0.039-0.021 0.070-0.047 0.070-0.058s0.028-0.036 0.063-0.054c0.035-0.019 0.056-0.046 0.047-0.060-0.010-0.016 0.001-0.020 0.026-0.010 0.028 0.011 0.052-0.003 0.072-0.040 0.030-0.056 0.169-0.197 0.194-0.197 0.007 0-0.001 0.020-0.019 0.045-0.033 0.047 0.062-0.056 0.167-0.18 0.033-0.039 0.075-0.068 0.094-0.064 0.020 0.004 0.033-0.016 0.032-0.051-0.002-0.062 0.028-0.078 0.049-0.026 0.008 0.019 0.014 0.014 0.015-0.013s0.022-0.045 0.053-0.045c0.028 0 0.052-0.009 0.053-0.019s0.006-0.039 0.011-0.064c0.011-0.060-0.014-0.058-0.030 0.003zM14.269 6.616c-0.020 0.052 0.010 0.092 0.055 0.074 0.022-0.008 0.038 0 0.038 0.021 0 0.046 0.098 0.13 0.129 0.11 0.013-0.008 0.024-0.003 0.024 0.013 0 0.035 0.145 0.179 0.163 0.162 0.007-0.007 0.045 0.017 0.085 0.054s0.062 0.067 0.050 0.067c-0.012 0-0.008 0.017 0.010 0.038s0.040 0.033 0.051 0.026c0.011-0.007 0.061 0.031 0.111 0.083 0.115 0.119 0.18 0.175 0.192 0.164 0.005-0.005 0.016-0.002 0.024 0.006s-1.208 0.015-2.704 0.015c-2.388 0-2.72 0.005-2.733 0.038-0.008 0.021-0.024 0.033-0.035 0.026-0.022-0.014-0.080 0.129-0.061 0.148 0.006 0.006-0.023 0.044-0.065 0.084-0.090 0.085-0.072 0.128 0.065 0.154 0.048 0.009 0.099 0.038 0.114 0.065s0.040 0.048 0.058 0.048c0.018 0 0.047 0.014 0.064 0.032 0.031 0.031 0.042 0.035 0.119 0.042 0.021 0.002 0.039 0.023 0.039 0.048 0 0.033 0.006 0.036 0.021 0.012 0.016-0.025 0.032-0.020 0.068 0.019 0.048 0.054 5.542 0.086 5.544 0.033 0.010-0.265 0.008-0.741-0.003-0.734-0.008 0.005-0.049-0.022-0.090-0.060-0.136-0.127-0.208-0.181-0.163-0.122 0.034 0.044 0.034 0.047-0 0.027-0.021-0.012-0.054-0.044-0.073-0.070-0.029-0.040-0.041-0.042-0.075-0.014-0.031 0.025-0.036 0.025-0.022 0.001 0.013-0.021-0.004-0.041-0.046-0.057-0.036-0.014-0.066-0.032-0.066-0.040s0.013-0.007 0.030 0.003c0.019 0.012 0.023 0.007 0.010-0.014-0.011-0.017-0.040-0.026-0.065-0.020-0.030 0.008-0.055-0.009-0.073-0.049-0.016-0.035-0.050-0.061-0.079-0.061-0.059 0-0.21-0.086-0.209-0.119 0-0.012-0.022-0.019-0.050-0.014-0.031 0.005-0.048-0.005-0.044-0.024 0.004-0.018-0.007-0.035-0.025-0.037s-0.044-0.006-0.059-0.008c-0.015-0.002-0.020-0.015-0.011-0.029s-0.001-0.019-0.024-0.010c-0.026 0.010-0.040 0.001-0.040-0.027 0-0.026-0.017-0.039-0.045-0.035-0.026 0.004-0.042-0.006-0.038-0.026 0.004-0.019-0.005-0.027-0.019-0.018s-0.026 0.003-0.026-0.014c0-0.016-0.018-0.023-0.040-0.015s-0.033 0.004-0.024-0.010c0.009-0.014 0.003-0.025-0.012-0.025s-0.034 0.017-0.042 0.037zM14.304 8.186c-0.757 0.004-1.995 0.004-2.752 0s-0.138-0.007 1.376-0.007c1.514 0 2.133 0.003 1.376 0.007z"></path>
</svg>
