<!-- Generated by IcoMoon.io -->
<svg version="1.1" xmlns="http://www.w3.org/2000/svg" width="25" height="20" viewBox="0 0 25 20">
<title>s_tab2</title>
<path fill="#555" d="M4.359 0.444c-0.007 0.012-0.034 0.016-0.060 0.009-0.057-0.015-0.141 0.041-0.118 0.078 0.009 0.015 0.001 0.033-0.019 0.040-0.026 0.010-0.036 0.077-0.039 0.264-0.004 0.298 0.031 0.26-0.245 0.268-0.127 0.004-0.267 0.022-0.312 0.040-0.060 0.024-0.087 0.025-0.1 0.005-0.012-0.020-0.025-0.016-0.040 0.011-0.012 0.022-0.042 0.036-0.067 0.033s-0.060 0.012-0.079 0.034c-0.019 0.022-0.027 0.026-0.018 0.009 0.020-0.039 0.010-0.039-0.076-0.006-0.041 0.016-0.060 0.037-0.049 0.055s0.007 0.023-0.011 0.011c-0.016-0.010-0.030-0.005-0.030 0.010s-0.009 0.023-0.021 0.016c-0.021-0.013-0.122 0.088-0.112 0.112 0.003 0.007-0.003 0.013-0.014 0.013-0.039 0.001-0.084 0.042-0.070 0.065 0.008 0.013-0.009 0.037-0.037 0.055-0.041 0.026-0.045 0.039-0.020 0.070s0.023 0.035-0.014 0.021c-0.041-0.015-0.057 0.007-0.048 0.065 0.002 0.011-0.010 0.019-0.025 0.019s-0.022 0.016-0.015 0.036c0.008 0.020-0.003 0.057-0.023 0.083-0.035 0.045-0.036 0.045-0.022-0.004 0.014-0.047 0.013-0.048-0.015-0.005-0.023 0.036-0.022 0.056 0.004 0.088 0.025 0.030 0.025 0.037 0.002 0.023-0.021-0.012-0.032-0.004-0.032 0.025 0 0.024-0.028 0.081-0.063 0.126s-0.056 0.090-0.047 0.098c0.009 0.009 0.003 0.016-0.014 0.016s-0.029 0.009-0.027 0.019c0.010 0.065-0.009 0.109-0.048 0.111-0.028 0.001-0.033 0.007-0.012 0.015 0.023 0.009 0.013 0.032-0.033 0.075-0.037 0.034-0.060 0.072-0.052 0.085s0.003 0.031-0.011 0.040c-0.014 0.009-0.026 0.033-0.026 0.053s-0.024 0.061-0.053 0.089c-0.033 0.033-0.047 0.071-0.037 0.1 0.008 0.026 0.003 0.055-0.011 0.064s-0.027 0.001-0.028-0.017c-0.001-0.018-0.016 0.001-0.035 0.043s-0.028 0.086-0.022 0.097c0.006 0.011-0.011 0.040-0.038 0.064s-0.045 0.058-0.039 0.075c0.006 0.018-0.002 0.032-0.017 0.032s-0.026 0.009-0.025 0.019c0.007 0.044-0.005 0.081-0.035 0.113-0.018 0.019-0.049 0.068-0.070 0.111s-0.050 0.085-0.064 0.096c-0.015 0.011-0.011 0.019 0.011 0.019 0.026 0 0.023 0.011-0.013 0.037-0.027 0.020-0.051 0.046-0.053 0.058-0.011 0.066-0.044 0.136-0.065 0.136-0.013 0-0.017 0.011-0.008 0.025 0.017 0.027-0.019 0.109-0.047 0.105-0.041-0.005-0.043 0-0.018 0.047 0.022 0.040 0.017 0.053-0.027 0.066-0.037 0.012-0.050 0.032-0.041 0.066 0.007 0.027 0.002 0.049-0.010 0.049s-0.023 0.016-0.023 0.036c0 0.020-0.018 0.043-0.041 0.051s-0.036 0.030-0.030 0.047c0.006 0.017-0.008 0.049-0.031 0.070s-0.027 0.029-0.008 0.017c0.052-0.035 0.039 0.002-0.021 0.058-0.032 0.029-0.048 0.067-0.039 0.091 0.010 0.025-0.008 0.055-0.048 0.081-0.035 0.023-0.063 0.054-0.063 0.070s0.012 0.012 0.025-0.009c0.021-0.033 0.025-0.032 0.025 0.005 0 0.024-0.024 0.051-0.053 0.060-0.040 0.013-0.051 0.033-0.042 0.078 0.006 0.033 0.003 0.055-0.007 0.049s-0.035 0.008-0.054 0.031c-0.030 0.037-0.030 0.040 0.003 0.022 0.021-0.012 0.012 0.004-0.019 0.034-0.059 0.058-0.077 0.095-0.032 0.067 0.014-0.009 0.026-0.004 0.026 0.011s-0.011 0.027-0.025 0.027c-0.014 0-0.037 0.046-0.052 0.102s-0.038 0.099-0.051 0.096c-0.032-0.008-0.131 0.187-0.111 0.219 0.009 0.014 0.004 0.018-0.011 0.009s-0.033 0.001-0.042 0.022-0.002 0.038 0.014 0.038c0.016 0-0.001 0.029-0.037 0.065-0.039 0.039-0.060 0.084-0.053 0.112s-0.004 0.053-0.028 0.062c-0.025 0.010-0.034 0.031-0.023 0.059 0.011 0.029 0.007 0.038-0.013 0.025-0.018-0.011-0.030-0.003-0.030 0.021 0 0.060-0.006 0.074-0.056 0.128-0.025 0.027-0.043 0.064-0.040 0.082s-0.017 0.051-0.045 0.074c-0.028 0.023-0.034 0.034-0.013 0.025 0.032-0.014 0.032-0.011-0.002 0.017-0.046 0.039-0.089 0.135-0.049 0.11 0.014-0.009 0.025 0.003 0.025 0.026s-0.011 0.034-0.025 0.026c-0.014-0.009-0.019 0.001-0.010 0.024s0.002 0.040-0.014 0.040c-0.035 0-0.039 5.136-0.004 5.157 0.012 0.007 0.021 0.043 0.021 0.079s0.022 0.083 0.048 0.105 0.033 0.031 0.014 0.022c-0.028-0.014-0.028-0.008-0 0.037 0.018 0.030 0.041 0.054 0.050 0.054s0.024 0.027 0.032 0.061c0.009 0.035 0.048 0.074 0.092 0.093 0.042 0.018 0.077 0.043 0.077 0.056s-0.013 0.016-0.030 0.006c-0.019-0.012-0.023-0.007-0.010 0.014 0.011 0.017 0.041 0.026 0.068 0.019 0.036-0.009 0.048 0.001 0.049 0.043 0 0.040 0.006 0.046 0.022 0.021 0.017-0.027 0.037-0.020 0.089 0.033 0.037 0.037 0.067 0.055 0.067 0.040 0-0.020 0.015-0.020 0.052 0 0.029 0.015 0.046 0.037 0.040 0.048s0.004 0.020 0.025 0.020c0.021 0 0.037-0.007 0.037-0.016s0.043-0.011 0.096-0.004c0.088 0.011 0.091 0.014 0.032 0.031-0.035 0.010 3.015 0.020 6.779 0.021 4.087 0.002 6.837-0.007 6.829-0.021-0.008-0.013 0.007-0.018 0.034-0.011 0.031 0.008 0.063-0.008 0.088-0.044 0.026-0.038 0.057-0.052 0.090-0.044 0.036 0.009 0.055-0.002 0.064-0.039 0.012-0.046 0.019-0.048 0.058-0.016 0.025 0.020 0.037 0.023 0.027 0.007-0.016-0.027 0.106-0.153 0.227-0.234 0.027-0.018 0.035-0.026 0.017-0.018s-0.032 0.004-0.032-0.009c0-0.013 0.016-0.031 0.036-0.038s0.044-0.049 0.053-0.092c0.009-0.043 0.028-0.085 0.041-0.093s0.017 0.006 0.008 0.032c-0.012 0.038-0.010 0.040 0.012 0.008 0.015-0.021 0.017-0.048 0.005-0.060s-0.003-0.058 0.020-0.103c0.079-0.153 0.059-5.354-0.020-5.305-0.012 0.008-0.029-0.003-0.037-0.024s-0.002-0.045 0.014-0.055c0.019-0.012 0.012-0.030-0.020-0.053-0.027-0.020-0.050-0.044-0.052-0.054-0.013-0.067-0.044-0.133-0.064-0.133-0.012 0-0.023-0.012-0.023-0.027s0.013-0.019 0.028-0.010c0.016 0.010 0.009-0.012-0.014-0.048s-0.062-0.072-0.085-0.081c-0.037-0.014-0.037-0.020-0.005-0.041 0.031-0.020 0.032-0.028 0.003-0.046-0.019-0.012-0.034-0.032-0.034-0.045s-0.018-0.019-0.041-0.014c-0.033 0.007-0.036 0.001-0.012-0.027 0.017-0.021 0.021-0.046 0.008-0.060s-0.027-0.047-0.032-0.075-0.021-0.050-0.034-0.048c-0.030 0.003-0.1-0.142-0.092-0.191 0.003-0.019-0.006-0.027-0.021-0.018-0.016 0.010-0.021 0.001-0.012-0.023 0.008-0.022 0.002-0.040-0.013-0.040s-0.028-0.023-0.028-0.051-0.020-0.072-0.045-0.096c-0.075-0.075-0.137-0.185-0.121-0.212 0.009-0.014-0.003-0.032-0.025-0.040s-0.040-0.026-0.040-0.040 0.011-0.017 0.025-0.009c0.014 0.009 0.019-0.001 0.010-0.024s-0.024-0.034-0.035-0.027c-0.022 0.013-0.063-0.062-0.054-0.099 0.003-0.012-0.015-0.036-0.038-0.054-0.026-0.019-0.037-0.049-0.027-0.074 0.009-0.023 0.006-0.042-0.007-0.042s-0.031-0.026-0.041-0.058c-0.010-0.032-0.035-0.070-0.056-0.085s-0.033-0.044-0.026-0.064c0.007-0.020-0-0.050-0.016-0.067-0.074-0.084-0.092-0.11-0.077-0.11 0.009 0 0.001-0.019-0.018-0.043-0.030-0.037-0.030-0.041 0.003-0.024 0.025 0.013 0.023 0.007-0.005-0.016-0.024-0.020-0.047-0.052-0.051-0.071s-0.031-0.056-0.059-0.081c-0.028-0.025-0.038-0.045-0.022-0.046s0.024-0.023 0.016-0.052c-0.007-0.028-0.024-0.045-0.036-0.037s-0.023-0.005-0.023-0.029c0-0.023-0.030-0.078-0.066-0.121-0.045-0.053-0.056-0.084-0.036-0.096s0.017-0.023-0.011-0.034c-0.022-0.009-0.041-0.032-0.041-0.052s-0.019-0.044-0.041-0.052c-0.030-0.012-0.034-0.025-0.014-0.048 0.028-0.034 0.003-0.101-0.037-0.097-0.012 0.001-0.024-0.023-0.026-0.054s-0.028-0.073-0.058-0.093c-0.030-0.020-0.054-0.057-0.054-0.083s-0.012-0.054-0.026-0.063c-0.014-0.009-0.025-0.030-0.023-0.046 0.008-0.064-0.003-0.096-0.028-0.081-0.014 0.009-0.026-0.004-0.026-0.028s-0.020-0.067-0.045-0.096c-0.025-0.028-0.030-0.042-0.011-0.031 0.028 0.016 0.028 0.011 0.001-0.032-0.018-0.029-0.041-0.047-0.050-0.041s-0.024-0.012-0.031-0.040c-0.007-0.028-0.004-0.045 0.008-0.038s0.007-0.016-0.009-0.051c-0.016-0.035-0.045-0.064-0.065-0.064-0.023-0-0.030-0.019-0.021-0.053 0.011-0.041 0.004-0.050-0.026-0.038-0.035 0.013-0.035 0.010-0.005-0.028 0.024-0.029 0.025-0.037 0.004-0.025-0.019 0.012-0.032 0.006-0.032-0.015 0-0.019-0.030-0.079-0.067-0.133s-0.054-0.091-0.038-0.081c0.053 0.033 0.030-0.027-0.034-0.087-0.035-0.033-0.057-0.069-0.050-0.082 0.021-0.033-0.016-0.127-0.043-0.11-0.013 0.008-0.024-0.003-0.024-0.025s-0.018-0.040-0.040-0.040c-0.022 0-0.034-0.010-0.026-0.023s-0.010-0.029-0.038-0.036c-0.033-0.009-0.050-0.031-0.044-0.060 0.006-0.034-0.025-0.063-0.114-0.105-0.067-0.032-0.122-0.071-0.122-0.086s-0.018-0.021-0.040-0.013c-0.023 0.009-0.033 0.004-0.024-0.010s-0.008-0.025-0.037-0.025-0.053-0.012-0.053-0.026c0-0.014-0.017-0.026-0.038-0.026s-0.038 0.012-0.038 0.027c0 0.015-0.022 0.020-0.049 0.012-0.149-0.047-0.239-0.060-0.444-0.063l-0.173-0.002v-0.203c0-0.117-0.012-0.211-0.027-0.22s-0.021-0.033-0.014-0.053c0.008-0.020 0.005-0.036-0.005-0.036s-0.034-0.024-0.052-0.054c-0.028-0.045-0.028-0.051 0-0.035 0.020 0.011 0.017 0.002-0.006-0.024-0.044-0.047-7.514-0.079-7.543-0.033zM11.341 1.664v0.64h-6.605v-1.28h6.605v0.64zM4.122 2.038v0.272l-0.202-0.009c-0.111-0.005-0.198-0.002-0.193 0.006s-0.007 0.015-0.027 0.015-0.029-0.011-0.021-0.025c0.008-0.014-0.001-0.019-0.020-0.012s-0.033 0.026-0.029 0.042c0.004 0.016-0.002 0.027-0.013 0.026s-0.028-0-0.038 0.003c-0.011 0.003-0.034 0.008-0.051 0.009s-0.033 0.020-0.034 0.042c-0.005 0.083-0.044 0.205-0.066 0.205-0.014 0-0.020 0.329-0.016 0.804 0.004 0.442 0.001 0.793-0.007 0.78-0.024-0.039-0.402-0.022-0.418 0.019-0.007 0.019-0.043 0.035-0.080 0.035-0.038 0-0.059 0.011-0.050 0.026s-0.001 0.026-0.021 0.026-0.044 0.018-0.052 0.040c-0.009 0.023-0.004 0.033 0.010 0.024s0.025 0.002 0.025 0.024-0.012 0.040-0.027 0.040c-0.015 0-0.025 0.014-0.023 0.032s0.003 0.277 0.001 0.576l-0.003 0.544h-0.573c-0.626 0-0.664-0.010-0.538-0.136 0.042-0.042 0.057-0.078 0.045-0.109s-0.008-0.040 0.012-0.027c0.018 0.011 0.030 0.003 0.030-0.018 0-0.020 0.017-0.051 0.038-0.069 0.045-0.037 0.052-0.088 0.009-0.062-0.033 0.021-0.016-0.013 0.061-0.119 0.026-0.036 0.049-0.089 0.052-0.119 0.002-0.030 0.017-0.048 0.035-0.041 0.021 0.008 0.027-0.006 0.017-0.041-0.010-0.039-0.002-0.053 0.030-0.053 0.028 0 0.039-0.014 0.030-0.036-0.008-0.020 0.002-0.042 0.021-0.050 0.022-0.008 0.029-0.035 0.020-0.070-0.009-0.033-0.005-0.050 0.010-0.042s0.039-0.008 0.057-0.037c0.027-0.043 0.027-0.049-0.001-0.032-0.019 0.011-0.014-0.003 0.011-0.031s0.045-0.071 0.045-0.095c0-0.024 0.017-0.050 0.037-0.058s0.031-0.028 0.025-0.046c-0.007-0.017 0.019-0.063 0.056-0.1s0.055-0.069 0.039-0.069-0.006-0.023 0.022-0.051c0.028-0.028 0.051-0.075 0.051-0.104s0.010-0.046 0.023-0.039c0.035 0.021 0.054-0.052 0.022-0.084-0.020-0.020-0.016-0.032 0.015-0.044 0.023-0.009 0.043-0.032 0.043-0.051s0.020-0.046 0.045-0.060c0.025-0.014 0.031-0.026 0.014-0.027s-0.025-0.018-0.016-0.041c0.013-0.033 0.020-0.034 0.040-0.006 0.017 0.025 0.021 0.018 0.012-0.022-0.007-0.033 0.002-0.061 0.023-0.070 0.020-0.007 0.036-0.038 0.036-0.067s0.010-0.047 0.023-0.039c0.012 0.008 0.029-0.009 0.036-0.037s0.002-0.051-0.011-0.051c-0.014 0-0.017-0.012-0.009-0.026s0.026-0.020 0.038-0.013c0.012 0.007 0.019-0.007 0.015-0.032s0.023-0.072 0.060-0.106c0.037-0.033 0.049-0.051 0.028-0.040-0.033 0.018-0.034 0.015-0.003-0.023 0.019-0.024 0.028-0.043 0.018-0.043-0.016 0 0.013-0.040 0.077-0.109 0.015-0.017 0.023-0.051 0.016-0.076s0-0.046 0.015-0.046 0.041-0.040 0.059-0.088c0.018-0.049 0.043-0.081 0.057-0.073s0.019-0.002 0.009-0.026c-0.009-0.023 0.001-0.059 0.021-0.079s0.037-0.056 0.037-0.078c0-0.023 0.016-0.047 0.036-0.055s0.043-0.031 0.051-0.052c0.008-0.021 0.003-0.031-0.011-0.022s-0.025 0.003-0.025-0.011 0.009-0.027 0.020-0.027c0.011 0 0.040-0.046 0.064-0.102s0.056-0.102 0.069-0.102c0.014 0 0.018-0.019 0.009-0.043-0.012-0.030-0.007-0.037 0.016-0.022 0.024 0.015 0.028 0.006 0.014-0.037-0.012-0.037-0.009-0.052 0.008-0.042 0.014 0.009 0.070-0.026 0.123-0.078 0.055-0.053 0.101-0.081 0.107-0.064 0.007 0.021 0.022 0.018 0.048-0.008s0.095-0.038 0.241-0.038h0.203v0.272zM12.391 1.798c0 0.021 0.009 0.019 0.025-0.006 0.021-0.033 0.025-0.031 0.025 0.008 0 0.026 0.012 0.039 0.027 0.030s0.043-0.003 0.063 0.013 0.050 0.021 0.067 0.011 0.024-0.008 0.014 0.008c-0.009 0.015 0.009 0.034 0.041 0.042s0.078 0.057 0.104 0.11c0.038 0.078 0.039 0.089 0.006 0.061-0.061-0.051-0.048-0.011 0.017 0.052 0.032 0.031 0.040 0.046 0.019 0.034-0.033-0.018-0.034-0.015-0.003 0.022 0.019 0.024 0.044 0.037 0.056 0.030s0.016 0.015 0.010 0.050c-0.008 0.046 0.002 0.067 0.040 0.079 0.028 0.009 0.051 0.036 0.051 0.059-0 0.037-0.004 0.038-0.025 0.005-0.014-0.021-0.025-0.025-0.025-0.009s0.027 0.047 0.061 0.070c0.045 0.030 0.058 0.056 0.047 0.097-0.009 0.036-0.005 0.050 0.013 0.039s0.022 0.002 0.014 0.033c-0.008 0.032 0.006 0.061 0.038 0.081 0.028 0.018 0.045 0.048 0.038 0.067s-0.003 0.033 0.009 0.031c0.052-0.009 0.065 0.004 0.037 0.038-0.024 0.029-0.020 0.039 0.020 0.052 0.034 0.011 0.046 0.032 0.037 0.066-0.008 0.029-0 0.050 0.017 0.050s0.023 0.011 0.015 0.024c-0.008 0.013 0.006 0.036 0.031 0.050 0.028 0.016 0.032 0.027 0.012 0.027-0.018 0-0.026 0.012-0.017 0.027s0.026 0.020 0.037 0.013c0.027-0.016 0.057 0.060 0.038 0.092-0.008 0.013 0 0.021 0.019 0.017 0.020-0.004 0.031 0.012 0.026 0.038-0.004 0.025 0.011 0.052 0.033 0.061s0.035 0.032 0.027 0.052c-0.008 0.020-0.004 0.030 0.009 0.022s0.029 0.003 0.037 0.024c0.008 0.021 0.001 0.039-0.017 0.040-0.024 0.002-0.023 0.005 0.001 0.015 0.018 0.007 0.032 0.024 0.032 0.038s0.017 0.043 0.039 0.064c0.021 0.021 0.032 0.049 0.024 0.062s-0.004 0.024 0.010 0.024c0.027 0 0.064 0.097 0.057 0.15-0.003 0.021 0.008 0.027 0.027 0.015 0.022-0.014 0.027-0.007 0.015 0.023-0.011 0.028-0.003 0.043 0.021 0.043 0.021 0 0.036 0.009 0.033 0.019-0.010 0.041 0.065 0.234 0.085 0.222 0.012-0.007 0.023-0.001 0.025 0.014s0.006 0.036 0.008 0.046c0.037 0.133 0.050 0.16 0.082 0.16 0.020 0 0.031 0.011 0.022 0.024s-0.003 0.031 0.012 0.040 0.021 0.026 0.013 0.037c-0.007 0.011 0.004 0.035 0.024 0.051s0.030 0.048 0.022 0.068c-0.009 0.024 0.005 0.043 0.040 0.052 0.030 0.008 0.047 0.025 0.039 0.039s0.012 0.054 0.045 0.091c0.033 0.036 0.043 0.057 0.022 0.045s-0.014 0.007 0.016 0.041c0.030 0.034 0.051 0.082 0.047 0.107s0.003 0.038 0.016 0.030c0.013-0.008 0.024 0.024 0.025 0.070s0.008 0.070 0.015 0.053 0.024-0.025 0.038-0.017c0.015 0.009 0.011 0.031-0.009 0.056-0.025 0.031-0.025 0.036-0.001 0.022 0.022-0.013 0.032-0.002 0.032 0.034 0 0.029 0.016 0.060 0.036 0.067s0.030 0.034 0.023 0.060c-0.008 0.030 0.019 0.075 0.073 0.126l0.085 0.080-1.245 0 0.008-0.595c0.007-0.504 0.002-0.6-0.030-0.629-0.034-0.030-0.034-0.032 0-0.015 0.021 0.010 0.013-0.006-0.018-0.037s-0.074-0.055-0.096-0.055c-0.022 0-0.039-0.017-0.039-0.038 0-0.031-0.043-0.038-0.23-0.038h-0.23v-0.805c0-0.536-0.009-0.81-0.027-0.822-0.015-0.009-0.022-0.030-0.016-0.046 0.012-0.034-0.083-0.18-0.104-0.159-0.008 0.008-0.031 0-0.051-0.017-0.024-0.020-0.116-0.028-0.265-0.024l-0.228 0.007v-0.541h0.192c0.136 0 0.192 0.009 0.192 0.032zM12.058 3.533v0.64h-7.987v-1.28h7.987v0.64zM12.723 5.197v0.384l-0.851 0.003c-0.468 0.002-0.868 0.001-0.89-0.001-0.031-0.003-0.032 0-0.004 0.019 0.027 0.018 0.028 0.028 0.004 0.043-0.017 0.011-0.041 0.004-0.053-0.016-0.017-0.028-0.039-0.017-0.098 0.048-0.072 0.079-0.154 0.117-0.115 0.054 0.011-0.018 0.007-0.023-0.012-0.011-0.016 0.010-0.023 0.029-0.015 0.042s0.003 0.024-0.012 0.024-0.027 0.017-0.027 0.038c0 0.021-0.018 0.038-0.040 0.038s-0.033 0.011-0.025 0.024c0.008 0.013 0.002 0.032-0.013 0.041s-0.023 0.030-0.016 0.047c0.013 0.034-0.046 0.098-0.069 0.075-0.009-0.009-0.016 0.009-0.016 0.038s-0.012 0.061-0.026 0.070c-0.014 0.009-0.020 0.026-0.012 0.038s0.002 0.029-0.011 0.037c-0.014 0.008-0.018 0.032-0.010 0.053 0.009 0.023-0.001 0.038-0.027 0.038-0.048 0-0.057 0.051-0.009 0.052 0.018 0 0.003 0.023-0.032 0.051s-0.054 0.050-0.042 0.051c0.012 0 0.008 0.017-0.009 0.038s-0.023 0.049-0.014 0.064c0.009 0.015-0.004 0.027-0.030 0.027-0.032 0-0.037 0.007-0.015 0.020 0.023 0.015 0.017 0.032-0.023 0.066-0.030 0.025-0.044 0.054-0.031 0.063 0.041 0.030 0.040 0.088-0.002 0.072-0.022-0.008-0.038-0.007-0.036 0.003 0.009 0.061-0.007 0.133-0.030 0.133-0.015 0-0.022-0.009-0.015-0.019s-0.915-0.016-2.048-0.013c-1.249 0.004-2.054-0.003-2.045-0.017 0.008-0.013-0.010-0.040-0.039-0.061-0.032-0.022-0.043-0.044-0.027-0.054s0.006-0.037-0.027-0.070c-0.039-0.039-0.045-0.059-0.023-0.072s0.010-0.036-0.039-0.074c-0.038-0.030-0.058-0.055-0.043-0.055s0.021-0.023 0.013-0.051-0.024-0.044-0.038-0.036c-0.014 0.008-0.023-0.006-0.020-0.032 0.009-0.081-0.001-0.1-0.029-0.060-0.022 0.031-0.025 0.026-0.014-0.021 0.008-0.036-0-0.064-0.021-0.072-0.019-0.007-0.040-0.035-0.047-0.062-0.008-0.030-0.003-0.043 0.014-0.033 0.015 0.009 0.021 0.001 0.014-0.019s-0.026-0.033-0.042-0.029c-0.016 0.004-0.029-0.027-0.029-0.072s-0.011-0.072-0.025-0.063c-0.014 0.009-0.019-0.001-0.010-0.023 0.016-0.043-0.095-0.169-0.149-0.169-0.018 0-0.045-0.026-0.059-0.058s-0.035-0.052-0.046-0.045-0.032-0.007-0.046-0.032c-0.014-0.025-0.037-0.045-0.051-0.045s-0.017 0.014-0.007 0.032c0.010 0.018-0.007 0.009-0.038-0.018-0.045-0.040-0.062-0.043-0.078-0.016-0.015 0.024-0.026 0.025-0.038 0.005s-0.265-0.028-0.835-0.028h-0.818v-0.768h9.318v0.384zM4.978 6.317c0.010 0.039 0.035 0.090 0.057 0.114s0.032 0.054 0.023 0.068 0.002 0.043 0.023 0.064c0.043 0.043 0.052 0.079 0.013 0.055-0.014-0.009-0.019 0.001-0.010 0.024s0.023 0.040 0.032 0.040c0.009 0 0.034 0.037 0.055 0.083 0.037 0.081 0.042 0.097 0.048 0.168 0.002 0.018 0.014 0.026 0.029 0.018s0.026 0.013 0.026 0.051 0.011 0.060 0.026 0.051 0.026-0.004 0.026 0.011c0 0.055 0.005 0.067 0.047 0.115 0.024 0.027 0.029 0.041 0.011 0.030s-0.032-0.006-0.032 0.009 0.017 0.035 0.038 0.043c0.021 0.008 0.038 0.031 0.038 0.050s0.013 0.036 0.030 0.036c0.016 0 0.023 0.006 0.015 0.014-0.018 0.018 0.099 0.147 0.141 0.156 0.017 0.004 0.054 0.012 0.082 0.018s0.048 0.025 0.044 0.042c-0.004 0.018 0.008 0.026 0.029 0.018s0.047-0.003 0.061 0.011c0.026 0.026 4.335 0.034 4.475 0.008 0.042-0.008 0.112-0.048 0.155-0.089s0.096-0.075 0.118-0.075c0.042 0 0.119-0.073 0.123-0.115 0.005-0.067 0.059-0.191 0.078-0.179 0.012 0.007 0.030-0.024 0.041-0.070s0.022-0.092 0.024-0.103c0.003-0.011 0.006-0.036 0.008-0.058s0.020-0.038 0.040-0.038c0.023 0 0.033-0.019 0.027-0.052-0.006-0.031 0.006-0.059 0.029-0.067 0.021-0.008 0.032-0.031 0.025-0.051s0.009-0.055 0.036-0.079c0.037-0.032 0.042-0.048 0.019-0.063-0.022-0.014-0.016-0.020 0.016-0.020 0.037-0 0.042-0.008 0.019-0.035s-0.017-0.045 0.022-0.081c0.028-0.025 0.051-0.073 0.051-0.105s0.012-0.066 0.026-0.074 0.026-0.004 0.026 0.011c0 0.019 0.527 0.025 1.734 0.021l1.734-0.006-3.456-0.027 1.734-0.006c0.991-0.003 1.734 0.004 1.734 0.016s0.026 0.029 0.058 0.037c0.056 0.014 0.056 0.013 0.008-0.023-0.027-0.020-0.036-0.037-0.019-0.037s0.050 0.023 0.075 0.051c0.024 0.028 0.059 0.051 0.077 0.051s0.033 0.012 0.033 0.026c0 0.014 0.017 0.026 0.038 0.026s0.038 0.023 0.038 0.052c0 0.029 0.017 0.059 0.038 0.067s0.032 0.024 0.025 0.036c-0.007 0.012-0.013 1.105-0.012 2.429l0.001 2.408-0.063 0.055c-0.035 0.030-0.057 0.066-0.049 0.079s-0.010 0.030-0.039 0.037c-0.029 0.008-0.047 0.024-0.040 0.036s-0.004 0.015-0.026 0.007-0.056-0.003-0.074 0.013c-0.046 0.038-13.265 0.025-13.418-0.013-0.056-0.014-0.1-0.039-0.096-0.056s-0.005-0.030-0.019-0.030-0.023-0.014-0.019-0.031-0.011-0.031-0.032-0.032c-0.034-0.001-0.038-0.29-0.038-2.446 0-1.345-0.009-2.451-0.019-2.459s0.021-0.058 0.070-0.112c0.049-0.054 0.090-0.111 0.090-0.127 0-0.017 0.009-0.015 0.022 0.006 0.018 0.029 0.027 0.029 0.054 0s0.35-0.034 1.802-0.034l1.77 0.001-3.43-0.027 3.489-0.012 0.018 0.070zM6.367 8.643c-0.010 0.010-0.049 0.020-0.088 0.022-0.126 0.009-0.138 0.013-0.122 0.039 0.009 0.014-0.005 0.032-0.030 0.041-0.089 0.029-0.162 0.070-0.162 0.093 0 0.013 0.013 0.015 0.029 0.005s0.003 0.017-0.029 0.060-0.050 0.090-0.041 0.104c0.009 0.015-0.004 0.038-0.029 0.053-0.030 0.018-0.034 0.027-0.010 0.027 0.027 0.001 0.028 0.009 0.006 0.036-0.046 0.055-0.035 1.062 0.012 1.126 0.020 0.027 0.030 0.058 0.022 0.070s-0 0.022 0.016 0.022c0.016 0 0.023 0.017 0.015 0.038s-0.005 0.038 0.007 0.038c0.012 0 0.028 0.024 0.036 0.054s0.026 0.046 0.041 0.037c0.015-0.009 0.027-0.004 0.027 0.012s0.012 0.022 0.026 0.013c0.014-0.009 0.026 0.003 0.026 0.027 0 0.026 0.014 0.037 0.036 0.029 0.020-0.008 0.042 0.002 0.050 0.021s0.036 0.034 0.064 0.031c0.028-0.002 0.045-0.013 0.038-0.024s-0-0.020 0.015-0.020c0.015 0 0.027 0.009 0.027 0.019 0 0.023 3.448 0.015 3.486-0.009 0.015-0.009 0.036-0.003 0.046 0.014 0.014 0.023 0.024 0.020 0.035-0.011 0.009-0.023 0.028-0.035 0.042-0.026s0.026 0.003 0.026-0.013 0.011-0.022 0.025-0.013 0.043-0.020 0.065-0.062c0.022-0.043 0.053-0.078 0.069-0.078s0.022-0.008 0.012-0.017c-0.009-0.009-0.003-0.035 0.015-0.056 0.026-0.033 0.025-0.035-0.007-0.017-0.028 0.016-0.026 0.008 0.006-0.028 0.040-0.045 0.044-0.12 0.043-0.706l-0.001-0.655-0.062-0.058c-0.034-0.032-0.062-0.073-0.062-0.090 0-0.045-0.13-0.143-0.17-0.127-0.018 0.007-0.039 0.002-0.047-0.010-0.016-0.026-3.476-0.037-3.502-0.010zM5.907 9.914c-0.005 0.144-0.008 0.026-0.008-0.262s0.004-0.407 0.008-0.262c0.005 0.144 0.005 0.38 0 0.525zM9.574 9.664v0.371h-3.021v-0.742h3.021v0.371z"></path>
</svg>
