<!-- Generated by IcoMoon.io -->
<svg version="1.1" xmlns="http://www.w3.org/2000/svg" width="29" height="20" viewBox="0 0 29 20">
<title>s_tab10</title>
<path fill="#555" d="M5.44 0.329c-0.022 0.006-0.039 0.020-0.039 0.031s-0.009 0.018-0.020 0.015c-0.025-0.007-0.204 0.157-0.204 0.187 0 0.013-0.014 0.037-0.031 0.055-0.057 0.057-0.061 0.431-0.054 4.811l0.007 4.319-0.134-0c-0.208-0-0.19 0.34-0.19-3.601v-3.48h-1.557c-0.934 0-1.557 0.008-1.557 0.021s-0.030 0.027-0.067 0.035-0.067 0.024-0.067 0.035-0.013 0.021-0.028 0.021c-0.015 0-0.048 0.025-0.073 0.056s-0.062 0.077-0.084 0.104c-0.022 0.027-0.039 0.072-0.039 0.101s-0.010 0.053-0.023 0.053c-0.015 0-0.021 1.093-0.017 3.328l0.006 3.328-0.908-0 0.006 0.588 0.006 0.588h15.26l0.006-0.588 0.006-0.588h-0.852l-0.002-3.333c-0.002-3.579 0.001-3.395-0.056-3.459-0.021-0.024-0.031-0.043-0.022-0.043s-0.014-0.030-0.051-0.067c-0.037-0.037-0.078-0.067-0.091-0.067s-0.024-0.009-0.024-0.019c0-0.086-0.141-0.093-1.749-0.087l-1.556 0.006-0.006 3.501c-0.004 2.308-0.013 3.501-0.028 3.501-0.012 0-0.022 0.015-0.022 0.034 0 0.026-0.031 0.034-0.14 0.034h-0.14l0.004-4.443c0.004-4.293-0.001-4.677-0.057-4.695-0.014-0.005-0.026-0.022-0.026-0.039 0-0.033-0.175-0.206-0.196-0.193-0.007 0.004-0.020-0.006-0.031-0.022-0.018-0.029-5.049-0.054-5.157-0.026zM8.224 0.602c0 0.011 0.067 0.026 0.149 0.035s0.17 0.030 0.195 0.048c0.026 0.018 0.070 0.033 0.098 0.033s0.051 0.010 0.051 0.022c0 0.012 0.008 0.021 0.017 0.019 0.022-0.005 0.147 0.047 0.162 0.067 0.024 0.031 0.156 0.116 0.182 0.116 0.014 0 0.060 0.035 0.1 0.078s0.086 0.078 0.102 0.078c0.015 0 0.022 0.006 0.015 0.012s0.019 0.045 0.059 0.084c0.090 0.091 0.193 0.229 0.193 0.261 0 0.013 0.009 0.024 0.021 0.024s0.028 0.022 0.037 0.049c0.009 0.027 0.029 0.063 0.046 0.080s0.031 0.045 0.031 0.063 0.011 0.032 0.023 0.032c0.013 0 0.021 0.013 0.019 0.028s0.007 0.056 0.021 0.091c0.014 0.035 0.026 0.083 0.026 0.108s0.009 0.039 0.020 0.032c0.011-0.007 0.028 0.066 0.036 0.161s0.027 0.188 0.041 0.206c0.020 0.026 0.019 0.029-0.008 0.014s-0.028-0.013-0.006 0.011c0.032 0.034 0.039 0.303 0.009 0.322-0.011 0.007-0.026 0.083-0.035 0.169s-0.024 0.157-0.035 0.157c-0.011 0-0.026 0.045-0.035 0.1s-0.029 0.112-0.046 0.126c-0.017 0.014-0.031 0.043-0.031 0.063s-0.035 0.091-0.078 0.156c-0.043 0.066-0.078 0.123-0.078 0.128s-0.018 0.028-0.039 0.050c-0.022 0.023-0.078 0.088-0.126 0.145-0.097 0.116-0.426 0.374-0.477 0.374-0.018 0-0.027 0.009-0.020 0.020s-0.022 0.026-0.064 0.034c-0.042 0.008-0.087 0.028-0.101 0.045s-0.073 0.038-0.131 0.046c-0.058 0.009-0.113 0.027-0.122 0.042-0.011 0.018-0.145 0.026-0.443 0.026s-0.432-0.008-0.443-0.026c-0.009-0.014-0.064-0.033-0.122-0.042s-0.117-0.030-0.131-0.046c-0.014-0.017-0.060-0.037-0.103-0.045s-0.072-0.020-0.066-0.026c0.006-0.006-0.021-0.028-0.061-0.048-0.142-0.072-0.4-0.299-0.514-0.452-0.064-0.085-0.124-0.155-0.133-0.155s-0.017-0.014-0.017-0.031c0-0.017-0.020-0.056-0.045-0.088s-0.045-0.075-0.045-0.096c0-0.022-0.015-0.056-0.033-0.076-0.032-0.036-0.052-0.102-0.055-0.189-0.001-0.024-0.009-0.035-0.018-0.026s-0.030-0.072-0.046-0.181c-0.044-0.293-0.056-0.478-0.031-0.478 0.012 0 0.021-0.018 0.019-0.039-0.004-0.086 0.034-0.319 0.054-0.331 0.012-0.007 0.021-0.032 0.021-0.055s0.012-0.070 0.026-0.105c0.014-0.035 0.024-0.076 0.021-0.091s0.005-0.028 0.016-0.028c0.012 0 0.027-0.025 0.035-0.056s0.024-0.056 0.036-0.056c0.012 0 0.022-0.013 0.022-0.029 0-0.046 0.213-0.336 0.301-0.412 0.044-0.037 0.080-0.080 0.080-0.094s0.015-0.026 0.033-0.026c0.018 0 0.043-0.019 0.055-0.042s0.048-0.049 0.079-0.056c0.031-0.008 0.057-0.024 0.057-0.036s0.014-0.022 0.032-0.022 0.047-0.015 0.066-0.034c0.027-0.027 0.101-0.066 0.171-0.090 0.068-0.023 0.111-0.041 0.163-0.068 0.034-0.018 0.128-0.039 0.207-0.047s0.145-0.024 0.145-0.034c0-0.011 0.101-0.019 0.224-0.019s0.224 0.009 0.224 0.019zM7.507 1.602v0.37h-0.74l0.006 0.507 0.006 0.507 0.728-0.009v0.742h0.986v-0.742l0.728 0.009 0.006-0.507 0.006-0.507h-0.74v-0.736l-0.986-0.005v0.37zM2.868 4.448v0.37h-0.717v-0.739h0.717v0.37zM4.078 4.448v0.37h-0.717v-0.739h0.717v0.37zM12.84 4.448v0.37h-0.695v-0.739h0.695v0.37zM14.073 4.448v0.37h-0.717v-0.739h0.717v0.37zM2.868 5.782v0.359h-0.717v-0.717h0.717v0.359zM4.078 5.782v0.359h-0.717v-0.717h0.717v0.359zM12.84 5.782v0.359h-0.695v-0.717h0.695v0.359zM14.073 5.782v0.359h-0.717v-0.717h0.717v0.359zM4.078 7.15v0.357h-0.717l-0-0.364-0-0.364 0.717 0.013v0.357zM12.845 7.137l-0.007 0.37h-0.693v-0.716l0.353-0.007c0.194-0.004 0.353-0.009 0.353-0.012s-0.003 0.161-0.007 0.365zM2.868 7.148v0.359h-0.717v-0.717h0.717v0.359zM14.073 7.148v0.359h-0.717v-0.717h0.717v0.359zM9.165 8.314v1.412h-2.196v-2.824h2.196v1.412z"></path>
</svg>
