<!-- Generated by IcoMoon.io -->
<svg version="1.1" xmlns="http://www.w3.org/2000/svg" width="20" height="20" viewBox="0 0 20 20">
<title>s_tab5</title>
<path fill="#555" d="M4.072 0.389c-0.158 0.027-0.46 0.171-0.498 0.237-0.014 0.025-0.046 0.045-0.071 0.045s-0.038 0.019-0.028 0.045c0.009 0.025-0.011 0.064-0.045 0.088s-0.061 0.055-0.061 0.069c0.002 0.061-0.087 0.242-0.111 0.227-0.015-0.009-0.027 0.019-0.027 0.063s-0.021 0.101-0.046 0.126-0.040 0.053-0.032 0.061c0.008 0.008-0.022 0.089-0.066 0.18s-0.080 0.181-0.080 0.199-0.017 0.024-0.037 0.011c-0.022-0.014-0.028-0.009-0.015 0.013 0.012 0.020 0.008 0.061-0.009 0.093s-0.049 0.103-0.072 0.159c-0.023 0.056-0.052 0.095-0.066 0.086s-0.025 0.020-0.025 0.063c0 0.099-0.078 0.252-0.112 0.221-0.014-0.013-0.017 0.001-0.006 0.032s-0.002 0.076-0.028 0.103c-0.026 0.026-0.046 0.052-0.044 0.057 0.014 0.035-0.046 0.181-0.069 0.167-0.016-0.010-0.020 0.003-0.011 0.028s-0.003 0.066-0.027 0.090c-0.024 0.024-0.039 0.059-0.033 0.078s-0.018 0.064-0.054 0.103c-0.036 0.038-0.063 0.081-0.061 0.095 0.012 0.073-0.008 0.138-0.036 0.121-0.018-0.011-0.031-0.008-0.028 0.006 0.014 0.080-0.007 0.14-0.040 0.119-0.025-0.015-0.031-0.006-0.019 0.026 0.010 0.027-0.009 0.095-0.043 0.15s-0.061 0.123-0.061 0.15c0 0.027-0.011 0.042-0.025 0.033s-0.028 0.014-0.030 0.050-0.031 0.095-0.063 0.131c-0.035 0.040-0.040 0.055-0.011 0.039 0.025-0.015 0.011 0.022-0.032 0.083s-0.075 0.113-0.070 0.118c0.025 0.025 0.002 0.104-0.025 0.088-0.018-0.011-0.031-0.008-0.028 0.006 0.013 0.075-0.007 0.14-0.037 0.121-0.019-0.012-0.030-0.002-0.025 0.022 0.014 0.066-0.105 0.348-0.138 0.328-0.016-0.010-0.026-0.006-0.022 0.009 0.015 0.056-0.044 0.234-0.072 0.217-0.016-0.010-0.020 0.007-0.008 0.037 0.015 0.038 0.009 0.048-0.017 0.031-0.021-0.013-0.035-0.012-0.031 0.003 0.015 0.057-0.044 0.234-0.073 0.216-0.017-0.010-0.028-0.007-0.026 0.008 0.013 0.075-0.007 0.14-0.037 0.121-0.019-0.012-0.030-0.002-0.024 0.022 0.012 0.053-0.068 0.251-0.102 0.251-0.014 0-0.024 0.018-0.022 0.040 0.004 0.066-0.077 0.248-0.11 0.248-0.017 0-0.023 0.013-0.013 0.029s-0.004 0.070-0.030 0.12-0.048 0.11-0.048 0.133c-0 0.023-0.015 0.033-0.033 0.022s-0.031-0.008-0.028 0.006c0.014 0.079-0.007 0.14-0.040 0.119-0.022-0.013-0.028-0.009-0.016 0.011 0.027 0.044-0.056 0.241-0.088 0.209-0.013-0.013-0.022-0.010-0.018 0.007 0.015 0.073-0.003 0.147-0.031 0.129-0.017-0.010-0.028 0.008-0.026 0.040 0.005 0.073-0.097 0.294-0.136 0.294-0.016 0-0.024 0.026-0.018 0.057s-0.007 0.090-0.028 0.13c-0.054 0.102-0.004 0.498 0.081 0.636 0.036 0.058 0.057 0.106 0.048 0.106-0.030 0 0.245 0.27 0.282 0.276 0.063 0.011 0.306 0.13 0.293 0.143-0.007 0.007 0.022 0.015 0.065 0.018s0.117 0.031 0.165 0.063c0.048 0.032 0.102 0.059 0.12 0.060s0.088 0.027 0.156 0.057c0.068 0.030 0.135 0.055 0.149 0.055s0.030 0.015 0.036 0.032c0.006 0.018 0.046 0.039 0.088 0.047s0.086 0.026 0.096 0.040c0.010 0.014 0.054 0.029 0.098 0.034s0.090 0.029 0.104 0.053c0.014 0.024 0.051 0.037 0.084 0.029s0.084 0.009 0.114 0.040c0.030 0.030 0.086 0.059 0.125 0.064s0.117 0.016 0.175 0.023 0.098 0.007 0.089-0.002c-0.009-0.009 0.030-0.054 0.087-0.1l0.103-0.084-0.007-1.464c-0.004-0.805 0.004-1.464 0.018-1.464s0.027-0.032 0.029-0.072c0.007-0.126 0.030-0.237 0.058-0.282 0.015-0.024 0.031-0.079 0.035-0.122s0.027-0.090 0.050-0.104 0.042-0.037 0.043-0.051c0.005-0.074 0.055-0.167 0.087-0.161 0.020 0.004 0.038-0.007 0.039-0.025 0.006-0.071 0.086-0.176 0.119-0.156 0.020 0.012 0.026 0.007 0.015-0.011s0.008-0.058 0.043-0.090c0.035-0.031 0.064-0.044 0.065-0.028s0.013 0 0.027-0.034c0.014-0.035 0.057-0.071 0.096-0.080s0.071-0.031 0.070-0.049c-0.001-0.063 0.378-0.225 0.701-0.299 0.044-0.010 1.848-0.019 4.008-0.020s3.928-0.011 3.928-0.023c0-0.012 0.027-0.031 0.061-0.041 0.146-0.046 0.046-0.388-0.101-0.344-0.013 0.004-0.024-0.008-0.024-0.027s-0.014-0.025-0.032-0.014c-0.018 0.011-0.032 0.005-0.032-0.013s-0.022-0.025-0.048-0.014c-0.027 0.010-0.048 0.001-0.048-0.022s-0.010-0.031-0.021-0.019c-0.012 0.012-0.055-0.001-0.096-0.027s-0.075-0.041-0.075-0.032-0.054-0.012-0.12-0.047c-0.066-0.035-0.136-0.064-0.157-0.064s-0.045-0.022-0.056-0.048c-0.010-0.027-0.030-0.046-0.043-0.042-0.047 0.011-0.283-0.068-0.346-0.116-0.035-0.026-0.089-0.048-0.121-0.049-0.036-0.001-0.049-0.015-0.035-0.038 0.016-0.025 0.006-0.031-0.030-0.017-0.029 0.011-0.053 0.006-0.053-0.011s-0.011-0.029-0.024-0.027c-0.072 0.011-0.137-0.008-0.12-0.035 0.011-0.018-0.002-0.023-0.030-0.013-0.027 0.010-0.050 0.004-0.050-0.015s-0.024-0.025-0.053-0.014c-0.039 0.015-0.046 0.009-0.027-0.022 0.017-0.028 0.014-0.035-0.010-0.020-0.020 0.012-0.069 0.002-0.109-0.023s-0.163-0.077-0.272-0.117c-0.117-0.042-0.191-0.086-0.179-0.105 0.011-0.018 0.005-0.024-0.013-0.012-0.036 0.022-0.269-0.064-0.298-0.11-0.010-0.015-0.046-0.033-0.080-0.040-0.098-0.019-0.312-0.119-0.38-0.177-0.034-0.029-0.051-0.035-0.038-0.013 0.016 0.027 0.007 0.033-0.026 0.021-0.027-0.010-0.050-0.030-0.050-0.044s-0.051-0.035-0.113-0.046c-0.062-0.012-0.104-0.035-0.094-0.052s-0.010-0.030-0.045-0.030-0.073-0.014-0.084-0.032c-0.011-0.018-0.055-0.032-0.098-0.032s-0.078-0.012-0.078-0.027c0-0.015-0.020-0.027-0.044-0.027-0.071 0-0.244-0.080-0.244-0.112 0-0.017-0.014-0.021-0.032-0.010s-0.032 0.003-0.032-0.017c0-0.020-0.018-0.030-0.040-0.022s-0.076-0.003-0.12-0.024c-0.044-0.021-0.145-0.070-0.224-0.108s-0.163-0.069-0.186-0.069-0.034-0.013-0.024-0.029c0.010-0.016-0.005-0.037-0.032-0.048s-0.041-0.005-0.030 0.012-0.002 0.023-0.030 0.012-0.050-0.032-0.050-0.048-0.031-0.029-0.069-0.029c-0.038 0-0.135-0.039-0.216-0.087s-0.161-0.088-0.179-0.090c-0.091-0.008-0.205-0.058-0.19-0.083 0.010-0.016-0.005-0.020-0.032-0.009s-0.050 0.004-0.050-0.015c0-0.019-0.024-0.025-0.053-0.014-0.039 0.015-0.046 0.009-0.027-0.022 0.018-0.029 0.014-0.035-0.012-0.019-0.021 0.013-0.056 0.010-0.077-0.007s-0.132-0.068-0.247-0.113c-0.286-0.114-0.383-0.162-0.384-0.189-0-0.013-0.024-0.014-0.053-0.003-0.039 0.015-0.046 0.009-0.027-0.022 0.017-0.028 0.014-0.035-0.010-0.020-0.020 0.012-0.072-0.002-0.117-0.031s-0.081-0.045-0.081-0.036c0 0.009-0.066-0.018-0.146-0.060s-0.167-0.077-0.194-0.077c-0.029 0-0.039-0.015-0.025-0.037 0.016-0.025 0.006-0.031-0.030-0.017-0.029 0.011-0.053 0.006-0.053-0.011s-0.011-0.029-0.024-0.026c-0.060 0.013-0.198-0.047-0.179-0.078 0.013-0.021 0.001-0.026-0.031-0.014-0.029 0.011-0.071 0.003-0.093-0.019s-0.055-0.039-0.073-0.039c-0.063-0-0.336-0.121-0.336-0.148 0-0.015-0.028-0.028-0.062-0.028s-0.083-0.021-0.108-0.046-0.052-0.042-0.058-0.036c-0.006 0.006-0.084 0.001-0.172-0.011s-0.221-0.011-0.296 0.002zM4.696 5.187c-0.031 0.018-0.071 0.024-0.088 0.013s-0.032-0.006-0.032 0.011c0 0.029-0.118 0.080-0.168 0.073-0.013-0.002-0.024 0.012-0.024 0.030s-0.017 0.024-0.037 0.011c-0.021-0.013-0.028-0.009-0.017 0.010s-0.037 0.073-0.107 0.121c-0.123 0.085-0.171 0.137-0.087 0.095 0.022-0.011 0.012 0.002-0.022 0.030s-0.064 0.082-0.067 0.121c-0.003 0.039-0.020 0.076-0.039 0.082s-0.026 0.042-0.016 0.079c0.012 0.046 0.006 0.060-0.019 0.045-0.027-0.017-0.036 0.863-0.036 3.491 0.001 3.755 0 3.737 0.154 3.89 0.020 0.020 0.036 0.051 0.036 0.070s0.029 0.052 0.064 0.074c0.035 0.022 0.064 0.060 0.064 0.084s0.022 0.053 0.050 0.063c0.034 0.013 0.042 0.006 0.026-0.021-0.013-0.022 0.005-0.016 0.038 0.013 0.118 0.1 0.328 0.189 0.462 0.195 0.026 0.001 0.338 0 0.693-0.002l0.645-0.004-0.010-0.464c-0.005-0.255-0-0.464 0.011-0.464s0.021-0.054 0.021-0.12v-0.12l-1.024-0.032v-3.2l9.088-0.016-0.009 1.6-0.009 1.6h-0.983l0.009 0.544c0.005 0.299-0.004 0.544-0.019 0.544s-0.025 0.037-0.021 0.082l0.007 0.082 0.673-0.015c0.763-0.017 0.881-0.026 0.881-0.062 0-0.014 0.013-0.018 0.030-0.008s0.038 0.004 0.049-0.013c0.011-0.017 0.043-0.022 0.071-0.011 0.035 0.013 0.045 0.008 0.029-0.017-0.020-0.033-0.001-0.044 0.064-0.035 0.010 0.001 0.070-0.053 0.132-0.12s0.102-0.102 0.088-0.078c-0.016 0.030-0.012 0.037 0.012 0.022 0.020-0.013 0.037-0.048 0.037-0.078s0.029-0.080 0.065-0.111c0.036-0.031 0.056-0.071 0.045-0.088s-0.001-0.056 0.023-0.084c0.072-0.087 0.059-7.338-0.013-7.338-0.013 0-0.024-0.026-0.024-0.057s-0.029-0.082-0.065-0.113c-0.037-0.031-0.056-0.073-0.043-0.095s0.011-0.028-0.004-0.015c-0.036 0.032-0.116-0.039-0.091-0.080 0.011-0.018 0.006-0.024-0.012-0.013s-0.096-0.026-0.173-0.083c-0.077-0.057-0.169-0.109-0.204-0.117-0.146-0.032-10.049-0.031-10.104 0zM14.256 6.864v0.528l-9.088-0.016-0.009-0.479c-0.005-0.263-0.002-0.497 0.007-0.52 0.013-0.034 0.871-0.041 4.553-0.041h4.537v0.528zM9.279 10.778c-0.096 0.023-0.196 0.046-0.223 0.052s-0.070 0.018-0.096 0.028-0.077 0.023-0.112 0.028c-0.035 0.005-0.078 0.027-0.096 0.047s-0.061 0.042-0.096 0.048c-0.035 0.006-0.083 0.028-0.107 0.050s-0.058 0.031-0.077 0.019c-0.019-0.012-0.027-0.008-0.017 0.008s-0.032 0.061-0.093 0.101c-0.060 0.039-0.101 0.054-0.089 0.032s-0.011-0.004-0.049 0.040c-0.038 0.044-0.059 0.058-0.046 0.032s-0.030 0.013-0.096 0.088c-0.066 0.075-0.134 0.136-0.153 0.136-0.045 0-0.153 0.127-0.153 0.179 0 0.023-0.017 0.051-0.037 0.064-0.024 0.015-0.028 0.009-0.011-0.019s0.013-0.034-0.010-0.020c-0.020 0.012-0.027 0.043-0.018 0.069s0.006 0.047-0.010 0.047-0.047 0.043-0.070 0.096c-0.023 0.053-0.056 0.088-0.073 0.078s-0.028-0.007-0.025 0.008c0.003 0.014 0.001 0.037-0.003 0.050-0.013 0.040-0.024 0.086-0.028 0.122-0.002 0.019-0.019 0.025-0.037 0.014s-0.031-0.008-0.028 0.006c0.011 0.056-0.045 0.234-0.073 0.234-0.016 0-0.021 0.014-0.011 0.030s-0.008 0.107-0.041 0.2c-0.033 0.093-0.055 0.224-0.050 0.29s-0.004 0.12-0.021 0.12c-0.018 0-0.022 0.057-0.011 0.136 0.011 0.075 0.022 0.197 0.025 0.271s0.015 0.144 0.026 0.155c0.011 0.011 0.013 0.041 0.003 0.066s-0.003 0.063 0.015 0.085c0.018 0.022 0.043 0.094 0.055 0.16s0.036 0.12 0.053 0.12 0.022 0.013 0.012 0.030c-0.010 0.016-0.003 0.039 0.016 0.051s0.027 0.042 0.017 0.068c-0.010 0.026-0.004 0.038 0.014 0.027 0.030-0.019 0.037-0.005 0.044 0.088 0.002 0.022 0.029 0.059 0.061 0.083s0.052 0.059 0.045 0.080c-0.007 0.020 0.022 0.064 0.064 0.097s0.069 0.067 0.060 0.077c-0.009 0.009 0.019 0.045 0.063 0.079s0.071 0.076 0.061 0.092c-0.010 0.016 0 0.029 0.023 0.029s0.085 0.047 0.138 0.105c0.243 0.263 0.852 0.599 1.085 0.599 0.031 0 0.048 0.012 0.039 0.028s0.019 0.024 0.062 0.019c0.043-0.005 0.085 0.001 0.093 0.014s0.072 0.019 0.144 0.015 0.13 0.004 0.13 0.018c0 0.014 0.047 0.021 0.104 0.016 0.338-0.029 0.43-0.041 0.48-0.061 0.031-0.012 0.077-0.014 0.102-0.005s0.050 0.008 0.056-0.005c0.017-0.037 0.345-0.139 0.379-0.118 0.017 0.011 0.031 0.006 0.031-0.009 0-0.030 0.151-0.115 0.208-0.118 0.018-0.001 0.055-0.023 0.083-0.049 0.090-0.085 0.231-0.176 0.258-0.168 0.015 0.004 0.023-0.009 0.019-0.029s0.028-0.048 0.072-0.061c0.044-0.013 0.067-0.025 0.051-0.027-0.036-0.004 0.134-0.163 0.174-0.163 0.017 0 0.030-0.030 0.030-0.066s0.011-0.059 0.024-0.051c0.029 0.018 0.084-0.044 0.098-0.108 0.005-0.026 0.031-0.063 0.056-0.082s0.046-0.052 0.046-0.073c0-0.042 0.095-0.2 0.138-0.231 0.015-0.011 0.026-0.029 0.025-0.040-0.010-0.072 0.001-0.118 0.024-0.104 0.015 0.009 0.028-0.001 0.030-0.022s0.026-0.125 0.054-0.231c0.107-0.401 0.115-0.85 0.020-1.193-0.021-0.075-0.028-0.153-0.015-0.173 0.013-0.021 0.008-0.027-0.012-0.015s-0.043-0.021-0.056-0.083c-0.012-0.057-0.043-0.137-0.068-0.177s-0.038-0.087-0.027-0.104c0.011-0.017 0.004-0.031-0.016-0.031s-0.044-0.025-0.055-0.056c-0.011-0.031-0.040-0.080-0.065-0.109s-0.049-0.075-0.053-0.102-0.059-0.096-0.123-0.155c-0.064-0.058-0.115-0.121-0.114-0.138s-0.025-0.047-0.058-0.064c-0.033-0.018-0.117-0.085-0.187-0.15s-0.138-0.11-0.152-0.102c-0.014 0.009-0.034-0.005-0.044-0.031s-0.054-0.056-0.097-0.067c-0.048-0.012-0.070-0.034-0.057-0.056s0.008-0.027-0.016-0.012c-0.021 0.013-0.058 0.007-0.082-0.013-0.049-0.041-0.362-0.165-0.425-0.169-0.022-0.001-0.040-0.013-0.040-0.026s-0.029-0.016-0.064-0.007-0.064 0.003-0.064-0.013c0-0.017-0.043-0.024-0.096-0.016s-0.096 0.002-0.096-0.014c0-0.043-0.575-0.032-0.769 0.015zM9.856 11.527c0 0.014 0.018 0.021 0.040 0.017 0.028-0.006 0.039 0.038 0.037 0.144-0.003 0.151-0.002 0.152 0.128 0.19 0.072 0.021 0.138 0.040 0.147 0.042s0.070 0.016 0.137 0.030c0.118 0.025 0.219 0.133 0.162 0.174-0.015 0.011-0.032 0.063-0.037 0.116-0.021 0.2-0.149 0.282-0.297 0.19-0.047-0.029-0.092-0.040-0.213-0.053-0.040-0.004-0.072-0.017-0.072-0.028 0-0.017-0.117-0-0.311 0.045-0.090 0.021-0.145 0.31-0.059 0.31 0.025 0 0.064 0.019 0.087 0.041s0.093 0.062 0.154 0.087 0.131 0.064 0.155 0.087 0.056 0.033 0.073 0.023c0.058-0.036 0.459 0.225 0.427 0.277-0.009 0.014 0.012 0.041 0.046 0.059 0.128 0.068 0.208 0.608 0.1 0.674-0.022 0.014-0.032 0.038-0.021 0.055 0.022 0.035-0.314 0.366-0.343 0.338-0.011-0.011-0.019-0.004-0.019 0.015s-0.044 0.044-0.097 0.056c-0.132 0.029-0.188 0.127-0.175 0.308l0.011 0.148h-0.205c-0.113 0-0.206-0.009-0.207-0.020-0.007-0.083-0.031-0.315-0.035-0.343-0.003-0.019-0.046-0.037-0.096-0.041-0.186-0.012-0.219-0.019-0.219-0.042 0-0.013-0.024-0.015-0.053-0.004-0.039 0.015-0.046 0.009-0.027-0.022s0.009-0.038-0.041-0.025c-0.14 0.037-0.254-0.128-0.159-0.23 0.022-0.024 0.025-0.035 0.006-0.024s-0.013-0.047 0.016-0.138c0.034-0.106 0.065-0.153 0.098-0.147 0.148 0.029 0.221 0.062 0.203 0.092-0.012 0.020-0.005 0.024 0.016 0.011 0.020-0.013 0.055-0.012 0.077 0.002 0.107 0.067 0.478 0.072 0.557 0.007 0.048-0.039 0.051-0.038 0.028 0.003-0.015 0.026 0.002 0.019 0.037-0.017 0.106-0.109 0.112-0.236 0.015-0.332-0.046-0.046-0.082-0.091-0.079-0.1s-0.021-0.019-0.053-0.022c-0.032-0.002-0.12-0.034-0.196-0.071s-0.157-0.066-0.181-0.066c-0.024 0-0.036-0.013-0.026-0.029s-0.005-0.037-0.032-0.048c-0.034-0.013-0.042-0.006-0.026 0.021 0.027 0.044-0.087-0.037-0.123-0.088-0.013-0.018-0.035-0.032-0.049-0.032-0.035 0-0.211-0.176-0.177-0.177 0.014-0.001-0-0.016-0.031-0.034s-0.048-0.047-0.038-0.063c0.010-0.017 0.004-0.030-0.014-0.030s-0.033-0.047-0.034-0.104c-0.001-0.057-0.002-0.126-0.004-0.152s0.005-0.077 0.013-0.112c0.009-0.035 0.020-0.086 0.027-0.112s0.025-0.058 0.043-0.071c0.018-0.013 0.034-0.038 0.036-0.056s0.006-0.048 0.008-0.065c0.002-0.018 0.026-0.032 0.054-0.032s0.042-0.013 0.032-0.028c-0.010-0.016 0.020-0.053 0.066-0.083 0.057-0.038 0.077-0.041 0.061-0.012-0.012 0.024 0.001 0.015 0.029-0.021s0.058-0.060 0.067-0.055c0.114 0.066 0.231-0.149 0.208-0.382-0.003-0.029 0.020-0.058 0.051-0.064 0.106-0.020 0.299-0.012 0.299 0.013z"></path>
</svg>
