<!-- Generated by IcoMoon.io -->
<svg version="1.1" xmlns="http://www.w3.org/2000/svg" width="20" height="20" viewBox="0 0 20 20">
<title>s_tab4</title>
<path fill="#555" d="M3.095 0.73c-0.053 0.006-0.080 0.024-0.068 0.044s0.002 0.028-0.023 0.019c-0.024-0.008-0.064 0.008-0.087 0.036-0.033 0.039-0.037 0.040-0.018 0.003 0.021-0.042 0.017-0.042-0.030-0.003-0.030 0.025-0.047 0.052-0.038 0.061s-0.016 0.033-0.055 0.054c-0.039 0.021-0.068 0.054-0.064 0.075s-0.006 0.037-0.024 0.037c-0.018 0-0.030 0.011-0.028 0.024s0.001 0.031-0.002 0.040c-0.003 0.009-0.013 0.052-0.021 0.096s-0.025 0.084-0.038 0.088c-0.018 0.006-0.029 10.308-0.011 10.674 0.002 0.051 0.018 0.081 0.036 0.070s0.032 0 0.032 0.025c0 0.025 0.021 0.045 0.047 0.045s0.039-0.012 0.030-0.027c-0.009-0.015 0-0.027 0.021-0.027s0.029-0.022 0.018-0.049c-0.011-0.028 0.002-0.057 0.028-0.067s0.040-0.030 0.031-0.044c-0.026-0.042 0.020-0.129 0.057-0.106 0.019 0.012 0.024 0.006 0.012-0.014s-0.009-0.043 0.007-0.052c0.016-0.010 0.037-0.062 0.048-0.116s0.034-0.090 0.052-0.079c0.019 0.012 0.024-0.002 0.011-0.035-0.014-0.037-0.009-0.047 0.016-0.032s0.030 0.005 0.016-0.032-0.009-0.047 0.016-0.032c0.023 0.014 0.031 0.007 0.021-0.020-0.009-0.024 0.009-0.071 0.040-0.106 0.054-0.060 0.057-0.317 0.057-5.007v-4.944l2.702-0.008c1.486-0.004 2.715 0.004 2.73 0.019s0.032 0.422 0.037 0.904c0.010 0.922 0.013 0.957 0.058 0.957 0.016 0 0.021 0.013 0.011 0.029s0.019 0.038 0.063 0.049c0.045 0.011 0.073 0.033 0.063 0.049-0.011 0.017 0.296 0.030 0.743 0.032 0.835 0.004 0.889 0.007 0.889 0.057 0 0.019 0.011 0.045 0.024 0.058s0.024 1.102 0.024 2.419v2.395h0.543l0.008-2.662c0.009-2.943 0.026-2.667-0.174-2.887-0.030-0.033-0.048-0.073-0.039-0.088s-0.007-0.027-0.035-0.027c-0.031 0-0.043-0.015-0.029-0.037s0.009-0.028-0.012-0.016c-0.019 0.012-0.064-0.018-0.101-0.067s-0.081-0.106-0.099-0.127c-0.018-0.021-0.032-0.054-0.032-0.072s-0.019-0.033-0.043-0.033-0.069-0.029-0.101-0.064c-0.032-0.035-0.046-0.064-0.032-0.064s-0.012-0.035-0.059-0.078-0.085-0.092-0.085-0.108c0-0.016-0.025-0.049-0.056-0.074-0.052-0.041-0.052-0.039-0.009 0.020 0.035 0.047 0.024 0.044-0.040-0.013-0.048-0.043-0.081-0.084-0.073-0.091s-0.019-0.045-0.059-0.083-0.082-0.094-0.093-0.125c-0.011-0.031-0.054-0.069-0.094-0.084s-0.094-0.066-0.118-0.112c-0.025-0.046-0.057-0.084-0.071-0.084s-0.027-0.020-0.027-0.044-0.024-0.064-0.054-0.088c-0.047-0.038-0.051-0.037-0.029 0.004 0.014 0.026-0.012 0.005-0.057-0.048s-0.104-0.121-0.131-0.152c-0.027-0.031-0.049-0.069-0.049-0.084s-0.025-0.048-0.056-0.072c-0.052-0.041-0.052-0.039-0.009 0.020 0.027 0.037 0.006 0.027-0.049-0.024l-0.096-0.087-2.943-0.009c-1.619-0.005-2.983-0.004-3.031 0.002zM9.383 1.92c0.014 0 0.025 0.020 0.025 0.044s0.025 0.064 0.056 0.088c0.051 0.040 0.052 0.039 0.012-0.020-0.024-0.035-0.003-0.019 0.048 0.035 0.136 0.146 0.19 0.217 0.214 0.281 0.012 0.032 0.051 0.065 0.087 0.075s0.087 0.058 0.113 0.109c0.026 0.051 0.060 0.092 0.075 0.092s0.035 0.029 0.044 0.064c0.016 0.062 0.001 0.064-0.396 0.064h-0.413l0.001-0.504c0.001-0.488 0.003-0.501 0.055-0.416 0.030 0.048 0.066 0.088 0.079 0.088zM4.049 3.967c-0.010 0.017-0.042 0.022-0.071 0.011-0.033-0.012-0.044-0.007-0.031 0.014 0.020 0.032-0.063 0.089-0.115 0.078-0.013-0.003-0.022 0.006-0.020 0.019 0.010 0.062-0.007 0.106-0.033 0.090-0.031-0.019-0.017 0.21 0.019 0.317 0.012 0.036 0.023 0.075 0.024 0.086s0.015 0.033 0.031 0.048c0.017 0.016 0.019 0.007 0.006-0.021-0.015-0.030-0.006-0.027 0.022 0.007 0.042 0.052 0.235 0.055 2.918 0.056 1.58 0.001 2.885 0.009 2.901 0.019s0.037-0.005 0.048-0.032c0.011-0.027 0.030-0.043 0.043-0.035 0.022 0.013 0.102-0.144 0.139-0.271 0.008-0.026-0.005-0.086-0.029-0.132s-0.035-0.091-0.026-0.101c0.009-0.009-0.062-0.054-0.159-0.1l-0.176-0.083h-2.736c-1.706 0-2.743 0.012-2.755 0.031zM0.978 5.059c-0.063 0.034-0.114 0.054-0.114 0.045s-0.065 0.051-0.144 0.134c-0.079 0.083-0.144 0.163-0.144 0.178s-0.018 0.018-0.040 0.005c-0.022-0.013-0.030-0.012-0.017 0.002s0.003 0.073-0.021 0.131c-0.024 0.058-0.036 0.114-0.025 0.124s0.005 0.019-0.011 0.019c-0.018 0-0.029 1.739-0.029 4.36 0 4.542 0.002 4.624 0.131 4.73 0.025 0.021 0.045 0.056 0.045 0.078s0.023 0.049 0.050 0.060c0.028 0.011 0.040 0.036 0.027 0.056-0.014 0.023-0.009 0.029 0.012 0.015 0.019-0.012 0.050 0.005 0.067 0.037s0.090 0.077 0.162 0.098c0.071 0.021 0.13 0.050 0.13 0.064 0 0.054 11.085 0.045 11.215-0.009 0.066-0.027 0.135-0.041 0.153-0.029 0.021 0.013 0.024 0.005 0.008-0.020-0.017-0.027-0.011-0.036 0.018-0.027 0.024 0.008 0.093-0.033 0.152-0.091s0.124-0.102 0.143-0.098c0.019 0.004 0.036-0.012 0.036-0.036s0.026-0.061 0.057-0.083c0.031-0.022 0.046-0.050 0.035-0.061s-0.004-0.021 0.017-0.021c0.021 0 0.034-0.011 0.031-0.024-0.013-0.050 0.043-0.163 0.090-0.181 0.027-0.010 0.040-0.033 0.029-0.051s-0.005-0.032 0.013-0.032 0.025-0.022 0.014-0.048c-0.010-0.026-0.002-0.048 0.017-0.048s0.035-0.028 0.035-0.062c0-0.034 0.021-0.074 0.046-0.088s0.045-0.033 0.043-0.042c-0.007-0.046 0.053-0.174 0.107-0.228 0.034-0.034 0.070-0.105 0.081-0.157s0.032-0.095 0.049-0.095c0.016 0 0.022-0.013 0.012-0.028s0.011-0.065 0.046-0.109c0.035-0.044 0.064-0.102 0.064-0.128s0.022-0.065 0.048-0.087 0.048-0.059 0.048-0.082c0-0.023 0.023-0.064 0.050-0.092s0.042-0.050 0.032-0.050c-0.019 0 0.144-0.324 0.177-0.352 0.010-0.009 0.029-0.056 0.041-0.104s0.035-0.088 0.050-0.088c0.016 0 0.046-0.050 0.066-0.112s0.051-0.112 0.068-0.112c0.017 0 0.022-0.015 0.012-0.032s0.002-0.041 0.028-0.051 0.041-0.036 0.033-0.058c-0.008-0.022 0.016-0.074 0.053-0.117 0.088-0.101 0.177-0.269 0.125-0.238-0.047 0.029 0.059-0.138 0.139-0.218 0.032-0.032 0.050-0.080 0.041-0.106s0.003-0.055 0.028-0.064c0.025-0.010 0.038-0.036 0.030-0.059s0.008-0.050 0.036-0.061 0.043-0.034 0.033-0.051c-0.021-0.033 0.031-0.138 0.116-0.234 0.029-0.033 0.083-0.144 0.121-0.246s0.089-0.195 0.115-0.204c0.027-0.010 0.039-0.039 0.028-0.067s-0.003-0.049 0.017-0.049 0.035-0.022 0.035-0.048c0-0.026 0.014-0.048 0.032-0.048s0.028-0.011 0.024-0.025c-0.013-0.040 0.111-0.295 0.143-0.295 0.016 0 0.020-0.015 0.009-0.032s0.002-0.041 0.030-0.051c0.027-0.011 0.042-0.032 0.032-0.048s0.005-0.051 0.032-0.079 0.050-0.076 0.050-0.108c0-0.032 0.022-0.076 0.048-0.098s0.048-0.060 0.048-0.084c0-0.024 0.014-0.044 0.031-0.044s0.022-0.024 0.011-0.053c-0.015-0.039-0.009-0.046 0.022-0.027 0.024 0.015 0.035 0.014 0.024-0.003s-0.007-0.088 0.006-0.159c0.022-0.121-0.085-0.461-0.144-0.461-0.009 0-0.007 0.018 0.006 0.040s-0.009 0.008-0.047-0.032c-0.038-0.040-0.087-0.072-0.109-0.073s-0.708-0-1.527 0.001l-1.488 0.001 0.009-0.648c0.005-0.357-0.004-0.677-0.020-0.713-0.042-0.091-0.114-0.347-0.106-0.379 0.004-0.015-0.006-0.019-0.021-0.009s-0.047-0.018-0.070-0.062c-0.023-0.043-0.054-0.079-0.069-0.079s-0.027-0.022-0.027-0.048-0.011-0.046-0.024-0.044c-0.064 0.010-0.106-0.007-0.088-0.035 0.011-0.018-0.002-0.023-0.030-0.013-0.027 0.010-0.050 0.006-0.050-0.011s-0.018-0.032-0.040-0.034c-0.067-0.006-0.134-0.024-0.168-0.045-0.021-0.013-0.032 0.342-0.032 1.041v1.061l-3.172 0.008c-1.745 0.004-3.199 0.017-3.232 0.028-0.172 0.059-0.295 0.123-0.28 0.146 0.009 0.015-0.013 0.027-0.050 0.027s-0.062 0.012-0.058 0.026c0.010 0.033-0.144 0.262-0.176 0.262-0.013 0-0.024 0.027-0.024 0.060s-0.021 0.078-0.048 0.1c-0.026 0.022-0.040 0.052-0.030 0.068s0.001 0.028-0.018 0.028c-0.020 0-0.028 0.012-0.019 0.028 0.026 0.041-0.092 0.266-0.124 0.237-0.015-0.014-0.018-0.008-0.006 0.013s0.009 0.046-0.007 0.055c-0.016 0.010-0.037 0.062-0.048 0.116-0.013 0.064-0.033 0.091-0.057 0.076-0.022-0.014-0.029-0.009-0.016 0.011 0.026 0.043-0.009 0.141-0.043 0.12-0.014-0.009-0.034 0.007-0.044 0.034-0.013 0.033-0.006 0.042 0.021 0.027 0.022-0.013 0.004 0.018-0.040 0.067s-0.062 0.080-0.040 0.067c0.027-0.015 0.033-0.007 0.021 0.027-0.010 0.027-0.032 0.050-0.048 0.050s-0.029 0.028-0.029 0.062c0 0.034-0.022 0.084-0.049 0.111s-0.047 0.057-0.045 0.067c0.007 0.033-0.113 0.304-0.135 0.304-0.012 0-0.031 0.043-0.043 0.096s-0.032 0.090-0.045 0.081c-0.013-0.008-0.024 0.003-0.024 0.024-0 0.069-0.234 0.535-0.269 0.535-0.018 0-0.025 0.013-0.015 0.029s-0.005 0.052-0.032 0.080c-0.028 0.028-0.042 0.051-0.032 0.051s-0.005 0.036-0.033 0.080c-0.029 0.044-0.044 0.080-0.033 0.080s-0.013 0.061-0.052 0.136c-0.039 0.075-0.074 0.156-0.077 0.181s-0.023 0.055-0.043 0.067c-0.020 0.012-0.040 0.045-0.044 0.074s-0.036 0.083-0.070 0.122c-0.038 0.043-0.044 0.061-0.014 0.044 0.034-0.019 0.032-0.009-0.008 0.037-0.031 0.035-0.056 0.081-0.056 0.103 0 0.064-0.127 0.292-0.163 0.292-0.018 0-0.025 0.013-0.015 0.030 0.023 0.037-0.046 0.194-0.086 0.194-0.016 0-0.021 0.013-0.011 0.028s-0.004 0.046-0.030 0.068c-0.026 0.022-0.040 0.051-0.031 0.065s-0.005 0.047-0.031 0.073c-0.026 0.026-0.038 0.056-0.027 0.067s0.002 0.020-0.019 0.020-0.030 0.014-0.019 0.032c0.011 0.018 0.005 0.032-0.013 0.032s-0.025 0.021-0.015 0.048c0.010 0.027-0.004 0.056-0.033 0.067s-0.044 0.031-0.035 0.045c0.024 0.039-0.019 0.13-0.052 0.109-0.016-0.010-0.026-0.006-0.022 0.008s-0.008 0.055-0.028 0.090c-0.036 0.065-0.042 0.085-0.042 0.146 0 0.019-0.014 0.025-0.032 0.014-0.019-0.012-0.023 0.003-0.011 0.035 0.014 0.037 0.009 0.047-0.016 0.032s-0.030-0.005-0.016 0.032c0.015 0.040 0.010 0.048-0.021 0.029-0.028-0.017-0.035-0.014-0.020 0.009 0.099 0.16-0.521 0.246-0.794 0.11-0.225-0.112-0.211 0.187-0.21-4.356 0.001-3.58 0.007-4.103 0.048-4.144 0.026-0.026 0.048-0.062 0.048-0.080s0.017-0.043 0.037-0.055c0.024-0.015 0.029-0.008 0.013 0.022-0.013 0.025 0.004 0.011 0.038-0.031 0.056-0.069 0.093-0.077 0.419-0.093l0.357-0.017v-0.697l-0.51 0.004c-0.436 0.004-0.526 0.013-0.624 0.065zM3.953 6.17c-0.009 0.023-0.041 0.037-0.072 0.032-0.034-0.006-0.053 0.008-0.047 0.034 0.005 0.024-0.009 0.066-0.032 0.093-0.049 0.058-0.061 0.334-0.014 0.305 0.018-0.011 0.024 0.001 0.014 0.027-0.013 0.033 0.036 0.072 0.166 0.134l0.184 0.087 2.733-0.011c2.976-0.012 2.8-0.007 2.89-0.091 0.035-0.032 0.077-0.059 0.094-0.059s0.022-0.009 0.011-0.020c-0.011-0.011-0.004-0.051 0.016-0.088 0.053-0.1 0.051-0.218-0.005-0.284-0.027-0.032-0.050-0.075-0.050-0.097s-0.019-0.039-0.041-0.039c-0.023 0-0.051-0.014-0.064-0.032-0.038-0.053-5.762-0.043-5.782 0.010zM4.022 8.294c-0.019 0.012-0.049 0.013-0.066 0.003-0.018-0.011-0.020-0.001-0.004 0.024 0.019 0.031 0.012 0.037-0.027 0.022-0.029-0.011-0.050-0.010-0.046 0.003 0.009 0.029-0.089 0.171-0.107 0.154-0.007-0.007-0.016 0.044-0.021 0.114-0.009 0.161 0.083 0.294 0.253 0.361 0.178 0.071 0.212 0.063 0.264-0.062 0.026-0.062 0.062-0.112 0.080-0.112s0.034-0.022 0.034-0.048 0.015-0.048 0.033-0.048 0.047-0.037 0.064-0.083c0.017-0.046 0.060-0.091 0.095-0.1s0.056-0.029 0.046-0.044c-0.009-0.015 0.019-0.036 0.062-0.047s0.087-0.042 0.098-0.069c0.012-0.032 0.043-0.042 0.087-0.031 0.040 0.010 0.056 0.006 0.040-0.011-0.034-0.034-0.836-0.058-0.886-0.026z"></path>
</svg>
