<!-- Generated by IcoMoon.io -->
<svg version="1.1" xmlns="http://www.w3.org/2000/svg" width="20" height="20" viewBox="0 0 20 20">
<title>s_tab9</title>
<path fill="#555" d="M7.763 1.010c-0.028 0.028-0.052 0.078-0.055 0.112-0.006 0.088-0.019 0.188-0.026 0.198-0.003 0.004-0.012 0.058-0.020 0.12s-0.023 0.148-0.036 0.192c-0.012 0.044-0.026 0.102-0.031 0.128s-0.021 0.098-0.035 0.16c-0.041 0.17-0.032 0.369 0.015 0.36 0.022-0.004 0.040 0.007 0.040 0.026s0.025 0.031 0.056 0.028 0.063-0.003 0.072 0c0.031 0.012 0.146 0.033 0.288 0.052 0.079 0.011 0.187 0.027 0.24 0.035 0.129 0.021 1.112 0.033 1.15 0.014 0.016-0.008 0.067-0.018 0.112-0.022 0.558-0.049 0.684-0.109 0.661-0.315-0.022-0.199-0.047-0.339-0.071-0.403-0.010-0.026-0.024-0.113-0.031-0.192s-0.034-0.198-0.060-0.264c-0.026-0.066-0.049-0.131-0.051-0.144-0.013-0.099-0.050-0.104-0.383-0.050-0.337 0.055-1.215 0.079-1.215 0.034 0-0.013-0.032-0.019-0.072-0.012s-0.094 0-0.122-0.014c-0.027-0.014-0.107-0.031-0.177-0.038s-0.143-0.022-0.164-0.034-0.059 0-0.087 0.028zM9.041 1.504c-0.001 0.064 0.017 0.082 0.087 0.090 0.147 0.017 0.136 0.358-0.012 0.358-0.086 0-0.098 0.010-0.086 0.072 0.013 0.068 0.003 0.072-0.166 0.072s-0.179-0.004-0.166-0.072c0.011-0.060-0-0.072-0.070-0.072-0.12 0-0.132-0.341-0.012-0.358 0.053-0.008 0.072-0.031 0.071-0.090-0.001-0.076 0.009-0.080 0.177-0.080s0.177 0.004 0.177 0.080zM7.558 2.697c-0.082 0.099-0.108 0.596-0.038 0.727 0.016 0.030 0.021 0.065 0.009 0.076-0.022 0.022 0.032 0.143 0.124 0.28 0.031 0.046 0.046 0.095 0.033 0.109s-0.006 0.016 0.014 0.004c0.022-0.013 0.050 0.016 0.069 0.072 0.018 0.051 0.063 0.103 0.1 0.114s0.059 0.035 0.049 0.051c-0.010 0.016-0.001 0.030 0.020 0.030s0.054 0.021 0.074 0.046c0.020 0.025 0.057 0.051 0.083 0.056s0.062 0.027 0.080 0.049c0.018 0.022 0.063 0.044 0.101 0.049s0.090 0.027 0.115 0.048c0.025 0.021 0.054 0.030 0.064 0.020s0.088 0.002 0.173 0.027c0.085 0.025 0.206 0.041 0.267 0.036 0.21-0.018 0.285-0.031 0.306-0.051 0.011-0.011 0.041-0.013 0.066-0.003s0.045 0.004 0.045-0.013 0.018-0.030 0.040-0.030c0.075 0 0.296-0.119 0.374-0.201 0.043-0.045 0.091-0.078 0.106-0.073s0.018-0.007 0.007-0.026c-0.012-0.020 0.007-0.042 0.045-0.052s0.075-0.045 0.085-0.078c0.011-0.033 0.033-0.061 0.049-0.061s0.030-0.020 0.030-0.045c0-0.025 0.016-0.051 0.036-0.057s0.040-0.052 0.045-0.1c0.005-0.049 0.024-0.106 0.042-0.127 0.047-0.057 0.106-0.42 0.085-0.524-0.010-0.050-0.026-0.148-0.035-0.218-0.020-0.153-0.053-0.193-0.131-0.159-0.243 0.105-1.189 0.183-1.61 0.134-0.097-0.011-0.245-0.028-0.328-0.036s-0.165-0.023-0.18-0.032c-0.015-0.009-0.076-0.024-0.136-0.032s-0.138-0.024-0.175-0.035c-0.039-0.012-0.082-0.001-0.104 0.026zM7.616 4.76c-0.044 0.006-0.102 0.020-0.128 0.031s-0.058 0.021-0.069 0.022c-0.066 0.009-0.228 0.167-0.304 0.299-0.049 0.084-0.107 0.171-0.129 0.194s-0.041 0.062-0.041 0.085-0.036 0.098-0.080 0.166c-0.044 0.068-0.080 0.134-0.080 0.147s-0.029 0.053-0.065 0.089c-0.036 0.036-0.057 0.079-0.046 0.096s0.003 0.031-0.017 0.031c-0.020 0-0.027 0.014-0.016 0.032s0.008 0.032-0.006 0.032c-0.014 0-0.047 0.047-0.072 0.104s-0.065 0.123-0.088 0.146c-0.023 0.023-0.042 0.061-0.042 0.085s-0.024 0.051-0.053 0.062c-0.029 0.011-0.044 0.029-0.033 0.040s-0.007 0.057-0.039 0.103c-0.032 0.046-0.068 0.115-0.080 0.153s-0.042 0.087-0.068 0.108c-0.026 0.021-0.047 0.065-0.047 0.096s-0.013 0.062-0.028 0.068c-0.016 0.006-0.082 0.111-0.147 0.234s-0.132 0.232-0.148 0.242-0.037 0.053-0.045 0.096c-0.008 0.043-0.033 0.092-0.056 0.11-0.046 0.036-0.134 0.211-0.126 0.248 0.003 0.013-0.007 0.024-0.023 0.024s-0.069 0.083-0.12 0.184-0.099 0.191-0.108 0.2c-0.071 0.070-0.11 0.139-0.064 0.116 0.026-0.013 0.020-0.002-0.014 0.026s-0.050 0.050-0.036 0.050 0.006 0.024-0.018 0.054c-0.030 0.037-0.031 0.046-0.004 0.030 0.022-0.013 0.040-0.012 0.040 0.002 0 0.026 0.15 0.106 0.199 0.106 0.015 0 0.058 0.029 0.096 0.064s0.089 0.064 0.114 0.064 0.087 0.030 0.138 0.067c0.271 0.193 0.572 0.286 0.488 0.151-0.009-0.014 0-0.026 0.020-0.026s0.028-0.013 0.018-0.029c-0.010-0.016 0-0.036 0.022-0.044s0.060-0.071 0.084-0.139c0.024-0.068 0.053-0.131 0.064-0.14s0.047-0.066 0.080-0.128c0.034-0.062 0.104-0.177 0.157-0.256s0.096-0.162 0.096-0.184c0-0.022 0.013-0.040 0.029-0.040s0.020-0.014 0.010-0.030c-0.010-0.017 0-0.042 0.023-0.056s0.058-0.062 0.079-0.106c0.063-0.136 0.050 0.018-0.024 0.285-0.036 0.13-0.058 0.242-0.050 0.251s0 0.053-0.018 0.1c-0.032 0.081-0.052 0.171-0.069 0.309-0.004 0.035-0.019 0.082-0.033 0.104s-0.017 0.053-0.007 0.070c0.010 0.016 0.005 0.038-0.012 0.049s-0.029 0.044-0.028 0.074c0.001 0.030-0.008 0.106-0.020 0.167-0.024 0.117 0.081 0.224 0.219 0.224 0.029 0 0.060 0.022 0.070 0.048s0.041 0.048 0.068 0.048c0.028 0 0.074 0.022 0.104 0.049s0.089 0.056 0.131 0.064c0.042 0.008 0.091 0.033 0.109 0.055 0.040 0.050 0.163 0.12 0.208 0.12 0.019 0 0.065 0.029 0.102 0.064s0.089 0.064 0.114 0.064 0.125 0.044 0.223 0.098c0.098 0.054 0.186 0.084 0.197 0.068s0.069-0.038 0.131-0.048c0.062-0.010 0.198-0.041 0.304-0.069s0.221-0.057 0.256-0.065c0.035-0.007 0.086-0.018 0.112-0.023s0.062-0.019 0.080-0.030 0.082-0.028 0.144-0.039c0.062-0.010 0.191-0.042 0.288-0.069s0.218-0.057 0.27-0.064c0.052-0.008 0.138-0.028 0.192-0.046 0.303-0.098 0.591-0.175 0.684-0.182 0.058-0.004 0.151-0.030 0.206-0.058s0.123-0.042 0.152-0.033c0.071 0.022 0.070-0.044-0.002-0.313-0.032-0.119-0.059-0.223-0.060-0.232s-0.003-0.019-0.004-0.023c-0.001-0.004-0.008-0.044-0.014-0.088-0.027-0.187-0.043-0.252-0.079-0.319-0.021-0.039-0.030-0.091-0.020-0.116s0.002-0.085-0.018-0.134c-0.020-0.048-0.038-0.109-0.042-0.136s-0.018-0.098-0.033-0.16c-0.014-0.062-0.029-0.134-0.032-0.16s-0.018-0.106-0.033-0.176c-0.038-0.177-0.037-0.175-0.046-0.184-0.004-0.004-0.013-0.051-0.019-0.103l-0.011-0.095 0.057 0.087c0.031 0.048 0.069 0.076 0.084 0.063s0.018-0.008 0.006 0.012c-0.018 0.032 0.022 0.091 0.195 0.281 0.041 0.045 0.043 0.055 0.007 0.038-0.026-0.013-0.016 0.005 0.023 0.039s0.063 0.070 0.053 0.080c-0.088 0.088 0.498 0.213 0.644 0.137 0.051-0.026 0.106-0.039 0.123-0.028s0.022 0.004 0.010-0.015c-0.012-0.019 0.024-0.051 0.083-0.074 0.057-0.022 0.111-0.043 0.12-0.047s0.048-0.018 0.088-0.031 0.072-0.036 0.072-0.052c0-0.016 0.018-0.029 0.040-0.029s0.076-0.029 0.12-0.063c0.044-0.034 0.103-0.063 0.131-0.063s0.077-0.030 0.109-0.065c0.032-0.035 0.076-0.064 0.098-0.064 0.051 0 0.25-0.103 0.265-0.138 0.006-0.014 0.049-0.042 0.096-0.061s0.092-0.038 0.101-0.042 0.048-0.018 0.088-0.030c0.040-0.013 0.072-0.037 0.072-0.053s0.043-0.045 0.096-0.063c0.053-0.018 0.088-0.046 0.079-0.060s0.005-0.039 0.031-0.053c0.115-0.064 0.187-0.577 0.086-0.611-0.020-0.007-0.036-0.031-0.036-0.054 0-0.055-0.251-0.24-0.326-0.24-0.052 0-0.072-0.035-0.061-0.104 0.002-0.013-0.011-0.024-0.028-0.024s-0.032-0.022-0.032-0.048c0-0.026-0.012-0.048-0.027-0.048s-0.046-0.036-0.070-0.081c-0.053-0.099-0.308-0.261-0.425-0.27-0.14-0.012-0.319-0.008-0.422 0.009-0.053 0.009-0.105 0.017-0.117 0.019-0.054 0.008-0.378 0.299-0.362 0.325 0.010 0.016 0.006 0.030-0.008 0.030-0.078 0-0.175 0.469-0.105 0.512 0.022 0.013 0.113-0.016 0.208-0.066 0.093-0.050 0.176-0.084 0.184-0.076s0.031-0.040 0.051-0.106c0.088-0.288 0.63-0.342 0.701-0.070 0.009 0.033 0.029 0.053 0.044 0.044s0.019 0.007 0.008 0.036-0.007 0.062 0.009 0.074c0.017 0.012 0.014 0.079-0.009 0.165-0.021 0.079-0.039 0.131-0.041 0.115s-0.029 0.002-0.062 0.040c-0.033 0.038-0.076 0.069-0.096 0.069s-0.036 0.017-0.036 0.037c0 0.021-0.009 0.028-0.020 0.017s-0.045-0.007-0.076 0.010-0.065 0.020-0.077 0.009c-0.056-0.056-0.333-0.070-0.366-0.018-0.012 0.018-0.068 0.044-0.125 0.056s-0.104 0.033-0.104 0.045c0 0.012-0.032 0.025-0.072 0.028s-0.077 0.020-0.083 0.039c-0.006 0.018-0.036 0.033-0.065 0.033s-0.084 0.021-0.121 0.047c-0.037 0.026-0.076 0.038-0.087 0.027s-0.020-0.003-0.020 0.019c0 0.021-0.018 0.035-0.040 0.031s-0.076 0.012-0.12 0.037-0.108 0.050-0.143 0.056c-0.035 0.006-0.096 0.032-0.136 0.058s-0.073 0.040-0.073 0.030c0-0.010-0.032 0-0.072 0.022s-0.089 0.036-0.11 0.032c-0.021-0.004-0.046 0.006-0.056 0.022s-0.047 0.022-0.082 0.013c-0.036-0.009-0.064-0.001-0.064 0.019 0 0.076-0.633-0.011-0.832-0.114-0.044-0.023-0.094-0.042-0.112-0.042s-0.074-0.036-0.125-0.080c-0.051-0.044-0.103-0.080-0.116-0.080s-0.073-0.064-0.134-0.143c-0.061-0.079-0.121-0.136-0.132-0.128s-0.015 0.007-0.008-0.003c0.007-0.010-0.036-0.105-0.096-0.211s-0.109-0.219-0.109-0.252c0-0.123-0.062-0.221-0.151-0.241-0.049-0.011-0.118-0.032-0.153-0.047s-0.097-0.037-0.136-0.048c-0.040-0.011-0.064-0.034-0.054-0.050s-0.001-0.030-0.024-0.030c-0.059-0-0.293-0.214-0.302-0.276-0.004-0.028-0.036-0.082-0.070-0.12s-0.056-0.087-0.048-0.109c0.008-0.022 0.001-0.040-0.015-0.040s-0.031-0.018-0.033-0.040c-0.036-0.373-0.048-0.401-0.167-0.384zM8.156 4.759c-0.002 0.014-0.001 0.039 0.002 0.056s0.012 0.074 0.018 0.125c0.016 0.13 0.080 0.275 0.12 0.275 0.018 0 0.024 0.009 0.013 0.021-0.061 0.061 0.327 0.298 0.497 0.302 0.254 0.007 0.518-0.066 0.551-0.152 0.010-0.026 0.033-0.038 0.050-0.027s0.032-0.003 0.032-0.030 0.013-0.050 0.030-0.050c0.016 0 0.039-0.029 0.050-0.064s0.034-0.056 0.050-0.046c0.026 0.016 0.043-0.031 0.022-0.061-0.004-0.006 0.008-0.031 0.027-0.056s0.034-0.103 0.032-0.173l-0.003-0.128-0.744-0.009c-0.409-0.005-0.746 0.002-0.748 0.016zM10.089 4.764c-0.027 0.018-0.048 0.168-0.045 0.332 0 0.031-0.015 0.056-0.035 0.056s-0.026 0.009-0.014 0.021c0.012 0.012 0.005 0.040-0.015 0.064s-0.026 0.043-0.014 0.043c0.012 0-0.004 0.040-0.036 0.088s-0.075 0.117-0.095 0.152c-0.020 0.035-0.053 0.060-0.072 0.056s-0.035 0.011-0.035 0.035c0 0.023-0.040 0.063-0.088 0.088s-0.099 0.062-0.111 0.081c-0.013 0.020-0.108 0.063-0.212 0.096l-0.188 0.060 0.058 0.136c0.032 0.075 0.051 0.136 0.041 0.136s0.016 0.047 0.056 0.104c0.066 0.094 0.138 0.167 0.306 0.312 0.079 0.068 0.208 0.132 0.227 0.113 0.009-0.009 0.034-0.001 0.056 0.017 0.131 0.109 1.006-0.009 1.006-0.136 0-0.014 0.022-0.026 0.049-0.026s0.083-0.022 0.124-0.049 0.088-0.046 0.103-0.043c0.059 0.013 0.332-0.137 0.332-0.183 0-0.027-0.014-0.039-0.032-0.029s-0.032-0.002-0.032-0.029c0-0.027-0.027-0.074-0.059-0.106s-0.086-0.108-0.12-0.169c-0.034-0.062-0.084-0.134-0.112-0.16s-0.075-0.091-0.104-0.144c-0.092-0.167-0.13-0.222-0.204-0.294-0.040-0.039-0.072-0.086-0.072-0.104s-0.014-0.034-0.032-0.034c-0.018 0-0.028-0.014-0.024-0.031 0.015-0.060-0.243-0.352-0.36-0.406-0.111-0.052-0.211-0.071-0.247-0.047zM2.076 6.159c-0.009 0.009-0.079 0.024-0.155 0.034s-0.154 0.028-0.174 0.040c-0.034 0.022-0.051 0.027-0.113 0.036-0.016 0.002-0.049 0.022-0.072 0.044s-0.095 0.076-0.161 0.119c-0.065 0.044-0.133 0.112-0.151 0.152s-0.046 0.073-0.063 0.073c-0.026 0-0.216 0.291-0.203 0.312 0.003 0.004-0.017 0.069-0.044 0.144-0.054 0.15-0.067 0.582-0.019 0.643 0.031 0.039 0.084 0.214 0.077 0.251-0.002 0.012 0.017 0.038 0.043 0.060s0.047 0.055 0.047 0.075c0 0.046 0.152 0.212 0.193 0.212 0.017 0 0.031 0.022 0.031 0.048s0.013 0.048 0.030 0.048c0.016 0 0.049 0.018 0.072 0.040 0.073 0.069 0.42 0.217 0.554 0.237 0.231 0.034 0.631 0.004 0.704-0.053 0.018-0.014 0.068-0.036 0.111-0.049 0.084-0.026 0.265-0.143 0.283-0.184 0.006-0.013 0.024-0.016 0.040-0.006s0.029 0.001 0.029-0.020c0-0.021 0.034-0.069 0.075-0.106 0.12-0.108 0.245-0.292 0.245-0.36 0-0.034 0.014-0.076 0.030-0.093 0.074-0.074 0.103-0.689 0.033-0.713-0.017-0.006-0.031-0.036-0.031-0.068 0-0.256-0.482-0.767-0.776-0.823-0.057-0.011-0.119-0.031-0.137-0.045-0.038-0.030-0.476-0.071-0.5-0.047zM3.478 8.705c-0.081 0.031-0.171 0.079-0.199 0.108s-0.072 0.052-0.096 0.052-0.060 0.029-0.079 0.064c-0.019 0.035-0.052 0.064-0.073 0.064-0.041 0-0.215 0.254-0.215 0.313 0 0.019-0.014 0.039-0.030 0.045-0.078 0.027-0.113 0.56-0.049 0.72 0.023 0.056 0.033 0.11 0.023 0.12s-0.003 0.019 0.015 0.019 0.043 0.035 0.053 0.078c0.011 0.043 0.060 0.118 0.11 0.168s0.097 0.105 0.104 0.122c0.017 0.042 0.209 0.176 0.252 0.176 0.018 0 0.033 0.015 0.033 0.034s0.014 0.026 0.030 0.015c0.017-0.010 0.042-0 0.056 0.022s0.091 0.075 0.17 0.117c0.079 0.042 0.223 0.117 0.319 0.168s0.196 0.092 0.221 0.092c0.025 0 0.037 0.009 0.025 0.021-0.024 0.024 0.123 0.107 0.19 0.107 0.024 0 0.044 0.012 0.044 0.026 0 0.034 0.306 0.198 0.369 0.198 0.027 0 0.058 0.022 0.068 0.048s0.041 0.048 0.068 0.048c0.028 0 0.073 0.020 0.101 0.045s0.072 0.050 0.098 0.056c0.026 0.006 0.067 0.032 0.090 0.059 0.038 0.043 0.040 0.043 0.022 0s-0.016-0.043 0.022 0c0.023 0.026 0.064 0.053 0.090 0.059s0.072 0.032 0.101 0.058c0.047 0.042 0.107 0.064 0.197 0.073 0.014 0.001 0.016 0.020 0.003 0.042s-0.012 0.030 0.002 0.017c0.021-0.019 0.288 0.111 0.337 0.165 0.031 0.034 0.269 0.145 0.294 0.138 0.014-0.004 0.026 0.006 0.026 0.023s0.043 0.054 0.096 0.081 0.096 0.040 0.096 0.028c0-0.012 0.029 0.004 0.064 0.036s0.064 0.046 0.064 0.031c0-0.015 0.018-0.005 0.040 0.022s0.090 0.069 0.152 0.092 0.119 0.053 0.128 0.065c0.021 0.030 0.384 0.225 0.384 0.206 0-0.008 0.076 0.024 0.168 0.071 0.263 0.134 0.569 0.12 1.136-0.052 0.057-0.017 0.104-0.024 0.104-0.014s0.018 0.005 0.040-0.011c0.022-0.016 0.083-0.033 0.136-0.038 0.123-0.012 0.42-0.093 0.544-0.148 0.053-0.024 0.161-0.052 0.24-0.064s0.252-0.049 0.384-0.085 0.258-0.066 0.28-0.067c0.022-0.002 0.040-0.014 0.040-0.027s0.097-0.040 0.216-0.060c0.331-0.057 0.648-0.137 0.648-0.165 0-0.050 0.472 0.072 0.597 0.153 0.041 0.027 0.075 0.040 0.075 0.029s0.041 0.001 0.092 0.027c0.051 0.026 0.102 0.038 0.114 0.026s0.032-0.006 0.044 0.014c0.012 0.020 0.065 0.041 0.118 0.047s0.104 0.022 0.114 0.035c0.010 0.013 0.057 0.027 0.104 0.031s0.086 0.019 0.086 0.034 0.014 0.018 0.031 0.008c0.017-0.010 0.085 0.004 0.152 0.033s0.136 0.055 0.153 0.059 0.062 0.023 0.098 0.043c0.037 0.020 0.101 0.041 0.144 0.047s0.092 0.019 0.11 0.029 0.118 0.044 0.224 0.074c0.106 0.031 0.304 0.098 0.44 0.15s0.261 0.087 0.277 0.077c0.016-0.010 0.034-0.004 0.040 0.013 0.024 0.070 0.596 0.038 0.691-0.039 0.022-0.018 0.040-0.021 0.040-0.007s0.029-0.001 0.064-0.033c0.035-0.032 0.064-0.048 0.064-0.035s0.042-0.002 0.094-0.033c0.052-0.031 0.088-0.066 0.080-0.079s0.014-0.033 0.050-0.044c0.035-0.011 0.064-0.035 0.064-0.053s0.052-0.096 0.116-0.174 0.105-0.141 0.092-0.141c-0.013 0-0.008-0.019 0.012-0.043s0.039-0.081 0.043-0.128c0.004-0.047 0.017-0.085 0.028-0.085s0.019-0.097 0.016-0.216c-0.005-0.214-0.096-0.52-0.154-0.52-0.016 0-0.021-0.014-0.010-0.032s0.004-0.032-0.016-0.032c-0.020 0-0.027-0.014-0.016-0.032s0.007-0.032-0.009-0.032c-0.016 0-0.048-0.036-0.071-0.080s-0.049-0.074-0.057-0.066c-0.008 0.008-0.052-0.021-0.098-0.064-0.095-0.089-0.261-0.174-0.338-0.174-0.028 0-0.051-0.017-0.051-0.037s-0.008-0.029-0.019-0.019c-0.010 0.010-0.066-0.001-0.124-0.025s-0.114-0.035-0.125-0.024c-0.011 0.011-0.020 0.002-0.020-0.019s-0.013-0.031-0.029-0.021c-0.016 0.010-0.069-0.003-0.118-0.028s-0.101-0.039-0.115-0.030c-0.014 0.009-0.026 0.002-0.026-0.015s-0.047-0.041-0.104-0.053c-0.057-0.012-0.212-0.058-0.344-0.102s-0.254-0.083-0.272-0.087c-0.156-0.036-0.327-0.096-0.389-0.136-0.041-0.027-0.075-0.040-0.075-0.029s-0.044-0.002-0.097-0.030c-0.053-0.028-0.11-0.042-0.125-0.033s-0.033 0.004-0.039-0.012c-0.006-0.016-0.054-0.034-0.107-0.040s-0.104-0.022-0.114-0.035c-0.010-0.013-0.057-0.027-0.104-0.031s-0.086-0.019-0.086-0.034-0.014-0.018-0.031-0.008c-0.017 0.010-0.085-0.004-0.152-0.033s-0.136-0.055-0.153-0.059-0.061-0.022-0.096-0.042c-0.035-0.019-0.121-0.044-0.191-0.055s-0.134-0.031-0.144-0.044c-0.026-0.036-0.388-0.056-0.501-0.028-0.037 0.009-0.118 0.025-0.18 0.035s-0.153 0.034-0.204 0.053c-0.051 0.019-0.1 0.035-0.108 0.034-0.036-0.003-0.276 0.066-0.338 0.096-0.036 0.018-0.115 0.038-0.176 0.044s-0.11 0.014-0.11 0.016-0.022 0.010-0.048 0.016c-0.026 0.006-0.084 0.018-0.128 0.028s-0.159 0.041-0.256 0.069c-0.097 0.028-0.224 0.059-0.282 0.068s-0.145 0.037-0.192 0.062c-0.047 0.025-0.111 0.045-0.142 0.045-0.064 0-0.265 0.047-0.584 0.137-0.123 0.035-0.224 0.060-0.224 0.057s-0.039 0.009-0.087 0.027c-0.064 0.024-0.094 0.023-0.112-0.006-0.025-0.039-0.141-0.105-0.505-0.289-0.106-0.053-0.199-0.105-0.208-0.115-0.021-0.024-0.232-0.121-0.268-0.123-0.016-0.001-0.037-0.015-0.048-0.032-0.031-0.047-0.32-0.2-0.378-0.2-0.029 0-0.043-0.009-0.032-0.020 0.022-0.022-0.192-0.145-0.257-0.149-0.022-0.001-0.040-0.015-0.040-0.031s-0.015-0.020-0.032-0.009c-0.018 0.011-0.041-0.003-0.051-0.030s-0.041-0.050-0.067-0.050c-0.026 0-0.084-0.029-0.129-0.064s-0.109-0.064-0.143-0.064-0.053-0.014-0.042-0.032c0.011-0.018-0.006-0.032-0.038-0.033s-0.094-0.029-0.138-0.063c-0.044-0.034-0.108-0.063-0.141-0.063s-0.052-0.010-0.040-0.022c0.024-0.024-0.123-0.107-0.19-0.107-0.024 0-0.044-0.012-0.044-0.026 0-0.034-0.306-0.198-0.369-0.198-0.027 0-0.058-0.022-0.068-0.048s-0.046-0.048-0.079-0.048-0.061-0.013-0.061-0.030c0-0.024-0.086-0.068-0.16-0.082-0.009-0.002-0.062-0.028-0.118-0.058s-0.13-0.055-0.163-0.055c-0.033 0-0.071-0.011-0.084-0.024-0.049-0.049-0.487-0.032-0.637 0.025zM0.864 10.297c-0.062 0.030-0.117 0.066-0.123 0.079s-0.025 0.024-0.042 0.024c-0.035 0-0.123 0.080-0.123 0.111 0 0.011-0.031 0.062-0.069 0.113-0.083 0.112-0.097 0.576-0.018 0.576 0.015 0 0.019 0.012 0.010 0.027s0.009 0.055 0.040 0.088c0.031 0.033 0.066 0.086 0.078 0.117s0.057 0.070 0.099 0.086c0.043 0.016 0.087 0.045 0.099 0.064s0.050 0.034 0.085 0.034 0.057 0.012 0.048 0.027c-0.009 0.015 0.051 0.058 0.134 0.097s0.194 0.098 0.247 0.132c0.126 0.082 0.314 0.172 0.345 0.165 0.014-0.003 0.033 0.016 0.043 0.043s0.040 0.048 0.065 0.048c0.026 0 0.069 0.022 0.095 0.048s0.062 0.040 0.078 0.030c0.016-0.010 0.038 0.004 0.049 0.032s0.036 0.050 0.056 0.051c0.020 0 0.072 0.028 0.115 0.061s0.101 0.052 0.128 0.042c0.027-0.010 0.039-0.006 0.026 0.008s0.045 0.060 0.128 0.102c0.083 0.042 0.195 0.104 0.248 0.138 0.128 0.082 0.314 0.171 0.345 0.164 0.014-0.003 0.033 0.016 0.043 0.043s0.040 0.048 0.065 0.048c0.026 0 0.069 0.022 0.095 0.048s0.060 0.041 0.074 0.032c0.014-0.009 0.034 0.005 0.044 0.032s0.041 0.048 0.070 0.048 0.073 0.022 0.099 0.048c0.026 0.026 0.078 0.048 0.115 0.048s0.058 0.009 0.046 0.021c-0.012 0.011 0.054 0.057 0.147 0.101s0.175 0.088 0.184 0.099c0.021 0.025 0.131 0.094 0.192 0.12 0.238 0.102 0.325 0.15 0.409 0.227 0.024 0.022 0.056 0.033 0.070 0.024s0.034 0.005 0.044 0.032c0.010 0.026 0.041 0.048 0.070 0.048s0.073 0.022 0.099 0.048c0.026 0.026 0.078 0.048 0.115 0.048s0.058 0.009 0.047 0.020c-0.011 0.011 0.040 0.050 0.115 0.086s0.142 0.076 0.151 0.087c0.020 0.027 0.307 0.176 0.424 0.22 0.048 0.018 0.088 0.048 0.088 0.066s0.027 0.033 0.060 0.033c0.033 0 0.078 0.021 0.1 0.048s0.052 0.040 0.068 0.030c0.016-0.010 0.037 0.005 0.048 0.032s0.045 0.050 0.077 0.050c0.032 0 0.063 0.015 0.069 0.034 0.010 0.029 0.069 0.051 0.164 0.060 0.014 0.001 0.018 0.015 0.008 0.031s0.019 0.038 0.065 0.049c0.045 0.011 0.112 0.048 0.149 0.082s0.077 0.055 0.091 0.046c0.014-0.008 0.034-0.001 0.045 0.017 0.029 0.046 8.069 0.045 8.098-0.002 0.012-0.019 0.042-0.026 0.067-0.016s0.054-0.004 0.064-0.030c0.010-0.026 0.031-0.040 0.046-0.030s0.046-0.012 0.068-0.048c0.022-0.036 0.060-0.065 0.083-0.065s0.033-0.014 0.022-0.032c-0.011-0.018-0.005-0.032 0.014-0.032s0.034-0.020 0.034-0.045c0-0.025 0.015-0.050 0.032-0.056 0.034-0.011 0.057-0.094 0.080-0.293 0.015-0.134-0.062-0.366-0.142-0.429-0.027-0.021-0.037-0.039-0.021-0.040 0.044-0.002-0.151-0.161-0.197-0.161-0.022-0-0.040-0.013-0.040-0.028s-0.068-0.040-0.152-0.053c-0.084-0.014-0.174-0.029-0.2-0.035s-1.726-0.011-3.776-0.012c-2.324-0.001-3.746-0.013-3.776-0.032-0.026-0.017-0.034-0.031-0.016-0.031s-0.033-0.035-0.112-0.077c-0.079-0.042-0.158-0.069-0.176-0.059s-0.020 0.005-0.006-0.010c0.014-0.015-0.044-0.061-0.128-0.101s-0.197-0.102-0.25-0.137c-0.093-0.062-0.18-0.105-0.328-0.163-0.040-0.016-0.072-0.043-0.072-0.061s-0.029-0.033-0.064-0.033c-0.035 0-0.064-0.015-0.064-0.034s-0.014-0.025-0.032-0.014c-0.018 0.011-0.032 0.004-0.032-0.016s-0.015-0.027-0.032-0.016c-0.018 0.011-0.041-0.003-0.051-0.030s-0.036-0.050-0.056-0.051c-0.020-0-0.072-0.028-0.115-0.061s-0.101-0.052-0.128-0.042c-0.027 0.010-0.039 0.006-0.027-0.008s-0.045-0.060-0.128-0.101c-0.083-0.041-0.195-0.104-0.247-0.138-0.124-0.082-0.313-0.172-0.345-0.166-0.014 0.003-0.033-0.016-0.043-0.043s-0.045-0.048-0.076-0.048-0.063-0.015-0.069-0.034c-0.006-0.019-0.037-0.038-0.069-0.042s-0.068-0.022-0.079-0.038c-0.035-0.049-0.219-0.142-0.28-0.142-0.031 0-0.047-0.009-0.036-0.021s-0.049-0.053-0.135-0.093-0.165-0.088-0.177-0.107c-0.012-0.019-0.050-0.035-0.084-0.035s-0.062-0.014-0.062-0.032c0-0.032-0.22-0.143-0.265-0.133-0.014 0.003-0.033-0.016-0.043-0.043s-0.040-0.048-0.065-0.048c-0.026 0-0.069-0.022-0.095-0.048s-0.060-0.041-0.074-0.032c-0.014 0.009-0.034-0.005-0.044-0.032s-0.041-0.048-0.070-0.048-0.073-0.022-0.099-0.048c-0.026-0.026-0.078-0.048-0.115-0.048s-0.058-0.009-0.046-0.021c0.011-0.011-0.049-0.053-0.135-0.093s-0.165-0.088-0.177-0.107c-0.012-0.019-0.050-0.035-0.084-0.035s-0.062-0.014-0.062-0.032c0-0.032-0.22-0.143-0.265-0.133-0.014 0.003-0.033-0.016-0.043-0.043s-0.040-0.048-0.065-0.048c-0.026 0-0.069-0.022-0.095-0.048s-0.062-0.040-0.078-0.030c-0.016 0.010-0.029 0.003-0.029-0.017s-0.040-0.051-0.088-0.071c-0.224-0.092-0.53-0.107-0.68-0.033z"></path>
</svg>
