<!-- Generated by IcoMoon.io -->
<svg version="1.1" xmlns="http://www.w3.org/2000/svg" width="22" height="20" viewBox="0 0 22 20">
<title>s_tab7</title>
<path fill="#555" d="M7.611 0.36c-0.020 0.024-0.054 0.043-0.076 0.043-0.067 0-0.37 0.326-0.438 0.472-0.102 0.217-0.079 0.883 0.030 0.883 0.012 0 0.023 0.016 0.024 0.036 0.007 0.262 0.708 0.593 1.059 0.499 0.084-0.022 0.155-0.040 0.159-0.039 0.173 0.041 0.619-0.455 0.668-0.744 0.036-0.215 0.042-0.3 0.022-0.3-0.011-0-0.023-0.046-0.025-0.101-0.013-0.248-0.257-0.578-0.538-0.726-0.154-0.081-0.821-0.099-0.884-0.023zM3.786 1.801c-0.066 0.016-0.13 0.039-0.142 0.051s-0.045 0.021-0.074 0.021c-0.029 0-0.053 0.013-0.053 0.029s-0.015 0.029-0.032 0.029c-0.048 0-0.273 0.245-0.318 0.345-0.021 0.048-0.047 0.087-0.057 0.087-0.038 0-0.091 0.354-0.075 0.503 0.098 0.949 1.425 1.205 1.86 0.359 0.069-0.134 0.152-0.445 0.134-0.499-0.006-0.017-0.016-0.064-0.023-0.103-0.099-0.581-0.661-0.959-1.22-0.822zM11.805 1.801c-0.246 0.064-0.648 0.399-0.648 0.539 0 0.027-0.013 0.057-0.029 0.067s-0.029 0.066-0.029 0.124c-0 0.059-0.011 0.122-0.023 0.142-0.022 0.035 0.021 0.342 0.064 0.454 0.313 0.816 1.525 0.811 1.833-0.008 0.087-0.232 0.063-0.785-0.034-0.785-0.013 0-0.024-0.023-0.024-0.052 0-0.090-0.344-0.388-0.52-0.451s-0.417-0.076-0.59-0.031zM6.688 2.533c-0.305 0.056-0.836 0.396-0.836 0.535 0 0.020-0.032 0.066-0.071 0.102s-0.068 0.075-0.065 0.084-0.009 0.057-0.026 0.104c-0.085 0.231-0.097 0.391-0.097 1.254v0.893l-0.079 0.017c-0.135 0.030-0.38 0.133-0.455 0.191l-0.071 0.056v-0.516c0-0.405-0.010-0.546-0.048-0.658-0.265-0.786-1.28-0.927-1.753-0.245-0.155 0.224-0.159 0.27-0.159 1.85l-0 1.459-0.151 0.171c-0.281 0.318-0.268 0.325-0.257-0.16 0.017-0.692-0.063-1.001-0.319-1.246-0.496-0.474-1.27-0.316-1.571 0.32-0.083 0.176-0.095 0.413-0.095 1.914 0 1.495-0.002 1.538-0.058 1.603-0.071 0.082-0.090 0.929-0.021 0.972 0.020 0.013 0.061 0.078 0.091 0.146 0.062 0.141 0.287 0.365 0.48 0.478 0.283 0.166 0.248 0.163 2.35 0.164l1.934 0-0.013 0.46c-0.015 0.514 0.006 0.759 0.070 0.823 0.024 0.024 0.033 0.043 0.022 0.043s0.028 0.044 0.088 0.097c0.149 0.132 0.416 0.209 0.463 0.133 0.010-0.016 0.044-0.029 0.075-0.029 0.072 0 0.241-0.163 0.27-0.259 0.012-0.040 0.034-0.088 0.049-0.107s0.025-0.077 0.021-0.13c-0.004-0.052-0.005-0.306-0.002-0.564l0.004-0.468h0.137l0.011 0.959c0.006 0.527 0.021 0.975 0.034 0.995 0.018 0.028 0.333 0.036 1.419 0.036h1.396v-1.989h0.159l-0.004 0.468c-0.008 0.916 0.074 1.053 0.613 1.026 0.394-0.020 0.442-0.126 0.443-0.968l0-0.526h1.921c1.335 0 1.957-0.010 2.040-0.032 0.368-0.101 0.643-0.321 0.84-0.673l0.105-0.188-0.009-0.397c-0.009-0.376-0.013-0.403-0.087-0.509l-0.077-0.112-0.003-1.525c-0.003-1.884-0.015-1.952-0.386-2.23-0.308-0.231-0.869-0.277-1.029-0.085-0.019 0.023-0.056 0.042-0.083 0.042-0.065 0-0.272 0.218-0.341 0.36-0.109 0.224-0.126 0.355-0.117 0.901 0.005 0.289 0.005 0.526 0.001 0.526-0.008 0-0.043-0.038-0.29-0.31l-0.125-0.137 0.003-1.419c0.003-1.376-0.011-1.636-0.089-1.721-0.014-0.015-0.025-0.046-0.025-0.069s-0.032-0.071-0.072-0.108c-0.040-0.037-0.072-0.078-0.072-0.092 0-0.036-0.115-0.135-0.216-0.186-0.048-0.024-0.125-0.065-0.173-0.090-0.206-0.112-0.63-0.059-0.879 0.11-0.364 0.246-0.434 0.444-0.435 1.218l-0.001 0.467-0.134-0.085c-0.074-0.047-0.155-0.085-0.18-0.085s-0.059-0.012-0.074-0.027c-0.015-0.015-0.066-0.031-0.114-0.036l-0.086-0.009-0.017-0.995c-0.009-0.547-0.031-1.043-0.047-1.102-0.076-0.273-0.4-0.653-0.643-0.753-0.071-0.029-0.174-0.075-0.229-0.101-0.105-0.050-2.608-0.082-2.854-0.037zM1.355 4.055c-0.174 0.067-0.341 0.167-0.39 0.232-0.031 0.043-0.079 0.101-0.107 0.128-0.396 0.406-0.205 1.198 0.357 1.483 0.16 0.081 0.686 0.111 0.754 0.043 0.017-0.017 0.049-0.031 0.072-0.031 0.154 0 0.459-0.354 0.549-0.636 0.060-0.188 0.017-0.69-0.060-0.69-0.013 0-0.023-0.023-0.023-0.051 0-0.272-0.813-0.609-1.153-0.478zM14.105 4.072c-0.067 0.016-0.123 0.041-0.123 0.054s-0.019 0.025-0.041 0.025c-0.203 0-0.527 0.588-0.499 0.903 0.115 1.263 1.934 1.219 1.97-0.047 0.019-0.662-0.601-1.105-1.308-0.935zM6.679 4.116c0.024 0.016 0.037 0.21 0.043 0.677l0.009 0.655-0.144-0 0.006-0.641c0.003-0.353 0.007-0.658 0.007-0.677 0.001-0.041 0.028-0.045 0.079-0.013zM9.465 4.794l0.015 0.658-0.153-0.018-0.008-0.624c-0.007-0.549-0.002-0.63 0.040-0.672 0.081-0.081 0.091-0.020 0.106 0.657zM8.162 5.853c2.324 0.002 2.293 0 2.599 0.162 0.152 0.081 4.317 4.201 4.317 4.271 0 0.017 0.017 0.047 0.037 0.068 0.086 0.089 0.151 0.57 0.082 0.612-0.014 0.009-0.033 0.056-0.043 0.105-0.038 0.19-0.328 0.463-0.55 0.519-0.072 0.018-0.854 0.031-2.027 0.035l-1.911 0.006 0.002-0.937c0.002-1.239-0.016-1.333-0.339-1.739-0.088-0.111-0.342-0.308-0.396-0.308-0.024 0-0.044-0.010-0.044-0.023 0-0.202-3.444-0.223-3.69-0.023-0.024 0.019-0.091 0.062-0.149 0.095-0.199 0.113-0.483 0.438-0.504 0.575-0.004 0.025-0.022 0.055-0.040 0.067s-0.034 0.032-0.034 0.046c-0.001 0.014-0.013 0.057-0.028 0.096s-0.029 0.535-0.033 1.103l-0.006 1.033-1.932-0c-2.037-0-2.048-0.001-2.238-0.141-0.398-0.293-0.492-0.854-0.208-1.236 0.038-0.051 0.844-0.871 1.791-1.822s1.816-1.825 1.931-1.943c0.395-0.404 0.584-0.525 0.915-0.59 0.213-0.041 0.312-0.054 0.335-0.043 0.010 0.005 0.983 0.009 2.162 0.010zM7.841 6.032c0 0.012-0.010 0.019-0.022 0.016-0.254-0.067-0.768 0.437-0.858 0.842-0.067 0.298 0.065 0.822 0.223 0.889 0.012 0.005 0.023 0.022 0.023 0.036 0 0.166 0.485 0.386 0.85 0.385 0.43-0.001 0.996-0.396 1.009-0.704 0-0.008 0.013-0.034 0.029-0.058 0.040-0.062 0.047-0.507 0.009-0.6-0.036-0.088-0.14-0.308-0.179-0.377-0.060-0.106-0.335-0.306-0.51-0.37-0.179-0.066-0.574-0.106-0.574-0.058zM6.602 10.908v0.732h-0.070c-0.097 0-0.102-0.037-0.103-0.703-0-0.691 0.009-0.76 0.104-0.76h0.068v0.732zM9.6 10.866c0 0.379 0.008 0.709 0.017 0.733 0.013 0.034-0.004 0.043-0.072 0.041l-0.089-0.003v-0.712c0-0.733 0.002-0.75 0.091-0.75 0.050 0 0.053 0.040 0.053 0.69z"></path>
</svg>
