<!-- Generated by IcoMoon.io -->
<svg version="1.1" xmlns="http://www.w3.org/2000/svg" width="16" height="20" viewBox="0 0 16 20">
<title>s_tab6</title>
<path fill="#555" d="M1.756 0.371c-0.018 0.011-0.043 0.014-0.055 0.006s-0.041 0.008-0.062 0.035c-0.022 0.027-0.032 0.034-0.023 0.016 0.020-0.040-0.029-0.044-0.054-0.004-0.010 0.016-0.040 0.023-0.067 0.016s-0.050-0.002-0.050 0.011-0.016 0.024-0.036 0.024c-0.020 0-0.051 0.018-0.070 0.041s-0.048 0.035-0.065 0.029c-0.017-0.007-0.067 0.022-0.111 0.063s-0.087 0.068-0.095 0.060-0.023 0.017-0.032 0.056c-0.012 0.047-0.030 0.065-0.055 0.056-0.021-0.008-0.030-0.003-0.021 0.012s-0.003 0.033-0.026 0.043-0.036 0.033-0.028 0.054c0.008 0.021 0.003 0.030-0.012 0.021s-0.026-0.003-0.026 0.013-0.015 0.021-0.033 0.010c-0.018-0.010-0.024-0.009-0.013 0.003s0.004 0.040-0.016 0.063c-0.020 0.023-0.057 0.107-0.082 0.186s-0.057 0.159-0.071 0.176c-0.014 0.017-0.022 0.077-0.018 0.132s-0.002 0.115-0.012 0.132c-0.027 0.043-0.015 0.318 0.016 0.4 0.014 0.036 0.029 0.106 0.034 0.155s0.030 0.112 0.055 0.139c0.025 0.028 0.048 0.069 0.052 0.091s0.031 0.058 0.060 0.079c0.030 0.021 0.054 0.054 0.054 0.073s0.019 0.043 0.043 0.052c0.024 0.009 0.035 0.024 0.026 0.034-0.025 0.024 0.119 0.113 0.152 0.094 0.015-0.009 0.020-0.007 0.010 0.004-0.026 0.029 0.080 0.14 0.152 0.158 0.035 0.009 0.063 0.027 0.063 0.042s0.023 0.026 0.051 0.026 0.057 0.011 0.065 0.023c0.014 0.022 0.16 0.055 0.259 0.057 0.029 0.001 0.039 0.013 0.028 0.033-0.014 0.023-0.008 0.023 0.021-0.001 0.031-0.025 0.047-0.025 0.071-0.001s0.043 0.024 0.081 0.001c0.027-0.017 0.057-0.022 0.067-0.012 0.025 0.025 0.198 0.026 0.198 0.001 0-0.011 0.021-0.019 0.046-0.019 0.060 0.001 0.156-0.022 0.197-0.048 0.018-0.011 0.053-0.017 0.079-0.013s0.046-0.006 0.046-0.022 0.014-0.021 0.030-0.011c0.018 0.011 0.023 0.007 0.013-0.009s0.001-0.042 0.022-0.060c0.031-0.026 0.039-0.026 0.039 0.001 0 0.025 0.012 0.023 0.046-0.006 0.025-0.022 0.068-0.047 0.096-0.057s0.043-0.024 0.035-0.032c-0.022-0.022 0.066-0.115 0.109-0.115 0.021 0 0.031-0.007 0.023-0.015s0.004-0.036 0.028-0.062c0.098-0.104 0.137-0.163 0.122-0.187-0.008-0.014 0.003-0.025 0.025-0.025 0.025 0 0.034-0.015 0.025-0.039-0.008-0.022-0.002-0.039 0.014-0.039s0.029-0.024 0.029-0.053c0-0.029 0.015-0.053 0.033-0.053 0.025-0 0.024-0.006-0.002-0.023-0.028-0.018-0.026-0.026 0.010-0.039 0.034-0.013 0.041-0.036 0.029-0.097-0.009-0.044-0.006-0.073 0.007-0.066 0.026 0.016 0.033-0.509 0.008-0.549-0.009-0.015-0.019-0.048-0.021-0.073s-0.006-0.049-0.009-0.053c-0.003-0.004-0.010-0.029-0.015-0.056s-0.020-0.057-0.033-0.066c-0.032-0.022-0.068-0.114-0.061-0.156 0.003-0.020-0.005-0.029-0.017-0.021s-0.043-0.009-0.067-0.037c-0.024-0.028-0.037-0.051-0.028-0.051s0.003-0.016-0.013-0.035c-0.016-0.019-0.023-0.043-0.016-0.053s0.006-0.012-0.002-0.006c-0.024 0.017-0.142-0.095-0.126-0.121 0.008-0.013-0.001-0.020-0.021-0.016s-0.031-0.010-0.026-0.032c0.005-0.022-0-0.031-0.011-0.020s-0.059-0.011-0.107-0.047c-0.048-0.037-0.088-0.059-0.088-0.048s-0.021 0.001-0.046-0.021c-0.025-0.022-0.079-0.048-0.119-0.057s-0.067-0.028-0.059-0.041c0.008-0.013-0.030-0.024-0.084-0.024-0.156 0-0.191-0.005-0.191-0.029 0-0.012-0.043-0.011-0.096 0.004s-0.103 0.017-0.112 0.004c-0.021-0.028-0.123-0.032-0.165-0.006zM9.931 0.362c-0.115 0.009-0.236 0.056-0.236 0.091 0 0.014-0.020 0.010-0.044-0.010-0.030-0.024-0.038-0.026-0.025-0.003 0.012 0.021 0.004 0.033-0.022 0.033-0.023 0-0.048 0.017-0.056 0.037s-0.035 0.033-0.061 0.029c-0.025-0.005-0.063 0.002-0.083 0.015-0.032 0.020-0.031 0.024 0.002 0.024s0.034 0.004 0.002 0.024c-0.020 0.013-0.052 0.018-0.070 0.011s-0.054 0.024-0.080 0.068c-0.026 0.044-0.063 0.081-0.081 0.081s-0.034 0.013-0.034 0.028-0.014 0.019-0.030 0.009c-0.019-0.012-0.023-0.007-0.012 0.011 0.010 0.017-0.014 0.062-0.055 0.103s-0.070 0.081-0.067 0.092-0.006 0.020-0.020 0.020c-0.014 0-0.025 0.009-0.023 0.020 0.006 0.045-0.037 0.138-0.065 0.138-0.016 0-0.012 0.012 0.010 0.026 0.035 0.022 0.034 0.026-0.002 0.026-0.023 0-0.043 0.015-0.045 0.033s-0.013 0.080-0.025 0.138c-0.049 0.232-0.015 0.691 0.056 0.762 0.026 0.026 0.041 0.069 0.034 0.096s-0.002 0.049 0.011 0.049 0.024 0.017 0.024 0.038c0 0.069 0.060 0.171 0.109 0.187 0.027 0.009 0.043 0.025 0.036 0.037s0.005 0.029 0.028 0.037c0.023 0.009 0.035 0.026 0.027 0.038-0.017 0.028 0.126 0.136 0.18 0.136 0.022 0 0.040 0.018 0.040 0.041s0.012 0.034 0.026 0.025c0.014-0.009 0.027-0.007 0.027 0.005s0.033 0.044 0.072 0.073c0.066 0.047 0.068 0.048 0.032 0.002s-0.036-0.047 0.018-0.013c0.032 0.020 0.052 0.044 0.046 0.055-0.014 0.022 0.21 0.080 0.299 0.078 0.033-0.001 0.055 0.007 0.048 0.018s0.081 0.020 0.196 0.020c0.114 0 0.208-0.009 0.208-0.020s0.041-0.020 0.092-0.020c0.051 0 0.092-0.013 0.092-0.028s0.011-0.021 0.024-0.013c0.038 0.023 0.187-0.015 0.187-0.048 0-0.016 0.024-0.045 0.053-0.063 0.034-0.021 0.053-0.023 0.053-0.005 0 0.015 0.028-0.002 0.062-0.039s0.069-0.059 0.079-0.050c0.009 0.009 0.017 0.003 0.017-0.014s0.019-0.031 0.042-0.031c0.027 0 0.037-0.014 0.027-0.041-0.009-0.022-0.005-0.034 0.007-0.027 0.029 0.018 0.087-0.049 0.064-0.073-0.010-0.009 0.002-0.017 0.026-0.017s0.037-0.015 0.031-0.033 0.021-0.055 0.061-0.082c0.040-0.027 0.075-0.073 0.077-0.101s0.022-0.066 0.043-0.082 0.043-0.066 0.047-0.109c0.004-0.043 0.018-0.086 0.031-0.095 0.040-0.029 0.049-0.601 0.011-0.648-0.028-0.035-0.027-0.038 0.003-0.019 0.027 0.017 0.031 0.013 0.014-0.015-0.013-0.020-0.020-0.058-0.016-0.083 0.005-0.027-0.009-0.046-0.033-0.046-0.023 0-0.041-0.013-0.041-0.028s0.012-0.021 0.026-0.012c0.014 0.009 0.026 0.004 0.026-0.012s-0.012-0.028-0.027-0.028c-0.034 0-0.088-0.123-0.1-0.231-0.002-0.019-0.013-0.030-0.024-0.025s-0.046-0.018-0.078-0.051c-0.033-0.035-0.044-0.062-0.026-0.063s0.005-0.013-0.029-0.026c-0.033-0.013-0.053-0.036-0.044-0.051s-0.009-0.027-0.039-0.027c-0.031 0-0.048-0.012-0.039-0.026s0.003-0.026-0.013-0.026c-0.016 0-0.021-0.014-0.011-0.030s0.007-0.023-0.008-0.014c-0.015 0.009-0.055-0.011-0.089-0.045s-0.101-0.070-0.148-0.080-0.085-0.029-0.085-0.043c0-0.013-0.018-0.024-0.039-0.024s-0.039-0.014-0.039-0.032c0-0.023-0.008-0.024-0.028-0.003-0.037 0.037-0.135 0.012-0.111-0.028 0.010-0.016-0.002-0.014-0.027 0.006-0.033 0.027-0.044 0.028-0.044 0.004 0-0.018-0.015-0.027-0.033-0.020s-0.056 0.004-0.085-0.007c-0.029-0.011-0.067-0.008-0.085 0.007s-0.033 0.016-0.033 0.002c0-0.025-0.045-0.028-0.21-0.014zM1.013 3.518c-0.010 0.016-0.042 0.029-0.070 0.029s-0.088 0.019-0.133 0.042c-0.044 0.023-0.073 0.030-0.064 0.016 0.009-0.015-0.006-0.020-0.037-0.012-0.029 0.008-0.061 0.026-0.070 0.041-0.010 0.017-0.003 0.020 0.020 0.008 0.020-0.011 0.008 0.004-0.028 0.033s-0.074 0.047-0.085 0.040c-0.011-0.007-0.013 0.006-0.004 0.029 0.011 0.030 0.004 0.037-0.026 0.025s-0.050 0.006-0.070 0.057c-0.015 0.040-0.048 0.091-0.073 0.114s-0.049 0.065-0.054 0.093c-0.005 0.028-0.027 0.065-0.050 0.081-0.026 0.019-0.036 0.054-0.028 0.099 0.007 0.038 0.003 0.063-0.009 0.055s-0.022 2.416-0.022 5.385c-0 3.836 0.008 5.404 0.028 5.416 0.016 0.010 0.023 0.040 0.015 0.067s-0.003 0.050 0.009 0.050 0.049 0.054 0.081 0.119c0.037 0.073 0.073 0.114 0.094 0.106 0.019-0.007 0.035 0.001 0.035 0.019s0.032 0.062 0.071 0.098c0.039 0.036 0.061 0.051 0.051 0.033-0.013-0.022-0.006-0.028 0.021-0.017 0.022 0.009 0.034 0.026 0.026 0.039s0.003 0.017 0.024 0.009c0.021-0.008 0.047-0.001 0.057 0.016 0.014 0.023 0.025 0.022 0.042-0.005 0.018-0.029 0.023-0.028 0.023 0.004 0.001 0.051 0.312 0.071 0.396 0.025 0.032-0.017 0.050-0.019 0.041-0.004-0.010 0.016 0.005 0.021 0.036 0.013 0.029-0.008 0.047-0.023 0.040-0.034s0.004-0.027 0.025-0.035c0.021-0.008 0.043-0 0.050 0.017s0.014 0.010 0.015-0.016c0.001-0.026 0.014-0.040 0.029-0.031 0.035 0.022 0.23-0.176 0.216-0.219-0.006-0.018 0.004-0.029 0.023-0.025s0.036-0.004 0.037-0.019c0.010-0.075 0.046-0.169 0.062-0.159 0.031 0.019 0.033-0.101 0.037-3.086l0.005-2.903 0.302 0.018 0.010 2.934c0.010 3.192 0.008 3.034 0.049 3.009 0.019-0.012 0.024 0.002 0.013 0.042-0.011 0.042 0.003 0.076 0.048 0.119 0.035 0.033 0.064 0.079 0.064 0.102s0.011 0.043 0.025 0.043c0.014 0 0.057 0.030 0.096 0.066s0.082 0.066 0.095 0.066c0.013 0 0.017 0.010 0.010 0.023s0.009 0.029 0.038 0.037c0.029 0.008 0.046 0.003 0.038-0.010s0.004-0.017 0.026-0.008 0.035 0.025 0.028 0.036c-0.007 0.011 0.005 0.028 0.028 0.036 0.028 0.011 0.034 0.005 0.021-0.017-0.015-0.025-0.011-0.026 0.018-0.003 0.094 0.074 0.513 0.023 0.57-0.069 0.018-0.029 0.051-0.053 0.072-0.053s0.039-0.010 0.039-0.022c0-0.012 0.030-0.038 0.066-0.057s0.066-0.052 0.066-0.072c0-0.020 0.012-0.029 0.026-0.020 0.024 0.015 0.038-0.020 0.029-0.072-0.002-0.011 0.010-0.020 0.026-0.020s0.022-0.017 0.014-0.039c-0.008-0.021 0.003-0.057 0.025-0.079 0.035-0.035 0.040-0.473 0.045-3.777l0.005-3.738-0.059 0.003c-0.033 0.002-0.059-0.007-0.059-0.020 0-0.029-0.059-0.018-0.087 0.017-0.014 0.017-0.026 0.015-0.035-0.007s-0.038-0.027-0.077-0.017c-0.039 0.010-0.064 0.004-0.064-0.013s-0.051-0.027-0.138-0.023c-0.076 0.003-0.15-0.001-0.164-0.009s-0.12-0.017-0.235-0.019c-0.154-0.003-0.215-0.014-0.231-0.042-0.017-0.030-0.037-0.033-0.093-0.012-0.039 0.015-0.063 0.019-0.052 0.008 0.033-0.033-0.068-0.089-0.106-0.057-0.025 0.021-0.030 0.018-0.017-0.014 0.011-0.029-0.010-0.058-0.065-0.091-0.045-0.027-0.073-0.057-0.064-0.067s-0-0.017-0.022-0.017c-0.038 0-0.101-0.099-0.117-0.183-0.004-0.021-0.028-0.054-0.053-0.072-0.027-0.020-0.033-0.034-0.013-0.034 0.018 0 0.025-0.012 0.016-0.027s-0.028-0.020-0.041-0.012c-0.013 0.008-0.024 0.004-0.024-0.011s0.013-0.030 0.030-0.036c0.020-0.007 0.018-0.022-0.008-0.048-0.021-0.021-0.046-0.059-0.055-0.084s-0.030-0.046-0.046-0.046-0.021-0.012-0.012-0.026c0.009-0.014 0.003-0.026-0.014-0.026s-0.025-0.015-0.019-0.032c0.006-0.018-0.017-0.062-0.050-0.098-0.064-0.069-0.082-0.122-0.031-0.090 0.019 0.012 0.023 0.007 0.012-0.012-0.010-0.017-0.039-0.031-0.063-0.032s-0.031-0.008-0.014-0.014c0.017-0.007 0.024-0.035 0.017-0.063s-0.022-0.046-0.032-0.039c-0.010 0.006-0.053-0.065-0.095-0.158s-0.084-0.17-0.094-0.17-0.026-0.035-0.036-0.079c-0.010-0.043-0.028-0.079-0.042-0.079s-0.035-0.027-0.048-0.059c-0.075-0.194-0.118-0.282-0.138-0.282-0.012 0-0.022-0.012-0.022-0.027s0.034-0.009 0.079 0.014c0.085 0.044 0.108 0.083 0.033 0.054-0.035-0.013-0.032-0.004 0.012 0.037 0.032 0.030 0.064 0.054 0.072 0.054 0.026 0 0.383 0.37 0.383 0.397 0 0.015 0.009 0.022 0.020 0.016 0.021-0.011 0.113 0.075 0.11 0.102-0.001 0.009 0.034 0.038 0.079 0.065s0.078 0.063 0.074 0.079c-0.004 0.016 0.029 0.051 0.072 0.076s0.076 0.058 0.073 0.073c-0.003 0.015 0.035 0.046 0.085 0.070 0.097 0.046 0.122 0.075 0.045 0.051-0.025-0.008-0.014 0.004 0.024 0.027s0.078 0.066 0.088 0.096c0.010 0.030 0.023 0.048 0.031 0.041s0.044 0.022 0.080 0.065c0.036 0.043 0.082 0.073 0.102 0.065s0.036 0.001 0.036 0.018c0 0.047 0.147 0.104 0.213 0.084 0.035-0.011 0.050-0.008 0.040 0.008-0.009 0.014 0.002 0.033 0.024 0.042s0.034 0.004 0.025-0.010c-0.027-0.043 0.167-0.030 0.238 0.016 0.036 0.023 0.065 0.031 0.065 0.018s0.018-0.025 0.039-0.025 0.039 0.008 0.039 0.018c0 0.010 0.015 0.018 0.033 0.018s0.077 0.008 0.131 0.019c0.073 0.014 0.099 0.010 0.099-0.015 0-0.024 0.006-0.025 0.020-0.005 0.011 0.016 0.090 0.038 0.177 0.049s0.178 0.030 0.202 0.043c0.024 0.013 0.050 0.014 0.057 0.003 0.018-0.029 0.291-0.010 0.301 0.021 0.005 0.014 0.028 0.026 0.053 0.025 0.038-0 0.039-0.004 0.004-0.029-0.033-0.024-0.031-0.026 0.009-0.013 0.026 0.009 0.080 0.016 0.118 0.017 0.063 0.002 0.065 0.004 0.018 0.025-0.042 0.018-0.034 0.022 0.039 0.020 0.051-0.002 0.109-0.016 0.13-0.032 0.028-0.021 0.033-0.020 0.018 0.005-0.011 0.018-0.010 0.034 0.002 0.036 0.049 0.007 0.296 0.024 0.455 0.032 0.243 0.012 0.547-0.104 0.478-0.181-0.010-0.011 0.002-0.013 0.026-0.004 0.032 0.011 0.056-0.009 0.087-0.075 0.024-0.050 0.053-0.090 0.066-0.090s0.019-0.024 0.013-0.053c-0.006-0.029 0.002-0.053 0.016-0.053s0.020-0.011 0.011-0.024c-0.008-0.013-0.004-0.031 0.010-0.040 0.043-0.026 0.013-0.3-0.037-0.336-0.016-0.011-0.011-0.019 0.012-0.020 0.030-0 0.029-0.007-0.005-0.033-0.024-0.018-0.047-0.051-0.051-0.072s-0.029-0.055-0.054-0.074c-0.026-0.019-0.040-0.045-0.032-0.058 0.015-0.025-0.077-0.085-0.098-0.064-0.007 0.007-0.034-0.011-0.060-0.040s-0.069-0.053-0.096-0.053-0.048-0.010-0.048-0.022c0-0.012-0.027-0.020-0.059-0.017s-0.081-0.006-0.108-0.020c-0.037-0.019-0.044-0.017-0.028 0.008s0.008 0.028-0.030 0.013c-0.087-0.036-0.252-0.062-0.48-0.075-0.121-0.007-0.232-0.026-0.248-0.042-0.035-0.035-0.106-0.039-0.085-0.004 0.016 0.026-0.116-0.004-0.173-0.040-0.021-0.013-0.024-0.007-0.010 0.018 0.017 0.030 0.014 0.031-0.014 0.004-0.019-0.018-0.054-0.033-0.076-0.032-0.036 0-0.036 0.003-0.001 0.026 0.024 0.015 0.027 0.026 0.008 0.026-0.017 0-0.038-0.011-0.046-0.024s-0.050-0.020-0.093-0.014c-0.043 0.005-0.078-0.002-0.078-0.016 0-0.016-0.019-0.016-0.053 0.002-0.031 0.016-0.053 0.018-0.053 0.003s-0.030-0.022-0.066-0.018c-0.036 0.004-0.072-0.003-0.080-0.015s-0.075-0.021-0.15-0.019c-0.146 0.003-0.263-0.032-0.297-0.088-0.014-0.024-0.005-0.022 0.030 0.004 0.050 0.038 0.050 0.038 0.001-0.020-0.028-0.032-0.056-0.053-0.062-0.047s-0.050-0.029-0.097-0.079c-0.047-0.050-0.1-0.091-0.117-0.091s-0.024-0.011-0.016-0.025c0.015-0.024-0.086-0.145-0.121-0.145-0.009 0-0.056-0.041-0.105-0.091s-0.065-0.074-0.036-0.053c0.050 0.036 0.050 0.035 0.013-0.012-0.022-0.028-0.078-0.066-0.125-0.086s-0.087-0.047-0.089-0.062c-0.007-0.052-0.011-0.066-0.031-0.097-0.011-0.017-0.036-0.025-0.056-0.018-0.022 0.008-0.044-0.010-0.055-0.047-0.011-0.034-0.059-0.099-0.107-0.145s-0.088-0.090-0.088-0.099c0-0.029 0.043-0.014 0.094 0.031 0.028 0.025 0.063 0.047 0.077 0.048 0.061 0.005 0.196 0.070 0.184 0.090-0.017 0.028 0.063 0.057 0.098 0.036 0.016-0.010 0.020-0.005 0.009 0.013s-0.002 0.030 0.022 0.030c0.023 0 0.041 0.011 0.041 0.024s0.024 0.018 0.053 0.010c0.031-0.008 0.053-0.001 0.053 0.017s0.012 0.024 0.026 0.015 0.026 0.002 0.026 0.024c0 0.024 0.015 0.034 0.038 0.025 0.022-0.008 0.068 0.017 0.109 0.060 0.039 0.041 0.062 0.060 0.052 0.042s-0.006-0.033 0.009-0.033c0.015 0 0.028 0.013 0.028 0.028s0.011 0.021 0.024 0.013c0.013-0.008 0.029-0.001 0.034 0.016s0.057 0.035 0.114 0.041c0.057 0.006 0.108 0.022 0.113 0.037 0.006 0.016 0.023 0.014 0.046-0.004 0.027-0.022 0.037-0.022 0.037-0.001 0 0.016 0.013 0.029 0.028 0.029s0.022-0.010 0.014-0.022c-0.018-0.029 0.119-0.005 0.161 0.028 0.017 0.014 0.044 0.017 0.059 0.008 0.037-0.023 0.037-0.583-0-0.606-0.019-0.011-0.016-0.031 0.007-0.059s0.024-0.036 0.002-0.023c-0.023 0.014-0.029-0.006-0.020-0.074 0.007-0.051 0.001-0.093-0.012-0.093s-0.039-0.044-0.057-0.099c-0.018-0.054-0.050-0.112-0.072-0.127-0.024-0.017-0.031-0.042-0.018-0.063 0.014-0.023 0.011-0.028-0.009-0.016s-0.030-0.003-0.031-0.042c-0-0.049-0.005-0.053-0.026-0.021-0.026 0.040-0.041 0.006-0.028-0.064 0.003-0.013-0.016-0.007-0.041 0.013-0.041 0.033-0.044 0.032-0.029-0.009 0.013-0.034 0.004-0.046-0.034-0.046-0.030 0-0.052-0.018-0.052-0.042 0-0.027-0.014-0.037-0.041-0.027s-0.034 0.005-0.022-0.015c0.013-0.021 0.004-0.025-0.026-0.013-0.025 0.010-0.039 0.007-0.031-0.006 0.020-0.032-0.049-0.055-0.165-0.055-0.070-0-0.086-0.007-0.057-0.025 0.025-0.016-0.303-0.025-0.9-0.026-0.742-0.001-0.939 0.005-0.939 0.032-0 0.025-0.006 0.025-0.023-0.002-0.016-0.025-0.028-0.027-0.041-0.007zM9.143 3.523c-0.022 0.013-0.090 0.036-0.151 0.051s-0.112 0.039-0.112 0.053-0.016 0.025-0.035 0.025c-0.019 0-0.061 0.030-0.093 0.067s-0.070 0.060-0.084 0.051c-0.014-0.009-0.026 0.001-0.026 0.022s-0.018 0.045-0.039 0.053c-0.022 0.008-0.039 0.028-0.039 0.044s0.012 0.021 0.026 0.013c0.015-0.009 0.019 0.001 0.010 0.025s-0.033 0.041-0.055 0.041c-0.023 0-0.034 0.015-0.025 0.037 0.008 0.020-0.006 0.056-0.032 0.078-0.028 0.025-0.044 0.073-0.040 0.121 0.003 0.044-0.006 0.079-0.020 0.079s-0.023 0.021-0.020 0.046c0.003 0.025-0.004 0.067-0.015 0.093s-0.013 0.1-0.005 0.164c0.015 0.111 0.013 0.117-0.049 0.117-0.036 0-0.065 0.013-0.065 0.028s-0.011 0.021-0.024 0.013c-0.013-0.008-0.058 0.013-0.099 0.047s-0.107 0.070-0.147 0.080c-0.041 0.010-0.072 0.036-0.072 0.059 0 0.026-0.015 0.036-0.039 0.027-0.022-0.008-0.039-0.006-0.039 0.005s-0.033 0.034-0.072 0.051c-0.094 0.041-0.169 0.090-0.206 0.136-0.016 0.020-0.042 0.029-0.058 0.020s-0.063 0.018-0.106 0.061c-0.043 0.043-0.11 0.084-0.149 0.091s-0.086 0.032-0.103 0.055c-0.017 0.023-0.043 0.039-0.057 0.034-0.032-0.011-0.172 0.097-0.155 0.119 0.007 0.009 0.004 0.011-0.005 0.003s-0.046 0.006-0.081 0.028-0.094 0.047-0.132 0.054c-0.088 0.016-0.111 0.031-0.111 0.074 0 0.019-0.018 0.042-0.041 0.051-0.026 0.010-0.034 0.005-0.022-0.014 0.025-0.041-0.152 0.060-0.192 0.109-0.035 0.044-0.020 0.13 0.030 0.171 0.018 0.014 0.042 0.074 0.054 0.131s0.026 0.123 0.031 0.144c0.023 0.099 0.024 0.42 0.001 0.42-0.014 0-0.012 0.017 0.005 0.037s0.021 0.043 0.007 0.052c-0.013 0.008-0.031 0.051-0.040 0.096s-0.028 0.074-0.043 0.065c-0.015-0.009-0.028 0.002-0.030 0.025-0.005 0.063-0.009 0.078-0.032 0.113-0.012 0.018-0.014 0.033-0.005 0.033s0.003 0.024-0.013 0.053c-0.016 0.029-0.042 0.045-0.058 0.035-0.017-0.011-0.022-0.006-0.010 0.012 0.020 0.033-0.014 0.112-0.052 0.118-0.013 0.002-0.021 0.013-0.017 0.024 0.006 0.019-0.035 0.030-0.081 0.022-0.012-0.002-0.015 0.023-0.007 0.056s0.008 0.045-0 0.027c-0.023-0.051-0.063-0.039-0.063 0.020 0 0.066 0.043 0.068 0.083 0.004 0.018-0.029 0.050-0.044 0.079-0.036 0.027 0.007 0.048-0.001 0.048-0.017s0.024-0.029 0.054-0.029 0.047-0.012 0.038-0.026c-0.009-0.014 0.017-0.040 0.058-0.056 0.215-0.088 0.297-0.131 0.297-0.156 0-0.015 0.011-0.021 0.024-0.013s0.047-0.014 0.075-0.050c0.040-0.050 0.058-0.058 0.083-0.033 0.018 0.017 0.030 0.020 0.027 0.005-0.011-0.058 0.003-0.094 0.029-0.078 0.034 0.021 0.162-0.008 0.148-0.035-0.016-0.030 0.074-0.103 0.119-0.096 0.022 0.003 0.078-0.028 0.124-0.070 0.089-0.081 0.134-0.102 0.080-0.036-0.028 0.033-0.026 0.037 0.010 0.023 0.039-0.015 0.054-0.045 0.047-0.095-0.002-0.010 0.014-0.012 0.034-0.005s0.062-0.010 0.092-0.040 0.071-0.055 0.091-0.055c0.070 0 0.165-0.066 0.152-0.106-0.011-0.034-0.007-0.034 0.036 0 0.037 0.030 0.043 0.030 0.027 0.003-0.015-0.025-0.011-0.033 0.014-0.024 0.020 0.007 0.048 0.002 0.063-0.010s0.055-0.045 0.089-0.074c0.034-0.028 0.073-0.045 0.085-0.037s0.023-0.004 0.023-0.027c0-0.026 0.024-0.041 0.065-0.041 0.036 0 0.088-0.025 0.115-0.055 0.033-0.035 0.057-0.044 0.068-0.026 0.010 0.016 0.005 0.028-0.010 0.028-0.039 0-0.035 0.15 0.005 0.167 0.026 0.010 0.026 0.014 0 0.015-0.036 0.002-0.042 0.645-0.011 1.241 0.010 0.183 0.009 0.327-0.002 0.321s-0.019 0.445-0.020 1.004c-0.001 0.958 0.002 1.014 0.045 0.996 0.025-0.011 0.060-0.020 0.078-0.020s0.027-0.009 0.021-0.019c-0.015-0.024 0.116-0.083 0.145-0.065 0.012 0.008 0.040-0.004 0.062-0.026 0.023-0.023 0.046-0.029 0.056-0.014 0.010 0.016 0.039 0.016 0.082 0 0.037-0.014 0.104-0.025 0.15-0.025h0.084l-0.004-0.263c-0.002-0.144 0.007-0.269 0.020-0.278s0.018-0.026 0.010-0.039c-0.020-0.032 0.043-0.237 0.068-0.221 0.011 0.007 0.027-0.006 0.035-0.028 0.011-0.028 0.005-0.034-0.017-0.021-0.018 0.011 0.038-0.051 0.125-0.137s0.162-0.154 0.167-0.151c0.025 0.014 0.136-0.152 0.12-0.179-0.012-0.019-0.008-0.024 0.011-0.012s0.030-0.003 0.030-0.042c-0-0.049-0.005-0.053-0.026-0.021-0.022 0.034-0.026 0.033-0.026-0.007-0-0.025 0.013-0.046 0.029-0.046 0.017 0 0.024-0.027 0.017-0.066-0.007-0.036-0.004-0.066 0.006-0.066 0.026 0 0.067-0.288 0.075-0.534 0.003-0.087 0.013-0.121 0.034-0.108s0.026-0.004 0.016-0.056c-0.008-0.041-0.002-0.105 0.013-0.142 0.037-0.088 0.039-0.141 0.006-0.166-0.017-0.013-0.016-0.027 0.003-0.039 0.074-0.049 0.1-0.879 0.035-1.084-0.002-0.007-0.004-0.063-0.003-0.124s-0.010-0.118-0.025-0.127c-0.017-0.010-0.015-0.029 0.005-0.053 0.022-0.027 0.023-0.037 0.001-0.037-0.016 0-0.029-0.013-0.029-0.028s0.013-0.020 0.029-0.010c0.020 0.012 0.021 0.003 0.004-0.031-0.014-0.027-0.023-0.093-0.020-0.148s-0.005-0.099-0.017-0.099c-0.035 0-0.026-0.073 0.011-0.088 0.022-0.009 0.023-0.014 0.002-0.015-0.018-0.001-0.024-0.025-0.016-0.059 0.011-0.042 0.006-0.051-0.020-0.035-0.023 0.014-0.028 0.011-0.016-0.009 0.034-0.054 0.111 0.063 0.098 0.147-0.003 0.018 0.004 0.033 0.016 0.033 0.019 0 0.030 0.040 0.039 0.151 0.002 0.018 0.010 0.033 0.020 0.033s0.032 0.059 0.051 0.131 0.042 0.131 0.052 0.131 0.020 0.021 0.022 0.046c0.006 0.075 0.071 0.243 0.094 0.243 0.012 0 0.014 0.011 0.006 0.025-0.014 0.022 0.026 0.141 0.125 0.369 0.016 0.036 0.026 0.080 0.023 0.099s0.006 0.033 0.021 0.033c0.015 0 0.020 0.018 0.011 0.040s-0.004 0.054 0.010 0.072c0.042 0.054 0.11 0.249 0.094 0.266-0.009 0.009-0.019 0.054-0.023 0.101s-0.014 0.121-0.023 0.165c-0.009 0.043-0.017 0.111-0.017 0.151s-0.015 0.072-0.032 0.073c-0.018 0-0.015 0.011 0.008 0.026 0.022 0.014 0.026 0.026 0.010 0.026s-0.030 0.033-0.032 0.073c-0.009 0.21-0.020 0.289-0.038 0.278-0.011-0.007-0.020 0.021-0.020 0.062 0.001 0.134-0.029 0.309-0.067 0.393-0.044 0.097-0.049 0.145-0.009 0.088 0.021-0.030 0.023-0.023 0.008 0.026-0.011 0.036-0.019 0.092-0.018 0.125s-0.006 0.059-0.016 0.059-0.020 0.038-0.021 0.085c-0.008 0.238-0.021 0.257-0.173 0.26-0.096 0.002-0.335 0.1-0.245 0.101 0.013 0 0.007 0.019-0.012 0.043-0.082 0.099-0.102 0.236-0.102 0.713l-0 0.479h-0.304c-0.167 0-0.327-0.013-0.356-0.028-0.043-0.023-0.070-0.015-0.147 0.044-0.052 0.040-0.086 0.058-0.076 0.041s0.012-0.031 0.004-0.031c-0.008 0-0.034 0.047-0.057 0.105s-0.054 0.097-0.069 0.088c-0.017-0.011-0.019-0.002-0.004 0.025 0.013 0.023 0.017 0.568 0.010 1.226-0.011 1.030-0.008 1.191 0.026 1.227s0.035 0.040 0 0.020c-0.042-0.023-0.017 0.017 0.079 0.124 0.088 0.098 0.149 0.101 2.032 0.099 1.888-0.002 1.988-0.005 1.988-0.067 0-0.020 0.030-0.043 0.066-0.052s0.067-0.030 0.069-0.047c0.002-0.016 0.009-0.065 0.017-0.109 0.029-0.174 0.034-2.378 0.005-2.378-0.016 0-0.022-0.011-0.013-0.024s0.003-0.032-0.012-0.041-0.027-0.031-0.026-0.048c0-0.019 0.011-0.016 0.026 0.008s0.026 0.027 0.026 0.008c0-0.018-0.018-0.047-0.040-0.066s-0.061-0.054-0.086-0.078c-0.064-0.063-0.198-0.111-0.21-0.076-0.006 0.018-0.129 0.028-0.336 0.028h-0.326l-0.003-0.512c-0.003-0.478-0.006-0.543-0.023-0.578-0.004-0.007-0.008-0.024-0.010-0.038-0.010-0.080-0.215-0.216-0.31-0.207l-0.098 0.009 0.013-0.106c0.007-0.058 0.018-0.164 0.025-0.235s0.022-0.136 0.034-0.144c0.012-0.008 0.019-0.062 0.017-0.12s0.006-0.119 0.020-0.137c0.014-0.017 0.030-0.088 0.037-0.158s0.018-0.162 0.024-0.205c0.014-0.093 0.027-0.208 0.033-0.31 0.003-0.042 0.016-0.067 0.031-0.058s0.026-0.002 0.026-0.025-0.012-0.041-0.026-0.041c-0.014 0-0.026-0.013-0.026-0.028s0.013-0.020 0.029-0.010c0.020 0.012 0.023-0.001 0.010-0.041-0.012-0.037-0.009-0.053 0.008-0.043s0.025-0.028 0.023-0.102c-0.002-0.065 0.004-0.118 0.014-0.118 0.019 0 0.022-0.028 0.023-0.197 0.001-0.205-0.007-0.276-0.029-0.262-0.012 0.008-0.018-0.010-0.012-0.040s-0.001-0.053-0.014-0.053-0.017-0.018-0.009-0.039c0.008-0.022 0.003-0.039-0.011-0.039s-0.034-0.041-0.043-0.092c-0.009-0.051-0.027-0.092-0.040-0.092s-0.020-0.030-0.016-0.066c0.004-0.036-0.003-0.066-0.015-0.066s-0.023-0.027-0.023-0.060-0.012-0.072-0.026-0.087c-0.014-0.014-0.045-0.096-0.067-0.182s-0.053-0.163-0.068-0.172c-0.015-0.009-0.027-0.027-0.026-0.040 0.003-0.056-0.031-0.142-0.055-0.142-0.015 0-0.020-0.024-0.013-0.053s0.003-0.059-0.011-0.067c-0.013-0.008-0.018-0.025-0.011-0.037 0.020-0.033-0.014-0.108-0.042-0.091-0.013 0.008-0.024-0.016-0.024-0.053s-0.011-0.067-0.025-0.067c-0.014 0-0.019-0.018-0.010-0.039s0.003-0.039-0.011-0.039c-0.015 0-0.025-0.042-0.024-0.094s-0.013-0.103-0.032-0.115c-0.024-0.015-0.026-0.027-0.005-0.039 0.016-0.010 0.029-0.005 0.029 0.011s0.014 0.021 0.030 0.011c0.019-0.012 0.023-0.007 0.011 0.012-0.011 0.017-0 0.038 0.024 0.047s0.036 0.033 0.028 0.054-0.005 0.032 0.006 0.024c0.011-0.007 0.044 0.040 0.072 0.103s0.065 0.116 0.082 0.117c0.017 0 0.039 0.024 0.048 0.054s0.045 0.084 0.080 0.122c0.035 0.038 0.057 0.078 0.049 0.091s-0.002 0.023 0.014 0.023 0.028 0.027 0.028 0.059c0 0.044 0.006 0.050 0.023 0.023 0.023-0.036 0.053-0.004 0.085 0.089 0.005 0.014 0.019 0.023 0.031 0.019s0.016 0.003 0.008 0.015 0.009 0.057 0.037 0.099c0.028 0.043 0.051 0.060 0.051 0.038s0.003-0.396 0.007-0.832c0.004-0.477-0.003-0.786-0.017-0.777-0.013 0.008-0.017-0.003-0.008-0.026 0.015-0.039-0.065-0.233-0.124-0.302-0.045-0.053-0.078-0.099-0.109-0.153-0.016-0.028-0.056-0.055-0.088-0.060s-0.065-0.031-0.073-0.059c-0.014-0.055-0.060-0.069-0.060-0.018 0 0.018-0.018 0.006-0.041-0.026-0.027-0.038-0.068-0.058-0.12-0.058-0.056 0-0.073-0.009-0.059-0.033 0.013-0.022 0.005-0.021-0.025 0.003-0.026 0.021-0.044 0.025-0.044 0.008 0-0.035-0.112-0.030-0.138 0.007-0.013 0.018-0.019 0.016-0.020-0.006-0-0.040-1.719-0.043-1.787-0.004zM11.168 10.103l0.005 0.261-0.848 0.014v-0.289c0-0.246 0.006-0.287 0.039-0.274 0.022 0.008 0.039 0.025 0.039 0.038s0.018 0.016 0.039 0.008c0.022-0.008 0.039-0.002 0.039 0.013 0 0.028 0.251 0.076 0.302 0.058 0.014-0.005 0.062-0.010 0.106-0.012 0.072-0.002 0.113-0.025 0.204-0.112 0.052-0.050 0.067 0.012 0.073 0.294zM8.383 14.357c0.003 0.382 0.014 0.69 0.024 0.684s0.013 0.020 0.005 0.057c-0.010 0.052-0.005 0.064 0.021 0.047 0.025-0.015 0.030-0.009 0.019 0.020-0.009 0.024 0 0.048 0.023 0.057 0.022 0.008 0.033 0.025 0.026 0.038s0.012 0.046 0.044 0.074c0.032 0.028 0.082 0.083 0.11 0.122s0.063 0.071 0.076 0.071 0.041 0.021 0.061 0.046c0.025 0.030 0.032 0.032 0.021 0.007-0.009-0.022 0.002-0.016 0.024 0.012s0.041 0.039 0.041 0.024 0.017-0.027 0.038-0.027c0.021 0 0.033 0.009 0.026 0.019s0.006 0.026 0.029 0.035c0.028 0.011 0.034 0.005 0.021-0.017-0.015-0.025-0.011-0.026 0.019-0.001 0.059 0.048 0.405 0.028 0.466-0.026 0.027-0.024 0.067-0.044 0.089-0.044s0.061-0.024 0.087-0.053c0.026-0.029 0.063-0.053 0.082-0.053s0.028-0.017 0.019-0.039c-0.008-0.022-0.002-0.039 0.014-0.039s0.029-0.018 0.029-0.039c0-0.022 0.015-0.036 0.033-0.033s0.033-0.011 0.033-0.033c0-0.052 0.046-0.103 0.077-0.085 0.014 0.008 0.016-0.006 0.006-0.032s-0.007-0.060 0.006-0.077c0.013-0.016 0.022-0.29 0.020-0.615l-0.004-0.585-0.552-0.010c-0.471-0.009-0.618-0.016-0.727-0.037-0.010-0.002-0.037-0.023-0.061-0.047-0.037-0.037-0.047-0.038-0.067-0.007-0.019 0.030-0.024 0.028-0.024-0.009-0-0.041-0.030-0.058-0.086-0.049-0.011 0.002-0.020-0.009-0.020-0.023s-0.013-0.026-0.028-0.026c-0.019 0-0.026 0.218-0.022 0.695zM10.29 14.174c0.002 0.173 0.007 0.405 0.010 0.515s-0.003 0.215-0.015 0.234c-0.014 0.022-0.011 0.028 0.008 0.016s0.028 0.008 0.026 0.055c-0.005 0.138 0.006 0.179 0.072 0.25 0.036 0.039 0.063 0.085 0.059 0.103s0.020 0.045 0.052 0.062c0.032 0.017 0.053 0.037 0.046 0.044s0.017 0.029 0.053 0.048c0.036 0.019 0.066 0.045 0.066 0.057s0.027 0.022 0.060 0.022 0.074 0.014 0.091 0.031c0.044 0.044 0.444 0.049 0.546 0.007 0.046-0.019 0.093-0.027 0.105-0.016s0.013 0.004 0.003-0.013c-0.017-0.030 0.079-0.104 0.121-0.092 0.011 0.003 0.017-0.009 0.013-0.026s0.009-0.032 0.027-0.033c0.040-0.001 0.086-0.069 0.068-0.098-0.007-0.012 0.007-0.021 0.031-0.021 0.027 0 0.038-0.014 0.029-0.038s0.006-0.045 0.039-0.055c0.041-0.013 0.050-0.032 0.038-0.080-0.009-0.035-0.006-0.063 0.007-0.063s0.019-0.048 0.015-0.106c-0.004-0.058 0-0.101 0.010-0.095s0.018-0.218 0.018-0.499v-0.51l-1.603-0.013 0.004 0.315z"></path>
</svg>
