<!-- Generated by IcoMoon.io -->
<svg version="1.1" xmlns="http://www.w3.org/2000/svg" width="15" height="20" viewBox="0 0 15 20">
<title>s_tab3</title>
<path fill="#555" d="M7.692 0.386c-0.006 0.006-1.418 0.012-3.137 0.012s-3.131 0.009-3.138 0.020c-0.007 0.011-0.075 0.033-0.153 0.050s-0.136 0.038-0.13 0.048c0.006 0.010-0.024 0.024-0.068 0.032s-0.103 0.036-0.132 0.061c-0.029 0.025-0.066 0.046-0.082 0.046s-0.035 0.016-0.042 0.035c-0.007 0.019-0.025 0.035-0.040 0.035-0.032 0-0.255 0.222-0.31 0.31-0.022 0.035-0.036 0.064-0.030 0.064s-0.014 0.027-0.045 0.061c-0.031 0.033-0.069 0.099-0.084 0.146s-0.042 0.106-0.059 0.131-0.038 0.096-0.046 0.158c-0.008 0.062-0.024 0.112-0.035 0.112s-0.020 2.733-0.020 6.292c0 4.179 0.008 6.292 0.023 6.292 0.013 0 0.023 0.031 0.023 0.069s0.012 0.098 0.027 0.135c0.015 0.036 0.025 0.080 0.022 0.097s0.006 0.025 0.020 0.016c0.015-0.009 0.025 0.007 0.025 0.040 0 0.049 0.029 0.1 0.191 0.34 0.052 0.076 0.33 0.356 0.355 0.356 0.011 0 0.046 0.021 0.079 0.047s0.079 0.047 0.104 0.047 0.050 0.015 0.057 0.033c0.007 0.018 0.051 0.040 0.098 0.049s0.097 0.023 0.11 0.031c0.013 0.008 0.034 0.017 0.047 0.020s0.055 0.014 0.094 0.024c0.132 0.035 8.853 0.023 8.875-0.012 0.011-0.017 0.026-0.030 0.034-0.029 0.046 0.007 0.202-0.031 0.202-0.049 0-0.012 0.011-0.015 0.023-0.007s0.023 0.004 0.023-0.008c0-0.012 0.028-0.029 0.062-0.038 0.12-0.030 0.434-0.29 0.541-0.448 0.017-0.024 0.023-0.030 0.014-0.012-0.011 0.022-0.007 0.027 0.011 0.016 0.015-0.009 0.023-0.025 0.017-0.034s0.014-0.047 0.045-0.082 0.062-0.096 0.071-0.133c0.008-0.038 0.025-0.062 0.037-0.055s0.021-0.012 0.021-0.044c0-0.031 0.015-0.070 0.034-0.085s0.033-0.046 0.033-0.067c-0-0.022 0.011-0.081 0.024-0.133 0.017-0.064 0.025-1.688 0.025-5.139l0.001-5.045-0.058-0.046c-0.032-0.025-0.058-0.054-0.058-0.063 0-0.024-0.115-0.128-0.142-0.128-0.012 0-0.022-0.016-0.022-0.034s-0.032-0.051-0.070-0.071-0.070-0.042-0.070-0.049c0-0.007 0.010-0.006 0.022 0.001s-0.23-0.239-0.538-0.547c-0.308-0.308-0.56-0.571-0.56-0.582s-0.022-0.027-0.049-0.034c-0.027-0.007-0.043-0.023-0.035-0.035s-0.022-0.047-0.067-0.077c-0.044-0.030-0.085-0.074-0.091-0.096s-0.028-0.041-0.048-0.041-0.037-0.011-0.037-0.024c0-0.030-0.206-0.234-0.235-0.234-0.012 0-0.022-0.011-0.022-0.025s-0.229-0.254-0.509-0.534-0.561-0.566-0.626-0.636c-0.064-0.070-0.125-0.124-0.134-0.121s-0.027-0.013-0.039-0.036c-0.026-0.049-0.237-0.278-0.237-0.257 0 0.008-0.037-0.022-0.082-0.066-0.087-0.084-0.090-0.087-0.109-0.068zM7.348 2.544c0.001 0.614 0.001 1.136-0.002 1.159s0.006 0.055 0.019 0.071c0.013 0.016 0.029 0.057 0.035 0.092s0.028 0.087 0.048 0.116c0.020 0.029 0.037 0.067 0.037 0.086 0 0.056 0.213 0.302 0.327 0.377 0.029 0.019 0.065 0.047 0.080 0.061s0.069 0.040 0.12 0.058c0.051 0.018 0.1 0.043 0.109 0.056 0.011 0.015 0.433 0.026 1.175 0.030l1.159 0.007v0.069c0 0.038 0.011 0.069 0.024 0.069 0.016 0 0.023 1.564 0.023 4.691-0 2.921-0.009 4.686-0.022 4.678-0.012-0.007-0.029 0.024-0.037 0.069s-0.025 0.083-0.037 0.083c-0.012 0-0.033 0.025-0.047 0.056s-0.064 0.076-0.111 0.099c-0.047 0.024-0.092 0.054-0.102 0.067-0.028 0.039-8.523 0.044-8.6 0.005-0.15-0.076-0.272-0.169-0.272-0.208 0-0.009-0.021-0.041-0.047-0.070-0.072-0.082-0.086-12.342-0.014-12.481 0.053-0.102 0.19-0.257 0.238-0.267 0.018-0.004 0.040-0.017 0.048-0.028 0.036-0.050 0.344-0.056 3.020-0.058l2.825-0.003 0.003 1.117zM2.213 2.187c-0.024 0.018-0.053 0.028-0.063 0.022s-0.030 0.010-0.045 0.036c-0.014 0.026-0.036 0.042-0.048 0.034s-0.022-0.003-0.022 0.009c0 0.013-0.018 0.041-0.041 0.064-0.070 0.070-0.075 2.769-0.006 2.921 0.027 0.058 0.064 0.106 0.083 0.106s0.035 0.009 0.035 0.019c0 0.010 0.037 0.037 0.082 0.058 0.091 0.043 2.702 0.061 2.702 0.019 0-0.011 0.034-0.027 0.076-0.036 0.088-0.018 0.205-0.154 0.205-0.239 0-0.030 0.010-0.055 0.023-0.055 0.043 0 0.031-2.529-0.012-2.679-0.020-0.070-0.045-0.128-0.055-0.128s-0.032-0.026-0.049-0.058c-0.017-0.032-0.036-0.054-0.041-0.048s-0.046-0.010-0.090-0.035c-0.107-0.060-2.653-0.069-2.732-0.010zM4.374 3.825v0.83h-1.637v-1.661h1.637v0.83zM2.181 6.379c-0.029 0.006-0.053 0.020-0.053 0.032s-0.011 0.022-0.025 0.022c-0.031 0-0.092 0.059-0.092 0.090 0 0.013-0.013 0.028-0.029 0.033-0.023 0.008-0.031 0.307-0.036 1.365-0.007 1.329-0 1.568 0.044 1.541 0.012-0.007 0.022 0.001 0.022 0.019 0 0.049 0.093 0.122 0.211 0.165 0.125 0.046 2.603 0.061 2.631 0.016 0.008-0.013 0.034-0.023 0.059-0.023 0.067 0 0.163-0.050 0.163-0.086 0-0.017 0.009-0.031 0.021-0.031 0.027 0 0.083-0.137 0.079-0.192-0.002-0.023 0.007-0.042 0.019-0.042 0.040 0 0.027-2.558-0.014-2.636-0.019-0.036-0.034-0.078-0.034-0.093s-0.026-0.048-0.058-0.073c-0.032-0.025-0.052-0.051-0.045-0.058 0.054-0.054-2.601-0.097-2.863-0.047zM4.374 8v0.842h-1.637v-1.684h1.637v0.842zM2.146 10.566c-0.023 0.006-0.036 0.020-0.029 0.031s-0.009 0.027-0.035 0.035c-0.026 0.008-0.069 0.062-0.095 0.119-0.059 0.129-0.063 2.862-0.005 2.881 0.016 0.005 0.029 0.019 0.029 0.030 0 0.036 0.104 0.13 0.175 0.159 0.096 0.039 2.167 0.029 2.18-0.010 0.005-0.014-0.015-0.033-0.045-0.040s-0.059-0.017-0.065-0.020c-0.006-0.004-0.171-0.167-0.366-0.363l-0.355-0.357h-0.8v-1.684h1.637v0.218c0 0.138 0.010 0.228 0.028 0.246 0.015 0.015 0.020 0.028 0.009 0.028s0.022 0.041 0.071 0.091c0.050 0.050 0.098 0.086 0.108 0.080s0.018 0 0.018 0.014c0 0.065 0.092 0.009 0.239-0.145 0.089-0.093 0.209-0.218 0.266-0.276l0.105-0.107-0.004-0.309c-0.002-0.17-0.013-0.309-0.024-0.309s-0.021-0.026-0.021-0.057c0-0.035-0.038-0.098-0.101-0.164l-0.101-0.106-1.391 0.003c-0.765 0.001-1.409 0.008-1.432 0.013zM6.228 10.987c-0.029 0.006-0.053 0.017-0.053 0.026s-0.032 0.030-0.072 0.048c-0.039 0.017-0.081 0.054-0.092 0.082s-0.067 0.087-0.125 0.132c-0.058 0.045-0.118 0.105-0.134 0.134s-0.037 0.046-0.048 0.040c-0.011-0.007-0.020-0.003-0.020 0.008s-0.151 0.175-0.336 0.364c-0.185 0.189-0.332 0.344-0.327 0.344s-0.036 0.039-0.091 0.088c-0.055 0.048-0.103 0.097-0.108 0.108s-0.035 0.043-0.068 0.070c-0.032 0.028-0.071 0.062-0.085 0.077-0.019 0.020-0.102-0.050-0.321-0.269-0.162-0.163-0.319-0.314-0.348-0.336-0.074-0.055-0.368-0.046-0.401 0.012-0.012 0.022-0.037 0.040-0.056 0.040s-0.034 0.010-0.034 0.022c0 0.012-0.018 0.040-0.040 0.061-0.042 0.042-0.070 0.269-0.045 0.369 0.008 0.031 0.088 0.132 0.178 0.225s0.164 0.173 0.164 0.178c0 0.015 0.28 0.291 0.295 0.29 0.007-0 0.041 0.034 0.075 0.077 0.081 0.1 0.255 0.271 0.318 0.311s0.368 0.036 0.382-0.006c0.005-0.016 0.022-0.029 0.037-0.029s0.206-0.184 0.425-0.409 0.622-0.635 0.896-0.912c0.274-0.277 0.492-0.503 0.484-0.503s0.002-0.017 0.022-0.037c0.020-0.020 0.037-0.068 0.037-0.107 0-0.047 0.009-0.064 0.027-0.053s0.022 0.004 0.010-0.028c-0.010-0.025-0.022-0.066-0.027-0.092-0.029-0.145-0.041-0.174-0.099-0.229-0.104-0.099-0.236-0.129-0.42-0.094z"></path>
</svg>
