<!-- Generated by IcoMoon.io -->
<svg version="1.1" xmlns="http://www.w3.org/2000/svg" width="20" height="20" viewBox="0 0 20 20">
<title>s_tab1</title>
<path fill="#555" d="M7.541 0.341c-0.003 0.003-0.193 0.015-0.421 0.027-0.571 0.030-0.663 0.039-0.729 0.065-0.032 0.013-0.064 0.017-0.072 0.008s-0.106 0.002-0.217 0.023c-0.111 0.021-0.248 0.037-0.304 0.035s-0.102 0.007-0.102 0.018c0 0.012-0.036 0.017-0.080 0.012s-0.080 0.005-0.080 0.021c0 0.017-0.040 0.027-0.088 0.024s-0.095-0.003-0.104 0c-0.029 0.010-0.142 0.036-0.208 0.046-0.035 0.006-0.064 0.013-0.064 0.017s-0.022 0.011-0.048 0.017c-0.026 0.006-0.142 0.035-0.256 0.066s-0.243 0.060-0.285 0.065c-0.088 0.011-0.145 0.082-0.093 0.114 0.019 0.012 0.026 0.045 0.015 0.073s-0.007 0.051 0.008 0.051 0.038 0.054 0.050 0.12c0.013 0.066 0.030 0.156 0.040 0.2s0.020 0.102 0.024 0.128c0.004 0.026 0.017 0.070 0.028 0.096s0.025 0.077 0.032 0.112c0.006 0.035 0.022 0.088 0.035 0.117s0.019 0.072 0.014 0.096c-0.005 0.024 0.006 0.072 0.024 0.107s0.031 0.086 0.030 0.112 0.008 0.056 0.022 0.066c0.014 0.010 0.031 0.077 0.039 0.15s0.030 0.163 0.050 0.201c0.020 0.038 0.030 0.097 0.021 0.13s-0.001 0.061 0.017 0.061c0.018 0 0.023 0.024 0.012 0.053s-0.004 0.064 0.016 0.076c0.020 0.012 0.036 0.075 0.036 0.139s0.010 0.116 0.023 0.116c0.020 0 0.098 0.323 0.106 0.44 0.003 0.045 0.056 0.056 0.056 0.012 0-0.016 0.029-0.036 0.064-0.045s0.057-0.006 0.049 0.008c-0.008 0.013 0.020 0.018 0.064 0.009s0.070-0.030 0.058-0.048c-0.013-0.021 0.011-0.027 0.064-0.017 0.047 0.009 0.085 0.004 0.085-0.011s0.035-0.028 0.078-0.028c0.043 0 0.113-0.013 0.155-0.029s0.14-0.034 0.218-0.040c0.078-0.006 0.148-0.020 0.157-0.032 0.015-0.020 0.286-0.057 0.552-0.075 0.066-0.004 0.124-0.011 0.128-0.015 0.075-0.064 1.856-0.081 2.328-0.022 0.079 0.010 0.219 0.025 0.31 0.032s0.214 0.025 0.272 0.039c0.178 0.041 0.23 0.049 0.322 0.049 0.048-0 0.088 0.014 0.088 0.031s0.034 0.023 0.077 0.012 0.086-0.003 0.098 0.016c0.012 0.019 0.035 0.027 0.051 0.017s0.091-0.001 0.166 0.019c0.075 0.020 0.158 0.041 0.185 0.046 0.148 0.030 0.245 0.060 0.281 0.089 0.030 0.024 0.036 0.019 0.021-0.020-0.012-0.030-0.004-0.053 0.017-0.053 0.023 0 0.030-0.025 0.017-0.064s-0.006-0.064 0.016-0.064 0.028-0.026 0.016-0.064-0.006-0.064 0.016-0.064 0.028-0.026 0.016-0.064-0.006-0.064 0.016-0.064 0.028-0.026 0.016-0.064-0.006-0.064 0.016-0.064 0.028-0.026 0.016-0.064c-0.011-0.035-0.009-0.064 0.006-0.064s0.028-0.040 0.031-0.088c0.008-0.143 0.074-0.407 0.104-0.418 0.015-0.005 0.021-0.038 0.012-0.072s-0-0.062 0.020-0.062c0.021 0 0.030-0.033 0.022-0.080-0.008-0.044-0.004-0.080 0.009-0.080s0.025-0.052 0.027-0.116c0.002-0.064 0.017-0.125 0.034-0.136s0.027-0.044 0.022-0.074c-0.012-0.075 0.051-0.313 0.082-0.313 0.014 0 0.018-0.029 0.008-0.064s-0.004-0.064 0.012-0.064c0.016 0 0.030-0.040 0.032-0.088s0.017-0.156 0.035-0.24c0.031-0.148 0.030-0.152-0.044-0.152-0.042 0-0.076-0.012-0.076-0.027s-0.018-0.028-0.040-0.030c-0.142-0.013-0.312-0.051-0.312-0.070 0-0.012-0.032-0.020-0.072-0.016s-0.092-0.010-0.117-0.029-0.050-0.032-0.056-0.028c-0.006 0.004-0.015 0.006-0.019 0.005s-0.051-0.007-0.104-0.012c-0.053-0.005-0.096-0.011-0.096-0.014s-0.078-0.011-0.173-0.019c-0.095-0.007-0.184-0.030-0.196-0.051s-0.038-0.029-0.055-0.018c-0.018 0.011-0.181-0.002-0.364-0.029s-0.447-0.056-0.588-0.064-0.292-0.024-0.336-0.035c-0.067-0.015-1.37-0.037-1.387-0.023zM8.282 1.128l-0.010 0.328 0.608-0.020v0.58h-0.592v0.674l-0.56-0.018-0.018-0.656h-0.608l0.018-0.56h0.608l-0.010-0.328-0.010-0.328h0.584l-0.010 0.328zM7.568 3.848c-0.024 0.013-0.144 0.020-0.267 0.015s-0.219-0.001-0.213 0.010c0.006 0.010-0.042 0.019-0.106 0.021s-0.161 0.010-0.214 0.019c-0.121 0.022-0.539 0.086-0.688 0.106-0.062 0.008-0.202 0.037-0.311 0.065s-0.214 0.041-0.232 0.029c-0.018-0.011-0.033-0.005-0.033 0.014s-0.035 0.028-0.080 0.020c-0.044-0.008-0.080-0.002-0.080 0.013 0 0.024-0.179 0.070-0.32 0.083-0.026 0.002-0.062 0.008-0.080 0.013s-0.043 0.007-0.056 0.005-0.024 0.010-0.024 0.027c0 0.017-0.022 0.023-0.048 0.012-0.035-0.013-0.043-0.004-0.029 0.033 0.011 0.028 0.006 0.052-0.010 0.052s-0.030 0.047-0.031 0.104c-0.002 0.186-0.022 0.376-0.041 0.376-0.032-0 0.006 0.715 0.046 0.864 0.012 0.044 0.026 0.13 0.032 0.192s0.014 0.116 0.018 0.12 0.011 0.022 0.015 0.040c0.004 0.018 0.012 0.043 0.016 0.056s0.006 0.035 0.004 0.048c-0.002 0.013 0.012 0.024 0.032 0.024s0.027 0.022 0.017 0.048c-0.010 0.026-0.003 0.048 0.016 0.048s0.027 0.021 0.017 0.046c-0.010 0.025 0.004 0.063 0.030 0.085s0.041 0.058 0.032 0.080c-0.009 0.022-0.006 0.045 0.007 0.051 0.026 0.012 0.141 0.245 0.154 0.311 0.005 0.025 0.026 0.056 0.048 0.069s0.043 0.049 0.048 0.079 0.038 0.075 0.074 0.1c0.037 0.026 0.066 0.075 0.066 0.111s0.014 0.055 0.032 0.044c0.029-0.018 0.043 0.020 0.024 0.068-0.004 0.011 0.025 0.033 0.066 0.048s0.065 0.042 0.054 0.060 0.002 0.041 0.030 0.052c0.028 0.011 0.050 0.038 0.050 0.062s0.017 0.053 0.037 0.066c0.025 0.016 0.028 0.008 0.010-0.022-0.023-0.038-0.019-0.038 0.027-0.001 0.030 0.024 0.045 0.059 0.033 0.077s-0.007 0.025 0.010 0.014c0.017-0.011 0.093 0.038 0.169 0.107s0.187 0.156 0.247 0.193c0.060 0.037 0.127 0.084 0.149 0.104s0.059 0.041 0.083 0.046c0.024 0.005 0.088 0.044 0.143 0.086 0.102 0.078 0.11 0.081 0.198 0.081 0.027 0 0.043 0.011 0.034 0.025s0.009 0.027 0.040 0.030c0.031 0.002 0.144 0.034 0.253 0.071s0.227 0.066 0.262 0.066 0.065 0.012 0.065 0.028c0 0.015 0.039 0.023 0.086 0.018s0.102-0 0.12 0.011c0.041 0.025 0.786 0.031 0.786 0.006 0-0.010 0.047-0.021 0.104-0.025s0.152-0.023 0.21-0.042c0.058-0.019 0.114-0.027 0.123-0.018s0.064-0.003 0.122-0.028c0.058-0.024 0.117-0.034 0.131-0.021s0.017 0.008 0.007-0.010c-0.010-0.018 0.087-0.075 0.219-0.127 0.131-0.052 0.237-0.107 0.237-0.121s0.013-0.019 0.029-0.009c0.016 0.010 0.038-0.006 0.049-0.035s0.029-0.044 0.039-0.034c0.010 0.010 0.048-0.009 0.084-0.042s0.081-0.052 0.101-0.041c0.019 0.011 0.025 0.008 0.012-0.006-0.029-0.032 0.166-0.181 0.205-0.157 0.015 0.010 0.024-0.002 0.019-0.025s0.009-0.039 0.031-0.034 0.040-0.014 0.040-0.040c0-0.026 0.012-0.048 0.027-0.048s0.066-0.036 0.114-0.080c0.047-0.044 0.075-0.080 0.061-0.080s0.011-0.032 0.057-0.072c0.045-0.040 0.092-0.097 0.103-0.128s0.044-0.056 0.073-0.056c0.033 0 0.046-0.017 0.034-0.048-0.010-0.026-0.005-0.048 0.010-0.048s0.038-0.029 0.049-0.064c0.011-0.035 0.031-0.058 0.044-0.050s0.042-0.035 0.064-0.096c0.022-0.061 0.054-0.11 0.072-0.11s0.025-0.012 0.016-0.026c-0.009-0.014 0.012-0.072 0.046-0.129s0.062-0.125 0.062-0.152c0-0.029 0.015-0.040 0.037-0.026 0.023 0.014 0.028 0.009 0.014-0.015-0.013-0.021 0.006-0.099 0.041-0.173s0.072-0.173 0.080-0.22c0.008-0.047 0.030-0.113 0.048-0.147s0.034-0.089 0.034-0.123c0.001-0.034 0.017-0.176 0.035-0.317 0.045-0.345 0.058-0.719 0.025-0.74-0.015-0.009-0.021-0.027-0.013-0.039 0.013-0.021-0.020-0.239-0.061-0.415-0.010-0.040-0.030-0.065-0.046-0.055s-0.038 0.003-0.049-0.015-0.034-0.025-0.050-0.015-0.030 0.007-0.030-0.007-0.040-0.028-0.088-0.030c-0.048-0.002-0.124-0.014-0.168-0.026s-0.123-0.030-0.176-0.039c-0.053-0.009-0.101-0.030-0.107-0.046s-0.024-0.021-0.041-0.010c-0.031 0.019-0.326-0.039-0.412-0.081-0.026-0.013-0.076-0.020-0.111-0.014s-0.081-0.005-0.103-0.024c-0.022-0.018-0.055-0.023-0.074-0.012s-0.082 0.005-0.141-0.014c-0.059-0.019-0.206-0.043-0.327-0.052-0.274-0.021-0.376-0.033-0.397-0.044-0.009-0.005-0.131-0.013-0.272-0.018-0.784-0.028-1.017-0.029-1.056-0.008zM10.644 8.041c-0.011 0.040-0.031 0.053-0.058 0.038-0.023-0.013-0.032-0.014-0.021-0 0.027 0.030-0.13 0.21-0.183 0.21-0.021 0-0.059 0.028-0.083 0.063s-0.066 0.067-0.092 0.072-0.067 0.035-0.090 0.066c-0.023 0.031-0.056 0.048-0.072 0.038s-0.030-0.003-0.030 0.015c0 0.045-0.241 0.166-0.273 0.137-0.014-0.012-0.016-0.007-0.005 0.013 0.024 0.043-0.128 0.118-0.177 0.088-0.019-0.012-0.025-0.007-0.014 0.012 0.023 0.038-0.065 0.082-0.11 0.054-0.016-0.010-0.029-0.004-0.029 0.013 0 0.034-0.193 0.11-0.218 0.085-0.009-0.009-0.035 0-0.059 0.020s-0.043 0.023-0.043 0.008c-0-0.015-0.011-0.011-0.024 0.009s-0.081 0.046-0.152 0.057-0.178 0.037-0.24 0.059c-0.074 0.026-0.294 0.037-0.656 0.032-0.679-0.009-0.688-0.009-0.688-0.039 0-0.022-0.071-0.033-0.232-0.036-0.031-0-0.056-0.014-0.056-0.030s-0.020-0.021-0.045-0.012c-0.025 0.010-0.079-0.001-0.12-0.024s-0.085-0.038-0.099-0.034c-0.013 0.004-0.024-0.008-0.024-0.027s-0.014-0.025-0.031-0.015c-0.017 0.010-0.057 0.004-0.088-0.014s-0.14-0.068-0.241-0.111-0.184-0.095-0.184-0.114c0-0.020-0.014-0.027-0.032-0.016s-0.032 0.005-0.032-0.014c0-0.019-0.021-0.034-0.047-0.034-0.063 0-0.232-0.104-0.228-0.141 0.002-0.016-0.022-0.033-0.052-0.037-0.081-0.012-0.312-0.203-0.312-0.258 0-0.026-0.012-0.040-0.028-0.030s-0.053-0.011-0.085-0.046c-0.055-0.060-0.131-0.090-0.101-0.039 0.008 0.013-0.001 0.060-0.019 0.104s-0.037 0.1-0.042 0.125c-0.005 0.025-0.021 0.053-0.035 0.064-0.029 0.021-0.047 0.11-0.045 0.219 0.001 0.040-0.009 0.072-0.022 0.072-0.022 0-0.029 0.051-0.041 0.312-0.003 0.057-0.014 0.104-0.026 0.104s-0.022 0.149-0.024 0.331l-0.003 0.331 0.155 0.042c0.085 0.023 0.155 0.056 0.155 0.074s0.008 0.023 0.019 0.013c0.010-0.010 0.047 0.009 0.081 0.044s0.074 0.055 0.088 0.046 0.054 0.009 0.088 0.039c0.034 0.030 0.082 0.059 0.106 0.064s0.095 0.062 0.159 0.126c0.063 0.064 0.095 0.104 0.070 0.089-0.031-0.018-0.038-0.015-0.022 0.011 0.013 0.021 0.035 0.030 0.050 0.021 0.033-0.020 0.16 0.135 0.16 0.196 0 0.024 0.022 0.044 0.050 0.044s0.043 0.012 0.034 0.026c-0.009 0.014 0.015 0.061 0.054 0.104 0.136 0.152 0.173 0.205 0.118 0.175-0.026-0.015-0.016 0.005 0.024 0.043 0.079 0.077 0.095 0.117 0.032 0.080-0.022-0.013-0.015 0.005 0.016 0.041s0.046 0.074 0.035 0.086c-0.012 0.012-0.006 0.021 0.013 0.021 0.030 0 0.13 0.245 0.148 0.361 0.003 0.021 0.017 0.057 0.031 0.079 0.024 0.039 0.051 0.146 0.068 0.279 0.005 0.035 0.011 0.064 0.015 0.064s0.012 0.043 0.018 0.096c0.007 0.053 0.025 0.173 0.042 0.268 0.034 0.196 0.025 0.966-0.013 1.128-0.014 0.059-0.027 0.122-0.029 0.14-0.019 0.165-0.061 0.336-0.083 0.336-0.015 0-0.019 0.022-0.009 0.048s0.006 0.048-0.009 0.048c-0.015 0-0.030 0.039-0.032 0.087s-0.020 0.092-0.038 0.098c-0.018 0.006-0.025 0.032-0.016 0.057s-0.001 0.046-0.023 0.046c-0.022 0-0.032 0.009-0.021 0.020 0.053 0.053-0.193 0.381-0.303 0.404-0.021 0.004-0.063 0.029-0.094 0.054-0.061 0.049-0.134 0.071-0.234 0.070-0.034-0-0.078 0.012-0.097 0.028-0.040 0.033-0.241 0.034-0.241 0.001 0-0.012-0.018-0.022-0.041-0.022-0.041 0-0.311-0.167-0.311-0.193 0-0.007 0.018-0.003 0.040 0.009s0.008-0.009-0.032-0.047c-0.040-0.038-0.074-0.080-0.076-0.093s-0.008-0.052-0.014-0.087c-0.005-0.035-0.018-0.099-0.027-0.142-0.022-0.098 0.042-0.323 0.108-0.38 0.042-0.036 0.042-0.039 0.001-0.022-0.026 0.011-0.014-0.009 0.028-0.046s0.064-0.066 0.050-0.066c-0.052 0 0.101-0.094 0.155-0.095 0.031-0.001 0.056-0.013 0.056-0.028s0.018-0.028 0.040-0.030 0.083-0.009 0.136-0.017c0.053-0.008 0.163 0.003 0.245 0.024 0.163 0.042 0.213-0.001 0.236-0.206 0.005-0.044 0.018-0.159 0.030-0.256s0.020-0.234 0.020-0.304c-0.001-0.158-0.025-0.576-0.034-0.576-0.011 0-0.042-0.158-0.046-0.232-0.002-0.040-0.012-0.072-0.023-0.072s-0.017-0.032-0.014-0.072c0.003-0.040-0.007-0.088-0.022-0.109s-0.023-0.053-0.018-0.074c0.009-0.037-0.304-0.184-0.454-0.214-0.044-0.009-0.087-0.026-0.096-0.040s-0.045-0.025-0.081-0.027c-0.035-0.001-0.1-0.013-0.144-0.025-0.117-0.032-0.96-0.040-0.96-0.009 0 0.014-0.047 0.023-0.104 0.019s-0.134 0.010-0.171 0.030c-0.061 0.033-0.224 0.063-0.375 0.069-0.035 0.001-0.049 0.017-0.035 0.039s0.009 0.028-0.014 0.014c-0.020-0.013-0.061 0-0.089 0.029s-0.072 0.044-0.097 0.034c-0.025-0.010-0.037-0.003-0.026 0.014s0.005 0.032-0.013 0.032-0.025 0.022-0.014 0.048c0.010 0.026 0.002 0.048-0.019 0.048s-0.030 0.012-0.020 0.027c0.020 0.032-0.057 0.43-0.079 0.409-0.018-0.018-0.027 0.176-0.030 0.604-0.002 0.317 0.004 0.389 0.047 0.576 0.012 0.053 0.030 0.143 0.039 0.201 0.011 0.073 0.027 0.096 0.053 0.076 0.082-0.065 0.366-0.114 0.417-0.072 0.027 0.022 0.062 0.032 0.078 0.022s0.047 0.003 0.069 0.029 0.052 0.039 0.068 0.030 0.028-0.002 0.028 0.016 0.019 0.034 0.043 0.034c0.054 0 0.167 0.121 0.139 0.149-0.011 0.011 0.001 0.036 0.027 0.056 0.119 0.087 0.056 0.691-0.072 0.691-0.025 0-0.037 0.013-0.027 0.029 0.023 0.037-0.14 0.168-0.178 0.144-0.016-0.010-0.028-0.005-0.028 0.011 0 0.034-0.056 0.043-0.272 0.044-0.168 0.001-0.485-0.105-0.473-0.158 0.004-0.017-0.018-0.029-0.048-0.027s-0.051-0.014-0.047-0.036-0.016-0.040-0.045-0.040c-0.029 0-0.044-0.009-0.033-0.020s-0.010-0.044-0.046-0.073c-0.036-0.029-0.068-0.091-0.071-0.137s-0.016-0.077-0.029-0.069-0.024-0-0.024-0.019c0-0.056-0.001-0.061-0.047-0.17-0.052-0.123-0.177-0.651-0.176-0.744 0-0.035-0.006-0.287-0.013-0.56s-0.001-0.511 0.014-0.529c0.015-0.018 0.026-0.062 0.026-0.096s0.007-0.113 0.017-0.175c0.010-0.062 0.026-0.167 0.036-0.235s0.038-0.165 0.065-0.216c0.026-0.051 0.041-0.093 0.032-0.093-0.028 0 0.113-0.333 0.169-0.398 0.029-0.034 0.036-0.051 0.014-0.038-0.027 0.016-0.033 0.007-0.021-0.026 0.010-0.027 0.032-0.042 0.048-0.032s0.029-0.005 0.029-0.032 0.015-0.050 0.034-0.050c0.019 0 0.025-0.015 0.013-0.034s0.006-0.058 0.038-0.088c0.032-0.030 0.063-0.073 0.068-0.097 0.015-0.071 0.144-0.228 0.172-0.21 0.015 0.009 0.027-0.013 0.027-0.049s0.012-0.066 0.026-0.066c0.014 0 0.108-0.077 0.207-0.171 0.171-0.161 0.582-0.4 0.621-0.361 0.063 0.063 0.133-0.054 0.135-0.228 0.004-0.341 0.023-0.663 0.048-0.808 0.013-0.079 0.024-0.17 0.023-0.201s0.010-0.050 0.023-0.042c0.013 0.008 0.024-0.020 0.024-0.063 0-0.094 0.009-0.094-0.156-0.008-0.074 0.039-0.155 0.074-0.18 0.078s-0.058 0.030-0.074 0.058c-0.015 0.027-0.043 0.050-0.062 0.050s-0.077 0.036-0.129 0.080-0.115 0.080-0.14 0.080c-0.025 0-0.085 0.041-0.134 0.091s-0.13 0.118-0.182 0.151c-0.108 0.069-0.181 0.131-0.408 0.341-0.090 0.083-0.175 0.144-0.189 0.135s-0.036 0.001-0.049 0.022c-0.016 0.025-0.009 0.029 0.019 0.011 0.023-0.014-0.034 0.055-0.128 0.153s-0.186 0.177-0.204 0.173c-0.019-0.004-0.036 0.008-0.038 0.026-0.010 0.075-0.057 0.144-0.098 0.144-0.025 0-0.041 0.018-0.037 0.040s-0.010 0.036-0.032 0.032c-0.022-0.004-0.036 0.010-0.032 0.032s-0.014 0.035-0.040 0.029c-0.026-0.006-0.038-0-0.025 0.012 0.024 0.024-0.083 0.18-0.12 0.174-0.012-0.002-0.050 0.050-0.085 0.115s-0.084 0.139-0.109 0.164c-0.025 0.025-0.045 0.059-0.045 0.077s-0.015 0.022-0.033 0.011c-0.018-0.011-0.029-0.008-0.025 0.006 0.013 0.046-0.076 0.189-0.206 0.333-0.031 0.034-0.056 0.082-0.056 0.106s-0.022 0.053-0.048 0.063c-0.026 0.010-0.048 0.040-0.048 0.066s-0.036 0.101-0.080 0.165-0.080 0.138-0.080 0.163-0.014 0.037-0.032 0.026c-0.027-0.017-0.048 0.060-0.024 0.090 0.004 0.006-0.017 0.035-0.048 0.066s-0.056 0.084-0.056 0.118c0 0.034-0.011 0.062-0.025 0.062-0.023 0-0.094 0.154-0.089 0.193 0.001 0.010-0.023 0.056-0.055 0.104s-0.049 0.087-0.039 0.087-0.015 0.061-0.054 0.136c-0.039 0.075-0.068 0.148-0.064 0.163s-0.007 0.045-0.025 0.067-0.023 0.049-0.012 0.061c0.012 0.012 0.007 0.021-0.011 0.021s-0.033 0.018-0.035 0.040c-0.006 0.082-0.039 0.196-0.063 0.214-0.023 0.017-0.029 0.043-0.048 0.202-0.004 0.031-0.019 0.056-0.034 0.056s-0.018 0.014-0.007 0.032 0.007 0.032-0.010 0.032c-0.016 0-0.022 0.038-0.013 0.085s0.003 0.077-0.012 0.067c-0.016-0.010-0.031 0.013-0.034 0.051-0.006 0.087-0.063 0.357-0.075 0.357-0.003 0-0.010 0.058-0.016 0.128s-0.026 0.219-0.044 0.329c-0.018 0.111-0.027 0.219-0.020 0.24s0.019 0.113 0.027 0.204c0.008 0.099 0.041 0.204 0.082 0.261 0.037 0.052 0.068 0.111 0.068 0.13s0.011 0.035 0.024 0.035c0.013 0 0.039 0.031 0.056 0.070s0.060 0.073 0.096 0.078c0.035 0.005 0.095 0.047 0.132 0.095s0.083 0.076 0.102 0.065 0.042-0.006 0.053 0.012c0.011 0.018 0.055 0.033 0.098 0.033s0.078 0.011 0.078 0.024c0 0.018 13.437 0.016 13.736-0.002 0.031-0.002 0.056-0.015 0.056-0.028s0.011-0.023 0.024-0.021c0.069 0.011 0.138-0.007 0.122-0.032-0.010-0.016 0.005-0.037 0.032-0.048 0.031-0.012 0.041-0.006 0.028 0.016-0.015 0.024 0.001 0.023 0.047-0.002 0.038-0.020 0.061-0.050 0.050-0.066s0.039-0.070 0.11-0.118c0.12-0.083 0.212-0.197 0.123-0.152-0.022 0.011-0.015-0 0.016-0.026s0.048-0.053 0.039-0.062 0.005-0.034 0.031-0.055c0.026-0.021 0.039-0.059 0.029-0.085s-0.004-0.046 0.011-0.046c0.034 0 0.042-0.068 0.041-0.336-0.001-0.288-0.012-0.4-0.040-0.4-0.014 0-0.018-0.039-0.009-0.087s0.002-0.095-0.016-0.106c-0.017-0.011-0.035-0.080-0.039-0.153s-0.020-0.134-0.035-0.134c-0.015-0-0.021-0.037-0.012-0.081s0.002-0.089-0.014-0.099-0.022-0.038-0.013-0.062c0.009-0.024 0.003-0.052-0.014-0.063s-0.023-0.033-0.013-0.049c0.010-0.016 0.006-0.030-0.009-0.030-0.029 0-0.122-0.306-0.115-0.378 0.002-0.023-0.004-0.034-0.014-0.024-0.018 0.018-0.172-0.379-0.176-0.454-0.001-0.022-0.012-0.040-0.025-0.040-0.025 0-0.075-0.189-0.064-0.24 0.004-0.018-0.004-0.021-0.018-0.007-0.030 0.030-0.116-0.163-0.091-0.204 0.010-0.016 0.003-0.029-0.015-0.029-0.040 0-0.143-0.19-0.118-0.216 0.010-0.010-0.004-0.034-0.031-0.054s-0.053-0.057-0.057-0.083c-0.004-0.026-0.054-0.111-0.111-0.189s-0.096-0.162-0.087-0.186 0.002-0.035-0.015-0.024c-0.017 0.011-0.032-0.001-0.032-0.025s-0.029-0.071-0.064-0.103c-0.035-0.032-0.058-0.064-0.051-0.071s-0.021-0.050-0.063-0.095-0.069-0.094-0.060-0.108c0.009-0.014-0.009-0.041-0.041-0.059s-0.044-0.033-0.028-0.034c0.016-0.001-0.006-0.035-0.048-0.075s-0.098-0.102-0.125-0.136c-0.026-0.034-0.102-0.128-0.168-0.208s-0.109-0.159-0.096-0.173 0.008-0.017-0.011-0.006c-0.039 0.022-0.179-0.121-0.149-0.151 0.010-0.010-0.008-0.019-0.040-0.019s-0.050-0.008-0.040-0.018c0.010-0.010-0.078-0.106-0.195-0.213-0.254-0.232-0.298-0.277-0.213-0.215 0.059 0.043 0.061 0.042 0.020-0.010-0.024-0.031-0.099-0.087-0.167-0.125s-0.115-0.081-0.106-0.096-0-0.027-0.020-0.027c-0.020 0-0.081-0.047-0.136-0.104s-0.087-0.085-0.073-0.061c0.017 0.029-0.002 0.025-0.058-0.012-0.046-0.030-0.074-0.070-0.063-0.088s0.006-0.024-0.012-0.013c-0.018 0.011-0.088-0.023-0.154-0.076s-0.173-0.128-0.236-0.166c-0.063-0.039-0.134-0.089-0.157-0.112s-0.062-0.041-0.086-0.041c-0.024 0-0.066-0.032-0.094-0.071-0.063-0.089-0.069-0.063-0.036 0.146 0.063 0.404 0.091 1.889 0.041 2.229-0.063 0.432-0.084 0.706-0.054 0.688 0.014-0.009 0.045 0.003 0.069 0.027s0.063 0.036 0.087 0.028c0.025-0.008 0.035-0 0.023 0.019s0.012 0.044 0.051 0.057c0.090 0.029 0.25 0.177 0.229 0.212-0.009 0.014 0.006 0.035 0.034 0.045s0.043 0.031 0.034 0.044 0.007 0.034 0.034 0.044 0.041 0.034 0.030 0.051c-0.011 0.018-0.006 0.032 0.011 0.032s0.041 0.047 0.054 0.104c0.012 0.057 0.038 0.123 0.057 0.147 0.045 0.056 0.057 0.489 0.015 0.541-0.018 0.022-0.025 0.060-0.015 0.085s0.008 0.055-0.004 0.067c-0.012 0.012-0.023 0.031-0.024 0.043-0.010 0.112-0.065 0.24-0.136 0.311-0.047 0.047-0.086 0.097-0.086 0.11s-0.047 0.072-0.104 0.13c-0.057 0.059-0.104 0.096-0.104 0.083s-0.032 0.006-0.070 0.042c-0.062 0.058-0.102 0.072-0.174 0.063-0.011-0.002-0.031 0.014-0.044 0.035s-0.073 0.041-0.133 0.045c-0.061 0.004-0.125 0.017-0.143 0.028s-0.089 0.013-0.158 0.004c-0.069-0.009-0.158-0.016-0.199-0.015s-0.066-0.011-0.056-0.027-0.013-0.021-0.051-0.011c-0.047 0.012-0.062 0.006-0.046-0.019 0.015-0.024-0.004-0.037-0.053-0.037-0.042 0-0.090-0.015-0.109-0.033s-0.082-0.060-0.142-0.093c-0.060-0.033-0.105-0.077-0.1-0.097s-0.006-0.028-0.024-0.017c-0.018 0.011-0.049-0.017-0.070-0.062s-0.050-0.082-0.066-0.082c-0.016 0-0.021-0.013-0.011-0.029s-0.004-0.037-0.032-0.048c-0.027-0.010-0.047-0.037-0.044-0.059 0.010-0.080-0.003-0.124-0.032-0.106-0.057 0.036-0.107-0.22-0.107-0.559-0.001-0.232 0.027-0.332 0.179-0.636 0.057-0.115 0.281-0.358 0.311-0.339 0.015 0.009 0.042-0.009 0.060-0.040s0.034-0.042 0.034-0.025 0.013 0.013 0.028-0.010c0.015-0.023 0.082-0.061 0.15-0.084 0.129-0.045 0.197-0.164 0.213-0.376 0.004-0.052 0.016-0.1 0.027-0.106s0.017-0.078 0.013-0.158c-0.003-0.081 0.003-0.152 0.015-0.159 0.023-0.014 0.015-1.401-0.010-1.601-0.024-0.192-0.081-0.719-0.095-0.864-0.009-0.103-0.030-0.137-0.104-0.176-0.051-0.026-0.1-0.057-0.109-0.067-0.035-0.042-0.124-0.014-0.14 0.044zM4.48 10.41c0 0.016-0.022 0.020-0.050 0.010-0.032-0.012-0.042-0.006-0.028 0.017 0.013 0.021 0.005 0.030-0.022 0.021-0.024-0.008-0.073 0.012-0.108 0.045s-0.097 0.068-0.137 0.078c-0.040 0.010-0.073 0.037-0.073 0.060s-0.018 0.049-0.040 0.057c-0.022 0.009 0.046 0.008 0.152-0.002 0.507-0.045 1.011-0.032 1.288 0.034 0.040 0.009 0.072 0.004 0.072-0.013s-0.022-0.030-0.050-0.030c-0.027 0-0.041-0.014-0.030-0.032s-0.007-0.032-0.039-0.032c-0.032 0-0.079-0.028-0.104-0.062s-0.057-0.055-0.071-0.046-0.026 0.001-0.026-0.018c0-0.019-0.033-0.034-0.074-0.034s-0.091-0.017-0.112-0.038c-0.045-0.045-0.55-0.060-0.55-0.016zM11.358 12.173c-0.008 0.008-0.085 0.018-0.172 0.023-0.175 0.011-0.37 0.162-0.37 0.287 0 0.036-0.011 0.058-0.024 0.050-0.037-0.023-0.017 0.33 0.022 0.376 0.019 0.022 0.024 0.050 0.013 0.062s-0.004 0.021 0.016 0.021c0.021 0 0.037 0.024 0.037 0.053s0.009 0.044 0.020 0.033c0.027-0.026 0.146 0.038 0.127 0.068-0.008 0.013 0.010 0.025 0.039 0.026s0.107 0.011 0.173 0.020c0.066 0.010 0.128 0.004 0.138-0.012s0.033-0.021 0.051-0.010 0.054-0.011 0.080-0.048c0.026-0.037 0.063-0.058 0.082-0.047s0.026 0.007 0.014-0.013c-0.012-0.019 0.001-0.056 0.027-0.083s0.048-0.070 0.048-0.097c0-0.027 0.012-0.056 0.026-0.064 0.101-0.062-0.086-0.538-0.228-0.583-0.038-0.012-0.078-0.034-0.088-0.050s-0.024-0.022-0.032-0.015z"></path>
</svg>
