<!-- Generated by IcoMoon.io -->
<svg version="1.1" xmlns="http://www.w3.org/2000/svg" width="16" height="20" viewBox="0 0 16 20">
<title>s_tab11</title>
<path fill="#555" d="M5.819 0.479c-0.036 0.007-0.051 0.024-0.042 0.048 0.009 0.022-0.002 0.037-0.026 0.037-0.052 0-0.078-0.043-0.036-0.060 0.018-0.007 0.008-0.014-0.022-0.015-0.061-0.002-0.122 0.055-0.093 0.087 0.010 0.011-0.007 0.012-0.040 0.002s-0.073-0.006-0.091 0.009c-0.042 0.035-0.174 0.045-0.219 0.017-0.024-0.015-0.029-0.012-0.017 0.008 0.010 0.017-0 0.037-0.024 0.046s-0.052 0.002-0.063-0.016c-0.026-0.041-0.079-0.010-0.062 0.035 0.015 0.039-0.084 0.075-0.106 0.039-0.008-0.013-0.038-0-0.068 0.027-0.040 0.038-0.065 0.044-0.1 0.025-0.037-0.020-0.044-0.017-0.032 0.014 0.009 0.024 0 0.039-0.024 0.039-0.021 0-0.044 0.014-0.050 0.032-0.008 0.025-0.020 0.024-0.054-0.004-0.038-0.031-0.041-0.030-0.027 0.006 0.012 0.031 0.002 0.042-0.039 0.042-0.030 0-0.049 0.011-0.040 0.025s-0.013 0.032-0.049 0.041c-0.035 0.009-0.077 0.032-0.094 0.052-0.040 0.048-0.084 0.046-0.065-0.004 0.009-0.024 0.005-0.033-0.012-0.023-0.015 0.009-0.020 0.035-0.012 0.057 0.016 0.041-0.025 0.082-0.084 0.082-0.018 0-0.026-0.012-0.016-0.028 0.011-0.018-0.005-0.016-0.043 0.004-0.056 0.030-0.057 0.033-0.012 0.049 0.043 0.015 0.040 0.023-0.030 0.073-0.088 0.063-0.121 0.071-0.093 0.024 0.010-0.018-0.007-0.009-0.039 0.019-0.033 0.029-0.045 0.055-0.029 0.060 0.021 0.007 0.021 0.019-0.001 0.045-0.016 0.020-0.040 0.029-0.053 0.021s-0.022-0.005-0.020 0.007c0.008 0.048-0.005 0.070-0.024 0.040-0.016-0.025-0.033-0.018-0.070 0.025-0.049 0.057-0.049 0.057 0.001 0.020s0.050-0.038 0 0.043c-0.108 0.174-0.198 0.269-0.222 0.234-0.014-0.021-0.016-0.007-0.006 0.037 0.014 0.060 0.008 0.070-0.038 0.070-0.030 0-0.054 0.016-0.054 0.036s-0.014 0.042-0.032 0.048c-0.025 0.009-0.024 0.020 0.004 0.047 0.023 0.022 0.029 0.023 0.018 0.003-0.010-0.018-0.006-0.032 0.009-0.032s0.027-0.017 0.027-0.038c0-0.021 0.013-0.038 0.028-0.038s-0.004 0.055-0.042 0.122c-0.087 0.151-0.099 0.164-0.077 0.083 0.017-0.061 0.015-0.062-0.022-0.015-0.023 0.029-0.033 0.073-0.024 0.109 0.010 0.038 0.004 0.060-0.016 0.060-0.017 0-0.025 0.017-0.017 0.038s0.005 0.043-0.007 0.051-0.030 0.051-0.041 0.097c-0.011 0.046-0.023 0.097-0.026 0.114-0.010 0.044-0.064 0.219-0.082 0.264-0.008 0.021-0.013 0.052-0.010 0.068s-0.009 0.038-0.026 0.049c-0.020 0.013-0.023 0.008-0.010-0.015s0.011-0.027-0.009-0.015c-0.039 0.024-0.038 0.084 0.002 0.101 0.026 0.010 0.026 0.013 0 0.015-0.018 0.001-0.032 0.014-0.032 0.029s0.013 0.019 0.028 0.010c0.020-0.012 0.019-0.001-0.001 0.037-0.016 0.030-0.022 0.066-0.014 0.080s0.004 0.025-0.009 0.025-0.031-0.014-0.037-0.032c-0.007-0.018-0.011 0.026-0.010 0.096s0.007 0.108 0.012 0.083 0.022-0.045 0.036-0.045c0.015 0 0.019 0.019 0.008 0.045-0.010 0.025-0.017 0.075-0.015 0.112 0.002 0.039-0.013 0.074-0.035 0.082-0.021 0.008-0.039 0.033-0.039 0.056 0 0.025 0.012 0.034 0.032 0.023 0.026-0.014 0.026-0.011 0 0.016-0.018 0.019-0.032 0.047-0.032 0.061s0.011 0.010 0.025-0.012c0.017-0.027 0.023-0.003 0.019 0.081-0.003 0.065-0.014 0.114-0.025 0.107s-0.019 0.007-0.019 0.030c0 0.024 0.012 0.034 0.028 0.024 0.020-0.013 0.021-0.003 0.001 0.033-0.031 0.057-0.029 0.164 0.002 0.144 0.011-0.007 0.013-0.025 0.004-0.041-0.010-0.017-0.005-0.020 0.013-0.009 0.016 0.010 0.030 0.049 0.030 0.087 0 0.171 0.017 0.354 0.034 0.383 0.011 0.018 0.006 0.031-0.014 0.032-0.027 0-0.026 0.005 0.001 0.022 0.025 0.016 0.027 0.027 0.005 0.040s-0.022 0.027 0 0.054c0.022 0.026 0.022 0.036 0.001 0.036-0.016 0-0.029 0.012-0.029 0.026s0.017 0.026 0.038 0.026c0.046 0 0.052 0.093 0.006 0.111-0.026 0.010-0.026 0.013 0 0.015 0.018 0.001 0.032 0.014 0.032 0.029s-0.014 0.020-0.032 0.011c-0.018-0.009-0.014-0.001 0.007 0.018 0.061 0.053 0.103 0.22 0.074 0.295-0.021 0.056-0.018 0.062 0.020 0.047 0.024-0.009 0.037-0.010 0.028-0s-0.006 0.044 0.007 0.078c0.017 0.044 0.014 0.061-0.008 0.062s-0.020 0.007 0.004 0.023c0.020 0.013 0.029 0.041 0.019 0.065s-0.006 0.036 0.009 0.027c0.014-0.009 0.025 0.001 0.025 0.022s-0.014 0.044-0.032 0.051c-0.019 0.008-0.014 0.014 0.013 0.015 0.041 0.002 0.057 0.044 0.047 0.124-0.002 0.018 0.011 0.032 0.029 0.032 0.026 0 0.025 0.005-0.002 0.023s-0.029 0.039-0.008 0.096c0.021 0.058 0.028 0.063 0.031 0.022 0.003-0.034 0.017-0.017 0.041 0.050 0.025 0.068 0.029 0.109 0.011 0.127-0.014 0.014-0.026 0.038-0.026 0.053s0.012 0.010 0.026-0.012c0.035-0.053 0.075 0.009 0.076 0.116 0 0.046 0.022 0.096 0.053 0.122 0.029 0.025 0.045 0.056 0.037 0.070s-0.006 0.025 0.006 0.025c0.012 0 0.023 0.023 0.026 0.052 0.003 0.033-0.007 0.046-0.027 0.034-0.018-0.010-0.021-0.008-0.009 0.006s0.035 0.023 0.051 0.023c0.016 0 0.033 0.020 0.038 0.045s-0.003 0.045-0.018 0.045c-0.015 0-0.020 0.018-0.011 0.041 0.013 0.033 0.020 0.034 0.038 0.006s0.027-0.027 0.047 0.004c0.032 0.048 0.033 0.084 0.003 0.065-0.013-0.008-0.017 0.009-0.010 0.037s0.023 0.045 0.034 0.038c0.011-0.007 0.029 0.001 0.039 0.017 0.012 0.019 0.007 0.023-0.011 0.012s-0.030-0.002-0.030 0.022c0 0.022 0.022 0.040 0.050 0.040s0.058 0.013 0.068 0.030c0.013 0.020 0.004 0.025-0.025 0.013-0.036-0.014-0.039-0.008-0.016 0.034 0.015 0.028 0.037 0.048 0.049 0.044 0.027-0.008 0.151 0.132 0.17 0.192 0.008 0.025 0.026 0.045 0.040 0.045s0.017 0.013 0.007 0.029c-0.012 0.019-0.029 0.009-0.049-0.029-0.017-0.032-0.037-0.048-0.045-0.035s0.021 0.063 0.064 0.112 0.070 0.076 0.061 0.059c-0.009-0.017-0.006-0.037 0.007-0.045 0.030-0.018 0.106 0.096 0.106 0.159 0 0.058 0.114 0.171 0.151 0.148 0.031-0.019 0.143 0.084 0.118 0.109-0.009 0.009-0.033-0.005-0.053-0.033s-0.036-0.037-0.036-0.021c0 0.042 0.132 0.139 0.169 0.125 0.017-0.007 0.093 0.033 0.168 0.089s0.168 0.115 0.207 0.132c0.039 0.017 0.070 0.040 0.070 0.051s0.017 0.020 0.038 0.020 0.038 0.011 0.038 0.025c0 0.014 0.019 0.017 0.043 0.008 0.033-0.013 0.039-0.006 0.025 0.029-0.015 0.038-0.007 0.043 0.045 0.030 0.034-0.009 0.070-0.004 0.079 0.010s-0.005 0.027-0.030 0.028c-0.028 0.001-0.034 0.007-0.013 0.015 0.018 0.007 0.049-0 0.069-0.017 0.028-0.023 0.047-0.018 0.089 0.023 0.029 0.029 0.053 0.041 0.053 0.027s0.012-0.026 0.027-0.026c0.015 0 0.020 0.011 0.012 0.024-0.022 0.035 0.037 0.063 0.068 0.032s0.104-0.011 0.084 0.022c-0.007 0.012 0 0.029 0.017 0.040 0.018 0.011 0.023 0.007 0.013-0.009-0.009-0.015-0.006-0.034 0.007-0.043 0.036-0.022 0.162 0.033 0.143 0.062-0.023 0.037 0.047 0.032 0.088-0.006 0.028-0.026 0.031-0.025 0.014 0.006-0.015 0.029-0.013 0.031 0.010 0.010 0.034-0.031 0.156-0.017 0.156 0.018 0 0.012 0.012 0.023 0.027 0.023s0.019-0.012 0.010-0.028c-0.022-0.035 0.096-0.021 0.122 0.015 0.012 0.016 0.019 0.013 0.019-0.006 0-0.018 0.033-0.032 0.077-0.032s0.077 0.014 0.077 0.032c0 0.021 0.009 0.019 0.025-0.006s0.025-0.028 0.025-0.006c0 0.018 0.013 0.032 0.027 0.032s0.020-0.012 0.011-0.026c-0.009-0.014 0.008-0.026 0.037-0.026s0.053 0.014 0.053 0.032c0 0.022 0.006 0.023 0.019 0.004 0.030-0.044 0.269-0.082 0.335-0.053 0.044 0.020 0.064 0.015 0.090-0.021 0.021-0.029 0.046-0.039 0.067-0.026 0.022 0.014 0.027 0.011 0.015-0.009-0.010-0.016-0.007-0.030 0.007-0.030s0.031 0.014 0.038 0.032c0.008 0.020 0.014 0.017 0.015-0.010 0.002-0.045 0.13-0.084 0.13-0.039 0 0.015 0.016 0.005 0.036-0.023s0.046-0.050 0.058-0.051c0.012-0.001 0.049-0.016 0.082-0.035 0.036-0.020 0.054-0.022 0.043-0.006-0.028 0.045 0.007 0.032 0.062-0.023 0.028-0.028 0.074-0.051 0.102-0.051s0.051-0.012 0.051-0.026c0-0.014 0.011-0.023 0.024-0.019s0.043-0.017 0.066-0.045c0.029-0.036 0.046-0.042 0.055-0.019 0.018 0.042 0.062 0.041 0.046-0.001-0.007-0.018 0.022-0.066 0.065-0.107s0.077-0.068 0.077-0.061 0.053-0.038 0.118-0.1c0.074-0.071 0.125-0.103 0.136-0.085s0.044 0.001 0.091-0.049c0.041-0.042 0.065-0.077 0.055-0.077s0.013-0.030 0.053-0.066c0.040-0.036 0.057-0.059 0.040-0.050s-0.032 0.004-0.032-0.011 0.016-0.027 0.036-0.027c0.020 0 0.034-0.020 0.032-0.045-0.002-0.026 0.014-0.045 0.039-0.045 0.024-0 0.052-0.010 0.064-0.021s0.009-0.017-0.005-0.012c-0.014 0.005-0.028-0-0.032-0.011-0.017-0.050-0.002-0.070 0.053-0.070 0.043 0 0.071-0.025 0.102-0.090s0.034-0.090 0.011-0.090c-0.024-0-0.023-0.006 0.002-0.022 0.018-0.012 0.031-0.032 0.028-0.044-0.011-0.044 0.060-0.159 0.115-0.185 0.030-0.015 0.040-0.027 0.022-0.028-0.026-0.001-0.026-0.014-0.004-0.056 0.024-0.044 0.034-0.048 0.054-0.019 0.020 0.028 0.022 0.026 0.011-0.009-0.008-0.024-0.002-0.051 0.012-0.060s0.020-0.032 0.013-0.052c-0.020-0.051 0.074-0.256 0.126-0.276 0.034-0.013 0.037-0.025 0.015-0.052-0.036-0.044-0.002-0.139 0.072-0.201 0.029-0.025 0.054-0.059 0.055-0.077 0.004-0.073 0.022-0.13 0.047-0.155 0.018-0.018 0.013-0.038-0.017-0.062-0.032-0.026-0.035-0.039-0.012-0.049 0.018-0.007 0.026-0.024 0.018-0.037s0.003-0.030 0.025-0.039c0.022-0.008 0.034-0.025 0.027-0.036s-0.001-0.028 0.013-0.037 0.026-0.030 0.026-0.047c-0-0.019-0.011-0.016-0.027 0.008-0.020 0.028-0.023 0.015-0.010-0.051 0.026-0.144 0.040-0.181 0.064-0.166 0.012 0.007 0.030 0 0.041-0.016 0.012-0.019 0.007-0.023-0.011-0.012s-0.030-0.001-0.030-0.034c0-0.029 0.010-0.053 0.023-0.053s0.029-0.017 0.037-0.037c0.010-0.026 0.002-0.032-0.027-0.021-0.033 0.013-0.037 0.006-0.022-0.033 0.011-0.027 0.026-0.092 0.033-0.145s0.024-0.089 0.036-0.082 0.022 0.003 0.022-0.011c0-0.014-0.013-0.029-0.030-0.035-0.022-0.007-0.022-0.023 0.002-0.060 0.025-0.040 0.029-0.041 0.018-0.005-0.008 0.025-0.003 0.045 0.009 0.045s0.021-0.039 0.018-0.087c-0.003-0.048-0.014-0.082-0.024-0.075s-0.019-0.007-0.019-0.030c0-0.025 0.012-0.034 0.030-0.023 0.020 0.013 0.025 0.001 0.015-0.037-0.008-0.030-0.005-0.049 0.007-0.042 0.042 0.026 0.058-0.098 0.017-0.128s-0.032-0.153 0.010-0.127c0.011 0.007 0.029-0.001 0.039-0.017 0.012-0.019 0.007-0.023-0.011-0.012-0.052 0.032-0.064-0.061-0.014-0.115 0.039-0.043 0.041-0.055 0.011-0.074s-0.031-0.032-0-0.090c0.022-0.041 0.027-0.074 0.012-0.085-0.032-0.023-0.038-0.107-0.009-0.107 0.013 0 0.023-0.026 0.022-0.058-0-0.047-0.005-0.051-0.027-0.019-0.020 0.030-0.025 0.021-0.022-0.038 0.003-0.042-0.004-0.098-0.015-0.123s-0.007-0.075 0.009-0.11c0.017-0.038 0.019-0.057 0.003-0.048-0.027 0.016-0.030 0.003-0.036-0.128-0.002-0.042-0.013-0.091-0.024-0.109s-0.010-0.032 0.003-0.032c0.013 0 0.022-0.034 0.021-0.075s-0.013-0.073-0.025-0.070c-0.012 0.002-0.028-0.012-0.035-0.031-0.008-0.022-0.002-0.029 0.016-0.018 0.016 0.010 0.029 0.002 0.029-0.019s-0.019-0.044-0.041-0.053c-0.026-0.010-0.036-0.035-0.028-0.066 0.007-0.027-0-0.055-0.016-0.062s-0.010-0.013 0.013-0.014c0.052-0.002 0.036-0.087-0.026-0.136-0.038-0.029-0.038-0.028-0.006 0.013 0.020 0.025 0.028 0.053 0.019 0.062-0.029 0.029-0.051-0.016-0.053-0.107-0.001-0.049-0.010-0.089-0.020-0.089s-0.017-0.040-0.015-0.090-0.006-0.098-0.017-0.109c-0.011-0.010-0.014 0.007-0.007 0.039 0.019 0.078-0.017 0.073-0.053-0.006-0.016-0.035-0.019-0.064-0.007-0.064s0.016-0.024 0.009-0.053c-0.010-0.039-0.019-0.045-0.035-0.020s-0.025 0.023-0.039-0.013c-0.010-0.026-0.005-0.054 0.010-0.064 0.018-0.011 0.020-0.031 0.004-0.055-0.020-0.031-0.024-0.029-0.024 0.010s-0.007 0.042-0.039 0.016c-0.042-0.035-0.053-0.089-0.013-0.064 0.014 0.009 0.019-0.001 0.010-0.024s-0.024-0.034-0.035-0.027-0.027-0.006-0.036-0.028c-0.022-0.059-0.019-0.067 0.017-0.046 0.020 0.012 0.018 0.001-0.006-0.030-0.057-0.076-0.061-0.079-0.044-0.031 0.009 0.025 0.005 0.045-0.010 0.045-0.035 0-0.075-0.111-0.046-0.13 0.012-0.008 0.004-0.037-0.018-0.064s-0.033-0.036-0.025-0.019c0.027 0.054-0.029 0.060-0.076 0.008-0.025-0.028-0.033-0.051-0.018-0.051s0.033 0.014 0.040 0.032c0.008 0.021 0.014 0.018 0.015-0.008 0.002-0.045-0.109-0.16-0.132-0.137-0.019 0.019-0.137-0.097-0.127-0.126 0.004-0.012-0.016-0.027-0.044-0.035s-0.058-0.035-0.067-0.062-0.026-0.042-0.039-0.034c-0.013 0.008-0.050-0.012-0.083-0.044s-0.090-0.075-0.127-0.095c-0.037-0.020-0.062-0.045-0.056-0.056s-0.001-0.028-0.017-0.038c-0.016-0.010-0.039-0.002-0.051 0.017-0.017 0.026-0.022 0.022-0.023-0.020-0-0.056-0.065-0.101-0.089-0.062-0.022 0.036-0.116-0.001-0.118-0.047-0.001-0.024-0.007-0.029-0.014-0.011-0.014 0.034-0.086 0.016-0.086-0.022 0-0.013 0.012-0.017 0.026-0.009s0.026 0.005 0.026-0.008c0-0.013-0.022-0.030-0.049-0.037-0.037-0.010-0.045-0.003-0.034 0.027 0.010 0.026 0.005 0.033-0.015 0.021-0.016-0.010-0.031-0.038-0.032-0.062-0.001-0.027-0.007-0.031-0.015-0.011-0.007 0.018-0.030 0.032-0.051 0.032s-0.031-0.010-0.023-0.023c0.008-0.013-0.009-0.017-0.038-0.009-0.035 0.009-0.079-0.010-0.133-0.060-0.044-0.041-0.067-0.056-0.050-0.033 0.026 0.035 0.020 0.039-0.044 0.029-0.055-0.008-0.071-0.022-0.061-0.053 0.008-0.026 0.005-0.032-0.008-0.015-0.026 0.033-0.144 0.043-0.124 0.011 0.008-0.013-0.026-0.018-0.076-0.011s-0.090 0.001-0.090-0.013-0.043-0.021-0.095-0.017c-0.133 0.010-0.253-0.020-0.243-0.061 0.006-0.027-0.001-0.027-0.037 0.002-0.029 0.023-0.038 0.025-0.026 0.004s0.004-0.032-0.022-0.032-0.034 0.012-0.022 0.032c0.013 0.022 0.005 0.021-0.024-0.003s-0.054-0.027-0.075-0.010c-0.018 0.014-0.101 0.026-0.186 0.026-0.131 0.001-0.14-0.002-0.064-0.018l0.090-0.020-0.082-0.003c-0.045-0.002-0.089 0.008-0.098 0.022s-0.045 0.026-0.080 0.026c-0.036 0-0.057-0.011-0.048-0.026s-0.014-0.025-0.056-0.024c-0.063 0.002-0.066 0.004-0.021 0.024 0.043 0.018 0.037 0.022-0.033 0.024-0.061 0.001-0.079-0.007-0.066-0.030 0.010-0.018-0.004-0.012-0.032 0.013-0.055 0.049-0.111 0.059-0.111 0.021 0-0.013 0.020-0.029 0.045-0.035 0.057-0.015-0.011-0.015-0.088 0zM3.192 2.554c-0.024 0.042-0.044 0.224-0.021 0.186 0.013-0.021 0.030-0.076 0.037-0.122 0.013-0.080 0.007-0.104-0.016-0.064zM3.162 5.069c0.007 0.049 0.014 0.112 0.014 0.14 0 0.039 0.006 0.042 0.022 0.016 0.020-0.032 0.009-0.092-0.035-0.207-0.008-0.021-0.009 0.002-0.001 0.051zM8.861 7.122c-0.011 0.031-0.037 0.061-0.057 0.066-0.028 0.007-0.027 0.003 0.002-0.018 0.021-0.015 0.028-0.027 0.016-0.028s-0.008-0.018 0.010-0.039c0.044-0.053 0.053-0.048 0.029 0.018zM4.403 7.676c0 0.030-0.012 0.026-0.051-0.016-0.028-0.030-0.051-0.069-0.051-0.086 0-0.019 0.020-0.012 0.051 0.016 0.028 0.025 0.051 0.064 0.051 0.086zM8.484 7.631c-0.050 0.055-0.097 0.065-0.081 0.017 0.006-0.018 0.027-0.033 0.047-0.033s0.033-0.016 0.029-0.034 0.006-0.025 0.021-0.015c0.019 0.012 0.013 0.033-0.016 0.066zM8.073 7.968c-0.027 0.043 0.017 0.055 0.057 0.016 0.035-0.035 0.035-0.039-0.002-0.039-0.022 0-0.047 0.010-0.055 0.023zM3.712 8.161c0 0.026-0.020 0.033-0.064 0.025-0.047-0.009-0.057-0.004-0.040 0.018s-0.024 0.049-0.147 0.097c-0.124 0.048-0.177 0.059-0.19 0.037s-0.019-0.020-0.019 0.005c-0 0.020-0.016 0.029-0.037 0.020-0.025-0.010-0.032-0.002-0.023 0.023s-0.002 0.037-0.034 0.037c-0.027 0-0.074 0.018-0.105 0.040s-0.068 0.033-0.082 0.024c-0.014-0.009-0.026-0.002-0.026 0.014 0 0.022-0.011 0.021-0.040-0.003-0.032-0.026-0.038-0.027-0.032-0.001 0.005 0.019-0.039 0.047-0.107 0.068-0.136 0.042-0.154 0.044-0.102 0.011 0.033-0.021 0.032-0.025-0.006-0.025-0.025-0-0.045 0.018-0.045 0.040s-0.012 0.033-0.026 0.024c-0.014-0.009-0.026-0.004-0.026 0.011s-0.012 0.027-0.027 0.027c-0.015 0-0.021-0.010-0.013-0.023 0.019-0.031-0.062-0.018-0.084 0.013-0.009 0.013-0.051 0.039-0.092 0.057-0.070 0.031-0.073 0.030-0.039-0.013 0.021-0.027 0.008-0.022-0.030 0.012-0.036 0.032-0.099 0.068-0.14 0.081s-0.097 0.031-0.123 0.042c-0.034 0.014-0.043 0.011-0.031-0.010 0.012-0.019 0.005-0.024-0.020-0.015-0.023 0.009-0.032 0.032-0.023 0.057 0.008 0.023 0.006 0.035-0.005 0.025s-0.037-0.001-0.058 0.020c-0.027 0.027-0.047 0.030-0.070 0.011-0.047-0.039-0.122-0.003-0.108 0.052 0.009 0.036-0.001 0.043-0.048 0.034s-0.057-0.002-0.044 0.032c0.013 0.033 0.006 0.039-0.028 0.026-0.028-0.011-0.038-0.007-0.027 0.010 0.022 0.036-0.069 0.119-0.155 0.141-0.050 0.012-0.065 0.030-0.056 0.063 0.007 0.025-0.004 0.052-0.023 0.060s-0.036 0.002-0.036-0.013-0.013-0.019-0.028-0.009c-0.018 0.011-0.019 0.026-0.003 0.042s0.008 0.042-0.024 0.075c-0.027 0.027-0.043 0.061-0.034 0.074s0.003 0.025-0.012 0.025c-0.015 0-0.027 0.014-0.028 0.032-0.001 0.039-0.088 0.147-0.119 0.147-0.039 0-0.091 0.107-0.065 0.133 0.045 0.045 0.004 0.126-0.056 0.111-0.030-0.007-0.040-0.007-0.022 0.001s0.032 0.026 0.032 0.040c0 0.014-0.014 0.016-0.032 0.006-0.025-0.015-0.025-0.011-0.001 0.019 0.036 0.044 0.003 0.116-0.041 0.089-0.021-0.013-0.024 0.011-0.013 0.084 0.014 0.089 0.010 0.101-0.031 0.098-0.035-0.003-0.050 0.016-0.055 0.073-0.006 0.062-0.002 0.069 0.022 0.038 0.024-0.032 0.026-0.030 0.013 0.011-0.009 0.027-0.028 0.1-0.042 0.163s-0.051 0.135-0.082 0.161c-0.031 0.026-0.042 0.048-0.025 0.048s0.032-0.013 0.032-0.029c0-0.016 0.006-0.024 0.013-0.016 0.020 0.020-0.016 0.099-0.039 0.085-0.011-0.007-0.026 0.010-0.033 0.037-0.010 0.036-0.003 0.045 0.027 0.034 0.031-0.012 0.036-0.004 0.020 0.034-0.011 0.027-0.026 0.084-0.033 0.126s-0.016 0.094-0.020 0.115-0.018 0.036-0.031 0.033c-0.013-0.003-0.024 0.012-0.024 0.032s0.010 0.037 0.021 0.037c0.036 0 0.024 0.071-0.029 0.164-0.045 0.080-0.045 0.087-0.006 0.073s0.039-0.011 0.009 0.027c-0.019 0.024-0.025 0.044-0.013 0.044s0.002 0.013-0.022 0.027c-0.052 0.030-0.060 0.1-0.013 0.101 0.020 0.001 0.015 0.014-0.013 0.035-0.047 0.036-0.063 0.081-0.019 0.054 0.014-0.009 0.020-0.001 0.014 0.018s-0.018 0.097-0.025 0.174c-0.041 0.423-0.078 0.632-0.122 0.686-0.025 0.031-0.025 0.036-0.001 0.021 0.018-0.011 0.032-0.008 0.032 0.006s-0.014 0.032-0.032 0.040c-0.026 0.012-0.026 0.018 0 0.030 0.046 0.022 0.039 0.081-0.013 0.11-0.036 0.020-0.038 0.032-0.013 0.058 0.037 0.038 0.043 0.083 0.008 0.061-0.025-0.015-0.017 0.069 0.011 0.114 0.008 0.013-0.007 0.047-0.035 0.075-0.042 0.042-0.044 0.053-0.013 0.065 0.047 0.018 0.036 0.099-0.016 0.122-0.031 0.014-0.030 0.018 0.006 0.019 0.025 0.001 0.045 0.015 0.045 0.030s-0.015 0.023-0.033 0.016c-0.021-0.008-0.035 0.010-0.038 0.048-0.003 0.034 0.006 0.061 0.020 0.061s0.025 0.012 0.025 0.027c0 0.015-0.012 0.020-0.026 0.011s-0.026-0.005-0.026 0.009c0 0.014 0.014 0.031 0.032 0.038 0.023 0.010 0.020 0.021-0.011 0.041-0.026 0.017-0.042 0.058-0.041 0.105 0.001 0.043 0.010 0.065 0.021 0.048s0.013-0.052 0.006-0.078c-0.007-0.027 0-0.048 0.016-0.048 0.039 0 0.038 0.314-0.002 0.353-0.024 0.024-0.021 0.031 0.014 0.031 0.025 0 0.038 0.012 0.029 0.026s-0.029 0.018-0.044 0.009c-0.016-0.010-0.020-0.005-0.010 0.011s0.034 0.022 0.055 0.014c0.021-0.008 0.038-0.003 0.038 0.012s-0.012 0.030-0.027 0.035c-0.032 0.011-0.004 0.098 0.031 0.098 0.013 0 0.016-0.014 0.006-0.032s-0.009-0.023 0.005-0.011c0.013 0.012 0.024 0.029 0.026 0.038 0.008 0.058 0.045 0.108 0.062 0.081 0.013-0.021 0.032-0.016 0.065 0.017 0.026 0.026 0.050 0.044 0.055 0.041 0.015-0.012 0.188 0.080 0.188 0.1 0 0.011 0.015 0.014 0.033 0.007s0.055 0.006 0.083 0.029c0.050 0.041 0.050 0.041-0.001 0.025-0.040-0.013-0.045-0.010-0.020 0.015 0.023 0.023 0.040 0.024 0.065 0.003 0.038-0.031 0.185 0.007 0.258 0.068 0.022 0.018 0.052 0.026 0.067 0.017 0.029-0.018 0.206 0.038 0.206 0.065 0 0.009-0.029 0.011-0.064 0.005s-0.064-0.023-0.064-0.036c0-0.013-0.012-0.017-0.027-0.007-0.039 0.024-0.019 0.036 0.125 0.074 0.082 0.022 0.137 0.025 0.153 0.009 0.036-0.036 0.236 0.023 0.236 0.070 0 0.021 0.012 0.037 0.027 0.037s0.021-0.010 0.013-0.023c-0.008-0.013 0.025-0.014 0.079-0.002 0.051 0.012 0.102 0.035 0.112 0.051 0.014 0.023 0.022 0.022 0.030-0.003 0.007-0.020 0.029-0.026 0.057-0.015 0.025 0.010 0.040 0.033 0.032 0.053-0.014 0.035 0.177 0.086 0.208 0.055 0.008-0.008-0.006-0.014-0.029-0.014s-0.043-0.010-0.043-0.022 0.051-0.010 0.114 0.004c0.063 0.014 0.109 0.035 0.102 0.046s0.001 0.028 0.018 0.038c0.019 0.012 0.023 0.007 0.012-0.011-0.030-0.049 0.049-0.034 0.122 0.023 0.047 0.037 0.063 0.041 0.053 0.015-0.017-0.045 0.060-0.042 0.088 0.003 0.011 0.017 0.032 0.020 0.053 0.007 0.019-0.012 0.071-0.011 0.115 0.003 0.098 0.030 0.219 0.052 0.278 0.051 0.025-0 0.057 0.022 0.071 0.049 0.032 0.059 0.076 0.065 0.076 0.011 0-0.021 0.017-0.038 0.038-0.038 0.046 0 0.051 0.043 0.007 0.057-0.017 0.006-0.005 0.017 0.028 0.026 0.045 0.012 0.056 0.007 0.044-0.023s-0.002-0.034 0.043-0.020c0.032 0.010 0.061 0.028 0.066 0.040s0.020 0.022 0.033 0.022 0.018-0.011 0.010-0.025c-0.008-0.013 0.016-0.008 0.055 0.012 0.048 0.025 0.076 0.028 0.087 0.009 0.020-0.033 0.126-0.004 0.126 0.034 0 0.017 0.014 0.015 0.038-0.005 0.045-0.037 0.119-0.016 0.109 0.031-0.004 0.019 0.023 0.036 0.064 0.041 0.051 0.006 0.070-0.003 0.070-0.033 0-0.032 0.010-0.035 0.048-0.015 0.026 0.014 0.057 0.017 0.068 0.007s0.013 0.002 0.004 0.027c-0.019 0.054 0.097 0.066 0.119 0.013 0.010-0.024 0.013-0.024 0.015-0.001 0.001 0.018 0.020 0.024 0.045 0.015 0.032-0.012 0.037-0.007 0.021 0.020-0.019 0.031-0.015 0.031 0.023-0s0.048-0.032 0.069 0c0.020 0.032 0.027 0.032 0.051-0.002 0.015-0.021 0.032-0.027 0.038-0.013s0.060 0.024 0.12 0.022c0.060-0.002 0.12 0.004 0.134 0.012 0.026 0.016 0.040 0.019 0.128 0.026 0.039 0.003 0.043 0.010 0.016 0.026-0.024 0.015-0.012 0.022 0.038 0.022 0.040-0 0.059-0.006 0.041-0.012s-0.026-0.021-0.018-0.034c0.008-0.012 0.031-0.016 0.051-0.008s0.033 0.022 0.027 0.032c-0.006 0.010 0.017 0.020 0.051 0.023s0.062-0.004 0.062-0.015c0-0.037 0.147-0.031 0.179 0.007 0.018 0.021 0.057 0.037 0.086 0.036 0.049-0.002 0.048-0.005-0.010-0.023-0.053-0.017-0.044-0.021 0.051-0.023 0.083-0.002 0.105 0.005 0.077 0.023-0.021 0.014-0.030 0.025-0.019 0.025s0.041-0.013 0.068-0.030c0.038-0.024 0.062-0.023 0.108 0l0.060 0.031-0.064-0.014c-0.057-0.013-0.059-0.011-0.017 0.015 0.034 0.021 0.055 0.022 0.076 0.001 0.016-0.016 0.081-0.027 0.145-0.026 0.089 0.001 0.104 0.007 0.065 0.024-0.037 0.016-0.015 0.023 0.085 0.024 0.085 0.001 0.13-0.008 0.12-0.024-0.009-0.014 0.012-0.026 0.048-0.026s0.069 0.014 0.075 0.032c0.009 0.026 0.022 0.026 0.066 0 0.065-0.038 0.183-0.042 0.183-0.006 0 0.014 0.024 0.026 0.053 0.026 0.032 0 0.046-0.011 0.035-0.028-0.012-0.020 0.014-0.023 0.091-0.010 0.088 0.015 0.105 0.012 0.089-0.016s-0.013-0.029 0.015-0.003c0.019 0.018 0.047 0.032 0.061 0.032s0.010-0.012-0.012-0.025c-0.030-0.019-0.022-0.025 0.033-0.025 0.042-0 0.065 0.010 0.056 0.025s-0.005 0.026 0.009 0.026 0.031-0.014 0.038-0.032c0.010-0.025 0.013-0.025 0.015 0.001s0.015 0.024 0.060-0.004c0.032-0.020 0.086-0.038 0.122-0.040s0.139-0.006 0.23-0.009c0.092-0.003 0.174-0.016 0.184-0.030s0.036-0.009 0.063 0.013c0.028 0.023 0.038 0.025 0.026 0.005-0.014-0.023 0.006-0.032 0.073-0.032 0.055 0 0.086 0.010 0.077 0.025s0.001 0.019 0.024 0.010c0.022-0.008 0.035-0.023 0.029-0.033-0.017-0.028 0.091-0.028 0.143-0 0.036 0.019 0.047 0.016 0.047-0.014 0-0.024 0.023-0.039 0.062-0.039 0.034 0 0.082-0.008 0.107-0.017 0.036-0.014 0.042-0.007 0.028 0.032-0.017 0.047-0.016 0.047 0.019 0.003 0.023-0.029 0.042-0.036 0.053-0.019 0.031 0.050 0.171 0.032 0.186-0.024 0.013-0.049 0.084-0.074 0.084-0.030 0 0.012 0.017 0.021 0.037 0.021s0.032-0.008 0.026-0.019c-0.006-0.010 0.005-0.025 0.026-0.033s0.044-0.003 0.053 0.010c0.008 0.013 0.035 0.024 0.058 0.024 0.038-0 0.038-0.004 0.005-0.027-0.028-0.020-0.016-0.022 0.048-0.010 0.060 0.012 0.081 0.009 0.069-0.011-0.011-0.017 0.003-0.028 0.033-0.028 0.028 0 0.056 0.014 0.063 0.032s0.014 0.013 0.015-0.014c0.001-0.025 0.014-0.039 0.028-0.030s0.018 0.029 0.009 0.044c-0.010 0.017-0.005 0.020 0.013 0.009 0.017-0.010 0.024-0.028 0.016-0.041-0.027-0.044 0.047-0.058 0.079-0.014 0.036 0.050 0.087 0.033 0.087-0.029 0-0.028 0.016-0.036 0.056-0.025 0.031 0.008 0.071 0.002 0.090-0.013 0.021-0.017 0.033-0.018 0.033-0.002 0 0.014 0.029 0.026 0.064 0.026s0.058-0.009 0.051-0.021c-0.007-0.011-0.002-0.027 0.012-0.036s0.031-0.003 0.040 0.011 0.028 0.026 0.042 0.026c0.014 0 0.018-0.012 0.010-0.026s-0.012-0.026-0.008-0.027c0.165-0.027 0.23-0.026 0.212 0.003-0.013 0.021-0.010 0.026 0.010 0.014 0.017-0.010 0.024-0.028 0.017-0.040s0.005-0.028 0.027-0.036c0.022-0.009 0.033-0.004 0.024 0.010s0.020 0.005 0.062-0.019c0.066-0.038 0.086-0.039 0.132-0.010 0.041 0.025 0.049 0.026 0.035 0.002-0.014-0.022-0.007-0.027 0.021-0.016 0.023 0.009 0.047 0.002 0.053-0.015 0.010-0.024 0.017-0.024 0.034 0 0.026 0.037 0.099 0 0.075-0.038-0.009-0.015 0.003-0.023 0.029-0.018s0.051 0.010 0.058 0.011-0.004 0.015-0.026 0.030c-0.034 0.024-0.034 0.026 0 0.017 0.021-0.006 0.039-0.027 0.039-0.047 0-0.023 0.022-0.033 0.058-0.028 0.033 0.005 0.057-0.006 0.057-0.023s0.007-0.025 0.015-0.016c0.009 0.008 0.045 0.004 0.081-0.010 0.048-0.018 0.071-0.016 0.087 0.008s0.021 0.021 0.021-0.012c0-0.037 0.008-0.040 0.048-0.015 0.061 0.038 0.142 0.009 0.122-0.043-0.012-0.032-0.006-0.034 0.038-0.010 0.040 0.022 0.061 0.021 0.083-0.003s0.022-0.027-0.003-0.014c-0.018 0.010-0.032 0.005-0.032-0.012 0-0.018 0.025-0.025 0.064-0.018 0.035 0.007 0.064 0.004 0.064-0.007 0-0.025 0.131-0.078 0.215-0.088 0.037-0.004 0.067 0.002 0.067 0.012 0 0.040 0.102-0.008 0.104-0.049 0.001-0.027 0.007-0.030 0.015-0.010 0.020 0.050 0.060 0.038 0.041-0.013-0.015-0.041-0.012-0.041 0.031-0.006 0.028 0.022 0.040 0.025 0.029 0.006-0.017-0.029 0.046-0.047 0.12-0.034 0.012 0.002 0.014-0.008 0.005-0.022-0.019-0.031 0.162-0.111 0.209-0.093 0.018 0.007 0.032 0.004 0.030-0.006-0.007-0.047 0.006-0.061 0.035-0.036 0.023 0.019 0.050 0.011 0.096-0.027 0.039-0.033 0.047-0.047 0.019-0.037-0.046 0.017 0.035-0.138 0.129-0.245 0.030-0.035 0.033-0.052 0.010-0.076-0.042-0.042-0.037-0.121 0.008-0.139 0.050-0.019 0.050-0.060 0-0.060-0.028 0-0.038-0.028-0.038-0.102 0-0.059 0.012-0.102 0.029-0.102 0.019 0 0.016-0.015-0.006-0.043-0.019-0.024-0.023-0.036-0.007-0.027 0.018 0.011 0.029-0.019 0.032-0.084 0.003-0.085-0.003-0.098-0.041-0.086-0.041 0.013-0.041 0.011 0.002-0.024 0.032-0.026 0.036-0.041 0.015-0.048-0.017-0.006-0.033-0.033-0.036-0.060s-0.012-0.094-0.021-0.147c-0.013-0.075-0.009-0.093 0.016-0.078s0.025 0.011 0.003-0.018c-0.039-0.049-0.056-0.251-0.023-0.265 0.014-0.006 0.012-0.012-0.006-0.013s-0.032-0.014-0.032-0.029c0-0.015 0.010-0.021 0.021-0.014s0.021-0.004 0.021-0.024c0-0.021-0.010-0.037-0.021-0.037s-0.021-0.012-0.021-0.027 0.010-0.021 0.023-0.013c0.013 0.008 0.017-0.009 0.010-0.037s-0.022-0.046-0.032-0.040c-0.010 0.006-0.018-0.005-0.018-0.025s0.008-0.031 0.017-0.026c0.009 0.006 0.017-0.006 0.017-0.026s-0.008-0.031-0.019-0.025c-0.022 0.014-0.057-0.066-0.037-0.086 0.007-0.007 0.013 0 0.013 0.016s0.011 0.030 0.025 0.030c0.015 0 0.016-0.022 0.002-0.058-0.012-0.032-0.033-0.056-0.045-0.053s-0.025-0.020-0.027-0.051c-0.003-0.044 0.001-0.048 0.020-0.017 0.015 0.023 0.024 0.026 0.024 0.008 0-0.017-0.011-0.037-0.024-0.046s-0.018-0.031-0.011-0.050c0.007-0.019 0.001-0.042-0.013-0.052-0.018-0.011-0.017-0.034 0.005-0.070 0.024-0.041 0.024-0.056 0.001-0.064-0.017-0.006-0.024-0.028-0.016-0.048s0.001-0.037-0.014-0.037-0.028-0.018-0.028-0.040c0-0.022 0.012-0.033 0.027-0.023 0.017 0.011 0.021-0.008 0.009-0.054-0.010-0.039-0.020-0.1-0.023-0.137-0.014-0.183-0.009-0.171-0.050-0.116s-0.044 0.001-0.003-0.063c0.015-0.025 0.013-0.030-0.007-0.018-0.016 0.010-0.030 0.009-0.032-0.002-0.012-0.12-0.019-0.156-0.037-0.198-0.015-0.035-0.012-0.044 0.009-0.030 0.020 0.012 0.030-0.004 0.030-0.049 0-0.037-0.010-0.061-0.023-0.053s-0.029-0.002-0.037-0.022c-0.008-0.020-0.002-0.041 0.013-0.046 0.037-0.012 0.001-0.123-0.037-0.115-0.016 0.003-0.031-0.019-0.033-0.049s-0.011-0.075-0.021-0.099c-0.009-0.024-0.003-0.060 0.013-0.080 0.024-0.029 0.021-0.033-0.012-0.020-0.023 0.009-0.042 0.004-0.042-0.012s0.012-0.028 0.027-0.028c0.015 0 0.009-0.018-0.013-0.040-0.044-0.044-0.055-0.1-0.015-0.075 0.014 0.009 0.026-0.002 0.026-0.023 0-0.023-0.015-0.033-0.035-0.026-0.049 0.019-0.104-0.137-0.065-0.184 0.016-0.019 0.019-0.048 0.007-0.067s-0.021-0.041-0.021-0.050c-0-0.009-0.011-0.027-0.024-0.038s-0.016-0.008-0.005 0.011c0.010 0.018 0.008 0.032-0.005 0.032s-0.037-0.030-0.054-0.067c-0.026-0.057-0.025-0.065 0.009-0.052 0.024 0.009 0.039 0.001 0.039-0.022 0-0.024-0.015-0.031-0.043-0.020-0.029 0.011-0.037 0.007-0.024-0.014 0.011-0.017 0.001-0.037-0.022-0.046-0.032-0.012-0.034-0.023-0.010-0.052s0.023-0.035-0.006-0.029c-0.026 0.006-0.034-0.013-0.028-0.066 0.006-0.059-0-0.070-0.033-0.058-0.045 0.017-0.102-0.094-0.080-0.153 0.007-0.018-0-0.041-0.016-0.051s-0.021-0.006-0.011 0.010c0.009 0.015 0.005 0.035-0.009 0.044-0.024 0.015-0.038-0.021-0.028-0.074 0.010-0.052-0.026-0.105-0.047-0.070-0.015 0.024-0.039 0.010-0.088-0.052-0.037-0.047-0.092-0.112-0.122-0.144s-0.057-0.079-0.060-0.102c-0.006-0.044-0.030-0.050-0.061-0.016-0.009 0.010-0.001 0.010 0.019-0.002 0.024-0.014 0.030-0.011 0.017 0.009-0.023 0.037-0.068 0.013-0.054-0.029 0.006-0.017-0.023-0.057-0.063-0.089l-0.073-0.058 0.015 0.058c0.014 0.055 0.013 0.055-0.030 0.013-0.025-0.025-0.058-0.045-0.075-0.045-0.018-0-0.015-0.011 0.008-0.028 0.031-0.022 0.027-0.025-0.019-0.015-0.032 0.007-0.058 0.001-0.058-0.013s-0.017-0.019-0.038-0.011c-0.021 0.008-0.038 0.004-0.038-0.008s-0.014-0.028-0.032-0.034 0.003-0.007 0.045-0.002c0.054 0.006 0.033-0.009-0.069-0.049-0.080-0.032-0.154-0.067-0.164-0.077s-0.037-0.018-0.059-0.017c-0.024 0.001-0.016 0.011 0.021 0.026 0.034 0.013 0.054 0.031 0.046 0.040-0.019 0.019-0.274-0.071-0.274-0.096 0-0.010-0.034-0.035-0.075-0.056-0.062-0.031-0.073-0.031-0.061-0.002 0.008 0.021-0.003 0.035-0.028 0.035-0.023 0-0.041-0.009-0.041-0.020s-0.024-0.022-0.054-0.024c-0.030-0.002-0.074-0.022-0.099-0.044s-0.062-0.034-0.084-0.025c-0.022 0.008-0.047 0.003-0.056-0.011s-0.033-0.020-0.054-0.012c-0.021 0.008-0.038 0.002-0.038-0.014s-0.022-0.028-0.050-0.028c-0.027 0-0.057-0.012-0.066-0.026s-0.026-0.020-0.038-0.012c-0.012 0.007-0.029 0.002-0.038-0.013s-0.028-0.019-0.042-0.011c-0.014 0.009-0.022-0.004-0.017-0.029s-0.006-0.050-0.024-0.056c-0.021-0.007-0.026 0.004-0.015 0.034s0.008 0.039-0.013 0.026c-0.016-0.010-0.030-0.038-0.030-0.062-0-0.032-0.006-0.035-0.021-0.010-0.011 0.018-0.040 0.026-0.063 0.017s-0.036-0.027-0.029-0.039-0.004-0.016-0.026-0.007c-0.025 0.010-0.040 0.001-0.040-0.024 0-0.055-0.049-0.080-0.085-0.044-0.023 0.023-0.019 0.026 0.015 0.013 0.026-0.010 0.045-0.005 0.045 0.011 0 0.040-0.042 0.035-0.115-0.012-0.065-0.043-0.195 0.019-0.229 0.108-0.007 0.019-0.031 0.034-0.052 0.034s-0.036 0.014-0.033 0.032c0.004 0.020-0.023 0.032-0.070 0.032-0.062 0-0.077 0.011-0.080 0.058-0.004 0.077-0.032 0.103-0.062 0.056-0.019-0.029-0.024-0.024-0.024 0.023s-0.012 0.058-0.048 0.048c-0.026-0.007-0.046 0-0.045 0.016s-0.007 0.031-0.020 0.033c-0.013 0.002-0.034 0.023-0.046 0.045s-0.034 0.034-0.048 0.026c-0.013-0.008-0.017-0.028-0.007-0.043 0.011-0.017 0.005-0.020-0.014-0.008-0.017 0.011-0.025 0.035-0.018 0.055 0.017 0.043-0.076 0.1-0.1 0.061-0.009-0.014-0.027-0.019-0.040-0.011s-0.019 0.023-0.013 0.034c0.006 0.010-0.010 0.032-0.037 0.049-0.041 0.026-0.047 0.024-0.036-0.014 0.008-0.029 0.003-0.027-0.015 0.008-0.045 0.083-0.281 0.199-0.281 0.137 0-0.016 0.019-0.021 0.045-0.011 0.034 0.013 0.038 0.010 0.015-0.013-0.036-0.036-0.085-0.011-0.085 0.044 0 0.025-0.014 0.034-0.040 0.024-0.022-0.008-0.033-0.005-0.026 0.007 0.015 0.024-0.337 0.14-0.508 0.169-0.070 0.012-0.106 0.007-0.121-0.017-0.016-0.026-0.022-0.023-0.022 0.010-0 0.027-0.014 0.039-0.036 0.030-0.020-0.008-0.043-0.001-0.053 0.014-0.022 0.035-0.065 0.035-0.065 0 0-0.015 0.013-0.019 0.030-0.009 0.018 0.011 0.023 0.007 0.011-0.011-0.023-0.038-0.092-0.039-0.092-0.001 0 0.017-0.027 0.024-0.063 0.017-0.035-0.007-0.058-0.003-0.051 0.008 0.030 0.049-0.138 0.060-0.173 0.011-0.012-0.017-0.036-0.014-0.070 0.006-0.065 0.040-0.161 0.041-0.2 0.002-0.022-0.022-0.039-0.022-0.069 0.003-0.031 0.026-0.039 0.026-0.039 0.001s-0.010-0.023-0.043 0.003c-0.024 0.019-0.036 0.023-0.027 0.009 0.010-0.016-0.024-0.028-0.089-0.031-0.058-0.002-0.114-0.019-0.125-0.037-0.017-0.027-0.031-0.027-0.072-0.001-0.070 0.043-0.119 0.043-0.082-0.001 0.021-0.025 0.012-0.034-0.040-0.039-0.037-0.003-0.074 0.005-0.083 0.019-0.009 0.015-0.040 0.010-0.078-0.012-0.119-0.068-0.132-0.071-0.155-0.036-0.018 0.028-0.023 0.028-0.023 0.002-0-0.022-0.018-0.028-0.052-0.017-0.055 0.017-0.072-0.025-0.019-0.047 0.018-0.007-0.004-0.007-0.048 0s-0.107-0.001-0.141-0.020c-0.033-0.018-0.077-0.030-0.096-0.026-0.022 0.005-0.030-0.007-0.021-0.031 0.022-0.058-0.011-0.073-0.052-0.023-0.034 0.042-0.036 0.042-0.023 0 0.008-0.024 0.001-0.052-0.015-0.062-0.018-0.011-0.021-0.006-0.008 0.016 0.016 0.026 0.004 0.029-0.050 0.015-0.075-0.019-0.148-0.077-0.126-0.099 0.007-0.007-0.008-0.012-0.033-0.009s-0.044-0.009-0.042-0.024c0.003-0.015-0.011-0.028-0.031-0.028s-0.029 0.011-0.021 0.023c0.008 0.013-0.020 0.006-0.062-0.016s-0.083-0.057-0.092-0.079c-0.008-0.022-0.024-0.038-0.035-0.036-0.053 0.009-0.084-0.006-0.084-0.042 0-0.022-0.017-0.046-0.038-0.054s-0.032-0.024-0.025-0.036c0.007-0.012-0-0.029-0.017-0.040-0.020-0.012-0.023-0.007-0.010 0.013 0.014 0.022 0.005 0.029-0.028 0.022-0.026-0.006-0.044-0.026-0.040-0.044 0.005-0.021-0.007-0.028-0.031-0.019-0.023 0.009-0.057-0.009-0.084-0.043-0.025-0.032-0.054-0.060-0.065-0.063s-0.042-0.028-0.070-0.056c-0.048-0.048-0.045-0.063 0.011-0.053 0.013 0.002 0.009-0.013-0.010-0.035-0.037-0.044-0.064-0.054-0.040-0.014 0.009 0.014 0.006 0.026-0.006 0.026-0.031 0-0.083-0.056-0.083-0.088 0-0.015 0.013-0.010 0.028 0.012 0.022 0.030 0.025 0.031 0.017 0.002-0.013-0.049-0.122-0.056-0.122-0.008zM1.035 9.788c-0.015 0.039-0.062 0.060-0.062 0.028 0-0.018 0.062-0.085 0.071-0.077 0.004 0.004-0 0.026-0.009 0.049zM0.385 12.095c-0.017 0.021-0.027 0.051-0.021 0.067s0.023-0.001 0.040-0.038c0.034-0.075 0.028-0.085-0.019-0.029zM0.358 12.243c-0 0.018-0.008 0.060-0.017 0.094-0.010 0.036-0.006 0.055 0.008 0.047 0.025-0.016 0.046-0.172 0.023-0.172-0.007 0-0.013 0.014-0.014 0.032zM7.668 15.486c-0.008 0.013 0.008 0.022 0.037 0.020s0.052-0.013 0.052-0.024c0-0.028-0.071-0.025-0.089 0.004z"></path>
</svg>
