<!-- Generated by IcoMoon.io -->
<svg version="1.1" xmlns="http://www.w3.org/2000/svg" width="20" height="20" viewBox="0 0 20 20">
<title>scales-of-justice</title>
<path d="M14.615 19.206v0.769h-9.231v-0.769c0-0.424 0.345-0.769 0.769-0.769h1.548c0.041-0.96 0.664-1.762 1.528-2.068v-9.019c-0.405-0.256-0.677-0.705-0.677-1.221h2.892c0 0.515-0.272 0.965-0.677 1.221v9.018c0.865 0.307 1.488 1.108 1.528 2.068h1.548c0.424 0.001 0.769 0.346 0.769 0.77zM20 12.282c-0.564 1.588-2.065 2.733-3.846 2.733s-3.282-1.146-3.846-2.733h0.888l2.598-6.887c0.112-0.3 0.607-0.3 0.72 0l2.598 6.887h0.888zM18.29 12.282l-2.136-5.661-2.136 5.662h4.272zM3.846 4.598c0.348 0 0.632-0.233 0.731-0.549 0.255-0.097 0.515-0.228 0.783-0.363 0.588-0.297 1.255-0.635 1.948-0.635 0.665 0 1.080 0.307 1.318 0.568-0.009 0.066-0.020 0.132-0.020 0.201 0 0.77 0.625 1.395 1.395 1.395s1.395-0.625 1.395-1.395c0-0.068-0.011-0.134-0.020-0.2 0.237-0.261 0.652-0.569 1.318-0.569 0.692 0 1.359 0.337 1.947 0.634 0.268 0.135 0.529 0.266 0.784 0.363 0.098 0.316 0.382 0.549 0.731 0.549 0.429 0 0.777-0.348 0.777-0.777s-0.348-0.777-0.777-0.777c-0.222 0-0.419 0.095-0.561 0.245-0.19-0.080-0.395-0.182-0.607-0.289-0.665-0.336-1.418-0.717-2.294-0.717-0.766 0-1.3 0.292-1.662 0.605-0.162-0.179-0.37-0.313-0.606-0.389 0.287-0.154 0.488-0.447 0.488-0.794 0-0.504-0.912-1.68-0.912-1.68s-0.912 1.176-0.912 1.68c0 0.348 0.202 0.64 0.488 0.794-0.236 0.075-0.444 0.21-0.606 0.389-0.362-0.314-0.896-0.605-1.662-0.605-0.876 0-1.63 0.381-2.295 0.717-0.212 0.108-0.416 0.21-0.606 0.289-0.142-0.148-0.339-0.245-0.561-0.245-0.429 0-0.777 0.348-0.777 0.777s0.348 0.778 0.777 0.778zM3.846 15.016c-1.781 0-3.282-1.146-3.846-2.733h0.888l2.598-6.887c0.112-0.3 0.607-0.3 0.72 0l2.598 6.887h0.888c-0.564 1.587-2.065 2.733-3.846 2.733zM5.982 12.282l-2.136-5.661-2.136 5.662h4.272z"></path>
</svg>
