<!-- Generated by IcoMoon.io -->
<svg version="1.1" xmlns="http://www.w3.org/2000/svg" width="20" height="20" viewBox="0 0 20 20">
<title>search</title>
<path d="M19.523 19.361l-5.611-5.835c1.431-1.435 2.318-3.414 2.318-5.596 0-4.373-3.557-7.93-7.93-7.93s-7.93 3.557-7.93 7.93 3.557 7.93 7.93 7.93c1.919 0 3.681-0.686 5.054-1.825l5.624 5.849c0.074 0.077 0.173 0.116 0.272 0.116 0.094 0 0.188-0.035 0.262-0.105 0.15-0.145 0.155-0.384 0.011-0.534zM8.301 15.104c-3.956 0-7.174-3.218-7.174-7.174s3.218-7.174 7.174-7.174 7.174 3.218 7.174 7.174-3.219 7.174-7.174 7.174z"></path>
</svg>
