<!-- Generated by IcoMoon.io -->
<svg version="1.1" xmlns="http://www.w3.org/2000/svg" width="20" height="20" viewBox="0 0 20 20">
<title>searcher</title>
<path d="M12.413 16.072c0.194-0.246 0.45-0.433 0.739-0.543-0.355-0.607-0.55-1.304-0.559-2.015-0.001-0.086 0.002-0.172 0.006-0.258l-1.056-0.421-0.935-0.788c-0.247-0.209-0.612-0.193-0.841 0.035l-1.3 1.293-1.304-1.293c-0.229-0.227-0.593-0.242-0.84-0.034l-0.935 0.788-3.993 1.592c-1.286 0.512-1.285 5.066-1.395 5.484h10.947c-0.161-0.23-0.264-0.499-0.298-0.786-0.054-0.458 0.073-0.909 0.359-1.271l1.406-1.783z"></path>
<path d="M16.66 17.539c-0 0-0 0-0 0-0.4-0-0.8-0.060-1.182-0.176-0.040 0.307-0.162 0.599-0.356 0.845l-1.343 1.703h3.154c-0.050-0.19-0.078-1.239-0.214-2.373-0.019 0-0.039 0.001-0.058 0.001z"></path>
<path d="M5.681 4.075c0.739 0.351 1.728 0.544 2.786 0.544s2.047-0.193 2.786-0.544c0.456-0.217 0.777-0.478 0.929-0.748-0.005-0.002-0.009-0.003-0.014-0.005-0.447-5.436-3.163-2.375-3.701-2.375s-3.253-3.060-3.701 2.375c-0.005 0.002-0.009 0.003-0.014 0.005 0.152 0.27 0.472 0.531 0.929 0.748z"></path>
<path d="M4.486 6.614c0.175 3.226 1.855 5.125 3.98 5.125s3.804-1.899 3.979-5.124c1.031-0.407 1.669-0.971 1.669-1.595 0-0.554-0.504-1.061-1.339-1.453-0.207 0.417-0.633 0.79-1.25 1.083-0.822 0.391-1.909 0.606-3.059 0.606s-2.237-0.215-3.059-0.606c-0.617-0.293-1.043-0.666-1.25-1.083-0.835 0.392-1.339 0.899-1.339 1.453 0 0.623 0.638 1.187 1.668 1.594z"></path>
<path d="M18.731 10.85c-1.444-1.139-3.545-0.891-4.684 0.553-0.981 1.244-0.933 2.976 0.023 4.16l-0.477 0.606c-0.229 0.042-0.443 0.163-0.599 0.36l-1.406 1.783c-0.338 0.428-0.265 1.050 0.164 1.388s1.050 0.265 1.388-0.164l1.406-1.783c0.155-0.197 0.223-0.434 0.211-0.666l0.477-0.605c1.374 0.653 3.069 0.297 4.051-0.947 1.139-1.444 0.891-3.545-0.553-4.684zM18.509 14.922c-0.801 1.016-2.28 1.191-3.296 0.389s-1.191-2.28-0.389-3.296c0.802-1.016 2.28-1.191 3.296-0.389s1.191 2.28 0.389 3.296z"></path>
</svg>
