<!-- Generated by IcoMoon.io -->
<svg version="1.1" xmlns="http://www.w3.org/2000/svg" width="20" height="20" viewBox="0 0 20 20">
<title>sedan-car-model</title>
<path d="M3.491 10.54c-0.833 0-1.509 0.676-1.509 1.509 0 0.064 0.005 0.128 0.013 0.19 0.094 0.744 0.727 1.319 1.496 1.319 0.79 0 1.437-0.607 1.503-1.38 0.003-0.042 0.006-0.085 0.006-0.129 0-0.833-0.675-1.509-1.509-1.509zM2.736 11.481l0.308 0.308c-0.024 0.041-0.043 0.085-0.055 0.133h-0.434c0.022-0.164 0.085-0.314 0.181-0.44zM2.553 12.182h0.437c0.012 0.046 0.031 0.091 0.055 0.131l-0.308 0.308c-0.096-0.125-0.16-0.275-0.183-0.439zM3.361 12.987c-0.163-0.023-0.312-0.087-0.438-0.182l0.307-0.307c0.040 0.024 0.085 0.041 0.131 0.053v0.436zM3.361 11.547c-0.047 0.013-0.092 0.031-0.133 0.056l-0.307-0.307c0.126-0.096 0.276-0.159 0.441-0.182v0.434zM3.622 11.113c0.164 0.023 0.315 0.087 0.441 0.182l-0.307 0.307c-0.041-0.024-0.086-0.043-0.133-0.056l-0-0.434zM3.622 12.986v-0.435c0.046-0.012 0.090-0.030 0.131-0.053l0.307 0.307c-0.126 0.095-0.274 0.158-0.438 0.181zM4.247 12.623l-0.309-0.31c0.024-0.041 0.044-0.084 0.056-0.131h0.434c-0.023 0.163-0.085 0.314-0.18 0.44zM3.994 11.921c-0.012-0.047-0.031-0.092-0.055-0.133l0.308-0.308c0.095 0.126 0.158 0.276 0.181 0.441h-0.434z"></path>
<path d="M16.022 10.54c-0.833 0-1.509 0.676-1.509 1.509 0 0.064 0.005 0.128 0.013 0.19 0.094 0.744 0.727 1.319 1.495 1.319 0.79 0 1.437-0.607 1.503-1.38 0.003-0.042 0.006-0.085 0.006-0.129 0-0.833-0.675-1.509-1.509-1.509zM15.267 11.481l0.307 0.308c-0.024 0.041-0.043 0.085-0.055 0.133h-0.434c0.022-0.164 0.085-0.314 0.181-0.44zM15.084 12.182h0.437c0.012 0.046 0.031 0.091 0.055 0.131l-0.308 0.308c-0.096-0.125-0.16-0.275-0.184-0.439zM15.892 12.987c-0.163-0.023-0.312-0.087-0.438-0.182l0.307-0.307c0.040 0.024 0.085 0.041 0.131 0.053v0.436zM15.892 11.547c-0.047 0.013-0.092 0.031-0.133 0.056l-0.307-0.307c0.126-0.096 0.276-0.159 0.441-0.182v0.434zM16.153 11.113c0.164 0.023 0.315 0.087 0.441 0.182l-0.307 0.307c-0.041-0.024-0.086-0.043-0.133-0.056v-0.434zM16.153 12.986v-0.435c0.046-0.012 0.090-0.030 0.131-0.053l0.307 0.307c-0.126 0.095-0.275 0.158-0.438 0.181zM16.778 12.623l-0.309-0.309c0.024-0.041 0.044-0.084 0.056-0.131h0.434c-0.023 0.163-0.084 0.314-0.18 0.44zM16.525 11.921c-0.012-0.047-0.031-0.092-0.055-0.133l0.308-0.308c0.095 0.126 0.158 0.276 0.181 0.441h-0.434z"></path>
<path d="M19.646 9.759v-1.117c0-0.18-0.131-0.332-0.308-0.36-0.426-0.067-1.181-0.193-1.52-0.297-0.486-0.15-2.365-0.945-3.015-1.095s-3.585-0.947-6.395 0.027c-0.476 0.165-2.615 1.187-3.872 1.719-0.37 0.008-4.037 0.772-4.232 1.296s-0.256 0.778-0.292 0.911 0 0.769 0.272 1.213c0.278 0.157 0.812 0.263 1.43 0.333-0.007-0.038-0.015-0.075-0.020-0.113-0.011-0.082-0.016-0.156-0.016-0.227 0-0.999 0.813-1.813 1.812-1.813s1.812 0.813 1.812 1.813c0 0.051-0.003 0.102-0.007 0.152-0.009 0.112-0.030 0.221-0.059 0.326 0.001 0 0.005 0 0.005 0l8.996-0.181c-0.004-0.023-0.009-0.046-0.012-0.070-0.011-0.081-0.016-0.156-0.016-0.227 0-0.999 0.813-1.812 1.812-1.812s1.813 0.813 1.813 1.812c0 0.004-0 0.007-0.001 0.011l0.038-0.003 1.538-0.29c0 0 0.589-0.314 0.589-1.177 0-0.576-0.354-0.832-0.354-0.832zM10.722 8.7l-3.36 0.103c0.062-0.503-0.236-0.616-0.236-0.616 1.336-1.212 4.027-1.253 4.027-1.253l-0.431 1.767zM14.493 8.546l-3.062 0.103 0.277-1.716c1.582-0.021 2.486 0.329 2.486 0.329l0.452 0.73-0.154 0.555zM16.219 8.536h-0.853l-0.853-1.171c0.64 0.255 1.152 0.506 1.457 0.664 0.185 0.096 0.286 0.302 0.249 0.507z"></path>
</svg>
