<!-- Generated by IcoMoon.io -->
<svg version="1.1" xmlns="http://www.w3.org/2000/svg" width="20" height="20" viewBox="0 0 20 20">
<title>select-document</title>
<path fill="#555" d="M1.692 1.11c-0.098 0.015-0.246 0.167-0.325 0.335-0.087 0.185-0.080 12.967 0.007 13.163 0.060 0.135 0.292 0.326 0.352 0.289 0.019-0.012 0.034-0.006 0.034 0.013 0 0.038 4.954 0.032 5.072-0.005 0.035-0.011 0.074-0.022 0.087-0.023 0.058-0.006 0.249-0.207 0.249-0.262 0-0.033 0.015-0.061 0.034-0.061 0.12 0 0-0.462-0.156-0.602-0.161-0.144-0.020-0.136-2.438-0.143l-2.16-0.006v-11.616l9.2-0.016 0.004 3.128c0.002 1.72 0.002 3.14-0.001 3.156-0.040 0.221 0.384 0.578 0.619 0.522 0.037-0.009 0.099-0.024 0.139-0.033 0.121-0.028 0.254-0.156 0.324-0.308 0.073-0.162 0.093-7.057 0.020-7.168-0.017-0.026-0.032-0.057-0.032-0.069-0.001-0.041-0.189-0.247-0.212-0.233-0.013 0.008-0.045-0.007-0.071-0.034-0.045-0.045-10.459-0.071-10.746-0.026zM4.401 4.391c-0.365 0.183-0.402 0.7-0.070 0.96l0.112 0.087 2.669 0.002c2.86 0.002 2.731 0.009 2.906-0.161 0.21-0.205 0.242-0.531 0.068-0.697-0.047-0.045-0.064-0.069-0.037-0.055 0.077 0.042 0.025-0.005-0.113-0.102l-0.127-0.090-2.64-0.004c-2.579-0.004-2.643-0.003-2.767 0.060zM4.512 7.429c0 0.021-0.009 0.028-0.020 0.017s-0.051-0.003-0.088 0.017-0.079 0.035-0.092 0.031c-0.013-0.004-0.024 0.005-0.024 0.019s-0.027 0.055-0.059 0.090c-0.103 0.111-0.178 0.524-0.095 0.524 0.015 0 0.027 0.025 0.028 0.056 0.001 0.062 0.138 0.232 0.187 0.232 0.017 0 0.037 0.018 0.044 0.040 0.011 0.032 0.589 0.040 2.752 0.040h2.738l0.108-0.112c0.151-0.156 0.281-0.544 0.182-0.544-0.015 0-0.019-0.020-0.009-0.046s-0.012-0.075-0.049-0.112c-0.037-0.037-0.066-0.078-0.066-0.092s-0.047-0.061-0.104-0.104l-0.104-0.078-2.664-0.008c-2.012-0.006-2.664 0.001-2.664 0.029zM13.981 9.665c-0.116 0.031-0.256 0.128-0.235 0.162 0.010 0.016-0.004 0.037-0.030 0.047s-0.15 0.136-0.276 0.28-0.288 0.323-0.362 0.398c-0.074 0.075-0.135 0.147-0.135 0.16s-0.051 0.074-0.112 0.137c-0.248 0.252-0.451 0.479-0.429 0.479 0.013 0-0.047 0.064-0.133 0.143s-0.149 0.144-0.14 0.144c0.010 0-0.108 0.134-0.261 0.296s-0.272 0.306-0.264 0.318c0.008 0.013-0.013 0.037-0.046 0.055s-0.157 0.144-0.275 0.282c-0.118 0.137-0.275 0.313-0.349 0.392s-0.131 0.153-0.126 0.167c0.029 0.096-0.12 0.081-0.22-0.022-0.059-0.061-0.126-0.111-0.148-0.111s-0.040-0.022-0.040-0.049c0-0.027-0.036-0.065-0.079-0.085s-0.071-0.048-0.062-0.063c0.009-0.015 0.004-0.027-0.011-0.027s-0.217-0.186-0.448-0.413c-0.231-0.227-0.428-0.405-0.438-0.395s-0.018-0.004-0.018-0.031c0-0.027-0.032-0.071-0.072-0.098s-0.114-0.084-0.165-0.129c-0.117-0.102-0.249-0.128-0.416-0.083-0.072 0.020-0.139 0.036-0.148 0.036-0.211 0.002-0.402 0.56-0.255 0.75 0.095 0.123 0.148 0.181 0.299 0.326 0.085 0.082 0.31 0.304 0.499 0.493s0.351 0.344 0.36 0.344c0.009 0 0.083 0.065 0.164 0.144s0.139 0.144 0.128 0.144c-0.011 0 0.029 0.041 0.088 0.091s0.229 0.208 0.376 0.352c0.147 0.144 0.279 0.254 0.294 0.245s0.036-0.001 0.048 0.019c0.024 0.039 0.278 0.034 0.394-0.008 0.074-0.026 0.678-0.63 0.666-0.665-0.003-0.010 0.056-0.074 0.131-0.142s0.131-0.129 0.125-0.136 0.047-0.073 0.119-0.148c0.072-0.075 0.193-0.208 0.269-0.295s0.198-0.221 0.272-0.296c0.074-0.075 0.135-0.147 0.135-0.16s0.066-0.088 0.144-0.168c0.078-0.079 0.198-0.209 0.266-0.288s0.19-0.215 0.272-0.302c0.082-0.087 0.148-0.166 0.148-0.175s0.054-0.066 0.119-0.125c0.065-0.059 0.117-0.117 0.114-0.129s0.059-0.088 0.137-0.169c0.078-0.082 0.199-0.216 0.27-0.298s0.189-0.208 0.263-0.28c0.074-0.072 0.127-0.144 0.117-0.16s0.010-0.037 0.045-0.046c0.293-0.077 0.12-0.875-0.19-0.875-0.033 0-0.060-0.011-0.060-0.025 0-0.032-0.212-0.035-0.323-0.005zM4.425 10.44c-0.142 0.076-0.266 0.188-0.246 0.221 0.009 0.015 0.004 0.027-0.012 0.027-0.033 0-0.037 0.021-0.052 0.237-0.011 0.156 0.006 0.209 0.122 0.381 0.11 0.163 0.182 0.174 1.144 0.179 0.585 0.003 0.893-0.007 0.906-0.029 0.011-0.018 0.033-0.025 0.049-0.016 0.041 0.026 0.278-0.209 0.317-0.315 0.080-0.215-0.007-0.496-0.2-0.644l-0.113-0.086-0.906-0.006c-0.808-0.005-0.917-0-1.010 0.050z"></path>
</svg>
