<!-- Generated by IcoMoon.io -->
<svg version="1.1" xmlns="http://www.w3.org/2000/svg" width="24" height="20" viewBox="0 0 24 20">
<title>Server-External</title>
<path d="M14.361 0.406v0.414l0.464 0.015c0.965 0.035 1.689 0.208 2.481 0.594 1.707 0.835 2.925 2.464 3.243 4.336 0.028 0.155 0.078 0.559 0.078 0.614 0 0.013-0.115-0.090-0.258-0.233l-0.256-0.256-0.574 0.574 0.734 0.752c0.406 0.416 0.749 0.754 0.764 0.754 0.025 0 0.667-0.639 1.293-1.286l0.213-0.218-0.576-0.576-0.531 0.531-0.015-0.251c-0.070-1.053-0.479-2.221-1.108-3.163-0.286-0.429-0.496-0.687-0.852-1.040-0.925-0.925-2.045-1.536-3.326-1.815-0.343-0.073-0.792-0.123-1.316-0.143l-0.459-0.018v0.414z"></path>
<path d="M3.982 2.446c-0.281 0.085-0.489 0.316-0.549 0.604-0.018 0.085-0.025 0.363-0.020 0.767 0.008 0.602 0.010 0.637 0.068 0.764 0.075 0.165 0.283 0.361 0.444 0.416 0.085 0.030 0.213 0.040 0.454 0.040h0.333v0.494l-0.343 0.013c-0.303 0.010-0.363 0.018-0.484 0.075-0.178 0.080-0.316 0.218-0.398 0.393l-0.065 0.14v1.429l0.065 0.138c0.085 0.175 0.223 0.316 0.398 0.396 0.12 0.058 0.18 0.065 0.484 0.075l0.343 0.013v0.494h-0.333c-0.241 0-0.368 0.010-0.454 0.040-0.16 0.055-0.368 0.251-0.444 0.416-0.058 0.13-0.060 0.148-0.060 0.85v0.717l0.088 0.173c0.165 0.323 0.401 0.436 0.91 0.436h0.293v0.496l-0.368 0.010c-0.328 0.008-0.383 0.015-0.479 0.065-0.165 0.088-0.298 0.221-0.373 0.376l-0.070 0.143-0.008 0.652c-0.008 0.544-0.002 0.677 0.033 0.802 0.050 0.183 0.14 0.323 0.283 0.431 0.16 0.12 0.316 0.158 0.674 0.158h0.308v0.789c0 0.85 0.008 0.915 0.128 1 0.053 0.038 0.328 0.040 3.108 0.040h3.050l0.008 0.293c0.010 0.268 0.018 0.306 0.078 0.414 0.198 0.333 0.739 0.632 1.494 0.82 0.822 0.206 1.754 0.296 2.774 0.271 1.915-0.053 3.341-0.476 3.684-1.098l0.075-0.135v-7.446l-0.088-0.145c-0.153-0.256-0.536-0.514-1.008-0.679l-0.195-0.068-0.005-2.456-0.008-2.456-0.083-0.073-0.080-0.073h-3.228l-0.010-0.246c-0.008-0.201-0.023-0.266-0.075-0.371-0.078-0.15-0.233-0.296-0.393-0.371l-0.115-0.053-4.862-0.005c-4.158-0.002-4.88 0-4.977 0.033zM13.734 2.995c0.040 0.020 0.085 0.060 0.1 0.085 0.015 0.030 0.025 0.288 0.025 0.659v0.612l-0.153 0.148-4.729 0.008c-3.386 0.005-4.757 0-4.825-0.020-0.063-0.018-0.113-0.055-0.143-0.108-0.045-0.073-0.050-0.13-0.050-0.667v-0.584l0.17-0.17h4.764c4.203 0 4.774 0.005 4.84 0.038zM17.268 6.19c0 1.198-0.008 2.18-0.018 2.18-0.013 0-0.138-0.023-0.283-0.048-0.639-0.118-0.95-0.14-1.905-0.14-0.96 0-1.298 0.025-1.937 0.14-1.16 0.208-1.917 0.591-2.090 1.058-0.020 0.060-0.030 0.882-0.030 3.218l-0.003 3.14h-5.739v-1.278l5.083-0.013 0.065-0.060c0.128-0.12 0.105-0.338-0.045-0.431-0.075-0.045-0.188-0.048-3.14-0.048-2.148 0-3.080-0.008-3.123-0.028-0.13-0.060-0.143-0.12-0.143-0.737 0-0.599 0.013-0.679 0.123-0.739 0.033-0.018 1.053-0.025 3.090-0.025 2.058 0 3.070-0.010 3.135-0.028 0.201-0.055 0.253-0.313 0.093-0.456l-0.075-0.068h-5.063v-0.501h2.514c2.414 0 2.514-0.003 2.589-0.048 0.15-0.093 0.173-0.311 0.045-0.431l-0.065-0.060-6.241-0.025-0.073-0.083-0.073-0.080v-0.579c0-0.647 0.013-0.699 0.163-0.764 0.073-0.030 0.559-0.035 3.153-0.035h3.065l0.058-0.053c0.123-0.115 0.128-0.291 0.010-0.409l-0.065-0.065h-5.080v-0.501h4.206c3.642 0 4.223-0.005 4.348-0.038 0.243-0.063 0.401-0.19 0.526-0.424 0.053-0.098 0.055-0.138 0.063-0.81 0.005-0.431-0.002-0.744-0.018-0.802-0.060-0.223-0.268-0.444-0.499-0.531-0.053-0.018-0.241-0.040-0.436-0.045l-0.346-0.015v-0.489l0.383-0.010c0.368-0.008 0.386-0.010 0.516-0.083 0.271-0.15 0.404-0.393 0.404-0.739v-0.201h2.857v2.18zM12.556 5.288v0.251h-7.293v-0.501h7.293v0.251zM13.717 6.118c0.138 0.070 0.143 0.085 0.143 0.752v0.617l-0.060 0.065c-0.033 0.035-0.088 0.073-0.12 0.080-0.030 0.008-2.198 0.010-4.815 0.008l-4.759-0.008-0.073-0.083-0.075-0.083 0.008-0.612c0.008-0.569 0.010-0.612 0.058-0.664 0.028-0.030 0.073-0.065 0.1-0.078 0.083-0.033 9.529-0.028 9.594 0.005zM16.466 8.794c0.935 0.128 1.727 0.388 2.002 0.657 0.133 0.128 0.133 0.193 0.003 0.321-0.288 0.278-1.125 0.546-2.083 0.667-0.935 0.115-2.13 0.095-3.030-0.053-0.975-0.158-1.805-0.516-1.805-0.774 0-0.261 0.85-0.619 1.842-0.779 0.566-0.090 0.882-0.108 1.792-0.098 0.732 0.005 0.957 0.018 1.278 0.060zM11.659 10.449c0.363 0.213 1.231 0.444 2.050 0.541 0.456 0.055 1.754 0.078 2.246 0.040 1.013-0.080 1.892-0.278 2.411-0.539 0.1-0.050 0.185-0.090 0.193-0.090s0.013 0.361 0.013 0.802v0.799l-0.075 0.088c-0.083 0.093-0.416 0.273-0.664 0.361-0.401 0.14-0.915 0.253-1.491 0.323-0.521 0.065-2.035 0.065-2.556 0-0.995-0.123-1.797-0.368-2.113-0.644l-0.118-0.105v-0.812c0-0.446 0.005-0.812 0.010-0.812 0.008 0 0.050 0.023 0.095 0.048zM12.108 12.97c1.123 0.391 2.897 0.521 4.446 0.326 0.699-0.090 1.421-0.278 1.82-0.474 0.1-0.050 0.185-0.090 0.19-0.090s0.008 0.368 0.008 0.82v0.817l-0.103 0.098c-0.288 0.276-1.148 0.541-2.128 0.659-0.456 0.055-1.609 0.078-2.105 0.040-1.195-0.090-2.195-0.356-2.569-0.684l-0.113-0.1v-1.649l0.145 0.073c0.080 0.040 0.263 0.115 0.409 0.165zM11.767 15.185c0.794 0.376 2.135 0.579 3.571 0.546 1.311-0.033 2.391-0.233 3.055-0.566 0.083-0.043 0.158-0.078 0.165-0.078s0.013 0.368 0.013 0.82v0.817l-0.095 0.090c-0.348 0.331-1.386 0.617-2.574 0.704-1.749 0.128-3.689-0.188-4.248-0.692l-0.1-0.090v-0.827c0-0.454 0.008-0.822 0.020-0.817 0.010 0.005 0.098 0.048 0.193 0.093z"></path>
<path d="M12.729 3.206c-0.238 0.048-0.404 0.238-0.419 0.486-0.008 0.133 0 0.175 0.063 0.293 0.193 0.366 0.729 0.368 0.932 0.005 0.073-0.133 0.078-0.356 0.015-0.491-0.058-0.123-0.226-0.261-0.336-0.281-0.050-0.008-0.108-0.018-0.128-0.023-0.020-0.002-0.078 0.002-0.128 0.010z"></path>
<path d="M4.546 3.544c-0.068 0.068-0.085 0.105-0.085 0.185 0 0.113 0.063 0.211 0.168 0.253 0.053 0.020 0.774 0.028 2.759 0.023l2.692-0.008 0.073-0.083c0.078-0.088 0.098-0.236 0.048-0.333-0.070-0.128 0.033-0.123-2.872-0.123h-2.697l-0.085 0.085z"></path>
<path d="M10.83 3.524c-0.095 0.080-0.12 0.195-0.068 0.321 0.063 0.15 0.14 0.17 0.684 0.16l0.464-0.008 0.073-0.083c0.055-0.060 0.073-0.105 0.073-0.183 0-0.246-0.070-0.273-0.674-0.273-0.474 0-0.476 0-0.551 0.065z"></path>
<path d="M4.594 9.772c-0.163 0.1-0.183 0.283-0.048 0.419l0.085 0.085h2.697c2.905 0 2.802 0.005 2.872-0.123 0.050-0.098 0.030-0.246-0.048-0.333l-0.073-0.083-2.704-0.008c-2.642-0.005-2.704-0.005-2.782 0.043z"></path>
<path d="M4.652 12.882c-0.103 0.033-0.163 0.095-0.18 0.19-0.023 0.115 0.005 0.203 0.083 0.276l0.065 0.060h5.461l0.073-0.073c0.145-0.145 0.078-0.396-0.123-0.454-0.115-0.030-5.271-0.030-5.378 0z"></path>
<path d="M12.579 6.398c-0.060 0.033-0.143 0.108-0.185 0.165-0.068 0.098-0.075 0.125-0.075 0.303s0.008 0.206 0.075 0.303c0.19 0.268 0.617 0.303 0.83 0.068 0.195-0.213 0.185-0.571-0.020-0.764-0.15-0.143-0.434-0.175-0.624-0.075z"></path>
<path d="M4.622 6.617c-0.165 0.068-0.211 0.293-0.088 0.431l0.073 0.083 2.692 0.008c1.479 0.002 2.717 0 2.747-0.008 0.221-0.055 0.248-0.404 0.038-0.511-0.065-0.033-5.378-0.038-5.461-0.002z"></path>
<path d="M10.872 6.632c-0.078 0.040-0.145 0.153-0.145 0.241 0 0.083 0.090 0.218 0.165 0.246 0.090 0.035 0.952 0.033 1.020-0.003 0.098-0.050 0.143-0.128 0.143-0.248s-0.045-0.198-0.143-0.248c-0.088-0.045-0.955-0.035-1.040 0.013z"></path>
<path d="M22.103 11.702l-0.073 0.073v4.301l-0.594-0.607c-0.576-0.586-0.599-0.609-0.692-0.607-0.145 0-0.243 0.108-0.243 0.263 0 0.118 0.005 0.123 0.283 0.411 0.155 0.16 0.519 0.536 0.81 0.835 0.288 0.298 0.556 0.556 0.596 0.571 0.148 0.055 0.195 0.015 1.033-0.855 0.439-0.454 0.807-0.85 0.82-0.882 0.058-0.155-0.080-0.343-0.253-0.343-0.088 0-0.123 0.030-0.674 0.594l-0.581 0.596-0.008-2.138-0.008-2.14-0.083-0.073c-0.11-0.1-0.233-0.1-0.333 0z"></path>
<path d="M0.739 12.782l-0.752 0.752 0.589 0.589 0.521-0.521 0.015 0.148c0.070 0.667 0.163 1.128 0.333 1.639 0.752 2.276 2.717 4.020 5.035 4.471 0.404 0.078 0.704 0.108 1.258 0.13l0.431 0.018v-0.827l-0.444-0.015c-0.246-0.008-0.576-0.033-0.734-0.055-2.223-0.306-4.083-1.875-4.784-4.033-0.145-0.444-0.278-1.103-0.278-1.371v-0.085l0.501 0.501 0.589-0.589-0.752-0.752c-0.414-0.414-0.757-0.752-0.764-0.752s-0.351 0.338-0.764 0.752z"></path>
</svg>
