<!-- Generated by IcoMoon.io -->
<svg version="1.1" xmlns="http://www.w3.org/2000/svg" width="20" height="20" viewBox="0 0 20 20">
<title>Server</title>
<path d="M12.667 1.684c0 0.368-0.298 0.667-0.667 0.667s-0.667-0.298-0.667-0.667c0-0.368 0.298-0.667 0.667-0.667s0.667 0.298 0.667 0.667z"></path>
<path d="M8.333 1.351h-6.667c-0.184 0-0.333 0.149-0.333 0.333s0.149 0.333 0.333 0.333h6.667c0.184 0 0.333-0.149 0.333-0.333s-0.149-0.333-0.333-0.333z"></path>
<path d="M10.667 1.351h-1c-0.184 0-0.333 0.149-0.333 0.333s0.149 0.333 0.333 0.333h1c0.184 0 0.333-0.149 0.333-0.333s-0.149-0.333-0.333-0.333z"></path>
<path d="M12.667 5.684c0 0.368-0.298 0.667-0.667 0.667s-0.667-0.298-0.667-0.667c0-0.368 0.298-0.667 0.667-0.667s0.667 0.298 0.667 0.667z"></path>
<path d="M8.333 5.351h-6.667c-0.184 0-0.333 0.149-0.333 0.333s0.149 0.333 0.333 0.333h6.667c0.184 0 0.333-0.149 0.333-0.333s-0.149-0.333-0.333-0.333z"></path>
<path d="M10.667 5.351h-1c-0.184 0-0.333 0.149-0.333 0.333s0.149 0.333 0.333 0.333h1c0.184 0 0.333-0.149 0.333-0.333s-0.149-0.333-0.333-0.333z"></path>
<path d="M8.333 9.351h-6.667c-0.184 0-0.333 0.149-0.333 0.333s0.149 0.333 0.333 0.333h6.667c0.184 0 0.333-0.149 0.333-0.333s-0.149-0.333-0.333-0.333z"></path>
<path d="M8.333 13.351h-6.667c-0.184 0-0.333 0.149-0.333 0.333s0.149 0.333 0.333 0.333h6.667c0.184 0 0.333-0.149 0.333-0.333s-0.149-0.333-0.333-0.333z"></path>
<path d="M20 9.184c0-0.611-0.671-1.073-1.667-1.381v-6.119c0-0.184-0.149-0.333-0.333-0.333h-4v-0.333c0-0.552-0.448-1-1-1h-12c-0.552 0-1 0.448-1 1v1.333c0 0.552 0.448 1 1 1h0.667v0.667h-0.667c-0.552 0-1 0.448-1 1v1.333c0 0.552 0.448 1 1 1h0.667v0.667h-0.667c-0.552 0-1 0.448-1 1v1.333c0 0.552 0.448 1 1 1h0.667v0.667h-0.667c-0.552 0-1 0.448-1 1v1.333c0 0.552 0.448 1 1 1h0.667v2c0 0.184 0.149 0.333 0.333 0.333h7.667v0.488c0 1.188 2.6 1.81 5.167 1.81s5.167-0.622 5.167-1.81v-2.821h-0.025c0.015-0.058 0.023-0.118 0.025-0.179v-2.821h-0.025c0.015-0.058 0.023-0.118 0.025-0.179v-2.821h-0.023c0.013-0.055 0.021-0.11 0.023-0.167zM1 2.684c-0.184 0-0.333-0.149-0.333-0.333v-1.333c0-0.184 0.149-0.333 0.333-0.333h12c0.184 0 0.333 0.149 0.333 0.333v1.333c0 0.184-0.149 0.333-0.333 0.333h-12zM11.667 3.351v0.667h-9.333v-0.667h9.333zM1 6.684c-0.184 0-0.333-0.149-0.333-0.333v-1.333c0-0.184 0.149-0.333 0.333-0.333h12c0.184 0 0.333 0.149 0.333 0.333v1.333c0 0.184-0.149 0.333-0.333 0.333h-12zM9.667 9.184c0.002 0.056 0.009 0.112 0.023 0.167h-0.023v2.821c0.001 0.060 0.010 0.12 0.025 0.179h-0.025v2.821c0.001 0.060 0.010 0.12 0.025 0.179h-0.025v1.667h-7.333v-1.667h6.333c0.184 0 0.333-0.149 0.333-0.333s-0.149-0.333-0.333-0.333h-7.667c-0.184 0-0.333-0.149-0.333-0.333v-1.333c0-0.184 0.149-0.333 0.333-0.333h7.667c0.184 0 0.333-0.149 0.333-0.333s-0.149-0.333-0.333-0.333h-6.333v-0.667h6.333c0.184 0 0.333-0.149 0.333-0.333s-0.149-0.333-0.333-0.333h-7.667c-0.184 0-0.333-0.149-0.333-0.333v-1.333c0-0.184 0.149-0.333 0.333-0.333h7.667c0.184 0 0.333-0.149 0.333-0.333s-0.149-0.333-0.333-0.333h-6.333v-0.667h10.667c0.552 0 1-0.448 1-1v-1.333c0-0.552-0.448-1-1-1h-0.667v-0.667h0.667c0.552 0 1-0.448 1-1v-0.333h3.667v5.612c-0.932-0.191-1.882-0.285-2.833-0.279-2.567 0-5.167 0.63-5.167 1.833zM19.333 18.172c0 0.388-1.588 1.143-4.5 1.143s-4.5-0.755-4.5-1.143v-2.064c0.936 0.576 2.725 0.874 4.5 0.874s3.564-0.298 4.5-0.874v2.064zM19.333 15.172c0 0.388-1.588 1.143-4.5 1.143s-4.5-0.755-4.5-1.143v-2.064c0.936 0.576 2.725 0.874 4.5 0.874s3.564-0.298 4.5-0.874v2.064zM19.333 12.172c0 0.388-1.588 1.143-4.5 1.143s-4.5-0.755-4.5-1.143v-2.040c0.936 0.585 2.725 0.885 4.5 0.885s3.564-0.3 4.5-0.885v2.040zM14.833 10.351c-2.912 0-4.5-0.771-4.5-1.167s1.588-1.167 4.5-1.167 4.5 0.771 4.5 1.167c0 0.396-1.588 1.167-4.5 1.167z"></path>
</svg>
