<!-- Generated by IcoMoon.io -->
<svg version="1.1" xmlns="http://www.w3.org/2000/svg" width="20" height="20" viewBox="0 0 20 20">
<title>shapes-1</title>
<path d="M5.397 9.824c0.731-0.337 1.43-0.506 2.097-0.506h8.856v-1.703c0-0.653-0.234-1.214-0.703-1.682s-1.029-0.702-1.682-0.702h-5.79v-0.341c0-0.653-0.234-1.213-0.702-1.682s-1.029-0.703-1.682-0.703h-3.406c-0.653 0-1.213 0.234-1.682 0.703s-0.702 1.029-0.702 1.682v10.218c0 0.028 0.002 0.073 0.005 0.133s0.005 0.105 0.005 0.133l0.053-0.064 3.587-4.215c0.433-0.511 1.015-0.935 1.746-1.272z"></path>
<path d="M19.718 10.82c-0.188-0.092-0.403-0.139-0.644-0.139h-11.581c-0.468 0-0.977 0.126-1.527 0.378s-0.977 0.559-1.283 0.921l-3.576 4.215c-0.22 0.248-0.33 0.483-0.33 0.703 0 0.213 0.094 0.365 0.282 0.458s0.403 0.139 0.644 0.139h11.581c0.468 0 0.977-0.126 1.527-0.378s0.977-0.559 1.282-0.921l3.576-4.215c0.22-0.248 0.33-0.482 0.33-0.703 0-0.213-0.094-0.365-0.282-0.458z"></path>
</svg>
