<!-- Generated by IcoMoon.io -->
<svg version="1.1" xmlns="http://www.w3.org/2000/svg" width="20" height="20" viewBox="0 0 20 20">
<title>shapes</title>
<path d="M6.093 12.108c-0.825-0.946-0.941-2.431-1.503-3.144-0.472-0.599-1.22-0.309-1.31 0.215-0.138 0.811 0.732 3.202 1.172 3.968 0.109 0.191-0.087 0.544-0.425 0.24s-1.685-3.397-1.16-5.438c0.257-1-0.405-2.044-1.254-1.516s-1.342 4.926-0.082 7.5c1.063 2.172 3.307 3.608 3.696 3.853 0.265 0.167 0.372 1.135 0.414 1.737 0.020 0.283 0.097 0.477 0.412 0.477 0.346-0 1.050 0.001 2.027 0 0.509 0 0.527-0.306 0.527-0.452-0.004-3.837 0.203-4.324-2.513-7.44z"></path>
<path d="M13.907 12.108c0.825-0.946 0.941-2.431 1.503-3.144 0.472-0.599 1.22-0.309 1.31 0.215 0.138 0.811-0.732 3.202-1.172 3.968-0.109 0.191 0.087 0.544 0.425 0.24s1.685-3.397 1.16-5.438c-0.257-1 0.405-2.044 1.254-1.516s1.342 4.926 0.082 7.5c-1.063 2.172-3.307 3.608-3.696 3.853-0.265 0.167-0.372 1.135-0.414 1.737-0.020 0.283-0.097 0.477-0.412 0.477-0.346-0-1.050 0.001-2.027 0-0.509 0-0.527-0.306-0.527-0.452 0.004-3.837-0.203-4.324 2.513-7.44z"></path>
<path d="M12.644 0c-1.044 0-1.99 0.417-2.683 1.092-0.693-0.675-1.639-1.092-2.683-1.092-2.124 0-3.846 1.722-3.846 3.846 0 0.825 0.26 1.588 0.702 2.214 0.176 0.275 0.387 0.526 0.628 0.744l3.99 3.996c0.4 0.4 0.799 0.799 1.199 0.799 0.003 0 0.007-0.001 0.010-0.001s0.007 0.001 0.010 0.001c0.4 0 0.799-0.4 1.199-0.799l3.99-3.996c0.241-0.219 0.452-0.469 0.628-0.744 0.442-0.626 0.702-1.39 0.702-2.214 0-2.124-1.722-3.846-3.846-3.846z"></path>
</svg>
