<!-- Generated by IcoMoon.io -->
<svg version="1.1" xmlns="http://www.w3.org/2000/svg" width="20" height="20" viewBox="0 0 20 20">
<title>sharethis-logo</title>
<path d="M7.059 10c0 0.069-0.016 0.133-0.020 0.201l7.166 3.582c0.614-0.52 1.398-0.844 2.266-0.844 1.949 0 3.529 1.58 3.529 3.529 0 1.951-1.58 3.531-3.529 3.531-1.951 0-3.529-1.58-3.529-3.531 0-0.070 0.016-0.133 0.020-0.201l-7.166-3.582c-0.615 0.518-1.398 0.842-2.266 0.842-1.949 0-3.529-1.578-3.529-3.527 0-1.951 1.58-3.531 3.529-3.531 0.867 0 1.651 0.326 2.266 0.844l7.166-3.582c-0.004-0.068-0.020-0.133-0.020-0.203 0-1.947 1.578-3.527 3.529-3.527 1.949 0 3.529 1.58 3.529 3.527 0 1.951-1.58 3.531-3.529 3.531-0.869 0-1.653-0.326-2.266-0.846l-7.166 3.584c0.004 0.068 0.020 0.133 0.020 0.203z"></path>
</svg>
