<!-- Generated by IcoMoon.io -->
<svg version="1.1" xmlns="http://www.w3.org/2000/svg" width="20" height="20" viewBox="0 0 20 20">
<title>social</title>
<path d="M5.882 11.699h-3.217l4.306-3.445h-4.694c-0.206 0-0.373-0.166-0.373-0.372s0.167-0.373 0.373-0.373h5.626l0.965-0.773h-6.592c-0.206 0-0.373-0.166-0.373-0.372s0.167-0.373 0.373-0.373h7.524l2.343-1.875v-0.559c0-0.835-0.683-1.518-1.518-1.518h-9.108c-0.835 0-1.518 0.683-1.518 1.518v11.385c0 0.835 0.683 1.518 1.518 1.518h4.364c-0 0-0-4.761-0-4.761zM2.277 4.473h7.59c0.206 0 0.373 0.167 0.373 0.373s-0.167 0.372-0.373 0.372h-7.59c-0.206 0-0.373-0.166-0.373-0.372s0.168-0.373 0.373-0.373z"></path>
<path d="M17.045 8.767v-3.162h-1.708v1.795l-3.195-2.554-7.856 6.284h2.164v6.831h11.385v-6.831h2.165l-2.955-2.363zM17.041 17.166h-2.874v-5.277h-4.048v5.277h-2.874v-6.413l4.899-3.919 4.898 3.919-0.002 6.413z"></path>
<path d="M11.005 10.768h2.277v0.6h-2.277v-0.6z"></path>
</svg>
