<!-- Generated by IcoMoon.io -->
<svg version="1.1" xmlns="http://www.w3.org/2000/svg" width="17" height="20" viewBox="0 0 17 20">
<title>Subcontractors</title>
<path d="M1.84 0.041c-0.226 0.058-0.56 0.237-0.745 0.4-0.196 0.177-0.392 0.472-0.483 0.726-0.094 0.259-0.116 0.737-0.050 1.023 0.135 0.574 0.604 1.079 1.175 1.261 0.251 0.083 0.726 0.102 0.966 0.041 0.734-0.182 1.252-0.764 1.352-1.509 0.11-0.822-0.375-1.611-1.164-1.895-0.171-0.061-0.257-0.072-0.546-0.080-0.234-0.003-0.397 0.006-0.505 0.033z"></path>
<path d="M12.607 0.041c-0.317 0.086-0.552 0.226-0.8 0.48-0.265 0.268-0.381 0.469-0.469 0.819-0.24 0.932 0.361 1.928 1.297 2.146 0.099 0.025 0.292 0.044 0.428 0.044 0.508 0 0.888-0.157 1.244-0.51 0.243-0.243 0.359-0.422 0.458-0.717 0.052-0.163 0.063-0.248 0.063-0.552-0.003-0.317-0.011-0.383-0.074-0.56-0.188-0.524-0.568-0.908-1.092-1.103-0.154-0.058-0.243-0.072-0.543-0.077-0.257-0.008-0.4 0-0.51 0.030z"></path>
<path d="M0.924 4.149c-0.466 0.116-0.825 0.51-0.899 0.982-0.017 0.116-0.022 2.654-0.019 7.159l0.008 6.979 0.061 0.13c0.069 0.149 0.254 0.361 0.394 0.45 0.279 0.177 0.709 0.201 0.996 0.061 0.237-0.116 0.37-0.246 0.486-0.483l0.105-0.21 0.017-3.876c0.008-2.135 0.017-3.881 0.019-3.887 0.003-0.003 0.099-0.006 0.212-0.006h0.207l0.006 3.909 0.008 3.912 0.061 0.132c0.091 0.193 0.312 0.411 0.513 0.505 0.152 0.072 0.201 0.080 0.447 0.080s0.292-0.008 0.428-0.074c0.243-0.119 0.372-0.248 0.488-0.486l0.105-0.21-0.003-4.85c0-2.668-0.011-4.858-0.019-4.869-0.011-0.008-0.37-0.058-0.8-0.11-0.717-0.083-0.792-0.097-0.952-0.177-0.127-0.061-0.201-0.121-0.259-0.204-0.047-0.066-0.326-0.571-0.621-1.123s-0.585-1.092-0.643-1.203c-0.061-0.108-0.099-0.199-0.091-0.199 0.011 0 0.45 0.428 0.974 0.949 0.794 0.794 0.977 0.963 1.103 1.021 0.132 0.061 0.337 0.091 1.71 0.251 1.001 0.119 1.619 0.179 1.724 0.171 0.571-0.044 0.932-0.665 0.703-1.2-0.083-0.193-0.312-0.403-0.505-0.461-0.080-0.025-0.756-0.116-1.503-0.204l-1.36-0.157-1.639-1.639 1.526 0.797 0.64 0.077v-0.472c0-0.312-0.014-0.521-0.039-0.612-0.11-0.414-0.441-0.742-0.858-0.85-0.135-0.036-0.364-0.044-1.379-0.041-0.866 0-1.252 0.011-1.352 0.036z"></path>
<path d="M11.71 4.149c-0.326 0.080-0.64 0.334-0.794 0.648-0.080 0.166-0.088 0.207-0.099 0.491l-0.008 0.312-1.192 0.679c-0.654 0.375-1.272 0.728-1.374 0.789l-0.188 0.108 0.069 0.138c0.152 0.295 0.204 0.742 0.127 1.073-0.066 0.284-0.237 0.593-0.447 0.806-0.105 0.108-0.19 0.199-0.19 0.207 0 0.019 0.243-0.116 1.699-0.946 0.811-0.461 1.476-0.839 1.481-0.839 0.003 0 0.003 1.123-0.003 2.497l-0.006 2.497 0.13-0.083c0.163-0.105 0.348-0.16 0.593-0.185l0.188-0.017v-0.279c0-0.314 0.050-0.59 0.138-0.761 0.080-0.154 0.284-0.372 0.433-0.461 0.066-0.039 0.119-0.077 0.119-0.086s0.086-0.554 0.193-1.211l0.193-1.197-0.097-1.065c-0.050-0.588-0.091-1.070-0.088-1.073 0.014-0.014 0.877 2.463 0.874 2.513 0 0.030-0.094 0.632-0.207 1.335-0.113 0.706-0.207 1.291-0.207 1.305 0 0.011-0.072 0.022-0.163 0.022-0.177 0-0.295 0.061-0.4 0.201-0.055 0.074-0.058 0.119-0.066 0.781l-0.008 0.701h-0.483c-0.345 0-0.508 0.011-0.571 0.039-0.116 0.047-0.229 0.182-0.268 0.314-0.039 0.143-0.039 3.032 0.003 3.189 0.017 0.066 0.061 0.152 0.099 0.196 0.149 0.157 0.044 0.152 2.717 0.152h2.463l0.11-0.063c0.072-0.039 0.132-0.102 0.174-0.185l0.061-0.121v-3.153l-0.063-0.119c-0.044-0.083-0.102-0.141-0.185-0.185-0.11-0.061-0.152-0.063-0.612-0.063h-0.491v-0.684c0-0.654-0.003-0.687-0.063-0.789-0.074-0.13-0.212-0.21-0.37-0.21-0.088 0-0.119-0.011-0.119-0.041 0-0.025 0.094-0.621 0.207-1.33 0.113-0.706 0.207-1.352 0.207-1.434 0-0.135-0.265-0.921-0.954-2.836-0.022-0.061-0.030-0.097-0.014-0.083 0.014 0.017 0.259 0.375 0.543 0.8l0.521 0.772 0.008-0.248c0.006-0.138 0.006-0.634 0-1.103l-0.008-0.855-0.088-0.188c-0.105-0.218-0.314-0.45-0.499-0.552-0.276-0.152-0.353-0.157-1.674-0.154-0.852 0-1.255 0.011-1.352 0.036zM13.876 12.51c0.179 0 0.234-0.014 0.392-0.091 0.099-0.047 0.188-0.088 0.199-0.088 0.008 0 0.017 0.16 0.017 0.359v0.359h-1.159v-0.709l0.171 0.086c0.146 0.072 0.201 0.086 0.381 0.086z"></path>
<path d="M10.792 18.309l0.008 0.932 0.088 0.182c0.108 0.218 0.281 0.386 0.499 0.488 0.138 0.066 0.193 0.074 0.433 0.074 0.257 0 0.29-0.006 0.461-0.091 0.215-0.105 0.381-0.276 0.488-0.502 0.072-0.152 0.072-0.157 0.080-0.943l0.008-0.789-0.781-0.011c-0.723-0.008-0.792-0.014-0.93-0.069-0.080-0.033-0.196-0.094-0.257-0.132l-0.108-0.072 0.008 0.932z"></path>
<path d="M13.302 18.45l0.008 0.794 0.088 0.179c0.108 0.218 0.281 0.386 0.499 0.488 0.138 0.066 0.193 0.074 0.433 0.074 0.257 0 0.29-0.006 0.458-0.088 0.218-0.108 0.386-0.281 0.488-0.499 0.074-0.157 0.074-0.157 0.083-0.952l0.008-0.792h-2.074l0.008 0.794z"></path>
</svg>
