<!-- Generated by IcoMoon.io -->
<svg version="1.1" xmlns="http://www.w3.org/2000/svg" width="20" height="20" viewBox="0 0 20 20">
<title>symbol</title>
<path d="M15.483 12.453c-1.166 0-2.21 0.532-2.903 1.366l-4.506-2.558c0.14-0.394 0.217-0.818 0.217-1.26s-0.077-0.866-0.217-1.26l4.506-2.559c0.693 0.834 1.737 1.366 2.903 1.366 2.080 0 3.773-1.693 3.773-3.774s-1.692-3.773-3.773-3.773c-2.081 0-3.773 1.693-3.773 3.773 0 0.442 0.077 0.866 0.217 1.26l-4.506 2.559c-0.693-0.834-1.737-1.366-2.903-1.366-2.081 0-3.774 1.693-3.774 3.773s1.693 3.773 3.774 3.773c1.166 0 2.21-0.532 2.902-1.365l4.506 2.559c-0.14 0.394-0.217 0.819-0.217 1.261 0 2.080 1.693 3.773 3.773 3.773s3.773-1.693 3.773-3.773c0-2.081-1.692-3.774-3.773-3.774zM15.483 1.32c1.352 0 2.452 1.1 2.452 2.453s-1.1 2.454-2.452 2.454c-1.353 0-2.453-1.101-2.453-2.454s1.1-2.453 2.453-2.453zM4.518 12.453c-1.353 0-2.453-1.1-2.453-2.453s1.101-2.453 2.453-2.453c1.352 0 2.452 1.1 2.452 2.453s-1.1 2.453-2.452 2.453zM15.483 18.68c-1.353 0-2.453-1.1-2.453-2.453s1.1-2.454 2.453-2.454c1.352 0 2.452 1.101 2.452 2.454s-1.1 2.453-2.452 2.453z"></path>
</svg>
