<!-- Generated by IcoMoon.io -->
<svg version="1.1" xmlns="http://www.w3.org/2000/svg" width="20" height="20" viewBox="0 0 20 20">
<title>technology</title>
<path d="M18.366 0.588h-16.732c-0.901 0-1.634 0.733-1.634 1.634v11.355c0 0.901 0.733 1.634 1.634 1.634h5.609v2.191h-0.885c-0.555 0-1.005 0.45-1.005 1.005s0.45 1.005 1.005 1.005h7.285c0.555 0 1.005-0.45 1.005-1.005s-0.45-1.005-1.005-1.005h-0.885v-2.191h5.608c0.901 0 1.634-0.733 1.634-1.634v-11.355c0-0.901-0.733-1.634-1.634-1.634zM15.979 14.207c-0.252 0-0.455-0.203-0.455-0.455s0.203-0.455 0.455-0.455c0.251 0 0.455 0.203 0.455 0.455s-0.203 0.455-0.455 0.455zM17.989 14.316c-0.312 0-0.565-0.253-0.565-0.564s0.252-0.565 0.565-0.565c0.311 0 0.564 0.252 0.564 0.565s-0.253 0.564-0.564 0.564zM18.66 12.618h-17.321v-10.395c0-0.162 0.132-0.294 0.294-0.294h16.732c0.162 0 0.294 0.132 0.294 0.294v10.395z"></path>
<path d="M10.747 7.435l0.737-0.446c0.062-0.038 0.098-0.109 0.090-0.181s-0.057-0.135-0.126-0.159l-3.382-1.178c-0.068-0.024-0.145-0.006-0.196 0.045s-0.069 0.127-0.045 0.196l1.177 3.381c0.024 0.069 0.086 0.118 0.159 0.126s0.143-0.027 0.181-0.090l0.446-0.736 1.384 1.384c0.035 0.035 0.083 0.055 0.133 0.055s0.098-0.020 0.133-0.055l0.691-0.692c0.074-0.074 0.074-0.193 0-0.267l-1.383-1.383z"></path>
</svg>
