<!-- Generated by IcoMoon.io -->
<svg version="1.1" xmlns="http://www.w3.org/2000/svg" width="20" height="20" viewBox="0 0 20 20">
<title>terrorist-man-silhouette-with-bonnet-mask</title>
<path d="M17.095 14.351v4.32l-0.030-0-0.279 0.141c-0.14 0.071-2.41 1.188-6.327 1.188-1.035 0-2.188-0.080-3.445-0.276l-1.141-0.209c-0.846-0.173-1.73-0.393-2.659-0.683l-0.298-0.094-0.011-0.067v-4.32c0-2.468 1.69-4.544 3.971-5.147 0.819 0.765 1.916 1.237 3.123 1.237s2.303-0.472 3.123-1.237c1.774 0.469 3.186 1.83 3.728 3.572l0.222 1.106c0.014 0.155 0.021 0.312 0.021 0.47zM5.172 4.828c0-2.666 2.161-4.828 4.828-4.828s4.828 2.161 4.828 4.828-2.162 4.828-4.828 4.828c-2.667 0-4.828-2.161-4.828-4.828zM11.681 7.566c0-0.534-0.753-0.967-1.681-0.967s-1.681 0.433-1.681 0.967c0 0.534 0.753 0.966 1.681 0.966s1.681-0.433 1.681-0.966zM8.301 5.732c0.68 0 1.288-0.22 1.699-0.566 0.411 0.346 1.019 0.566 1.699 0.566 1.238 0 2.242-0.726 2.242-1.621s-1.004-1.622-2.242-1.622c-0.68 0-1.288 0.22-1.699 0.566-0.411-0.346-1.019-0.566-1.699-0.566-1.238 0-2.242 0.726-2.242 1.622s1.004 1.621 2.242 1.621z"></path>
</svg>
