<!-- Generated by IcoMoon.io -->
<svg version="1.1" xmlns="http://www.w3.org/2000/svg" width="20" height="20" viewBox="0 0 20 20">
<title>Timeline</title>
<path d="M4.308 2.499c0-0.162-0.131-0.293-0.293-0.293h-1.896c-0.162 0-0.293 0.131-0.293 0.293s0.131 0.293 0.293 0.293h1.896c0.162 0 0.293-0.131 0.293-0.293z"></path>
<path d="M2.499 3.343c-0.162 0-0.293 0.131-0.293 0.293s0.131 0.293 0.293 0.293h1.138c0.162 0 0.293-0.131 0.293-0.293s-0.131-0.293-0.293-0.293h-1.138z"></path>
<path d="M19.707 18.656h-1.765c-0.1-0.344-0.372-0.616-0.717-0.717v-11.819c1.554-0.148 2.774-1.461 2.774-3.053 0-0.592-0.169-1.167-0.489-1.662-0.088-0.136-0.269-0.175-0.405-0.087s-0.175 0.269-0.087 0.405c0.258 0.4 0.395 0.865 0.395 1.344 0 1.368-1.113 2.481-2.481 2.481s-2.481-1.113-2.481-2.481c0-1.368 1.113-2.481 2.481-2.481 0.541 0 1.055 0.171 1.487 0.495 0.129 0.097 0.313 0.071 0.41-0.059s0.071-0.313-0.059-0.41c-0.534-0.4-1.17-0.612-1.838-0.612-1.691 0-3.067 1.376-3.067 3.067 0 1.592 1.22 2.905 2.774 3.053v11.819c-0.344 0.1-0.616 0.372-0.717 0.717h-4.914c-0.1-0.344-0.372-0.616-0.717-0.717v-6.131c1.554-0.148 2.774-1.461 2.774-3.053 0-0.734-0.263-1.444-0.741-2-0.473-0.55-1.126-0.915-1.838-1.029-0.16-0.026-0.31 0.083-0.336 0.243s0.083 0.31 0.243 0.336c1.209 0.193 2.086 1.224 2.086 2.45 0 1.368-1.113 2.481-2.481 2.481s-2.481-1.113-2.481-2.481c0-1.198 0.853-2.224 2.029-2.44 0.159-0.029 0.264-0.182 0.235-0.341s-0.182-0.265-0.341-0.235c-1.454 0.268-2.509 1.536-2.509 3.017 0 1.592 1.22 2.905 2.774 3.053v6.131c-0.344 0.1-0.616 0.372-0.717 0.717h-4.914c-0.1-0.344-0.372-0.616-0.717-0.717v-11.819c0.564-0.053 1.096-0.259 1.553-0.603 0.129-0.097 0.155-0.281 0.057-0.41s-0.281-0.155-0.41-0.057c-0.433 0.327-0.949 0.499-1.493 0.499-1.368 0-2.481-1.113-2.481-2.481s1.113-2.481 2.481-2.481 2.481 1.113 2.481 2.481c0 0.457-0.125 0.904-0.362 1.292-0.084 0.138-0.041 0.318 0.097 0.403s0.318 0.041 0.403-0.097c0.293-0.48 0.448-1.032 0.448-1.597 0-1.691-1.376-3.067-3.067-3.067s-3.067 1.376-3.067 3.067c0 1.593 1.22 2.905 2.774 3.053v11.819c-0.344 0.1-0.616 0.372-0.717 0.717h-1.765c-0.162 0-0.293 0.131-0.293 0.293s0.131 0.293 0.293 0.293h1.765c0.127 0.438 0.531 0.758 1.009 0.758s0.882-0.321 1.009-0.758h4.914c0.127 0.438 0.531 0.758 1.009 0.758s0.882-0.321 1.009-0.758h4.914c0.127 0.438 0.531 0.758 1.009 0.758s0.882-0.321 1.009-0.758h1.765c0.162 0 0.293-0.131 0.293-0.293s-0.131-0.293-0.293-0.293zM3.067 19.414c-0.257 0-0.465-0.209-0.465-0.465s0.209-0.465 0.465-0.465c0.257 0 0.465 0.209 0.465 0.465s-0.209 0.465-0.465 0.465zM10 19.414c-0.257 0-0.465-0.209-0.465-0.465 0-0 0-0 0-0s0-0 0-0c0-0.257 0.209-0.465 0.465-0.465s0.465 0.209 0.465 0.465-0.209 0.465-0.465 0.465zM16.933 19.414c-0.257 0-0.465-0.209-0.465-0.465s0.209-0.465 0.465-0.465c0.257 0 0.465 0.209 0.465 0.465s-0.209 0.465-0.465 0.465z"></path>
<path d="M16.933 2.774c-0.162 0-0.293 0.131-0.293 0.293s0.131 0.293 0.293 0.293h0.038c0.162 0 0.293-0.131 0.293-0.293s-0.131-0.293-0.293-0.293h-0.038z"></path>
<path d="M15.966 2.774c-0.162 0-0.293 0.131-0.293 0.293s0.131 0.293 0.293 0.293h0.038c0.162 0 0.293-0.131 0.293-0.293s-0.131-0.293-0.293-0.293h-0.038z"></path>
<path d="M9.431 9.031c-0.162 0-0.293 0.131-0.293 0.293s0.131 0.293 0.293 0.293h1.138c0.162 0 0.293-0.131 0.293-0.293s-0.131-0.293-0.293-0.293h-1.138z"></path>
<path d="M17.862 2.774c-0.162 0-0.293 0.131-0.293 0.293s0.131 0.293 0.293 0.293h0.038c0.162 0 0.293-0.131 0.293-0.293s-0.131-0.293-0.293-0.293h-0.038z"></path>
<path d="M11.241 8.186c0-0.162-0.131-0.293-0.293-0.293h-1.896c-0.162 0-0.293 0.131-0.293 0.293s0.131 0.293 0.293 0.293h1.896c0.162 0 0.293-0.131 0.293-0.293z"></path>
</svg>
