<!-- Generated by IcoMoon.io -->
<svg version="1.1" xmlns="http://www.w3.org/2000/svg" width="20" height="20" viewBox="0 0 20 20">
<title>tools</title>
<path d="M19.909 14.434l-2.71-2.71c-0.066-0.066-0.157-0.099-0.249-0.090l-2.593 0.236c-0.073 0.007-0.141 0.039-0.193 0.090l-0.25 0.25-2.898-2.898 2.967-2.967 0.486 0.486c0.061 0.061 0.141 0.092 0.221 0.092s0.16-0.031 0.221-0.092l2.003-2.003c0.026-0.026 0.048-0.058 0.063-0.092l1.178-2.593c0.054-0.119 0.029-0.258-0.063-0.35l-0.943-0.943c-0.092-0.092-0.232-0.117-0.35-0.063l-2.593 1.178c-0.034 0.016-0.065 0.037-0.092 0.063l-2.003 2.003c-0.122 0.122-0.122 0.32 0 0.442l0.486 0.486-2.967 2.967-1.757-1.757 0.25-0.25c0.052-0.052 0.084-0.12 0.090-0.193l0.236-2.593c0.008-0.092-0.025-0.184-0.090-0.249l-2.71-2.71c-0.122-0.122-0.32-0.122-0.442 0l-1.178 1.178c-0.122 0.122-0.122 0.32 0 0.442l2.018 2.018-2.151 2.151-2.018-2.018c-0.122-0.122-0.32-0.122-0.442 0l-1.179 1.178c-0.122 0.122-0.122 0.32 0 0.442l2.71 2.71c0.059 0.059 0.138 0.092 0.221 0.092 0.009 0 0.019-0 0.028-0.001l2.593-0.236c0.073-0.007 0.141-0.039 0.193-0.090l0.25-0.25 1.757 1.757-1.217 1.217-0.368-0.368c-0.090-0.090-0.227-0.117-0.344-0.066l-1.644 0.705c-0 0-0 0-0.001 0l-0.005 0.002c-0.002 0.001-0.005 0.002-0.007 0.003-0.006 0.003-0.013 0.006-0.019 0.009-0.004 0.002-0.008 0.004-0.011 0.007-0.005 0.003-0.010 0.006-0.015 0.009s-0.010 0.007-0.014 0.011c-0.003 0.003-0.007 0.005-0.010 0.008-0.006 0.005-0.011 0.010-0.016 0.015-0.002 0.002-0.004 0.003-0.005 0.005l-0.004 0.004c-0 0-0.001 0.001-0.001 0.001l-3.643 3.643c-0 0-0 0-0 0l-0.005 0.005c-0.002 0.002-0.004 0.004-0.005 0.006-0.005 0.005-0.009 0.010-0.014 0.015-0.003 0.004-0.006 0.008-0.009 0.012s-0.006 0.008-0.009 0.012c-0.004 0.006-0.007 0.011-0.011 0.017-0.001 0.002-0.003 0.004-0.004 0.007l-0.004 0.006c-0 0-0 0-0 0l-0.586 1.054c-0.068 0.122-0.046 0.274 0.052 0.373l2.593 2.593c0.060 0.060 0.14 0.092 0.221 0.092 0.052 0 0.104-0.013 0.152-0.039l1.061-0.589c0.003-0.001 0.005-0.003 0.007-0.005 0.006-0.003 0.011-0.007 0.016-0.010 0.004-0.003 0.008-0.006 0.013-0.009s0.008-0.006 0.012-0.009c0.005-0.004 0.010-0.009 0.015-0.014 0.002-0.002 0.004-0.004 0.006-0.005l0.005-0.005c0-0 0-0 0-0l3.648-3.648c0.004-0.004 0.008-0.008 0.011-0.013 0.003-0.003 0.005-0.006 0.008-0.008 0.001-0.001 0.002-0.002 0.002-0.003 0.008-0.010 0.015-0.020 0.021-0.030 0.001-0.002 0.003-0.004 0.004-0.007 0.007-0.011 0.013-0.023 0.018-0.035 0-0.001 0.001-0.002 0.002-0.003l0.002-0.005c0-0 0-0.001 0.001-0.001l0.705-1.644c0.050-0.117 0.024-0.254-0.066-0.344l-0.368-0.368 1.217-1.217 2.898 2.898-0.25 0.25c-0.052 0.052-0.084 0.12-0.090 0.193l-0.236 2.593c-0.008 0.092 0.025 0.184 0.090 0.249l2.71 2.71c0.061 0.061 0.141 0.092 0.221 0.092s0.16-0.031 0.221-0.092l1.178-1.178c0.122-0.122 0.122-0.32 0-0.442l-2.018-2.018 2.151-2.151 2.018 2.018c0.122 0.122 0.32 0.122 0.442 0l1.178-1.178c0.122-0.122 0.122-0.32 0-0.442zM14.517 2.511l2.344-1.065 0.636 0.636-1.065 2.344-1.742 1.742-1.915-1.915 1.742-1.742zM13.040 5.402l0.501 0.501-2.967 2.967-0.501-0.501 2.967-2.967zM6.032 7.128l-0.391 0.391-2.334 0.212-2.386-2.386 0.737-0.737 2.018 2.018c0.122 0.122 0.32 0.122 0.442 0l2.593-2.593c0.122-0.122 0.122-0.32 0-0.442l-2.018-2.018 0.737-0.737 2.386 2.386-0.212 2.334-1.57 1.57zM4.555 11.766l0.265 0.265-3.211 3.211-0.265-0.265 3.211-3.211zM2.434 16.067l-0.383-0.383 3.211-3.211 0.383 0.383-3.211 3.211zM6.087 13.298l0.383 0.383-3.211 3.211-0.383-0.383 3.211-3.211zM2.959 18.242l-2.259-2.259 0.274-0.492 2.478 2.478-0.492 0.274zM3.966 17.599l-0.265-0.265 3.211-3.211 0.265 0.265-3.211 3.211zM7.513 13.84l-1.203-1.203c-0.001-0.001-0.001-0.001-0.002-0.002s-0.001-0.001-0.002-0.002l-1.204-1.204 1.031-0.442 1.822 1.822-0.442 1.031zM7.737 11.707l-0.501-0.501 1.217-1.217 0.501 0.501-1.217 1.217zM9.616 10.269l-2.921-2.921 0.737-0.737 6.039 6.039-0.737 0.737-3.119-3.119zM18.509 15.391l-2.018-2.018c-0.122-0.122-0.32-0.122-0.442 0l-2.593 2.593c-0.122 0.122-0.122 0.32 0 0.442l2.018 2.018-0.737 0.737-2.386-2.386 0.212-2.334 1.57-1.57c0-0 0-0 0-0l0.391-0.391 2.334-0.212 2.386 2.386-0.737 0.737z"></path>
</svg>
