<!-- Generated by IcoMoon.io -->
<svg version="1.1" xmlns="http://www.w3.org/2000/svg" width="20" height="20" viewBox="0 0 20 20">
<title>tools-1</title>
<path d="M19.656 17.349l-4.387-4.387 0.278-0.741c0.052-0.138 0.018-0.294-0.086-0.399l-0.655-0.655c-0.147-0.147-0.385-0.147-0.533 0l-0.822 0.822-1.719-1.719 3.812-3.812c0.366-0.366 0.829-0.647 1.339-0.811 0.436-0.14 0.837-0.386 1.162-0.71 0.561-0.561 0.863-1.307 0.851-2.101s-0.339-1.531-0.919-2.075c-0.095-0.089-0.228-0.123-0.354-0.090s-0.225 0.128-0.264 0.252l-0.478 1.531c-0.059 0.189-0.188 0.344-0.364 0.436s-0.377 0.11-0.566 0.051c-0.312-0.097-0.522-0.382-0.522-0.708 0-0.075 0.011-0.149 0.034-0.222l0.472-1.513c0.039-0.125 0.010-0.26-0.075-0.359s-0.216-0.146-0.345-0.125c-0.539 0.087-1.038 0.323-1.444 0.68-0.715 0.628-1.078 1.567-0.973 2.51 0.108 0.968-0.237 1.931-0.947 2.641l-2.424 2.423-5.233-5.233-0.095-1.026c-0.011-0.117-0.075-0.222-0.175-0.284l-2.66-1.668c-0.149-0.093-0.342-0.071-0.466 0.053l-0.992 0.992c-0.124 0.124-0.146 0.318-0.053 0.466l1.668 2.66c0.062 0.099 0.167 0.164 0.284 0.175l1.026 0.095 5.233 5.233-3.812 3.811c-0.366 0.366-0.83 0.647-1.34 0.811-0.441 0.142-0.832 0.381-1.162 0.711-0.561 0.561-0.863 1.307-0.851 2.101s0.339 1.53 0.919 2.074c0.095 0.089 0.228 0.123 0.354 0.090s0.225-0.128 0.264-0.252l0.478-1.531c0.059-0.189 0.188-0.344 0.364-0.436 0.171-0.090 0.366-0.109 0.551-0.056 0.005 0.002 0.010 0.003 0.015 0.005 0.39 0.122 0.609 0.539 0.487 0.929l-0.472 1.513c-0.039 0.125-0.011 0.26 0.075 0.359 0.072 0.083 0.176 0.13 0.284 0.13 0.020 0 0.040-0.002 0.061-0.005 0.538-0.087 1.037-0.322 1.444-0.68 0.714-0.628 1.078-1.567 0.973-2.51-0.108-0.968 0.237-1.93 0.947-2.64l2.424-2.423 1.719 1.719-0.822 0.822c-0.147 0.147-0.147 0.386 0 0.533l0.655 0.655c0.104 0.104 0.26 0.138 0.399 0.086l0.741-0.278 4.387 4.387c0.229 0.229 0.53 0.344 0.831 0.344s0.602-0.115 0.831-0.344l0.645-0.645c0.458-0.458 0.458-1.204-0-1.662zM12.687 6.378c0.873-0.873 1.297-2.060 1.163-3.257-0.078-0.699 0.191-1.394 0.722-1.861 0.132-0.116 0.277-0.214 0.432-0.294l-0.256 0.821c-0.045 0.145-0.068 0.295-0.068 0.446 0 0.657 0.422 1.23 1.050 1.427 0.787 0.245 1.627-0.195 1.873-0.982l0.266-0.853c0.174 0.308 0.269 0.657 0.275 1.022 0.009 0.588-0.215 1.141-0.63 1.557-0.244 0.244-0.533 0.421-0.86 0.526-0.624 0.201-1.191 0.545-1.641 0.996l-3.812 3.811-0.936-0.936 2.423-2.423zM7.314 13.622c-0.873 0.873-1.297 2.060-1.163 3.256 0.078 0.699-0.192 1.395-0.721 1.861-0.132 0.116-0.277 0.214-0.432 0.293l0.256-0.821c0.243-0.78-0.188-1.613-0.962-1.866-0.007-0.003-0.014-0.005-0.021-0.007-0.381-0.119-0.786-0.082-1.14 0.103s-0.614 0.498-0.733 0.879l-0.266 0.853c-0.174-0.308-0.27-0.657-0.275-1.022-0.009-0.588 0.215-1.141 0.63-1.557 0.244-0.244 0.534-0.421 0.86-0.526 0.624-0.201 1.191-0.545 1.642-0.996l3.812-3.811 0.936 0.936-2.424 2.423zM3.435 3.831c-0.074-0.074-0.17-0.11-0.266-0.11-0.042 0-0.084 0.007-0.125 0.021l-0.779-0.072-1.41-2.248 0.567-0.567 2.248 1.41 0.072 0.779c-0.014 0.040-0.021 0.082-0.021 0.124 0 0.1 0.040 0.196 0.11 0.266l9.087 9.087-0.396 0.396-9.087-9.087zM12.848 14.507l-0.665 0.249-0.217-0.217 2.574-2.574 0.217 0.217-0.249 0.665-1.66 1.66zM19.124 18.478l-0.645 0.645c-0.165 0.165-0.432 0.165-0.597 0l-4.292-4.292 1.242-1.242 4.292 4.292c0.165 0.165 0.165 0.432 0 0.597z"></path>
</svg>
