<!-- Generated by IcoMoon.io -->
<svg version="1.1" xmlns="http://www.w3.org/2000/svg" width="20" height="20" viewBox="0 0 20 20">
<title>tool</title>
<path d="M12.106 20v0l-4.212-0.001c-0.316 0-0.572-0.256-0.572-0.572v-1.659c-0.316-0.109-0.624-0.236-0.923-0.382l-1.173 1.173c-0.108 0.108-0.253 0.168-0.404 0.168v0c-0.151 0-0.297-0.061-0.404-0.168l-2.978-2.978c-0.223-0.223-0.223-0.585 0-0.808l1.173-1.173c-0.146-0.299-0.274-0.607-0.382-0.923h-1.659c-0.151 0-0.297-0.061-0.404-0.167s-0.167-0.253-0.167-0.404v-4.212c0-0.315 0.256-0.571 0.572-0.571h1.659c0.109-0.316 0.236-0.624 0.382-0.923l-1.173-1.173c-0.107-0.107-0.167-0.252-0.167-0.404s0.061-0.297 0.167-0.404l2.979-2.978c0.107-0.108 0.252-0.167 0.404-0.167v0c0.151 0 0.297 0.060 0.404 0.167l1.173 1.173c0.299-0.146 0.607-0.274 0.923-0.382v-1.659c0-0.316 0.256-0.572 0.572-0.572h4.211c0.316 0 0.571 0.256 0.571 0.572v1.659c0.316 0.108 0.625 0.236 0.924 0.382l1.173-1.173c0.223-0.223 0.585-0.223 0.808 0.001l2.979 2.978c0.107 0.107 0.167 0.252 0.167 0.404s-0.061 0.297-0.167 0.404l-1.173 1.173c0.146 0.299 0.274 0.607 0.382 0.923h1.659c0.316 0 0.572 0.256 0.572 0.572v4.212c0 0.151-0.061 0.297-0.167 0.404s-0.253 0.167-0.404 0.167v0h-1.659c-0.109 0.316-0.236 0.625-0.382 0.923l1.173 1.173c0.223 0.223 0.223 0.585 0 0.808l-2.979 2.978c-0.107 0.108-0.252 0.167-0.404 0.167v0c-0.151 0-0.297-0.061-0.404-0.167l-1.173-1.173c-0.299 0.146-0.608 0.274-0.923 0.382v1.659c0 0.151-0.061 0.297-0.167 0.404s-0.252 0.167-0.404 0.167zM8.465 18.856h3.070v-1.507c0-0.255 0.169-0.48 0.415-0.55 0.516-0.147 1.014-0.354 1.482-0.613 0.223-0.124 0.502-0.085 0.682 0.095l1.065 1.065 2.17-2.17-1.065-1.065c-0.18-0.18-0.22-0.458-0.095-0.682 0.259-0.467 0.466-0.965 0.614-1.482 0.070-0.245 0.294-0.415 0.549-0.415v0h1.507v-3.070h-1.507c-0.255 0-0.479-0.169-0.549-0.415-0.147-0.517-0.354-1.015-0.614-1.482-0.124-0.223-0.084-0.502 0.095-0.682l1.065-1.065-2.17-2.17-1.065 1.065c-0.18 0.18-0.458 0.219-0.682 0.095-0.467-0.259-0.966-0.466-1.482-0.614-0.245-0.070-0.415-0.294-0.415-0.549v-1.507h-3.070v1.507c0 0.256-0.169 0.479-0.414 0.549-0.518 0.148-1.016 0.355-1.482 0.614-0.222 0.126-0.5 0.088-0.681-0.093l-1.065-1.066-2.17 2.171 1.065 1.065c0.18 0.18 0.22 0.458 0.095 0.682-0.259 0.467-0.466 0.965-0.614 1.482-0.070 0.245-0.294 0.415-0.549 0.415h-1.507l-0.001 3.070h1.507c0.255 0 0.479 0.169 0.549 0.415 0.147 0.517 0.354 1.015 0.614 1.482 0.124 0.223 0.085 0.5-0.095 0.681l-1.065 1.064 2.17 2.171 1.066-1.066c0.18-0.18 0.458-0.219 0.682-0.095 0.466 0.259 0.965 0.466 1.482 0.613 0.245 0.070 0.414 0.294 0.414 0.55v1.506z"></path>
<path d="M10 14.342c-2.395 0-4.343-1.948-4.343-4.343s1.948-4.343 4.343-4.343c2.395 0 4.343 1.948 4.343 4.343s-1.948 4.343-4.343 4.343zM10 6.8c-1.764 0-3.2 1.435-3.2 3.2s1.435 3.2 3.2 3.2 3.2-1.435 3.2-3.2c0-1.764-1.436-3.2-3.2-3.2z"></path>
</svg>
