<!-- Generated by IcoMoon.io -->
<svg version="1.1" xmlns="http://www.w3.org/2000/svg" width="20" height="20" viewBox="0 0 20 20">
<title>transfer</title>
<path d="M19.667 15.638c0-0.278-0.225-0.503-0.503-0.503h-17.118l3.009-3.009c0.196-0.196 0.196-0.511 0-0.707s-0.511-0.196-0.707 0l-3.863 3.863c-0.196 0.196-0.196 0.511 0 0.707l3.863 3.863c0.098 0.098 0.225 0.147 0.356 0.147s0.258-0.049 0.356-0.147c0.196-0.196 0.196-0.511 0-0.707l-3.009-3.009h17.122c0.27 0 0.495-0.221 0.495-0.499z"></path>
<path d="M19.519 4.007l-3.863-3.859c-0.196-0.196-0.511-0.196-0.707 0s-0.196 0.511 0 0.707l3.009 3.009h-17.122c-0.278 0-0.503 0.225-0.503 0.503s0.225 0.503 0.503 0.503h17.122l-3.009 3.001c-0.196 0.196-0.196 0.511 0 0.707 0.098 0.098 0.225 0.147 0.356 0.147s0.258-0.049 0.356-0.147l3.863-3.863c0.192-0.192 0.192-0.511-0.004-0.707z"></path>
</svg>
