<!-- Generated by IcoMoon.io -->
<svg version="1.1" xmlns="http://www.w3.org/2000/svg" width="20" height="20" viewBox="0 0 20 20">
<title>university-with-a-flag-1</title>
<path d="M17.708 18.426h-0.833v-9.907c0-0.417-0.37-0.787-0.787-0.787h-1.62c-0.37-1.713-1.852-3.009-3.75-3.333v-0.602h2.639c0.417 0 0.787-0.324 0.787-0.787v-1.713c0-0.417-0.37-0.787-0.787-0.787h-2.685c-0.093-0.278-0.37-0.509-0.741-0.509-0.417 0-0.787 0.37-0.787 0.787v3.611c-1.898 0.278-3.426 1.62-3.75 3.333h-1.62c-0.417 0-0.787 0.37-0.787 0.787v9.907h-0.741c-0.417 0-0.787 0.324-0.787 0.787s0.37 0.787 0.787 0.787h15.509c0.417 0 0.787-0.37 0.787-0.787s-0.37-0.787-0.833-0.787zM8.727 9.306h2.5v1.759h-2.5v-1.759zM8.727 16.065h2.5v1.759h-2.5v-1.759zM12.755 16.065h2.546v1.759h-2.546v-1.759zM15.347 14.491h-2.593v-1.898h2.546v1.898h0.046zM11.227 12.593v1.898h-2.5v-1.898h2.5zM7.199 14.491h-2.546v-1.898h2.546v1.898zM4.606 16.065h2.593v1.759h-2.546v-1.759h-0.046zM15.347 11.065h-2.593v-1.759h2.546v1.759h0.046zM4.606 9.306h2.593v1.759h-2.546v-1.759h-0.046z"></path>
</svg>
