<!-- Generated by IcoMoon.io -->
<svg version="1.1" xmlns="http://www.w3.org/2000/svg" width="20" height="20" viewBox="0 0 20 20">
<title>users-checked-user-icon</title>
<path d="M7.598 0.145c-2.332 0.293-3.691 1.996-3.691 4.621 0 1.813 0.676 3.742 1.75 4.988 0.277 0.32 0.359 0.551 0.359 0.992 0 0.207-0.023 0.301-0.121 0.496-0.172 0.344-0.352 0.48-0.949 0.715-1.609 0.633-2.98 1.414-3.816 2.168-0.477 0.43-0.711 0.73-0.906 1.141l-0.125 0.262v0.703c0 0.684 0.004 0.711 0.105 0.93 0.184 0.395 0.621 0.789 1.191 1.074 0.387 0.195 1.23 0.457 1.887 0.586 1.348 0.266 2.691 0.363 4.93 0.367 0.875 0 1.645-0.012 1.711-0.027l0.125-0.027-0.289-0.211c-0.156-0.113-0.512-0.328-0.793-0.469-0.652-0.336-0.898-0.508-1.148-0.785-0.566-0.633-0.727-1.57-0.406-2.395 0.098-0.25 0.563-0.977 0.895-1.406 0.301-0.387 0.781-0.684 1.297-0.805 0.418-0.098 1.105-0.059 1.555 0.090 0.43 0.141 0.906 0.395 1.305 0.695l0.293 0.219 0.137-0.164c0.074-0.090 0.254-0.305 0.402-0.477 0.145-0.176 0.262-0.328 0.262-0.34 0-0.035-0.891-0.488-1.406-0.715-0.27-0.117-0.734-0.305-1.035-0.418-0.582-0.215-0.711-0.301-0.852-0.566-0.113-0.223-0.137-0.707-0.047-1.082 0.063-0.25 0.105-0.328 0.352-0.637 0.332-0.418 0.457-0.598 0.688-1.016 0.453-0.813 0.793-1.828 0.938-2.813 0.078-0.527 0.070-1.746-0.016-2.207-0.32-1.711-1.336-2.898-2.84-3.332-0.52-0.152-1.258-0.219-1.738-0.156z"></path>
<path d="M19.375 10.855c-1.703 0.711-2.93 1.527-4.164 2.758-0.883 0.879-1.527 1.734-1.977 2.617-0.113 0.227-0.215 0.41-0.227 0.41-0.012-0.004-0.125-0.145-0.254-0.32-0.461-0.621-1.207-1.301-1.719-1.563-0.23-0.121-0.637-0.227-0.863-0.227-0.137 0-0.262 0.031-0.41 0.105-0.188 0.098-0.246 0.16-0.547 0.598-0.363 0.531-0.426 0.668-0.426 0.918 0 0.383 0.176 0.574 0.832 0.902 1.148 0.574 1.949 1.27 2.645 2.301 0.332 0.496 0.645 0.648 0.992 0.496 0.23-0.105 0.301-0.219 0.711-1.141 0.906-2.055 1.176-2.59 1.77-3.547 0.988-1.594 2.309-3.066 3.766-4.199 0.293-0.23 0.375-0.305 0.332-0.301-0.008 0.004-0.215 0.086-0.461 0.191z"></path>
</svg>
