<!-- Generated by IcoMoon.io -->
<svg version="1.1" xmlns="http://www.w3.org/2000/svg" width="20" height="20" viewBox="0 0 20 20">
<title>user</title>
<path d="M16.005 14.296l-3.184-1.592c-0.3-0.15-0.487-0.452-0.487-0.788v-1.127c0.076-0.093 0.157-0.2 0.24-0.317 0.413-0.583 0.744-1.233 0.985-1.933 0.47-0.216 0.776-0.681 0.776-1.206v-1.333c0-0.321-0.12-0.632-0.333-0.875v-1.773c0.019-0.183 0.092-1.275-0.697-2.175-0.685-0.781-1.796-1.177-3.303-1.177s-2.618 0.396-3.303 1.177c-0.789 0.9-0.716 1.992-0.697 2.175v1.773c-0.213 0.243-0.333 0.554-0.333 0.875v1.333c0 0.406 0.184 0.784 0.499 1.036 0.305 1.209 0.944 2.12 1.168 2.412v1.103c0 0.323-0.176 0.619-0.459 0.773l-2.974 1.622c-0.967 0.528-1.567 1.539-1.567 2.64v1.079c0 1.582 5.015 2 7.667 2s7.667-0.418 7.667-2v-1.014c0-1.146-0.637-2.177-1.662-2.689z"></path>
</svg>
