<!-- Generated by IcoMoon.io -->
<svg version="1.1" xmlns="http://www.w3.org/2000/svg" width="20" height="20" viewBox="0 0 20 20">
<title>volkswagen-car-side-view</title>
<path d="M19.58 11.63h-0.558c-0.138-0.696-0.383-1.649-0.773-2.154-1.822-2.363-4.11-3.632-6.986-3.632-1.864 0-3.077 0.182-3.709 0.557-0.085 0.051-0.337 0.2-1.016 1.566-0.992 0.016-3.616 0.196-4.874 1.614-0.632 0.712-0.883 1.476-0.98 2.048h-0.263c-0.233 0-0.421 0.188-0.421 0.421s0.188 0.421 0.42 0.421h0.21c0.002 0.023 0.004 0.040 0.004 0.045 0.022 0.213 0.203 0.376 0.418 0.376h0.53c0.325 0.742 1.065 1.263 1.927 1.263s1.601-0.521 1.928-1.263h8.028c0.325 0.742 1.065 1.263 1.927 1.263s1.602-0.521 1.927-1.263h1.419c0.003 0 0.006 0 0.008 0 0.232 0 0.421-0.188 0.421-0.421h0.414c0.232 0 0.42-0.189 0.42-0.421s-0.188-0.421-0.42-0.421zM3.509 13.314c-0.696 0-1.263-0.566-1.263-1.263s0.566-1.264 1.263-1.264c0.697 0 1.264 0.567 1.264 1.264s-0.567 1.263-1.264 1.263zM10.972 8.417c0 0.116-0.094 0.211-0.211 0.211h-3.27c-0.072 0-0.139-0.038-0.178-0.099s-0.043-0.139-0.011-0.204c0.154-0.317 0.434-0.867 0.568-0.981 0.445-0.283 1.338-0.417 2.676-0.417 0.073 0 0.146 0.001 0.22 0.002 0.114 0.003 0.205 0.096 0.205 0.211l0 1.278zM11.394 8.417v-1.218c0-0.060 0.026-0.117 0.071-0.157s0.104-0.060 0.164-0.052c1.482 0.174 2.621 0.664 3.050 1.311 0.043 0.065 0.046 0.148 0.010 0.216s-0.108 0.111-0.186 0.111h-2.9c-0.115 0-0.21-0.094-0.21-0.211zM15.392 13.314c-0.696 0-1.263-0.566-1.263-1.263s0.567-1.264 1.263-1.264 1.263 0.567 1.263 1.264c0 0.697-0.567 1.263-1.263 1.263z"></path>
</svg>
