<!-- Generated by IcoMoon.io -->
<svg version="1.1" xmlns="http://www.w3.org/2000/svg" width="20" height="20" viewBox="0 0 20 20">
<title>warning</title>
<path d="M19.782 16.466l-8.393-14.537c-0.618-1.070-2.161-1.070-2.779 0l-8.393 14.537c-0.618 1.070 0.154 2.407 1.39 2.407h16.786c1.236 0 2.008-1.337 1.39-2.407zM18.393 17.403h-16.786c-0.104 0-0.168-0.111-0.116-0.201l8.393-14.537c0.052-0.090 0.18-0.091 0.232 0l8.393 14.537c0.052 0.090-0.012 0.201-0.116 0.201z"></path>
<path d="M10 7.226c-0.406 0-0.735 0.329-0.735 0.735v4.214c0 0.406 0.329 0.735 0.735 0.735s0.735-0.329 0.735-0.735v-4.214c0-0.406-0.329-0.735-0.735-0.735z"></path>
<path d="M10 13.866c-0.406 0-0.735 0.329-0.735 0.735v0.439c0 0.406 0.329 0.735 0.735 0.735s0.735-0.329 0.735-0.735v-0.439c0-0.406-0.329-0.735-0.735-0.735z"></path>
</svg>
