<!-- Generated by IcoMoon.io -->
<svg version="1.1" xmlns="http://www.w3.org/2000/svg" width="20" height="20" viewBox="0 0 20 20">
<title>warning2</title>
<path d="M19.823 16.87l-8.689-15.052c-0.504-0.872-1.765-0.872-2.268 0l-8.689 15.052c-0.504 0.872 0.127 1.965 1.134 1.965h17.377c1.007 0 1.638-1.093 1.134-1.965zM10.012 6.454c0.557 0 1.007 0.463 0.991 1.020l-0.164 5.716c-0.012 0.45-0.381 0.807-0.831 0.807s-0.819-0.36-0.831-0.807l-0.16-5.716c-0.012-0.557 0.434-1.020 0.995-1.020zM10 16.792c-0.569 0-1.032-0.463-1.032-1.032s0.463-1.032 1.032-1.032 1.032 0.463 1.032 1.032-0.463 1.032-1.032 1.032z"></path>
</svg>
