<!-- Generated by IcoMoon.io -->
<svg version="1.1" xmlns="http://www.w3.org/2000/svg" width="20" height="20" viewBox="0 0 20 20">
<title>wrench</title>
<path d="M19.142 3.329l-0.017-0.017c-0.192-0.192-0.504-0.192-0.696 0.001l-2.334 2.334-1.741-1.741 2.334-2.334c0.192-0.192 0.192-0.504 0-0.697l-0.017-0.017c-1.143-1.143-3.002-1.143-4.145 0l-1.109 1.109c-0.901 0.901-1.052 2.294-0.42 3.345l-5.686 5.686c-1.052-0.633-2.444-0.482-3.345 0.42l-1.109 1.109c-1.143 1.143-1.143 3.002 0.001 4.145l0.017 0.017c0.193 0.192 0.504 0.192 0.696-0.001l2.334-2.334 1.741 1.741-2.334 2.334c-0.192 0.192-0.192 0.504 0 0.697l0.017 0.017c0.571 0.571 1.322 0.857 2.072 0.857s1.501-0.286 2.072-0.857l1.109-1.109c0.905-0.905 1.042-2.314 0.387-3.382l5.682-5.682c1.068 0.655 2.477 0.518 3.382-0.387l1.109-1.109c1.143-1.143 1.143-3.002-0.001-4.145zM18.446 6.778l-1.109 1.109c-0.65 0.65-1.71 0.679-2.412 0.066-0.195-0.17-0.489-0.16-0.672 0.023l-6.278 6.278c-0.183 0.183-0.193 0.477-0.023 0.672 0.613 0.702 0.584 1.762-0.066 2.412l-1.109 1.109c-0.645 0.645-1.633 0.741-2.38 0.291l2.293-2.293c0.092-0.092 0.144-0.218 0.144-0.348s-0.052-0.256-0.144-0.348l-2.438-2.438c-0.092-0.092-0.218-0.144-0.348-0.144s-0.256 0.052-0.348 0.144l-2.293 2.293c-0.451-0.748-0.354-1.736 0.291-2.381l1.109-1.109c0.639-0.639 1.705-0.683 2.378-0.1 0.195 0.169 0.488 0.159 0.671-0.024l6.278-6.278c0.183-0.183 0.193-0.476 0.024-0.671-0.584-0.673-0.539-1.739 0.1-2.378l1.109-1.109c0.645-0.645 1.633-0.741 2.38-0.291l-2.293 2.293c-0.092 0.092-0.144 0.218-0.144 0.348s0.052 0.256 0.144 0.348l2.438 2.438c0.092 0.092 0.218 0.144 0.348 0.144s0.256-0.052 0.348-0.144l2.293-2.293c0.451 0.748 0.354 1.736-0.291 2.381z"></path>
<path d="M13.1 6.9c-0.192-0.192-0.504-0.192-0.697 0l-5.503 5.503c-0.192 0.192-0.192 0.504 0 0.697 0.096 0.096 0.222 0.144 0.348 0.144s0.252-0.048 0.348-0.144l5.503-5.503c0.192-0.192 0.192-0.504 0-0.697z"></path>
</svg>
