<!-- Generated by IcoMoon.io -->
<svg version="1.1" xmlns="http://www.w3.org/2000/svg" width="20" height="20" viewBox="0 0 20 20">
<title>xlsx-file-format-extension</title>
<path d="M17.735 7.154h-0.48v-2.317c0-0.014-0.002-0.029-0.004-0.044-0.001-0.092-0.030-0.182-0.093-0.254l-3.856-4.405c-0.001-0.001-0.002-0.002-0.003-0.003-0.023-0.026-0.050-0.047-0.078-0.066-0.008-0.006-0.017-0.010-0.026-0.015-0.025-0.013-0.051-0.025-0.077-0.033-0.007-0.002-0.014-0.005-0.021-0.007-0.029-0.007-0.059-0.011-0.090-0.011h-9.477c-0.433 0-0.784 0.352-0.784 0.784v6.369h-0.48c-0.619 0-1.121 0.502-1.121 1.121v5.829c0 0.619 0.502 1.121 1.121 1.121h0.48v3.991c0 0.432 0.352 0.784 0.784 0.784h12.941c0.432 0 0.784-0.352 0.784-0.784v-3.991h0.48c0.619 0 1.121-0.502 1.121-1.121v-5.829c0-0.619-0.502-1.121-1.121-1.121zM3.529 0.784h9.085v4.013c0 0.217 0.176 0.392 0.392 0.392h3.464v1.965h-12.941v-6.37zM11.475 11.478c-0.771-0.268-1.273-0.695-1.273-1.369 0-0.791 0.661-1.397 1.755-1.397 0.523 0 0.908 0.11 1.183 0.234l-0.234 0.846c-0.186-0.089-0.516-0.22-0.97-0.22s-0.674 0.207-0.674 0.447c0 0.296 0.262 0.427 0.86 0.654 0.819 0.303 1.204 0.73 1.204 1.383 0 0.778-0.599 1.438-1.872 1.438-0.53 0-1.053-0.137-1.314-0.282l0.213-0.867c0.282 0.144 0.716 0.289 1.163 0.289 0.482 0 0.736-0.2 0.736-0.502 0-0.289-0.22-0.454-0.777-0.654zM9.7 12.544v0.881h-2.898v-4.639h1.053v3.758h1.844zM3.437 13.426h-1.197l1.342-2.347-1.294-2.292h1.205l0.406 0.847c0.138 0.282 0.241 0.509 0.351 0.771h0.013c0.11-0.296 0.2-0.502 0.316-0.771l0.392-0.847h1.197l-1.308 2.264 1.377 2.375h-1.211l-0.42-0.84c-0.172-0.323-0.282-0.564-0.413-0.833h-0.014c-0.096 0.268-0.213 0.51-0.358 0.833l-0.385 0.84zM16.471 19.003h-12.941v-3.778h12.941v3.778zM16.478 13.426l-0.42-0.84c-0.172-0.323-0.282-0.564-0.413-0.833h-0.013c-0.097 0.268-0.214 0.509-0.358 0.833l-0.385 0.84h-1.198l1.342-2.347-1.294-2.292h1.204l0.406 0.847c0.138 0.282 0.24 0.509 0.351 0.771h0.014c0.11-0.296 0.199-0.502 0.316-0.771l0.392-0.847h1.198l-1.308 2.264 1.376 2.375-1.211 0z"></path>
</svg>
