<?xml version="1.0" encoding="UTF-8" standalone="no"?>
<svg
   xmlns:dc="http://purl.org/dc/elements/1.1/"
   xmlns:cc="http://creativecommons.org/ns#"
   xmlns:rdf="http://www.w3.org/1999/02/22-rdf-syntax-ns#"
   xmlns:svg="http://www.w3.org/2000/svg"
   xmlns="http://www.w3.org/2000/svg"
   height="271.67401"
   width="271.673"
   xml:space="preserve"
   viewBox="0 0 271.673 271.67401"
   y="0px"
   x="0px"
   id="Capa_1"
   version="1.1"><metadata
   id="metadata51"><rdf:RDF><cc:Work
       rdf:about=""><dc:format>image/svg+xml</dc:format><dc:type
         rdf:resource="http://purl.org/dc/dcmitype/StillImage" /></cc:Work></rdf:RDF></metadata><defs
   id="defs49" />
<g
   id="g14">
	<g
   id="g12">
		<g
   id="g10">
			<path
   id="path2"
   d="M 114.939,0 H 10.449 C 4.678,0 0,4.678 0,10.449 v 104.49 c 0,5.771 4.678,10.449 10.449,10.449 h 104.49 c 5.771,0 10.449,-4.678 10.449,-10.449 V 10.449 C 125.388,4.678 120.71,0 114.939,0 Z" />
			<path
   id="path4"
   d="m 261.224,0 h -104.49 c -5.771,0 -10.449,4.678 -10.449,10.449 v 104.49 c 0,5.771 4.678,10.449 10.449,10.449 h 104.49 c 5.771,0 10.449,-4.678 10.449,-10.449 V 10.449 C 271.673,4.678 266.995,0 261.224,0 Z" />
			<path
   id="path6"
   d="M 114.939,146.286 H 10.449 C 4.678,146.286 0,150.964 0,156.735 v 104.49 c 0,5.771 4.678,10.449 10.449,10.449 h 104.49 c 5.771,0 10.449,-4.678 10.449,-10.449 v -104.49 c 0,-5.771 -4.678,-10.449 -10.449,-10.449 z" />
			<path
   id="path8"
   d="m 261.224,146.286 h -104.49 c -5.771,0 -10.449,4.678 -10.449,10.449 v 104.49 c 0,5.771 4.678,10.449 10.449,10.449 h 104.49 c 5.771,0 10.449,-4.678 10.449,-10.449 v -104.49 c 0,-5.771 -4.678,-10.449 -10.449,-10.449 z" />
		</g>
	</g>
</g>
<g
   id="g16">
</g>
<g
   id="g18">
</g>
<g
   id="g20">
</g>
<g
   id="g22">
</g>
<g
   id="g24">
</g>
<g
   id="g26">
</g>
<g
   id="g28">
</g>
<g
   id="g30">
</g>
<g
   id="g32">
</g>
<g
   id="g34">
</g>
<g
   id="g36">
</g>
<g
   id="g38">
</g>
<g
   id="g40">
</g>
<g
   id="g42">
</g>
<g
   id="g44">
</g>
</svg>