<?xml version="1.0" standalone="no"?>
<!DOCTYPE svg PUBLIC "-//W3C//DTD SVG 20010904//EN"
 "http://www.w3.org/TR/2001/REC-SVG-20010904/DTD/svg10.dtd">
<svg version="1.0" xmlns="http://www.w3.org/2000/svg"
 width="641.000000pt" height="642.000000pt" viewBox="0 0 641.000000 642.000000"
 preserveAspectRatio="xMidYMid meet">
<metadata>
Created by potrace 1.15, written by Peter Selinger 2001-2017
</metadata>
<g transform="translate(0.000000,642.000000) scale(0.100000,-0.100000)"
fill="#000000" stroke="none">
<path d="M305 6406 c-115 -37 -202 -113 -257 -223 l-33 -68 0 -620 0 -620 32
-66 c42 -86 138 -177 220 -211 l58 -23 605 0 605 0 58 23 c82 34 178 125 220
211 l32 66 0 620 0 620 -33 68 c-44 89 -114 160 -199 200 l-68 32 -600 2
c-465 2 -609 -1 -640 -11z"/>
<path d="M2570 5641 c-118 -63 -108 -244 17 -297 27 -12 330 -14 1861 -14
l1828 0 44 23 c62 31 92 84 87 155 -4 59 -25 94 -77 130 l-33 22 -1846 0
c-1778 0 -1848 -1 -1881 -19z"/>
<path d="M340 4129 c-120 -23 -230 -110 -287 -227 l-38 -76 -5 -560 c-3 -309
-2 -589 2 -624 19 -166 157 -315 326 -351 36 -7 232 -11 595 -11 458 0 552 2
602 16 123 31 216 108 273 222 l37 76 0 615 0 616 -32 68 c-58 122 -174 213
-302 237 -66 12 -1107 12 -1171 -1z"/>
<path d="M2597 3366 c-72 -26 -109 -79 -109 -156 0 -80 45 -139 122 -160 25
-7 649 -9 1862 -8 l1823 3 37 23 c42 26 78 92 78 142 0 50 -36 116 -78 142
l-37 23 -1830 2 c-1526 2 -1836 0 -1868 -11z"/>
<path d="M298 1831 c-31 -10 -72 -28 -91 -39 -55 -35 -136 -127 -165 -189
l-27 -58 -5 -560 c-3 -308 -2 -589 2 -624 16 -138 107 -263 236 -324 l67 -32
615 0 615 0 55 26 c113 54 196 146 230 256 19 62 20 92 20 637 0 614 -1 628
-52 716 -30 50 -106 127 -153 154 -94 55 -101 56 -719 55 -523 0 -576 -2 -628
-18z"/>
<path d="M2568 1070 c-52 -28 -79 -77 -79 -145 0 -69 27 -118 82 -145 38 -20
63 -20 1888 -18 l1850 3 27 21 c54 40 69 70 69 138 0 54 -4 68 -29 100 -54 71
97 66 -1933 66 -1796 -1 -1839 -1 -1875 -20z"/>
</g>
</svg>
