<!-- Generated by IcoMoon.io -->
<svg version="1.1" xmlns="http://www.w3.org/2000/svg" width="32" height="32" viewBox="0 0 32 32">
<title>accounts-folders</title>
<path d="M9.145 8.022h-8.685c-0.254 0-0.461 0.206-0.461 0.461v20.577c0 0.254 0.206 0.461 0.461 0.461h8.685c0.254 0 0.461-0.206 0.461-0.461v-20.577c0-0.254-0.206-0.461-0.461-0.461zM8.685 28.599h-7.763v-19.655h7.763v19.655z"></path>
<path d="M27.419 8.759c-0.057-0.24-0.319-0.397-0.554-0.342l-6.428 1.534c-0.049 0.012-0.092 0.036-0.133 0.061v-7.571c0-0.254-0.206-0.461-0.461-0.461h-8.685c-0.254 0-0.461 0.206-0.461 0.461v26.618c0 0.254 0.206 0.461 0.461 0.461h8.685c0.254 0 0.461-0.206 0.461-0.461v-17.681l4.36 18.287c0.029 0.119 0.102 0.22 0.207 0.286 0.072 0.045 0.155 0.069 0.241 0.069 0.035 0 0.069-0.005 0.107-0.013l6.428-1.534c0.246-0.059 0.399-0.308 0.34-0.556l-4.568-19.159zM19.383 28.599h-7.763v-25.697h7.763v25.697zM25.453 29.003l-4.354-18.264 5.531-1.318 4.354 18.262-5.531 1.319z"></path>
<path d="M4.803 22.030c1.642 0 2.978-1.335 2.978-2.977 0-1.643-1.335-2.978-2.978-2.978s-2.977 1.335-2.977 2.978c0 1.641 1.335 2.977 2.977 2.977zM4.803 16.996c1.134 0 2.056 0.923 2.056 2.057s-0.923 2.056-2.056 2.056-2.056-0.922-2.056-2.056c0-1.134 0.922-2.057 2.056-2.057z"></path>
<path d="M2.286 28.198h5.034c0.254 0 0.461-0.206 0.461-0.461v-1.888c0-0.254-0.206-0.461-0.461-0.461h-5.034c-0.254 0-0.461 0.206-0.461 0.461v1.888c0 0.254 0.206 0.461 0.461 0.461zM2.747 26.309h4.113v0.967h-4.113c0 0 0-0.967 0-0.967z"></path>
<path d="M2.286 13.284h5.034c0.254 0 0.461-0.206 0.461-0.461v-1.887c0-0.254-0.206-0.461-0.461-0.461h-5.034c-0.254 0-0.461 0.206-0.461 0.461v1.887c0 0.254 0.206 0.461 0.461 0.461zM2.747 11.398h4.113v0.966h-4.113c0 0 0-0.966 0-0.966z"></path>
<path d="M15.501 19.954c1.641 0 2.978-1.335 2.978-2.977s-1.335-2.977-2.978-2.977-2.978 1.335-2.978 2.977 1.335 2.977 2.978 2.977zM15.501 14.921c1.134 0 2.056 0.922 2.056 2.056s-0.923 2.056-2.056 2.056c-1.134 0-2.056-0.922-2.056-2.056s0.922-2.056 2.056-2.056z"></path>
<path d="M12.984 28.198h5.033c0.254 0 0.461-0.206 0.461-0.461v-1.888c0-0.254-0.206-0.461-0.461-0.461h-5.033c-0.254 0-0.461 0.206-0.461 0.461v1.888c0 0.254 0.206 0.461 0.461 0.461zM13.445 26.309h4.112v0.967h-4.112v-0.967z"></path>
<path d="M12.984 6.678h5.033c0.254 0 0.461-0.206 0.461-0.461v-1.888c0-0.254-0.206-0.461-0.461-0.461h-5.033c-0.254 0-0.461 0.206-0.461 0.461v1.888c0 0.254 0.206 0.461 0.461 0.461zM13.445 4.79h4.112v0.966h-4.112v-0.966z"></path>
<path d="M25.555 17.172c-0.544 0.13-1.005 0.464-1.299 0.941s-0.384 1.040-0.254 1.584c0.226 0.949 1.064 1.611 2.036 1.611 0.165 0 0.33-0.019 0.49-0.059 1.124-0.269 1.82-1.401 1.551-2.524-0.223-0.933-1.084-1.61-2.048-1.61-0.16 0.001-0.321 0.019-0.476 0.057zM27.184 18.94c0.073 0.304 0.022 0.618-0.142 0.885s-0.423 0.455-0.729 0.528c-0.088 0.021-0.18 0.032-0.27 0.032-0.538 0-1.019-0.38-1.145-0.904-0.073-0.304-0.022-0.621 0.143-0.888s0.423-0.454 0.727-0.526c0.090-0.021 0.182-0.032 0.273-0.032 0.545 0.001 1.015 0.372 1.142 0.904z"></path>
<path d="M25.359 25.841c-0.064 0.103-0.084 0.23-0.056 0.349l0.439 1.837c0.029 0.119 0.102 0.22 0.207 0.286 0.072 0.044 0.155 0.069 0.241 0.069 0.035 0 0.069-0.005 0.108-0.013l3.732-0.893c0.247-0.059 0.399-0.307 0.34-0.554l-0.439-1.837c-0.058-0.243-0.313-0.399-0.555-0.34l-3.733 0.89c-0.119 0.028-0.221 0.102-0.285 0.206zM29.142 25.747l0.225 0.94-2.837 0.677-0.225-0.94 2.837-0.677z"></path>
<path d="M25.919 10.421l-3.733 0.89c-0.12 0.029-0.222 0.102-0.285 0.206s-0.084 0.23-0.056 0.349l0.439 1.837c0.049 0.208 0.234 0.354 0.447 0.354 0.038 0 0.074-0.004 0.108-0.013l3.733-0.891c0.247-0.059 0.399-0.307 0.34-0.554l-0.438-1.837c-0.058-0.242-0.31-0.397-0.555-0.341zM23.072 13.041l-0.225-0.94 2.837-0.676 0.225 0.94-2.837 0.676z"></path>
</svg>
