<!-- Generated by IcoMoon.io -->
<svg version="1.1" xmlns="http://www.w3.org/2000/svg" width="24" height="32" viewBox="0 0 24 32">
<title>advers</title>
<path d="M2.517 0.107c-0.597 0.155-0.997 0.395-1.477 0.88-0.448 0.443-0.715 0.875-0.917 1.467-0.091 0.283-0.096 0.816-0.112 13.333-0.016 14.592-0.043 13.477 0.373 14.341 0.421 0.885 1.339 1.589 2.325 1.792 0.336 0.069 1.579 0.080 9.52 0.069l9.131-0.016 0.347-0.117c1.093-0.373 1.931-1.259 2.272-2.389 0.091-0.304 0.101-0.869 0.112-10.864l0.016-10.544-7.973-8.053h-6.613c-6.341 0-6.629 0.005-7.003 0.101zM15.307 4.555c0 2.192 0.011 2.453 0.096 2.736 0.229 0.731 0.789 1.291 1.52 1.52 0.283 0.085 0.539 0.096 2.645 0.096h2.336l0.032 6.437c0.053 9.291 0.048 13.339-0.016 13.573-0.080 0.283-0.363 0.635-0.64 0.789l-0.24 0.133h-17.973l-0.219-0.117c-0.256-0.133-0.539-0.443-0.64-0.688-0.064-0.149-0.075-2.245-0.075-13.045 0-12.347 0.005-12.88 0.101-13.083 0.123-0.277 0.395-0.549 0.672-0.672 0.203-0.096 0.523-0.101 6.309-0.101h6.091v2.421z"></path>
<path d="M4.267 3.829c-0.101 0.048-0.24 0.171-0.304 0.272l-0.123 0.181v5.824l0.133 0.197c0.251 0.368 0.24 0.368 3.371 0.352 2.715-0.016 2.784-0.016 2.928-0.128 0.080-0.059 0.197-0.176 0.256-0.256 0.112-0.144 0.112-0.213 0.128-3.008l0.011-2.864-0.117-0.235c-0.229-0.448-0.112-0.432-3.296-0.432-2.56 0-2.816 0.011-2.987 0.096zM9.013 7.2v1.813h-3.573v-3.627h3.573v1.813z"></path>
<path d="M4.267 12.629c-0.101 0.048-0.24 0.171-0.304 0.272l-0.123 0.181v2.885c0 3.28-0.016 3.152 0.432 3.381l0.235 0.117 2.811-0.011c2.741-0.016 2.811-0.016 2.955-0.128 0.080-0.059 0.197-0.176 0.256-0.256 0.112-0.144 0.112-0.213 0.128-3.008l0.011-2.864-0.117-0.235c-0.229-0.448-0.112-0.432-3.296-0.432-2.56 0-2.816 0.011-2.987 0.096zM9.013 16v1.813h-3.573v-3.627h3.573v1.813z"></path>
<path d="M4.267 21.429c-0.101 0.048-0.24 0.171-0.304 0.272l-0.123 0.181v5.824l0.133 0.197c0.245 0.363 0.299 0.368 2.795 0.352l2.208-0.016-0.277-0.176c-0.149-0.096-0.539-0.464-0.869-0.816l-0.603-0.635h-1.787v-3.627h3.573v1.045l0.229 0.224c0.123 0.123 0.251 0.224 0.283 0.224 0.027 0 0.293-0.245 0.597-0.549l0.544-0.544v-0.699c0-0.613-0.016-0.72-0.123-0.928-0.224-0.443-0.107-0.427-3.291-0.427-2.56 0-2.816 0.011-2.987 0.096z"></path>
<path d="M12.827 22.315c-0.085 0.037-0.864 0.784-1.728 1.653l-1.568 1.584-0.699-0.688c-0.571-0.565-0.736-0.699-0.896-0.725-0.608-0.112-1.093 0.4-0.976 1.019 0.032 0.171 0.192 0.363 1.056 1.232 0.565 0.571 1.088 1.067 1.168 1.109 0.187 0.096 0.491 0.096 0.709-0.011 0.181-0.085 3.904-3.851 4.016-4.059 0.16-0.299 0.021-0.832-0.272-1.040-0.197-0.139-0.592-0.176-0.811-0.075z"></path>
</svg>
