<!-- Generated by IcoMoon.io -->
<svg version="1.1" xmlns="http://www.w3.org/2000/svg" width="36" height="32" viewBox="0 0 36 32">
<title>affiliaction1</title>
<path d="M6.469 15.957v9.009h2.996v-7.685h1.737v7.685h2.953v-18.019h-7.685v9.009zM9.769 9.4v0.847h-1.737v-1.693h1.737v0.847zM12.592 9.4v0.847h-1.737v-1.693h1.737v0.847zM9.769 12.179v0.847h-1.737v-1.693h1.737v0.847zM12.592 12.179v0.847h-1.737v-1.693h1.737v0.847zM9.769 14.98v0.868h-1.737v-1.737h1.737v0.868zM12.592 14.98v0.868h-1.737v-1.737h1.737v0.868z"></path>
<path d="M26.225 7.815c-0.087 0.087-0.087 0.143-0.087 7.72 0 7.598 0 7.637 0.087 7.716 0.113 0.1 0.321 0.1 0.434 0 0.087-0.078 0.087-0.117 0.087-7.498v-7.416h6.991v7.334c0 5.106 0.013 7.368 0.048 7.464 0.083 0.234 0.443 0.274 0.556 0.056 0.035-0.061 0.048-2.41 0.048-7.685 0-7.546 0-7.603-0.087-7.69s-0.143-0.087-4.038-0.087c-3.895 0-3.951 0-4.038 0.087z"></path>
<path d="M1.954 16.543v8.423h2.735v-7.425h1.129v-9.422h-3.864v8.423zM4.95 10.355v0.76h-1.563v-1.52h1.563v0.76zM4.95 12.896v0.782h-1.563v-1.563h1.563v0.782zM4.95 15.457v0.782h-1.563v-1.563h1.563v0.782z"></path>
<path d="M27.988 9.531c-0.104 0.104-0.117 0.287-0.104 1.224 0.013 0.773 0.022 0.886 0.091 0.955 0.065 0.069 0.174 0.078 0.79 0.091 0.712 0.013 0.716 0.013 0.825-0.096l0.109-0.109v-0.981c0-0.921-0.004-0.981-0.087-1.064-0.078-0.078-0.143-0.087-0.821-0.087-0.604 0-0.747 0.013-0.803 0.065zM29.047 10.616v0.543h-0.521v-1.085h0.521v0.543z"></path>
<path d="M30.897 9.561c-0.056 0.082-0.069 0.261-0.069 1.081v0.99l0.117 0.091c0.113 0.087 0.156 0.091 0.829 0.078 0.643-0.013 0.716-0.022 0.773-0.096 0.048-0.069 0.061-0.291 0.061-1.090 0-0.921-0.009-1.012-0.078-1.077-0.069-0.061-0.195-0.074-0.825-0.074-0.716 0-0.742 0.004-0.808 0.096zM32 10.616v0.543h-0.564v-1.085h0.564v0.543z"></path>
<path d="M21.666 11.189c-0.035 0.013-0.1 0.052-0.139 0.091-0.074 0.061-0.078 0.265-0.078 3.096v3.031l0.113 0.087c0.148 0.113 0.234 0.113 0.382 0l0.113-0.087v-5.597h1.633c1.615 0 1.758-0.013 1.85-0.148 0.065-0.096 0.035-0.317-0.056-0.399-0.087-0.078-0.191-0.082-1.923-0.091-1.003-0.004-1.858 0.004-1.893 0.017z"></path>
<path d="M15.687 13.556c-0.582 0.577-0.751 0.773-0.751 0.86 0 0.165 1.459 1.615 1.628 1.615 0.126 0 0.195-0.065 0.195-0.204 0-0.052-0.213-0.3-0.551-0.638l-0.556-0.556h2.327c1.75 0 2.336-0.013 2.375-0.052 0.082-0.082 0.065-0.287-0.030-0.339-0.056-0.026-0.881-0.043-2.379-0.043h-2.293l0.556-0.556c0.543-0.543 0.617-0.664 0.499-0.782-0.143-0.143-0.256-0.065-1.020 0.695z"></path>
<path d="M23.368 12.939c-0.052 0.022-0.117 0.091-0.139 0.152-0.026 0.065-0.043 0.517-0.043 1.003 0 0.868 0.022 1.029 0.148 1.112 0.026 0.017 0.382 0.035 0.795 0.035 0.721 0 0.747-0.004 0.812-0.096 0.056-0.082 0.069-0.261 0.069-1.059 0-1.259 0.069-1.164-0.855-1.177-0.378-0.004-0.729 0.009-0.786 0.030zM24.358 14.090v0.543h-0.521v-1.085h0.521v0.543z"></path>
<path d="M28.058 12.939c-0.052 0.022-0.117 0.091-0.139 0.152-0.061 0.156-0.056 1.806 0.004 1.963 0.022 0.065 0.069 0.135 0.096 0.152 0.030 0.017 0.386 0.035 0.799 0.035 0.721 0 0.747-0.004 0.812-0.096 0.056-0.082 0.069-0.261 0.069-1.068v-0.968l-0.109-0.104c-0.104-0.104-0.122-0.109-0.769-0.104-0.365 0-0.708 0.017-0.764 0.039zM29.047 14.090v0.543h-0.521v-1.085h0.521v0.543z"></path>
<path d="M30.941 12.987l-0.113 0.087v0.99c0 0.821 0.013 0.999 0.069 1.081 0.065 0.091 0.091 0.096 0.816 0.096 0.673 0 0.76-0.009 0.821-0.078 0.065-0.069 0.074-0.208 0.074-1.077 0-0.547-0.017-1.016-0.035-1.042-0.078-0.122-0.243-0.148-0.868-0.148-0.59 0-0.66 0.009-0.764 0.091zM32 14.090v0.543h-0.564v-1.085h0.564v0.543z"></path>
<path d="M23.312 16.452c-0.096 0.078-0.104 0.113-0.104 0.521 0 0.504 0.043 0.586 0.308 0.586 0.213 0 0.321-0.135 0.321-0.391v-0.191h0.521v0.756c0 0.695 0.009 0.76 0.091 0.868 0.113 0.143 0.343 0.156 0.473 0.026 0.082-0.082 0.087-0.143 0.087-1.064v-0.981l-0.109-0.104c-0.104-0.104-0.122-0.109-0.795-0.109-0.617 0-0.703 0.009-0.795 0.082z"></path>
<path d="M28.001 16.452c-0.104 0.082-0.104 0.087-0.104 1.081 0 0.921 0.004 1.007 0.082 1.090 0.078 0.087 0.126 0.091 0.816 0.091 0.673 0 0.738-0.009 0.816-0.087 0.082-0.082 0.087-0.143 0.087-1.064v-0.981l-0.109-0.104c-0.104-0.104-0.122-0.109-0.795-0.109-0.617 0-0.703 0.009-0.795 0.082zM29.047 17.541v0.564h-0.521v-1.129h0.521v0.564z"></path>
<path d="M30.941 16.46l-0.113 0.087v0.999c0 0.938 0.004 0.999 0.087 1.081 0.078 0.078 0.143 0.087 0.816 0.087 0.656 0 0.742-0.009 0.803-0.078 0.065-0.069 0.074-0.213 0.074-1.107 0-1.007 0-1.025-0.096-1.090-0.078-0.056-0.23-0.069-0.777-0.069-0.621 0-0.69 0.009-0.795 0.091zM32 17.541v0.564h-0.564v-1.129h0.564v0.564z"></path>
<path d="M18.636 16.986c-0.139 0.139-0.061 0.256 0.517 0.812l0.573 0.547-4.767 0.043-0.013 0.148c-0.009 0.087 0.009 0.161 0.043 0.182 0.030 0.022 1.107 0.039 2.388 0.039h2.332l-0.56 0.547c-0.46 0.452-0.564 0.573-0.564 0.673 0 0.126 0.122 0.23 0.239 0.204 0.035-0.009 0.404-0.352 0.821-0.764 0.63-0.621 0.764-0.777 0.764-0.877s-0.135-0.247-0.777-0.864c-0.452-0.434-0.812-0.742-0.86-0.742-0.043 0-0.104 0.022-0.135 0.052z"></path>
<path d="M22.595 18.167c-0.643 0.291-1.103 1.698-1.12 3.413-0.004 0.643 0 0.686 0.109 0.912 0.152 0.317 0.425 0.577 0.764 0.725l0.274 0.117v0.79c0 0.881 0.017 0.929 0.313 0.929 0.278 0 0.295-0.056 0.295-0.942v-0.786l0.195-0.065c0.43-0.148 0.773-0.495 0.921-0.929 0.056-0.161 0.065-0.326 0.043-0.877-0.061-1.58-0.447-2.844-0.986-3.2-0.217-0.143-0.595-0.187-0.808-0.087zM23.073 18.805c0.352 0.278 0.686 1.611 0.695 2.805 0.004 0.517 0.004 0.53-0.126 0.716-0.36 0.521-1.103 0.504-1.433-0.030-0.126-0.204-0.13-0.226-0.122-0.69 0.026-1.164 0.313-2.392 0.638-2.74 0.169-0.178 0.195-0.182 0.347-0.061z"></path>
<path d="M27.398 19.929c-0.048 0.048-0.087 0.143-0.087 0.217s0.039 0.169 0.087 0.217c0.078 0.078 0.143 0.087 0.586 0.087h0.499v1.359c0 1.311 0.004 1.368 0.087 1.442 0.113 0.1 0.321 0.1 0.434 0 0.082-0.074 0.087-0.13 0.087-1.442v-1.359h2.301v1.303c0 0.877 0.017 1.333 0.048 1.407 0.1 0.213 0.452 0.23 0.556 0.030 0.030-0.056 0.048-0.56 0.048-1.411v-1.329h0.491c0.46 0 0.499-0.009 0.586-0.1 0.117-0.126 0.122-0.308 0.009-0.421-0.087-0.087-0.143-0.087-2.866-0.087s-2.779 0-2.866 0.087z"></path>
<path d="M30.033 21.658c-0.1 0.109-0.091 0.339 0.013 0.443 0.187 0.187 0.521 0.048 0.521-0.217 0-0.074-0.039-0.169-0.087-0.217-0.113-0.113-0.352-0.113-0.447-0.009z"></path>
<path d="M25.635 23.972c-0.061 0.065-0.087 0.174-0.096 0.412-0.026 0.512 0.048 0.669 0.321 0.669 0.213 0 0.321-0.126 0.321-0.369v-0.195h4.016c3.96 0 4.016 0 4.103-0.087 0.113-0.113 0.113-0.304 0-0.425l-0.091-0.096h-8.493l-0.082 0.091z"></path>
</svg>
