<!-- Generated by IcoMoon.io -->
<svg version="1.1" xmlns="http://www.w3.org/2000/svg" width="36" height="32" viewBox="0 0 36 32">
<title>affi-small</title>
<path fill="#555" d="M4.543 5.008c-0.031 0.013-0.042 2.201-0.035 6.466l0.011 6.446 2.168 0.025v-5.491h1.152l0.012 2.733 0.012 2.733 2.145 0.025v-6.454c0-5.842-0.007-6.456-0.073-6.482-0.081-0.031-5.319-0.032-5.393-0.001zM18.506 5.637c-0.042 0.042-0.055 1.334-0.055 5.532 0 5.967-0.015 5.621 0.248 5.621 0.221 0 0.213 0.203 0.213-5.406v-5.295h4.936v5.274c0 5.051 0.004 5.277 0.084 5.351 0.117 0.106 0.266 0.095 0.351-0.026 0.12-0.172 0.108-10.921-0.013-11.030-0.109-0.099-5.666-0.119-5.764-0.021zM1.313 5.916c-0.012 0.032-0.017 2.746-0.010 6.031l0.012 5.973h1.983l0.012-2.641 0.012-2.641h0.783v-6.78h-1.385c-1.066 0-1.39 0.013-1.407 0.058zM6.827 6.804v0.577h-1.153v-1.153h1.153v0.577zM8.846 6.792l-0.013 0.565-1.13 0.026v-1.156h1.156l-0.013 0.565zM19.768 6.853c-0.086 0.086-0.107 1.436-0.025 1.591 0.078 0.146 1.115 0.134 1.218-0.013 0.131-0.187 0.103-1.42-0.035-1.55-0.14-0.131-1.034-0.152-1.158-0.028zM21.857 6.869c-0.182 0.147-0.191 1.414-0.012 1.594 0.127 0.127 1.099 0.101 1.192-0.032 0.122-0.174 0.103-1.367-0.024-1.529-0.128-0.163-0.966-0.187-1.156-0.033zM3.413 7.495v0.53h-1.015v-1.061h1.015v0.53zM20.526 7.657v0.369h-0.323v-0.738h0.323v0.369zM22.602 7.657v0.369h-0.369v-0.738h0.369v0.369zM15.232 8.098l-0.103 0.072v4.375l0.113 0.074c0.36 0.236 0.394 0.045 0.394-2.205l0-1.88h1.167c1.252 0 1.278-0.005 1.278-0.237 0-0.267-0.022-0.271-1.446-0.271-1.103 0-1.317 0.011-1.404 0.072zM6.827 8.787v0.577h-1.153v-1.153h1.153v0.577zM8.856 8.787v0.577h-1.153v-1.153h1.153v0.577zM3.413 9.294v0.53h-1.015v-1.061h1.015v0.53zM11.056 9.751c-0.322 0.315-0.586 0.598-0.586 0.628 0 0.141 1.095 1.159 1.23 1.144 0.24-0.027 0.187-0.168-0.216-0.569l-0.371-0.369 1.622-0.023c1.727-0.025 1.77-0.031 1.687-0.247-0.026-0.068-0.196-0.075-1.701-0.075h-1.672l0.402-0.402c0.398-0.398 0.454-0.496 0.347-0.604-0.098-0.098-0.149-0.064-0.743 0.517zM16.477 9.343c-0.099 0.069-0.103 0.1-0.103 0.802 0 0.899-0.032 0.856 0.648 0.856 0.697 0 0.68 0.021 0.687-0.852l0.006-0.684-0.123-0.097c-0.16-0.126-0.946-0.144-1.115-0.025zM19.798 9.343c-0.099 0.069-0.103 0.1-0.103 0.802 0 0.892-0.028 0.852 0.625 0.867 0.712 0.015 0.713 0.015 0.713-0.864v-0.685l-0.122-0.096c-0.159-0.125-0.945-0.142-1.114-0.024zM21.839 9.384c-0.157 0.157-0.164 1.38-0.008 1.535 0.13 0.13 1.118 0.122 1.215-0.010 0.091-0.123 0.074-1.461-0.020-1.555-0.131-0.131-1.049-0.108-1.187 0.030zM17.205 10.148v0.369h-0.323v-0.738h0.323v0.369zM20.526 10.148v0.369h-0.323v-0.738h0.323v0.369zM22.602 10.148v0.369h-0.369v-0.738h0.369v0.369zM6.827 10.794v0.553h-1.153v-1.107h1.153v0.554zM8.856 10.794v0.553h-1.153v-1.107h1.153v0.554zM3.413 11.116v0.553h-1.015v-1.107h1.015v0.554zM16.423 11.851c-0.104 0.194-0.059 0.685 0.070 0.77 0.148 0.097 0.357-0.029 0.381-0.23 0.013-0.106 0.036-0.122 0.173-0.122h0.158v0.53c0 0.665 0.107 0.844 0.375 0.627 0.149-0.12 0.198-1.424 0.059-1.577-0.121-0.134-1.145-0.133-1.217 0.001zM19.744 11.851c-0.105 0.196-0.060 1.512 0.055 1.592 0.168 0.118 0.955 0.101 1.114-0.024 0.152-0.119 0.191-1.353 0.050-1.555-0.104-0.148-1.14-0.159-1.218-0.013zM21.846 11.833c-0.181 0.181-0.17 1.427 0.014 1.586 0.186 0.162 1.022 0.143 1.154-0.025 0.127-0.161 0.146-1.355 0.024-1.529-0.093-0.132-1.065-0.158-1.192-0.032zM13.131 12.208c-0.087 0.087 0.002 0.24 0.326 0.561l0.357 0.354-1.601 0.023c-1.745 0.025-1.824 0.038-1.699 0.271 0.052 0.097 0.069 0.098 1.699 0.098h1.646l-0.384 0.386c-0.408 0.41-0.479 0.588-0.249 0.621 0.124 0.018 1.211-1.032 1.211-1.169 0-0.122-1.056-1.175-1.178-1.175-0.054 0-0.112 0.014-0.129 0.031zM20.526 12.639v0.369h-0.323v-0.738h0.323v0.369zM22.602 12.639v0.369h-0.369v-0.738h0.369v0.369zM15.89 13.093c-0.234 0.144-0.291 0.23-0.509 0.768-0.021 0.051-0.044 0.123-0.052 0.161s-0.047 0.204-0.086 0.369c-0.133 0.552-0.145 1.52-0.022 1.775 0.113 0.233 0.501 0.578 0.65 0.578 0.082 0 0.088 0.040 0.088 0.571 0 0.593 0.012 0.632 0.21 0.692 0.225 0.069 0.297-0.105 0.297-0.711 0-0.444 0.013-0.552 0.065-0.552 0.036 0 0.172-0.085 0.303-0.188 0.386-0.305 0.492-0.682 0.404-1.426-0.14-1.187-0.263-1.572-0.623-1.953-0.174-0.185-0.5-0.222-0.726-0.082zM16.343 13.598c0.098 0.108 0.195 0.388 0.287 0.829 0.041 0.196 0.085 0.398 0.097 0.448 0.072 0.3 0.072 0.902-0.002 1.056-0.189 0.399-0.69 0.483-0.964 0.162l-0.134-0.157 0.026-0.646c0.049-1.226 0.379-2.037 0.69-1.693zM19.384 14.284c-0.295 0.206-0.086 0.43 0.401 0.43h0.326v0.965c0 1.045 0.015 1.11 0.254 1.11 0.226 0 0.253-0.123 0.253-1.14v-0.935h1.568v0.965c0 1.043 0.015 1.11 0.251 1.11 0.203 0 0.217-0.073 0.212-1.102l-0.005-0.97 0.38-0.013c0.479-0.017 0.637-0.172 0.392-0.385l-0.129-0.113-1.9 0.002c-1.649 0.002-1.914 0.012-2.004 0.075zM21.214 15.548c-0.161 0.161-0.057 0.409 0.174 0.41s0.331-0.303 0.143-0.435c-0.136-0.096-0.202-0.091-0.317 0.024zM18.138 17.185c-0.12 0.084-0.154 0.66-0.045 0.747 0.206 0.165 0.404 0.081 0.404-0.17v-0.142h2.832c2.676 0 2.837-0.005 2.936-0.084 0.135-0.11 0.095-0.314-0.075-0.378-0.219-0.083-5.93-0.058-6.051 0.027z"></path>
</svg>
