<!-- Generated by IcoMoon.io -->
<svg version="1.1" xmlns="http://www.w3.org/2000/svg" width="57" height="32" viewBox="0 0 57 32">
<title>affiliaction</title>
<path d="M7.981 15.923v15.923h5.295v-13.583h3.070v13.583h5.218v-31.847h-13.583v15.923zM13.813 4.336v1.496h-3.070v-2.993h3.070v1.496zM18.801 4.336v1.496h-3.070v-2.993h3.070v1.496zM13.813 9.247v1.496h-3.070v-2.993h3.070v1.496zM18.801 9.247v1.496h-3.070v-2.993h3.070v1.496zM13.813 14.197v1.535h-3.070v-3.070h3.070v1.535zM18.801 14.197v1.535h-3.070v-3.070h3.070v1.535z"></path>
<path d="M42.897 1.535c-0.153 0.153-0.153 0.253-0.153 13.644 0 13.429 0 13.498 0.153 13.636 0.2 0.177 0.568 0.177 0.767 0 0.153-0.138 0.153-0.207 0.153-13.253v-13.107h12.355v12.961c0 9.024 0.023 13.023 0.084 13.191 0.146 0.414 0.783 0.483 0.982 0.1 0.061-0.107 0.084-4.259 0.084-13.583 0-13.337 0-13.437-0.153-13.59s-0.253-0.153-7.137-0.153c-6.883 0-6.983 0-7.137 0.153z"></path>
<path d="M0 16.959v14.887h4.835v-13.122h1.995v-16.652h-6.83v14.887zM5.295 6.024v1.343h-2.763v-2.686h2.763v1.343zM5.295 10.513v1.381h-2.763v-2.763h2.763v1.381zM5.295 15.041v1.381h-2.763v-2.763h2.763v1.381z"></path>
<path d="M46.012 4.566c-0.184 0.184-0.207 0.506-0.184 2.164 0.023 1.366 0.038 1.565 0.161 1.688 0.115 0.123 0.307 0.138 1.397 0.161 1.258 0.023 1.266 0.023 1.458-0.169l0.192-0.192v-1.734c0-1.627-0.008-1.734-0.153-1.88-0.138-0.138-0.253-0.153-1.45-0.153-1.067 0-1.32 0.023-1.42 0.115zM47.885 6.484v0.959h-0.921v-1.918h0.921v0.959z"></path>
<path d="M51.154 4.62c-0.1 0.146-0.123 0.46-0.123 1.911v1.75l0.207 0.161c0.2 0.153 0.276 0.161 1.466 0.138 1.136-0.023 1.266-0.038 1.366-0.169 0.084-0.123 0.107-0.514 0.107-1.926 0-1.627-0.015-1.788-0.138-1.903-0.123-0.107-0.345-0.13-1.458-0.13-1.266 0-1.312 0.008-1.427 0.169zM53.103 6.484v0.959h-0.998v-1.918h0.998v0.959z"></path>
<path d="M34.839 7.497c-0.061 0.023-0.176 0.092-0.246 0.161-0.13 0.107-0.138 0.468-0.138 5.471v5.356l0.2 0.153c0.261 0.2 0.414 0.2 0.675 0l0.2-0.153v-9.892h2.885c2.855 0 3.108-0.023 3.269-0.261 0.115-0.169 0.061-0.56-0.1-0.706-0.153-0.138-0.338-0.146-3.4-0.161-1.773-0.008-3.284 0.008-3.346 0.031z"></path>
<path d="M24.272 11.68c-1.028 1.021-1.328 1.366-1.328 1.519 0 0.292 2.578 2.855 2.878 2.855 0.223 0 0.345-0.115 0.345-0.361 0-0.092-0.376-0.53-0.975-1.128l-0.982-0.982h4.113c3.093 0 4.129-0.023 4.198-0.092 0.146-0.146 0.115-0.506-0.054-0.599-0.1-0.046-1.558-0.077-4.205-0.077h-4.052l0.982-0.982c0.959-0.959 1.090-1.174 0.883-1.381-0.253-0.253-0.453-0.115-1.803 1.228z"></path>
<path d="M37.847 10.59c-0.092 0.038-0.207 0.161-0.246 0.269-0.046 0.115-0.077 0.913-0.077 1.773 0 1.535 0.038 1.819 0.261 1.964 0.046 0.031 0.675 0.061 1.404 0.061 1.274 0 1.32-0.008 1.435-0.169 0.1-0.146 0.123-0.46 0.123-1.872 0-2.225 0.123-2.057-1.512-2.080-0.668-0.008-1.289 0.015-1.389 0.054zM39.597 12.623v0.959h-0.921v-1.918h0.921v0.959z"></path>
<path d="M46.135 10.59c-0.092 0.038-0.207 0.161-0.246 0.269-0.107 0.276-0.1 3.192 0.008 3.469 0.038 0.115 0.123 0.238 0.169 0.269 0.054 0.031 0.683 0.061 1.412 0.061 1.274 0 1.32-0.008 1.435-0.169 0.1-0.146 0.123-0.46 0.123-1.888v-1.711l-0.192-0.184c-0.184-0.184-0.215-0.192-1.358-0.184-0.645 0-1.251 0.031-1.351 0.069zM47.885 12.623v0.959h-0.921v-1.918h0.921v0.959z"></path>
<path d="M51.231 10.674l-0.2 0.153v1.75c0 1.45 0.023 1.765 0.123 1.911 0.115 0.161 0.161 0.169 1.443 0.169 1.189 0 1.343-0.015 1.45-0.138 0.115-0.123 0.13-0.368 0.13-1.903 0-0.967-0.031-1.796-0.061-1.842-0.138-0.215-0.43-0.261-1.535-0.261-1.044 0-1.166 0.015-1.351 0.161zM53.103 12.623v0.959h-0.998v-1.918h0.998v0.959z"></path>
<path d="M37.748 16.798c-0.169 0.138-0.184 0.2-0.184 0.921 0 0.89 0.077 1.036 0.545 1.036 0.376 0 0.568-0.238 0.568-0.691v-0.338h0.921v1.335c0 1.228 0.015 1.343 0.161 1.535 0.2 0.253 0.606 0.276 0.836 0.046 0.146-0.146 0.153-0.253 0.153-1.88v-1.734l-0.192-0.184c-0.184-0.184-0.215-0.192-1.404-0.192-1.090 0-1.243 0.015-1.404 0.146z"></path>
<path d="M46.035 16.798c-0.184 0.146-0.184 0.153-0.184 1.911 0 1.627 0.008 1.78 0.146 1.926 0.138 0.153 0.223 0.161 1.443 0.161 1.189 0 1.305-0.015 1.443-0.153 0.146-0.146 0.153-0.253 0.153-1.88v-1.734l-0.192-0.184c-0.184-0.184-0.215-0.192-1.404-0.192-1.090 0-1.243 0.015-1.404 0.146zM47.885 18.724v0.998h-0.921v-1.995h0.921v0.998z"></path>
<path d="M51.231 16.813l-0.2 0.153v1.765c0 1.658 0.008 1.765 0.153 1.911 0.138 0.138 0.253 0.153 1.443 0.153 1.159 0 1.312-0.015 1.42-0.138 0.115-0.123 0.13-0.376 0.13-1.957 0-1.78 0-1.811-0.169-1.926-0.138-0.1-0.407-0.123-1.374-0.123-1.097 0-1.22 0.015-1.404 0.161zM53.103 18.724v0.998h-0.998v-1.995h0.998v0.998z"></path>
<path d="M29.483 17.742c-0.246 0.246-0.107 0.453 0.913 1.435l1.013 0.967-8.426 0.077-0.023 0.261c-0.015 0.153 0.015 0.284 0.077 0.322 0.054 0.038 1.957 0.069 4.221 0.069h4.121l-0.99 0.967c-0.813 0.798-0.998 1.013-0.998 1.189 0 0.223 0.215 0.407 0.422 0.361 0.061-0.015 0.714-0.622 1.45-1.351 1.113-1.097 1.351-1.374 1.351-1.55s-0.238-0.437-1.374-1.527c-0.798-0.767-1.435-1.312-1.519-1.312-0.077 0-0.184 0.038-0.238 0.092z"></path>
<path d="M36.482 19.829c-1.136 0.514-1.949 3-1.98 6.032-0.008 1.136 0 1.212 0.192 1.611 0.269 0.56 0.752 1.021 1.351 1.282l0.483 0.207v1.397c0 1.558 0.031 1.642 0.553 1.642 0.491 0 0.522-0.1 0.522-1.665v-1.389l0.345-0.115c0.76-0.261 1.366-0.875 1.627-1.642 0.1-0.284 0.115-0.576 0.077-1.55-0.107-2.793-0.79-5.026-1.742-5.656-0.384-0.253-1.051-0.33-1.427-0.153zM37.326 20.957c0.622 0.491 1.212 2.847 1.228 4.957 0.008 0.913 0.008 0.936-0.223 1.266-0.637 0.921-1.949 0.89-2.532-0.054-0.223-0.361-0.23-0.399-0.215-1.22 0.046-2.057 0.553-4.228 1.128-4.842 0.299-0.315 0.345-0.322 0.614-0.107z"></path>
<path d="M44.969 22.945c-0.084 0.084-0.153 0.253-0.153 0.384s0.069 0.299 0.153 0.384c0.138 0.138 0.253 0.153 1.036 0.153h0.883v2.402c0 2.317 0.008 2.417 0.153 2.548 0.2 0.177 0.568 0.177 0.767 0 0.146-0.13 0.153-0.23 0.153-2.548v-2.402h4.067v2.302c0 1.55 0.031 2.356 0.084 2.486 0.176 0.376 0.798 0.407 0.982 0.054 0.054-0.1 0.084-0.99 0.084-2.494v-2.348h0.867c0.813 0 0.883-0.015 1.036-0.177 0.207-0.223 0.215-0.545 0.015-0.744-0.153-0.153-0.253-0.153-5.065-0.153s-4.911 0-5.065 0.153z"></path>
<path d="M49.627 25.999c-0.176 0.192-0.161 0.599 0.023 0.783 0.33 0.33 0.921 0.084 0.921-0.384 0-0.13-0.069-0.299-0.153-0.384-0.2-0.2-0.622-0.2-0.79-0.015z"></path>
<path d="M41.853 30.089c-0.107 0.115-0.153 0.307-0.169 0.729-0.046 0.905 0.084 1.182 0.568 1.182 0.376 0 0.568-0.223 0.568-0.652v-0.345h7.098c6.999 0 7.098 0 7.252-0.153 0.2-0.2 0.2-0.537 0-0.752l-0.161-0.169h-15.010l-0.146 0.161z"></path>
</svg>
