<!-- Generated by IcoMoon.io -->
<svg version="1.1" xmlns="http://www.w3.org/2000/svg" width="46" height="32" viewBox="0 0 46 32">
<title>affiliation</title>
<path d="M12.384 0.118c-0.304 0.152-0.596 0.495-0.681 0.799-0.051 0.174-0.062 3.83-0.051 14.257l0.017 14.015h-0.799l-0.068-0.321c-0.045-0.231-0.062-3.408-0.062-11.67v-11.355l-3.779 0.017c-3.762 0.017-3.785 0.017-4.015 0.141-0.304 0.163-0.624 0.523-0.697 0.793-0.039 0.152-0.051 3.639-0.045 11.31l0.017 11.085h-2.221v2.812l10.112-0.006c5.556-0.006 10.258-0.028 10.444-0.051s0.27-0.045 0.191-0.051c-0.72-0.039-1.434-0.759-1.563-1.569-0.039-0.253-0.006-0.77 0.079-1.125l0.028-0.124h-3.149v-12.823h5.568l0.011 3.521 0.017 3.521 0.45-0.579c0.844-1.080 1.997-2.154 3.161-2.936l0.517-0.349 0.006-9.212c0-10.168 0.028-9.414-0.354-9.819-0.101-0.101-0.281-0.236-0.405-0.292-0.214-0.101-0.501-0.107-6.355-0.107-6.13 0-6.13 0-6.372 0.118zM19.74 0.765c0.534 0.107 1.434 0.546 1.884 0.905 1.069 0.872 1.772 2.317 1.772 3.672 0 1.125-0.349 2.137-1.040 3.014-1.676 2.109-4.735 2.356-6.67 0.54-0.529-0.495-0.765-0.81-1.057-1.395-0.36-0.72-0.484-1.265-0.478-2.16 0.006-0.658 0.028-0.827 0.157-1.265 0.478-1.575 1.648-2.773 3.166-3.234 0.754-0.225 1.412-0.247 2.266-0.079zM6.13 10.236v0.956h-1.8v-1.912h1.8v0.956zM9.111 10.236v0.956h-1.856v-1.912h1.856v0.956zM6.13 13.525v0.928h-1.8v-1.856h1.8v0.928zM9.111 13.525v0.928h-1.856v-1.856h1.856v0.928zM6.13 16.928v0.956h-1.8v-1.912h1.8v0.956zM9.111 16.928v0.956h-1.856v-1.912h1.856v0.956z"></path>
<path d="M17.603 3.262v0.9h-1.8v2.418h1.8v1.856h2.362v-1.856h1.743v-2.418h-1.743v-1.8h-2.362v0.9z"></path>
<path d="M31.466 5.32c-0.090 0.011-0.484 0.051-0.872 0.084-1.26 0.107-3.881 0.613-3.881 0.742 0 0.073 1.13 4.73 1.159 4.752 0.006 0.011 0.287-0.039 0.624-0.118 1.575-0.371 2.823-0.512 4.516-0.512s2.941 0.141 4.516 0.512c0.337 0.079 0.619 0.129 0.624 0.118 0.017-0.017 0.754-2.998 1.018-4.111 0.079-0.337 0.129-0.63 0.112-0.658-0.073-0.118-2.278-0.557-3.543-0.703-0.737-0.090-3.841-0.169-4.274-0.107zM33.462 6.692v0.562h1.069v0.956h-1.069v1.125h-0.9v-1.125h-1.069v-0.956h1.069v-1.125h0.9v0.562z"></path>
<path d="M31.016 11.45c-1.175 0.135-3.442 0.602-3.577 0.737-0.096 0.096-0.174 1.080-0.146 1.732 0.090 1.788 0.9 3.431 2.221 4.477 1.007 0.804 1.968 1.159 3.273 1.215 0.877 0.034 1.502-0.067 2.283-0.371 1.26-0.489 2.531-1.71 3.11-2.992 0.444-0.984 0.596-1.828 0.551-2.998-0.051-1.181 0.039-1.052-0.928-1.288-1.811-0.444-3.121-0.602-4.876-0.596-0.681 0.006-1.541 0.039-1.912 0.084z"></path>
<path d="M37.45 18.705c-0.815 0.849-2.317 1.58-3.616 1.76-1.794 0.253-3.762-0.371-5.101-1.614-0.197-0.18-0.36-0.287-0.388-0.259-0.079 0.084-0.27 0.731-0.366 1.209-0.045 0.242-0.096 0.737-0.118 1.102l-0.039 0.664 0.304 0.101c1.001 0.315 1.94 1.305 2.424 2.548 0.529 1.361 0.613 2.891 0.242 4.325-0.281 1.069-0.574 1.496-1.164 1.693-0.652 0.214-1.13 0.039-1.417-0.523-0.27-0.54 0.107-1.35 0.675-1.457 0.197-0.034 0.557-0.006 0.793 0.062 0.107 0.034 0.129 0.011 0.186-0.208 0.242-0.883 0.096-2.986-0.225-3.307-0.135-0.135-0.72-0.315-1.378-0.433-0.546-0.096-1.372-0.079-1.94 0.039-0.444 0.090-1.164 0.332-1.232 0.411-0.079 0.096-0.27 1.102-0.315 1.642-0.034 0.461 0.028 1.248 0.141 1.665 0.056 0.202 0.079 0.225 0.186 0.191 0.472-0.141 0.905-0.096 1.17 0.124 0.579 0.489 0.472 1.451-0.197 1.8-0.382 0.197-1.142 0.017-1.513-0.366-0.247-0.253-0.54-1.012-0.692-1.788-0.129-0.675-0.135-1.963-0.006-2.621 0.366-1.861 1.355-3.273 2.632-3.757l0.315-0.124 0.034-0.709c0.023-0.394 0.079-0.939 0.124-1.209 0.051-0.276 0.084-0.523 0.073-0.551s-0.298 0.112-0.636 0.321c-3.329 1.991-5.686 5.371-6.535 9.364-0.281 1.344-0.163 2.002 0.467 2.576 0.546 0.501-0.675 0.456 12.699 0.456h11.872l0.337-0.157c0.484-0.231 0.889-0.714 1.007-1.215 0.079-0.321 0.039-0.922-0.101-1.625-0.776-3.813-2.969-7.092-6.13-9.144-0.343-0.219-0.641-0.399-0.669-0.399s-0.034 0.067-0.017 0.152c0.219 1.074 0.186 4.083-0.051 5.028-0.034 0.135-0.006 0.163 0.264 0.315 0.394 0.225 0.692 0.557 0.905 1.024 0.309 0.658 0.231 1.496-0.202 2.103-0.754 1.063-2.165 1.153-3.043 0.202-0.995-1.074-0.681-2.711 0.647-3.391l0.36-0.186 0.068-0.332c0.18-0.905 0.236-2.385 0.129-3.65-0.051-0.619-0.208-1.833-0.242-1.861-0.068-0.051-0.388-0.191-0.45-0.191-0.039 0-0.163 0.090-0.27 0.202z"></path>
<path d="M26.747 22.754c-0.236 0.084-0.849 0.517-0.799 0.568 0.011 0.017 0.253-0.006 0.534-0.039 0.495-0.067 1.811-0.051 2.171 0.034l0.169 0.039-0.169-0.18c-0.090-0.096-0.315-0.253-0.501-0.343-0.287-0.146-0.394-0.169-0.759-0.163-0.236 0-0.529 0.039-0.647 0.084z"></path>
<path d="M38.198 25.864c-0.585 0.371-0.54 1.338 0.073 1.637 0.129 0.062 0.292 0.112 0.366 0.112s0.236-0.051 0.366-0.112c0.304-0.146 0.478-0.45 0.478-0.838 0-0.326-0.084-0.529-0.304-0.731-0.208-0.197-0.714-0.231-0.979-0.067z"></path>
</svg>
