<!-- Generated by IcoMoon.io -->
<svg version="1.1" xmlns="http://www.w3.org/2000/svg" width="32" height="32" viewBox="0 0 32 32">
<title>application-info</title>
<path fill="#555" d="M3.88 0.284c-0.077 0.042-0.163 0.12-0.192 0.175-0.036 0.067-0.053 4.041-0.054 12.377l-0.001 12.278 0.284 0.23 13.655 0 1.518-1.505c0.835-0.828 1.835-1.818 2.222-2.199l0.704-0.694v-20.414l-0.314-0.301-8.841-0.011c-7.733-0.010-8.859-0.001-8.981 0.065zM20.992 5.939v4.71h-0.105c-0.459 0-0.488 0.79-0.036 0.978l0.141 0.058v8.538h-1.892c-2.021 0-2.102 0.009-2.202 0.252-0.037 0.089-0.060 0.783-0.067 2.003l-0.011 1.867h-12.186l-0.013-6.33-0.013-6.33 0.122-0.031c0.6-0.151 0.521-1.106-0.083-1.011-0.021 0.003-0.038-2.114-0.038-4.704v-4.71h16.384v4.71zM8.627 2.4c-0.815 0.214-1.078 0.784-0.98 2.122 0.1 1.354 1.296 1.97 2.217 1.142 0.486-0.437 0.674-1.783 0.356-2.544-0.222-0.531-0.989-0.877-1.593-0.719zM9.216 3.482c0.056 0.056 0.104 0.143 0.107 0.192 0.008 0.153-0.010 0.555-0.030 0.658-0.010 0.054-0.020 0.183-0.022 0.287-0.004 0.21-0.159 0.4-0.302 0.372-0.047-0.009-0.102-0.018-0.122-0.020-0.198-0.021-0.275-1.375-0.086-1.507 0.161-0.113 0.331-0.106 0.455 0.019zM13.281 3.532c-0.344 0.139-0.419 0.534-0.152 0.801l0.175 0.175 3.13-0.008 0.154-0.13c0.25-0.21 0.197-0.658-0.097-0.809-0.172-0.089-2.999-0.115-3.21-0.029zM13.21 5.852c-0.293 0.148-0.322 0.612-0.051 0.813 0.122 0.091 0.289 0.096 3.354 0.097l3.225 0.001 0.141-0.157c0.22-0.245 0.141-0.662-0.147-0.772-0.209-0.079-6.363-0.063-6.522 0.017zM7.235 6.342c-0.459 0.16-1.091 0.667-1.091 0.874 0 0.030-0.021 0.055-0.047 0.055-0.103 0-0.374 0.98-0.371 1.341 0.005 0.564-0.029 0.558 3.32 0.542l2.875-0.014 0.138-0.128c0.282-0.262 0.196-1.046-0.194-1.775-0.435-0.812-1.745-1.251-2.507-0.841-0.386 0.208-0.597 0.195-0.789-0.047-0.096-0.122-0.992-0.126-1.334-0.007zM8.141 7.315c0 0.242 1.098 0.302 1.555 0.085 0.58-0.275 1.254 0.015 1.393 0.6l0.033 0.141h-2.13c-1.441 0-2.13-0.017-2.13-0.053 0-0.219 0.327-0.611 0.615-0.736 0.192-0.083 0.665-0.11 0.665-0.037zM13.191 8.165c-0.259 0.196-0.291 0.576-0.066 0.788l0.119 0.112 3.209 0c2.15 0 3.243-0.018 3.31-0.054 0.284-0.152 0.313-0.632 0.050-0.82-0.188-0.134-6.447-0.159-6.623-0.026zM5.813 10.633c-0.382 0.106-0.522 0.479-0.305 0.81 0.231 0.352 1.346 0.259 1.505-0.126 0.203-0.491-0.485-0.883-1.2-0.684zM7.629 10.665c-0.208 0.071-0.388 0.372-0.339 0.568 0.121 0.48 1.3 0.598 1.589 0.158 0.341-0.521-0.47-0.992-1.25-0.726zM9.479 10.685c-0.652 0.351-0.321 0.948 0.525 0.946 0.681-0.001 0.942-0.216 0.797-0.654-0.113-0.341-0.906-0.516-1.322-0.292zM11.434 10.655c-0.476 0.138-0.468 0.937 0.010 0.976 1.034 0.083 1.428-0.158 1.207-0.739-0.096-0.254-0.731-0.377-1.217-0.236zM13.277 10.67c-0.413 0.188-0.379 0.94 0.044 0.955 1.152 0.040 1.479-0.156 1.216-0.732-0.119-0.261-0.879-0.395-1.26-0.222zM15.232 10.632c-0.262 0.071-0.426 0.376-0.361 0.673 0.094 0.427 1.342 0.476 1.564 0.061 0.267-0.498-0.453-0.937-1.203-0.735zM17.121 10.63c-0.37 0.084-0.508 0.579-0.237 0.85 0.149 0.148 0.162 0.151 0.684 0.151l0.532-0.001 0.145-0.17c0.434-0.511-0.262-1.024-1.123-0.829zM19.043 10.647c-0.472 0.143-0.593 0.654-0.215 0.902 0.313 0.205 1.25 0.090 1.388-0.17 0.271-0.512-0.438-0.955-1.173-0.732zM6.323 13.434c-0.314 0.138-0.388 0.556-0.142 0.812l0.136 0.142h6.437l0.124-0.124c0.25-0.25 0.205-0.619-0.097-0.803-0.203-0.124-6.18-0.149-6.457-0.027zM6.263 15.472c-0.252 0.122-0.31 0.59-0.1 0.8l0.137 0.137 6.65 0.013c4.189 0.008 6.698-0.005 6.78-0.036 0.363-0.138 0.413-0.659 0.088-0.91-0.108-0.083-13.383-0.088-13.555-0.005zM6.343 17.472c-0.379 0.14-0.428 0.706-0.078 0.898 0.212 0.116 13.080 0.165 13.425 0.050 0.388-0.128 0.489-0.632 0.175-0.867-0.134-0.1-13.259-0.179-13.522-0.082zM6.195 21.030c-0.288 0.262-0.186 0.741 0.179 0.841 0.084 0.023 0.935 0.041 1.889 0.039l1.736-0.003 0.172-0.172c0.192-0.192 0.217-0.355 0.092-0.596s-0.217-0.251-2.125-0.251h-1.788l-0.155 0.141zM11.302 20.945c-0.325 0.189-0.305 0.711 0.035 0.893 0.682 0.367 1.513-0.292 1.006-0.799-0.161-0.161-0.824-0.221-1.041-0.094zM20.224 21.239c0 0.024-0.524 0.557-1.165 1.186l-1.165 1.144-0.014-1.121c-0.008-0.617-0.003-1.15 0.011-1.186 0.029-0.075 2.332-0.098 2.332-0.023z"></path>
</svg>
