<!-- Generated by IcoMoon.io -->
<svg version="1.1" xmlns="http://www.w3.org/2000/svg" width="32" height="32" viewBox="0 0 32 32">
<title>arrows2</title>
<path d="M8.782 24.972c-2.624-2.111-4.303-5.348-4.303-8.978 0-5.366 3.675-9.862 8.641-11.144v-2.969c-6.574 1.334-11.522 7.146-11.522 14.112 0 4.305 1.89 8.166 4.884 10.804 2.317 2.158 3.757-0.722 2.3-1.826zM25.397 5.085c-1.475-1.333-3.636 0.828-2.22 1.898 2.648 2.11 4.345 5.363 4.345 9.010 0 5.367-3.675 9.864-8.641 11.145v2.969c6.574-1.335 11.522-7.146 11.522-14.114 0-4.362-1.941-8.268-5.005-10.908zM14.392 7.338l4.688-2.807c0.682-0.409 0.683-1.074 0.004-1.485l-4.731-2.864c-0.681-0.411-1.23-0.101-1.227 0.695l0.025 5.761c0.002 0.795 0.558 1.109 1.241 0.7zM17.648 24.665l-4.732 2.864c-0.68 0.411-0.679 1.077 0.004 1.485l4.688 2.807c0.682 0.408 1.239 0.095 1.243-0.701l0.025-5.761c0.002-0.795-0.548-1.105-1.227-0.694z"></path>
</svg>
