<!-- Generated by IcoMoon.io -->
<svg version="1.1" xmlns="http://www.w3.org/2000/svg" width="26" height="32" viewBox="0 0 26 32">
<title>attch</title>
<path d="M8.952 0.604c-0.473 0.166-0.762 0.398-1.007 0.81-0.123 0.214-0.241 0.687-0.241 0.981v0.188h-1.379c-1.523 0-1.624 0.013-1.747 0.258-0.061 0.114-0.070 0.403-0.070 2.149v2.014h-3.896l-0.14 0.127-0.144 0.127-0.013 9.224c-0.009 7.337 0 9.241 0.044 9.324 0.070 0.127 4.785 5.060 5.052 5.284l0.197 0.166h6.934c4.894 0 6.965-0.013 7.039-0.048 0.232-0.105 0.25-0.197 0.25-1.414v-1.121h2.539c1.874 0 2.565-0.013 2.648-0.053 0.258-0.118 0.241 0.819 0.241-12.888v-12.59l-0.162-0.153c-0.092-0.083-0.206-0.188-0.254-0.232-0.048-0.048-0.144-0.105-0.21-0.127-0.083-0.035-1.869-0.048-5.656-0.048h-5.529l-0.048-0.267c-0.053-0.315-0.214-0.683-0.394-0.911-0.171-0.21-0.714-0.63-0.989-0.757-0.21-0.096-0.271-0.101-1.532-0.109-1.164-0.013-1.34-0.004-1.532 0.066zM11.995 1.839c0.096 0.053 0.175 0.298 0.175 0.556v0.188h-3.209l0.026-0.158c0.035-0.219 0.21-0.468 0.385-0.556 0.127-0.061 0.324-0.074 1.344-0.074 0.727 0 1.23 0.018 1.278 0.044zM7.705 5.428v1.576l-0.972-0.009-0.976-0.013-0.013-1.567-0.009-1.563h1.97v1.576zM24.033 15.65v11.798h-4.202v-9.928c0-9.815 0-9.924-0.088-10.068-0.048-0.074-0.105-0.14-0.127-0.14s-0.123-0.070-0.223-0.153l-0.184-0.153h-7.039v-1.129c0-1.046-0.004-1.134-0.088-1.269-0.048-0.074-0.105-0.14-0.127-0.14s-0.123-0.070-0.223-0.153c-0.201-0.171-0.363-0.193-0.565-0.088-0.070 0.035-0.14 0.096-0.162 0.14s-0.048 0.648-0.061 1.348l-0.022 1.269-0.972 0.013-0.976 0.009v-3.152h15.059v11.798zM7.705 9.302v1.072h-1.944c-1.891 0-1.944 0.004-2.053 0.092-0.066 0.048-0.14 0.162-0.166 0.254-0.039 0.14-0.035 0.193 0.026 0.328 0.039 0.088 0.088 0.158 0.105 0.158s0.123 0.088 0.232 0.197l0.206 0.197h3.76l0.109 0.188c0.149 0.254 0.722 0.788 0.985 0.924 0.271 0.136 0.626 0.201 1.125 0.201 0.525 0 0.862-0.066 1.173-0.228 0.32-0.171 0.569-0.447 0.74-0.805l0.131-0.28h2.184c1.804 0 2.211-0.013 2.307-0.061 0.311-0.162 0.328-0.635 0.031-0.841-0.061-0.048-0.179-0.136-0.254-0.206l-0.136-0.118h-4.097v-2.145l6.413 0.022v21.756l-12.323 0.022v-2.128c0-1.878-0.009-2.145-0.070-2.276-0.039-0.083-0.114-0.175-0.166-0.201-0.048-0.026-0.158-0.105-0.236-0.171l-0.144-0.127h-4.067v-16.897h6.129v1.072zM10.922 9.302v1.051l-0.972 0.013-0.976 0.009v-2.145l0.976 0.009 0.972 0.013v1.051zM4.99 27.789v1.44l-0.473-0.486c-0.258-0.267-0.88-0.915-1.383-1.44l-0.911-0.95h2.767v1.436z"></path>
<path d="M3.778 14.56c-0.175 0.088-0.293 0.324-0.25 0.512 0.031 0.153 0.438 0.578 0.617 0.648 0.066 0.022 2.548 0.039 6.221 0.039 6.059 0 6.115 0 6.26-0.088 0.341-0.21 0.328-0.643-0.022-0.88-0.066-0.048-0.188-0.131-0.271-0.193l-0.149-0.109h-6.133c-5.481 0-6.146 0.009-6.273 0.070z"></path>
<path d="M3.708 18.74c-0.066 0.048-0.14 0.162-0.166 0.254-0.039 0.14-0.035 0.193 0.026 0.328 0.044 0.088 0.109 0.179 0.153 0.201 0.039 0.022 0.144 0.109 0.232 0.197l0.153 0.153h6.199c6.868 0 6.378 0.022 6.527-0.289 0.061-0.136 0.066-0.188 0.026-0.328-0.031-0.092-0.101-0.206-0.166-0.245-0.061-0.044-0.158-0.123-0.215-0.175-0.061-0.057-0.144-0.118-0.193-0.144-0.053-0.031-2.136-0.044-6.273-0.044-6.177 0-6.19 0-6.304 0.092z"></path>
<path d="M3.852 22.794c-0.123 0.044-0.302 0.245-0.328 0.363-0.013 0.061-0.004 0.171 0.022 0.241 0.053 0.131 0.403 0.503 0.556 0.587 0.070 0.035 1.72 0.048 6.269 0.048h6.168l0.136-0.109c0.271-0.232 0.263-0.591-0.022-0.801-0.070-0.053-0.166-0.131-0.215-0.179-0.048-0.044-0.131-0.105-0.184-0.131-0.070-0.035-1.777-0.048-6.216-0.044-3.366 0-6.15 0.013-6.186 0.026z"></path>
</svg>
