<!-- Generated by IcoMoon.io -->
<svg version="1.1" xmlns="http://www.w3.org/2000/svg" width="32" height="32" viewBox="0 0 32 32">
<title>attention-sign-outline</title>
<path d="M16 0c-8.836 0-16 7.164-16 16s7.164 16 16 16 16-7.164 16-16-7.164-16-16-16zM16 30c-7.72 0-14-6.282-14-14 0-7.72 6.28-14 14-14 7.718 0 14 6.28 14 14 0 7.718-6.282 14-14 14z"></path>
<path d="M16 6c-1.104 0-2 0.896-2 2v10c0 1.104 0.896 2 2 2s2-0.896 2-2v-10c0-1.104-0.896-2-2-2z"></path>
<path d="M18 23.968c0 1.105-0.895 2-2 2s-2-0.895-2-2c0-1.105 0.895-2 2-2s2 0.895 2 2z"></path>
</svg>
