<!-- Generated by IcoMoon.io -->
<svg version="1.1" xmlns="http://www.w3.org/2000/svg" width="32" height="32" viewBox="0 0 32 32">
<title>bar-graph2</title>
<path d="M31.363 25.501h-1.208v-18.121c0-0.352-0.285-0.637-0.637-0.637h-3.968c-0.352 0-0.637 0.285-0.637 0.637v18.121h-1.656v-16.333c0-0.352-0.285-0.637-0.637-0.637h-3.968c-0.352 0-0.637 0.285-0.637 0.637v16.333h-1.656v-19.463c0-0.352-0.285-0.637-0.637-0.637h-3.967c-0.352 0-0.637 0.285-0.637 0.637v19.463h-1.656v-14.161c0-0.352-0.285-0.637-0.637-0.637h-3.967c-0.352 0-0.637 0.285-0.637 0.637v14.161h-1.663v-19.639c0-0.352-0.285-0.637-0.637-0.637s-0.637 0.285-0.637 0.637v0.816h-0.64c-0.352 0-0.637 0.285-0.637 0.638s0.285 0.637 0.637 0.637h0.64v1.536h-0.64c-0.352 0-0.637 0.285-0.637 0.637s0.285 0.637 0.637 0.637h0.64v1.536h-0.64c-0.352 0-0.637 0.285-0.637 0.637s0.285 0.637 0.637 0.637h0.64v1.536h-0.64c-0.352 0-0.637 0.286-0.637 0.637s0.285 0.637 0.637 0.637h0.64v1.536h-0.64c-0.352 0-0.637 0.285-0.637 0.637s0.285 0.637 0.637 0.637h0.64v1.536h-0.64c-0.352 0-0.637 0.285-0.637 0.637s0.285 0.637 0.637 0.637h0.64v1.536h-0.64c-0.352 0-0.637 0.285-0.637 0.637s0.285 0.637 0.637 0.637h0.64v1.321c0 0.352 0.285 0.637 0.637 0.637h29.448c0.352 0 0.637-0.285 0.637-0.637s-0.285-0.637-0.637-0.637zM8.183 25.5h-2.693v-10.649h2.693v10.649zM8.183 13.577h-2.693c0 0 0-1.6 0-1.6h2.693v1.6zM15.082 25.5h-2.693v-13.319h2.693v13.319zM15.082 10.906h-2.693v-4.231h2.693v4.231zM21.981 25.5h-2.693v-8.285h2.693v8.285zM21.981 15.94h-2.693v-6.135h2.693v6.135zM28.88 25.5h-2.693v-11.415h2.693v11.415zM28.88 12.81h-2.693v-4.793h2.693v4.793z"></path>
</svg>
