<!-- Generated by IcoMoon.io -->
<svg version="1.1" xmlns="http://www.w3.org/2000/svg" width="32" height="32" viewBox="0 0 32 32">
<title>bible</title>
<path d="M27.086 27.99c0.662 0 1.198-0.536 1.198-1.198v-25.595c0-0.661-0.536-1.198-1.198-1.198h-20.979c-1.318 0-2.39 1.072-2.39 2.39v25.27c0 0.041 0.002 0.081 0.006 0.121-0.002 0.040-0.006 0.080-0.006 0.121v1.689c0 1.329 1.081 2.41 2.41 2.41h20.959c0.662 0 1.198-0.536 1.198-1.198s-0.536-1.198-1.198-1.198h-0.064v-1.615h0.064zM12.434 9.432h2.369v-2.316c0-0.661 0.536-1.198 1.198-1.198s1.198 0.536 1.198 1.198v2.316h2.369c0.662 0 1.198 0.536 1.198 1.198s-0.536 1.198-1.198 1.198h-2.369v7.265c0 0.661-0.536 1.198-1.198 1.198s-1.198-0.536-1.198-1.198v-7.265h-2.369c-0.662 0-1.198-0.536-1.198-1.198s0.536-1.198 1.198-1.198zM24.626 29.605h-18.499c-0.008 0-0.015-0.007-0.015-0.015v-1.6h18.514v1.615z"></path>
</svg>
