<!-- Generated by IcoMoon.io -->
<svg version="1.1" xmlns="http://www.w3.org/2000/svg" width="32" height="32" viewBox="0 0 32 32">
<title>black</title>
<path d="M29.858 7.971c-1.429-1.756-3.369-3.143-5.822-4.161s-5.131-1.527-8.036-1.527c-2.167 0-4.238 0.301-6.214 0.902s-3.678 1.414-5.107 2.437c-1.429 1.024-2.566 2.241-3.411 3.652s-1.268 2.89-1.268 4.438c0 1.786 0.539 3.459 1.616 5.018s2.551 2.869 4.42 3.929c-0.131 0.476-0.286 0.929-0.464 1.357s-0.339 0.78-0.482 1.054c-0.143 0.274-0.336 0.577-0.58 0.911s-0.428 0.568-0.553 0.705c-0.125 0.137-0.33 0.363-0.616 0.679s-0.47 0.521-0.553 0.616c-0.012 0.006-0.060 0.060-0.143 0.161s-0.125 0.152-0.125 0.152l-0.107 0.16c-0.060 0.090-0.086 0.146-0.080 0.169s-0.006 0.083-0.036 0.178c-0.030 0.095-0.027 0.167 0.009 0.215v0.018c0.048 0.214 0.152 0.387 0.313 0.518s0.342 0.184 0.545 0.16c0.774-0.095 1.453-0.226 2.036-0.393 3.119-0.798 5.857-2.238 8.214-4.322 0.893 0.095 1.756 0.143 2.589 0.143 2.905 0 5.584-0.509 8.036-1.527s4.393-2.405 5.821-4.16c1.429-1.755 2.143-3.669 2.143-5.741s-0.714-3.985-2.142-5.741z"></path>
</svg>
