<!-- Generated by IcoMoon.io -->
<svg version="1.1" xmlns="http://www.w3.org/2000/svg" width="32" height="32" viewBox="0 0 32 32">
<title>book-1</title>
<path d="M28.866 29.608v-28.52c0-0.869-1.086-1.088-1.086-1.088h-21.385c-3.261 0-3.261 3.010-3.261 3.010v27.832c0 0.638 0.516 1.159 1.161 1.159h20.871c0.64 0 1.159-0.52 1.159-1.159l1.381-0.004c1.246 0 1.161-1.229 1.161-1.229zM16.624 14.19v12.561h-2.402v-12.561h-5.294v-2.402h5.294v-4.249h2.402v4.249h5.292l0.002 2.402c0 0-5.294 0-5.294 0zM27.523 28.095c0 0-0.207 0.755-1.198 0.755v-24.631c0-0.64-0.518-1.159-1.159-1.159l-19.75-0.010c0-0.796 1.198-1.2 1.198-1.2h19.71c1.235 0 1.198 1.088 1.198 1.088s0 25.158 0 25.158z"></path>
</svg>
