<!-- Generated by IcoMoon.io -->
<svg version="1.1" xmlns="http://www.w3.org/2000/svg" width="32" height="32" viewBox="0 0 32 32">
<title>buildings</title>
<path d="M16.532 1.006l15.224 14.167c0.308 0.297 0.33 0.781 0.044 1.1-0.154 0.165-0.363 0.242-0.572 0.242v0.011h-3.85v13.903c0 0.429-0.352 0.781-0.781 0.781h-6.061c-0.429 0-0.77-0.352-0.77-0.781v-10.691h-7.524v10.691c0 0.429-0.352 0.781-0.781 0.781h-6.061c-0.429 0-0.77-0.352-0.77-0.781v-13.903h-3.861c-0.429 0-0.77-0.351-0.77-0.78 0-0.242 0.11-0.462 0.286-0.605l15.19-14.146c0.297-0.274 0.759-0.274 1.056 0.011v0zM23.087 9.222l-7.084-6.599-13.254 12.342h2.651c0.429 0 0.781 0.352 0.781 0.781v13.903h4.51v-10.682c0-0.429 0.341-0.781 0.77-0.781h9.075c0.429 0 0.781 0.352 0.781 0.781v10.68h4.51v-13.903c0-0.429 0.341-0.781 0.77-0.781h2.662l-6.171-5.742z"></path>
</svg>
