<!-- Generated by IcoMoon.io -->
<svg version="1.1" xmlns="http://www.w3.org/2000/svg" width="32" height="32" viewBox="0 0 32 32">
<title>businesswoman</title>
<path d="M16.829 18.4l1.269 3.742-1.773-0.137-1.249 1.537 3.304 3.304 4.677-4.677c-0.36-0.602-0.89-1.092-1.531-1.413l-4.017-1.982c-0.229-0.118-0.451-0.242-0.68-0.373z"></path>
<path d="M8.514 22.004l-1.773 0.137 1.295-3.742-0.805 0.412-3.918 1.936c-1.047 0.517-1.792 1.498-2.002 2.649l-0.641 3.546c-0.046 0.262 0.15 0.504 0.419 0.504h4.697l3.945-3.945-1.217-1.498z"></path>
<path d="M22.272 14.841c0.458 0.222 0.949 0.334 1.452 0.419 0.392 0.059 0.406 0.079 0.406 0.484 0 0.183 0 0.366 0.007 0.556 0 0.235 0.118 0.366 0.353 0.373 0.268 0.007 0.543 0.007 0.818 0 0.222-0.007 0.334-0.124 0.34-0.353 0-0.255 0.013-0.504 0-0.759s0.098-0.386 0.347-0.451c0.569-0.157 1.053-0.458 1.426-0.916 1.034-1.256 0.635-3.094-0.824-3.905-0.458-0.255-0.949-0.445-1.433-0.648-0.281-0.118-0.549-0.255-0.785-0.438-0.464-0.373-0.379-0.975 0.17-1.217 0.15-0.065 0.314-0.092 0.484-0.098 0.635-0.033 1.236 0.079 1.805 0.36 0.288 0.137 0.379 0.092 0.478-0.203 0.105-0.314 0.19-0.635 0.281-0.949 0.059-0.216-0.013-0.353-0.216-0.445-0.366-0.164-0.746-0.281-1.138-0.34-0.517-0.079-0.517-0.085-0.517-0.602 0-0.733 0-0.733-0.739-0.733-0.105 0-0.216 0-0.321 0-0.34 0.013-0.399 0.072-0.412 0.412-0.007 0.157 0 0.307 0 0.464 0 0.458-0.007 0.451-0.445 0.615-1.066 0.386-1.72 1.112-1.792 2.27-0.065 1.027 0.471 1.72 1.315 2.224 0.517 0.314 1.092 0.497 1.642 0.739 0.216 0.092 0.419 0.203 0.602 0.353 0.53 0.438 0.432 1.164-0.196 1.439-0.334 0.144-0.693 0.183-1.053 0.137-0.563-0.072-1.099-0.216-1.609-0.484-0.294-0.157-0.386-0.111-0.484 0.209-0.085 0.275-0.164 0.556-0.242 0.837-0.118 0.386-0.078 0.478 0.281 0.648z"></path>
<path d="M9.228 16.313v1.184l1.681 4.906c0.432-0.288 0.942-0.445 1.472-0.445 0.556 0 1.092 0.17 1.537 0.491l1.688-4.926-0.007-0.085v-1.151c0 0 3.637 0.111 5.364-1.649 0 0-2.512-0.713-2.061-5.286s-0.563-8.583-4.239-8.243c0 0-1.59-1.917-4.762-0.713-1.086 0.412-4.010 1.459-3.86 7.791s-2.25 6.372-2.25 6.372 1.236 1.786 5.436 1.753z"></path>
<path d="M30.782 17.916c-0.020 0-0.046 0-0.065 0-1.42 0.065-2.839 0.131-4.259 0.203-0.222 0.013-0.438 0.020-0.563 0.288-0.124 0.262 0.020 0.412 0.17 0.563 0.438 0.438 0.863 0.877 1.308 1.308l-8.995 8.995-5.338-5.338c-0.183-0.183-0.425-0.275-0.661-0.275-0.242 0-0.478 0.092-0.661 0.275l-0.229 0.235-4.906 4.906c-0.366 0.366-0.366 0.962 0 1.321l0.236 0.235c0.183 0.183 0.425 0.275 0.661 0.275 0.242 0 0.478-0.092 0.661-0.275l4.239-4.239 5.331 5.331c0.183 0.183 0.425 0.275 0.661 0.275 0.242 0 0.478-0.092 0.661-0.275l9.884-9.884 1.282 1.269c0.118 0.118 0.235 0.249 0.406 0.249 0.065 0 0.131-0.020 0.209-0.059 0.255-0.137 0.314-0.36 0.321-0.615 0.059-1.387 0.131-2.767 0.196-4.154 0.033-0.425-0.144-0.615-0.549-0.615z"></path>
</svg>
