<!-- Generated by IcoMoon.io -->
<svg version="1.1" xmlns="http://www.w3.org/2000/svg" width="46" height="32" viewBox="0 0 46 32">
<title>business</title>
<path d="M15.671 0.068c-0.336 0.062-0.621 0.236-0.907 0.553-0.441 0.491-0.416-0.597-0.398 14.434l0.019 13.527h-0.951l-0.068-0.273c-0.050-0.199-0.068-3.219-0.068-10.687v-10.414h-4.623c-5.064 0-4.896-0.012-5.381 0.373-0.137 0.112-0.317 0.342-0.416 0.547l-0.174 0.354-0.019 9.706c-0.006 5.337 0.006 9.861 0.037 10.054l0.056 0.342h-2.777v3.417h46.353v-3.417h-2.517l0.019-9.954c0.019-11.048 0.044-10.339-0.404-10.855-0.124-0.149-0.367-0.336-0.541-0.416l-0.317-0.149h-9.538v10.37c0 7.711-0.019 10.457-0.075 10.687l-0.068 0.317h-0.944v-27.309l-0.143-0.292c-0.162-0.329-0.541-0.696-0.876-0.845-0.205-0.099-0.889-0.106-7.618-0.118-4.070 0-7.512 0.019-7.661 0.050zM24.376 0.963c2.057 0.435 3.765 2.088 4.343 4.207 0.124 0.441 0.143 0.659 0.137 1.479-0.006 0.857-0.025 1.025-0.168 1.51-0.329 1.069-0.833 1.883-1.64 2.659-1.143 1.094-2.504 1.597-4.113 1.529-0.926-0.037-1.466-0.174-2.274-0.572-1.448-0.715-2.572-2.075-3.026-3.666-0.124-0.429-0.143-0.634-0.137-1.522 0-0.932 0.019-1.075 0.174-1.584 0.559-1.839 1.908-3.25 3.691-3.859 0.329-0.118 0.802-0.236 1.038-0.267 0.528-0.075 1.404-0.037 1.976 0.087zM7.581 12.52v1.149h-2.237v-2.299h2.237v1.149zM11.247 12.52v1.149h-2.299v-2.299h2.299v1.149zM38.027 12.52v1.149h-2.299v-2.299h2.299v1.149zM41.693 12.52v1.149h-2.299v-2.299h2.299v1.149zM7.581 16.559v1.149h-2.237v-2.299h2.237v1.15zM11.247 16.559v1.149h-2.299v-2.299h2.299v1.15zM38.027 16.559v1.149h-2.299v-2.299h2.299v1.15zM41.693 16.559v1.149h-2.299v-2.299h2.299v1.15zM7.581 20.66v1.149h-2.237v-2.299h2.237v1.149zM11.247 20.66v1.149h-2.299v-2.299h2.299v1.149zM38.027 20.66v1.149h-2.299v-2.299h2.299v1.149zM41.693 20.66v1.149h-2.299v-2.299h2.299v1.149zM26.781 24.171v4.287h-6.835v-8.575h6.835v4.287z"></path>
<path d="M21.685 4.039v1.118h-2.175v2.92h2.175v2.237h2.92v-2.237h2.237v-2.92h-2.237v-2.237h-2.92v1.118z"></path>
</svg>
