<!-- Generated by IcoMoon.io -->
<svg version="1.1" xmlns="http://www.w3.org/2000/svg" width="32" height="32" viewBox="0 0 32 32">
<title>calendertime</title>
<path fill="#555" d="M5.002 1.461c-0.259 0.113-0.513 0.29-0.659 0.459-0.156 0.181-0.272 0.366-0.286 0.455-0.009 0.057-0.035 0.116-0.058 0.131-0.054 0.036-0.050-0.156-0.057 2.373l-0.006 2.192 0.129 0.282c0.227 0.495 0.787 0.926 1.258 0.967 0.099 0.009 0.191 0.020 0.205 0.025s0.129 0.005 0.255 0c0.517-0.021 1.087-0.447 1.372-1.024l0.139-0.282v-4.352l-0.138-0.296c-0.076-0.163-0.141-0.305-0.143-0.317-0.013-0.057-0.382-0.392-0.538-0.488-0.428-0.265-1.036-0.316-1.474-0.126zM15.616 1.385c-0.273 0.055-0.614 0.2-0.614 0.261 0 0.024-0.033 0.043-0.072 0.043s-0.149 0.098-0.242 0.218c-0.093 0.12-0.193 0.235-0.222 0.255s-0.037 0.038-0.017 0.038c0.020 0-0.015 0.11-0.077 0.244-0.121 0.262-0.176 3.971-0.068 4.592 0.169 0.973 1.451 1.609 2.336 1.159 0.454-0.231 0.819-0.623 0.928-0.997 0.093-0.319 0.060-4.414-0.038-4.71-0.165-0.499-0.765-1.072-1.146-1.095-0.042-0.002-0.18-0.016-0.307-0.030s-0.334-0.005-0.461 0.021zM0.465 11.994c0.005 7.435 0.023 8.2 0.203 8.422 0.006 0.007 0.016 0.036 0.023 0.064s0.017 0.057 0.023 0.064c0.006 0.007 0.021 0.069 0.033 0.139s0.043 0.138 0.067 0.154 0.068 0.115 0.097 0.221c0.061 0.221 0.608 1.112 0.683 1.112 0.027 0 0.038 0.019 0.024 0.042s0.108 0.172 0.273 0.33 0.286 0.301 0.27 0.316c-0.015 0.015-0.004 0.028 0.026 0.028s0.166 0.092 0.302 0.205 0.268 0.205 0.293 0.205c0.025 0 0.132 0.069 0.239 0.154s0.226 0.154 0.265 0.154c0.039 0 0.119 0.034 0.178 0.075 0.108 0.076 0.94 0.395 0.94 0.36 0-0.010 0.075 0.004 0.166 0.031s0.236 0.065 0.32 0.083c0.262 0.057 11.153 0.071 11.238 0.015 0.068-0.045 0.068-0.050 0-0.051-0.105-0.001-0.461-0.303-0.934-0.793s-0.608-0.641-0.571-0.641c0.015 0-0.042-0.085-0.127-0.188s-0.143-0.207-0.129-0.23c0.014-0.023 0.003-0.042-0.025-0.042s-0.067-0.052-0.087-0.115c-0.020-0.063-0.050-0.127-0.067-0.141-0.059-0.048-0.159-0.254-0.159-0.327 0-0.131-0.135-0.135-4.437-0.134-2.35 0.001-4.291-0.009-4.312-0.023s-0.115-0.038-0.208-0.054c-0.092-0.016-0.24-0.068-0.329-0.115s-0.192-0.090-0.23-0.097c-0.038-0.007-0.119-0.056-0.179-0.109s-0.152-0.13-0.204-0.17c-0.095-0.073-0.332-0.311-0.458-0.459-0.147-0.173-0.407-0.795-0.446-1.067-0.023-0.158-0.046-0.311-0.052-0.339s-0.008-1.981-0.005-4.339l0.006-4.288h15.206v1.129c0 0.737 0.018 1.118 0.051 1.098 0.053-0.033 0.143-0.053 0.485-0.109 0.306-0.050 1.326-0.051 1.781-0.002l0.397 0.043v-7.996h-2.461l0.002 1.165c0.003 1.576-0.056 1.88-0.484 2.466-0.686 0.941-2.147 1.385-3.125 0.95-0.113-0.050-0.216-0.095-0.23-0.099-0.123-0.040-0.307-0.154-0.307-0.191 0-0.025-0.023-0.032-0.050-0.015-0.049 0.031-0.579-0.472-0.704-0.668-0.127-0.2-0.321-0.585-0.338-0.674-0.010-0.050-0.033-0.126-0.051-0.168-0.067-0.157-0.078-0.361-0.081-1.549l-0.004-1.216h-4.959l-0.020 1.344c-0.021 1.385-0.067 1.683-0.305 1.971-0.029 0.035-0.037 0.064-0.017 0.064s0.002 0.034-0.040 0.075c-0.042 0.041-0.122 0.151-0.18 0.243-0.255 0.41-1.439 1.115-1.652 0.984-0.021-0.013-0.053-0.002-0.070 0.026-0.079 0.127-1.058 0.012-1.419-0.166-0.133-0.066-0.23-0.101-0.216-0.078 0.126 0.204-0.669-0.466-0.938-0.79-0.185-0.223-0.539-1.011-0.519-1.156 0.003-0.019 0.002-0.593-0.001-1.276l-0.006-1.242h-2.458l0.005 7.386zM5.089 12.206c-0.205 0.092-0.532 0.418-0.533 0.532-0.022 1.985-0.009 2.177 0.17 2.435 0.259 0.373 2.38 0.521 2.734 0.19 0.051-0.047 0.114-0.084 0.14-0.083 0.249 0.015 0.438-2.149 0.223-2.551-0.032-0.060-0.057-0.12-0.056-0.134 0.006-0.055-0.121-0.189-0.292-0.309-0.222-0.156-2.077-0.218-2.386-0.080zM9.567 12.24c-0.185 0.096-0.375 0.342-0.44 0.57-0.044 0.155-0.067 1.816-0.027 2.011 0.037 0.183 0.458 0.609 0.633 0.64 0.373 0.066 2.169 0.019 2.274-0.060 0.173-0.13 0.326-0.289 0.387-0.4 0.1-0.183 0.134-1.836 0.045-2.15-0.036-0.127-0.060-0.253-0.052-0.282s-0.004-0.034-0.025-0.013c-0.021 0.021-0.063-0.014-0.094-0.077-0.169-0.347-2.152-0.523-2.7-0.24zM14.259 12.188c-0.199 0.060-0.428 0.276-0.516 0.486-0.112 0.268-0.108 2.138 0.005 2.311 0.329 0.502 0.567 0.569 0.817 0.231 0.232-0.313 0.533-0.663 0.686-0.798 0.067-0.059 0.221-0.201 0.343-0.316s0.32-0.275 0.441-0.356c0.121-0.081 0.274-0.195 0.34-0.252s0.123-0.097 0.128-0.087c0.038 0.080 0.489-0.233 0.514-0.357 0.054-0.272-0.272-0.813-0.489-0.813-0.051 0-0.093-0.021-0.093-0.046 0-0.060-1.978-0.063-2.176-0.003zM18.816 13.704c-0.431 0.091-0.422 0.089-0.614 0.167-0.084 0.035-0.223 0.077-0.307 0.094s-0.264 0.096-0.399 0.175c-0.135 0.080-0.268 0.145-0.297 0.145s-0.079 0.024-0.113 0.054c-0.034 0.030-0.223 0.168-0.42 0.309-0.559 0.397-1.482 1.447-1.456 1.656 0.003 0.026-0.031 0.067-0.076 0.092s-0.081 0.068-0.081 0.096c0 0.028-0.038 0.136-0.085 0.241-0.201 0.449-0.279 0.702-0.409 1.317-0.035 0.166-0.050 1.136-0.023 1.51 0.017 0.238 0.135 0.767 0.211 0.947 0.024 0.056 0.058 0.16 0.076 0.23 0.048 0.187 0.174 0.452 0.231 0.487 0.027 0.017 0.050 0.068 0.050 0.113s0.032 0.119 0.072 0.163c0.040 0.044 0.135 0.195 0.212 0.334s0.235 0.355 0.351 0.479c0.401 0.429 0.657 0.676 0.703 0.676 0.025 0 0.046 0.018 0.046 0.040 0 0.080 1.124 0.758 1.323 0.798 0.047 0.009 0.172 0.056 0.278 0.103s0.267 0.097 0.358 0.112c0.091 0.015 0.2 0.033 0.243 0.040s0.107 0.031 0.144 0.054c0.125 0.077 1.418 0.101 1.759 0.032 0.178-0.036 0.386-0.073 0.462-0.083s0.346-0.099 0.6-0.198c0.254-0.099 0.485-0.18 0.514-0.18s0.052-0.023 0.052-0.051 0.019-0.045 0.042-0.038c0.023 0.007 0.155-0.058 0.294-0.144s0.268-0.155 0.287-0.154c0.019 0.002 0.088-0.058 0.154-0.132s0.146-0.143 0.178-0.154c0.066-0.022 0.581-0.496 0.581-0.535 0-0.014 0.063-0.090 0.141-0.17 0.198-0.204 0.312-0.359 0.427-0.581 0.055-0.106 0.122-0.192 0.15-0.192s0.050-0.036 0.050-0.079c0-0.044 0.050-0.176 0.111-0.294 0.202-0.389 0.232-0.467 0.344-0.892 0.171-0.644 0.24-2.152 0.106-2.306-0.013-0.015-0.017-0.029-0.069-0.294-0.14-0.705-0.579-1.58-1.078-2.15-0.337-0.386-0.793-0.813-1.027-0.962-0.141-0.090-0.301-0.204-0.355-0.253s-0.118-0.093-0.141-0.097c-0.106-0.016-0.463-0.165-0.669-0.28-0.077-0.043-0.141-0.066-0.141-0.052s-0.079-0.007-0.175-0.047c-0.096-0.040-0.27-0.085-0.387-0.1s-0.251-0.047-0.299-0.071c-0.148-0.076-1.537-0.057-1.93 0.026zM19.507 15.332c0 0.312 0.009 0.337 0.141 0.404 0.32 0.162 0.525-0.010 0.525-0.442v-0.306l0.269 0.035c0.343 0.044 0.808 0.182 0.916 0.273 0.046 0.038 0.133 0.073 0.192 0.078s0.108 0.026 0.108 0.048c0 0.022 0.033 0.040 0.073 0.040s0.109 0.036 0.154 0.080c0.044 0.044 0.080 0.065 0.080 0.046 0-0.133 1.113 0.959 1.159 1.137 0.016 0.061 0.060 0.123 0.098 0.138s0.097 0.12 0.132 0.234c0.034 0.114 0.082 0.207 0.105 0.207s0.043 0.045 0.043 0.099 0.023 0.114 0.051 0.131c0.028 0.017 0.051 0.087 0.051 0.154s0.023 0.136 0.052 0.154c0.029 0.018 0.041 0.050 0.028 0.072s-0.003 0.118 0.023 0.214c0.125 0.463 0.128 0.456-0.186 0.456-0.478 0-0.651 0.184-0.467 0.497 0.105 0.177 0.122 0.183 0.512 0.17 0.239-0.008 0.242-0.006 0.195 0.118-0.026 0.070-0.035 0.14-0.019 0.156 0.226 0.226-1.057 2.422-1.424 2.438-0.017 0.001-0.109 0.070-0.205 0.154s-0.202 0.153-0.237 0.154-0.064 0.020-0.064 0.043c0 0.060-0.961 0.429-1.178 0.452-0.099 0.011-0.243 0.030-0.32 0.043-0.138 0.023-0.141 0.018-0.141-0.229 0-0.266-0.087-0.528-0.161-0.483-0.024 0.015-0.044 0.007-0.044-0.018 0-0.085-0.32-0.031-0.391 0.065-0.040 0.055-0.070 0.222-0.070 0.389v0.294l-0.218-0.024c-0.312-0.035-0.365-0.045-0.422-0.078-0.028-0.016-0.12-0.048-0.205-0.071-0.451-0.121-0.887-0.343-1.254-0.637-0.445-0.356-0.602-0.511-0.696-0.682-0.043-0.079-0.123-0.196-0.179-0.259-0.138-0.159-0.413-0.697-0.381-0.747 0.014-0.023-0.007-0.068-0.046-0.101s-0.065-0.099-0.057-0.147-0.013-0.156-0.046-0.241c-0.033-0.084-0.067-0.252-0.074-0.371l-0.014-0.218h0.276c0.329 0 0.5-0.123 0.5-0.359 0-0.207-0.194-0.329-0.5-0.313-0.128 0.007-0.249-0.013-0.268-0.044-0.047-0.076 0.038-0.575 0.121-0.708 0.023-0.037 0.030-0.079 0.015-0.094s0.040-0.155 0.121-0.312c0.081-0.157 0.134-0.308 0.116-0.336s-0.006-0.035 0.027-0.015c0.032 0.020 0.059 0.010 0.059-0.023s0.048-0.126 0.106-0.208c0.058-0.082 0.094-0.149 0.079-0.149-0.091 0 0.816-0.907 1.002-1.002 0.093-0.048 0.182-0.101 0.196-0.118 0.071-0.086 0.608-0.35 0.788-0.387 0.059-0.012 0.208-0.052 0.331-0.089s0.313-0.073 0.422-0.081l0.199-0.014v0.333zM17.981 16.335c-0.062 0.057-0.112 0.086-0.113 0.064-0.003-0.15-0.1 0.154-0.101 0.315-0.001 0.197 0.209 0.592 0.313 0.592 0.024 0 0.044 0.029 0.044 0.064s0.058 0.127 0.128 0.203c0.070 0.076 0.128 0.157 0.128 0.179s0.058 0.103 0.128 0.179c0.070 0.076 0.128 0.163 0.128 0.194s0.052 0.109 0.115 0.174c0.188 0.194 0.245 0.322 0.199 0.447-0.163 0.44 0.33 1.068 0.837 1.067 0.346-0.001 0.868-0.266 0.753-0.381-0.018-0.018 0.282-0.029 0.666-0.024s0.723-0.007 0.754-0.026 0.055-0.021 0.055-0.005c0 0.016 0.069-0.033 0.154-0.108 0.165-0.147 0.192-0.301 0.101-0.563-0.094-0.27-0.266-0.325-1.014-0.325h-0.667l-0.168-0.153c-0.141-0.128-0.365-0.218-0.575-0.228-0.025-0.001-0.071-0.047-0.102-0.102s-0.109-0.158-0.172-0.23c-0.063-0.072-0.115-0.157-0.115-0.19s-0.020-0.068-0.045-0.077c-0.044-0.017-0.153-0.166-0.583-0.794-0.269-0.394-0.602-0.5-0.848-0.271zM5.197 16.535c-0.056 0.023-0.12 0.031-0.141 0.019s-0.038 0.002-0.038 0.032c0 0.030-0.031 0.054-0.068 0.054-0.074 0-0.225 0.16-0.332 0.351-0.123 0.219-0.085 2.235 0.047 2.448 0.227 0.368 0.326 0.398 1.349 0.42 1.284 0.027 1.455-0.016 1.734-0.427l0.138-0.204v-1.013c0-1.629-0.099-1.731-1.674-1.725-0.502 0.002-0.958 0.022-1.014 0.045zM9.794 16.537c-0.313 0.066-0.556 0.309-0.657 0.656-0.112 0.386-0.092 2.035 0.027 2.108 0.041 0.026 0.061 0.061 0.044 0.078-0.062 0.061 0.244 0.33 0.464 0.407 0.281 0.099 1.855 0.112 2.169 0.018 0.32-0.096 0.521-0.327 0.598-0.687 0.102-0.483 0.057-1.831-0.070-2.094-0.097-0.2-0.333-0.454-0.379-0.408-0.013 0.013-0.057-0.005-0.099-0.040-0.093-0.077-1.766-0.108-2.095-0.039z"></path>
</svg>
