<!-- Generated by IcoMoon.io -->
<svg version="1.1" xmlns="http://www.w3.org/2000/svg" width="32" height="32" viewBox="0 0 32 32">
<title>calendar</title>
<path d="M22.086 3.388v-1.882h-2.259v1.882h-7.655v-1.882h-2.259v1.882h-9.914v27.106h32v-27.106h-9.914zM9.914 5.647v1.882h2.259v-1.882h7.655v1.506h2.259v-1.506h7.655v3.765h-27.482v-3.765h7.655zM2.259 28.235v-16.565h27.482v16.565h-27.482z"></path>
<path d="M7.341 21.459h3.765v3.765h-3.765v-3.765z"></path>
<path d="M14.118 21.459h3.765v3.765h-3.765v-3.765z"></path>
<path d="M20.894 21.459h3.765v3.765h-3.765v-3.765z"></path>
<path d="M14.118 14.682h3.765v3.765h-3.765v-3.765z"></path>
<path d="M20.894 14.682h3.765v3.765h-3.765v-3.765z"></path>
<path d="M7.341 14.682h3.765v3.765h-3.765v-3.765z"></path>
</svg>
