<!-- Generated by IcoMoon.io -->
<svg version="1.1" xmlns="http://www.w3.org/2000/svg" width="32" height="32" viewBox="0 0 32 32">
<title>captured-criminal-hands</title>
<path d="M32 21.841c0-0.758-0.966-1.185-2.125-1.425l-0.165-2.561c1.091-3.224-0.099-7.397-0.099-7.397-0.144-2.303-2.66-2.124-2.66-2.124-1.033-1.945-2.709-0.591-2.709-0.591-1.246-1.911-2.866-0.203-2.866-0.203-2.746-0.367-2.673 1.947-2.673 1.947-0.075 0.734 0.345 3.017 0.345 3.017-0.39-1.319-1.29-0.252-1.29-0.252-1.112 1.701-0.307 2.664-0.307 2.664 1.448 1.807 4.555 4.006 4.555 4.006 0.289 0.178 0.544 0.752 0.761 1.504-0.034 0.007-0.068 0.016-0.102 0.023-0.329-0.446-0.645-0.912-0.667-1.083-0.047-0.365-0.215-0.558-0.986 0.113-0.189 0.164-0.415 0.308-0.65 0.433l-0.939-1.078c0.124-0.288 0.154-0.607 0.074-0.915-0.096-0.366-0.329-0.674-0.657-0.864l-1.3-0.76c-0.217-0.127-0.465-0.194-0.715-0.194-0.502 0-0.972 0.269-1.225 0.703-0.116 0.197-0.174 0.415-0.186 0.636h-0.648c-0.198-0.642-0.789-1.111-1.494-1.111-0.841 0-1.523 0.665-1.564 1.496l-0.706 0.229c-0.077-0.296-0.131-0.606-0.131-0.895 0-0.009-0.001-0.018-0.001-0.027 1.032-0.79 2.703-2.149 3.655-3.338 0 0 0.806-0.963-0.307-2.664 0 0-0.901-1.067-1.29 0.252 0 0 0.42-2.284 0.345-3.017 0 0 0.074-2.314-2.673-1.947 0 0-1.62-1.708-2.866 0.203 0 0-1.676-1.354-2.709 0.591 0 0-2.515-0.178-2.66 2.124 0 0-1.19 4.173-0.099 7.397l-0.096 1.511c-1.179 0.238-2.17 0.667-2.17 1.435 0 0.728 0.891 1.151 1.988 1.396l-0.202 3.142 6.464 0.945c0 0 0.183-2.043 0.536-3.985 0.242-0.041 0.479-0.089 0.705-0.145h2.045v-1.574c0 0-0.11-0.213-0.241-0.532l0.643-0.208c0.277 0.45 0.769 0.754 1.335 0.754 0.705 0 1.296-0.47 1.494-1.111h0.917c0.113 0.154 0.256 0.285 0.426 0.385l1.301 0.76c0.217 0.127 0.464 0.194 0.714 0.194 0.241 0 0.474-0.063 0.68-0.175l0.672 0.773c-0.366 0.129-0.634 0.194-0.634 0.194l-1.187 1.033 1.476 1.696 1.829-0.76c0.444 0.477 1.398 0.75 2.408 0.907 0.237 1.557 0.359 2.919 0.359 2.919l6.463-0.945-0.136-2.112c1.077-0.247 1.944-0.669 1.944-1.387zM10.259 17.721c0 0.169-0.137 0.306-0.307 0.306-0.062 0-0.116-0.023-0.164-0.055 0.059-0.074 0.12-0.134 0.183-0.172 0 0 0.097-0.070 0.265-0.192 0.014 0.035 0.023 0.073 0.023 0.113zM1.436 19.678c0.16-0.064 0.381-0.132 0.655-0.198l-0.025 0.39c-0.263-0.064-0.474-0.13-0.63-0.192zM13.274 18.552c-0.359 0-0.651-0.292-0.651-0.651s0.292-0.651 0.651-0.651c0.18 0 0.342 0.073 0.461 0.192h-0.461v0.92h0.461c-0.118 0.118-0.281 0.192-0.461 0.192zM17.875 18.71l-0.923-0.539v-0.731h-0.617c0.009-0.060 0.029-0.118 0.061-0.172 0.089-0.153 0.254-0.247 0.431-0.247 0.087 0 0.174 0.024 0.251 0.068l1.3 0.76c0.115 0.067 0.197 0.175 0.231 0.303 0.006 0.025 0.009 0.049 0.012 0.074l-0.536 0.467 0.068 0.078c-0.095 0.007-0.191-0.012-0.276-0.062zM20.992 20.311c0.128-0.111 0.321-0.097 0.432 0.031s0.098 0.321-0.030 0.432c-0.128 0.11-0.321 0.097-0.432-0.031-0.006-0.006-0.008-0.015-0.013-0.022l0.067-0.058-0.128-0.147c0.007-0.077 0.040-0.151 0.103-0.205zM19.873 21.526c-0.128 0.111-0.321 0.098-0.432-0.030s-0.097-0.321 0.029-0.432c0.128-0.111 0.322-0.097 0.433 0.031s0.097 0.321-0.030 0.432zM22.301 21.901l0.751-0.313c0.036 0.174 0.072 0.351 0.106 0.53-0.354-0.069-0.64-0.144-0.857-0.217zM29.979 22.022l-0.024-0.367c0.254 0.062 0.457 0.126 0.609 0.186-0.147 0.059-0.343 0.12-0.585 0.181z"></path>
</svg>
