<!-- Generated by IcoMoon.io -->
<svg version="1.1" xmlns="http://www.w3.org/2000/svg" width="32" height="32" viewBox="0 0 32 32">
<title>car-black-side-silhouette</title>
<path d="M31.518 15.358c-0.045-0.542-0.095-1.155-0.194-1.684-0.068-0.37-0.219-0.863-0.727-0.863-0.051 0-0.102 0.005-0.152 0.010-0.031 0.003-0.063 0.007-0.114 0.008-0.001 0-0.018-0.016-0.038-0.077-0.149-0.427-0.775-0.959-1.577-1.608-0.198-0.159-0.434-0.352-0.535-0.451 0.037-0.256 0.032-0.57-0.147-0.787-0.083-0.101-0.238-0.222-0.507-0.222-0.039 0-0.081 0.002-0.175 0.011-0.194 0-0.582-0.080-1.119-0.191-1.386-0.284-3.965-0.814-7.833-0.898-5.631-0.111-10.057 3.952-10.239 4.124l-0.13 0.121c-0.231 0.112-0.962 0.379-3.194 0.818-3.166 0.623-3.77 1.632-3.885 2.022-0.253 0.189-0.662 0.639-0.727 1.168-0.052 0.422-0.17 0.595-0.17 0.594l-0.055 0.070v2.98l0.006 0.054c0.172 0.791 0.992 1.21 2.372 1.21 0.44 0 0.77-0.045 0.757-0.045 0.019-0.001 0.189-0.004 0.484-0.010-0.030-0.083-0.058-0.168-0.081-0.254-0.023-0.083-0.044-0.167-0.060-0.253-0.039-0.202-0.061-0.41-0.061-0.624 0-1.831 1.49-3.321 3.321-3.321s3.321 1.49 3.321 3.321c0 0.166-0.016 0.326-0.039 0.485-0.013 0.086-0.027 0.172-0.047 0.256-0.020 0.087-0.041 0.173-0.067 0.257 4.147-0.089 9.425-0.206 13.512-0.309-0.018-0.084-0.029-0.169-0.041-0.255-0.011-0.085-0.018-0.17-0.022-0.255-0.003-0.060-0.009-0.119-0.009-0.18 0-1.831 1.49-3.321 3.321-3.321 1.805 0 3.276 1.449 3.317 3.246 0 0.025 0.004 0.050 0.004 0.076 0 0.064-0.006 0.127-0.010 0.191-0.005 0.091-0.014 0.181-0.026 0.27 0.78-0.129 1.367-0.54 1.707-1.205 0.581-1.137 0.285-2.677 0.076-3.004-0.113-0.177-0.169-0.869-0.218-1.479z"></path>
<path d="M4.161 21.703c0.433 0.995 1.423 1.691 2.577 1.691 1.196 0 2.214-0.748 2.62-1.8 0.032-0.084 0.061-0.17 0.085-0.258 0.023-0.084 0.043-0.17 0.059-0.257 0.028-0.161 0.046-0.327 0.046-0.496 0-1.552-1.258-2.81-2.81-2.81s-2.81 1.258-2.81 2.81c0 0.211 0.025 0.416 0.069 0.613 0.019 0.086 0.041 0.17 0.068 0.252 0.028 0.087 0.059 0.171 0.095 0.254z"></path>
<path d="M23.941 21.26c0.303 1.225 1.407 2.134 2.726 2.134 1.378 0 2.523-0.993 2.762-2.302 0.015-0.085 0.027-0.17 0.036-0.258 0.008-0.083 0.013-0.166 0.013-0.25 0-0.002 0-0.004 0-0.007-0.003-1.549-1.26-2.804-2.81-2.804-1.552 0-2.81 1.258-2.81 2.81 0 0.056 0.006 0.111 0.008 0.167 0.005 0.086 0.014 0.171 0.026 0.255 0.013 0.086 0.030 0.171 0.050 0.254z"></path>
</svg>
