<!-- Generated by IcoMoon.io -->
<svg version="1.1" xmlns="http://www.w3.org/2000/svg" width="32" height="32" viewBox="0 0 32 32">
<title>check2</title>
<path d="M19.193 16.443c-3.185 0-5.777 2.591-5.777 5.777s2.591 5.777 5.777 5.777 5.777-2.591 5.777-5.777-2.592-5.777-5.777-5.777zM19.193 25.879c-2.018 0-3.66-1.642-3.66-3.66 0-0.625 0.158-1.213 0.435-1.728l2.477 2.477c0.199 0.198 0.468 0.31 0.749 0.31h3.503c-0.455 1.503-1.853 2.601-3.503 2.601zM19.632 21.161l-2.166-2.166c0.515-0.277 1.103-0.435 1.728-0.435 1.65 0 3.048 1.098 3.503 2.601h-3.065z"></path>
<path d="M25.427 3.145h-3.046c-0.372-0.921-1.275-1.573-2.328-1.573h-1.644c-0.408-0.925-1.334-1.573-2.409-1.573s-2.001 0.647-2.409 1.573h-1.644c-1.053 0-1.956 0.652-2.328 1.573h-3.046c-1.456 0-2.641 1.185-2.641 2.641v23.572c0 1.456 1.185 2.641 2.641 2.641h18.853c1.456 0 2.641-1.185 2.641-2.641v-23.572c0-1.456-1.185-2.641-2.641-2.641zM11.554 4.083v0c0-0.217 0.176-0.393 0.393-0.393h2.48c0.585 0 1.059-0.474 1.059-1.059 0-0.283 0.231-0.514 0.514-0.514s0.514 0.231 0.514 0.514c0 0.585 0.474 1.059 1.059 1.059h2.48c0.217 0 0.393 0.176 0.393 0.393v1.815c0 0.217-0.176 0.393-0.393 0.393h-8.106c-0.217 0-0.393-0.176-0.393-0.393v-1.815zM25.427 29.883h-18.853c-0.289 0-0.524-0.235-0.524-0.524v-23.572c0-0.289 0.235-0.524 0.524-0.524h2.863v0.635c0 1.384 1.126 2.51 2.51 2.51h8.106c1.384 0 2.51-1.126 2.51-2.51v-0.635h2.863c0.289 0 0.524 0.235 0.524 0.524v23.572h0c-0 0.289-0.235 0.524-0.524 0.524z"></path>
<path d="M8.136 12.269h7.864c0.585 0 1.059-0.474 1.059-1.059s-0.474-1.059-1.059-1.059h-7.864c-0.585 0-1.059 0.474-1.059 1.059s0.474 1.059 1.059 1.059z"></path>
<path d="M8.136 15.414h4.718c0.585 0 1.059-0.474 1.059-1.059s-0.474-1.059-1.059-1.059h-4.718c-0.585 0-1.059 0.474-1.059 1.059s0.474 1.059 1.059 1.059z"></path>
<path d="M13.913 17.501c0-0.585-0.474-1.059-1.059-1.059h-4.718c-0.585 0-1.059 0.474-1.059 1.059s0.474 1.059 1.059 1.059h4.718c0.585 0 1.058-0.474 1.058-1.059z"></path>
</svg>
