<!-- Generated by IcoMoon.io -->
<svg version="1.1" xmlns="http://www.w3.org/2000/svg" width="32" height="32" viewBox="0 0 32 32">
<title>check-form</title>
<path d="M24.493 16.966v-14.389h-21.477v26.846h9.879c0.709 0 1.289 0.58 1.289 1.289s-0.58 1.289-1.289 1.289h-11.168c-0.709 0-1.289-0.58-1.289-1.289v-29.423c0-0.709 0.58-1.289 1.289-1.289h24.054c0.709 0 1.289 0.58 1.289 1.289v15.678c0 0.709-0.58 1.289-1.289 1.289s-1.288-0.58-1.288-1.289zM31.129 20.102c-0.537-0.473-1.353-0.43-1.825 0.107l-7.066 7.86-3.544-3.415c-0.515-0.494-1.332-0.473-1.825 0.043s-0.473 1.332 0.043 1.825l4.51 4.338c0.236 0.236 0.558 0.365 0.902 0.365 0.021 0 0.021 0 0.043 0 0.344-0.021 0.687-0.172 0.902-0.43l7.946-8.848c0.494-0.558 0.451-1.374-0.086-1.847zM19.768 7.517h-11.597c-0.709 0-1.289 0.58-1.289 1.289s0.58 1.289 1.289 1.289h11.597c0.709 0 1.289-0.58 1.289-1.289s-0.58-1.289-1.289-1.289zM21.057 15.893c0-0.709-0.58-1.289-1.289-1.289h-11.597c-0.709 0-1.289 0.58-1.289 1.289s0.58 1.289 1.289 1.289h11.597c0.709 0 1.289-0.58 1.289-1.289zM8.171 21.477c-0.709 0-1.289 0.58-1.289 1.289s0.58 1.289 1.289 1.289h3.436c0.709 0 1.289-0.58 1.289-1.289s-0.58-1.289-1.289-1.289h-3.436z"></path>
</svg>
