<!-- Generated by IcoMoon.io -->
<svg version="1.1" xmlns="http://www.w3.org/2000/svg" width="32" height="32" viewBox="0 0 32 32">
<title>checked-files</title>
<path d="M4.461 26.793c-0.299 0-0.542-0.243-0.542-0.542v-19.961c0-0.299 0.244-0.542 0.542-0.542h13.87c0.299 0 0.542 0.243 0.542 0.542v10.087c0.674-0.297 1.395-0.504 2.144-0.621v-9.466c0-1.481-1.205-2.686-2.686-2.686h-10.812v-0.917c0-0.3 0.244-0.542 0.542-0.542h13.871c0.299 0 0.542 0.243 0.542 0.542v12.961c0.73 0.008 1.445 0.116 2.144 0.306v-13.267c0-1.482-1.205-2.686-2.687-2.686h-13.87c-1.482 0-2.686 1.205-2.686 2.686v0.917h-0.914c-1.481 0-2.687 1.205-2.687 2.686v19.961c0 1.481 1.206 2.686 2.687 2.686h10.504c-0.412-0.662-0.738-1.38-0.962-2.144h-9.542z"></path>
<path d="M7.748 11.347h5.578c0.593 0 1.072-0.479 1.072-1.072s-0.479-1.072-1.072-1.072h-5.578c-0.592 0-1.072 0.48-1.072 1.072s0.48 1.072 1.072 1.072z"></path>
<path d="M15.044 13.495h-7.295c-0.592 0-1.072 0.479-1.072 1.072s0.48 1.072 1.072 1.072h7.295c0.592 0 1.072-0.48 1.072-1.072s-0.48-1.072-1.072-1.072z"></path>
<path d="M16.011 18.411c-0.17-0.367-0.536-0.626-0.967-0.626h-7.295c-0.592 0-1.072 0.48-1.072 1.072s0.48 1.072 1.072 1.072h7.123c0.325-0.547 0.707-1.056 1.139-1.518z"></path>
<path d="M6.676 23.148c0 0.593 0.48 1.072 1.072 1.072h5.909c0.011-0.741 0.119-1.458 0.306-2.144h-6.215c-0.592 0-1.072 0.479-1.072 1.072z"></path>
<path d="M28.145 22.883c0.121 0.472 0.192 0.965 0.192 1.474 0 3.291-2.678 5.97-5.97 5.97s-5.971-2.678-5.971-5.97c0-3.293 2.678-5.971 5.971-5.971 0.839 0 1.637 0.176 2.362 0.489l0.888-1.426c-0.988-0.467-2.087-0.736-3.25-0.736-4.215 0-7.644 3.429-7.644 7.644 0 4.214 3.429 7.643 7.644 7.643s7.643-3.429 7.643-7.643c0-1.172-0.273-2.278-0.745-3.271l-1.119 1.797z"></path>
<path d="M29.569 15.848c-0.229-0.142-0.484-0.211-0.736-0.211-0.465 0-0.92 0.232-1.184 0.657l-5.543 8.908-1.857-2.649c-0.271-0.386-0.704-0.593-1.143-0.593-0.276 0-0.555 0.082-0.799 0.253-0.629 0.442-0.783 1.311-0.34 1.941l3.067 4.374c0.262 0.372 0.688 0.593 1.142 0.593 0.013 0 0.025 0 0.038 0 0.468-0.013 0.898-0.26 1.145-0.656l6.657-10.697c0.407-0.654 0.207-1.514-0.446-1.92z"></path>
</svg>
