<!-- Generated by IcoMoon.io -->
<svg version="1.1" xmlns="http://www.w3.org/2000/svg" width="57" height="32" viewBox="0 0 57 32">
<title>cheque</title>
<path d="M1.768 0.212c-0.623 0.224-1.345 0.896-1.594 1.482-0.149 0.349-0.174 2.739-0.174 14.332 0 13.273 0.012 13.946 0.237 14.431 0.274 0.61 0.971 1.208 1.619 1.407 0.685 0.199 52.632 0.199 53.317-0.012 0.274-0.075 0.71-0.324 0.971-0.56 0.946-0.809 0.897 0.199 0.859-15.489l-0.037-14.020-0.361-0.523c-0.199-0.286-0.623-0.672-0.934-0.859l-0.573-0.336-26.397-0.025c-23.446-0.012-26.459 0-26.932 0.174zM54.649 2.054c0.199 0.1 0.386 0.274 0.436 0.374 0.037 0.112 0.075 6.251 0.075 13.647v13.447l-0.311 0.299-0.299 0.311h-52.072l-0.299-0.311-0.311-0.299v-13.497c0-14.257-0.025-13.697 0.56-14.008 0.174-0.1 7.62-0.137 26.061-0.149 22.412 0 25.861 0.025 26.16 0.187z"></path>
<path d="M9.774 5.043c-0.249 0.249-0.311 0.423-0.311 0.971v0.672l-0.511 0.087c-0.66 0.1-1.668 0.585-2.254 1.071-1.233 1.021-1.357 2.789-0.311 4.283 0.336 0.473 1.581 1.27 2.403 1.532l0.672 0.212v3.947l-0.274-0.087c-0.971-0.299-1.594-0.834-1.594-1.395 0-0.411-0.535-0.896-0.971-0.896-0.212 0-0.498 0.112-0.66 0.237-0.61 0.486-0.187 2.117 0.735 2.876 0.585 0.486 1.594 0.971 2.254 1.071l0.511 0.087v0.672c0 0.809 0.361 1.282 0.996 1.282 0.61 0 0.872-0.374 0.872-1.233v-0.735l0.548-0.075c0.834-0.125 1.992-0.76 2.54-1.395 1.133-1.282 0.984-3.125-0.361-4.346-0.436-0.398-1.656-1.046-2.503-1.345-0.199-0.075-0.224-0.286-0.224-2.017v-1.942l0.286 0.087c0.473 0.149 1.133 0.511 1.357 0.747 0.112 0.137 0.261 0.473 0.336 0.76 0.224 0.822 0.996 1.058 1.569 0.473 0.349-0.336 0.386-0.722 0.162-1.457-0.311-1.058-1.818-2.216-3.163-2.416l-0.548-0.075v-0.735c0-0.573-0.062-0.797-0.249-0.984-0.349-0.349-0.934-0.324-1.307 0.062zM9.463 10.21c0 0.884-0.037 1.619-0.087 1.619-0.224 0-1.407-0.772-1.581-1.021-0.261-0.361-0.249-0.959 0-1.332 0.174-0.249 1.295-0.884 1.581-0.884 0.050 0 0.087 0.722 0.087 1.619zM12.128 14.917c1.668 0.921 1.419 2.216-0.511 2.814l-0.286 0.087v-1.619c0-0.896 0.037-1.631 0.1-1.631 0.050 0 0.361 0.162 0.697 0.349z"></path>
<path d="M18.303 5.977c-0.311 0.311-0.324 0.884-0.012 1.258l0.237 0.299 15.938 0.062 0.349-0.286c0.411-0.349 0.461-0.946 0.112-1.332-0.224-0.249-0.361-0.249-8.305-0.249-7.907 0-8.068 0-8.318 0.249z"></path>
<path d="M43.032 6.002c-0.311 0.436-0.249 1.033 0.124 1.332 0.286 0.224 0.511 0.261 1.544 0.261s1.258-0.037 1.544-0.261c0.249-0.199 0.324-0.361 0.324-0.722 0-0.784-0.224-0.884-1.905-0.884-1.345 0-1.457 0.012-1.631 0.274z"></path>
<path d="M48.772 5.952c-0.336 0.374-0.274 1.083 0.112 1.382 0.286 0.224 0.511 0.261 1.544 0.261s1.258-0.037 1.544-0.261c0.374-0.299 0.436-0.896 0.124-1.332-0.174-0.261-0.286-0.274-1.656-0.274-1.27 0-1.494 0.037-1.668 0.224z"></path>
<path d="M18.303 9.712c-0.374 0.374-0.336 1.033 0.075 1.357 0.324 0.261 0.423 0.261 9.226 0.261h8.89l0.299-0.311c0.374-0.374 0.398-0.797 0.050-1.233l-0.249-0.324h-9.027c-8.853 0-9.015 0-9.264 0.249z"></path>
<path d="M46.817 9.799c-0.324 0.411-0.261 0.984 0.137 1.307 0.224 0.199 0.548 0.224 2.478 0.224 2.042 0 2.229-0.025 2.54-0.261 0.411-0.324 0.448-0.984 0.075-1.357-0.237-0.237-0.411-0.249-2.602-0.249h-2.366l-0.261 0.336z"></path>
<path d="M18.328 13.485c-0.349 0.374-0.361 0.996-0.025 1.332 0.237 0.237 0.411 0.249 5.404 0.249 4.844 0 5.167-0.012 5.441-0.237 0.398-0.324 0.398-1.071 0-1.395-0.274-0.224-0.598-0.237-5.416-0.237h-5.142l-0.261 0.286z"></path>
<path d="M41.202 13.435c-0.212 0.162-0.286 0.361-0.286 0.697s0.075 0.535 0.286 0.697c0.274 0.224 0.598 0.237 5.441 0.237 4.993 0 5.167-0.012 5.404-0.249 0.349-0.349 0.324-1.009-0.037-1.345-0.286-0.274-0.324-0.274-5.404-0.274-4.806 0-5.13 0.012-5.404 0.237z"></path>
<path d="M38.338 20.034l-0.299 0.237v3.237c0 3.013 0.012 3.25 0.237 3.499 0.162 0.174 0.386 0.261 0.697 0.261 0.423 0 0.61-0.137 2.167-1.631l1.706-1.644 1.22 1.208c1.245 1.22 1.494 1.345 2.030 1.058 0.299-0.162 5.977-4.819 6.101-5.018 0.050-0.075 0.1-0.324 0.1-0.548 0-0.523-0.374-0.896-0.909-0.896-0.349 0-0.797 0.311-2.988 2.117-1.407 1.158-2.602 2.117-2.652 2.117s-0.635-0.535-1.307-1.183c-1.606-1.581-1.606-1.581-3.237 0.025l-1.233 1.208v-1.843c0-1.781-0.012-1.843-0.311-2.129-0.361-0.374-0.921-0.398-1.32-0.075z"></path>
<path d="M6.139 25.55c-0.311 0.149-0.56 0.747-0.448 1.071 0.224 0.635 0.299 0.647 2.851 0.647 2.341 0 2.403-0.012 2.59-0.274 0.311-0.436 0.249-1.033-0.124-1.332-0.311-0.237-0.486-0.261-2.465-0.249-1.233 0-2.241 0.062-2.403 0.137z"></path>
<path d="M13.647 25.662c-0.249 0.199-0.324 0.361-0.324 0.722 0 0.772 0.224 0.884 1.843 0.884 1.233 0 1.419-0.025 1.644-0.249 0.374-0.374 0.336-1.033-0.075-1.357-0.286-0.224-0.511-0.261-1.544-0.261s-1.258 0.037-1.544 0.261z"></path>
<path d="M19.486 25.55c-0.361 0.199-0.436 0.349-0.436 0.859 0 0.747 0.237 0.859 1.843 0.859 1.233 0 1.419-0.025 1.644-0.249 0.349-0.349 0.324-0.934-0.062-1.307-0.274-0.286-0.386-0.311-1.519-0.311-0.672 0-1.332 0.075-1.469 0.149z"></path>
<path d="M25.202 25.55c-0.548 0.261-0.647 0.996-0.199 1.494 0.174 0.212 0.548 0.224 4.458 0.224 4.233 0 4.271 0 4.532-0.274 0.336-0.374 0.324-0.909-0.062-1.282l-0.299-0.311-4.084 0.012c-2.54 0-4.184 0.050-4.346 0.137z"></path>
</svg>
