<!-- Generated by IcoMoon.io -->
<svg version="1.1" xmlns="http://www.w3.org/2000/svg" width="32" height="32" viewBox="0 0 32 32">
<title>chevron-arrow-down</title>
<path d="M31.24 8.216l-1.54-1.541c-0.534-0.506-1.157-0.76-1.869-0.76-0.726 0-1.342 0.253-1.849 0.76l-9.982 9.982-9.982-9.982c-0.507-0.506-1.123-0.76-1.849-0.76-0.712 0-1.335 0.253-1.869 0.76l-1.52 1.541c-0.52 0.52-0.78 1.143-0.78 1.869 0 0.739 0.26 1.355 0.78 1.848l13.371 13.371c0.493 0.52 1.109 0.78 1.849 0.78 0.726 0 1.349-0.26 1.869-0.78l13.371-13.371c0.507-0.507 0.76-1.123 0.76-1.848 0-0.712-0.253-1.335-0.76-1.869z"></path>
</svg>
