<!-- Generated by IcoMoon.io -->
<svg version="1.1" xmlns="http://www.w3.org/2000/svg" width="32" height="32" viewBox="0 0 32 32">
<title>circle</title>
<path d="M16 0c-8.822 0-16 7.177-16 16s7.178 16 16 16 16-7.178 16-16-7.177-16-16-16zM25.187 13.297l-10.052 10.052c-0.427 0.427-0.996 0.663-1.6 0.663s-1.173-0.235-1.6-0.663l-5.123-5.123c-0.427-0.427-0.663-0.996-0.663-1.6s0.235-1.173 0.663-1.6c0.427-0.427 0.995-0.663 1.6-0.663s1.173 0.235 1.6 0.663l3.523 3.523 8.452-8.452c0.427-0.427 0.996-0.663 1.6-0.663s1.173 0.235 1.6 0.663c0.883 0.883 0.883 2.318 0 3.2z"></path>
</svg>
