<!-- Generated by IcoMoon.io -->
<svg version="1.1" xmlns="http://www.w3.org/2000/svg" width="32" height="32" viewBox="0 0 32 32">
<title>clip</title>
<path d="M14.983 14.437c0.397-0.397 0.397-1.042 0-1.439s-1.042-0.397-1.439 0l-5.383 5.383c-0.918 0.918-1.414 2.109-1.414 3.398s0.496 2.481 1.414 3.398c1.885 1.885 4.936 1.885 6.797 0l12.155-12.155c1.265-1.265 1.96-2.952 1.96-4.738s-0.695-3.473-1.96-4.738c-2.629-2.629-6.871-2.629-9.501 0l-12.13 12.13c-1.637 1.637-2.53 3.795-2.53 6.102s0.893 4.49 2.53 6.102c1.637 1.637 3.795 2.53 6.102 2.53s4.49-0.893 6.102-2.53l5.383-5.383c0.397-0.397 0.397-1.042 0-1.439s-1.042-0.397-1.439 0l-5.383 5.383c-1.24 1.24-2.902 1.935-4.664 1.935s-3.423-0.695-4.664-1.935-1.935-2.902-1.935-4.664 0.695-3.423 1.935-4.664l12.13-12.13c0.893-0.893 2.059-1.364 3.299-1.364s2.431 0.496 3.299 1.364c0.893 0.893 1.364 2.059 1.364 3.299s-0.496 2.431-1.364 3.299l-12.155 12.155c-1.067 1.067-2.828 1.067-3.919 0-0.521-0.521-0.819-1.215-0.819-1.96s0.298-1.439 0.819-1.96l5.408-5.383z"></path>
</svg>
