<!-- Generated by IcoMoon.io -->
<svg version="1.1" xmlns="http://www.w3.org/2000/svg" width="32" height="32" viewBox="0 0 32 32">
<title>close2</title>
<path d="M14.982 17.018l-4.145-4.145c-0.145-0.145-0.364-0.145-0.509 0l-0.073 0.073c-0.509 0.945-0.8 1.964-0.8 3.055 0 1.818 0.727 3.418 1.891 4.655 1.164 1.164 2.836 1.891 4.655 1.891 1.091 0 2.109-0.291 3.055-0.8l0.073-0.073c0.145-0.145 0.145-0.364 0-0.509l-4.145-4.145z"></path>
<path d="M16 9.455c-1.091 0-2.109 0.291-3.055 0.8l-0.073 0.073c-0.145 0.145-0.145 0.364 0 0.509l8.291 8.291c0.145 0.145 0.364 0.145 0.509 0l0.073-0.073c0.509-0.945 0.8-1.964 0.8-3.055 0-1.818-0.727-3.418-1.891-4.655-1.236-1.164-2.836-1.891-4.655-1.891z"></path>
<path d="M16 0c-8.873 0-16 7.127-16 16s7.127 16 16 16 16-7.127 16-16-7.127-16-16-16zM22.691 22.691c-1.745 1.745-4.073 2.764-6.691 2.764s-4.945-1.091-6.691-2.764c-1.745-1.745-2.764-4.073-2.764-6.691s1.091-4.945 2.764-6.691c1.745-1.745 4.073-2.764 6.691-2.764s4.945 1.091 6.691 2.764c1.745 1.745 2.764 4.073 2.764 6.691s-1.091 4.945-2.764 6.691z"></path>
</svg>
