<!-- Generated by IcoMoon.io -->
<svg version="1.1" xmlns="http://www.w3.org/2000/svg" width="32" height="32" viewBox="0 0 32 32">
<title>close-cross</title>
<path d="M21.418 16l9.459-9.458c1.497-1.497 1.497-3.923 0-5.419-1.495-1.496-3.923-1.496-5.418 0l-9.459 9.46-9.459-9.46c-1.495-1.496-3.923-1.496-5.418 0-1.497 1.497-1.497 3.923 0 5.419l9.458 9.458-9.458 9.458c-1.497 1.497-1.497 3.923 0 5.419 0.747 0.749 1.729 1.122 2.709 1.122s1.962-0.373 2.709-1.122l9.459-9.458 9.459 9.459c0.748 0.749 1.729 1.122 2.709 1.122s1.962-0.373 2.709-1.122c1.497-1.497 1.497-3.923 0-5.419l-9.459-9.459z"></path>
</svg>
