<!-- Generated by IcoMoon.io -->
<svg version="1.1" xmlns="http://www.w3.org/2000/svg" width="32" height="32" viewBox="0 0 32 32">
<title>close-sm</title>
<path d="M18.036 16.073l13.527-13.527c0.582-0.582 0.582-1.455 0-2.036s-1.455-0.582-2.036 0l-13.527 13.527-13.527-13.527c-0.582-0.582-1.455-0.582-2.036 0s-0.582 1.455 0 2.036l13.527 13.527-13.527 13.527c-0.582 0.582-0.582 1.455 0 2.036 0.291 0.291 0.873 0.291 1.164 0.291s0.873 0 0.873-0.291l13.527-13.527 13.527 13.527c0.291 0.291 0.873 0.291 1.164 0.291s0.873 0 0.873-0.291c0.582-0.582 0.582-1.455 0-2.036l-13.527-13.527z"></path>
</svg>
