<!-- Generated by IcoMoon.io -->
<svg version="1.1" xmlns="http://www.w3.org/2000/svg" width="32" height="32" viewBox="0 0 32 32">
<title>coins</title>
<path d="M30.501 19.7c-0.761-0.761-1.839-1.036-2.828-0.822 0.88-1.755 1.376-3.735 1.376-5.828 0-7.196-5.854-13.050-13.050-13.050s-13.049 5.854-13.049 13.049c0 2.803 0.889 5.403 2.399 7.532-1.26 0.186-2.427 0.808-3.284 1.771-0.945 1.060-1.465 2.427-1.465 3.847v3.048c0 0.475 0.35 0.878 0.821 0.943l11.861 1.654c0.744 0.104 1.488 0.155 2.228 0.155 2.558 0 5.071-0.615 7.371-1.816 0.761-0.397 1.499-0.862 2.193-1.381 1.501-1.123 2.945-2.354 4.29-3.659l1.104-1.071c0.595-0.577 0.926-1.351 0.932-2.179s-0.313-1.607-0.899-2.193zM4.855 13.050c0-6.145 4.999-11.145 11.145-11.145s11.145 5 11.145 11.145c0 5.569-4.106 10.198-9.45 11.016h-0.104l1.19-0.52c0.025-0.011 0.049-0.023 0.073-0.036 1.599-0.868 2.241-2.837 1.461-4.481-0.112-0.237-0.252-0.458-0.413-0.66 0.287-0.58 0.449-1.232 0.449-1.921 0-2.072-1.456-3.809-3.398-4.244v-4.805c0.877 0.372 1.493 1.242 1.493 2.253 0 0.526 0.426 0.952 0.952 0.952s0.952-0.426 0.952-0.952c0-2.072-1.456-3.809-3.398-4.244v-0.896c0-0.526-0.426-0.952-0.952-0.952s-0.952 0.426-0.952 0.952v0.896c-1.942 0.436-3.398 2.173-3.398 4.244s1.456 3.808 3.398 4.244v3.846l-0.818 0.391c-0.418-0.439-0.676-1.032-0.676-1.685 0-0.526-0.426-0.952-0.952-0.952s-0.952 0.426-0.952 0.952c0 0.943 0.303 1.816 0.814 2.529l-3.236 1.547-1.488-0.001c-1.791-1.978-2.884-4.6-2.884-7.473zM18.446 16.447c-0 0.281-0.048 0.551-0.136 0.802-0.019-0.006-0.038-0.014-0.057-0.020-0.423-0.134-0.865-0.182-1.301-0.148v-2.887c0.877 0.372 1.493 1.242 1.493 2.253zM15.047 7.399v4.505c-0.877-0.372-1.493-1.242-1.493-2.253s0.617-1.881 1.493-2.253zM29.142 22.706l-1.104 1.071c-1.287 1.249-2.668 2.427-4.105 3.501-0.613 0.458-1.264 0.868-1.934 1.218-2.612 1.364-5.536 1.87-8.454 1.463l-11.040-1.54v-2.219c0-0.952 0.349-1.869 0.983-2.58 0.676-0.758 1.645-1.193 2.661-1.193 0.001 0 0.002 0 0.003 0l3.291 0.003c0 0 0.001 0 0.001 0 0.142 0 0.282-0.032 0.411-0.093l6.557-3.135c0.020-0.009 0.039-0.019 0.058-0.030 0.372-0.21 0.802-0.255 1.209-0.126s0.733 0.413 0.916 0.799c0.341 0.72 0.070 1.579-0.618 1.974l-5.321 2.327c-0.413 0.181-0.643 0.626-0.551 1.067s0.481 0.757 0.932 0.757h6.32c2.019 0 3.917-0.785 5.345-2.212l2.822-2.726c0.454-0.438 1.186-0.432 1.632 0.014 0.222 0.222 0.343 0.518 0.341 0.832s-0.128 0.608-0.354 0.827z"></path>
</svg>
