<!-- Generated by IcoMoon.io -->
<svg version="1.1" xmlns="http://www.w3.org/2000/svg" width="32" height="32" viewBox="0 0 32 32">
<title>confirmed</title>
<path fill="#555" d="M0.985 12.774l0.013 11.827 8.806 0.015c5.487 0.009 8.874-0.004 8.986-0.034 0.099-0.027 0.34-0.077 0.538-0.111 0.475-0.082 1.173-0.317 1.572-0.529 0.767-0.407 0.879-0.473 0.982-0.581 0.060-0.063 0.127-0.115 0.15-0.115s0.094-0.058 0.16-0.129c0.065-0.070 0.133-0.128 0.15-0.128 0.088 0 0.989-0.985 1.078-1.18 0.025-0.055 0.066-0.1 0.090-0.1s0.043-0.022 0.043-0.049c0-0.027 0.056-0.132 0.125-0.233 0.347-0.511 0.775-1.627 0.878-2.287 0.15-0.963 0.093-2.533-0.103-2.851-0.014-0.023-0.039-0.118-0.056-0.212s-0.046-0.196-0.065-0.226c-0.019-0.031-0.036-0.067-0.037-0.081-0.006-0.115-0.427-1.013-0.494-1.054-0.025-0.015-0.032-0.050-0.016-0.076s0.010-0.048-0.015-0.048c-0.024 0-0.094-0.104-0.156-0.23s-0.132-0.23-0.156-0.23c-0.024 0-0.067-0.052-0.096-0.115-0.444-0.975-2.572-2.343-4.034-2.594-0.197-0.034-0.41-0.072-0.474-0.085l-0.115-0.024v-6.233l-4.122-4.133h-13.645l0.013 11.827zM12.8 4.685v2.227h4.454v4.433l-0.18 0.012c-0.195 0.013-0.495 0.072-0.819 0.161-0.113 0.031-0.253 0.067-0.313 0.080-0.111 0.024-0.531 0.202-0.941 0.398-0.252 0.12-1.073 0.653-1.27 0.824-0.325 0.282-0.826 0.802-0.911 0.945-0.052 0.088-0.111 0.16-0.13 0.16-0.091 0-0.74 1.15-0.881 1.562l-0.070 0.205-3.348 0.026c-1.842 0.014-3.395 0.045-3.451 0.069-0.481 0.202-0.65 0.349-0.848 0.738l-0.124 0.243-0.015 2.445-0.015 2.445h4.277c2.352 0 4.277 0.020 4.277 0.044s0.052 0.101 0.115 0.17c0.063 0.069 0.173 0.204 0.243 0.298s0.301 0.341 0.512 0.546l0.384 0.374-11.238 0.001v-20.634h10.291v2.227zM15.642 4.096l1.279 1.28h-2.585v-1.28c0-0.704 0.006-1.28 0.013-1.28s0.589 0.576 1.292 1.28zM9.308 8.372c-0.020 0.021-0.135 0.056-0.256 0.079-1.356 0.255-2.472 2.152-2.077 3.53 0.012 0.042 0.050 0.174 0.083 0.292s0.084 0.23 0.112 0.247c0.028 0.017 0.038 0.051 0.023 0.075s-0.004 0.059 0.025 0.077c0.029 0.018 0.1 0.126 0.159 0.24 0.536 1.051 2.225 1.639 3.451 1.202 0.431-0.154 0.494-0.187 0.812-0.431 1.901-1.453 1.455-4.409-0.784-5.193-0.294-0.103-1.477-0.193-1.549-0.118zM19.2 12.946c0.429 0.109 0.536 0.15 1.050 0.4 0.455 0.221 0.659 0.338 0.756 0.43 0.042 0.040 0.13 0.108 0.195 0.15 0.203 0.131 0.526 0.468 0.96 0.999 0.023 0.029 0.109 0.167 0.19 0.307s0.161 0.267 0.178 0.281c0.087 0.072 0.441 1.019 0.489 1.306 0.014 0.084 0.049 0.287 0.078 0.45 0.068 0.386 0.051 1.129-0.036 1.585-0.071 0.374-0.273 1.068-0.324 1.114-0.016 0.014-0.096 0.164-0.179 0.333-0.337 0.69-1.046 1.497-1.694 1.928-0.451 0.3-1.322 0.666-1.766 0.741-0.070 0.012-0.262 0.045-0.427 0.074-0.507 0.089-1.371 0.036-2.006-0.123-0.398-0.1-1.157-0.423-1.195-0.509-0.009-0.021-0.040-0.038-0.067-0.038-0.234 0-1.29-0.976-1.636-1.51-0.109-0.169-0.216-0.331-0.238-0.36-0.126-0.169-0.558-1.202-0.503-1.202 0.010 0-0.015-0.121-0.057-0.269-0.109-0.388-0.133-1.566-0.041-1.984 0.041-0.183 0.085-0.393 0.099-0.466 0.032-0.166 0.271-0.769 0.392-0.988 0.205-0.37 0.275-0.481 0.468-0.738 0.535-0.714 1.691-1.589 2.284-1.728 0.045-0.011 0.182-0.055 0.305-0.1 0.67-0.242 1.95-0.282 2.721-0.085zM20.313 15.791c-0.184 0.066-0.41 0.218-0.627 0.423-0.056 0.053-0.154 0.132-0.216 0.175s-0.235 0.189-0.384 0.323c-0.412 0.372-0.492 0.441-0.962 0.831-0.579 0.481-0.737 0.618-1.015 0.875-0.129 0.119-0.247 0.199-0.262 0.177s-0.109-0.095-0.207-0.163-0.306-0.229-0.461-0.36c-0.486-0.41-0.926-0.492-1.391-0.259-0.578 0.29-0.666 1.189-0.152 1.55 0.052 0.036 0.21 0.17 0.35 0.297s0.341 0.3 0.446 0.384c0.104 0.084 0.253 0.211 0.329 0.282 0.844 0.775 1.34 0.799 2.107 0.102 0.512-0.466 0.624-0.564 0.691-0.601 0.038-0.021 0.205-0.166 0.37-0.321s0.413-0.373 0.549-0.485c0.136-0.112 0.32-0.273 0.408-0.358s0.274-0.247 0.415-0.36 0.362-0.304 0.493-0.426c0.131-0.121 0.31-0.274 0.398-0.339 1.026-0.757 0.314-2.173-0.879-1.748z"></path>
</svg>
