<!-- Generated by IcoMoon.io -->
<svg version="1.1" xmlns="http://www.w3.org/2000/svg" width="32" height="32" viewBox="0 0 32 32">
<title>court</title>
<path d="M19 27.278v-0.277c0-2.206-1.795-4-4-4h-10c-2.206 0-4 1.795-4 4v0.278c-1 0.347-1 0.984-1 1.722 0 1.105 0.895 2 2 2h16c1.105 0 2-0.895 2-2-0-0.738-0-1.376-1-1.723z"></path>
<path d="M30 8h-16v-2c1 0 2-0.896 2-2v-1c0-1.105-0.896-2-2-2h-8c-1.104 0-2 0.895-2 2v1c0 1.105 1 2 2 2v8c-1 0-2 0.896-2 2v1c0 1.105 0.895 2 2 2h8c1.104 0 2-0.895 2-2v-1c0-1.104-1-2-2-2v-2h16c1.105 0 2-0.896 2-2s-0.896-2-2-2z"></path>
</svg>
