<!-- Generated by IcoMoon.io -->
<svg version="1.1" xmlns="http://www.w3.org/2000/svg" width="32" height="32" viewBox="0 0 32 32">
<title>credit-card</title>
<path d="M25.209 8.247c0.465 0 0.596-0.629 0.177-0.819l-16.366-7.256c-0.995-0.445-2.168 0-2.613 1.002l-5.73 12.849c-0.445 0.995 0 2.168 1.002 2.613l3.301 1.428c0.413 0.183 0.884-0.118 0.884-0.57v-5.455c0-2.089 1.696-3.785 3.785-3.785l15.56-0.007z"></path>
<path d="M29.492 10.029h-19.85c-1.107 0-2.004 0.897-2.004 2.004v14.021c0 1.107 0.897 2.004 2.004 2.004h2.665c-0.066-0.393-0.098-0.792-0.098-1.198 0-0.458 0.046-0.904 0.124-1.343h-2.148v-6.713h18.769v6.706h-2.155c0.079 0.439 0.124 0.884 0.124 1.343 0 0.406-0.033 0.805-0.098 1.198h2.665c1.107 0 2.004-0.897 2.004-2.004v-14.015c0-1.107-0.897-2.004-2.004-2.004zM28.955 14.672h-18.769v-2.102h18.769v2.102z"></path>
<path d="M19.57 21.705c-2.842 0-5.147 2.305-5.147 5.147s2.305 5.147 5.147 5.147 5.147-2.305 5.147-5.147-2.305-5.147-5.147-5.147zM21.050 28.883c-0.223 0.275-0.517 0.458-0.858 0.55-0.151 0.039-0.216 0.118-0.21 0.275 0.007 0.151 0 0.301 0 0.458 0 0.138-0.072 0.21-0.203 0.21-0.164 0.007-0.327 0.007-0.491 0-0.144 0-0.21-0.085-0.21-0.223 0-0.111 0-0.223 0-0.334 0-0.242-0.013-0.255-0.249-0.295-0.301-0.046-0.596-0.118-0.871-0.249-0.216-0.105-0.242-0.157-0.177-0.386 0.046-0.17 0.092-0.341 0.144-0.504 0.059-0.196 0.111-0.216 0.295-0.124 0.308 0.157 0.629 0.249 0.969 0.288 0.216 0.026 0.432 0.007 0.635-0.085 0.38-0.164 0.439-0.602 0.118-0.864-0.111-0.092-0.229-0.157-0.36-0.21-0.334-0.144-0.681-0.255-0.989-0.445-0.511-0.301-0.832-0.72-0.792-1.343 0.039-0.701 0.439-1.133 1.081-1.369 0.262-0.098 0.268-0.092 0.268-0.367 0-0.092 0-0.19 0-0.282 0.007-0.21 0.039-0.242 0.249-0.249 0.066 0 0.131 0 0.19 0 0.445 0 0.445 0 0.445 0.445 0 0.314 0 0.314 0.314 0.36 0.236 0.039 0.465 0.105 0.688 0.203 0.124 0.052 0.17 0.138 0.131 0.268-0.052 0.19-0.105 0.386-0.17 0.57-0.059 0.177-0.118 0.203-0.288 0.124-0.347-0.17-0.707-0.236-1.087-0.216-0.098 0.007-0.196 0.020-0.288 0.059-0.327 0.144-0.386 0.511-0.105 0.733 0.144 0.111 0.301 0.196 0.472 0.268 0.295 0.118 0.583 0.236 0.864 0.393 0.864 0.478 1.107 1.585 0.485 2.338z"></path>
</svg>
