<!-- Generated by IcoMoon.io -->
<svg version="1.1" xmlns="http://www.w3.org/2000/svg" width="32" height="32" viewBox="0 0 32 32">
<title>degrees</title>
<path d="M26.1 14.048c-0.354-0.101-0.723 0.104-0.824 0.458s0.104 0.723 0.458 0.824c3.043 0.87 4.933 2.133 4.933 3.294 0 0.85-1.034 1.783-2.837 2.56-1.983 0.855-4.797 1.48-7.926 1.762l-2.731-0.037c-0.003 0-0.006-0-0.009-0-0.364 0-0.661 0.293-0.666 0.658-0.005 0.368 0.289 0.671 0.658 0.676l2.765 0.037c0.003 0 0.006 0 0.009 0 0.020 0 0.040-0.001 0.059-0.003 3.28-0.292 6.252-0.956 8.369-1.868 3.011-1.297 3.642-2.774 3.642-3.785 0-1.863-2.095-3.488-5.9-4.576z"></path>
<path d="M6.459 13.289c-0.368 0-0.667 0.298-0.667 0.667s0.299 0.667 0.667 0.667h2.741v2.756h-2.741c-0.368 0-0.667 0.298-0.667 0.667s0.299 0.667 0.667 0.667h3.408c0.368 0 0.667-0.298 0.667-0.667v-8.178c0-0.368-0.298-0.667-0.667-0.667h-3.408c-0.368 0-0.667 0.298-0.667 0.667s0.299 0.667 0.667 0.667h2.741v2.756h-2.741z"></path>
<path d="M12.592 18.711h4.089c0.368 0 0.667-0.298 0.667-0.667v-4.089c0-0.368-0.298-0.667-0.667-0.667h-3.422v-2.756h2.741c0.368 0 0.667-0.298 0.667-0.667s-0.298-0.667-0.667-0.667h-3.408c-0.368 0-0.667 0.298-0.667 0.667v8.178c0 0.368 0.298 0.667 0.667 0.667zM13.259 14.622h2.756v2.756h-2.756v-2.756z"></path>
<path d="M19.408 18.711h4.089c0.368 0 0.667-0.298 0.667-0.667v-8.178c0-0.368-0.299-0.667-0.667-0.667h-4.089c-0.368 0-0.667 0.298-0.667 0.667v8.178c0 0.368 0.299 0.667 0.667 0.667zM20.075 10.533h2.756v6.844h-2.756v-6.844z"></path>
<path d="M12.19 20.369c-0.238-0.281-0.658-0.316-0.94-0.078s-0.316 0.658-0.078 0.94l1.491 1.763c-3.146-0.24-5.996-0.817-8.091-1.643-2.058-0.812-3.239-1.805-3.239-2.725 0-1.068 1.582-2.219 4.233-3.078 0.35-0.114 0.542-0.49 0.428-0.84s-0.49-0.542-0.84-0.428c-1.542 0.5-2.765 1.095-3.634 1.768-1.009 0.781-1.521 1.649-1.521 2.578 0 1.54 1.412 2.911 4.083 3.965 2.171 0.857 5.082 1.458 8.282 1.717l-1.33 1.474c-0.247 0.273-0.225 0.695 0.048 0.942 0.127 0.115 0.287 0.172 0.446 0.172 0.182 0 0.364-0.074 0.495-0.22l2.426-2.688c0.111-0.122 0.172-0.282 0.172-0.447v-0.051c0-0.158-0.056-0.31-0.158-0.431l-2.274-2.688z"></path>
<path d="M25.428 9.166h2.725c0.368 0 0.667-0.298 0.667-0.667v-2.726c0-0.368-0.299-0.667-0.667-0.667h-2.725c-0.368 0-0.667 0.298-0.667 0.667v2.726c0 0.368 0.299 0.667 0.667 0.667zM26.094 6.439h1.392v1.393h-1.392v-1.393z"></path>
</svg>
