<!-- Generated by IcoMoon.io -->
<svg version="1.1" xmlns="http://www.w3.org/2000/svg" width="36" height="32" viewBox="0 0 36 32">
<title>deligate</title>
<path d="M16.736 0.062c0 0.036-0.103 0.116-0.223 0.179-0.125 0.062-0.317 0.205-0.428 0.317-0.116 0.112-0.219 0.201-0.237 0.201-0.027 0-0.179 0.232-0.237 0.366-0.018 0.045-0.054 0.080-0.080 0.080-0.022 0-0.045 0.040-0.045 0.089 0 0.054-0.036 0.156-0.076 0.237-0.067 0.116-0.080 0.259-0.080 0.79 0 0.544 0.013 0.665 0.080 0.759 0.040 0.058 0.076 0.156 0.076 0.214 0 0.054 0.031 0.112 0.067 0.125 0.036 0.018 0.067 0.045 0.067 0.067 0 0.058 0.174 0.304 0.317 0.437 0.192 0.187 0.406 0.361 0.442 0.361 0.018 0 0.058 0.031 0.089 0.067s0.089 0.067 0.134 0.067c0.045 0 0.103 0.031 0.134 0.067s0.103 0.067 0.156 0.067c0.054 0 0.174 0.031 0.259 0.067 0.214 0.089 0.946 0.089 1.102 0 0.062-0.036 0.165-0.062 0.228-0.067 0.067 0 0.143-0.031 0.174-0.067s0.089-0.067 0.134-0.067c0.045 0 0.103-0.031 0.134-0.067s0.076-0.067 0.098-0.067c0.022 0 0.183-0.134 0.353-0.304 0.29-0.281 0.531-0.607 0.531-0.723 0-0.027 0.031-0.080 0.067-0.116 0.040-0.040 0.067-0.152 0.067-0.263s0.036-0.268 0.076-0.357c0.067-0.138 0.067-0.183 0.018-0.348-0.031-0.103-0.067-0.277-0.080-0.388-0.018-0.174-0.107-0.388-0.299-0.745-0.080-0.147-0.62-0.683-0.687-0.683-0.031 0-0.067-0.027-0.080-0.062s-0.080-0.071-0.152-0.085c-0.076-0.018-0.138-0.067-0.156-0.12-0.027-0.085-0.062-0.089-0.986-0.089-0.803 0-0.955 0.009-0.955 0.062z"></path>
<path d="M7.614 3.503c-0.049 0.036-0.134 0.067-0.183 0.067-0.054 0-0.187 0.049-0.295 0.112s-0.228 0.125-0.263 0.143c-0.036 0.013-0.085 0.054-0.103 0.089-0.018 0.031-0.054 0.058-0.080 0.058-0.058 0-0.339 0.321-0.5 0.571-0.237 0.366-0.344 0.741-0.344 1.196 0 0.277 0.022 0.451 0.067 0.536 0.036 0.071 0.067 0.17 0.067 0.219s0.071 0.196 0.156 0.33c0.085 0.129 0.156 0.25 0.156 0.263 0 0.049 0.545 0.54 0.629 0.567 0.049 0.018 0.085 0.049 0.085 0.071s0.036 0.040 0.080 0.040c0.045 0 0.12 0.031 0.17 0.067 0.045 0.036 0.125 0.067 0.174 0.067s0.147 0.031 0.219 0.067c0.179 0.094 0.817 0.089 1.116-0.009 0.344-0.112 0.643-0.263 0.906-0.451 0.179-0.129 0.594-0.647 0.594-0.741 0-0.040 0.031-0.085 0.067-0.098 0.036-0.018 0.067-0.067 0.067-0.116 0-0.045 0.031-0.187 0.071-0.308 0.085-0.259 0.071-1.031-0.018-1.12-0.031-0.031-0.054-0.112-0.054-0.179s-0.018-0.125-0.040-0.125c-0.022 0-0.058-0.045-0.071-0.094-0.058-0.174-0.375-0.598-0.536-0.705-0.085-0.058-0.156-0.12-0.156-0.143s-0.027-0.040-0.062-0.040c-0.036 0-0.094-0.027-0.125-0.058-0.098-0.085-0.348-0.21-0.428-0.21-0.040 0-0.134-0.031-0.205-0.067-0.174-0.094-1.040-0.094-1.16 0z"></path>
<path d="M26.627 3.503c-0.049 0.036-0.129 0.067-0.179 0.067-0.054 0-0.134 0.031-0.179 0.067-0.049 0.036-0.12 0.067-0.165 0.067-0.040 0-0.085 0.031-0.103 0.067-0.013 0.036-0.054 0.067-0.089 0.067-0.098 0-0.652 0.562-0.652 0.665 0 0.022-0.031 0.049-0.067 0.067-0.036 0.013-0.067 0.054-0.067 0.089 0 0.040-0.040 0.134-0.089 0.214s-0.089 0.223-0.089 0.317c0 0.098-0.031 0.241-0.071 0.326-0.067 0.138-0.067 0.17 0 0.37 0.040 0.125 0.071 0.29 0.071 0.37s0.058 0.259 0.134 0.393c0.071 0.134 0.147 0.272 0.165 0.308 0.013 0.036 0.062 0.098 0.098 0.138 0.040 0.045 0.129 0.152 0.201 0.241s0.161 0.161 0.192 0.161c0.036 0 0.071 0.027 0.085 0.062s0.058 0.076 0.098 0.089c0.040 0.013 0.165 0.076 0.272 0.138s0.241 0.112 0.29 0.112c0.054 0 0.152 0.031 0.223 0.067 0.085 0.045 0.259 0.067 0.518 0.067s0.433-0.022 0.518-0.067c0.071-0.036 0.183-0.067 0.245-0.067 0.067 0 0.143-0.031 0.174-0.067s0.085-0.067 0.12-0.067c0.147 0 0.951-0.745 0.951-0.884 0-0.031 0.031-0.067 0.067-0.080 0.036-0.018 0.067-0.080 0.067-0.152s0.031-0.134 0.067-0.152c0.054-0.018 0.067-0.147 0.067-0.763s-0.013-0.745-0.067-0.763c-0.036-0.018-0.067-0.080-0.067-0.152s-0.031-0.134-0.067-0.152c-0.036-0.013-0.067-0.054-0.067-0.089s-0.098-0.174-0.223-0.303c-0.12-0.129-0.223-0.25-0.223-0.272 0-0.018-0.031-0.031-0.067-0.031-0.031 0-0.080-0.027-0.098-0.058-0.054-0.085-0.335-0.232-0.727-0.388-0.232-0.094-1.156-0.107-1.267-0.022z"></path>
<path d="M14.46 5.217c-0.134 0.018-0.29 0.054-0.344 0.085s-0.134 0.054-0.183 0.054c-0.049 0-0.112 0.027-0.138 0.062-0.031 0.036-0.107 0.076-0.174 0.094s-0.129 0.045-0.143 0.058c-0.013 0.018-0.103 0.085-0.201 0.152-0.366 0.25-0.915 0.839-0.915 0.986 0 0.036-0.031 0.076-0.067 0.094-0.036 0.013-0.067 0.067-0.067 0.116 0 0.054-0.027 0.125-0.062 0.156-0.031 0.036-0.076 0.161-0.089 0.277-0.018 0.116-0.062 0.281-0.098 0.357-0.058 0.125-0.062 0.464-0.054 2.267l0.013 2.12-0.143 0.067c-0.076 0.036-0.187 0.067-0.245 0.067-0.054 0-0.143 0.031-0.187 0.067-0.049 0.036-0.134 0.067-0.187 0.067s-0.12 0.031-0.152 0.067c-0.031 0.036-0.089 0.067-0.134 0.067s-0.103 0.031-0.134 0.067c-0.031 0.036-0.076 0.067-0.103 0.067s-0.080 0.027-0.116 0.062c-0.067 0.058-0.071-0.040-0.071-1.102-0.004-1.147-0.049-1.683-0.152-1.718-0.027-0.009-0.049-0.054-0.049-0.103 0-0.094-0.268-0.495-0.433-0.652-0.187-0.179-0.518-0.415-0.571-0.415-0.031 0-0.080-0.031-0.112-0.067s-0.098-0.067-0.152-0.067c-0.049 0-0.134-0.031-0.179-0.067-0.067-0.049-0.228-0.067-0.652-0.067s-0.585 0.018-0.652 0.067c-0.045 0.036-0.125 0.067-0.174 0.067-0.129 0-0.611 0.33-0.835 0.567-0.107 0.112-0.228 0.237-0.268 0.277-0.045 0.036-0.080 0.094-0.080 0.12s-0.040 0.103-0.089 0.165c-0.049 0.062-0.089 0.161-0.089 0.219-0.004 0.054-0.031 0.152-0.067 0.214-0.054 0.094-0.062 0.661-0.067 3.593v3.481l-0.415 0.424c-0.228 0.232-0.455 0.46-0.504 0.5-0.085 0.071-0.085 0.054-0.085-1.205 0-1.303-0.040-1.714-0.187-1.888-0.031-0.036-0.058-0.098-0.058-0.134 0-0.125-0.714-0.888-0.826-0.888-0.031 0-0.080-0.031-0.112-0.067s-0.089-0.067-0.134-0.067c-0.045 0-0.103-0.031-0.134-0.067s-0.129-0.067-0.219-0.067c-0.089-0.004-0.21-0.031-0.272-0.067-0.143-0.085-0.616-0.085-0.759 0-0.062 0.036-0.174 0.062-0.25 0.067-0.076 0-0.165 0.031-0.196 0.067s-0.094 0.067-0.143 0.067c-0.187 0-0.928 0.638-0.928 0.803 0 0.022-0.018 0.045-0.040 0.045-0.067 0-0.263 0.46-0.335 0.79-0.062 0.277-0.071 0.83-0.071 3.919 0 3.539 0 3.593-0.089 3.669-0.085 0.076-0.089 0.134-0.089 1.263 0 0.857 0.018 1.209 0.058 1.276 0.027 0.049 0.116 0.196 0.187 0.321 0.076 0.129 0.147 0.232 0.161 0.232 0.018 0 0.156 0.129 0.312 0.29s0.308 0.29 0.335 0.29c0.031 0 0.062 0.031 0.080 0.067 0.013 0.036 0.067 0.067 0.116 0.067s0.103 0.031 0.116 0.067c0.018 0.036 0.062 0.067 0.103 0.067 0.045 0 0.116 0.031 0.165 0.067 0.045 0.036 0.134 0.067 0.196 0.067s0.17 0.031 0.241 0.067c0.112 0.058 0.736 0.067 4.775 0.067h4.646v1.442c0 1.317 0.009 1.45 0.080 1.522 0.040 0.045 0.076 0.098 0.076 0.125 0 0.058 0.277 0.33 0.469 0.464 0.29 0.196 0.96 0.201 1.174 0.004 0.045-0.045 0.098-0.076 0.116-0.076 0.076 0 0.344-0.339 0.393-0.495 0.027-0.098 0.067-0.174 0.089-0.174 0.018 0 0.036-0.634 0.036-1.41v-1.406l0.411 0.027-0.009 1.647c0 0.906 0.009 1.955 0.027 2.33l0.031 0.687h6.637v-4.691l0.406 0.027-0.004 1.214c0 0.674 0.013 1.223 0.036 1.236s0.054 0.147 0.071 0.295c0.022 0.17 0.054 0.281 0.094 0.295 0.036 0.013 0.076 0.071 0.094 0.12 0.018 0.054 0.071 0.143 0.125 0.196 0.089 0.098 0.125 0.103 0.835 0.103h0.745l0.138-0.143c0.076-0.076 0.138-0.165 0.138-0.196s0.022-0.062 0.054-0.071c0.027-0.009 0.085-0.129 0.12-0.263 0.054-0.187 0.067-0.518 0.071-1.526v-1.281h4.642c3.941-0.004 4.659-0.013 4.753-0.067 0.062-0.036 0.156-0.062 0.21-0.067 0.054 0 0.152-0.031 0.223-0.062 0.067-0.036 0.156-0.080 0.192-0.094 0.228-0.089 0.692-0.451 0.893-0.696 0.085-0.107 0.187-0.223 0.223-0.259 0.040-0.040 0.125-0.187 0.192-0.33 0.071-0.143 0.156-0.272 0.192-0.286 0.054-0.018 0.062-0.192 0.062-1 0-0.62-0.018-0.977-0.045-0.977-0.022 0-0.045-0.036-0.045-0.085 0-0.045-0.031-0.107-0.067-0.138s-0.067-0.094-0.067-0.143c0-0.045-0.031-0.094-0.067-0.107-0.058-0.022-0.067-0.478-0.067-3.7 0-2.218-0.018-3.686-0.040-3.704-0.022-0.013-0.058-0.134-0.071-0.268-0.018-0.134-0.058-0.268-0.094-0.295s-0.062-0.080-0.062-0.116c0-0.085-0.469-0.669-0.594-0.732-0.054-0.031-0.107-0.067-0.12-0.080-0.058-0.071-0.317-0.228-0.37-0.228-0.036 0-0.089-0.031-0.12-0.067s-0.129-0.067-0.219-0.067c-0.089-0.004-0.21-0.031-0.272-0.067-0.143-0.085-0.616-0.085-0.759 0-0.062 0.036-0.179 0.062-0.259 0.067-0.080 0-0.179 0.031-0.214 0.067-0.040 0.036-0.107 0.067-0.147 0.067-0.045 0-0.107 0.031-0.138 0.067s-0.080 0.067-0.107 0.067c-0.027 0-0.174 0.125-0.326 0.281-0.424 0.428-0.455 0.469-0.486 0.585-0.013 0.062-0.054 0.134-0.089 0.165-0.036 0.027-0.062 0.12-0.062 0.205s-0.031 0.183-0.071 0.223c-0.058 0.058-0.067 0.241-0.054 1.392l0.013 1.321-0.5-0.5-0.504-0.5v-3.521c0-3.093-0.009-3.53-0.067-3.553-0.040-0.013-0.067-0.080-0.067-0.179 0-0.085-0.022-0.17-0.045-0.183-0.027-0.018-0.071-0.094-0.107-0.17-0.067-0.156-0.558-0.701-0.634-0.701-0.027 0-0.085-0.040-0.129-0.089s-0.107-0.089-0.134-0.089c-0.031 0-0.080-0.031-0.112-0.067s-0.112-0.067-0.179-0.067c-0.067 0-0.147-0.031-0.179-0.067-0.080-0.094-1.125-0.094-1.312 0-0.067 0.036-0.161 0.067-0.205 0.067s-0.103 0.031-0.134 0.067c-0.031 0.036-0.080 0.067-0.112 0.067-0.12 0-0.826 0.62-0.826 0.727 0 0.022-0.040 0.089-0.089 0.152s-0.089 0.152-0.089 0.192c0 0.045-0.031 0.089-0.067 0.107-0.049 0.018-0.067 0.089-0.067 0.241 0 0.12-0.031 0.295-0.067 0.379-0.054 0.125-0.067 0.361-0.067 1.044 0 0.486 0.018 0.955 0.045 1.035 0.049 0.17 0.018 0.25-0.049 0.125-0.027-0.040-0.071-0.076-0.103-0.076-0.036 0-0.085-0.031-0.116-0.067s-0.089-0.067-0.134-0.067c-0.045 0-0.103-0.031-0.134-0.067s-0.098-0.067-0.152-0.067c-0.054 0-0.138-0.031-0.187-0.067-0.045-0.036-0.138-0.067-0.205-0.067s-0.17-0.018-0.232-0.045l-0.112-0.040-0.013-2.365c-0.009-1.821-0.027-2.379-0.067-2.423-0.031-0.027-0.058-0.094-0.058-0.147s-0.018-0.112-0.040-0.134c-0.022-0.027-0.103-0.17-0.183-0.326-0.080-0.152-0.161-0.277-0.183-0.277s-0.040-0.027-0.040-0.058c0-0.085-0.705-0.745-0.794-0.745-0.022 0-0.067-0.027-0.094-0.062-0.031-0.036-0.103-0.076-0.17-0.094-0.062-0.013-0.143-0.058-0.179-0.089-0.036-0.036-0.103-0.067-0.152-0.067s-0.143-0.036-0.205-0.080c-0.112-0.071-0.357-0.076-3.338-0.080-1.767-0.004-3.325 0.004-3.459 0.022zM14.603 10.502l0.013 1.504h-0.379v-1.544c0-1.424 0.004-1.553 0.080-1.607 0.062-0.049 0.089-0.045 0.174 0.040 0.098 0.098 0.098 0.12 0.112 1.607zM21.074 10.020c0.013 0.638 0.036 1.348 0.049 1.571l0.018 0.415h-0.388v-1.504c0-1.348 0.009-1.508 0.076-1.584 0.040-0.045 0.107-0.076 0.143-0.071 0.062 0.013 0.076 0.174 0.103 1.174zM23.337 12.996c0.085 0.045 0.205 0.080 0.272 0.080s0.147 0.031 0.179 0.067c0.031 0.036 0.085 0.067 0.116 0.067 0.085 0 0.415 0.183 0.683 0.379 0.112 0.080 1.415 1.357 5.811 5.69 1.433 1.41 2.901 2.856 3.262 3.213 0.366 0.353 0.661 0.669 0.661 0.696 0 0.031 0.031 0.062 0.067 0.080 0.036 0.013 0.067 0.071 0.067 0.134 0 0.058 0.031 0.116 0.067 0.134 0.036 0.013 0.067 0.080 0.067 0.147 0.004 0.067 0.031 0.174 0.067 0.237 0.089 0.156 0.089 0.839 0 0.955-0.036 0.049-0.067 0.134-0.067 0.187 0 0.094-0.107 0.33-0.201 0.446-0.022 0.031-0.094 0.125-0.152 0.205-0.192 0.268-0.705 0.616-0.906 0.616-0.058 0-0.143 0.031-0.187 0.067-0.076 0.058-0.71 0.067-4.642 0.067h-4.557l0.013-2.165c0.009-1.83 0-2.2-0.058-2.428-0.036-0.143-0.067-0.312-0.067-0.375s-0.027-0.17-0.062-0.241c-0.036-0.067-0.129-0.254-0.205-0.415-0.143-0.299-0.295-0.509-0.602-0.821-0.205-0.21-0.71-0.562-0.799-0.562-0.031 0-0.085-0.031-0.116-0.067s-0.103-0.067-0.156-0.067c-0.054 0-0.125-0.031-0.156-0.067s-0.107-0.067-0.174-0.067c-0.062 0-0.196-0.031-0.295-0.067-0.272-0.098-6.842-0.098-7.119 0-0.103 0.036-0.241 0.067-0.308 0.067-0.062 0-0.156 0.031-0.201 0.067-0.049 0.036-0.12 0.067-0.165 0.067-0.040 0-0.098 0.031-0.129 0.067s-0.085 0.067-0.12 0.067c-0.071 0-0.33 0.174-0.384 0.254-0.018 0.031-0.058 0.058-0.080 0.058-0.062 0-0.616 0.536-0.669 0.647-0.080 0.165-0.152 0.277-0.232 0.353-0.040 0.045-0.076 0.116-0.076 0.161s-0.031 0.089-0.067 0.107c-0.040 0.013-0.067 0.080-0.067 0.174 0 0.080-0.031 0.187-0.067 0.237-0.054 0.071-0.062 0.455-0.067 2.548v2.468h-4.588c-3.968 0-4.601-0.009-4.677-0.067-0.045-0.036-0.134-0.067-0.196-0.067-0.156 0-0.634-0.321-0.848-0.571-0.339-0.397-0.549-0.995-0.509-1.459 0.040-0.46 0.121-0.705 0.348-1.049 0.134-0.205 0.603-0.674 5.204-5.222 1.424-1.41 3.030-3.004 3.566-3.535 0.536-0.536 1.022-0.991 1.080-1.018s0.187-0.094 0.286-0.156c0.098-0.058 0.21-0.107 0.25-0.112 0.040 0 0.098-0.031 0.129-0.067s0.12-0.067 0.196-0.067c0.080 0 0.17-0.027 0.196-0.054 0.103-0.103 0.794-0.112 6.034-0.107 4.86 0.004 5.208 0.009 5.351 0.080zM14.277 23.043c0.031 0.040 0.049 0.585 0.049 1.732l0.004 1.669-0.406 0.027v-1.714c0-0.942 0.013-1.727 0.031-1.741 0.049-0.054 0.268-0.036 0.321 0.027zM21.396 23.025c0.013 0.018 0.027 0.799 0.027 1.727l0.004 1.692-0.406 0.027v-1.656c0-1.058 0.018-1.687 0.045-1.745 0.049-0.089 0.286-0.12 0.33-0.045z"></path>
<path d="M17.004 13.425c-0.112 0.036-0.254 0.094-0.321 0.125-0.062 0.036-0.147 0.062-0.183 0.062s-0.076 0.031-0.094 0.067c-0.013 0.036-0.054 0.067-0.089 0.067-0.058 0-0.625 0.527-0.763 0.714-0.116 0.156-0.201 0.312-0.201 0.375 0 0.036-0.031 0.098-0.071 0.138s-0.085 0.165-0.094 0.281c-0.009 0.116-0.040 0.254-0.067 0.308-0.080 0.161 0.040 1.098 0.161 1.272 0.040 0.054 0.071 0.134 0.071 0.179 0 0.040 0.027 0.094 0.058 0.112 0.027 0.018 0.080 0.085 0.112 0.147 0.071 0.143 0.437 0.536 0.495 0.536 0.027 0 0.062 0.027 0.080 0.054 0.045 0.071 0.308 0.259 0.361 0.259 0.022 0 0.067 0.031 0.098 0.067s0.098 0.067 0.152 0.067c0.054 0 0.12 0.022 0.152 0.054 0.165 0.165 1.531 0.17 1.665 0.009 0.027-0.036 0.098-0.062 0.152-0.062s0.125-0.031 0.156-0.067c0.031-0.036 0.076-0.067 0.098-0.067 0.054 0 0.317-0.187 0.361-0.259 0.018-0.027 0.054-0.054 0.080-0.054 0.094 0 0.513-0.504 0.629-0.763 0.058-0.12 0.116-0.219 0.134-0.219 0.022 0 0.036-0.054 0.036-0.125 0-0.067 0.031-0.179 0.067-0.25 0.094-0.179 0.094-1.018 0-1.116-0.036-0.036-0.067-0.134-0.067-0.219s-0.031-0.179-0.067-0.21c-0.036-0.031-0.067-0.089-0.067-0.129 0-0.045-0.058-0.147-0.134-0.228-0.071-0.080-0.134-0.165-0.134-0.187 0-0.040-0.433-0.482-0.469-0.482-0.040 0-0.308-0.196-0.326-0.237-0.009-0.018-0.049-0.031-0.094-0.031-0.040 0-0.116-0.031-0.165-0.067-0.045-0.036-0.125-0.067-0.174-0.067s-0.147-0.031-0.219-0.067c-0.17-0.089-1.040-0.085-1.321 0.013z"></path>
<path d="M1.83 8.774c-0.335 0.143-0.558 0.268-0.594 0.317-0.018 0.031-0.054 0.058-0.080 0.058-0.054 0-0.486 0.428-0.553 0.54-0.205 0.361-0.268 0.5-0.326 0.732-0.116 0.455-0.058 1.138 0.125 1.45 0.036 0.062 0.103 0.183 0.156 0.272 0.049 0.085 0.121 0.196 0.156 0.245 0.112 0.143 0.594 0.553 0.652 0.553 0.027 0 0.076 0.031 0.107 0.067s0.098 0.067 0.147 0.067c0.049 0 0.125 0.031 0.17 0.071 0.116 0.103 1.312 0.107 1.526 0.004 0.076-0.036 0.219-0.103 0.317-0.152 0.326-0.152 0.964-0.763 0.964-0.924 0-0.036 0.027-0.085 0.058-0.103 0.103-0.067 0.179-0.433 0.196-0.951 0.018-0.411 0.004-0.562-0.062-0.759-0.045-0.134-0.107-0.263-0.134-0.281-0.031-0.018-0.058-0.076-0.058-0.125 0-0.116-0.678-0.794-0.893-0.893-0.085-0.040-0.25-0.116-0.361-0.17-0.179-0.080-0.286-0.094-0.781-0.094-0.415 0.004-0.62 0.022-0.732 0.071z"></path>
<path d="M32.076 8.792c-0.089 0.049-0.196 0.089-0.232 0.089s-0.067 0.018-0.067 0.040c0 0.022-0.054 0.058-0.125 0.085-0.187 0.062-0.745 0.634-0.857 0.87-0.054 0.116-0.116 0.223-0.138 0.237s-0.040 0.076-0.040 0.143c0 0.067-0.031 0.179-0.067 0.25-0.089 0.17-0.089 0.817 0 0.937 0.036 0.049 0.067 0.138 0.067 0.201s0.071 0.232 0.156 0.375c0.085 0.143 0.156 0.277 0.156 0.303 0 0.022 0.027 0.040 0.058 0.040 0.027 0 0.094 0.058 0.143 0.134 0.089 0.129 0.478 0.446 0.553 0.446 0.018 0 0.062 0.031 0.094 0.067s0.098 0.067 0.147 0.067c0.049 0 0.125 0.031 0.17 0.071 0.12 0.107 1.366 0.107 1.517 0 0.058-0.040 0.134-0.071 0.165-0.071 0.036 0 0.152-0.062 0.263-0.134 0.107-0.076 0.214-0.134 0.232-0.134 0.094 0 0.647-0.692 0.732-0.915 0.009-0.027 0.045-0.116 0.080-0.201 0.031-0.089 0.067-0.388 0.076-0.701 0.009-0.442 0-0.567-0.054-0.647-0.040-0.054-0.071-0.152-0.071-0.219s-0.031-0.129-0.067-0.147c-0.036-0.013-0.067-0.062-0.067-0.107s-0.071-0.147-0.156-0.232c-0.085-0.085-0.156-0.179-0.156-0.21 0-0.067-0.509-0.442-0.714-0.527-0.036-0.018-0.147-0.067-0.25-0.116-0.152-0.071-0.286-0.085-0.781-0.085-0.513 0-0.625 0.013-0.768 0.089z"></path>
</svg>
