<!-- Generated by IcoMoon.io -->
<svg version="1.1" xmlns="http://www.w3.org/2000/svg" width="32" height="32" viewBox="0 0 32 32">
<title>detalles-de-perfil-de-usuario</title>
<path d="M30.845 28.473h-29.69c-0.638 0-1.155-0.517-1.155-1.155v-22.636c0-0.638 0.517-1.155 1.155-1.155h29.69c0.638 0 1.155 0.517 1.155 1.155v22.636c-0.001 0.638-0.517 1.155-1.155 1.155zM2.31 26.163h27.381v-20.327h-27.381v20.327z"></path>
<path d="M7.436 15.743c-2.016 0-3.656-1.64-3.656-3.656s1.64-3.656 3.656-3.656 3.657 1.64 3.657 3.656-1.64 3.656-3.656 3.656zM7.436 10.739c-0.743 0-1.347 0.604-1.347 1.347s0.605 1.347 1.347 1.347 1.347-0.604 1.347-1.347-0.605-1.347-1.347-1.347z"></path>
<path d="M9.938 23.569h-5.003c-0.638 0-1.155-0.517-1.155-1.155v-5.004c0-0.637 0.517-1.155 1.155-1.155h5.003c0.638 0 1.155 0.517 1.155 1.155v5.003c0 0.638-0.517 1.155-1.155 1.155zM6.089 21.26h2.694v-2.695h-2.694c0 0 0 2.695 0 2.695z"></path>
<path d="M27.065 11.317h-10.996c-0.638 0-1.155-0.517-1.155-1.155s0.517-1.155 1.155-1.155h10.997c0.638 0 1.155 0.517 1.155 1.155s-0.517 1.155-1.155 1.155z"></path>
<path d="M27.065 15.165h-10.996c-0.638 0-1.155-0.517-1.155-1.155s0.517-1.155 1.155-1.155h10.997c0.638 0 1.155 0.517 1.155 1.155s-0.517 1.155-1.155 1.155z"></path>
<path d="M27.065 19.014h-10.996c-0.638 0-1.155-0.517-1.155-1.155s0.517-1.155 1.155-1.155h10.997c0.638 0 1.155 0.517 1.155 1.155s-0.517 1.155-1.155 1.155z"></path>
<path d="M27.065 22.863h-10.996c-0.638 0-1.155-0.517-1.155-1.155s0.517-1.155 1.155-1.155h10.997c0.638 0 1.155 0.517 1.155 1.155s-0.517 1.155-1.155 1.155z"></path>
</svg>
