<!-- Generated by IcoMoon.io -->
<svg version="1.1" xmlns="http://www.w3.org/2000/svg" width="32" height="32" viewBox="0 0 32 32">
<title>disabled</title>
<path d="M0 16c0 8.822 7.178 16 16 16s16-7.178 16-16-7.178-16-16-16c-8.822 0-16 7.178-16 16zM16 4.393c6.4 0 11.607 5.207 11.607 11.607 0 2.408-0.738 4.647-1.998 6.503l-16.113-16.113c1.857-1.26 4.095-1.998 6.504-1.998zM22.503 25.609c-1.857 1.26-4.095 1.998-6.503 1.998-6.4 0-11.607-5.207-11.607-11.607 0-2.408 0.738-4.647 1.998-6.503l16.113 16.113z"></path>
</svg>
