<!-- Generated by IcoMoon.io -->
<svg version="1.1" xmlns="http://www.w3.org/2000/svg" width="32" height="32" viewBox="0 0 32 32">
<title>doc-file-format</title>
<path d="M28.376 11.446h-0.768v-3.708c0-0.023-0.004-0.046-0.007-0.070-0.001-0.147-0.048-0.292-0.149-0.406l-6.17-7.048c-0.002-0.002-0.004-0.002-0.005-0.004-0.037-0.041-0.080-0.075-0.125-0.105-0.013-0.009-0.027-0.017-0.041-0.024-0.039-0.021-0.081-0.039-0.124-0.052-0.012-0.003-0.022-0.008-0.034-0.011-0.047-0.011-0.095-0.018-0.144-0.018h-15.163c-0.692 0-1.255 0.563-1.255 1.255v10.191h-0.768c-0.991 0-1.794 0.803-1.794 1.793v9.327c0 0.99 0.803 1.794 1.794 1.794h0.768v6.385c0 0.692 0.562 1.255 1.255 1.255h20.706c0.692 0 1.255-0.563 1.255-1.255v-6.385h0.768c0.99 0 1.793-0.803 1.793-1.794v-9.327c0-0.991-0.803-1.793-1.793-1.793zM5.647 1.255h14.536v6.42c0 0.347 0.281 0.627 0.627 0.627h5.543v3.144h-20.706v-10.191zM20.704 17.393c0 2.853-1.73 4.582-4.273 4.582-2.581 0-4.092-1.949-4.092-4.427 0-2.607 1.665-4.556 4.233-4.556 2.672 0 4.131 2 4.131 4.401zM3.755 21.795v-8.544c0.723-0.116 1.665-0.181 2.659-0.181 1.652 0 2.723 0.297 3.562 0.929 0.903 0.671 1.472 1.743 1.472 3.279 0 1.665-0.607 2.814-1.445 3.524-0.917 0.762-2.311 1.123-4.015 1.123-1.020 0-1.743-0.064-2.233-0.129zM26.353 30.405h-20.706v-6.045h20.706v6.045zM26.448 20.336c0.594 0 1.252-0.13 1.639-0.284l0.297 1.536c-0.362 0.181-1.175 0.374-2.233 0.374-3.007 0-4.556-1.871-4.556-4.35 0-2.968 2.117-4.621 4.749-4.621 1.020 0 1.795 0.207 2.143 0.387l-0.4 1.561c-0.4-0.168-0.955-0.323-1.652-0.323-1.562 0-2.775 0.942-2.775 2.878-0 1.743 1.032 2.84 2.788 2.84z"></path>
<path d="M9.357 17.342c0.013-1.807-1.046-2.762-2.736-2.762-0.439 0-0.723 0.039-0.891 0.078v5.692c0.167 0.039 0.439 0.039 0.684 0.039 1.781 0.013 2.943-0.968 2.943-3.046z"></path>
<path d="M14.418 17.509c0 1.704 0.8 2.904 2.117 2.904 1.33 0 2.091-1.265 2.091-2.956 0-1.562-0.748-2.904-2.104-2.904-1.329 0-2.104 1.265-2.104 2.955z"></path>
</svg>
