<!-- Generated by IcoMoon.io -->
<svg version="1.1" xmlns="http://www.w3.org/2000/svg" width="34" height="32" viewBox="0 0 34 32">
<title>document</title>
<path d="M5.971 0.057c-0.452 0.103-0.876 0.475-1.093 0.962-0.092 0.195-0.097 1.030-0.097 12.004 0 11.197 0.006 11.804 0.103 11.953 0.052 0.086 0.137 0.155 0.183 0.155 0.052 0 0.275-0.378 0.572-0.973l0.487-0.973v-10.779c0-9.663 0.011-10.791 0.092-10.905l0.086-0.126h5.856c4.963 0 5.868 0.011 5.965 0.080 0.103 0.080 0.109 0.189 0.137 2.061l0.029 1.981 0.16 0.155 0.155 0.16 1.769 0.029c1.38 0.023 1.786 0.046 1.855 0.109 0.092 0.069 0.097 0.521 0.097 5.393v5.318h1.374v-5.839c0-4.969-0.011-5.868-0.080-5.999-0.12-0.229-4.219-4.66-4.385-4.746-0.114-0.057-1.511-0.074-6.612-0.069-3.555 0.006-6.549 0.023-6.652 0.052zM20.614 3.549c0.361 0.395 0.687 0.761 0.733 0.813 0.074 0.097 0.029 0.103-0.819 0.103h-0.893v-1.975l0.166 0.172c0.086 0.097 0.452 0.492 0.813 0.887z"></path>
<path d="M7.791 7.253c-0.544 0.269-0.55 1.196-0.011 1.477 0.155 0.074 0.899 0.086 6.474 0.086 6.961 0 6.526 0.023 6.755-0.361 0.155-0.246 0.149-0.681 0-0.927-0.246-0.395 0.172-0.372-6.766-0.372-5.719 0-6.274 0.011-6.452 0.097z"></path>
<path d="M1.431 9.468c-0.361 0.092-0.635 0.275-0.939 0.613-0.504 0.561-0.464-0.395-0.464 10.613 0 9.291 0.006 9.743 0.103 10.035 0.149 0.424 0.572 0.864 1.025 1.076l0.361 0.166h24.73l0.389-0.183c0.796-0.378 0.738-0.28 3.543-5.627 1.385-2.628 2.788-5.307 3.12-5.948l0.601-1.168-0.023-0.406c-0.023-0.487-0.155-0.71-0.521-0.887-0.24-0.12-0.321-0.12-3.549-0.12h-3.303v-1.569c0-1.912-0.023-2.004-0.544-2.53-0.24-0.246-0.429-0.378-0.624-0.441-0.544-0.183-0.492-0.406-0.492 2.221v2.318l-7.138 0.011c-8.129 0.017-7.333-0.034-7.888 0.532-0.258 0.263-0.555 0.836-3.189 6.182l-2.908 5.896-0.698 0.017c-0.796 0.017-0.973-0.046-1.191-0.401-0.115-0.189-0.115-0.309-0.115-9.199v-9.016l0.126-0.183c0.223-0.326 0.355-0.366 1.156-0.366h0.721v-1.717l-1.013 0.006c-0.613 0-1.122 0.029-1.277 0.074z"></path>
<path d="M7.745 12.021c-0.24 0.143-0.361 0.389-0.361 0.716 0 0.338 0.137 0.578 0.412 0.721 0.206 0.103 0.429 0.109 6.457 0.109s6.251-0.006 6.457-0.109c0.114-0.063 0.258-0.189 0.315-0.28 0.132-0.235 0.126-0.675-0.017-0.91-0.229-0.384 0.206-0.361-6.766-0.361-6.16 0-6.32 0.006-6.497 0.114z"></path>
<path d="M7.745 16.773c-0.24 0.143-0.361 0.389-0.361 0.727 0 0.515 0.326 0.819 0.876 0.819 0.24 0 0.246-0.006 0.401-0.315 0.275-0.567 0.784-1.025 1.374-1.231l0.298-0.109h-1.202c-1.093-0.006-1.219 0.006-1.385 0.109z"></path>
</svg>
