<!-- Generated by IcoMoon.io -->
<svg version="1.1" xmlns="http://www.w3.org/2000/svg" width="32" height="32" viewBox="0 0 32 32">
<title>docx-file-format-symbol</title>
<path d="M28.376 11.446h-0.768v-3.708c0-0.023-0.004-0.046-0.007-0.070-0.001-0.147-0.048-0.292-0.149-0.406l-6.17-7.048c-0.002-0.002-0.004-0.002-0.005-0.004-0.037-0.041-0.080-0.075-0.125-0.105-0.013-0.009-0.027-0.017-0.041-0.024-0.039-0.021-0.081-0.039-0.124-0.052-0.012-0.003-0.022-0.008-0.034-0.011-0.047-0.011-0.095-0.018-0.144-0.018h-15.163c-0.692 0-1.255 0.563-1.255 1.255v10.191h-0.768c-0.99 0-1.794 0.803-1.794 1.793v9.327c0 0.99 0.803 1.794 1.794 1.794h0.768v6.385c0 0.692 0.563 1.255 1.255 1.255h20.706c0.692 0 1.255-0.563 1.255-1.255v-6.385h0.768c0.99 0 1.793-0.803 1.793-1.794v-9.327c0-0.991-0.803-1.793-1.793-1.793zM5.647 1.255h14.536v6.42c0 0.347 0.281 0.627 0.627 0.627h5.543v3.143h-20.706v-10.191zM21.451 19.601c0.458 0 0.966-0.099 1.265-0.219l0.229 1.185c-0.278 0.139-0.905 0.289-1.721 0.289-2.32 0-3.514-1.443-3.514-3.354 0-2.289 1.632-3.563 3.663-3.563 0.786 0 1.384 0.16 1.652 0.299l-0.308 1.205c-0.309-0.13-0.736-0.249-1.274-0.249-1.205 0-2.14 0.726-2.14 2.219-0 1.343 0.796 2.189 2.149 2.189zM17.021 17.332c0 2.199-1.334 3.533-3.294 3.533-1.991 0-3.155-1.503-3.155-3.414 0-2.010 1.284-3.514 3.265-3.514 2.061 0 3.185 1.543 3.185 3.395zM3.952 20.726v-6.589c0.558-0.089 1.284-0.139 2.050-0.139 1.274 0 2.1 0.229 2.746 0.716 0.697 0.517 1.135 1.344 1.135 2.528 0 1.284-0.468 2.17-1.115 2.717-0.707 0.587-1.782 0.866-3.096 0.866-0.786-0-1.343-0.050-1.721-0.1zM26.353 30.405h-20.706v-6.045h20.706v6.045zM27.503 20.756l-0.608-1.214c-0.249-0.468-0.408-0.817-0.597-1.204h-0.020c-0.139 0.388-0.308 0.737-0.517 1.204l-0.558 1.214h-1.732l1.941-3.394-1.871-3.314h1.742l0.587 1.225c0.199 0.407 0.348 0.736 0.507 1.114h0.020c0.159-0.428 0.289-0.726 0.458-1.114l0.567-1.225h1.732l-1.891 3.274 1.99 3.434h-1.752z"></path>
<path d="M8.272 17.292c0.010-1.393-0.806-2.13-2.11-2.13-0.339 0-0.558 0.030-0.687 0.060v4.389c0.13 0.030 0.339 0.030 0.528 0.030 1.374 0.010 2.269-0.746 2.269-2.349z"></path>
<path d="M12.175 17.421c0 1.314 0.617 2.239 1.632 2.239 1.025 0 1.612-0.975 1.612-2.279 0-1.205-0.577-2.24-1.623-2.24-1.025 0-1.622 0.976-1.622 2.279z"></path>
</svg>
