<!-- Generated by IcoMoon.io -->
<svg version="1.1" xmlns="http://www.w3.org/2000/svg" width="36" height="32" viewBox="0 0 36 32">
<title>efund</title>
<path d="M22.6 4.3c-2.311 2.378-5.089 5.211-6.178 6.322-1.944 1.978-1.978 2.011-1.978 2.489 0 0.444 0.056 0.533 0.922 1.4l0.911 0.933 6.556-6.733c3.611-3.7 6.578-6.778 6.6-6.844s-0.356-0.511-0.833-0.989c-0.811-0.811-0.911-0.878-1.333-0.878-0.456 0-0.467 0.011-4.667 4.3z"></path>
<path d="M2.211 1.811c-0.867 0.244-1.489 0.789-1.9 1.689l-0.256 0.556v12.833c0 12.789 0 12.833 0.233 13.333 0.344 0.733 0.8 1.222 1.433 1.511l0.556 0.267h7.811c7.689 0 7.811 0 8.3-0.233 0.267-0.122 0.678-0.433 0.9-0.678 0.756-0.844 0.767-0.856 0.8-4.856l0.033-3.589-1.722-1.744-1.733-1.733v3.067c0 2.833-0.011 3.078-0.2 3.244s-0.8 0.189-6.444 0.189h-6.233l-0.167-0.244c-0.156-0.222-0.178-1.333-0.178-9.789v-9.533l0.278-0.267 0.267-0.278h6.011c6.011 0 6.344 0.022 6.578 0.378 0.044 0.067 0.089 0.333 0.089 0.589 0 0.267 0.033 0.467 0.089 0.467 0.044-0.011 0.767-0.733 1.622-1.611 1.322-1.356 1.533-1.622 1.478-1.856-0.111-0.422-0.922-1.256-1.5-1.544l-0.522-0.256-7.556-0.022c-5.744-0.022-7.678 0.011-8.067 0.111zM8.033 28.222c0.433 0.344 0.578 0.9 0.356 1.378-0.3 0.622-0.678 0.733-2.556 0.733-1.856 0-2.189-0.1-2.456-0.744-0.222-0.511-0.111-0.956 0.311-1.311 0.322-0.278 0.356-0.278 2.189-0.278 1.711 0 1.9 0.022 2.156 0.222zM16.511 28.378c0.422 0.422 0.478 0.778 0.211 1.289-0.311 0.6-0.644 0.689-2.633 0.644l-1.778-0.033-0.322-0.367c-0.456-0.5-0.456-1.133 0-1.589l0.322-0.322h3.822l0.378 0.378z"></path>
<path d="M25.044 10.711c-3.6 3.7-6.544 6.789-6.544 6.878s0.856 1.044 1.911 2.122c1.878 1.922 1.911 1.956 2.378 1.956 0.556 0 0.056 0.478 7.589-7.256 2.856-2.944 5.211-5.444 5.244-5.589 0.144-0.556-0.089-0.878-1.989-2.822-1.056-1.067-1.944-1.956-1.978-1.978-0.033-0.011-3.011 3-6.611 6.689z"></path>
</svg>
