<!-- Generated by IcoMoon.io -->
<svg version="1.1" xmlns="http://www.w3.org/2000/svg" width="32" height="32" viewBox="0 0 32 32">
<title>error-triangle</title>
<path d="M31.763 28.129l-13.958-26.153c-0.348-0.654-1.030-1.064-1.772-1.064h-0.002c-0.742 0-1.422 0.408-1.772 1.062l-14.020 26.153c-0.334 0.628-0.316 1.38 0.046 1.984 0.364 0.606 1.020 0.978 1.726 0.978h27.976c0.708 0 1.362-0.37 1.726-0.978 0.364-0.606 0.382-1.358 0.050-1.982zM16.031 27.065c-1.111 0-2.012-0.901-2.012-2.012s0.901-2.012 2.012-2.012c1.108 0 2.012 0.901 2.012 2.012s-0.901 2.012-2.012 2.012zM18.045 19.050c0 1.113-0.903 2.012-2.012 2.012-1.111 0-2.012-0.899-2.012-2.012v-8.047c0-1.111 0.901-2.012 2.012-2.012 1.108 0 2.012 0.901 2.012 2.012v8.047z"></path>
</svg>
