<!-- Generated by IcoMoon.io -->
<svg version="1.1" xmlns="http://www.w3.org/2000/svg" width="32" height="32" viewBox="0 0 32 32">
<title>escalator</title>
<path d="M26.497 17.398l-3.803 1.301c-0.21 0.072-0.352 0.23-0.382 0.422s0.060 0.386 0.239 0.517l0.569 0.415-4.536 6.22c-0.221 0.303-0.154 0.73 0.149 0.95l1.561 1.139c0.117 0.085 0.255 0.13 0.4 0.13 0.217 0 0.423-0.104 0.55-0.279l4.535-6.22 0.569 0.415c0.108 0.079 0.228 0.121 0.347 0.121 0.245 0 0.497-0.187 0.504-0.543l0.076-4.019c0.003-0.17-0.056-0.325-0.166-0.438-0.153-0.156-0.391-0.208-0.614-0.131z"></path>
<path d="M30.443 5.918h-8.666c-0.764 0-1.732 0.471-2.203 1.073l-4.748 6.063v-3.396c0-0.497-0.405-0.902-0.902-0.902h-0.269c0.689-0.537 1.133-1.375 1.133-2.314 0-1.618-1.316-2.934-2.935-2.934s-2.935 1.316-2.935 2.934c0 0.939 0.444 1.777 1.133 2.314h-0.269c-0.497 0-0.902 0.405-0.902 0.902v6.904c0 0.469 0.36 0.855 0.819 0.898v2.141l-0.788 1.007c-0.327 0.417-1.078 0.783-1.608 0.783h-5.746c-0.858 0-1.557 0.698-1.557 1.557v3.777c0 0.858 0.698 1.557 1.557 1.557h9.451c0.765 0 1.732-0.473 2.201-1.076l10.597-13.611c0.325-0.418 1.075-0.784 1.605-0.784h5.032c0.858 0 1.557-0.698 1.557-1.557v-3.777c0-0.858-0.698-1.557-1.557-1.557z"></path>
</svg>
