<!-- Generated by IcoMoon.io -->
<svg version="1.1" xmlns="http://www.w3.org/2000/svg" width="32" height="32" viewBox="0 0 32 32">
<title>expand-screen</title>
<path d="M31.999 22.109c0-0.979-0.75-1.771-1.682-1.771-0.924 0.002-1.683 0.792-1.683 1.771v3.667l-6.79-6.794c-0.657-0.658-1.72-0.658-2.376 0-0.657 0.657-0.657 1.723 0 2.38l6.757 6.755h-3.65c-0.994 0.002-1.795 0.755-1.795 1.682 0 0.93 0.801 1.681 1.795 1.681h7.628c0.994 0 1.794-0.75 1.797-1.681-0.003-0.025-0.007-0.044-0.010-0.069 0.003-0.032 0.010-0.065 0.010-0.098v-7.524h-0.001z"></path>
<path d="M10.155 18.983l-6.787 6.794v-3.667c0-0.979-0.758-1.769-1.685-1.771-0.93 0-1.681 0.792-1.681 1.771l-0.002 7.525c0 0.033 0.009 0.067 0.011 0.098-0.002 0.024-0.007 0.043-0.009 0.069 0.002 0.931 0.803 1.681 1.796 1.681h7.63c0.992 0 1.794-0.751 1.794-1.681 0-0.927-0.802-1.68-1.794-1.682h-3.65l6.757-6.755c0.654-0.657 0.654-1.723 0-2.38-0.658-0.659-1.722-0.659-2.381-0.001z"></path>
<path d="M21.843 13.015l6.79-6.789v3.667c0 0.976 0.759 1.766 1.683 1.769 0.932 0 1.682-0.793 1.682-1.769v-7.527c0-0.033-0.007-0.067-0.010-0.096 0.003-0.024 0.007-0.046 0.010-0.070-0.003-0.932-0.803-1.682-1.796-1.682h-7.628c-0.994 0-1.795 0.75-1.795 1.682 0 0.926 0.801 1.681 1.795 1.683h3.65l-6.757 6.755c-0.657 0.656-0.657 1.72 0 2.375 0.657 0.661 1.72 0.661 2.376 0.001z"></path>
<path d="M5.778 3.884h3.649c0.992-0.002 1.794-0.757 1.794-1.683 0-0.932-0.802-1.682-1.794-1.682h-7.628c-0.993 0-1.794 0.75-1.796 1.682 0.002 0.024 0.007 0.046 0.009 0.070-0.002 0.029-0.011 0.062-0.011 0.096l0.002 7.528c0 0.976 0.751 1.769 1.681 1.769 0.926-0.003 1.685-0.793 1.685-1.769v-3.667l6.787 6.788c0.659 0.66 1.723 0.66 2.381 0 0.654-0.656 0.654-1.72 0-2.375l-6.757-6.756z"></path>
</svg>
