<!-- Generated by IcoMoon.io -->
<svg version="1.1" xmlns="http://www.w3.org/2000/svg" width="32" height="32" viewBox="0 0 32 32">
<title>folder</title>
<path d="M30.661 14.4h-1.861v-3.343c0-0.803-0.654-1.457-1.457-1.457h-1.743v-1.287l-0.264-0.264c-0.001 0-0.001-0.001-0.001-0.001l-8.048-8.047h-13.021v5.867h-2.81c-0.803 0-1.457 0.654-1.457 1.457v23.3h0.003c-0.003 0.3 0.091 0.594 0.278 0.84 0.261 0.341 0.657 0.537 1.086 0.537h23.871c0.617 0 1.159-0.415 1.307-0.967l5.454-14.954v-0.094c0-0.918-0.563-1.585-1.339-1.585zM27.343 10.667c0.215 0 0.39 0.175 0.39 0.39v3.343h-2.133v-3.733h1.743zM17.6 1.821l6.179 6.179h-6.179v-6.179zM5.333 1.067h11.2v8h8v5.333h-17.743c-0.076 0-0.151 0.006-0.225 0.019-0.519 0.086-0.953 0.465-1.082 0.948l-0.15 0.412v-14.712zM1.067 7.324c0-0.215 0.175-0.39 0.39-0.39h2.81v11.752l-3.2 8.727v-20.089zM25.53 30.711c-0.035 0.131-0.155 0.222-0.291 0.222h-23.871c-0.13 0-0.205-0.074-0.239-0.118s-0.085-0.137-0.066-0.218l5.436-14.908c0.035-0.131 0.155-0.222 0.291-0.222h23.871c0.203 0 0.254 0.291 0.268 0.437l-5.399 14.807z"></path>
<path d="M8.533 9.067h5.333c0.294 0 0.533-0.238 0.533-0.533s-0.239-0.533-0.533-0.533h-5.333c-0.294 0-0.533 0.238-0.533 0.533s0.239 0.533 0.533 0.533z"></path>
<path d="M8.533 5.333h5.333c0.294 0 0.533-0.238 0.533-0.533s-0.239-0.533-0.533-0.533h-5.333c-0.294 0-0.533 0.238-0.533 0.533s0.239 0.533 0.533 0.533z"></path>
<path d="M8.533 12.8h12.8c0.294 0 0.533-0.238 0.533-0.533s-0.239-0.533-0.533-0.533h-12.8c-0.294 0-0.533 0.238-0.533 0.533s0.239 0.533 0.533 0.533z"></path>
</svg>
