<!-- Generated by IcoMoon.io -->
<svg version="1.1" xmlns="http://www.w3.org/2000/svg" width="32" height="32" viewBox="0 0 32 32">
<title>geolocation</title>
<path d="M19.619 23.544c2.581-4.281 5.844-10.3 5.844-13.394 0-5.219-4.244-9.463-9.463-9.463s-9.463 4.244-9.463 9.463c0 3.094 3.262 9.113 5.844 13.394-3.063 0.231-10.031 1.063-10.031 3.819 0 2.712 7.075 3.95 13.656 3.95 6.575 0 13.656-1.238 13.656-3.95-0.006-2.756-6.981-3.587-10.044-3.819zM7.844 10.15c0-4.5 3.662-8.162 8.156-8.162 4.5 0 8.163 3.662 8.163 8.162 0 3.931-6.262 13.794-8.163 16.694-1.9-2.9-8.156-12.762-8.156-16.694zM16 30.006c-7.994 0-12.35-1.75-12.35-2.65 0-0.694 2.875-2.188 9.5-2.569 1.244 2.006 2.188 3.425 2.313 3.594 0.169 0.225 0.662 0.494 1.081 0 0.131-0.156 1.069-1.587 2.313-3.594 6.625 0.381 9.5 1.869 9.5 2.569-0.006 0.906-4.363 2.65-12.356 2.65z"></path>
<path d="M20.119 10.15c0-2.275-1.844-4.119-4.119-4.119s-4.119 1.844-4.119 4.119c0 2.275 1.844 4.119 4.119 4.119s4.119-1.844 4.119-4.119zM13.181 10.15c0-1.556 1.262-2.819 2.819-2.819s2.819 1.262 2.819 2.819c0 1.556-1.262 2.819-2.819 2.819s-2.819-1.262-2.819-2.819z"></path>
</svg>
