<!-- Generated by IcoMoon.io -->
<svg version="1.1" xmlns="http://www.w3.org/2000/svg" width="32" height="32" viewBox="0 0 32 32">
<title>giftbox</title>
<path d="M24.206 9.74c0.573-0.407 1.123-0.861 1.627-1.364 1.056-1.056 1.763-2.356 1.989-3.659 0.249-1.429-0.116-2.755-1-3.639-0.705-0.705-1.66-1.078-2.762-1.078-1.569 0-3.223 0.753-4.536 2.067-2.102 2.102-3.327 5.003-3.986 7.074-0.488-2.081-1.461-4.89-3.352-6.781-1.015-1.015-2.312-1.536-3.537-1.536-1.001 0-1.953 0.348-2.664 1.059-1.58 1.581-1.367 4.357 0.477 6.201 0.657 0.657 1.426 1.203 2.236 1.657h-6.862v8.094h2.024v14.165h24.283v-14.165h2.024v-8.094h-5.96zM21.133 3.676c0.877-0.877 1.971-1.4 2.926-1.4 0.338 0 0.813 0.071 1.152 0.411 0.823 0.823 0.361 2.729-0.989 4.079-1.39 1.39-3.259 2.345-4.883 2.974h-1.602c0.587-1.82 1.646-4.315 3.395-6.064zM7.208 4.71c-0.022-0.288-0.002-0.83 0.386-1.217 0.324-0.324 0.752-0.392 1.054-0.392v0c0.672 0 1.374 0.317 1.927 0.869 1.071 1.071 1.953 2.775 2.551 4.929 0.016 0.058 0.032 0.116 0.047 0.173-0.057-0.015-0.115-0.031-0.173-0.047-2.153-0.598-3.858-1.48-4.929-2.551-0.5-0.5-0.815-1.143-0.863-1.764zM13.976 29.976h-8.094v-13.153h8.094v13.153zM13.976 15.811h-10.118v-4.047h10.118v4.047zM26.118 29.976h-8.094v-13.153h8.094v13.153zM28.142 15.811h-10.118v-4.047h10.118v4.047z"></path>
</svg>
