<!-- Generated by IcoMoon.io -->
<svg version="1.1" xmlns="http://www.w3.org/2000/svg" width="32" height="32" viewBox="0 0 32 32">
<title>gift-box-with-a-ribbon</title>
<path d="M11.069 23.546l-1.246-2.022-2.631 0.473 3.461-6.138h-6.748v16.141h11.498v-16.141z"></path>
<path d="M29.994 8.156h-7.635c0.447-0.23 0.845-0.47 1.198-0.726 1.358-0.973 2.079-2.205 2.077-3.429 0-1.004-0.475-2.441-1.165-3.040-0.691-0.606-1.608-0.961-2.587-0.961-1.046 0-2.017 0.359-2.85 0.917-1.252 0.838-2.232 2.654-2.93 4.039-0.035 0.069-0.071 0.137-0.105 0.204-0.255-0.534-0.554-1.604-0.892-2.091-0.592-0.845-1.304-1.592-2.14-2.152-0.83-0.558-1.801-0.917-2.845-0.917-1.041 0.003-1.995 0.44-2.708 1.113-0.71 0.666-1.206 2.167-1.211 3.239-0.005 0.625 0.178 1.28 0.555 1.876 0.474 0.746 1.225 1.397 2.261 1.929h-7.029l0.016 6.419h13.2v-6.419h1.608v6.419h13.202l-0.019-6.419zM9.472 6.149c-0.53-0.335-0.855-0.671-1.047-0.973-0.186-0.3-0.251-0.826-0.251-1.084-0.005-0.432 0.211-1.189 0.593-1.545 0.374-0.357 0.882-0.576 1.337-0.576h0.014c0.587 0.005 1.168 0.2 1.753 0.587 0.871 0.575 1.693 2.139 2.263 3.285 0.298 0.583 0.526 1.193 0.68 1.788-2.644-0.273-4.353-0.857-5.344-1.482zM18.508 4.754c0.476-0.682 1.038-1.808 1.62-2.196 0.579-0.386 1.166-0.582 1.753-0.587h0.006c0.489 0 0.959 0.191 1.279 0.475 0.321 0.288 0.493 0.816 0.493 1.187-0.007 0.439-0.234 1.448-1.258 2.196-0.972 0.709-2.659 1.434-5.252 1.942 0.245-1.029 0.724-2.118 1.359-3.018z"></path>
<path d="M24.822 21.97l-2.63-0.447-1.242 2.046-4.277-7.607v16.038h11.44v-16.141h-6.748z"></path>
</svg>
