<!-- Generated by IcoMoon.io -->
<svg version="1.1" xmlns="http://www.w3.org/2000/svg" width="32" height="32" viewBox="0 0 32 32">
<title>give-money</title>
<path d="M23.941 9.839c-0.956-0.383-1.232-0.615-1.232-1.034 0-0.335 0.254-0.726 0.969-0.726 0.633 0 1.118 0.249 1.122 0.252 0.051 0.027 0.108 0.042 0.165 0.042 0.138 0 0.261-0.084 0.312-0.213l0.174-0.444c0.061-0.162-0.031-0.303-0.148-0.354-0.39-0.17-1.151-0.301-1.159-0.302-0.012-0.002-0.055-0.011-0.055-0.061l-0.002-0.645c0-0.194-0.162-0.352-0.361-0.352h-0.312c-0.199 0-0.361 0.158-0.361 0.352l0.001 0.678c0 0.052-0.056 0.074-0.077 0.079-0.961 0.229-1.562 0.933-1.562 1.821 0 1.107 0.915 1.607 1.903 1.983 0.79 0.31 1.112 0.624 1.112 1.086 0 0.502-0.456 0.852-1.11 0.852-0.558 0-1.314-0.354-1.321-0.357-0.048-0.023-0.1-0.034-0.152-0.034-0.144 0-0.269 0.087-0.319 0.222l-0.166 0.449c-0.059 0.168 0.032 0.304 0.148 0.365 0.464 0.242 1.362 0.383 1.402 0.389 0.011 0.002 0.065 0.021 0.065 0.071v0.675c0 0.194 0.162 0.352 0.361 0.352h0.322c0.199 0 0.361-0.158 0.361-0.352v-0.71c0-0.066 0.049-0.072 0.059-0.075 1.024-0.23 1.654-0.979 1.654-1.92-0-0.966-0.537-1.59-1.794-2.087z"></path>
<path d="M23.538 2.030c-4.673 0-8.462 3.789-8.462 8.462s3.788 8.462 8.462 8.462c4.673 0 8.462-3.789 8.462-8.462s-3.788-8.462-8.462-8.462zM23.538 16.993c-3.59 0-6.501-2.911-6.501-6.501s2.91-6.501 6.501-6.501c3.59 0 6.5 2.911 6.5 6.501s-2.91 6.501-6.5 6.501z"></path>
<path d="M30.281 23.054c-1.799 0.993-4.274 1.911-6.742 2.298-2.196 0.344-6.327-0.486-6.327-1.467 0-0.372 3.623 0.916 5.815 0.331 1.681-0.448 1.442-2.020 0.528-2.228-0.909-0.206-6.233-2.157-8.507-2.224-1.071-0.032-3.716 0.373-4.996 0.581-0.438 0.071-0.713 0.064-0.741 0.483-0.127 1.95-0.378 5.938-0.515 8.020-0.003 0.044 0.058 0.636 0.547 0.219 0.535-0.456 1.284-0.961 1.978-0.804 1.088 0.247 10.501 1.971 11.799 1.669 1.857-0.432 7.115-3.548 8.123-4.516 1.563-1.501 0.348-3.087-0.961-2.364z"></path>
<path d="M6.713 20.27l-4.931-0.243c-0.381-0.019-0.77 0.268-0.864 0.637l-0.897 8.14c-0.095 0.369 0.14 0.683 0.521 0.698l5.465-0.001c0.381 0.015 0.716-0.284 0.746-0.664l0.6-7.843c0.029-0.38-0.259-0.706-0.639-0.725zM3.81 28.424c-0.753 0-1.363-0.61-1.363-1.363s0.61-1.363 1.363-1.363 1.363 0.61 1.363 1.363c0 0.753-0.61 1.363-1.363 1.363z"></path>
</svg>
