<!-- Generated by IcoMoon.io -->
<svg version="1.1" xmlns="http://www.w3.org/2000/svg" width="32" height="32" viewBox="0 0 32 32">
<title>graphic</title>
<path d="M16.389 14.678c0.092 0.092 0.217 0.144 0.347 0.144h14.728c0.139 0 0.272-0.059 0.365-0.163s0.138-0.242 0.123-0.38c-0.421-3.947-2.264-7.568-5.191-10.198-2.929-2.632-6.735-4.081-10.716-4.081-3.638 0-7.201 1.255-10.031 3.535-0.109 0.087-0.175 0.217-0.182 0.356s0.045 0.275 0.143 0.373l10.414 10.414zM14.404 9.084l4.224-6.282c0.485 0.094 0.966 0.216 1.437 0.364l-4.623 6.957-1.039-1.039zM16.045 2.552c0.126 0 0.253 0.002 0.381 0.005l-3.437 5.112-1.113-1.114 2.752-3.93c0.47-0.049 0.946-0.074 1.416-0.074zM11.806 3.233l-1.34 1.913-0.922-0.922c0.597-0.33 1.222-0.616 1.863-0.852 0.131-0.048 0.264-0.095 0.398-0.139zM24.328 12.27l2.689-4.047c0.185 0.261 0.362 0.531 0.529 0.807l-2.224 3.24h-0.994zM27.704 12.27l0.844-1.229c0.16 0.403 0.301 0.815 0.421 1.229h-1.264zM20.374 12.27l4.347-6.543c0.14 0.118 0.275 0.237 0.404 0.355 0.195 0.178 0.389 0.368 0.581 0.566l-3.735 5.622h-1.597zM18.017 12.27h-0.427l-0.731-0.731 5.071-7.633c0.412 0.201 0.815 0.423 1.203 0.664l-5.116 7.7z"></path>
<path d="M14.28 15.901l-9.971-9.971c-0.099-0.098-0.234-0.151-0.374-0.143s-0.268 0.074-0.356 0.182c-2.279 2.83-3.535 6.392-3.535 10.031 0 4.983 2.26 9.593 6.2 12.648 0.087 0.067 0.193 0.103 0.301 0.103 0.029 0 0.059-0.003 0.088-0.008 0.137-0.025 0.257-0.107 0.33-0.226l7.388-12.012c0.119-0.193 0.090-0.443-0.071-0.604zM11.325 16.555l-5.225 8.495c-0.814-0.894-1.501-1.886-2.045-2.953-0.967-1.898-1.458-3.949-1.458-6.096 0-1.595 0.276-3.156 0.821-4.637 0.236-0.641 0.521-1.266 0.852-1.863l7.056 7.055z"></path>
<path d="M31.464 17.178h-14.487c-0.17 0-0.329 0.088-0.418 0.234l-7.59 12.342c-0.073 0.119-0.092 0.263-0.053 0.396s0.134 0.244 0.259 0.304c2.154 1.026 4.465 1.547 6.869 1.547 3.981 0 7.787-1.45 10.716-4.081 2.927-2.63 4.771-6.251 5.191-10.198 0.015-0.138-0.030-0.277-0.123-0.38s-0.226-0.163-0.365-0.163z"></path>
</svg>
