<!-- Generated by IcoMoon.io -->
<svg version="1.1" xmlns="http://www.w3.org/2000/svg" width="32" height="32" viewBox="0 0 32 32">
<title>group</title>
<path d="M21.484 22.474l-0.282-0.282c-0.013-0.013-0.020-0.020-0.033-0.033-1.56 0.924-3.357 1.423-5.199 1.423-2.314 0-4.517-0.767-6.307-2.183-0.485 0.334-0.983 0.708-1.469 1.108-0.387 0.315-0.61 0.793-0.61 1.292v2.367h16.816v-0.78l-2.472-2.472-0.446-0.439z"></path>
<path d="M16.37 8.018h-0.747c-1.718 0-3.114 1.396-3.114 3.114v3.455c0 0.544 0.275 1.016 0.695 1.298v2.95c0.846 0.433 1.79 0.669 2.773 0.669 0.997 0 1.954-0.236 2.806-0.682v-2.931c0.42-0.282 0.695-0.754 0.695-1.298v-3.455c0.007-1.731-1.39-3.121-3.108-3.121z"></path>
<path d="M31.489 20.173c-1.796-1.475-3.73-2.452-4.124-2.649-0.046-0.020-0.072-0.066-0.072-0.118v-2.793c0.354-0.236 0.584-0.636 0.584-1.088v-2.898c0-1.442-1.167-2.609-2.609-2.609h-0.603c0.918 1.488 1.449 3.193 1.514 4.969 0.079 1.98-0.42 3.921-1.416 5.599 0.013 0.013 0.020 0.020 0.033 0.033l4.635 4.635h2.57v-1.986c0-0.426-0.19-0.826-0.511-1.095z"></path>
<path d="M29.758 25.418l-5.887-5.887-0.347 0.347-0.747-0.747c2.963-3.494 2.799-8.739-0.505-12.043-1.737-1.737-4.019-2.609-6.294-2.609s-4.556 0.872-6.294 2.609c-3.475 3.475-3.475 9.113 0 12.588 1.737 1.737 4.019 2.609 6.294 2.609 2.045 0 4.091-0.701 5.75-2.104l0.747 0.747-0.347 0.347 5.887 5.887c0.243 0.243 0.557 0.361 0.872 0.361s0.629-0.118 0.872-0.361c0.479-0.479 0.479-1.259 0-1.744 0 0.007 0 0 0 0zM21.222 18.632c-1.449 1.449-3.35 2.17-5.245 2.17-1.901 0-3.796-0.721-5.245-2.17-2.898-2.898-2.898-7.592 0-10.49 1.449-1.449 3.35-2.17 5.245-2.17 1.901 0 3.796 0.721 5.245 2.17 2.898 2.891 2.898 7.592 0 10.49z"></path>
<path d="M7.303 8.018h-0.57c-1.442 0-2.609 1.167-2.609 2.609v2.898c0 0.452 0.229 0.852 0.583 1.088v2.793c0 0.052-0.026 0.092-0.072 0.118-0.393 0.19-2.327 1.174-4.124 2.649-0.321 0.269-0.511 0.669-0.511 1.088v1.986h6.372c0.131-0.675 0.485-1.285 1.023-1.724 0.433-0.354 0.872-0.688 1.305-0.997-3.35-3.409-3.816-8.602-1.396-12.509z"></path>
</svg>
