<!-- Generated by IcoMoon.io -->
<svg version="1.1" xmlns="http://www.w3.org/2000/svg" width="32" height="32" viewBox="0 0 32 32">
<title>hand-holding-up-a-sack-of-money</title>
<path d="M27.653 21.568c-1.588 0.098-3.678 1.685-5.694 2.598-2.471 1.119-6.316 0.219-6.316 0.219 0.593-0.278 3.004-0.853 3.489-1.065 2.581-1.136 2.362-3.501 1.133-3.481-1.624 0.026-2.577 0.424-5.816 0.866-2.456 0.334-5.36 0.212-6.753 0.744-1.967 0.751-5.134 5.805-5.134 5.805l4.897 4.746c0 0 3.032-2.986 4.507-2.986 3.361 0 3.498-0.045 6.618-0.215 1.327-0.071 1.604-0.126 2.364-0.381 4.045-1.368 8.39-5.011 8.469-5.449 0.185-1.015-0.925-1.451-1.764-1.4z"></path>
<path d="M17.983 4.756c0.681-0.405 1.289-0.969 1.826-1.541 0.452-0.482 1.050-1.099 0.986-1.813-0.045-0.503-0.467-0.752-0.929-0.809-0.148-0.019-0.298-0.023-0.447-0.021-0.101 0.001-0.304-0.025-0.383 0.051-0.165 0.161-0.33 0.321-0.494 0.483-0.035-0.11-0.070-0.22-0.105-0.331-0.021-0.066-0.078-0.091-0.143-0.082-0.456 0.072-0.902 0.162-1.36 0.077-0.563-0.104-1.117-0.261-1.673-0.392-0.064-0.015-0.124 0.019-0.144 0.081-0.045 0.143-0.091 0.286-0.135 0.428-0.197-0.195-0.394-0.387-0.592-0.58-0.047-0.045-0.112-0.143-0.183-0.155-0.132-0.024-0.264-0.047-0.397-0.068-0.207-0.032-0.416-0.056-0.625-0.073-0.46-0.036-1.291-0.043-1.316 0.593-0.024 1.019 0.875 1.826 1.519 2.502 0.399 0.419 0.878 0.903 1.146 1.451-2.849 0.921-5.277 4.379-5.277 8.1 0 4.347 2.063 5.538 6.745 5.538s6.744-1.192 6.744-5.538c-0-3.494-2.141-6.755-4.761-7.903zM17.981 13.298c-0.172 0.256-0.408 0.461-0.68 0.604-0.143 0.074-0.294 0.133-0.448 0.178-0.022 0.007-0.223 0.062-0.223 0.062v0.562c0 0.261-0.050 0.538-0.284 0.693-0.256 0.168-0.634 0.118-0.824-0.127-0.139-0.178-0.147-0.413-0.147-0.63 0-0.164 0-0.499 0-0.499s-0.128-0.039-0.156-0.046c-0.090-0.024-0.179-0.053-0.267-0.083-0.052-0.018-0.103-0.038-0.155-0.058-0.037 0.025-0.076 0.048-0.116 0.067-0.070 0.035-0.147 0.060-0.224 0.068-0.308 0.029-0.578-0.154-0.658-0.451-0.050-0.189-0.036-0.391-0.036-0.585s-0.015-0.398 0.036-0.588c0.085-0.314 0.375-0.492 0.694-0.447 0.15 0.021 0.286 0.095 0.378 0.215 0.049 0.063 0.084 0.136 0.109 0.21 0.023 0.070 0.040 0.142 0.087 0.201 0.091 0.115 0.257 0.174 0.391 0.217 0.178 0.058 0.365 0.086 0.552 0.086 0.299 0 0.67-0.064 0.887-0.291 0.148-0.156 0.093-0.428-0.111-0.499-0.195-0.066-0.361-0.1-0.551-0.134-0.175-0.033-0.35-0.065-0.524-0.097-0.479-0.088-0.978-0.207-1.33-0.569-0.45-0.461-0.538-1.191-0.203-1.745 0.164-0.272 0.411-0.493 0.694-0.636 0.147-0.075 0.304-0.128 0.464-0.166 0.046-0.012 0.040-0.007 0.040-0.049 0-0.035 0-0.072 0-0.108 0-0.171-0.010-0.348 0.005-0.519 0.026-0.303 0.19-0.576 0.51-0.628 0.313-0.050 0.605 0.119 0.697 0.425 0.057 0.189 0.043 0.394 0.043 0.591 0 0.083 0 0.165 0 0.248 0 0.008 0 0.017 0 0.025 0 0.004 0.081 0.017 0.090 0.019 0.045 0.009 0.090 0.020 0.135 0.033 0.037 0.010 0.097 0.044 0.127 0.020 0.258-0.209 0.672-0.201 0.891 0.059 0.163 0.196 0.159 0.508 0.159 0.748 0 0.222 0.018 0.457-0.074 0.665-0.131 0.293-0.478 0.416-0.773 0.308-0.144-0.052-0.263-0.159-0.331-0.296-0.020-0.040-0.036-0.082-0.048-0.125-0.005-0.020-0.010-0.039-0.015-0.059-0.015-0.010-0.030-0.019-0.046-0.027-0.063-0.036-0.131-0.064-0.2-0.086-0.163-0.051-0.333-0.068-0.503-0.065-0.156 0.002-0.316 0.015-0.465 0.061-0.188 0.058-0.511 0.285-0.256 0.469 0.152 0.111 0.372 0.142 0.551 0.177 0.159 0.030 0.318 0.062 0.478 0.093 0.473 0.093 0.989 0.19 1.367 0.511-0.258-0.218 0.345 0.289 0 0 0.582 0.488 0.681 1.373 0.262 2z"></path>
</svg>
