<!-- Generated by IcoMoon.io -->
<svg version="1.1" xmlns="http://www.w3.org/2000/svg" width="32" height="32" viewBox="0 0 32 32">
<title>handcuffs</title>
<path d="M31.329 5.406c-0.895-2.16-2.577-3.842-4.737-4.737-1.071-0.443-2.196-0.668-3.346-0.668-2.159 0-4.213 0.783-5.82 2.212l-4.31-1.785-1.056 2.55c-2.584-1.064-5.561-0.485-7.566 1.52s-2.584 4.982-1.52 7.566l-2.55 1.056 1.785 4.31c-2.22 2.5-2.83 6.061-1.544 9.166 1.36 3.284 4.536 5.405 8.090 5.406 0 0 0 0 0.001 0 1.149 0 2.275-0.225 3.346-0.668 2.16-0.895 3.842-2.577 4.737-4.737s0.895-4.539 0-6.699c-1.286-3.105-4.235-5.192-7.573-5.39l-1.785-4.31-2.697 1.117c-0.761-1.855-0.344-3.992 1.095-5.431s3.576-1.856 5.431-1.095l-1.117 2.697 4.31 1.785c0.197 3.338 2.285 6.287 5.39 7.573 1.071 0.444 2.197 0.668 3.346 0.668 0 0 0 0 0 0 3.554 0 6.73-2.122 8.090-5.406 0.895-2.16 0.895-4.539 0-6.699zM5.073 14.36c0.471-0.195 1.012 0.029 1.207 0.5s-0.029 1.012-0.5 1.207c-0.471 0.195-1.012-0.029-1.207-0.5s0.029-1.012 0.5-1.207zM6.985 18.976c0.564-0.233 1.156-0.352 1.762-0.352 1.88 0 3.558 1.12 4.275 2.852 0.472 1.138 0.471 2.394-0.002 3.535s-1.36 2.030-2.498 2.502c-0.563 0.233-1.156 0.352-1.762 0.352-1.88 0-3.558-1.12-4.275-2.852-0.975-2.354 0.147-5.062 2.501-6.037zM16.064 5.782c-0.195 0.471-0.736 0.695-1.207 0.5s-0.695-0.736-0.5-1.207c0.195-0.471 0.736-0.695 1.207-0.5s0.695 0.736 0.5 1.207zM27.511 10.523c-0.718 1.733-2.396 2.852-4.275 2.852-0.605 0-1.198-0.118-1.762-0.352-2.354-0.975-3.476-3.683-2.501-6.037 0.718-1.733 2.396-2.852 4.275-2.852 0.605 0 1.198 0.118 1.762 0.352 2.354 0.975 3.475 3.683 2.5 6.037z"></path>
</svg>
