<!-- Generated by IcoMoon.io -->
<svg version="1.1" xmlns="http://www.w3.org/2000/svg" width="32" height="32" viewBox="0 0 32 32">
<title>history-clock-button</title>
<path opacity="0.9" fill="#000" d="M16.8 0.8c-5.6 0-10.56 3.040-13.12 7.68l-3.68-3.68v10.4h10.4l-4.48-4.48c2.080-4 6.080-6.72 10.88-6.72 6.56 0 12 5.44 12 12s-5.44 12-12 12c-5.28 0-9.6-3.36-11.36-8h-3.36c1.76 6.4 7.68 11.2 14.72 11.2 8.48 0 15.2-6.88 15.2-15.2s-6.88-15.2-15.2-15.2zM14.4 8.8v8.16l7.52 4.48 1.28-2.080-6.4-3.84v-6.72h-2.4z"></path>
</svg>
