<!-- Generated by IcoMoon.io -->
<svg version="1.1" xmlns="http://www.w3.org/2000/svg" width="32" height="32" viewBox="0 0 32 32">
<title>home</title>
<path d="M31.599 15.625c0.58-0.638 0.524-1.616-0.125-2.183l-14.301-12.514c-0.649-0.568-1.69-0.556-2.325 0.027l-14.35 13.154c-0.635 0.583-0.667 1.559-0.069 2.18l0.36 0.375c0.597 0.621 1.562 0.695 2.154 0.165l1.072-0.96v14.060c0 0.863 0.699 1.561 1.561 1.561h5.594c0.862 0 1.561-0.698 1.561-1.561v-9.837h7.135v9.837c-0.012 0.862 0.604 1.56 1.466 1.56h5.928c0.862 0 1.561-0.698 1.561-1.561v-13.862c0 0 0.296 0.26 0.662 0.581s1.131 0.064 1.711-0.575l0.407-0.447z"></path>
</svg>
