<!-- Generated by IcoMoon.io -->
<svg version="1.1" xmlns="http://www.w3.org/2000/svg" width="32" height="32" viewBox="0 0 32 32">
<title>house</title>
<path d="M14.542 28.852l-1.101-4.85c-0.006-0.028-0.015-0.056-0.025-0.083-0.219-0.582-0.48-1.154-0.777-1.701-0.005-0.009-0.009-0.017-0.015-0.025l-4.527-7.501c-0.28-0.537-0.75-0.935-1.326-1.123-0.439-0.143-0.9-0.152-1.334-0.030l-0.85-7.213c-0.149-1.26-1.295-2.165-2.555-2.016s-2.165 1.295-2.016 2.555c0 0.002 0.001 0.005 0.001 0.007l0.886 6.878c0.224 1.737 0.787 3.384 1.673 4.895l4.398 7.5c0.005 0.008 0.010 0.016 0.015 0.024 0.245 0.379 0.428 0.793 0.543 1.23l0.697 2.645c0.277 1.052 1.272 1.679 2.663 1.679h1.464c0.627 0 1.233-0.262 1.662-0.72 0.425-0.454 0.637-1.042 0.598-1.656-0.010-0.161-0.035-0.327-0.072-0.493zM13.086 30.13c-0.189 0.202-0.456 0.317-0.732 0.317h-1.464c-0.462 0-1.263-0.095-1.43-0.729l-0.697-2.645c-0.148-0.563-0.383-1.096-0.697-1.585l-4.392-7.488c-0.799-1.362-1.306-2.847-1.508-4.413l-0.886-6.874c-0.064-0.561 0.339-1.070 0.9-1.136s1.073 0.337 1.139 0.899l0.928 7.878c-0.487 0.646-0.617 1.528-0.269 2.315 0.017 0.038 0.068 0.14 0.076 0.153l1.819 3.016c0.12 0.198 0.33 0.308 0.546 0.308 0.112 0 0.226-0.030 0.329-0.092 0.301-0.182 0.398-0.574 0.217-0.875l-1.805-2.994c-0.005-0.011-0.010-0.022-0.015-0.032-0.216-0.488-0.019-1.057 0.446-1.312 0.244-0.124 0.522-0.145 0.783-0.060s0.472 0.267 0.597 0.511c0.007 0.014 0.015 0.028 0.023 0.041l4.531 7.507c0.259 0.479 0.489 0.98 0.682 1.489l1.091 4.806c0.023 0.1 0.037 0.199 0.043 0.294 0.017 0.259-0.074 0.508-0.255 0.702z"></path>
<path d="M7.775 20.52c-0.182-0.302-0.574-0.399-0.875-0.217s-0.398 0.574-0.217 0.875l0.404 0.67c0.12 0.198 0.33 0.308 0.546 0.308 0.112 0 0.226-0.030 0.329-0.092 0.301-0.182 0.398-0.574 0.217-0.875l-0.404-0.67z"></path>
<path d="M29.968 4.31c-1.26-0.148-2.406 0.756-2.555 2.016l-0.85 7.213c-1.027-0.287-2.15 0.174-2.66 1.153l-4.528 7.501c-0.005 0.008-0.010 0.017-0.015 0.025-0.297 0.547-0.558 1.119-0.777 1.701-0.010 0.027-0.019 0.055-0.025 0.083l-1.101 4.85c-0.031 0.136-0.053 0.273-0.065 0.408-0.058 0.626 0.152 1.253 0.577 1.72 0.429 0.471 1.040 0.741 1.677 0.741h1.462c1.39 0 2.386-0.628 2.663-1.679l0.697-2.645c0.115-0.437 0.298-0.851 0.543-1.23 0.005-0.008 0.010-0.016 0.015-0.024l4.398-7.5c0.886-1.511 1.449-3.158 1.673-4.895l0.886-6.878c0-0.002 0.001-0.005 0.001-0.007 0.148-1.26-0.756-2.406-2.016-2.555zM30.718 6.712l-0.886 6.874c-0.202 1.566-0.709 3.051-1.508 4.413l-4.392 7.488c-0.315 0.489-0.549 1.023-0.697 1.585l-0.697 2.645c-0.167 0.635-0.968 0.729-1.43 0.729h-1.462c-0.283 0-0.544-0.115-0.735-0.325-0.187-0.205-0.276-0.469-0.25-0.743 0.007-0.080 0.021-0.163 0.039-0.245l1.092-4.807c0.193-0.509 0.423-1.010 0.682-1.489l4.531-7.507c0.008-0.013 0.016-0.027 0.023-0.041 0.124-0.244 0.336-0.426 0.597-0.511s0.538-0.064 0.783 0.060c0.465 0.255 0.662 0.824 0.446 1.312-0.005 0.011-0.010 0.022-0.015 0.033l-1.805 2.994c-0.182 0.301-0.085 0.693 0.217 0.875 0.103 0.062 0.216 0.092 0.329 0.092 0.216 0 0.427-0.11 0.547-0.308l1.819-3.016c0.008-0.013 0.015-0.027 0.022-0.040 0.019-0.037 0.037-0.075 0.054-0.113 0.348-0.787 0.219-1.669-0.269-2.315l0.928-7.878c0.066-0.562 0.578-0.965 1.139-0.899s0.964 0.575 0.9 1.136z"></path>
<path d="M25.1 20.303c-0.302-0.182-0.693-0.085-0.875 0.217l-0.404 0.67c-0.182 0.301-0.085 0.693 0.217 0.875 0.103 0.062 0.216 0.092 0.329 0.092 0.216 0 0.427-0.11 0.546-0.308l0.404-0.67c0.182-0.302 0.085-0.693-0.217-0.875z"></path>
<path d="M9.282 6.795l0.502-0.379v7.973c0 0.352 0.285 0.637 0.637 0.637h11.159c0.352 0 0.637-0.285 0.637-0.637v-7.973l0.502 0.379c0.115 0.087 0.25 0.129 0.384 0.129 0.193 0 0.384-0.087 0.509-0.253 0.212-0.281 0.157-0.681-0.124-0.893l-7.103-5.37c-0.227-0.172-0.541-0.172-0.769 0l-7.103 5.371c-0.281 0.212-0.336 0.612-0.124 0.893s0.612 0.336 0.893 0.124zM17.245 13.75h-2.49v-4.607h2.49v4.607zM11.058 5.451l4.942-3.737 4.942 3.737v8.299h-2.422v-5.245c0-0.352-0.285-0.637-0.637-0.637h-3.764c-0.352 0-0.637 0.285-0.637 0.637v5.245h-2.422v-8.299z"></path>
</svg>
