<!-- Generated by IcoMoon.io -->
<svg version="1.1" xmlns="http://www.w3.org/2000/svg" width="32" height="32" viewBox="0 0 32 32">
<title>id-card</title>
<path d="M29.82 8h-9.457c0-2.407-1.957-4.364-4.364-4.364s-4.364 1.957-4.364 4.364h-9.457c-1.202 0-2.18 0.978-2.18 2.18v16.004c0 1.201 0.977 2.18 2.18 2.18h27.641c1.202 0 2.18-0.978 2.18-2.18v-16.004c0-1.201-0.977-2.18-2.18-2.18zM16 5.091c1.604 0 2.909 1.305 2.909 2.909h-5.818c0-1.604 1.305-2.909 2.909-2.909zM30.545 26.184c0 0.4-0.325 0.725-0.725 0.725h-27.641c-0.4 0-0.725-0.325-0.725-0.725v-16.004c0-0.4 0.325-0.725 0.725-0.725h27.642c0.399 0 0.724 0.325 0.724 0.725v16.004z"></path>
<path d="M9.455 11.636c-3.609 0-6.545 2.936-6.545 6.545s2.937 6.545 6.545 6.545 6.545-2.936 6.545-6.545-2.937-6.545-6.545-6.545zM9.455 23.273c-2.807 0-5.091-2.284-5.091-5.091s2.284-5.091 5.091-5.091 5.091 2.284 5.091 5.091-2.284 5.091-5.091 5.091z"></path>
<path d="M11.636 17.091h-1.091v-1.091c0-0.603-0.488-1.091-1.091-1.091s-1.091 0.488-1.091 1.091v1.091h-1.091c-0.603 0-1.091 0.488-1.091 1.091s0.488 1.091 1.091 1.091h1.091v1.091c0 0.603 0.488 1.091 1.091 1.091s1.091-0.488 1.091-1.091v-1.091h1.091c0.603 0 1.091-0.488 1.091-1.091s-0.488-1.091-1.091-1.091z"></path>
<path d="M28.364 13.091h-9.455c-0.401 0-0.727 0.325-0.727 0.727s0.326 0.727 0.727 0.727h9.455c0.401 0 0.727-0.325 0.727-0.727s-0.326-0.727-0.727-0.727z"></path>
<path d="M21.091 16h-2.182c-0.401 0-0.727 0.325-0.727 0.727s0.326 0.727 0.727 0.727h2.182c0.401 0 0.727-0.325 0.727-0.727s-0.326-0.727-0.727-0.727z"></path>
<path d="M28.364 16h-4.364c-0.401 0-0.727 0.325-0.727 0.727s0.326 0.727 0.727 0.727h4.364c0.401 0 0.727-0.325 0.727-0.727s-0.326-0.727-0.727-0.727z"></path>
<path d="M28.364 18.909h-9.455c-0.401 0-0.727 0.325-0.727 0.727s0.326 0.727 0.727 0.727h9.455c0.401 0 0.727-0.325 0.727-0.727s-0.326-0.727-0.727-0.727z"></path>
<path d="M26.909 21.818h-8c-0.401 0-0.727 0.325-0.727 0.727s0.326 0.727 0.727 0.727h8c0.401 0 0.727-0.325 0.727-0.727s-0.326-0.727-0.727-0.727z"></path>
<path d="M16.727 6.545c0 0.402-0.326 0.727-0.727 0.727s-0.727-0.326-0.727-0.727c0-0.402 0.326-0.727 0.727-0.727s0.727 0.326 0.727 0.727z"></path>
</svg>
