<!-- Generated by IcoMoon.io -->
<svg version="1.1" xmlns="http://www.w3.org/2000/svg" width="32" height="32" viewBox="0 0 32 32">
<title>image2vector-6</title>
<path d="M11.499 0.079c-2.835 0.417-3.882 1.825-3.882 5.219v1.228l-0.144-0.021c-0.499-0.073-0.529 0.972-0.068 2.333 0.292 0.86 0.499 1.172 0.78 1.172 0.106 0 0.116 0.020 0.116 0.241 0 1.34 0.595 2.767 1.473 3.53l0.291 0.254-0.064 2.494 0.334 0.236c1.495 1.055 3.046 1.043 4.415-0.034l0.273-0.215 0.032-0.848c0.018-0.466 0.032-1.061 0.032-1.322 0-0.471 0.001-0.475 0.148-0.584 0.756-0.559 1.29-1.829 1.441-3.422 0.027-0.286 0.044-0.33 0.128-0.33 0.436 0 0.985-1.397 1.095-2.786 0.040-0.512-0.067-0.705-0.388-0.696l-0.177 0.005v-1.212c0-3.238-0.883-4.598-3.345-5.152-0.333-0.075-2.147-0.141-2.49-0.090zM19.443 16.117c-2.707 0.352-4.285 3.36-3.058 5.831 1.556 3.133 6.14 2.943 7.414-0.306 1.138-2.904-1.247-5.929-4.356-5.525zM8.032 17.241c-0.242 0.137-1.263 0.7-2.271 1.251-4.094 2.24-5.055 2.791-5.317 3.049-0.334 0.328-0.344 0.389-0.346 1.982l-0.001 1.428h5.859c3.223 0 5.859-0.012 5.859-0.026s-0.216-0.349-0.48-0.745c-1.31-1.963-2.016-3.678-2.496-6.066-0.266-1.322-0.18-1.23-0.808-0.874zM20.869 17.322c0.015 0.074 0.025 0.447 0.023 0.83l-0.004 0.696h-1.699v-1.66h1.652l0.027 0.134zM21.729 19.849v0.269h-0.83v2.148h0.36c0.393 0 0.418 0.021 0.42 0.354l0.001 0.134h-3.369v-0.485l0.903-0.028 0.013-1.062 0.013-1.062h-0.881v-0.537h3.369v0.269zM14.739 22.278c-0.291 0.582-0.676 1.252-1.013 1.759-0.299 0.45-0.543 0.84-0.543 0.867 0 0.031 1.15 0.048 3.231 0.048 1.777 0 3.221-0.010 3.208-0.022s-0.186-0.048-0.387-0.078c-1.687-0.26-2.909-1.207-3.661-2.841-0.17-0.369-0.322-0.671-0.338-0.671s-0.239 0.423-0.498 0.94zM24.318 22.175c-0.406 0.829-0.963 1.472-1.678 1.935-0.628 0.407-1.036 0.557-2.132 0.784-0.149 0.031 0.527 0.047 2.093 0.051l2.312 0.006-0.021-0.94c-0.020-0.928-0.197-2.332-0.293-2.332-0.021 0-0.148 0.223-0.282 0.495z"></path>
</svg>
