<!-- Generated by IcoMoon.io -->
<svg version="1.1" xmlns="http://www.w3.org/2000/svg" width="26" height="32" viewBox="0 0 26 32">
<title>image2vector-5</title>
<path d="M7.074 0.099c-0.562 0.266-0.818 0.649-0.844 1.26l-0.015 0.342h-1.231c-1.375 0-1.377 0-1.455 0.281-0.026 0.094-0.043 0.79-0.043 1.781l-0 1.627-3.285 0.024-0.2 0.233v15.63l0.148 0.18c0.082 0.099 0.292 0.327 0.467 0.506 0.8 0.818 0.98 1.006 1.584 1.646 0.354 0.375 0.813 0.853 1.021 1.062s0.448 0.466 0.534 0.571c0.326 0.397-0.373 0.358 6.301 0.358 4.217 0 5.903-0.013 5.976-0.046 0.175-0.080 0.193-0.191 0.193-1.18v-0.932h4.319l0.204-0.204v-21.334l-0.204-0.204h-9.7l-0.026-0.306c-0.049-0.576-0.434-1.127-0.912-1.306-0.383-0.143-2.521-0.136-2.829 0.010zM9.616 0.954c0.193 0.117 0.3 0.314 0.3 0.55l0 0.197h-2.863l0.001-0.156c0.002-0.264 0.136-0.499 0.34-0.592 0.273-0.124 2.018-0.124 2.222 0zM6.224 3.983v1.411h-1.867v-2.821h1.867v1.411zM19.916 12.572v9.999h-3.693v-8.421c0-6.197-0.012-8.448-0.047-8.524-0.106-0.233-0.096-0.232-3.397-0.232h-3.028v-1.076c0-1.28-0.008-1.305-0.415-1.305s-0.415 0.025-0.415 1.305v1.076h-1.867v-2.821h12.862v9.999zM6.224 7.26v0.953l-3.327 0.024-0.1 0.116c-0.152 0.177-0.142 0.491 0.021 0.654l0.121 0.121h3.316l0.091 0.223c0.115 0.285 0.286 0.468 0.624 0.671l0.27 0.162 1.341 0.030 0.276-0.128c0.341-0.158 0.679-0.487 0.773-0.751l0.066-0.187 3.787-0.041 0.112-0.112c0.164-0.164 0.166-0.482 0.003-0.644l-0.115-0.115-3.732-0.024v-1.905h5.56v18.422h-10.539v-3.865l-0.243-0.243h-3.699v-14.314h5.394v0.953zM8.921 7.261v0.954h-1.867v-1.909h1.867v0.954zM8.547 9.211c-0.253 0.139-1.245 0.091-1.245-0.060 0-0.013 0.313-0.022 0.695-0.021l0.695 0.002-0.145 0.079zM2.825 11.808c-0.174 0.146-0.187 0.5-0.026 0.662l0.102 0.102h5.286c5.208 0 5.288-0.001 5.391-0.082 0.211-0.166 0.179-0.607-0.053-0.728-0.103-0.053-0.808-0.062-5.346-0.062h-5.227l-0.128 0.107zM2.799 15.288c-0.146 0.146-0.146 0.502-0 0.66l0.102 0.11h5.283c5.84 0 5.413 0.021 5.508-0.267 0.034-0.104 0.035-0.188 0.002-0.31-0.086-0.32 0.381-0.295-5.51-0.295h-5.283l-0.102 0.102zM2.961 18.658c-0.287 0.057-0.364 0.552-0.121 0.781l0.153 0.145h10.355l0.141-0.095c0.268-0.18 0.31-0.482 0.101-0.724l-0.098-0.114-5.221-0.005c-2.872-0.003-5.261 0.003-5.31 0.013zM3.899 22.789l-0.001 1.297-0.13-0.145c-0.125-0.14-0.735-0.778-1.568-1.639-0.221-0.228-0.482-0.504-0.58-0.612l-0.179-0.197h2.459l-0.001 1.297z"></path>
</svg>
