<!-- Generated by IcoMoon.io -->
<svg version="1.1" xmlns="http://www.w3.org/2000/svg" width="32" height="32" viewBox="0 0 32 32">
<title>image2vector-3</title>
<path fill="#2e375a" d="M2.842 9.657c-2.195 0.531-3.17 3.207-1.845 5.064 1.41 1.975 4.477 1.728 5.555-0.448 1.229-2.481-1.012-5.269-3.71-4.617zM12.544 9.655c-2.44 0.639-3.277 3.663-1.51 5.454 2.031 2.060 5.559 0.611 5.554-2.282-0.003-2.123-2.018-3.703-4.044-3.173zM21.175 9.656c-2.431 0.588-3.285 3.668-1.513 5.452 2.052 2.066 5.561 0.605 5.547-2.309-0.010-2.108-1.978-3.641-4.034-3.144z"></path>
</svg>
