<!-- Generated by IcoMoon.io -->
<svg version="1.1" xmlns="http://www.w3.org/2000/svg" width="32" height="32" viewBox="0 0 32 32">
<title>image2vector-2</title>
<path fill="#2e375a" d="M12.464 0.251c0.024 0.039-0.066 0.059-0.288 0.065-0.178 0.004-0.381 0.015-0.451 0.024s-0.21 0.025-0.309 0.036c-0.1 0.011-0.227 0.044-0.283 0.074s-0.191 0.071-0.3 0.091c-0.217 0.041-0.958 0.329-1.284 0.499-0.113 0.059-0.222 0.103-0.243 0.097s-0.038 0.010-0.038 0.035c0 0.025-0.072 0.075-0.16 0.111s-0.23 0.13-0.316 0.209c-0.086 0.078-0.178 0.128-0.206 0.111s-0.034-0.005-0.014 0.028c0.020 0.032 0.013 0.059-0.015 0.059-0.067 0-1.030 0.949-1.030 1.014 0 0.027-0.066 0.121-0.147 0.207s-0.135 0.17-0.119 0.185c0.015 0.015 0 0.027-0.032 0.027s-0.055 0.017-0.048 0.038c0.011 0.037-0.359 0.728-0.418 0.781-0.016 0.014-0.030 0.049-0.032 0.077-0.006 0.109-0.087 0.333-0.12 0.333-0.019 0-0.038 0.040-0.042 0.090s-0.035 0.159-0.069 0.243c-0.034 0.084-0.068 0.188-0.076 0.23s-0.060 0.284-0.118 0.538c-0.169 0.743-0.289 2.164-0.196 2.316 0.017 0.028 0.022 0.123 0.011 0.212s-0.002 0.15 0.021 0.136c0.034-0.021 0.083 0.168 0.133 0.511 0.004 0.028 0.024 0.090 0.045 0.138s0.021 0.115-0 0.149c-0.026 0.042-0.016 0.048 0.030 0.020 0.048-0.030 0.059-0.019 0.037 0.037-0.017 0.043-0.012 0.099 0.011 0.124s0.093 0.206 0.156 0.403 0.16 0.459 0.215 0.582c0.055 0.123 0.108 0.264 0.117 0.313s0.077 0.208 0.15 0.352c0.073 0.144 0.115 0.263 0.094 0.263s-0.015 0.018 0.014 0.038c0.067 0.047 0.382 0.754 0.382 0.857 0 0.042 0.020 0.076 0.045 0.076 0.049 0 0.192 0.309 0.172 0.371-0.007 0.021 0.009 0.038 0.036 0.038 0.056 0 0.132 0.201 0.112 0.3-0.007 0.038 0.008 0.056 0.034 0.040s0.074 0.029 0.106 0.101c0.040 0.088 0.041 0.119 0.004 0.095-0.030-0.019-0.025 0.014 0.012 0.074s0.080 0.108 0.095 0.108c0.015 0 0.154 0.259 0.308 0.576s0.294 0.588 0.311 0.602c0.057 0.047 0.633 1.151 0.621 1.19-0.007 0.021 0.006 0.038 0.029 0.038s0.12 0.156 0.218 0.346c0.097 0.19 0.2 0.362 0.228 0.383s0.032 0.038 0.009 0.038c-0.023 0-0.006 0.037 0.038 0.081s0.080 0.111 0.080 0.149c0 0.038 0.019 0.077 0.042 0.086 0.060 0.024 1.101 1.795 1.101 1.872 0 0.036 0.011 0.053 0.025 0.039 0.029-0.029 0.367 0.516 0.367 0.591 0 0.027 0.017 0.049 0.038 0.049s0.095 0.109 0.165 0.243c0.070 0.134 0.139 0.255 0.155 0.269 0.073 0.067 0.461 0.706 0.461 0.759 0 0.033 0.019 0.060 0.043 0.060s0.121 0.138 0.218 0.306c0.217 0.379 0.171 0.395 0.524-0.18 0.164-0.267 0.321-0.485 0.349-0.485s0.038-0.021 0.022-0.047c-0.016-0.026 0.006-0.082 0.048-0.124s0.077-0.090 0.077-0.105c0-0.066 0.473-0.799 0.516-0.799 0.026 0 0.042-0.017 0.036-0.038-0.016-0.052 0.215-0.503 0.315-0.616 0.044-0.050 0.15-0.224 0.234-0.386s0.194-0.34 0.244-0.395c0.050-0.054 0.090-0.117 0.089-0.138s0.056-0.128 0.127-0.236c0.071-0.108 0.129-0.218 0.129-0.243s0.023-0.047 0.051-0.047 0.046-0.017 0.039-0.038c-0.015-0.049 0.734-1.364 0.79-1.387 0.023-0.009 0.029-0.038 0.012-0.064s0.007-0.061 0.051-0.078 0.080-0.074 0.080-0.128c0-0.053 0.023-0.097 0.051-0.097s0.051-0.033 0.051-0.074c0-0.041 0.081-0.212 0.179-0.38s0.179-0.331 0.179-0.361 0.023-0.055 0.051-0.055c0.028 0 0.051-0.035 0.051-0.077s0.027-0.077 0.060-0.077c0.033 0 0.045-0.014 0.028-0.032-0.041-0.041 0.158-0.433 0.266-0.522 0.045-0.037 0.058-0.056 0.029-0.042s0.191-0.468 0.49-1.071c0.299-0.603 0.537-1.097 0.53-1.097-0.011 0 0.265-0.649 0.479-1.126 0.094-0.209 0.1-0.229 0.109-0.336 0.004-0.047 0.031-0.065 0.066-0.043s0.045 0.014 0.026-0.017c-0.036-0.058 0.12-0.54 0.184-0.568 0.021-0.009 0.026-0.038 0.010-0.063s-0-0.098 0.034-0.162c0.035-0.064 0.068-0.162 0.074-0.219s0.063-0.333 0.126-0.614c0.16-0.712 0.133-1.648-0.075-2.665-0.035-0.17-0.058-0.349-0.051-0.397s-0.008-0.087-0.034-0.087-0.043-0.017-0.038-0.038c0.005-0.021-0.018-0.103-0.051-0.183s-0.059-0.165-0.059-0.191c0-0.026-0.090-0.255-0.199-0.509s-0.187-0.462-0.173-0.462c0.014 0-0.034-0.079-0.108-0.176s-0.134-0.19-0.134-0.207-0.092-0.156-0.205-0.308c-0.113-0.152-0.205-0.289-0.205-0.303s-0.052-0.079-0.115-0.145c-0.063-0.066-0.219-0.234-0.346-0.374s-0.288-0.291-0.358-0.337c-0.070-0.046-0.188-0.138-0.262-0.205-0.165-0.149-0.213-0.18-0.788-0.507-0.48-0.273-0.803-0.405-1.347-0.553-0.178-0.048-0.308-0.103-0.289-0.122s-0.012-0.022-0.067-0.008c-0.056 0.015-0.176-0.012-0.267-0.059-0.103-0.053-0.15-0.062-0.126-0.022 0.025 0.041 0.018 0.050-0.020 0.027-0.059-0.036-0.124-0.043-1.006-0.107-0.253-0.019-0.504-0.046-0.557-0.061-0.062-0.017-0.084-0.007-0.061 0.030zM13.235 4.823c0.141 0.030 0.28 0.073 0.309 0.096s0.112 0.052 0.185 0.066c0.151 0.027 0.351 0.141 0.351 0.199 0 0.021 0.032 0.039 0.071 0.039 0.14 0 0.9 0.92 0.763 0.922-0.022 0-0.012 0.019 0.023 0.041s0.070 0.085 0.078 0.14c0.009 0.055 0.035 0.131 0.059 0.17 0.178 0.285-0.020 1.748-0.237 1.748-0.025 0-0.033 0.021-0.017 0.046 0.045 0.074-0.345 0.533-0.632 0.743-1.277 0.937-3.228 0.289-3.613-1.199-0.004-0.014-0.034-0.106-0.068-0.205-0.126-0.367 0.048-1.601 0.211-1.5 0.028 0.017 0.034 0.005 0.014-0.028-0.133-0.216 0.924-1.149 1.371-1.209 0.060-0.008 0.143-0.028 0.185-0.044 0.239-0.092 0.59-0.101 0.947-0.025zM9.114 16.906c-0.127 0.023-0.316 0.034-0.421 0.024s-0.178 0.001-0.164 0.025c0.015 0.024-0.027 0.044-0.091 0.046-0.353 0.009-0.502 0.027-0.502 0.062 0 0.021-0.017 0.034-0.038 0.028s-0.119 0.005-0.218 0.024c-0.371 0.071-0.54 0.102-0.615 0.11-0.043 0.005-0.1 0.021-0.128 0.035s-0.102 0.022-0.164 0.017c-0.065-0.005-0.1 0.013-0.082 0.043 0.020 0.032-0.020 0.042-0.102 0.026-0.074-0.014-0.122-0.006-0.107 0.018s-0.028 0.044-0.096 0.044-0.196 0.036-0.284 0.080c-0.088 0.044-0.184 0.066-0.213 0.048s-0.052-0.009-0.052 0.018-0.069 0.065-0.154 0.084c-0.085 0.019-0.224 0.069-0.309 0.111s-0.183 0.082-0.217 0.087c-0.252 0.037-1.579 0.91-1.731 1.139-0.039 0.059-0.157 0.235-0.261 0.39s-0.205 0.343-0.223 0.417c-0.019 0.077-0.057 0.12-0.088 0.101-0.034-0.021-0.042-0.001-0.021 0.055 0.019 0.049-0.002 0.159-0.047 0.244-0.048 0.093-0.056 0.141-0.020 0.119 0.043-0.027 0.048-0.010 0.017 0.058-0.159 0.351 0.094 1.308 0.503 1.899 0.093 0.135 0.164 0.262 0.157 0.283s0.005 0.033 0.026 0.026c0.021-0.007 0.146 0.095 0.277 0.227s0.378 0.342 0.548 0.467c0.17 0.125 0.293 0.244 0.274 0.264s-0.012 0.028 0.018 0.019c0.046-0.015 0.188 0.055 0.637 0.311 0.042 0.024 0.198 0.096 0.346 0.161s0.269 0.136 0.269 0.159c0 0.023 0.059 0.042 0.131 0.042 0.087 0 0.119 0.020 0.094 0.060s-0.009 0.049 0.048 0.027c0.047-0.018 0.085-0.008 0.085 0.021s0.029 0.044 0.064 0.031c0.035-0.013 0.15 0.021 0.256 0.074s0.192 0.084 0.192 0.068c0-0.016 0.052-0 0.115 0.034s0.167 0.068 0.23 0.075c0.099 0.011 0.243 0.052 0.577 0.162 0.042 0.014 0.111 0.030 0.154 0.036 0.156 0.021 0.439 0.092 0.563 0.143 0.070 0.028 0.186 0.058 0.256 0.067 0.498 0.058 0.634 0.080 0.681 0.109 0.029 0.018 0.113 0.037 0.185 0.042 0.339 0.022 0.908 0.086 0.977 0.11 0.104 0.036 0.731 0.078 1.066 0.072 0.15-0.003 0.261 0.013 0.248 0.034s0.432 0.039 0.99 0.039 1.006-0.014 0.996-0.030c-0.010-0.017 0.067-0.032 0.171-0.035 0.766-0.021 1.399-0.080 2.084-0.192 0.282-0.046 0.581-0.093 0.666-0.105 0.274-0.039 0.407-0.065 0.563-0.113 0.084-0.025 0.205-0.042 0.269-0.037s0.115-0.013 0.115-0.039c0-0.026 0.033-0.035 0.073-0.020s0.081 0.011 0.090-0.009c0.024-0.055 0.654-0.22 0.71-0.185 0.026 0.016 0.048 0.008 0.048-0.019 0-0.046 0.131-0.093 0.408-0.145 0.070-0.013 0.15-0.043 0.179-0.067 0.064-0.053 0.708-0.313 0.744-0.3 0.014 0.005 0.118-0.049 0.23-0.12s0.259-0.146 0.326-0.168c0.066-0.021 0.165-0.076 0.219-0.123s0.113-0.077 0.13-0.067c0.017 0.009 0.045-0.002 0.062-0.026 0.040-0.054 0.351-0.273 0.388-0.273 0.034 0 0.114-0.070 0.565-0.498 0.197-0.187 0.381-0.334 0.41-0.326s0.035-0.003 0.015-0.023c-0.035-0.035 0.236-0.476 0.332-0.541 0.025-0.017 0.047-0.052 0.048-0.077s0.026-0.103 0.055-0.174c0.029-0.070 0.058-0.145 0.064-0.166s0.015-0.044 0.021-0.051c0.006-0.007 0.016-0.059 0.023-0.115s0.032-0.195 0.055-0.307c0.116-0.556-0.068-1.362-0.41-1.792-0.089-0.113-0.172-0.23-0.183-0.261-0.022-0.060-0.463-0.426-0.763-0.634-0.099-0.068-0.196-0.148-0.217-0.178s-0.038-0.034-0.038-0.009c-0 0.025-0.033 0.018-0.072-0.015-0.064-0.053-0.685-0.375-0.748-0.387-0.108-0.022-0.748-0.253-0.768-0.277-0.014-0.017-0.083-0.039-0.154-0.049s-0.153-0.038-0.184-0.064c-0.031-0.025-0.070-0.031-0.088-0.013s-0.064 0.006-0.102-0.026c-0.038-0.032-0.080-0.048-0.093-0.035s-0.149-0.010-0.302-0.051c-0.354-0.094-1.307-0.266-1.725-0.31-0.175-0.019-0.308-0.051-0.295-0.072 0.041-0.067-0.457 0.010-0.542 0.083-0.044 0.039-0.109 0.070-0.144 0.070s-0.050 0.022-0.033 0.048c0.016 0.026-0.011 0.072-0.061 0.101s-0.079 0.054-0.065 0.056 0.175 0.015 0.358 0.029c0.183 0.014 0.413 0.049 0.512 0.078s0.283 0.064 0.41 0.078c0.127 0.014 0.265 0.039 0.307 0.056s0.12 0.026 0.172 0.019c0.064-0.008 0.082 0.009 0.056 0.051-0.025 0.040-0.018 0.050 0.018 0.028 0.054-0.033 0.641 0.094 0.752 0.164 0.028 0.018 0.098 0.040 0.154 0.048 0.27 0.042 1.338 0.529 1.508 0.688 0.057 0.053 0.104 0.085 0.104 0.070 0-0.043 0.205 0.13 0.473 0.397 0.135 0.135 0.234 0.265 0.22 0.289s0.010 0.057 0.055 0.074c0.048 0.018 0.069 0.064 0.051 0.11-0.020 0.051-0.010 0.066 0.028 0.043 0.040-0.025 0.049-0.001 0.030 0.074-0.017 0.065-0.008 0.098 0.021 0.080 0.125-0.077 0.011 0.782-0.137 1.035-0.399 0.681-1.817 1.629-2.669 1.783-0.062 0.011-0.157 0.044-0.211 0.073s-0.154 0.065-0.222 0.080c-0.068 0.015-0.286 0.072-0.486 0.128-0.481 0.135-1.564 0.35-1.916 0.381-0.155 0.013-0.5 0.048-0.768 0.077s-0.671 0.055-0.896 0.057c-0.225 0.003-0.478 0.014-0.561 0.025s-0.174 0.006-0.202-0.011c-0.066-0.041-0.303-0.041-0.368 0-0.028 0.017-0.119 0.021-0.202 0.009s-0.416-0.032-0.74-0.043c-0.747-0.026-1.328-0.073-1.459-0.118-0.056-0.019-0.143-0.029-0.192-0.021s-0.090-0.006-0.090-0.029c0-0.023-0.075-0.039-0.166-0.035-0.361 0.016-2.52-0.519-2.597-0.644-0.015-0.023-0.159-0.081-0.321-0.128s-0.294-0.111-0.294-0.142c0-0.031-0.014-0.042-0.032-0.024-0.041 0.041-0.574-0.228-0.767-0.387-0.082-0.067-0.189-0.137-0.238-0.155s-0.090-0.056-0.090-0.085c0-0.029-0.030-0.053-0.066-0.053-0.147 0-0.733-0.724-0.672-0.83 0.021-0.036 0.019-0.049-0.005-0.027-0.062 0.056-0.177-0.308-0.178-0.561-0.001-0.201 0.027-0.302 0.171-0.63 0.083-0.189 0.442-0.614 0.519-0.614 0.037 0 0.080-0.035 0.096-0.077s0.065-0.077 0.108-0.077 0.078-0.021 0.078-0.046c0-0.041 0.928-0.549 0.96-0.526 0.050 0.035 0.217-0.001 0.192-0.042-0.030-0.048 0.073-0.074 0.218-0.055 0.035 0.005 0.064-0.018 0.064-0.051s0.035-0.046 0.077-0.029c0.042 0.016 0.077 0.006 0.077-0.023s0.021-0.039 0.048-0.023c0.026 0.016 0.063 0.004 0.082-0.026s0.067-0.043 0.106-0.028c0.039 0.015 0.072 0.001 0.072-0.031s0.013-0.045 0.028-0.030c0.016 0.016 0.133-0.003 0.262-0.042s0.252-0.059 0.275-0.045c0.022 0.014 0.049 0.003 0.058-0.023 0.020-0.056 0.65-0.167 0.716-0.127 0.024 0.015 0.044 0.004 0.044-0.023s0.156-0.068 0.346-0.090c0.19-0.022 0.363-0.044 0.384-0.049s0.097-0.012 0.169-0.015c0.156-0.008 0.135-0.053-0.119-0.249-0.174-0.134-0.213-0.144-0.422-0.106z"></path>
</svg>
