<!-- Generated by IcoMoon.io -->
<svg version="1.1" xmlns="http://www.w3.org/2000/svg" width="32" height="32" viewBox="0 0 32 32">
<title>image2vector-1</title>
<path fill="#2e375a" d="M12.675 0.609c-0.016 0.025-0.105 0.046-0.199 0.046-0.221 0-0.808 0.165-0.776 0.217 0.014 0.022-0.044 0.056-0.129 0.075s-0.141 0.055-0.125 0.081c0.016 0.026-0.003 0.047-0.042 0.047-0.205 0-0.856 0.838-0.856 1.101 0 0.075-0.022 0.12-0.051 0.102s-0.038 0.003-0.020 0.048c0.017 0.044 0.009 0.079-0.017 0.079-0.060 0-0.072 1.117-0.012 1.153 0.024 0.015 0.034 0.072 0.023 0.128s0.002 0.101 0.029 0.101 0.048 0.058 0.048 0.128c0 0.070 0.023 0.128 0.051 0.128s0.051 0.035 0.051 0.077c0 0.042 0.023 0.077 0.051 0.077s0.051 0.031 0.051 0.068c0 0.037 0.057 0.121 0.126 0.187s0.114 0.138 0.099 0.162c-0.015 0.024-0.005 0.044 0.021 0.044s0.143 0.090 0.259 0.199c0.22 0.207 0.498 0.364 0.644 0.364 0.047 0 0.071 0.023 0.053 0.051-0.019 0.030 0.042 0.051 0.151 0.051 0.1 0 0.182 0.020 0.182 0.044 0 0.075 0.817 0.072 0.91-0.003 0.070-0.056 0.076-0.055 0.039 0.010-0.035 0.062-0.030 0.065 0.026 0.013 0.038-0.035 0.122-0.064 0.188-0.064s0.21-0.058 0.322-0.128c0.112-0.070 0.226-0.128 0.255-0.128s0.052-0.018 0.052-0.040c0-0.022 0.081-0.083 0.18-0.136s0.17-0.106 0.158-0.118c-0.012-0.012 0.069-0.109 0.179-0.216s0.2-0.22 0.2-0.252c0-0.032 0.021-0.057 0.047-0.057s0.062-0.092 0.081-0.205 0.054-0.205 0.078-0.205c0.040 0 0.096-0.125 0.138-0.307 0.049-0.213 0.053-0.87 0.005-0.87-0.029 0-0.041-0.032-0.026-0.071s0-0.1-0.033-0.135c-0.047-0.051-0.043-0.056 0.017-0.024 0.062 0.033 0.065 0.028 0.013-0.028-0.035-0.038-0.064-0.123-0.064-0.19 0-0.068-0.023-0.107-0.051-0.089s-0.051-0.021-0.052-0.087c-0-0.146-0.171-0.415-0.229-0.362-0.024 0.021-0.027 0.012-0.008-0.022 0.020-0.035-0.055-0.143-0.177-0.256-0.117-0.108-0.267-0.246-0.334-0.309s-0.122-0.099-0.122-0.082c0 0.017-0.042-0.007-0.094-0.054s-0.109-0.069-0.128-0.051c-0.019 0.019-0.034 0.010-0.034-0.018 0-0.075-0.512-0.227-0.79-0.234-0.129-0.004-0.234-0.025-0.234-0.048 0-0.055-0.090-0.052-0.125 0.005zM9.958 5.888c-0.017 0.028-0.099 0.051-0.182 0.051s-0.151 0.021-0.151 0.047c0 0.026-0.069 0.062-0.154 0.081s-0.141 0.055-0.125 0.081-0.001 0.047-0.038 0.047c-0.1 0-0.45 0.355-0.45 0.457 0 0.028-0.045 0.133-0.101 0.231-0.094 0.168-0.101 0.283-0.101 1.772 0 1.513 0.005 1.598 0.101 1.7 0.056 0.060 0.101 0.151 0.101 0.203 0 0.103 0.384 0.496 0.495 0.507 0.038 0.004 0.092 0.012 0.12 0.019s0.099 0.016 0.157 0.019c0.058 0.004 0.092 0.029 0.075 0.056-0.020 0.032 1.071 0.050 3.043 0.052 2.199 0.002 3.074-0.014 3.074-0.054 0-0.031 0.029-0.046 0.064-0.034 0.178 0.063 0.858-0.348 0.858-0.519 0-0.040 0.040-0.11 0.090-0.155 0.137-0.127 0.141-0.177 0.141-1.896 0-1.241-0.015-1.613-0.064-1.63-0.035-0.012-0.064-0.054-0.064-0.094s-0.023-0.072-0.051-0.072-0.051-0.042-0.051-0.093c0-0.093-0.306-0.479-0.309-0.39-0.001 0.026-0.025 0.007-0.054-0.042-0.129-0.222-0.44-0.3-1.225-0.307l-0.742-0.007 1.229-0.063-0.682-0.010c-0.635-0.010-0.848 0.023-0.931 0.145-0.121 0.175-0.245 0.337-0.32 0.416-0.049 0.052-0.090 0.118-0.090 0.147s-0.081 0.127-0.179 0.217c-0.099 0.090-0.179 0.183-0.179 0.205 0 0.051-0.044 0.108-0.305 0.395-0.115 0.127-0.203 0.204-0.196 0.173s-0.049-0.117-0.127-0.189-0.141-0.159-0.141-0.193c0-0.034-0.081-0.14-0.179-0.235s-0.179-0.195-0.179-0.22-0.054-0.1-0.12-0.167c-0.066-0.066-0.164-0.188-0.218-0.271-0.176-0.272-0.286-0.375-0.368-0.343-0.052 0.020-0.067 0.010-0.042-0.029 0.028-0.045-0.146-0.060-0.68-0.060-0.423 0-0.73 0.021-0.748 0.051zM10.92 5.926c-0.147 0.010-0.4 0.010-0.563 0s-0.043-0.019 0.267-0.019c0.31-0 0.443 0.008 0.296 0.019zM12.467 12.053c-0.056 0.026-0.172 0.128-0.256 0.226l-0.154 0.179-0.016 1.733c-0.010 1.073-0.034 1.722-0.064 1.703-0.027-0.017-0.061 0.003-0.077 0.044s-0.090 0.087-0.166 0.102-0.184 0.070-0.24 0.122c-0.056 0.052-0.206 0.139-0.333 0.195s-0.261 0.13-0.298 0.166c-0.037 0.036-0.102 0.065-0.144 0.065s-0.062 0.023-0.045 0.051-0.007 0.051-0.054 0.051c-0.047 0-0.196 0.081-0.33 0.179s-0.271 0.179-0.303 0.179c-0.061 0-0.317 0.15-0.363 0.212-0.014 0.020-0.089 0.051-0.166 0.071s-0.127 0.056-0.112 0.081-0.003 0.046-0.042 0.046c-0.218 0-0.45 0.844-0.251 0.91 0.033 0.011 0.059 0.052 0.059 0.092 0 0.295 0.951 0.493 1.124 0.234 0.015-0.023 0.126-0.085 0.245-0.137s0.205-0.106 0.191-0.12c-0.014-0.014 0.122-0.099 0.302-0.188s0.381-0.212 0.446-0.272c0.065-0.060 0.16-0.11 0.211-0.11s0.093-0.023 0.093-0.051c0-0.028 0.047-0.051 0.104-0.051s0.117-0.034 0.133-0.076c0.016-0.042 0.047-0.066 0.068-0.053s0.128-0.044 0.238-0.127c0.11-0.083 0.241-0.151 0.292-0.152s0.080-0.022 0.064-0.047c-0.045-0.073 0.228-0.119 0.309-0.053 0.040 0.033 0.072 0.042 0.072 0.020s0.042 0.008 0.093 0.067 0.155 0.122 0.23 0.141c0.076 0.019 0.138 0.055 0.138 0.080s0.035 0.046 0.077 0.046 0.077 0.021 0.077 0.046 0.058 0.060 0.128 0.078c0.070 0.018 0.128 0.055 0.128 0.082s0.038 0.050 0.085 0.050c0.047 0 0.16 0.058 0.253 0.128s0.192 0.128 0.222 0.128c0.030 0 0.055 0.023 0.055 0.051s0.026 0.051 0.058 0.051c0.032 0 0.141 0.052 0.243 0.115s0.197 0.118 0.211 0.122c0.163 0.046 0.256 0.088 0.256 0.118 0 0.046 0.34 0.208 0.437 0.208 0.041 0 0.075 0.018 0.075 0.040s0.044 0.040 0.099 0.040c0.054 0 0.088-0.018 0.074-0.040s0.051-0.041 0.145-0.042c0.167-0.002 0.4-0.145 0.4-0.246 0-0.029 0.039-0.091 0.087-0.139 0.092-0.092 0.143-0.534 0.061-0.534-0.025 0-0.046-0.041-0.046-0.091s-0.045-0.123-0.1-0.163c-0.055-0.040-0.090-0.087-0.078-0.106s-0.105-0.096-0.259-0.171-0.28-0.162-0.28-0.192c0-0.030-0.035-0.042-0.077-0.026s-0.077 0.010-0.077-0.014-0.102-0.092-0.226-0.15c-0.124-0.059-0.241-0.13-0.259-0.159s-0.134-0.099-0.257-0.155-0.239-0.126-0.256-0.154-0.054-0.039-0.080-0.023c-0.026 0.016-0.048 0.004-0.048-0.027 0-0.069-0.313-0.208-0.379-0.167-0.026 0.016-0.032 0.005-0.013-0.025 0.019-0.031-0.062-0.094-0.193-0.148-0.124-0.051-0.217-0.109-0.205-0.127s-0.025-0.046-0.081-0.060c-0.099-0.026-0.102-0.073-0.102-1.665 0-1.73-0.046-2.058-0.291-2.058-0.037 0-0.067-0.023-0.067-0.051s-0.047-0.051-0.105-0.051c-0.058 0-0.094-0.018-0.080-0.041 0.035-0.056-0.481-0.047-0.608 0.011zM4.441 13.496c-0.009 0.009-0.101 0.021-0.206 0.029s-0.19 0.031-0.19 0.054c0 0.022-0.056 0.041-0.125 0.041s-0.139 0.022-0.156 0.050c-0.017 0.027-0.116 0.089-0.221 0.136s-0.236 0.127-0.292 0.176c-0.323 0.282-0.538 0.529-0.538 0.618 0 0.056-0.021 0.089-0.046 0.073-0.052-0.032-0.21 0.331-0.21 0.481 0 0.054-0.023 0.113-0.051 0.13s-0.051 0.133-0.051 0.256c0 0.123-0.023 0.239-0.051 0.256s-0.051 0.078-0.051 0.134c0 0.056 0.020 0.090 0.044 0.075s0.044 0.012 0.044 0.061c-0.001 0.333 0.020 0.475 0.065 0.447 0.028-0.017 0.051 0.019 0.051 0.082 0 0.142 0.242 0.661 0.308 0.661 0.027 0 0.063 0.059 0.081 0.13s0.045 0.118 0.061 0.103c0.015-0.015 0.070 0.041 0.121 0.126 0.084 0.138 0.149 0.179 0.222 0.141 0.014-0.007 0.061 0.039 0.105 0.102s0.123 0.115 0.175 0.115c0.052 0 0.107 0.035 0.123 0.077 0.017 0.045 0.094 0.077 0.188 0.077 0.096 0 0.145 0.021 0.125 0.053s0.034 0.054 0.138 0.057c1.036 0.021 1.36 0.005 1.406-0.069 0.014-0.022 0.074-0.041 0.133-0.041s0.093-0.015 0.075-0.033c-0.018-0.018 0.059-0.078 0.171-0.133s0.203-0.123 0.203-0.149c0-0.027 0.019-0.037 0.042-0.023s0.107-0.031 0.187-0.099c0.080-0.069 0.128-0.125 0.107-0.125s0.029-0.063 0.112-0.141c0.177-0.166 0.475-0.764 0.475-0.954 0-0.073 0.029-0.134 0.064-0.134 0.043-0 0.038-0.017-0.013-0.050s-0.056-0.050-0.013-0.050c0.045-0 0.064-0.112 0.064-0.385 0-0.211-0.020-0.384-0.045-0.384s-0.061-0.127-0.080-0.282c-0.019-0.155-0.057-0.282-0.083-0.282s-0.048-0.035-0.048-0.077-0.023-0.077-0.051-0.077c-0.028 0-0.051-0.031-0.051-0.069s-0.046-0.11-0.101-0.16c-0.056-0.050-0.087-0.115-0.069-0.144s0.007-0.037-0.023-0.018c-0.030 0.019-0.070-0.012-0.088-0.070s-0.054-0.091-0.080-0.075c-0.026 0.016-0.048 0.009-0.048-0.015s-0.036-0.089-0.081-0.144c-0.044-0.055-0.063-0.065-0.041-0.023s-0.031 0.017-0.117-0.055c-0.087-0.072-0.235-0.163-0.331-0.202s-0.185-0.083-0.199-0.099c-0.072-0.080-0.266-0.163-0.226-0.096 0.033 0.055 0.026 0.056-0.038 0.004-0.068-0.055-0.832-0.129-0.876-0.084zM20.454 13.507c-0.084 0.010-0.175 0.039-0.202 0.065s-0.097 0.047-0.156 0.047-0.131 0.024-0.16 0.052c-0.029 0.029-0.107 0.063-0.173 0.076s-0.134 0.043-0.15 0.067c-0.016 0.024-0.104 0.087-0.196 0.14s-0.166 0.111-0.166 0.129-0.046 0.085-0.102 0.15c-0.056 0.065-0.102 0.1-0.102 0.079 0-0.091-0.418 0.595-0.441 0.724-0.014 0.078-0.050 0.171-0.081 0.207-0.066 0.080-0.074 1.188-0.009 1.235 0.025 0.018 0.053 0.079 0.062 0.135s0.049 0.178 0.087 0.27c0.038 0.092 0.076 0.184 0.083 0.205s0.072 0.104 0.143 0.185 0.124 0.167 0.117 0.192c-0.007 0.025 0.023 0.045 0.067 0.045s0.068 0.020 0.053 0.044c-0.015 0.024 0.051 0.086 0.147 0.138s0.163 0.113 0.149 0.135c-0.014 0.023 0.023 0.041 0.083 0.041s0.094 0.023 0.077 0.051c-0.017 0.028 0.013 0.051 0.068 0.051s0.128 0.035 0.163 0.077c0.035 0.042 0.107 0.077 0.16 0.077s0.096 0.025 0.096 0.055c0 0.030 0.063 0.050 0.141 0.044s0.183 0.007 0.235 0.029c0.202 0.086 1.071-0.016 1.341-0.158 0.442-0.232 0.48-0.257 0.676-0.449 0.106-0.104 0.244-0.239 0.308-0.302 0.105-0.103 0.14-0.195 0.12-0.311-0.004-0.023 0.016-0.028 0.045-0.010 0.046 0.028 0.059 0.002 0.050-0.103-0.001-0.015 0.037-0.101 0.084-0.192 0.167-0.32 0.172-0.336 0.108-0.362-0.047-0.019-0.047-0.026 0.002-0.029 0.079-0.005 0.091-0.8 0.013-0.849-0.028-0.017-0.051-0.11-0.051-0.205s-0.023-0.188-0.052-0.205c-0.029-0.018-0.037-0.056-0.019-0.086s0.013-0.068-0.012-0.086c-0.025-0.018-0.101-0.136-0.17-0.263-0.15-0.275-0.453-0.614-0.548-0.614-0.038 0-0.069-0.023-0.069-0.051s-0.109-0.102-0.243-0.164c-0.134-0.062-0.251-0.131-0.26-0.154s-0.086-0.041-0.169-0.041-0.14-0.019-0.126-0.043c0.014-0.023-0.001-0.045-0.035-0.048-0.24-0.022-0.857-0.036-0.983-0.021zM1.843 18.779c0 0.022-0.058 0.045-0.13 0.051-0.125 0.010-0.431 0.145-0.485 0.212-0.014 0.018-0.090 0.073-0.168 0.123s-0.129 0.113-0.112 0.14-0.005 0.063-0.050 0.080c-0.044 0.017-0.080 0.076-0.080 0.131s-0.023 0.086-0.051 0.068c-0.028-0.017-0.054-0.007-0.058 0.023s-0.012 0.077-0.019 0.105c-0.007 0.028-0.016 0.076-0.019 0.105s-0.029 0.040-0.058 0.023c-0.034-0.021-0.051 0.531-0.051 1.618v1.649l0.128 0.168c0.070 0.092 0.128 0.198 0.128 0.235s0.081 0.122 0.179 0.189 0.179 0.142 0.179 0.166c0 0.024 0.056 0.045 0.125 0.045s0.139 0.023 0.157 0.051c0.021 0.033 1.196 0.051 3.36 0.051 1.941 0 3.316-0.019 3.3-0.046-0.016-0.025 0.035-0.061 0.112-0.080 0.139-0.034 0.422-0.296 0.422-0.389 0-0.026 0.022-0.048 0.049-0.048s0.064-0.080 0.082-0.179c0.018-0.098 0.053-0.167 0.076-0.152s0.045-0.688 0.047-1.562c0.003-1.11-0.013-1.589-0.051-1.589-0.031 0-0.043-0.020-0.028-0.044 0.035-0.056-0.075-0.363-0.175-0.484-0.186-0.229-0.307-0.342-0.364-0.342-0.034 0-0.047-0.016-0.028-0.035 0.050-0.050-0.228-0.221-0.36-0.221-0.062-0-0.126-0.023-0.144-0.052s-0.059-0.051-0.093-0.050c-0.037 0-0.030 0.021 0.016 0.050s0.052 0.050 0.016 0.050c-0.034 0-0.075-0.022-0.093-0.050-0.019-0.030-0.334-0.051-0.772-0.051h-0.74l-0.151 0.166c-0.083 0.092-0.152 0.19-0.153 0.218s-0.059 0.095-0.129 0.148-0.128 0.128-0.128 0.166c0 0.038-0.018 0.070-0.040 0.070s-0.083 0.073-0.136 0.163c-0.097 0.165-0.174 0.26-0.466 0.579l-0.161 0.175-0.123-0.162c-0.068-0.089-0.151-0.209-0.185-0.267s-0.063-0.086-0.064-0.063c-0.003 0.060-0.155-0.101-0.155-0.163 0-0.028-0.071-0.128-0.158-0.221s-0.236-0.291-0.332-0.438c-0.115-0.177-0.209-0.269-0.277-0.269-0.057 0-0.103-0.023-0.103-0.051 0-0.032-0.282-0.051-0.742-0.051-0.408 0-0.742 0.018-0.742 0.040zM17.95 18.784c-0.015 0.024-0.119 0.059-0.231 0.077s-0.233 0.073-0.27 0.122c-0.037 0.049-0.1 0.097-0.141 0.106-0.079 0.017-0.18 0.137-0.315 0.374-0.045 0.079-0.097 0.13-0.115 0.112s-0.035-0-0.037 0.040c-0.002 0.040-0.016 0.119-0.032 0.175-0.041 0.152-0.098 3.207-0.060 3.23 0.018 0.011 0.048 0.101 0.066 0.2s0.057 0.18 0.086 0.18 0.038 0.022 0.022 0.049c-0.017 0.027 0.017 0.074 0.074 0.104s0.104 0.084 0.104 0.118c0 0.034 0.121 0.126 0.27 0.203l0.269 0.141h3.314c2.175 0 3.314-0.018 3.314-0.051 0-0.028 0.024-0.051 0.053-0.051 0.059 0 0.095-0.026 0.364-0.267 0.103-0.092 0.202-0.22 0.221-0.284s0.056-0.103 0.082-0.087c0.029 0.018 0.047-0.675 0.047-1.766 0-1.506-0.012-1.795-0.072-1.795-0.040 0-0.095-0.066-0.123-0.147-0.093-0.268-0.621-0.724-0.837-0.724-0.077 0-0.154-0.023-0.171-0.051-0.019-0.030-0.342-0.051-0.797-0.051-0.476 0-0.765 0.019-0.765 0.051 0 0.028-0.045 0.051-0.099 0.051s-0.113 0.046-0.131 0.102c-0.018 0.056-0.094 0.167-0.17 0.246-0.173 0.182-0.317 0.362-0.317 0.397 0 0.038-0.103 0.16-0.269 0.316-0.077 0.073-0.141 0.159-0.141 0.19s-0.046 0.090-0.102 0.131-0.102 0.103-0.102 0.139c0 0.105-0.084 0.076-0.172-0.059-0.045-0.069-0.14-0.183-0.211-0.254s-0.129-0.163-0.129-0.205c0-0.042-0.045-0.090-0.1-0.107s-0.114-0.077-0.131-0.131c-0.017-0.055-0.053-0.1-0.079-0.1s-0.044-0.017-0.040-0.038c0.013-0.064-0.068-0.218-0.103-0.197-0.018 0.011-0.063-0.012-0.099-0.052s-0.049-0.071-0.028-0.071c0.021 0-0.052-0.092-0.162-0.205l-0.2-0.205h-0.755c-0.415 0-0.767 0.020-0.782 0.044z"></path>
</svg>
