<!-- Generated by IcoMoon.io -->
<svg version="1.1" xmlns="http://www.w3.org/2000/svg" width="32" height="32" viewBox="0 0 32 32">
<title>interface-1</title>
<path d="M31.161 4.268c-0.559-0.56-1.232-0.839-2.018-0.839h-26.286c-0.786 0-1.458 0.28-2.018 0.839s-0.839 1.232-0.839 2.018v19.429c0 0.786 0.28 1.458 0.839 2.018s1.232 0.84 2.018 0.84h26.286c0.786 0 1.458-0.28 2.018-0.84s0.839-1.232 0.839-2.018v-19.429c-0-0.786-0.28-1.458-0.839-2.018zM29.714 25.714c0 0.155-0.056 0.289-0.17 0.402s-0.247 0.169-0.402 0.169h-26.286c-0.155 0-0.289-0.056-0.402-0.169s-0.17-0.247-0.17-0.402v-13.714c0.381 0.429 0.792 0.821 1.232 1.179 3.191 2.452 5.726 4.464 7.607 6.036 0.607 0.512 1.101 0.911 1.482 1.197s0.896 0.574 1.544 0.866c0.649 0.292 1.259 0.437 1.83 0.437h0.036c0.571 0 1.182-0.145 1.83-0.437s1.164-0.58 1.545-0.866c0.381-0.286 0.875-0.684 1.482-1.197 1.881-1.572 4.416-3.583 7.607-6.036 0.441-0.357 0.851-0.75 1.232-1.179v13.714zM29.714 6.75v0.196c0 0.702-0.276 1.485-0.83 2.348s-1.152 1.551-1.794 2.062c-2.298 1.81-4.684 3.697-7.161 5.661-0.071 0.059-0.28 0.235-0.625 0.526s-0.619 0.515-0.821 0.67c-0.203 0.155-0.467 0.342-0.795 0.562s-0.628 0.384-0.902 0.491c-0.274 0.107-0.53 0.16-0.768 0.16h-0.036c-0.238 0-0.494-0.053-0.768-0.16s-0.574-0.271-0.902-0.491c-0.327-0.22-0.592-0.408-0.795-0.562s-0.476-0.378-0.821-0.67c-0.345-0.292-0.554-0.467-0.625-0.526-2.476-1.964-4.863-3.851-7.161-5.661-1.75-1.381-2.625-3.071-2.625-5.071 0-0.155 0.056-0.289 0.17-0.402s0.247-0.17 0.402-0.17h26.286c0.095 0.053 0.178 0.068 0.25 0.045s0.125 0.021 0.16 0.134c0.036 0.113 0.069 0.167 0.098 0.161s0.048 0.068 0.054 0.223c0.006 0.155 0.009 0.233 0.009 0.233v0.241h-0z"></path>
</svg>
