<!-- Generated by IcoMoon.io -->
<svg version="1.1" xmlns="http://www.w3.org/2000/svg" width="32" height="32" viewBox="0 0 32 32">
<title>interface-5</title>
<path d="M28.837 0.533h-20.341c-1.744 0-3.163 1.419-3.163 3.163v3.237h18.171c2.332 0 4.229 1.897 4.229 4.229v6.971h1.104c1.744 0 3.163-1.419 3.163-3.163v-11.275c0-1.744-1.419-3.163-3.163-3.163z"></path>
<path d="M23.504 8h-20.341c-1.744 0-3.163 1.419-3.163 3.162v11.275c0 1.744 1.419 3.163 3.163 3.163h3.237v5.333c0 0.22 0.135 0.418 0.341 0.498 0.062 0.024 0.127 0.036 0.192 0.036 0.147 0 0.292-0.061 0.395-0.174l5.174-5.692h11.002c1.744 0 3.163-1.419 3.163-3.163v-11.275c0-1.743-1.419-3.162-3.163-3.162zM6.4 13.341h7.467c0.295 0 0.533 0.239 0.533 0.533s-0.238 0.533-0.533 0.533h-7.467c-0.295 0-0.533-0.239-0.533-0.533s0.238-0.533 0.533-0.533zM20.8 20.808h-14.4c-0.295 0-0.533-0.239-0.533-0.533s0.238-0.533 0.533-0.533h14.4c0.295 0 0.533 0.239 0.533 0.533s-0.238 0.533-0.533 0.533zM20.8 17.608h-14.4c-0.295 0-0.533-0.239-0.533-0.533s0.238-0.533 0.533-0.533h14.4c0.295 0 0.533 0.239 0.533 0.533s-0.238 0.533-0.533 0.533z"></path>
</svg>
