<!-- Generated by IcoMoon.io -->
<svg version="1.1" xmlns="http://www.w3.org/2000/svg" width="32" height="32" viewBox="0 0 32 32">
<title>internet</title>
<path d="M30.215 20.377c-2.353-0.598-4.259-1.946-4.259-1.946l-1.492 4.713-0.283 0.887-0.007-0.013-0.243 0.749-0.789-2.228c1.932-2.695-0.388-2.669-0.519-2.662-0.131-0.007-2.452-0.033-0.519 2.662l-0.789 2.228-0.243-0.749-0.007 0.013-0.283-0.887-1.492-4.713c0 0-1.913 1.347-4.259 1.946-1.755 0.447-1.84 2.471-1.768 3.47 0 0 0.099 1.361 0.204 1.959 0 0 3.418 2.222 9.149 2.228 5.738-0.007 9.162-2.228 9.162-2.228 0.105-0.598 0.204-1.959 0.204-1.959 0.072-0.999-0.013-3.023-1.768-3.47z"></path>
<path d="M17.845 6.147c0.026-0.026 0.046-0.046 0.072-0.072-1.906-1.367-4.193-2.11-6.586-2.11-3.030-0.007-5.876 1.17-8.012 3.313-2.143 2.143-3.319 4.982-3.319 8.012 0 3.023 1.177 5.869 3.319 8.012s4.982 3.319 8.012 3.319c0.151 0 0.302-0.007 0.454-0.007-0.072-0.151-0.125-0.316-0.151-0.486-0.066-0.375-0.125-0.96-0.164-1.42-0.046 0-0.092 0-0.138 0-0.296 0-0.592-0.013-0.887-0.039-0.973-1.505-1.696-3.148-2.149-4.864h4.259c0.526-0.605 1.216-1.025 2.024-1.236 0.743-0.191 1.446-0.473 2.031-0.749 0.079-0.572 0.131-1.144 0.164-1.729-0.033-0.053-0.072-0.099-0.105-0.158-0.256-0.408-0.473-0.92-0.67-1.623-0.23-0.822-0.46-1.998 0.125-2.964-0.072-0.5-0.085-0.96-0.053-1.393-0.342-1.19-0.795-2.34-1.361-3.444 0.736 0.283 1.42 0.657 2.051 1.104 0.283-0.519 0.644-1.012 1.084-1.466zM10.608 5.898c0.237-0.020 0.473-0.026 0.716-0.026 0.276 0 0.552 0.013 0.828 0.039 0.973 1.505 1.696 3.142 2.149 4.851h-5.942c0.486-1.722 1.242-3.359 2.248-4.864zM8.038 6.463c-0.73 1.361-1.282 2.807-1.656 4.299h-3.306c1.078-1.965 2.839-3.503 4.962-4.299zM1.913 15.29c0-0.907 0.131-1.781 0.368-2.609h3.72c-0.131 0.9-0.197 1.807-0.197 2.728 0 0.835 0.053 1.656 0.158 2.471h-3.681c-0.237-0.822-0.368-1.696-0.368-2.59zM3.069 19.799h3.253c0.348 1.472 0.874 2.899 1.564 4.253-2.064-0.815-3.766-2.333-4.818-4.253zM14.874 15.165c0 0.914-0.072 1.821-0.217 2.715h-6.757c-0.118-0.815-0.177-1.643-0.177-2.471 0-0.92 0.072-1.834 0.217-2.728h6.757c0.118 0.815 0.177 1.65 0.177 2.485z"></path>
<path d="M26.929 12.096c0.072-0.21 0.131-0.414 0.164-0.624 0.651-3.924-1.275-4.062-1.275-4.062s-0.322-0.618-1.163-1.078c-0.559-0.335-1.347-0.598-2.386-0.506-0.335 0.013-0.651 0.079-0.953 0.184-0.381 0.131-0.73 0.316-1.045 0.539-0.388 0.243-0.756 0.546-1.078 0.887-0.513 0.519-0.966 1.196-1.163 2.044-0.164 0.631-0.131 1.288 0.007 1.992 0.039 0.204 0.092 0.414 0.164 0.624-0.388-0.039-0.841 0.191-0.414 1.702 0.316 1.104 0.605 1.42 0.828 1.433 0.204 1.315 1.216 2.991 2.885 3.582 0.684 0.243 1.439 0.243 2.116-0.007 1.643-0.592 2.695-2.261 2.899-3.576 0.223-0.020 0.513-0.329 0.828-1.433 0.427-1.512-0.026-1.742-0.414-1.702z"></path>
</svg>
