<!-- Generated by IcoMoon.io -->
<svg version="1.1" xmlns="http://www.w3.org/2000/svg" width="32" height="32" viewBox="0 0 32 32">
<title>interface-3</title>
<path d="M16.438 27.372h-4.585l0.668 0.667c0.425 0.425 0.694 0.942 0.833 1.485h4.404l-0.428-0.428c-0.488-0.488-0.782-1.093-0.892-1.724z"></path>
<path d="M7.001 20.368v-18.152h17.894v21.076l2.152-2.153v-19.999c0-0.594-0.481-1.076-1.076-1.076h-20.046c-0.595 0-1.076 0.482-1.076 1.076v19.227l1.076 1.077 1.076-1.076z"></path>
<path d="M10.649 6.694h6.295c0.595 0 1.076-0.482 1.076-1.076s-0.481-1.076-1.076-1.076h-6.295c-0.595 0-1.076 0.482-1.076 1.076s0.481 1.076 1.076 1.076z"></path>
<path d="M21.248 8.846h-10.6c-0.595 0-1.076 0.482-1.076 1.076s0.481 1.076 1.076 1.076h10.6c0.595 0 1.076-0.482 1.076-1.076s-0.481-1.076-1.076-1.076z"></path>
<path d="M21.248 13.15h-10.6c-0.595 0-1.076 0.482-1.076 1.076s0.481 1.076 1.076 1.076h10.6c0.595 0 1.076-0.482 1.076-1.076s-0.481-1.076-1.076-1.076z"></path>
<path d="M21.248 17.454h-6.296c-0.595 0-1.076 0.482-1.076 1.076s0.481 1.076 1.076 1.076h6.296c0.595 0 1.076-0.482 1.076-1.076s-0.481-1.076-1.076-1.076z"></path>
<path d="M31.527 21.225c-0.63-0.629-1.652-0.63-2.282 0.001l-6.468 6.469-2.024-2.023c-0.63-0.631-1.652-0.631-2.282 0s-0.631 1.652 0 2.282l3.165 3.165c0.303 0.303 0.714 0.473 1.141 0.473 0.429 0 0.838-0.17 1.141-0.473l7.609-7.611c0.63-0.63 0.63-1.652 0-2.283z"></path>
<path d="M8.208 26.009c1.44-1.44 0.749-0.75 3.17-3.17 0.63-0.63 0.63-1.652 0-2.282s-1.652-0.631-2.282 0c-2.435 2.434-1.742 1.742-3.171 3.17l-3.17-3.17c-0.63-0.631-1.652-0.631-2.282 0s-0.631 1.652 0 2.282l3.17 3.17c-1.444 1.444-0.751 0.751-3.17 3.171-0.631 0.63-0.631 1.652 0 2.282s1.652 0.63 2.282 0c2.42-2.42 1.727-1.728 3.17-3.171l3.171 3.171c0.631 0.63 1.652 0.63 2.283 0s0.631-1.652 0-2.282l-3.171-3.171z"></path>
</svg>
