<!-- Generated by IcoMoon.io -->
<svg version="1.1" xmlns="http://www.w3.org/2000/svg" width="32" height="32" viewBox="0 0 32 32">
<title>interface2</title>
<path d="M21 17h-10c-0.552 0-1 0.448-1 1s0.448 1 1 1h10c0.552 0 1-0.448 1-1s-0.448-1-1-1zM23 11h-14c-0.552 0-1 0.448-1 1s0.448 1 1 1h14c0.552 0 1-0.448 1-1s-0.448-1-1-1zM16 0c-8.836 0-16 6.268-16 14 0 4.419 2.345 8.353 6 10.919v7.081l7.009-4.253c0.97 0.16 1.968 0.253 2.991 0.253 8.837 0 16-6.268 16-14s-7.163-14-16-14zM16 26c-1.168 0-2.296-0.136-3.38-0.367l-4.708 2.83 0.063-4.638c-3.609-2.171-5.975-5.759-5.975-9.825 0-6.627 6.268-12 14-12s14 5.373 14 12-6.268 12-14 12z"></path>
</svg>
