<!-- Generated by IcoMoon.io -->
<svg version="1.1" xmlns="http://www.w3.org/2000/svg" width="32" height="32" viewBox="0 0 32 32">
<title>interface-2</title>
<path d="M24.127 7.111h-5.204l2.602 2.602z"></path>
<path d="M9.569 9.65c0.015-0.366 0.172-0.724 0.431-0.984l1.556-1.556h-11.556v3.556h9.917c-0.236-0.28-0.362-0.65-0.347-1.016z"></path>
<path d="M0 0h24.889v3.556h-24.889v-3.556z"></path>
<path d="M10 23.333c-0.259-0.259-0.416-0.617-0.432-0.983s0.11-0.736 0.346-1.017h-9.914v3.556h11.556l-1.556-1.556z"></path>
<path d="M0 28.444h24.889v3.556h-24.889v-3.556z"></path>
<path d="M18.921 24.889h5.208l-2.604-2.604z"></path>
<path d="M28.444 17.778v-3.556h-0.953l4.508-4.508-4.19-4.19-6.285 6.285-6.287-6.285-4.19 4.19 4.51 4.508h-15.558v3.556h15.557l-4.508 4.508 4.19 4.19 6.287-6.287 6.285 6.287 4.19-4.19-4.506-4.508z"></path>
</svg>
