<!-- Generated by IcoMoon.io -->
<svg version="1.1" xmlns="http://www.w3.org/2000/svg" width="32" height="32" viewBox="0 0 32 32">
<title>interface</title>
<path d="M28.838 1.352l-18.209-0.037c-1.744 0-3.163 1.419-3.163 3.163v2.733l-4.304 0.009c-1.744 0-3.163 1.419-3.163 3.163v11.275c0 1.744 1.419 3.163 3.162 3.163h3.238v5.333c0 0.22 0.135 0.418 0.341 0.498 0.063 0.025 0.128 0.036 0.193 0.036 0.147 0 0.292-0.061 0.395-0.174l5.175-5.693 8.867-0.036c1.744 0 3.163-1.419 3.163-3.163v-0.060l2.805 3.086c0.103 0.114 0.247 0.174 0.395 0.174 0.065 0 0.13-0.011 0.192-0.036 0.206-0.079 0.341-0.277 0.341-0.498v-5.333h0.571c1.744 0 3.163-1.419 3.163-3.163v-11.276c0-1.744-1.418-3.162-3.162-3.163zM23.467 21.619c0 1.156-0.94 2.096-2.098 2.096l-9.104 0.037c-0.15 0.001-0.292 0.064-0.393 0.174l-4.405 4.846v-4.487c0-0.295-0.239-0.533-0.533-0.533h-3.771c-1.155 0-2.095-0.94-2.095-2.096v-11.275c0-1.156 0.94-2.096 2.097-2.096l4.836-0.010c0 0 0 0 0 0s0.001 0 0.001 0l13.37-0.027c1.156 0 2.096 0.94 2.096 2.096v11.275zM30.933 15.789c0 1.156-0.94 2.096-2.096 2.096h-1.104c-0.295 0-0.533 0.238-0.533 0.533v4.487l-2.667-2.933v-9.629c0-1.744-1.419-3.162-3.163-3.162v0 0h-0.055l-12.781 0.026v-2.731c0-1.156 0.94-2.096 2.095-2.096l18.209 0.037c0.001 0 0.001 0 0.001 0 1.156 0 2.096 0.94 2.096 2.096v11.275z"></path>
<path d="M6.4 14.106c-1.177 0-2.133 0.957-2.133 2.133s0.957 2.133 2.133 2.133 2.133-0.957 2.133-2.133-0.957-2.133-2.133-2.133zM6.4 17.306c-0.588 0-1.067-0.478-1.067-1.067s0.478-1.067 1.067-1.067 1.067 0.478 1.067 1.067-0.478 1.067-1.067 1.067z"></path>
<path d="M12.267 14.106c-1.177 0-2.133 0.957-2.133 2.133s0.957 2.133 2.133 2.133 2.133-0.957 2.133-2.133-0.957-2.133-2.133-2.133zM12.267 17.306c-0.588 0-1.067-0.478-1.067-1.067s0.478-1.067 1.067-1.067 1.067 0.478 1.067 1.067-0.478 1.067-1.067 1.067z"></path>
<path d="M18.133 14.106c-1.177 0-2.133 0.957-2.133 2.133s0.957 2.133 2.133 2.133 2.133-0.957 2.133-2.133-0.957-2.133-2.133-2.133zM18.133 17.306c-0.588 0-1.067-0.478-1.067-1.067s0.478-1.067 1.067-1.067 1.067 0.478 1.067 1.067-0.478 1.067-1.067 1.067z"></path>
</svg>
