<!-- Generated by IcoMoon.io -->
<svg version="1.1" xmlns="http://www.w3.org/2000/svg" width="32" height="32" viewBox="0 0 32 32">
<title>investigation</title>
<path d="M9.77 0.106c-1.133 0.393-1.761 1.855-2.108 4.92-0.029 0.288-0.018 0.311 0.205 0.57 0.622 0.705 1.967 1.304 3.582 1.597 0.74 0.135 2.818 0.188 3.646 0.094 1.943-0.223 3.635-0.904 4.304-1.726l0.194-0.247-0.070-0.687c-0.2-1.791-0.581-3.065-1.133-3.799-0.81-1.069-1.938-1.092-3.623-0.059-0.91 0.558-1.116 0.646-1.286 0.581-0.076-0.029-0.382-0.2-0.675-0.382-1.433-0.887-2.272-1.127-3.036-0.863z"></path>
<path d="M6.224 5.848c-0.769 0.429-1.233 0.863-1.532 1.433-0.211 0.399-0.2 1.033 0.029 1.468 0.305 0.587 1.174 1.274 2.114 1.673l0.364 0.153 0.070 0.746c0.376 3.869 2.249 6.617 5.008 7.363 0.705 0.188 1.979 0.188 2.683 0 0.998-0.27 1.814-0.746 2.56-1.497 1.35-1.362 2.19-3.382 2.448-5.913l0.070-0.681 0.622-0.305c2.096-1.016 2.625-2.466 1.356-3.705-0.352-0.341-1.221-0.904-1.403-0.91-0.059-0.006-0.223 0.147-0.393 0.37-1.703 2.231-7.21 3-10.974 1.527-1.039-0.399-1.932-1.033-2.319-1.638-0.106-0.159-0.217-0.294-0.258-0.294-0.035 0-0.235 0.094-0.446 0.211z"></path>
<path d="M25.659 16.317c-0.898 0.194-1.838 0.669-2.531 1.286-0.687 0.611-1.303 1.656-1.562 2.636-0.2 0.781-0.211 1.855-0.023 2.625 0.141 0.575 0.464 1.315 0.787 1.797 0.182 0.27 0.206 0.335 0.141 0.417-0.44 0.622-0.669 0.869-0.84 0.898-0.106 0.023-0.294 0.117-0.423 0.206-0.247 0.182-2.513 3.018-2.76 3.458-0.094 0.164-0.153 0.388-0.17 0.622-0.059 0.699 0.276 1.292 0.892 1.591 0.276 0.141 0.376 0.159 0.752 0.141 0.769-0.041 0.828-0.094 2.261-1.902 1.298-1.638 1.538-2.014 1.538-2.396 0-0.182 0.059-0.299 0.335-0.646 0.182-0.235 0.352-0.446 0.376-0.476 0.029-0.029 0.194 0 0.388 0.070 1.597 0.581 3.323 0.429 4.732-0.405 0.769-0.458 1.615-1.374 2.026-2.196 0.364-0.728 0.493-1.274 0.528-2.19 0.029-0.881-0.018-1.28-0.235-1.949-0.587-1.826-2.12-3.2-4.010-3.588-0.669-0.141-1.538-0.135-2.202 0zM27.632 17.967c0.734 0.188 1.157 0.429 1.732 0.998 0.781 0.769 1.116 1.568 1.116 2.642 0 1.057-0.335 1.855-1.086 2.613-1.192 1.192-2.742 1.456-4.257 0.734-0.699-0.335-1.362-0.998-1.697-1.703-0.294-0.622-0.388-1.010-0.388-1.644-0.012-2.407 2.278-4.222 4.58-3.64z"></path>
<path d="M10.586 19.083c-0.252 0.059-0.341 0.117-1.192 0.846l-0.734 0.622-3.171 1.268c-1.744 0.693-3.282 1.333-3.423 1.409-1.022 0.599-1.626 2.936-1.949 7.539-0.035 0.499-0.076 0.981-0.094 1.075l-0.035 0.159h8.813c4.85 0 8.813-0.012 8.813-0.029 0-0.012-0.053-0.112-0.117-0.217-0.346-0.564-0.446-1.485-0.235-2.172 0.141-0.458 0.341-0.746 1.832-2.63 1.133-1.439 1.262-1.568 1.955-1.967 0.1-0.059 0.088-0.094-0.106-0.499-0.411-0.869-0.616-1.668-0.669-2.642l-0.035-0.622-0.81-0.317c-0.81-0.323-0.822-0.329-1.673-1.039-0.47-0.399-0.922-0.74-1.010-0.757s-0.206-0.047-0.258-0.059c-0.053-0.018-0.211 0-0.352 0.035-0.211 0.059-0.423 0.241-1.386 1.192l-1.127 1.127-1.104-1.098c-0.605-0.599-1.151-1.116-1.215-1.151-0.182-0.088-0.511-0.123-0.716-0.070z"></path>
<path d="M24.784 28.137c-0.112 0.493-0.341 0.857-1.509 2.349-0.628 0.793-1.139 1.462-1.139 1.48s1.151 0.035 2.554 0.035h2.554l-0.029-0.129c-0.012-0.076-0.070-0.687-0.117-1.368-0.053-0.681-0.117-1.456-0.147-1.732-0.035-0.276-0.059-0.528-0.059-0.564 0-0.041-0.217-0.076-0.57-0.1-0.317-0.023-0.781-0.088-1.028-0.147l-0.452-0.112-0.059 0.288z"></path>
</svg>
