<!-- Generated by IcoMoon.io -->
<svg version="1.1" xmlns="http://www.w3.org/2000/svg" width="32" height="32" viewBox="0 0 32 32">
<title>jpg-file-format-variant</title>
<path d="M14.677 14.556c-0.43 0-0.723 0.042-0.876 0.084v2.766c0.181 0.042 0.403 0.056 0.709 0.056 1.126 0 1.822-0.57 1.822-1.529 0-0.862-0.598-1.377-1.655-1.377z"></path>
<path d="M28.376 11.446h-0.768v-3.708c0-0.023-0.004-0.046-0.007-0.070-0.001-0.147-0.048-0.292-0.149-0.406l-6.17-7.048c-0.002-0.002-0.004-0.002-0.005-0.004-0.037-0.041-0.080-0.075-0.125-0.105-0.013-0.009-0.027-0.017-0.041-0.024-0.039-0.021-0.081-0.039-0.124-0.052-0.012-0.003-0.022-0.008-0.034-0.011-0.047-0.011-0.095-0.018-0.144-0.018h-15.163c-0.692 0-1.255 0.563-1.255 1.255v10.191h-0.768c-0.99 0-1.794 0.803-1.794 1.794v9.327c0 0.99 0.803 1.793 1.794 1.793h0.768v6.385c0 0.692 0.563 1.255 1.255 1.255h20.706c0.692 0 1.255-0.563 1.255-1.255v-6.385h0.768c0.99 0 1.794-0.803 1.794-1.793v-9.327c-0-0.991-0.803-1.794-1.794-1.794zM5.647 1.255h14.535v6.42c0 0.347 0.281 0.627 0.627 0.627h5.543v3.144h-20.706v-10.191zM18.431 15.876c0 0.917-0.306 1.696-0.862 2.225-0.723 0.681-1.794 0.986-3.044 0.986-0.278 0-0.529-0.013-0.723-0.041v3.35h-2.099v-9.244c0.654-0.112 1.571-0.195 2.864-0.195 1.307 0 2.238 0.25 2.864 0.751 0.597 0.472 1 1.251 1 2.168zM5.056 22.327l0.237-1.71c0.292 0.097 0.667 0.167 1.084 0.167 0.89 0 1.446-0.404 1.446-1.863v-5.895h2.113v5.922c0 2.669-1.279 3.6-3.336 3.6-0.486 0-1.126-0.082-1.543-0.222zM26.353 30.405h-20.706v-6.045h20.706v6.045zM27.607 21.966c-0.653 0.222-1.89 0.528-3.129 0.528-1.709 0-2.947-0.431-3.808-1.265-0.862-0.806-1.335-2.029-1.321-3.406 0.013-3.114 2.279-4.894 5.352-4.894 1.21 0 2.142 0.236 2.6 0.459l-0.445 1.696c-0.515-0.222-1.154-0.403-2.183-0.403-1.765 0-3.099 1.001-3.099 3.031 0 1.932 1.209 3.072 2.947 3.072 0.486 0 0.876-0.056 1.043-0.139v-1.96h-1.446v-1.654h3.49v4.935z"></path>
</svg>
