<!-- Generated by IcoMoon.io -->
<svg version="1.1" xmlns="http://www.w3.org/2000/svg" width="32" height="32" viewBox="0 0 32 32">
<title>like</title>
<path d="M6.783 28.774c0 1.782-0.321 3.226-0.717 3.226h-3.405c-0.396 0-0.717-1.445-0.717-3.226v-15.324c0-1.782 0.321-3.226 0.717-3.226h3.405c0.396 0 0.717 1.444 0.717 3.226v15.324z"></path>
<path d="M26.83 9.678h-4.139c0.067-0.258 0.106-0.527 0.106-0.807v-5.646c0-1.782-1.444-3.226-3.226-3.226l-4.033 8.872c0 0.279-7.259 2.251-7.259 4.033v15.324c0 1.781 1.444 3.226 3.226 3.226h15.324c1.782 0 3.226-1.445 3.226-3.226v-15.324c0-1.782-1.444-3.226-3.226-3.226z"></path>
</svg>
