<!-- Generated by IcoMoon.io -->
<svg version="1.1" xmlns="http://www.w3.org/2000/svg" width="32" height="32" viewBox="0 0 32 32">
<title>link-create-profile</title>
<path fill="#555" d="M0.973 12.801v11.828l8.947-0.016c4.921-0.009 9.005-0.029 9.075-0.044s0.209-0.046 0.307-0.066c0.842-0.178 2.408-0.874 2.5-1.111 0.009-0.024 0.044-0.045 0.077-0.045 0.057-0.001 0.228-0.147 0.751-0.637 2.233-2.093 2.632-6.035 0.856-8.45-1.244-1.692-2.86-2.682-4.709-2.888-0.021-0.002-0.038-1.404-0.038-3.115v-3.111l-4.173-4.172h-13.593v11.828zM12.749 4.71v2.202h4.454v4.44l-0.393 0.063c-2.091 0.337-4.008 1.838-4.929 3.857l-0.227 0.498-3.287-0.002c-3.761-0.002-3.646-0.015-4.060 0.434-0.404 0.438-0.388 0.317-0.39 3.048l-0.001 2.432 8.513 0.026 0.145 0.192c0.242 0.32 0.436 0.534 0.811 0.896l0.358 0.346h-11.287v-20.634h10.291v2.202zM16.741 5.258l0.127 0.118h-2.583v-2.528l1.165 1.146c0.641 0.63 1.222 1.199 1.292 1.264zM9.37 8.392c-1.86 0.313-2.9 2.099-2.315 3.973 0.843 2.7 5.024 2.443 5.665-0.349 0.345-1.502-0.661-3.241-2.045-3.537-0.084-0.018-0.211-0.046-0.282-0.061-0.231-0.051-0.789-0.065-1.024-0.026zM18.569 12.871c0.772 0.065 2.295 0.672 2.415 0.962 0.009 0.023 0.042 0.041 0.072 0.041 0.2 0 1.272 1.291 1.531 1.843 0.647 1.381 0.668 3.38 0.045 4.429-0.050 0.084-0.166 0.292-0.258 0.461-0.694 1.278-2.246 2.296-3.762 2.469-3.729 0.425-6.619-2.984-5.585-6.591 0.222-0.776 0.889-1.826 1.472-2.319 0.489-0.414 0.594-0.49 0.938-0.674 0.688-0.37 1.479-0.612 2.077-0.636 0.182-0.007 0.34-0.022 0.35-0.033s0.114-0.009 0.231 0.003c0.116 0.012 0.33 0.033 0.476 0.045zM17.6 16.116c-1.007 1.007-1.83 1.854-1.83 1.882s0.49 0.541 1.088 1.139l1.088 1.087 3.712-3.712-2.228-2.226-1.83 1.831zM15.002 19.832v1.109h2.277l-0.255-0.247c-0.14-0.136-0.653-0.635-1.139-1.109l-0.883-0.862v1.109z"></path>
</svg>
