<!-- Generated by IcoMoon.io -->
<svg version="1.1" xmlns="http://www.w3.org/2000/svg" width="32" height="32" viewBox="0 0 32 32">
<title>list-with-one-cross</title>
<path d="M24.776 5.178h-3.388v-0.649c0-0.836-0.68-1.515-1.515-1.515h-0.187c-0.347-1.717-1.868-3.014-3.685-3.014s-3.338 1.297-3.685 3.014h-0.187c-0.836 0-1.515 0.68-1.515 1.515v0.649h-3.388c-1.392 0-2.525 1.133-2.525 2.525v21.771c0 1.392 1.133 2.525 2.525 2.525h17.552c1.392 0 2.525-1.133 2.525-2.525v-21.771c0-1.393-1.133-2.525-2.525-2.525zM12.296 4.697h7.409v2.758h-7.409v-2.758zM16 1.684c0.882 0 1.635 0.553 1.935 1.33h-3.871c0.301-0.777 1.054-1.33 1.935-1.33zM25.618 29.475c0 0.464-0.378 0.842-0.842 0.842h-17.552c-0.464 0-0.842-0.378-0.842-0.842v-21.771c0-0.464 0.378-0.842 0.842-0.842h3.388v0.762c0 0.836 0.68 1.515 1.515 1.515h7.745c0.836 0 1.515-0.68 1.515-1.515v-0.762h3.388c0.464 0 0.842 0.378 0.842 0.842v21.771z"></path>
<path d="M17.272 12.114h-6.958c-0.465 0-0.842 0.377-0.842 0.842s0.377 0.842 0.842 0.842h6.958c0.465 0 0.842-0.377 0.842-0.842s-0.377-0.842-0.842-0.842z"></path>
<path d="M17.272 16.441h-6.958c-0.465 0-0.842 0.377-0.842 0.842s0.377 0.842 0.842 0.842h6.958c0.465 0 0.842-0.377 0.842-0.842s-0.377-0.842-0.842-0.842z"></path>
<path d="M17.272 20.769h-6.958c-0.465 0-0.842 0.377-0.842 0.842s0.377 0.842 0.842 0.842h6.958c0.465 0 0.842-0.377 0.842-0.842s-0.377-0.842-0.842-0.842z"></path>
<path d="M17.272 25.097h-6.958c-0.465 0-0.842 0.377-0.842 0.842s0.377 0.842 0.842 0.842h6.958c0.465 0 0.842-0.377 0.842-0.842s-0.377-0.842-0.842-0.842z"></path>
<path d="M20.437 13.494c0.227 0.206 0.514 0.317 0.816 0.317 0.025 0 0.051-0.001 0.076-0.002 0.33-0.020 0.631-0.17 0.847-0.422l1.17-1.36c0.202-0.235 0.175-0.589-0.060-0.791s-0.589-0.175-0.791 0.060l-1.17 1.36c-0.022 0.026-0.048 0.032-0.065 0.033s-0.044-0.002-0.069-0.025l-0.736-0.669c-0.229-0.209-0.584-0.192-0.793 0.038s-0.192 0.584 0.038 0.793l0.737 0.67z"></path>
<path d="M22.496 15.788l-1.17 1.36c-0.022 0.026-0.048 0.032-0.066 0.033-0.016 0.001-0.044-0.002-0.069-0.025l-0.736-0.669c-0.23-0.208-0.584-0.191-0.793 0.038s-0.191 0.584 0.038 0.793l0.736 0.669c0.227 0.206 0.514 0.317 0.817 0.317 0.025 0 0.051-0.001 0.076-0.002 0.33-0.020 0.631-0.17 0.848-0.422l1.17-1.36c0.202-0.235 0.175-0.589-0.059-0.792s-0.589-0.175-0.792 0.060z"></path>
<path d="M22.496 24.325l-1.17 1.36c-0.022 0.025-0.048 0.032-0.065 0.033s-0.044-0.002-0.069-0.025l-0.736-0.669c-0.23-0.208-0.584-0.191-0.793 0.038s-0.191 0.584 0.038 0.793l0.736 0.669c0.227 0.206 0.514 0.317 0.817 0.317 0.025 0 0.051-0.001 0.076-0.002 0.33-0.020 0.631-0.17 0.848-0.422l1.17-1.36c0.202-0.235 0.175-0.589-0.060-0.791s-0.589-0.175-0.792 0.060z"></path>
<path d="M20.15 22.819c0.11 0.11 0.253 0.164 0.397 0.164s0.287-0.055 0.397-0.164l0.555-0.555 0.555 0.555c0.11 0.11 0.253 0.164 0.397 0.164s0.287-0.055 0.397-0.164c0.219-0.219 0.219-0.574 0-0.794l-0.555-0.555 0.556-0.555c0.219-0.219 0.219-0.574 0-0.793s-0.575-0.219-0.794 0l-0.555 0.555-0.555-0.555c-0.219-0.219-0.575-0.219-0.794 0s-0.219 0.574 0 0.793l0.555 0.555-0.555 0.555c-0.219 0.219-0.219 0.574 0 0.794z"></path>
</svg>
