<!-- Generated by IcoMoon.io -->
<svg version="1.1" xmlns="http://www.w3.org/2000/svg" width="32" height="32" viewBox="0 0 32 32">
<title>logout</title>
<path d="M23.817 8.183c-0.568-0.568-1.489-0.568-2.057-0s-0.568 1.489 0 2.057l4.305 4.305h-17.822c-0.803 0-1.455 0.651-1.455 1.455s0.651 1.455 1.455 1.455h17.822l-4.305 4.305c-0.568 0.568-0.568 1.489 0 2.057 0.284 0.284 0.656 0.426 1.029 0.426s0.745-0.142 1.028-0.426l6.788-6.788c0.568-0.568 0.568-1.489 0-2.057l-6.788-6.788z"></path>
<path d="M15.030 32c0.803 0 1.455-0.651 1.455-1.455s-0.651-1.455-1.455-1.455h-11.152v-26.182h11.152c0.803 0 1.455-0.651 1.455-1.455s-0.651-1.455-1.455-1.455h-12.606c-0.803 0-1.455 0.651-1.455 1.455v29.091c0 0.803 0.651 1.455 1.455 1.455h12.606z"></path>
</svg>
