<!-- Generated by IcoMoon.io -->
<svg version="1.1" xmlns="http://www.w3.org/2000/svg" width="44" height="32" viewBox="0 0 44 32">
<title>mcsis</title>
<path d="M20.825 0.060c-1.706 0.174-3.685 0.84-5.124 1.723-0.769 0.474-1.663 1.183-2.317 1.843-1.581 1.581-2.671 3.489-3.216 5.61-0.289 1.123-0.376 1.859-0.376 3.14 0 1.575 0.169 2.622 0.66 4.056 0.425 1.248 0.998 2.322 1.821 3.413 2.693 3.582 7.136 5.402 11.606 4.765 2.044-0.289 4.099-1.156 5.719-2.404l0.458-0.354 0.992 0.992-0.491 0.491 4.17 4.176c3.364 3.364 4.225 4.198 4.454 4.307 0.562 0.278 1.308 0.218 1.799-0.136 0.474-0.343 0.774-1.036 0.698-1.614-0.082-0.66 0.027-0.54-4.47-5.043l-4.165-4.17-0.251 0.245-0.245 0.245-0.992-0.992 0.392-0.512c1.237-1.614 2.050-3.565 2.377-5.719 0.136-0.867 0.136-2.628 0.005-3.489-0.638-4.154-3.14-7.588-6.82-9.377-1.167-0.567-2.132-0.872-3.44-1.096-0.769-0.125-2.448-0.18-3.244-0.098zM23.158 2.186c3.244 0.349 6.117 2.208 7.774 5.021 1.913 3.26 1.853 7.398-0.158 10.592-1.963 3.118-5.326 4.923-8.968 4.808-1.39-0.044-2.584-0.305-3.783-0.834-3.075-1.346-5.239-4.045-5.958-7.409-0.136-0.66-0.147-0.796-0.147-1.99 0-1.188 0.011-1.33 0.147-1.979 0.3-1.417 0.79-2.584 1.559-3.723 2.121-3.156 5.817-4.895 9.535-4.487z"></path>
<path d="M20.77 4.988c-1.81 0.382-3.151 1.777-3.434 3.571-0.044 0.289-0.055 1.254-0.044 3.222l0.016 2.807 0.207 0.414c0.136 0.283 0.294 0.496 0.474 0.66l0.273 0.245v4.078l0.556 0.234c1.134 0.48 2.344 0.698 3.636 0.643 1.167-0.049 2.17-0.283 3.184-0.741l0.365-0.164v-4.045l0.3-0.294c0.338-0.327 0.545-0.72 0.632-1.194 0.038-0.207 0.049-1.287 0.033-3.102-0.022-3.086-0.016-3.069-0.392-3.892-0.54-1.178-1.565-2.039-2.835-2.393-0.452-0.125-2.459-0.158-2.971-0.049z"></path>
<path d="M8.619 4.966c-0.654 0.109-1.352 0.491-1.881 1.025-0.431 0.436-0.698 0.872-0.894 1.45l-0.142 0.436-0.022 2.442c-0.016 2.132-0.005 2.48 0.071 2.742 0.109 0.376 0.278 0.654 0.54 0.883l0.196 0.169v3.931l-0.485 0.245c-1.276 0.638-3.107 1.788-4.394 2.753-0.987 0.741-1.183 0.927-1.396 1.319l-0.185 0.343-0.016 1.679-0.016 1.674 8.853-0.027 0.093-0.327c0.185-0.638 0.485-1.177 0.921-1.63 0.273-0.283 1.363-1.183 1.87-1.532 0.174-0.12 0.316-0.245 0.316-0.273 0-0.033-0.098-0.158-0.223-0.273-0.12-0.12-0.414-0.458-0.649-0.747-1.608-1.99-2.611-4.279-3.004-6.863-0.158-1.036-0.169-2.857-0.027-3.838 0.202-1.406 0.583-2.748 1.123-3.947 0.251-0.572 0.371-0.796 0.752-1.466l0.131-0.229-0.621 0.005c-0.338 0.005-0.747 0.027-0.91 0.054z"></path>
<path d="M34.241 5.19c0.403 0.692 0.949 1.897 1.221 2.726 0.463 1.423 0.665 2.508 0.72 3.969 0.087 2.426-0.463 4.846-1.603 7.027l-0.354 0.676 1.548 1.559c0.85 0.856 2.29 2.311 3.205 3.233l1.663 1.679h3.631l-0.016-1.679-0.016-1.674-0.185-0.343c-0.218-0.398-0.409-0.578-1.396-1.319-1.276-0.954-2.775-1.903-4.203-2.655l-0.676-0.354v-3.92l0.196-0.169c0.262-0.229 0.431-0.507 0.54-0.883 0.076-0.262 0.087-0.611 0.071-2.742l-0.022-2.442-0.147-0.436c-0.431-1.297-1.543-2.268-2.818-2.475-0.196-0.033-0.616-0.060-0.943-0.060h-0.583l0.169 0.283z"></path>
<path d="M13.051 23.665c-0.671 0.474-1.635 1.232-1.908 1.505-0.294 0.289-0.523 0.709-0.616 1.112-0.033 0.136-0.060 1.030-0.060 2.050v1.815h23.332v-1.118l-1.63-1.663c-0.894-0.916-1.913-1.93-2.268-2.257-0.594-0.561-0.643-0.594-0.752-0.523-0.065 0.038-0.425 0.224-0.801 0.414-4.061 2.017-8.733 1.973-12.745-0.114-0.616-0.322-1.646-0.976-2.061-1.308l-0.169-0.136-0.322 0.224z"></path>
</svg>
