<!-- Generated by IcoMoon.io -->
<svg version="1.1" xmlns="http://www.w3.org/2000/svg" width="32" height="32" viewBox="0 0 32 32">
<title>medic-suitcase</title>
<path d="M30.797 9.463c-0.802-0.759-1.745-1.138-2.829-1.138h-3.317v-3.447c0-1.257-0.434-2.331-1.301-3.22s-1.908-1.333-3.122-1.333h-8.455c-1.214 0-2.255 0.444-3.122 1.333s-1.301 1.962-1.301 3.22v3.447h-3.317c-1.084 0-2.027 0.379-2.829 1.138s-1.203 1.702-1.203 2.829v15.35c0 1.084 0.401 2.027 1.203 2.829s1.745 1.203 2.829 1.203h23.935c1.084 0 2.027-0.401 2.829-1.203s1.203-1.767 1.203-2.894v-15.285c0-1.127-0.401-2.070-1.203-2.829zM10.016 4.878c0-0.477 0.184-0.911 0.553-1.301s0.77-0.585 1.203-0.585h8.455c0.434 0 0.835 0.195 1.203 0.585s0.553 0.824 0.553 1.301v3.447h-11.967v-3.447zM23.35 22.959h-4.683v4.683h-5.333v-4.683h-4.683v-5.333h4.683v-4.618h5.333v4.618h4.683v5.333z"></path>
</svg>
