<!-- Generated by IcoMoon.io -->
<svg version="1.1" xmlns="http://www.w3.org/2000/svg" width="32" height="32" viewBox="0 0 32 32">
<title>minimize-arrows</title>
<path d="M24.751 21.855h3.65c0.991-0.003 1.793-0.756 1.793-1.684 0-0.93-0.802-1.684-1.793-1.684h-7.632c-0.992 0-1.794 0.754-1.795 1.684 0.001 0.021 0.008 0.046 0.008 0.069 0 0.030-0.008 0.064-0.008 0.097v7.53c0 0.975 0.752 1.767 1.681 1.767 0.928-0.002 1.684-0.792 1.684-1.767v-3.67l6.791 6.793c0.657 0.658 1.721 0.658 2.379 0 0.654-0.657 0.654-1.722 0-2.379l-6.757-6.757z"></path>
<path d="M13.025 20.171c-0.002-0.93-0.803-1.684-1.796-1.684h-7.63c-0.99 0-1.798 0.754-1.798 1.684 0 0.928 0.808 1.68 1.798 1.684h3.65l-6.76 6.755c-0.651 0.657-0.651 1.722 0 2.379 0.659 0.658 1.723 0.658 2.379 0l6.792-6.793v3.67c0 0.975 0.756 1.765 1.682 1.767 0.932 0 1.682-0.792 1.682-1.767v-7.53c0-0.033-0.009-0.067-0.009-0.097 0.001-0.020 0.008-0.045 0.010-0.067z"></path>
<path d="M18.974 11.824c0.001 0.93 0.803 1.682 1.795 1.682h7.632c0.991 0 1.793-0.753 1.793-1.682 0-0.928-0.802-1.678-1.793-1.68h-3.65l6.758-6.756c0.654-0.659 0.654-1.724 0-2.38-0.658-0.657-1.722-0.657-2.379 0l-6.791 6.793v-3.67c0-0.978-0.756-1.769-1.684-1.769-0.93 0-1.681 0.791-1.681 1.769v7.527c0 0.034 0.008 0.064 0.008 0.098-0.001 0.023-0.008 0.041-0.009 0.067z"></path>
<path d="M11.343 2.363c-0.926 0-1.682 0.791-1.682 1.769v3.668l-6.792-6.793c-0.656-0.657-1.72-0.657-2.379 0-0.651 0.656-0.651 1.721 0 2.38l6.76 6.756h-3.651c-0.988 0.003-1.796 0.754-1.796 1.681 0 0.93 0.808 1.682 1.798 1.682h7.629c0.993 0 1.794-0.753 1.796-1.682-0.002-0.026-0.009-0.044-0.009-0.068 0-0.034 0.009-0.064 0.009-0.098v-7.526c0-0.978-0.75-1.769-1.682-1.769z"></path>
</svg>
