<!-- Generated by IcoMoon.io -->
<svg version="1.1" xmlns="http://www.w3.org/2000/svg" width="41" height="32" viewBox="0 0 41 32">
<title>misc</title>
<path d="M10.535 0.1c-0.341 0.171-0.418 0.365-0.418 1.118v0.665h-0.659c-1.365 0.006-2.241 0.376-2.806 1.2-0.218 0.312-6.341 12.318-6.5 12.741-0.124 0.324-0.124 0.371-0.124 7.118 0 6.488 0.006 6.806 0.112 7.118 0.3 0.888 0.976 1.553 1.841 1.824 0.382 0.118 0.524 0.118 18.753 0.118 18.159 0 18.376 0 18.747-0.118 0.971-0.3 1.729-1.118 1.929-2.076 0.041-0.212 0.059-2.359 0.047-7.012-0.018-6.276-0.024-6.724-0.124-6.971-0.059-0.147-1.524-3.053-3.265-6.465-3.382-6.641-3.341-6.576-4-7-0.518-0.329-0.894-0.424-1.812-0.459l-0.835-0.035-0.024-0.629c-0.029-0.724-0.129-0.965-0.459-1.129-0.194-0.1-0.8-0.106-10.206-0.106-9.206 0-10.018 0.012-10.2 0.1zM29.706 3.353v1.706h-17.941v-3.412h17.941v1.706zM10.118 4.382v0.676h-0.588c-0.653 0-0.882 0.065-1.118 0.324l-0.147 0.159-0.035 4.565-0.6 0.024c-0.729 0.029-0.941 0.124-1.106 0.476-0.1 0.224-0.112 0.4-0.112 1.788v1.547h-1.618c-0.888 0-1.618-0.012-1.618-0.024s1.094-2.176 2.435-4.806c1.382-2.718 2.524-4.882 2.635-5.012 0.265-0.3 0.541-0.388 1.271-0.394h0.6v0.676zM32.959 3.847c0.118 0.059 0.271 0.176 0.329 0.265 0.112 0.159 5.006 9.735 5.006 9.794 0 0.018-0.729 0.035-1.618 0.035h-1.618v-1.559c0-1.735-0.018-1.853-0.359-2.094-0.176-0.124-0.276-0.141-0.829-0.165l-0.635-0.018v-2.235c0-2.518 0.006-2.476-0.441-2.694-0.194-0.094-0.365-0.118-0.812-0.118h-0.571v-1.365l0.665 0.024c0.494 0.012 0.712 0.047 0.882 0.129zM31.588 8.412v1.706h-21.706v-3.412h21.706v1.706zM33.412 12.853v1.088h-2.312c-2.671 0-2.671 0-3.194 0.494-0.3 0.276-0.371 0.406-0.965 1.712l-0.647 1.412-11.1 0.029-0.606-1.335c-0.676-1.488-0.824-1.741-1.171-1.982-0.459-0.318-0.5-0.324-2.988-0.329h-2.312v-2.176h25.294v1.088zM12.947 17.129c0.688 1.529 0.918 1.859 1.476 2.112l0.312 0.141h12l0.335-0.159c0.582-0.271 0.729-0.482 1.435-2.047l0.641-1.412h4.876c4.806 0 4.876 0 5.088 0.124 0.118 0.065 0.282 0.212 0.359 0.329l0.147 0.218 0.018 6.382c0.012 4.435 0 6.453-0.047 6.606-0.082 0.282-0.324 0.571-0.571 0.671-0.159 0.071-3.135 0.082-18.276 0.082-12.671 0-18.135-0.018-18.253-0.065-0.206-0.076-0.412-0.265-0.535-0.494-0.094-0.159-0.1-0.747-0.118-6.518-0.012-4.2 0.006-6.418 0.047-6.565 0.071-0.271 0.253-0.512 0.494-0.659 0.176-0.106 0.388-0.112 5.071-0.112h4.882l0.618 1.365z"></path>
<path d="M15.847 22.182c-0.276 0.065-0.682 0.388-0.835 0.665-0.088 0.159-0.1 0.388-0.1 1.947 0 1.929 0 1.924 0.359 2.288 0.388 0.382 0.024 0.359 5.471 0.359h4.947l0.282-0.176c0.212-0.129 0.335-0.265 0.453-0.494l0.165-0.312v-1.659c0-1.659 0-1.659-0.147-1.959-0.176-0.347-0.465-0.571-0.853-0.659-0.335-0.076-9.4-0.076-9.741 0zM24.941 24.794v1.029h-8.353v-2.059h8.353v1.029z"></path>
</svg>
