<!-- Generated by IcoMoon.io -->
<svg version="1.1" xmlns="http://www.w3.org/2000/svg" width="57" height="32" viewBox="0 0 57 32">
<title>moca</title>
<path d="M16.042 0.077c-1.38 0.23-2.614 1.102-3.235 2.273-0.342 0.648-0.467 1.178-0.467 1.945 0 1.541 0.795 3.158 2.029 4.141l0.328 0.258-0.593 0.188c-2.224 0.725-4.267 2.412-5.075 4.176-0.223 0.474-0.404 1.339-0.356 1.624 0.139 0.718 1.569 1.262 4.26 1.604 1.638 0.209 6.944 0.202 7.815-0.014 0.132-0.035 0.153-0.098 0.188-0.746 0.084-1.499 0.641-2.803 1.743-4.099l0.39-0.46-0.223-0.216c-0.711-0.676-2.168-1.506-3.291-1.868l-0.579-0.188 0.328-0.258c0.753-0.593 1.38-1.492 1.764-2.517 0.188-0.509 0.223-0.697 0.251-1.457 0.028-0.802 0.014-0.913-0.153-1.422-0.23-0.683-0.446-1.060-0.899-1.548-1.032-1.129-2.656-1.673-4.225-1.415zM17.708 9.342c0 0.014-0.125 0.16-0.279 0.314l-0.279 0.286 0.941 2.133c0.516 1.171 0.941 2.161 0.941 2.196 0 0.056-1.346 1.352-1.952 1.889l-0.251 0.216-1.074-1.011c-0.593-0.551-1.088-1.032-1.102-1.067-0.007-0.028 0.404-1.025 0.927-2.203l0.941-2.147-0.279-0.3c-0.153-0.167-0.279-0.314-0.279-0.321 0-0.014 0.39-0.021 0.871-0.021s0.871 0.014 0.871 0.035z"></path>
<path d="M39.251 0.105c-1.276 0.251-2.447 1.074-3.054 2.147-0.795 1.394-0.648 3.36 0.37 4.887 0.335 0.502 0.76 0.983 1.157 1.297l0.328 0.258-0.607 0.195c-1.074 0.349-2.37 1.074-3.165 1.778l-0.328 0.293 0.37 0.425c1.15 1.325 1.764 2.796 1.806 4.336 0.007 0.46 0.028 0.516 0.153 0.551 0.906 0.216 6.156 0.223 7.815 0.014 2.684-0.342 4.12-0.885 4.26-1.604 0.049-0.286-0.132-1.15-0.356-1.624-0.439-0.969-1.332-2.008-2.384-2.789-0.69-0.516-1.868-1.122-2.677-1.38l-0.6-0.195 0.425-0.356c1.178-0.997 1.924-2.566 1.924-4.044 0-0.767-0.126-1.297-0.467-1.945-0.906-1.715-2.963-2.649-4.971-2.245zM41.063 9.328c0 0.007-0.126 0.153-0.279 0.321l-0.279 0.3 0.941 2.133c0.516 1.178 0.941 2.161 0.941 2.196 0 0.056-2.14 2.071-2.196 2.071-0.063 0-2.196-2.015-2.196-2.071 0-0.035 0.425-1.025 0.941-2.196l0.941-2.147-0.279-0.279c-0.153-0.153-0.279-0.3-0.279-0.314 0-0.021 0.39-0.035 0.871-0.035s0.871 0.007 0.871 0.021z"></path>
<path d="M26.932 10.632c-2.022 0.523-3.653 2.085-4.183 4.009-0.188 0.704-0.174 2.154 0.035 2.928 0.202 0.746 0.662 1.729 1.122 2.391 0.342 0.495 1.213 1.394 1.638 1.694l0.202 0.146-0.795 0.258c-3.841 1.241-7.076 4.553-7.132 7.299-0.007 0.425 0.014 0.495 0.209 0.732 0.669 0.83 2.921 1.45 6.477 1.785 1.318 0.125 6.693 0.125 8.017 0 3.946-0.369 6.344-1.115 6.658-2.078 0.112-0.321 0.035-0.969-0.188-1.631-0.851-2.58-3.646-5.047-6.916-6.107l-0.795-0.258 0.202-0.146c0.425-0.3 1.297-1.199 1.638-1.694 2.105-3.047 1.617-6.651-1.143-8.485-1.115-0.739-2.085-1.018-3.5-1.011-0.718 0-1.039 0.035-1.548 0.167z"></path>
<path d="M2.789 18.154l-2.754 1.694-0.021 1.332-0.014 1.339h20.573l0.502-0.335c0.279-0.188 0.753-0.474 1.060-0.641s0.572-0.314 0.586-0.321c0.014-0.014-0.119-0.237-0.293-0.495s-0.356-0.558-0.404-0.662l-0.084-0.195-20.106-0.035 1.701-1.464c0.927-0.809 1.813-1.569 1.952-1.687 0.146-0.125 0.216-0.223 0.16-0.223-0.056 0.007-1.346 0.767-2.858 1.694z"></path>
<path d="M51.381 16.551c0.056 0.049 0.948 0.816 1.973 1.708l1.868 1.61h-20.134l-0.084 0.188c-0.049 0.112-0.23 0.411-0.404 0.669s-0.307 0.481-0.293 0.495c0.014 0.007 0.279 0.153 0.586 0.321s0.781 0.453 1.060 0.641l0.502 0.335h20.573l-0.014-1.339-0.021-1.332-2.782-1.701c-2.517-1.534-3.13-1.882-2.831-1.596z"></path>
</svg>
