<!-- Generated by IcoMoon.io -->
<svg version="1.1" xmlns="http://www.w3.org/2000/svg" width="36" height="32" viewBox="0 0 36 32">
<title>moca1</title>
<path d="M10.382 6.083c-0.86 0.143-1.628 0.686-2.015 1.415-0.213 0.404-0.291 0.734-0.291 1.211 0 0.96 0.495 1.967 1.264 2.579l0.204 0.161-0.369 0.117c-1.385 0.452-2.657 1.502-3.161 2.601-0.139 0.295-0.252 0.834-0.221 1.012 0.087 0.447 0.977 0.786 2.653 0.999 1.020 0.13 4.325 0.126 4.867-0.009 0.082-0.022 0.096-0.061 0.117-0.465 0.052-0.934 0.399-1.745 1.085-2.553l0.243-0.287-0.139-0.135c-0.443-0.421-1.35-0.938-2.049-1.164l-0.36-0.117 0.204-0.161c0.469-0.369 0.86-0.929 1.098-1.567 0.117-0.317 0.139-0.434 0.156-0.907 0.017-0.499 0.009-0.569-0.096-0.886-0.143-0.425-0.278-0.66-0.56-0.964-0.643-0.703-1.654-1.042-2.631-0.881zM11.419 11.853c0 0.009-0.078 0.1-0.174 0.195l-0.174 0.178 0.586 1.329c0.321 0.729 0.586 1.346 0.586 1.368 0 0.035-0.838 0.842-1.216 1.177l-0.156 0.135-0.669-0.63c-0.369-0.343-0.677-0.643-0.686-0.664-0.004-0.017 0.252-0.638 0.577-1.372l0.586-1.337-0.174-0.187c-0.096-0.104-0.174-0.195-0.174-0.2 0-0.009 0.243-0.013 0.543-0.013s0.543 0.009 0.543 0.022z"></path>
<path d="M24.836 6.1c-0.795 0.156-1.524 0.669-1.902 1.337-0.495 0.868-0.404 2.093 0.23 3.044 0.208 0.313 0.473 0.612 0.721 0.808l0.204 0.161-0.378 0.122c-0.669 0.217-1.476 0.669-1.971 1.107l-0.204 0.182 0.23 0.265c0.716 0.825 1.099 1.741 1.125 2.701 0.004 0.287 0.017 0.321 0.096 0.343 0.564 0.135 3.834 0.139 4.867 0.009 1.672-0.213 2.566-0.551 2.653-0.999 0.030-0.178-0.082-0.716-0.221-1.012-0.274-0.604-0.829-1.25-1.485-1.737-0.43-0.321-1.164-0.699-1.667-0.86l-0.373-0.122 0.265-0.221c0.734-0.621 1.198-1.598 1.198-2.518 0-0.478-0.078-0.808-0.291-1.211-0.564-1.068-1.845-1.65-3.096-1.398zM25.965 11.845c0 0.004-0.078 0.096-0.174 0.2l-0.174 0.187 0.586 1.329c0.321 0.734 0.586 1.346 0.586 1.368 0 0.035-1.333 1.29-1.368 1.29-0.039 0-1.368-1.255-1.368-1.29 0-0.022 0.265-0.638 0.586-1.368l0.586-1.337-0.174-0.174c-0.096-0.096-0.174-0.187-0.174-0.195 0-0.013 0.243-0.022 0.543-0.022s0.543 0.004 0.543 0.013z"></path>
<path d="M17.164 12.657c-1.259 0.326-2.275 1.298-2.605 2.497-0.117 0.439-0.109 1.342 0.022 1.824 0.126 0.465 0.412 1.077 0.699 1.489 0.213 0.308 0.755 0.868 1.020 1.055l0.126 0.091-0.495 0.161c-2.392 0.773-4.407 2.835-4.442 4.546-0.004 0.265 0.009 0.308 0.13 0.456 0.417 0.517 1.819 0.903 4.034 1.112 0.821 0.078 4.168 0.078 4.993 0 2.458-0.23 3.951-0.695 4.147-1.294 0.069-0.2 0.022-0.604-0.117-1.016-0.53-1.607-2.271-3.144-4.307-3.804l-0.495-0.161 0.126-0.091c0.265-0.187 0.808-0.747 1.020-1.055 1.311-1.897 1.007-4.142-0.712-5.284-0.695-0.46-1.298-0.634-2.18-0.63-0.447 0-0.647 0.022-0.964 0.104z"></path>
<path d="M2.128 17.342l-1.715 1.055-0.013 0.829-0.009 0.834h12.813l0.313-0.208c0.174-0.117 0.469-0.295 0.66-0.399s0.356-0.195 0.365-0.2c0.009-0.009-0.074-0.148-0.182-0.308s-0.221-0.347-0.252-0.412l-0.052-0.122-12.522-0.022 1.059-0.912c0.577-0.504 1.129-0.977 1.216-1.051 0.091-0.078 0.135-0.139 0.1-0.139-0.035 0.004-0.838 0.478-1.78 1.055z"></path>
<path d="M32.391 16.343c0.035 0.030 0.59 0.508 1.229 1.064l1.164 1.003h-12.54l-0.052 0.117c-0.030 0.069-0.143 0.256-0.252 0.417s-0.191 0.3-0.182 0.308c0.009 0.004 0.174 0.096 0.365 0.2s0.486 0.282 0.66 0.399l0.313 0.208h12.813l-0.009-0.834-0.013-0.829-1.732-1.059c-1.567-0.955-1.95-1.172-1.763-0.994z"></path>
</svg>
