<!-- Generated by IcoMoon.io -->
<svg version="1.1" xmlns="http://www.w3.org/2000/svg" width="32" height="32" viewBox="0 0 32 32">
<title>money-2</title>
<path d="M13.042 6.324c-0.666 0-1.201-0.542-1.201-1.201s0.542-1.201 1.201-1.201c0.666 0 1.201 0.542 1.201 1.201s-0.535 1.201-1.201 1.201zM13.042 7.094c2.402 0 4.353 1.951 4.353 4.353 0 1.325-0.594 2.506-1.527 3.309-0.424-0.209-0.901-0.326-1.429-0.326-0.111 0-0.228 0.007-0.32 0.013-0.255 0.020-1.129 0.163-1.775 1.103-0.039 0.059-0.078 0.117-0.111 0.176-2.017-0.379-3.544-2.147-3.544-4.275 0-2.402 1.945-4.353 4.353-4.353zM11.547 12.394c0.020 0.372 0.137 0.666 0.366 0.868 0.242 0.222 0.548 0.352 0.907 0.392v0.483c0 0.065 0.052 0.117 0.117 0.117h0.431c0.065 0 0.117-0.052 0.117-0.117v-0.496c0.294-0.052 0.529-0.17 0.711-0.346 0.215-0.209 0.326-0.483 0.326-0.829 0-0.359-0.104-0.64-0.32-0.829-0.215-0.196-0.548-0.385-1.005-0.581-0.196-0.085-0.333-0.17-0.405-0.255s-0.111-0.196-0.111-0.333 0.033-0.242 0.098-0.333c0.065-0.085 0.17-0.131 0.313-0.131 0.137 0 0.248 0.052 0.333 0.157 0.065 0.085 0.104 0.202 0.117 0.359 0.007 0.072 0.072 0.124 0.137 0.117l0.705-0.013c0.078 0 0.144-0.065 0.137-0.144-0.020-0.307-0.117-0.568-0.3-0.777-0.189-0.215-0.437-0.359-0.744-0.418v-0.529c0-0.065-0.052-0.117-0.117-0.117h-0.431c-0.065 0-0.117 0.052-0.117 0.117v0.516c-0.326 0.046-0.594 0.17-0.796 0.366-0.222 0.215-0.339 0.489-0.339 0.822 0 0.366 0.104 0.646 0.32 0.835 0.209 0.189 0.548 0.379 1.012 0.561 0.189 0.085 0.326 0.17 0.398 0.255s0.111 0.209 0.111 0.359c0 0.137-0.039 0.242-0.111 0.326s-0.183 0.124-0.32 0.124c-0.17 0-0.307-0.052-0.411-0.163-0.085-0.085-0.137-0.222-0.157-0.405-0.007-0.072-0.072-0.124-0.137-0.124l-0.705 0.013c-0.072 0.007-0.131 0.072-0.131 0.15zM25.24 17.818c-0.359-0.281-4.112-4.445-5.117-5.032v-10.802c0-1.096-0.888-1.984-1.984-1.984h-10.195c-1.096 0-1.984 0.888-1.984 1.984v18.908c0 1.096 0.888 1.984 1.984 1.984h4.438l-0.183-1.553c-0.059-0.052-0.098-0.085-0.157-0.137h-1.958c0.059-0.241 0.078-0.496 0.046-0.757-0.104-0.822-0.731-1.508-1.534-1.69-0.333-0.078-0.646-0.065-0.94 0.007v-14.731c0.333 0.065 0.698 0.046 1.070-0.098 0.398-0.15 0.731-0.437 0.966-0.79 0.333-0.509 0.385-0.999 0.307-1.442h6.089c-0.078 0.437-0.026 0.914 0.294 1.423 0.228 0.365 0.568 0.653 0.966 0.803 0.379 0.144 0.744 0.163 1.083 0.098v18.49c-0.692-0.509-1.468-2.102-1.468-2.102s-0.379-4.242-2.526-4.242c-0.059 0-0.111 0-0.17 0.007 0 0-1.625 0.137-0.281 4.791l0.6 5.163c0 0 0.672 2.806 2.526 4.745v0.581c0 0.307 0.248 0.561 0.561 0.561h6.044c0.287 0 0.522-0.215 0.555-0.496 0.215-1.991 1.038-9.327 1.527-10.586 0.091-0.241 0.176-0.483 0.209-0.738 0.078-0.653 0.059-1.723-0.77-2.363z"></path>
</svg>
