<!-- Generated by IcoMoon.io -->
<svg version="1.1" xmlns="http://www.w3.org/2000/svg" width="32" height="32" viewBox="0 0 32 32">
<title>money-bag-1</title>
<path d="M24.721 11.856c-1.244-1.593-2.654-2.935-4.076-3.882-0.513-0.341-1.021-0.628-1.523-0.862 0.509-0.454 1.006-1.023 1.488-1.706 0.974-1.378 1.541-2.744 1.565-2.801 0.206-0.499-0.005-1.073-0.485-1.321s-1.070-0.085-1.357 0.373c-0.435 0.696-1.041 0.871-1.472 0.895-0.747 0.041-1.505-0.328-2.028-0.989-0.787-0.994-2.030-1.563-3.413-1.563s-2.626 0.57-3.413 1.563c-0.234 0.295-0.289 0.693-0.146 1.041 0.024 0.057 0.592 1.423 1.565 2.801 0.482 0.683 0.979 1.252 1.488 1.706-0.506 0.235-1.018 0.524-1.536 0.869-1.426 0.95-2.84 2.298-4.088 3.897-2.635 3.377-4.209 7.405-4.209 10.774 0 2.772 0.987 4.993 2.933 6.601 2.207 1.823 5.573 2.747 10.003 2.747 4.414 0 7.77-0.932 9.973-2.77 1.942-1.62 2.926-3.854 2.926-6.642-0-3.356-1.569-7.369-4.197-10.733zM12.081 2.454c0.37-0.24 0.839-0.376 1.34-0.376 0.732 0 1.399 0.29 1.783 0.775 0.857 1.083 2.102 1.729 3.39 1.778-0.744 0.947-1.65 1.734-2.575 1.734-1.635 0-3.208-2.457-3.938-3.911zM24.66 27.634c-1.819 1.518-4.727 2.287-8.642 2.287-3.934 0-6.855-0.764-8.68-2.271-1.445-1.195-2.178-2.876-2.178-4.999 0-2.921 1.409-6.471 3.769-9.496 2.268-2.906 4.984-4.712 7.089-4.712 2.097 0 4.804 1.798 7.065 4.691 2.352 3.011 3.756 6.545 3.756 9.453 0 2.142-0.733 3.839-2.179 5.046z"></path>
<path d="M16.517 18.913c-1.090-0.576-2.218-1.172-2.218-1.853 0-0.955 0.777-1.732 1.732-1.732s1.732 0.777 1.732 1.732c0 0.574 0.465 1.039 1.039 1.039s1.039-0.465 1.039-1.039c0-1.741-1.174-3.212-2.771-3.665v-0.492c0-0.574-0.465-1.039-1.039-1.039s-1.039 0.465-1.039 1.039v0.492c-1.597 0.454-2.771 1.925-2.771 3.665 0 1.933 1.844 2.907 3.325 3.69 1.090 0.576 2.218 1.172 2.218 1.852 0 0.955-0.777 1.732-1.732 1.732s-1.732-0.777-1.732-1.732c0-0.574-0.465-1.039-1.039-1.039s-1.039 0.465-1.039 1.039c0 1.741 1.174 3.212 2.771 3.665v0.492c0 0.574 0.465 1.039 1.039 1.039s1.039-0.465 1.039-1.039v-0.492c1.597-0.454 2.771-1.925 2.771-3.665 0-1.933-1.844-2.907-3.325-3.69z"></path>
</svg>
