<!-- Generated by IcoMoon.io -->
<svg version="1.1" xmlns="http://www.w3.org/2000/svg" width="32" height="32" viewBox="0 0 32 32">
<title>money-1</title>
<path d="M18.365 20.048c0.056-0.236 0.094-0.486 0.106-0.753 0.222-4.852-2.43-8.825-6.404-11.379-2.364-1.52-4.606 0.137-5.175 2.25-1.465-1.166-4.002 0.579-2.861 2.495 0.042 0.070 0.085 0.14 0.127 0.21-1.146-0.004-4.797-0.016-3.775 0.001 1.208 0.021 4.108 3.272 4.108 3.272v-2.743c0.891 1.362 2.029 2.636 3.723 2.829 0.773 0.088 1.411-0.151 1.935-0.57 0.662 0.81 1 1.72 1.066 2.812-0.58-0.009-1.162 0.015-1.749 0.083-2.025 0.239-3.275 0.685-3.684 2.803-0.616 3.196 1.046 5.53 2.839 7.973 1.458 1.987 4.815 0.061 3.338-1.953-1.208-1.646-2.424-2.999-2.374-4.911 1.181-0.179 2.355-0.131 3.554-0.016 0.587 0.252 1.248 0.354 1.903 0.303 0.977 3.267 2.833 6.178 5.236 8.66 1.737 1.795 4.468-0.945 2.734-2.732-2.383-2.465-3.979-5.316-4.647-8.634z"></path>
<path d="M3.734 4.363c0.005 0.055 0.007 0.11 0.014 0.165 0.246 1.789 1.895 3.039 3.683 2.793 1.789-0.246 3.038-1.894 2.793-3.683-0.050-0.372-0.165-0.718-0.326-1.034 0.11-0.053 0.16-0.18 0.123-0.444l-0.106-0.781c-0.121-0.873-0.926-1.484-1.798-1.363l-3.48 0.477c-0.875 0.121-1.485 0.926-1.365 1.8l0.085 0.632c-0.488 0.389-0.9 0.881-0.81 1.402 0.078 0.463 0.59 0.348 1.187 0.037z"></path>
<path d="M12.562 7.352c0 0 7.835 4.201 6.91 10.392-2.029 5.162 6.831 10.479 11.648-1.427-0.001 0 6.134-16.317-18.558-8.966zM25.828 17.067v0.995h-1.059v-0.937c-0.491-0.046-0.978-0.208-1.294-0.432l-0.149-0.107 0.384-1.074 0.258 0.172c0.334 0.223 0.766 0.352 1.18 0.352 0.506 0 0.844-0.263 0.844-0.653 0-0.263-0.105-0.549-0.88-0.863-0.819-0.32-1.658-0.787-1.658-1.804 0-0.817 0.537-1.454 1.379-1.666v-0.967h1.050v0.902c0.401 0.041 0.752 0.152 1.067 0.337l0.176 0.104-0.401 1.058-0.247-0.14c-0.145-0.083-0.487-0.279-1.029-0.279-0.535 0-0.725 0.281-0.725 0.544 0 0.285 0.142 0.469 0.983 0.818 0.728 0.296 1.565 0.78 1.565 1.894-0.002 0.843-0.574 1.525-1.445 1.747z"></path>
</svg>
