<!-- Generated by IcoMoon.io -->
<svg version="1.1" xmlns="http://www.w3.org/2000/svg" width="32" height="32" viewBox="0 0 32 32">
<title>money-3</title>
<path d="M30.146 5.263l-17.86 0.010c-1.024-0.002-1.857 0.832-1.855 1.857v0.852c-0.38-0.164-0.85-0.278-1.451-0.278-0.751 0-1.373 0.169-1.442 0.191-0.145 0.040-0.277 0.111-0.39 0.211l-6.808 5.964c-0.223 0.197-0.347 0.482-0.341 0.779l0.059 9.818c0.014 0.523 0.614 0.95 1.139 0.973 0.027 0 2.565 0.106 4.809 0.106 1.368 0 2.333-0.035 2.948-0.113 1.795-0.226 2.579-0.756 2.905-1.093 0.337-0.246 0.638-0.489 0.951-0.732-0.261 0.958 0.175 2.002 1.093 2.466 0.297 0.152 0.631 0.233 0.961 0.233 0.589 0 1.128-0.245 1.523-0.649 0.194 0.263 0.44 0.492 0.751 0.653 0.299 0.147 0.631 0.228 0.963 0.228 0.806 0 1.535-0.45 1.899-1.169l1.412-2.78c0.258-0.509 0.312-1.088 0.133-1.628-0.057-0.175-0.148-0.339-0.25-0.491l8.837 0.005c1.024 0 1.859-0.833 1.86-1.855l0.007-11.679c0.002-1.027-0.83-1.879-1.854-1.879zM16.988 21.947l-1.408 2.783c-0.191 0.385-0.687 0.548-1.073 0.354-0.393-0.201-0.55-0.683-0.353-1.074l1.159-2.282c0 0 0.38-0.926 0.985-0.936 0.118 0.003 0.233 0.029 0.341 0.084 0.189 0.098 0.331 0.258 0.396 0.462 0.067 0.204 0.054 0.418-0.047 0.609zM14.769 19.5l-1.273 1.167h0.012c-0.798 0.692-1.747 1.459-2.916 2.323-0.088 0.064-0.094 0.057-0.157 0.145-0.003 0.003-0.39 0.347-1.722 0.513-0.364 0.046-1.127 0.039-2.704 0.039-1.371 0-3.078 0.020-4.011-0.012l0.015-8.41 6.264-5.49c0.169-0.032 0.425-0.069 0.703-0.069 0.408 0 0.69 0.073 0.842 0.223v6.942c0 0.353 0.186 0.676 0.489 0.859 0.035 0.020 0.076 0.017 0.113 0.034v0.074l0.093-0.047c0.258 0.086 0.536 0.098 0.783-0.039 1.557-0.843 4.507-2.184 5.792-2.184 0.057 0 0.106 0 0.14 0.007 0.005 0.012 0.010 0.019 0.017 0.029 0.027 0.133 0.155 1.29-2.479 3.898zM20.222 22.18l-1.408 2.783c-0.192 0.385-0.69 0.547-1.074 0.353-0.391-0.197-0.546-0.681-0.349-1.073l1.41-2.783c0.137-0.27 0.408-0.44 0.712-0.44 0.127 0 0.248 0.032 0.363 0.089 0.192 0.098 0.332 0.261 0.396 0.46 0.067 0.206 0.052 0.42-0.049 0.611zM30.759 18.815c-0.002 0.346-0.278 0.619-0.619 0.619l-12.61-0.003c1.031-1.272 1.623-2.412 1.72-3.4 0.073-0.783-0.159-1.282-0.329-1.53-0.211-0.398-0.707-0.94-1.83-0.94-1.469 0-3.76 0.961-5.269 1.68v-2.771l18.938-0.005-0.002 6.35zM30.76 8.794l-19.093-0.008v-1.66c0-0.342 0.277-0.619 0.617-0.619l17.862-0.013c0.337 0 0.619 0.3 0.619 0.641l-0.005 1.66z"></path>
<path d="M29.354 18.287l-0.014-1.678-4.89-0.003 0.015 1.682z"></path>
</svg>
