<!-- Generated by IcoMoon.io -->
<svg version="1.1" xmlns="http://www.w3.org/2000/svg" width="32" height="32" viewBox="0 0 32 32">
<title>money</title>
<path d="M31.048 13.232l-13.857-10.37c-0.71-0.532-1.686-0.532-2.396 0l-5.604 4.194v-1.012c0-1.104-0.895-2-2-2h-1.848c-1.104 0-2 0.896-2 2v5.387l-2.543 1.903c-0.69 0.516-0.971 1.415-0.699 2.232s1.036 1.368 1.898 1.368h1.345v10.603c0 1.104 0.895 2 2 2h21.298c1.104 0 1.999-0.895 1.999-2v-10.603h1.345c0.005 0 0.009 0 0.013 0 1.104 0 2-0.895 2-1.999-0.001-0.72-0.381-1.352-0.952-1.703zM21.079 20.191c0 2.281-1.549 3.669-3.847 3.955v0.916c0 0.681-0.551 1.232-1.232 1.232s-1.233-0.553-1.233-1.232v-1.018c-1.168-0.22-2.306-0.675-3.309-1.393-0.315-0.221-0.537-0.629-0.537-1.073 0-0.74 0.591-1.312 1.332-1.312 0.37 0 0.628 0.128 0.813 0.258 0.982 0.721 2.054 1.165 3.313 1.165 1.166 0 1.87-0.462 1.87-1.221v-0.037c0-0.721-0.444-1.090-2.609-1.646-2.607-0.665-4.292-1.388-4.292-3.96v-0.037c0-2.003 1.379-3.418 3.421-3.794v-0.965c0-0.681 0.552-1.234 1.233-1.234s1.232 0.552 1.232 1.234v0.974c1.016 0.167 1.94 0.511 2.755 1.030 0.316 0.183 0.631 0.573 0.631 1.128 0 0.739-0.593 1.314-1.332 1.314-0.279 0-0.499-0.074-0.721-0.205-0.945-0.554-1.833-0.87-2.723-0.87-1.091 0-1.664 0.5-1.664 1.128v0.038c0 0.85 0.555 1.128 2.794 1.702 2.626 0.684 4.108 1.629 4.108 3.885v0.039l-0.001-0z"></path>
</svg>
