<!-- Generated by IcoMoon.io -->
<svg version="1.1" xmlns="http://www.w3.org/2000/svg" width="32" height="32" viewBox="0 0 32 32">
<title>money-bag-with-dollar-symbol</title>
<path d="M18.176 21.257c-0.119-0.131-0.271-0.229-0.427-0.31-0.34-0.177-0.712-0.285-1.082-0.382v2.863c0.6-0.068 1.288-0.285 1.603-0.845v0c0.15-0.267 0.18-0.596 0.119-0.894-0.033-0.161-0.102-0.309-0.213-0.431z"></path>
<path d="M18.267 22.587c0.001-0.002 0.002-0.003 0.003-0.006v0c-0.001 0.002-0.002 0.004-0.003 0.006z"></path>
<path d="M13.855 16.681c-0.103 0.151-0.168 0.322-0.186 0.503s-0.008 0.385 0.061 0.556c0.066 0.163 0.204 0.284 0.346 0.381 0.16 0.109 0.336 0.194 0.515 0.266 0.15 0.060 0.319 0.118 0.501 0.174v-2.59c-0.46 0.098-0.963 0.308-1.238 0.71z"></path>
<path d="M18.283 22.561c-0.004 0.007-0.008 0.014-0.012 0.021v0c0.005-0.009 0.008-0.015 0.012-0.021z"></path>
<path d="M18.298 22.534c0.001-0.002 0.001-0.002 0 0v0z"></path>
<path d="M17.676 6.963c2.434-2.045 4.061-6.652 3.060-6.853-1.33-0.268-4.218 0.907-5.614 1.113-1.98 0.239-4.137-2.147-5.347-0.817-0.984 1.081 0.706 5.014 3.349 6.728-7.888 3.877-18.974 23.338 0.367 24.75 26.762 1.954 13.361-21.143 4.185-24.92zM19.975 22.311c-0.082 0.759-0.484 1.445-1.085 1.911-0.635 0.492-1.431 0.721-2.221 0.785v0.838c0 0.224-0.098 0.441-0.266 0.59-0.231 0.204-0.57 0.255-0.85 0.126-0.277-0.127-0.458-0.411-0.458-0.715v-0.916c-0.136-0.026-0.27-0.056-0.403-0.093-0.739-0.203-1.425-0.599-1.925-1.185-0.249-0.292-0.453-0.623-0.594-0.981-0.037-0.093-0.069-0.189-0.098-0.285-0.026-0.087-0.053-0.176-0.062-0.266-0.016-0.152 0.015-0.308 0.086-0.443 0.146-0.279 0.453-0.448 0.767-0.42 0.309 0.027 0.58 0.242 0.677 0.536 0.030 0.091 0.050 0.184 0.084 0.273s0.074 0.176 0.121 0.258c0.094 0.163 0.211 0.312 0.346 0.442 0.278 0.268 0.632 0.442 1.002 0.546v-3.114c-0.722-0.187-1.468-0.428-2.064-0.892-0.29-0.225-0.536-0.506-0.697-0.837-0.17-0.35-0.24-0.74-0.243-1.127-0.003-0.393 0.072-0.783 0.236-1.141 0.154-0.335 0.375-0.636 0.646-0.886 0.58-0.534 1.35-0.831 2.122-0.941v-0.87c0-0.224 0.098-0.441 0.266-0.59 0.231-0.204 0.57-0.255 0.85-0.126 0.276 0.127 0.458 0.411 0.458 0.715v0.865c0.103 0.013 0.206 0.028 0.308 0.047 0.759 0.137 1.5 0.45 2.055 0.997 0.263 0.259 0.478 0.568 0.629 0.904 0.042 0.094 0.079 0.19 0.111 0.288 0.030 0.091 0.060 0.185 0.074 0.281 0.023 0.152-0 0.309-0.066 0.449-0.133 0.285-0.433 0.467-0.747 0.453-0.309-0.013-0.59-0.215-0.7-0.504-0.033-0.086-0.049-0.177-0.083-0.263-0.034-0.087-0.078-0.17-0.129-0.248-0.099-0.152-0.226-0.283-0.372-0.39-0.316-0.233-0.698-0.354-1.081-0.422v2.98c0.454 0.109 0.909 0.227 1.345 0.399 0.658 0.259 1.282 0.657 1.641 1.285-0.056-0.098-0.11-0.193 0.002 0.003 0.11 0.193 0.057 0.101 0.002 0.004 0.286 0.504 0.38 1.106 0.318 1.678z"></path>
<path d="M18.259 22.602c-0.005 0.008-0.009 0.015-0.012 0.021 0.003-0.005 0.007-0.012 0.012-0.021z"></path>
</svg>
