<!-- Generated by IcoMoon.io -->
<svg version="1.1" xmlns="http://www.w3.org/2000/svg" width="32" height="32" viewBox="0 0 32 32">
<title>music</title>
<path d="M27.553 22.686c-1.909-1.909-2.981-4.498-2.981-7.197v-2.525c0-4.016-2.763-7.387-6.491-8.317v-2.566c0-1.149-0.932-2.080-2.081-2.080s-2.081 0.932-2.081 2.080v2.566c-3.729 0.93-6.491 4.3-6.491 8.317v2.525c0 2.699-1.072 5.288-2.981 7.197-0.839 0.839-1.090 2.101-0.636 3.197s1.524 1.811 2.71 1.811h5.172c0 2.378 1.928 4.306 4.306 4.306s4.306-1.928 4.306-4.306h5.172c1.187 0 2.256-0.715 2.71-1.811s0.203-2.358-0.636-3.197zM16 29.886c-1.209 0-2.193-0.984-2.193-2.193h4.385c0 1.209-0.984 2.193-2.193 2.193zM26.236 25.074c-0.127 0.307-0.425 0.506-0.757 0.506h-18.957c-0.333 0-0.63-0.199-0.757-0.506s-0.058-0.658 0.178-0.893c2.322-2.322 3.6-5.409 3.6-8.692v-2.525c0-3.561 2.897-6.458 6.458-6.458s6.458 2.897 6.458 6.458v2.525c0 3.283 1.279 6.37 3.6 8.692 0.235 0.235 0.305 0.586 0.178 0.893z"></path>
</svg>
