<!-- Generated by IcoMoon.io -->
<svg version="1.1" xmlns="http://www.w3.org/2000/svg" width="32" height="32" viewBox="0 0 32 32">
<title>Network</title>
<path d="M31.613 9.481c-0.41-0.766-1.094-1.326-1.925-1.577s-1.711-0.164-2.477 0.246c-0.766 0.41-1.326 1.094-1.577 1.925-0.168 0.554-0.181 1.128-0.053 1.677l-3.511 1.88c-1.068-1.499-2.733-2.544-4.645-2.784v-2.996c1.384-0.373 2.406-1.639 2.406-3.139 0-1.793-1.459-3.252-3.252-3.252s-3.252 1.459-3.252 3.252c0 1.5 1.022 2.766 2.406 3.139v2.996c-2.443 0.307-4.482 1.926-5.389 4.128l-3.843-1.035c0.001-0.563-0.143-1.12-0.431-1.621-0.433-0.753-1.134-1.292-1.972-1.518-1.732-0.467-3.519 0.563-3.986 2.294-0.226 0.839-0.112 1.715 0.321 2.468s1.134 1.292 1.972 1.518c0.282 0.076 0.567 0.113 0.851 0.113 0.562 0 1.117-0.147 1.617-0.435 0.501-0.289 0.905-0.698 1.188-1.185l3.843 1.035c-0.041 0.302-0.065 0.609-0.065 0.922 0 1.554 0.53 2.985 1.417 4.126l-2.817 2.817c-1.243-0.714-2.858-0.544-3.919 0.516-1.268 1.268-1.268 3.331 0 4.599 0.634 0.634 1.467 0.951 2.299 0.951s1.665-0.317 2.299-0.951c1.061-1.061 1.23-2.676 0.516-3.919l2.817-2.817c1.141 0.887 2.573 1.417 4.126 1.417s2.985-0.53 4.126-1.417l2.817 2.817c-0.714 1.243-0.544 2.858 0.516 3.919 0.634 0.634 1.467 0.951 2.299 0.951s1.665-0.317 2.299-0.951c1.268-1.268 1.268-3.331 0-4.599-1.061-1.061-2.676-1.23-3.919-0.516l-2.817-2.817c0.887-1.141 1.417-2.573 1.417-4.126 0-0.849-0.159-1.661-0.447-2.41l3.508-1.879c0.385 0.411 0.871 0.718 1.425 0.886 0.311 0.094 0.629 0.141 0.946 0.141 0.528 0 1.052-0.13 1.531-0.387 0.766-0.41 1.326-1.094 1.577-1.925s0.164-1.711-0.246-2.477zM29.483 12.391c-0.367 0.197-0.789 0.239-1.188 0.118s-0.727-0.389-0.923-0.757c-0.197-0.367-0.239-0.789-0.118-1.188s0.389-0.727 0.757-0.923c0.23-0.123 0.481-0.186 0.734-0.186 0.152 0 0.304 0.022 0.454 0.068 0.399 0.121 0.727 0.389 0.923 0.757s0.239 0.789 0.118 1.188c-0.121 0.399-0.389 0.727-0.757 0.924zM21.627 17.531c0 2.783-2.264 5.047-5.047 5.047s-5.047-2.264-5.047-5.047 2.264-5.047 5.047-5.047 5.047 2.264 5.047 5.047zM15.020 4.711c0-0.86 0.7-1.56 1.56-1.56s1.56 0.7 1.56 1.56c0 0.86-0.7 1.56-1.56 1.56s-1.56-0.7-1.56-1.56zM2.847 15.446c-0.402-0.108-0.738-0.367-0.946-0.728s-0.263-0.782-0.154-1.184c0.224-0.831 1.082-1.324 1.912-1.1 0.402 0.108 0.738 0.367 0.946 0.728s0.263 0.782 0.154 1.184c-0.224 0.831-1.081 1.324-1.912 1.1zM7.923 28.393c-0.608 0.608-1.598 0.608-2.206 0s-0.608-1.598 0-2.206c0.304-0.304 0.704-0.456 1.103-0.456s0.799 0.152 1.103 0.456c0.608 0.608 0.608 1.598 0 2.206zM27.442 26.187c0.608 0.608 0.608 1.598 0 2.206s-1.598 0.608-2.206 0c-0.608-0.608-0.608-1.598 0-2.206 0.304-0.304 0.704-0.456 1.103-0.456s0.799 0.152 1.103 0.456z"></path>
</svg>
