<!-- Generated by IcoMoon.io -->
<svg version="1.1" xmlns="http://www.w3.org/2000/svg" width="32" height="32" viewBox="0 0 32 32">
<title>networking</title>
<path d="M31.163 0.651c-0.432-0.423-0.966-0.651-1.579-0.651h-20.627c-1.263 0-2.285 0.967-2.285 2.23v4.349h2.1v-4.349c0-0.13 0.055-0.186 0.185-0.186h20.627c0.13 0 0.186 0.056 0.186 0.186v14.848c0 0.13-0.056 0.186-0.186 0.186h-2.806v2.063h2.806c0.613 0 1.148-0.227 1.579-0.651 0.442-0.432 0.669-0.966 0.669-1.598v-14.848c-0-0.632-0.228-1.147-0.669-1.579z"></path>
<path d="M23.043 8.753h-20.627c-0.632 0-1.171 0.223-1.598 0.669s-0.65 0.985-0.65 1.616v14.83c0 0.613 0.218 1.156 0.65 1.598 0.423 0.432 0.967 0.65 1.598 0.65h9.328l6.987 3.884v-3.884h4.311c0.632 0 1.175-0.218 1.598-0.65 0.432-0.442 0.651-0.985 0.651-1.598v-14.83c0-0.632-0.223-1.171-0.651-1.617s-0.966-0.669-1.598-0.669zM23.229 25.868c0 0.13-0.056 0.186-0.186 0.186h-6.355v2.453l-3.921-2.211-0.465-0.242h-9.886c-0.13 0-0.186-0.056-0.186-0.186v-14.83c0-0.167 0.056-0.241 0.186-0.241h20.627c0.13 0 0.186 0.075 0.186 0.241v14.83z"></path>
<path d="M19.085 19.698h-7.415c-0.576 0-1.041 0.465-1.041 1.041s0.465 1.022 1.041 1.022h7.415c0.576 0 1.022-0.446 1.022-1.022s-0.446-1.041-1.022-1.041z"></path>
<path d="M19.085 15.145h-12.711c-0.576 0-1.022 0.446-1.022 1.022s0.446 1.022 1.022 1.022h12.711c0.576 0 1.022-0.446 1.022-1.022s-0.446-1.022-1.022-1.022z"></path>
</svg>
