<!-- Generated by IcoMoon.io -->
<svg version="1.1" xmlns="http://www.w3.org/2000/svg" width="32" height="32" viewBox="0 0 32 32">
<title>nJbGCH101</title>
<path d="M21.384 0.376c-2.334 0.301-4.744 1.995-5.911 4.141-0.64 1.28-0.791 1.431-0.64 0.602 0.301-1.242-0.527-2.748-1.769-3.2-1.882-0.715-3.991 1.167-3.501 3.087 0.188 0.791 0.075 0.979-0.715 1.167-1.355 0.339-3.878 2.711-4.781 4.518-0.678 1.28-0.866 2.522-1.054 7.002-0.264 5.948-0.339 6.212-1.995 8.584-1.581 2.184-1.205 2.447 3.426 2.372 3.426-0.075 3.802 0 3.991 0.64 1.054 3.275 6.551 3.275 7.605 0 0.188-0.64 0.565-0.715 3.991-0.64 4.48 0.075 4.969-0.226 3.576-2.033-1.355-1.769-2.033-3.765-2.334-6.588l-0.226-2.334h1.845c3.464 0 6.174-1.468 7.755-4.254 0.828-1.431 1.619-4.969 1.054-4.631-0.151 0.075-0.264-0.64-0.264-1.619 0-4.405-4.518-7.454-10.052-6.814zM26.089 2.485c2.598 1.318 4.028 3.576 4.028 6.362 0 2.259-0.715 3.878-2.372 5.346-4.216 3.689-10.541 1.393-11.746-4.292-0.527-2.598 1.544-6.362 4.141-7.492 1.581-0.678 4.518-0.64 5.948 0.075zM13.101 4.292c0.151 0.791-0.527 1.393-1.318 1.092-0.527-0.188-0.678-1.318-0.226-1.769s1.431-0.038 1.544 0.678zM14.306 6.024c0 0.188-0.151 0.376-0.376 0.376-0.188 0-0.376-0.188-0.376-0.376 0-0.226 0.188-0.376 0.376-0.376 0.226 0 0.376 0.151 0.376 0.376zM13.704 7.379c0.414 0.151 0.602 0.753 0.602 1.995 0.038 2.334 1.054 4.518 3.012 6.174 0.904 0.753 1.769 1.393 1.92 1.393 0.113 0 0.301 1.506 0.414 3.313 0.113 2.673 0.339 3.652 1.129 5.082l1.016 1.769h-19.049l0.979-1.958c0.828-1.732 0.979-2.56 1.167-7.454 0.188-4.819 0.301-5.647 1.092-6.889 1.619-2.635 5.384-4.329 7.718-3.426zM14.306 28.913c0 1.092-2.786 1.656-3.689 0.753-0.828-0.828-0.489-1.054 1.619-1.054 1.129 0 2.071 0.151 2.071 0.301z"></path>
<path d="M22.362 3.878c-0.113 0.301-0.151 1.694-0.075 3.125l0.113 2.598 2.108 0.113c1.619 0.075 2.184-0.038 2.334-0.452 0.301-0.791-0.678-1.468-1.807-1.28-0.866 0.188-0.904 0.113-1.016-2.108-0.075-1.845-0.264-2.296-0.791-2.409-0.339-0.075-0.753 0.113-0.866 0.414z"></path>
</svg>
