<!-- Generated by IcoMoon.io -->
<svg version="1.1" xmlns="http://www.w3.org/2000/svg" width="26" height="32" viewBox="0 0 26 32">
<title>npi</title>
<path d="M0 3.7v3.7h2.3v-5.1h21.6v11.95h2.3v-14.25h-26.2v3.7z"></path>
<path d="M6.47 4.695c-0.75 0.34-0.64 1.6 0.16 1.8 0.295 0.075 14.615 0.075 14.88 0.005 0.24-0.070 0.485-0.275 0.57-0.485 0.040-0.090 0.070-0.3 0.070-0.47 0-0.41-0.155-0.69-0.465-0.84l-0.215-0.105h-7.4c-7.105 0-7.405 0.005-7.6 0.095z"></path>
<path d="M2.135 9c-0.655 0.165-1.075 0.68-1.27 1.56-0.115 0.51-0.115 1.97 0.005 2.49 0.17 0.765 0.555 1.295 1.065 1.47 0.3 0.105 0.88 0.1 1.18 0 0.435-0.15 0.815-0.625 1.005-1.27 0.135-0.45 0.195-1.405 0.13-2.080-0.13-1.43-0.645-2.13-1.61-2.195-0.175-0.010-0.4 0-0.505 0.025zM2.715 9.605c0.43 0.12 0.68 0.51 0.785 1.235 0.080 0.54 0.040 1.93-0.070 2.305-0.155 0.56-0.535 0.885-0.98 0.845-0.67-0.065-0.95-0.71-0.95-2.19 0-1.115 0.135-1.68 0.49-2.015 0.125-0.125 0.33-0.22 0.485-0.23 0.030-0.005 0.135 0.020 0.24 0.050z"></path>
<path d="M6.755 9.245c-0.245 0.34-0.555 0.615-1.025 0.91l-0.33 0.205v0.345c0 0.19 0.010 0.345 0.025 0.345 0.075 0 0.69-0.34 0.965-0.535l0.31-0.22v4.255h0.7v-5.6h-0.215c-0.2 0-0.225 0.015-0.43 0.295z"></path>
<path d="M14.025 9.11c-0.37 0.13-0.585 0.47-0.585 0.92 0 0.415 0.165 0.715 0.475 0.865 0.215 0.105 0.265 0.105 3.895 0.105h3.675l0.215-0.115c0.295-0.155 0.45-0.445 0.45-0.845 0-0.495-0.22-0.825-0.625-0.935-0.27-0.075-7.285-0.070-7.5 0.005z"></path>
<path d="M20.735 16.92c-0.89 0.32-1.295 1.335-1.22 3.080 0.070 1.64 0.58 2.425 1.61 2.49 0.875 0.055 1.43-0.37 1.73-1.34 0.11-0.345 0.12-0.46 0.12-1.475 0-0.925-0.015-1.145-0.090-1.395-0.305-0.98-0.83-1.435-1.655-1.43-0.165 0.005-0.39 0.035-0.495 0.070zM21.6 17.56c0.3 0.155 0.515 0.485 0.605 0.925 0.095 0.46 0.095 2.040 0 2.415-0.090 0.35-0.21 0.59-0.39 0.76-0.515 0.485-1.2 0.205-1.445-0.595-0.115-0.37-0.175-1.31-0.12-1.965 0.055-0.64 0.14-1 0.31-1.255 0.125-0.185 0.49-0.395 0.69-0.395 0.070 0 0.23 0.050 0.35 0.11z"></path>
<path d="M2.115 17.24c-0.9 0.32-1.255 1.205-1.2 2.985 0.035 1.185 0.17 1.65 0.62 2.13 0.285 0.305 0.635 0.445 1.11 0.445 0.64 0 1.095-0.275 1.395-0.84 0.23-0.43 0.31-0.835 0.345-1.715 0.045-1.22-0.11-1.975-0.525-2.52-0.375-0.495-1.13-0.705-1.745-0.485zM3.1 17.92c0.225 0.145 0.425 0.52 0.495 0.905 0.145 0.82 0.11 2.005-0.075 2.625-0.095 0.33-0.43 0.68-0.69 0.725-0.445 0.085-0.845-0.175-1.025-0.655-0.255-0.675-0.265-2.23-0.020-2.995 0.215-0.685 0.795-0.95 1.315-0.605z"></path>
<path d="M6.905 17.405c-0.22 0.325-0.64 0.7-1.065 0.955l-0.34 0.2v0.345c0 0.19 0.015 0.345 0.030 0.345 0.085 0 0.865-0.445 1.075-0.61l0.245-0.19v4.25h0.7v-5.55h-0.235c-0.23 0.005-0.245 0.010-0.41 0.255z"></path>
<path d="M10.455 17.445c-0.245 0.34-0.555 0.615-1.025 0.91l-0.33 0.205v0.345c0 0.19 0.010 0.345 0.025 0.345 0.070 0 0.645-0.32 0.94-0.52l0.335-0.23v4.2h0.7v-5.55h-0.215c-0.2 0-0.225 0.015-0.43 0.295z"></path>
<path d="M14.015 17.22c-0.87 0.285-1.265 1.14-1.265 2.755 0 1.14 0.19 1.885 0.59 2.33 0.315 0.35 0.545 0.455 1.040 0.485 1.265 0.070 1.875-0.855 1.87-2.835-0.005-1.45-0.335-2.295-1.025-2.635-0.34-0.165-0.88-0.21-1.21-0.1zM14.935 17.905c0.21 0.13 0.41 0.47 0.495 0.835 0.1 0.425 0.14 1.42 0.075 1.96-0.080 0.7-0.175 0.97-0.43 1.225-0.345 0.35-0.745 0.365-1.115 0.050-0.28-0.24-0.395-0.58-0.47-1.355-0.1-1.075 0.055-2.145 0.37-2.545 0.25-0.32 0.715-0.39 1.075-0.17z"></path>
<path d="M18.645 25.915c-0.45 0.17-0.7 0.41-0.925 0.905-0.215 0.475-0.285 0.925-0.285 1.855 0 1.285 0.185 1.95 0.675 2.4 0.345 0.325 0.53 0.395 1.065 0.395 0.54 0.005 0.8-0.1 1.125-0.45 0.46-0.5 0.615-1.105 0.615-2.395 0-0.75-0.020-0.965-0.105-1.285-0.185-0.69-0.445-1.085-0.87-1.315-0.22-0.12-0.335-0.15-0.69-0.16-0.27-0.010-0.49 0.010-0.605 0.050zM19.53 26.555c0.265 0.125 0.49 0.45 0.58 0.835 0.040 0.185 0.065 0.64 0.065 1.285 0 1.265-0.070 1.575-0.425 1.925-0.385 0.39-0.765 0.39-1.15 0.005-0.365-0.365-0.425-0.64-0.425-1.905 0-0.825 0.020-1.090 0.090-1.35 0.205-0.76 0.7-1.070 1.265-0.795z"></path>
<path d="M23.475 26.030c-0.135 0.25-0.71 0.78-1.095 1.005l-0.33 0.19v0.335c0 0.2 0.020 0.34 0.050 0.34 0.1 0 0.735-0.345 0.965-0.52 0.13-0.1 0.245-0.18 0.26-0.18s0.025 0.945 0.025 2.1v2.1h0.7v-5.55h-0.24c-0.22 0-0.245 0.010-0.335 0.18z"></path>
<path d="M2.255 26.4c-0.96 0.205-1.395 1.18-1.34 3.025 0.040 1.44 0.335 2.12 1.055 2.455 0.365 0.17 1 0.17 1.355 0 0.52-0.245 0.86-0.795 1.005-1.63 0.105-0.6 0.070-1.96-0.055-2.42-0.185-0.665-0.535-1.15-0.955-1.335-0.265-0.11-0.765-0.155-1.065-0.095zM2.975 27.065c0.205 0.1 0.43 0.365 0.525 0.625 0.23 0.61 0.245 2.225 0.025 2.95-0.14 0.46-0.485 0.76-0.875 0.76-0.47 0-0.81-0.365-0.955-1.025-0.085-0.385-0.090-1.895-0.005-2.3 0.075-0.375 0.295-0.815 0.465-0.94 0.24-0.175 0.56-0.2 0.82-0.070z"></path>
<path d="M6.34 26.415c-0.58 0.165-0.97 0.615-1.17 1.36-0.21 0.765-0.18 2.31 0.060 3.015 0.3 0.9 0.79 1.25 1.685 1.2 0.48-0.025 0.765-0.155 1.035-0.475 0.425-0.515 0.57-1.105 0.565-2.34 0-1.25-0.155-1.845-0.61-2.34-0.36-0.39-1.030-0.57-1.565-0.42zM7.155 27.080c0.165 0.085 0.375 0.33 0.465 0.54 0.125 0.295 0.18 0.81 0.18 1.61 0 1.16-0.145 1.71-0.52 1.995-0.52 0.395-1.15 0.12-1.38-0.61-0.22-0.69-0.19-2.335 0.055-2.99 0.21-0.56 0.72-0.79 1.2-0.545z"></path>
<path d="M10.535 26.4c-0.645 0.165-1.050 0.65-1.27 1.525-0.115 0.485-0.12 1.99 0 2.515 0.155 0.695 0.47 1.195 0.905 1.425 0.285 0.155 1.155 0.16 1.455 0.010 0.465-0.23 0.8-0.755 0.945-1.485 0.105-0.51 0.105-1.93 0.005-2.41-0.090-0.425-0.305-0.9-0.52-1.145-0.32-0.365-1.010-0.56-1.52-0.435zM11.36 27.13c0.22 0.14 0.405 0.445 0.495 0.82 0.11 0.435 0.095 2.135-0.020 2.55-0.16 0.585-0.49 0.9-0.945 0.9-0.47 0-0.815-0.43-0.945-1.165-0.085-0.505-0.035-2.075 0.080-2.45 0.22-0.71 0.8-0.995 1.335-0.655z"></path>
<path d="M15.15 26.655c-0.245 0.34-0.59 0.64-1.050 0.92l-0.3 0.18v0.35c0 0.19 0.010 0.345 0.025 0.345 0.075 0 0.69-0.34 0.965-0.535l0.31-0.22v4.255h0.7v-5.6h-0.215c-0.205 0-0.22 0.015-0.435 0.305z"></path>
</svg>
