<!-- Generated by IcoMoon.io -->
<svg version="1.1" xmlns="http://www.w3.org/2000/svg" width="32" height="32" viewBox="0 0 32 32">
<title>payment</title>
<path d="M7.427 0.070c-0.523 0.115-0.992 0.439-1.271 0.867-0.219 0.344-6.051 13.239-6.111 13.518-0.174 0.822 0.269 1.774 1.002 2.143 0.095 0.045 0.952 0.414 1.899 0.817 1.171 0.493 1.784 0.728 1.909 0.728 0.234 0 0.439-0.105 0.558-0.284 0.090-0.135 0.095-0.304 0.12-3.355l0.025-3.215 0.13-0.359c0.199-0.538 0.469-0.982 0.827-1.366 0.568-0.603 1.176-0.962 1.919-1.141 0.404-0.095 0.583-0.1 8.563-0.1 5.558 0 8.209-0.015 8.339-0.055 0.374-0.1 0.439-0.608 0.11-0.798-0.364-0.209-16.927-7.367-17.161-7.417-0.324-0.070-0.503-0.065-0.857 0.015z"></path>
<path d="M8.847 10.088c-0.623 0.15-1.122 0.553-1.391 1.121l-0.155 0.329-0.015 7.402c-0.010 7.272-0.010 7.407 0.090 7.726 0.179 0.593 0.698 1.112 1.291 1.296 0.284 0.090 0.459 0.1 1.859 0.1h1.55l-0.030-0.234c-0.080-0.648-0.090-1.092-0.040-1.585 0.035-0.304 0.075-0.598 0.090-0.663l0.025-0.11h-2.203v-6.629h19.090v6.629h-2.203l0.040 0.359c0.055 0.439 0.060 1.61 0.010 1.969l-0.035 0.264h1.535c1.655 0 1.839-0.025 2.278-0.279 0.294-0.174 0.653-0.573 0.802-0.897 0.070-0.155 0.145-0.449 0.174-0.658 0.025-0.224 0.035-3.374 0.030-7.462-0.015-6.589-0.020-7.098-0.105-7.337-0.189-0.553-0.658-1.042-1.216-1.266l-0.289-0.12-10.467-0.010c-8.14-0.005-10.522 0.005-10.716 0.055zM29.009 13.632v1.022h-19.090v-2.044h19.090v1.022z"></path>
<path d="M18.552 21.757c-2.143 0.379-3.828 1.979-4.252 4.037-0.12 0.568-0.125 1.525-0.015 2.059 0.204 0.987 0.648 1.824 1.366 2.557 0.703 0.718 1.445 1.156 2.402 1.421 0.578 0.16 1.56 0.214 2.188 0.12 2.123-0.309 3.823-1.839 4.341-3.923 0.15-0.588 0.16-1.69 0.020-2.283-0.239-1.042-0.753-1.914-1.57-2.672-0.663-0.618-1.54-1.072-2.457-1.271-0.518-0.11-1.515-0.135-2.024-0.045zM19.878 23.651c0.020 0.434 0.035 0.459 0.269 0.498 0.334 0.055 0.817 0.219 0.882 0.294 0.040 0.050 0.030 0.15-0.050 0.409-0.145 0.479-0.169 0.498-0.498 0.364-0.374-0.15-1.062-0.189-1.301-0.075-0.179 0.085-0.289 0.254-0.289 0.439 0 0.174 0.344 0.459 0.773 0.633 0.927 0.384 1.251 0.623 1.475 1.092 0.135 0.279 0.179 0.723 0.095 0.987-0.085 0.284-0.374 0.688-0.593 0.837-0.105 0.075-0.314 0.179-0.459 0.234-0.15 0.060-0.284 0.13-0.304 0.16-0.020 0.035-0.040 0.204-0.040 0.384 0 0.189-0.025 0.354-0.060 0.389-0.080 0.080-0.648 0.080-0.728 0-0.035-0.035-0.060-0.194-0.060-0.369 0-0.184-0.025-0.324-0.060-0.354-0.035-0.025-0.234-0.085-0.439-0.125-0.558-0.12-0.847-0.259-0.847-0.409 0-0.14 0.184-0.763 0.239-0.793 0.020-0.015 0.204 0.045 0.409 0.13 0.329 0.135 0.434 0.155 0.882 0.155 0.439 0.005 0.523-0.010 0.648-0.1 0.219-0.16 0.289-0.344 0.219-0.573-0.075-0.239-0.249-0.364-0.922-0.643-1.057-0.439-1.426-0.837-1.426-1.535 0-0.603 0.304-1.067 0.877-1.326 0.459-0.209 0.444-0.189 0.459-0.483 0.025-0.513 0.010-0.498 0.449-0.483l0.384 0.015 0.015 0.249z"></path>
</svg>
