<!-- Generated by IcoMoon.io -->
<svg version="1.1" xmlns="http://www.w3.org/2000/svg" width="32" height="32" viewBox="0 0 32 32">
<title>pdf-file-format-symbol</title>
<path d="M9.318 16.396c0-0.862-0.598-1.376-1.654-1.376-0.431 0-0.723 0.042-0.876 0.083v2.767c0.181 0.041 0.403 0.055 0.708 0.055 1.127 0 1.822-0.57 1.822-1.529z"></path>
<path d="M15.853 15.048c-0.473 0-0.778 0.042-0.96 0.083v6.131c0.181 0.042 0.473 0.042 0.737 0.042 1.918 0.013 3.169-1.043 3.169-3.281 0.014-1.947-1.126-2.975-2.947-2.975z"></path>
<path d="M28.376 11.446h-0.768v-3.708c0-0.023-0.004-0.046-0.007-0.070-0.001-0.147-0.048-0.292-0.149-0.406l-6.17-7.048c-0.002-0.002-0.004-0.002-0.005-0.004-0.037-0.041-0.080-0.075-0.125-0.105-0.013-0.009-0.027-0.017-0.041-0.024-0.039-0.021-0.081-0.039-0.124-0.052-0.012-0.003-0.022-0.008-0.034-0.011-0.047-0.011-0.095-0.018-0.144-0.018h-15.163c-0.692 0-1.255 0.563-1.255 1.255v10.191h-0.768c-0.99 0-1.794 0.803-1.794 1.794v9.327c0 0.99 0.803 1.793 1.794 1.793h0.768v6.385c0 0.692 0.563 1.255 1.255 1.255h20.706c0.692 0 1.255-0.563 1.255-1.255v-6.385h0.768c0.99 0 1.794-0.803 1.794-1.793v-9.327c-0-0.991-0.803-1.794-1.794-1.794zM5.647 1.255h14.535v6.42c0 0.347 0.281 0.627 0.627 0.627h5.543v3.144h-20.706v-10.191zM21.052 17.953c0 1.794-0.653 3.031-1.558 3.796-0.986 0.82-2.488 1.209-4.322 1.209-1.098 0-1.876-0.070-2.405-0.139v-9.204c0.778-0.125 1.794-0.194 2.864-0.194 1.778 0 2.933 0.32 3.837 1.001 0.973 0.723 1.585 1.877 1.585 3.531zM4.688 22.861v-9.245c0.653-0.111 1.571-0.194 2.864-0.194 1.307 0 2.238 0.25 2.864 0.751 0.598 0.472 1 1.251 1 2.169s-0.305 1.696-0.862 2.224c-0.723 0.681-1.793 0.987-3.045 0.987-0.278 0-0.529-0.014-0.722-0.042v3.35l-2.099-0zM26.353 30.405h-20.706v-6.045h20.706v6.045zM28.171 15.229h-3.601v2.141h3.365v1.724h-3.365v3.767h-2.126v-9.37h5.727v1.738z"></path>
</svg>
