<!-- Generated by IcoMoon.io -->
<svg version="1.1" xmlns="http://www.w3.org/2000/svg" width="32" height="32" viewBox="0 0 32 32">
<title>pen</title>
<path d="M31.232 0.771c-0.509-0.508-1.201-0.771-1.915-0.771-0.715 0.011-1.389 0.295-1.901 0.804l-1.223 1.221c-0.005 0.006-0.008 0.013-0.012 0.018l-15.954 15.909c-0.052 0.052-0.079 0.116-0.117 0.177-0.066 0.076-0.123 0.159-0.164 0.253l-1.627 3.75c-0.162 0.375-0.085 0.81 0.198 1.105 0.196 0.205 0.463 0.316 0.738 0.316 0.12 0 0.243-0.021 0.36-0.066l3.912-1.471c0.108-0.041 0.203-0.105 0.29-0.176 0.063-0.040 0.131-0.070 0.184-0.122l16.017-15.973c0.003-0.003 0.004-0.007 0.008-0.010l1.171-1.165c1.059-1.056 1.075-2.76 0.036-3.799zM13.279 19.559l-0.889-0.887 14.576-14.534 0.888 0.886-14.575 14.535zM29.754 3.131l-0.458 0.456-0.892-0.889 0.456-0.455c0.133-0.132 0.305-0.205 0.486-0.208 0.172-0.004 0.326 0.059 0.442 0.174 0.245 0.245 0.23 0.659-0.033 0.922z"></path>
<path d="M29.227 11.127c-0.564 0-1.020 0.456-1.020 1.017v16.805c0 0.561-0.457 1.017-1.020 1.017h-24.127c-0.563 0-1.020-0.456-1.020-1.017v-24.055c0-0.561 0.457-1.017 1.020-1.017h16.701c0.564 0 1.020-0.456 1.020-1.017s-0.456-1.017-1.020-1.017h-16.701c-1.688 0-3.060 1.369-3.060 3.051v24.055c0 1.683 1.373 3.051 3.060 3.051h24.127c1.687 0 3.060-1.369 3.060-3.051v-16.805c0-0.562-0.456-1.017-1.020-1.017z"></path>
</svg>
