<!-- Generated by IcoMoon.io -->
<svg version="1.1" xmlns="http://www.w3.org/2000/svg" width="32" height="32" viewBox="0 0 32 32">
<title>people</title>
<path d="M22.277 9.051c0.104-0.3 0.189-0.6 0.241-0.899 0.939-5.644-1.838-5.84-1.838-5.84s-0.463-0.886-1.675-1.558c-0.815-0.482-1.949-0.854-3.441-0.73-0.482 0.026-0.939 0.117-1.369 0.261-0.547 0.182-1.049 0.456-1.506 0.769-0.561 0.352-1.088 0.789-1.551 1.284-0.736 0.75-1.395 1.727-1.675 2.939-0.241 0.906-0.182 1.851 0.013 2.874 0.052 0.3 0.13 0.593 0.241 0.899-0.554-0.052-1.212 0.267-0.593 2.451 0.443 1.597 0.86 2.040 1.18 2.066 0.293 1.897 1.753 4.308 4.158 5.156 0.984 0.345 2.066 0.345 3.050-0.007 2.366-0.854 3.878-3.259 4.171-5.149 0.319-0.026 0.736-0.476 1.186-2.066 0.619-2.183-0.039-2.503-0.593-2.451z"></path>
<path d="M26.924 20.979c-3.383-0.86-6.133-2.796-6.133-2.796l-2.548 8.062-0.007-0.020-0.352 1.082-1.134-3.213c2.783-3.885-0.561-3.845-0.75-3.839-0.189-0.007-3.533-0.046-0.75 3.839l-1.134 3.213-0.352-1.082-0.007 0.020-0.404-1.277-2.144-6.785c0 0-2.75 1.936-6.133 2.796-2.522 0.639-2.646 3.552-2.542 4.999-0.013 0 0.137 1.955 0.28 2.816 0 0 4.927 3.2 13.179 3.207 8.251 0 13.179-3.207 13.179-3.207 0.15-0.86 0.293-2.816 0.293-2.816 0.104-1.44-0.020-4.354-2.542-4.999z"></path>
</svg>
