<!-- Generated by IcoMoon.io -->
<svg version="1.1" xmlns="http://www.w3.org/2000/svg" width="32" height="32" viewBox="0 0 32 32">
<title>photoshop-file-format</title>
<path d="M28.376 11.446h-0.768v-3.708c0-0.023-0.004-0.046-0.007-0.070-0.001-0.147-0.048-0.292-0.149-0.406l-6.17-7.048c-0.002-0.002-0.004-0.002-0.005-0.004-0.037-0.041-0.080-0.075-0.125-0.105-0.013-0.009-0.027-0.017-0.041-0.025-0.039-0.021-0.081-0.039-0.124-0.052-0.012-0.003-0.022-0.008-0.034-0.011-0.047-0.011-0.095-0.018-0.144-0.018h-15.163c-0.692 0-1.255 0.563-1.255 1.255v10.191h-0.768c-0.99 0-1.794 0.803-1.794 1.793v9.327c0 0.99 0.803 1.794 1.794 1.794h0.768v6.385c0 0.692 0.563 1.255 1.255 1.255h20.706c0.692 0 1.255-0.563 1.255-1.255v-6.385h0.768c0.99 0 1.794-0.803 1.794-1.793v-9.327c-0-0.991-0.803-1.794-1.794-1.794zM5.647 1.255h14.535v6.42c0 0.347 0.281 0.627 0.627 0.627h5.543v3.144h-20.706v-10.191zM15.076 18.294c-1.557-0.543-2.572-1.404-2.572-2.766 0-1.599 1.335-2.823 3.545-2.823 1.056 0 1.835 0.222 2.392 0.473l-0.473 1.71c-0.376-0.181-1.042-0.445-1.961-0.445-0.917 0-1.362 0.417-1.362 0.904 0 0.598 0.529 0.862 1.739 1.321 1.654 0.612 2.433 1.473 2.433 2.794 0 1.571-1.21 2.906-3.782 2.906-1.070 0-2.126-0.278-2.655-0.57l0.431-1.752c0.57 0.292 1.445 0.584 2.349 0.584 0.973 0 1.487-0.403 1.487-1.015 0.001-0.584-0.444-0.917-1.57-1.321zM4.662 22.229v-9.245c0.654-0.111 1.572-0.195 2.865-0.195 1.306 0 2.238 0.25 2.864 0.751 0.597 0.473 1 1.252 1 2.169s-0.305 1.697-0.862 2.225c-0.723 0.681-1.793 0.986-3.044 0.986-0.278 0-0.529-0.013-0.724-0.041v3.351h-2.099zM26.353 30.405h-20.706v-6.045h20.706v6.045zM26.977 21.116c-0.987 0.821-2.488 1.21-4.324 1.21-1.098 0-1.876-0.070-2.405-0.14v-9.203c0.779-0.125 1.794-0.195 2.864-0.195 1.779 0 2.934 0.32 3.837 1.001 0.973 0.722 1.585 1.877 1.585 3.531-0 1.794-0.654 3.031-1.558 3.795z"></path>
<path d="M23.335 14.415c-0.473 0-0.778 0.042-0.96 0.084v6.13c0.181 0.042 0.473 0.042 0.737 0.042 1.919 0.013 3.17-1.043 3.17-3.281 0.013-1.946-1.127-2.975-2.948-2.975z"></path>
<path d="M9.293 15.764c0-0.862-0.599-1.377-1.655-1.377-0.431 0-0.723 0.042-0.876 0.084v2.766c0.181 0.042 0.404 0.056 0.709 0.056 1.126 0 1.822-0.57 1.822-1.529z"></path>
</svg>
