<!-- Generated by IcoMoon.io -->
<svg version="1.1" xmlns="http://www.w3.org/2000/svg" width="32" height="32" viewBox="0 0 32 32">
<title>png-file-format-symbol</title>
<path d="M8.526 16.076c0-0.813-0.564-1.299-1.562-1.299-0.406 0-0.681 0.039-0.825 0.079v2.61c0.17 0.039 0.38 0.052 0.669 0.052 1.062 0.001 1.718-0.538 1.718-1.442z"></path>
<path d="M28.376 11.446h-0.768v-3.708c0-0.023-0.004-0.046-0.007-0.070-0.001-0.147-0.048-0.292-0.149-0.406l-6.17-7.048c-0.002-0.002-0.004-0.002-0.005-0.004-0.037-0.041-0.080-0.075-0.125-0.105-0.013-0.009-0.027-0.017-0.041-0.024-0.039-0.021-0.081-0.039-0.124-0.052-0.012-0.003-0.022-0.008-0.034-0.011-0.047-0.011-0.095-0.018-0.144-0.018h-15.163c-0.692 0-1.255 0.563-1.255 1.255v10.191h-0.768c-0.99 0-1.794 0.803-1.794 1.794v9.327c0 0.99 0.803 1.793 1.794 1.793h0.768v6.385c0 0.692 0.563 1.255 1.255 1.255h20.706c0.692 0 1.255-0.563 1.255-1.255v-6.385h0.768c0.99 0 1.794-0.803 1.794-1.793v-9.327c-0-0.991-0.803-1.794-1.794-1.794zM5.647 1.255h14.535v6.42c0 0.347 0.281 0.627 0.627 0.627h5.543v3.144h-20.706v-10.191zM13.615 19.513v2.663h-1.836v-8.84h2.335l1.836 3.239c0.524 0.931 1.049 2.032 1.442 3.030h0.039c-0.131-1.168-0.17-2.361-0.17-3.686v-2.584h1.837v8.84h-2.098l-1.889-3.41c-0.526-0.944-1.102-2.085-1.536-3.121l-0.039 0.013c0.054 1.168 0.079 2.414 0.079 3.856zM4.157 22.175v-8.722c0.617-0.105 1.482-0.184 2.702-0.184 1.233 0 2.112 0.236 2.702 0.708 0.563 0.446 0.944 1.18 0.944 2.046s-0.288 1.601-0.813 2.099c-0.682 0.643-1.692 0.931-2.872 0.931-0.263 0-0.499-0.013-0.682-0.039v3.161l-1.981-0.001zM26.353 30.405h-20.706v-6.045h20.706v6.045zM28.215 21.768c-0.616 0.21-1.784 0.499-2.952 0.499-1.613 0-2.781-0.407-3.594-1.194-0.813-0.761-1.26-1.915-1.246-3.214 0.013-2.938 2.151-4.617 5.050-4.617 1.141 0 2.021 0.222 2.453 0.433l-0.419 1.6c-0.486-0.21-1.089-0.381-2.060-0.381-1.665 0-2.925 0.944-2.925 2.86 0 1.823 1.142 2.899 2.781 2.899 0.459 0 0.826-0.052 0.984-0.131v-1.85h-1.365v-1.561h3.293v4.657z"></path>
</svg>
