<!-- Generated by IcoMoon.io -->
<svg version="1.1" xmlns="http://www.w3.org/2000/svg" width="35" height="32" viewBox="0 0 35 32">
<title>practice</title>
<path d="M16.956 0.061c-0.092 0.066-0.148 0.302-0.445 1.845-0.169 0.9-0.184 1.022-0.087 1.099 0.061 0.051 0.782 0.21 1.493 0.322 0.542 0.092 2.576 0.092 3.118 0.005 0.736-0.123 1.426-0.271 1.493-0.327 0.036-0.031 0.066-0.112 0.066-0.184 0-0.158-0.45-2.479-0.511-2.643-0.066-0.174-0.184-0.189-0.69-0.082-1.309 0.286-2.612 0.266-4.192-0.072-0.092-0.020-0.189-0.005-0.245 0.036zM19.885 1.201c0 0.169 0.010 0.179 0.179 0.179h0.179v0.818h-0.179c-0.169 0-0.179 0.010-0.179 0.179v0.179h-0.818v-0.179c0-0.169-0.010-0.179-0.179-0.179h-0.179v-0.818h0.179c0.169 0 0.179-0.010 0.179-0.179v-0.179h0.818v0.179z"></path>
<path d="M16.383 4.079c-0.128 0.368-0.158 1.14-0.056 1.544 0.271 1.079 1.053 1.907 2.132 2.275 0.358 0.118 0.521 0.143 0.966 0.148 0.639 0.005 0.956-0.066 1.534-0.337 0.808-0.383 1.436-1.176 1.666-2.086 0.123-0.486 0.056-1.447-0.123-1.723-0.026-0.041-0.153-0.031-0.496 0.036-1.758 0.368-3.624 0.342-5.429-0.077-0.092-0.020-0.123 0.010-0.194 0.22z"></path>
<path d="M16.22 8.736c-0.143 0.046-0.342 0.148-0.434 0.22-0.128 0.097-0.741 1.13-2.51 4.222-1.283 2.244-2.336 4.105-2.336 4.13s0.542 0.337 1.201 0.69c0.838 0.455 1.212 0.629 1.242 0.588 0.026-0.031 0.419-0.716 0.879-1.523s0.843-1.462 0.849-1.457c0.005 0.005-0.158 0.777-0.368 1.718s-0.378 1.748-0.378 1.794c0 0.056 0.537 0.373 1.718 1.012l1.718 0.925 3.256-0.833c1.789-0.46 3.328-0.854 3.42-0.874 0.087-0.020 0.164-0.051 0.164-0.066 0-0.020-0.245-1.135-0.542-2.479-0.297-1.35-0.527-2.459-0.516-2.474 0.015-0.010 0.235 0.276 0.486 0.639 0.603 0.854 0.864 1.033 1.513 1.033 0.383 0 0.399-0.005 2.668-1.227 0.951-0.511 1.81-1.002 1.902-1.094 0.394-0.363 0.527-0.971 0.317-1.452-0.138-0.322-0.475-0.644-0.762-0.731-0.184-0.056-0.225-0.097-0.332-0.332-0.245-0.532-0.782-0.93-1.421-1.048-1.14-0.21-2.234 0.654-2.259 1.779 0 0.174 0.010 0.327 0.026 0.348 0.020 0.015 0.25-0.061 0.511-0.169 0.434-0.184 0.486-0.225 0.532-0.373 0.026-0.092 0.128-0.25 0.23-0.353 0.567-0.567 1.534-0.179 1.534 0.613 0 0.608-0.716 1.068-1.247 0.792-0.077-0.041-0.169-0.077-0.194-0.077s-0.757 0.302-1.615 0.67c-1.963 0.843-2.106 0.884-2.898 0.889-0.542 0-0.665-0.015-1.068-0.148-1.114-0.368-1.932-1.222-2.249-2.362l-0.107-0.399-0.25-0.061c-0.358-0.092-0.833-0.342-1.114-0.583-0.496-0.429-0.859-1.176-0.859-1.769v-0.276h-0.215c-0.123 0.005-0.337 0.046-0.486 0.097z"></path>
<path d="M17.85 8.956c0.036 0.583 0.404 1.099 0.961 1.365 0.24 0.112 0.353 0.133 0.767 0.133 0.573 0 0.823-0.092 1.201-0.44 0.312-0.291 0.491-0.649 0.527-1.053l0.026-0.322h-3.502l0.020 0.317z"></path>
<path d="M22.236 8.879c0 0.567-0.312 1.252-0.782 1.712-0.302 0.302-0.864 0.624-1.191 0.685-0.204 0.036-0.204 0.061-0.072 0.455 0.404 1.165 1.672 1.866 2.924 1.605 0.327-0.066 2.443-0.956 2.443-1.022 0-0.031-0.511-0.777-1.135-1.666-1.196-1.692-1.288-1.794-1.758-1.937-0.399-0.118-0.429-0.107-0.429 0.169z"></path>
<path d="M3.358 11.941c-0.619 0.148-1.298 0.583-1.661 1.058-0.44 0.578-0.624 1.125-0.624 1.861 0 1.339 0.93 2.51 2.275 2.852 0.389 0.097 1.196 0.097 1.585 0 2.285-0.583 3.082-3.323 1.436-4.958-0.419-0.414-0.828-0.649-1.39-0.792-0.465-0.123-1.176-0.128-1.62-0.020z"></path>
<path d="M7.325 17.61c-1.068 0.23-1.897 1.099-2.065 2.167-0.148 0.895 0.245 1.876 0.961 2.413 0.204 0.153 8.726 4.785 9.764 5.306 0.465 0.23 0.925 0.327 1.421 0.296 0.302-0.020 1.36-0.271 4.084-0.976l3.67-0.946 3.384 1.104c3.272 1.073 3.394 1.109 3.87 1.13 0.859 0.036 1.477-0.194 2.070-0.782 0.419-0.414 0.644-0.833 0.741-1.375 0.189-1.099-0.389-2.239-1.385-2.735-0.434-0.22-7.836-2.617-8.245-2.673-0.23-0.031-0.465-0.031-0.69 0.005-0.189 0.031-1.902 0.455-3.803 0.946l-3.466 0.889-4.023-2.173c-2.219-1.196-4.187-2.254-4.381-2.351-0.603-0.307-1.252-0.389-1.907-0.245z"></path>
<path d="M1.176 21.26c-0.48 0.148-0.956 0.593-1.104 1.038-0.061 0.184-0.077 0.368-0.061 0.649 0.031 0.46 0.153 0.741 0.465 1.038 0.148 0.143 2.357 1.39 7.090 4.013 3.783 2.096 6.998 3.854 7.146 3.905 0.261 0.097 0.532 0.097 9.457 0.087l9.186-0.015 0.286-0.143c0.343-0.164 0.675-0.506 0.828-0.843 0.169-0.373 0.153-0.92-0.031-1.298-0.179-0.363-0.562-0.716-0.935-0.854-0.276-0.107-0.327-0.107-9.002-0.107h-8.721l-6.553-3.629c-3.604-1.994-6.681-3.686-6.829-3.757-0.225-0.102-0.353-0.128-0.685-0.123-0.225 0-0.465 0.020-0.537 0.041z"></path>
</svg>
