<!-- Generated by IcoMoon.io -->
<svg version="1.1" xmlns="http://www.w3.org/2000/svg" width="32" height="32" viewBox="0 0 32 32">
<title>printer</title>
<path d="M26.479 6.559h-0.822v-1.83c0-2.606-2.122-4.729-4.729-4.729h-9.928c-2.606 0-4.729 2.122-4.729 4.729v1.83h-0.749c-2.606 0-4.729 2.122-4.729 4.729v7.627c0 2.606 2.122 4.729 4.729 4.729h0.743v5.995c0 1.3 1.061 2.361 2.361 2.361h14.664c1.3 0 2.361-1.061 2.361-2.361v-5.995h0.829c2.606 0 4.729-2.122 4.729-4.729v-7.627c0-2.606-2.122-4.729-4.729-4.729zM8.055 4.729c0-1.618 1.32-2.938 2.938-2.938h9.922c1.618 0 2.938 1.32 2.938 2.938v1.83h-15.798v-1.83zM23.859 29.652c0 0.312-0.259 0.57-0.57 0.57h-14.664c-0.312 0-0.57-0.259-0.57-0.57v-9.889h15.804v9.889zM29.417 18.921c0 1.618-1.32 2.938-2.938 2.938h-0.822v-2.096h1.181c0.497 0 0.895-0.398 0.895-0.895s-0.398-0.895-0.895-0.895h-21.886c-0.497 0-0.895 0.398-0.895 0.895s0.398 0.895 0.895 0.895h1.32v2.096h-0.749c-1.618 0-2.938-1.32-2.938-2.938v-7.627c0-1.618 1.32-2.938 2.938-2.938h20.957c1.618 0 2.938 1.32 2.938 2.938v7.627z"></path>
<path d="M10.223 24.167h11.401c0.497 0 0.895-0.398 0.895-0.895s-0.398-0.895-0.895-0.895h-11.401c-0.497 0-0.895 0.398-0.895 0.895s0.405 0.895 0.895 0.895z"></path>
<path d="M21.697 26.038h-11.407c-0.497 0-0.895 0.398-0.895 0.895s0.398 0.895 0.895 0.895h11.401c0.497 0 0.895-0.398 0.895-0.895s-0.398-0.895-0.889-0.895z"></path>
<path d="M26.459 10.074h-1.817c-0.497 0-0.895 0.398-0.895 0.895s0.398 0.895 0.895 0.895h1.817c0.497 0 0.895-0.398 0.895-0.895s-0.398-0.895-0.895-0.895z"></path>
</svg>
