<!-- Generated by IcoMoon.io -->
<svg version="1.1" xmlns="http://www.w3.org/2000/svg" width="32" height="32" viewBox="0 0 32 32">
<title>prison</title>
<path d="M13.213 1.548c0-0.069 0.003-0.138 0.008-0.206-2.529 1.353-4.312 4.495-4.358 8.172h4.349v-7.966z"></path>
<path d="M18.787 9.514h4.349c-0.046-3.676-1.829-6.819-4.358-8.172 0.005 0.068 0.008 0.137 0.008 0.206v7.966z"></path>
<path d="M13.213 15.088c-0.808 0-0.651 0-2.915 0 0.671 1.125 1.546 2.045 2.555 2.673l-0.151 1.879-6.973 2.022v8.789c0 0.321-0.055 0.629-0.155 0.916h7.794c-0.1-0.287-0.155-0.595-0.155-0.916-0-0.79-0-14.948-0-15.363z"></path>
<path d="M26.271 21.663l-6.973-2.022-0.151-1.879c1.009-0.628 1.884-1.548 2.555-2.673-3.965 0-2.42 0-2.915 0 0 0.42 0 14.595 0 15.363 0 0.321-0.055 0.629-0.155 0.916h7.794c-0.1-0.287-0.155-0.595-0.155-0.916v-8.789z"></path>
<path d="M14.452 30.452c0 0.855 0.693 1.548 1.548 1.548s1.548-0.693 1.548-1.548v-15.363h-3.097v15.363z"></path>
<path d="M17.548 1.548c0-0.855-0.693-1.548-1.548-1.548s-1.548 0.693-1.548 1.548v7.966h3.097v-7.966z"></path>
<path d="M1.394 15.084v15.368c0 0.855 0.693 1.548 1.548 1.548s1.548-0.693 1.548-1.548v-15.363c-3.199 0-2.979 0.002-3.097-0.005z"></path>
<path d="M4.49 9.514v-7.966c0-0.855-0.693-1.548-1.548-1.548s-1.548 0.693-1.548 1.548v7.97c0.118-0.007-0.1-0.005 3.097-0.005z"></path>
<path d="M27.51 15.088v15.363c0 0.855 0.693 1.548 1.548 1.548s1.548-0.693 1.548-1.548v-15.368c-0.118 0.007 0.1 0.005-3.097 0.005z"></path>
<path d="M30.606 9.519v-7.97c0-0.855-0.693-1.548-1.548-1.548s-1.548 0.693-1.548 1.548v7.966c3.201 0 2.98-0.002 3.097 0.005z"></path>
<path d="M30.452 10.753h-28.903c-0.855 0-1.548 0.693-1.548 1.548s0.693 1.548 1.548 1.548h28.903c0.855 0 1.548-0.693 1.548-1.548s-0.693-1.548-1.548-1.548z"></path>
</svg>
