<!-- Generated by IcoMoon.io -->
<svg version="1.1" xmlns="http://www.w3.org/2000/svg" width="26" height="32" viewBox="0 0 26 32">
<title>profile2</title>
<path d="M11.683 0.091c-2.989 0.471-4.848 2.204-5.47 5.102-0.181 0.839-0.199 2.693-0.036 3.713 0.628 3.912 2.065 6.442 4.299 7.547 1.594 0.791 3.749 0.815 5.38 0.066 1.672-0.779 2.977-2.433 3.761-4.782 0.465-1.395 0.725-2.832 0.773-4.287 0.078-2.27-0.435-3.955-1.63-5.355-0.857-0.996-2.373-1.763-3.979-1.998-0.767-0.115-2.397-0.121-3.097-0.006z"></path>
<path d="M7.185 16.398c-0.555 0.26-1.129 0.477-2.192 0.827-1.745 0.586-2.415 1.020-3.049 1.998-0.562 0.851-0.96 2.095-1.334 4.142-0.477 2.596-0.694 5.12-0.501 5.688 0.091 0.254 0.417 0.561 0.731 0.7 0.537 0.229 2.053 0.7 3.019 0.942 1.95 0.489 4.48 0.936 6.587 1.165 1.358 0.145 4.226 0.145 5.555 0 2.657-0.296 5.422-0.815 7.499-1.407 0.912-0.26 1.968-0.616 2.24-0.755 0.199-0.103 0.465-0.362 0.574-0.568 0.302-0.537-0.127-4.528-0.773-7.245-0.465-1.944-1.129-3.152-2.095-3.792-0.531-0.35-0.755-0.447-2.162-0.924-0.628-0.217-1.425-0.513-1.763-0.664l-0.616-0.278-0.495 0.435c-1.135 1.002-2.343 1.588-3.786 1.848-0.7 0.121-2.113 0.121-2.82-0.006-1.449-0.26-2.977-1.038-3.894-1.986-0.145-0.151-0.296-0.278-0.332-0.278-0.030 0-0.211 0.072-0.392 0.157z"></path>
</svg>
