<!-- Generated by IcoMoon.io -->
<svg version="1.1" xmlns="http://www.w3.org/2000/svg" width="32" height="32" viewBox="0 0 32 32">
<title>profile</title>
<path d="M25.607 22.874l-5.095-2.547c-0.481-0.241-0.779-0.724-0.779-1.261v-1.803c0.122-0.149 0.251-0.319 0.383-0.507 0.661-0.933 1.19-1.972 1.575-3.093 0.753-0.345 1.241-1.089 1.241-1.929v-2.133c0-0.514-0.192-1.011-0.533-1.4v-2.837c0.030-0.293 0.147-2.039-1.116-3.48-1.095-1.25-2.873-1.883-5.284-1.883s-4.189 0.634-5.284 1.883c-1.263 1.441-1.146 3.187-1.116 3.481v2.837c-0.341 0.389-0.533 0.886-0.533 1.4v2.133c0 0.649 0.295 1.254 0.798 1.658 0.489 1.934 1.511 3.392 1.868 3.86v1.765c0 0.516-0.282 0.99-0.734 1.237l-4.758 2.595c-1.547 0.844-2.508 2.462-2.508 4.225v1.727c0 2.531 8.024 3.2 12.267 3.2s12.267-0.669 12.267-3.2v-1.623c0-1.834-1.019-3.483-2.659-4.303z"></path>
</svg>
