<!-- Generated by IcoMoon.io -->
<svg version="1.1" xmlns="http://www.w3.org/2000/svg" width="32" height="32" viewBox="0 0 32 32">
<title>providerreturn</title>
<path d="M12.585 0.050c-2.025 0.32-3.4 1.275-4.235 2.935-0.585 1.175-0.885 2.93-0.76 4.48 0.050 0.565 0.045 0.7-0.020 0.91-0.095 0.315-0.11 0.965-0.020 1.325 0.135 0.575 0.47 1.165 1.040 1.835 0.2 0.235 0.325 0.44 0.405 0.665 0.18 0.505 0.655 1.425 1 1.95 0.615 0.925 1.595 1.755 2.455 2.090 0.77 0.3 1.81 0.365 2.575 0.165 1.62-0.425 3.015-1.865 3.9-4.025 0.165-0.41 0.27-0.59 0.505-0.85 0.4-0.455 0.825-1.14 0.965-1.56 0.225-0.69 0.185-1.415-0.11-2-0.115-0.22-0.115-0.235-0.040-0.61 0.11-0.58 0.105-2.215-0.005-2.74-0.45-2.065-1.725-3.495-3.755-4.215-0.835-0.29-1.295-0.365-2.51-0.38-0.605-0.010-1.23 0-1.39 0.025zM17.51 5.17c0.105 0.215 0.265 0.585 0.35 0.82 0.185 0.525 0.475 1.125 0.61 1.275 0.1 0.105 0.105 0.15 0.070 0.685-0.090 1.52-0.485 3.105-1.090 4.385-0.76 1.595-1.775 2.555-2.97 2.8-0.7 0.14-1.41-0.025-2.105-0.49-1.335-0.895-2.415-3.090-2.795-5.7-0.115-0.77-0.12-0.75 0.175-0.885 0.3-0.145 1.2-0.995 1.745-1.65 0.205-0.25 0.38-0.44 0.385-0.42s-0.1 0.43-0.23 0.91c-0.13 0.48-0.22 0.88-0.2 0.89 0.095 0.040 1.76-0.565 2.32-0.84 0.605-0.29 1.355-0.815 1.93-1.34 0.275-0.25 0.28-0.255 0.335-0.145 0.080 0.175 0.41 0.535 0.49 0.535 0.040 0 0.095-0.060 0.125-0.14 0.070-0.17 0.295-1.275 0.295-1.43 0-0.3 0.1-0.165 0.56 0.74z"></path>
<path d="M26.775 13.73c-0.465 0.075-1.040 0.245-1.41 0.42-1.665 0.78-2.715 2.42-2.715 4.255 0 1.74 1.005 3.385 2.55 4.17 1.775 0.9 3.97 0.595 5.39-0.745 0.94-0.89 1.425-1.925 1.495-3.19 0.125-2.235-1.37-4.255-3.54-4.79-0.41-0.105-1.435-0.17-1.77-0.12zM27.12 16.73c0.015 0.045 0.030 0.315 0.030 0.605v0.53l0.615-0.035c1.3-0.070 1.955-0.35 2.525-1.075 0.275-0.355 0.28 0.375 0.005 0.935-0.245 0.505-0.665 0.89-1.305 1.205-0.46 0.23-1.115 0.44-1.65 0.53l-0.19 0.030v0.49c0 0.81 0.080 0.825-1.43-0.3-0.71-0.535-1.295-1-1.295-1.030 0-0.070 2.51-1.965 2.605-1.965 0.030 0 0.075 0.035 0.090 0.080z"></path>
<path d="M7.675 16.2c-1.98 0.73-2.12 0.79-2.775 1.22-1.955 1.285-3.44 3.1-4.275 5.225-0.34 0.88-0.69 2.49-0.605 2.82 0.050 0.205 1.835 1.975 2.59 2.575 2.64 2.090 5.63 3.36 9.040 3.835 0.885 0.125 3.225 0.155 4.185 0.055 2.28-0.24 4.235-0.8 6.24-1.78 2.085-1.015 4.085-2.545 5.645-4.31l0.34-0.39-0.085-0.51c-0.045-0.285-0.095-0.535-0.11-0.56s-0.15-0.030-0.3-0.015c-0.375 0.040-1.125-0.045-1.695-0.19-0.595-0.15-1.15-0.39-1.705-0.735-0.565-0.345-1.46-1.22-1.815-1.765-0.895-1.385-1.195-2.97-0.845-4.485 0.060-0.27 0.1-0.5 0.090-0.515-0.030-0.030-3.035-1.125-3.090-1.125-0.020 0-0.15 0.27-0.285 0.605-0.2 0.495-0.23 0.61-0.17 0.645 0.040 0.025 0.27 0.115 0.515 0.205 0.345 0.12 0.44 0.175 0.42 0.24-0.12 0.455-3.71 12.145-3.725 12.135-0.020-0.020-0.46-7.58-0.46-7.92v-0.21h-1.54l-0.025 0.26c-0.020 0.145-0.125 1.97-0.245 4.055-0.115 2.085-0.22 3.775-0.225 3.75-0.005-0.020-0.83-2.73-1.835-6.015-1-3.285-1.83-6.015-1.84-6.065-0.010-0.080 0.070-0.125 0.455-0.265 0.26-0.095 0.48-0.18 0.49-0.19 0.045-0.040-0.48-1.205-0.54-1.215-0.040-0.005-0.855 0.28-1.82 0.635zM22.39 26.51l-0.015 0.36-0.25 0.095c-0.39 0.145-1.3 0.375-1.825 0.455-0.69 0.11-1.875 0.195-2.235 0.155l-0.315-0.035v-0.68h0.915c1.335-0.005 2.355-0.175 3.29-0.55 0.205-0.085 0.39-0.15 0.41-0.155s0.035 0.155 0.025 0.355z"></path>
<path d="M12.71 19.040c-0.115 0.3-0.21 0.575-0.21 0.615s0.155 0.285 0.34 0.545l0.34 0.475 0.82 0.015 0.825 0.010 0.185-0.26c0.1-0.145 0.265-0.38 0.365-0.52l0.18-0.255-0.225-0.57-0.22-0.57-1.095-0.015-1.1-0.010-0.205 0.54z"></path>
</svg>
