<!-- Generated by IcoMoon.io -->
<svg version="1.1" xmlns="http://www.w3.org/2000/svg" width="32" height="32" viewBox="0 0 32 32">
<title>refresh-button</title>
<path d="M3.633 13.375c1.029 0 1.958-0.618 2.356-1.567 1.643-3.915 5.507-6.673 10.011-6.673 2.482 0 4.758 0.851 6.583 2.262l-1.43 0.221c-0.488 0.076-0.869 0.463-0.935 0.953s0.198 0.965 0.648 1.167l7.865 3.538c0.345 0.155 0.744 0.125 1.062-0.079s0.51-0.556 0.512-0.933l0.041-8.666c0.003-0.493-0.319-0.929-0.79-1.073s-0.982 0.039-1.255 0.449l-1.084 1.629c-2.89-2.845-6.85-4.604-11.217-4.604-6.621 0-12.313 4.043-14.741 9.79-0.337 0.797-0.252 1.709 0.225 2.429s1.284 1.156 2.149 1.156z"></path>
<path d="M30.516 19.781c-0.477-0.721-1.285-1.156-2.149-1.156-1.029 0-1.958 0.618-2.356 1.567-1.643 3.915-5.507 6.673-10.011 6.673-2.482 0-4.758-0.851-6.583-2.262l1.43-0.221c0.488-0.076 0.868-0.463 0.935-0.953s-0.198-0.965-0.648-1.167l-7.865-3.538c-0.345-0.155-0.744-0.125-1.062 0.079s-0.51 0.555-0.512 0.933l-0.041 8.666c-0.003 0.493 0.319 0.929 0.79 1.073s0.982-0.039 1.255-0.449l1.084-1.629c2.89 2.845 6.85 4.604 11.217 4.604 6.621 0 12.313-4.043 14.741-9.79 0.337-0.797 0.252-1.709-0.225-2.429z"></path>
</svg>
