<!-- Generated by IcoMoon.io -->
<svg version="1.1" xmlns="http://www.w3.org/2000/svg" width="32" height="32" viewBox="0 0 32 32">
<title>reload</title>
<path d="M16.507 0.675c-1.272-0.034-2.559 0.102-3.828 0.415-5.076 1.254-9.063 5.168-10.391 10.2-0.228 0.787 0.228 1.608 1.019 1.835s1.617-0.227 1.845-1.014c0.007-0.023 0.013-0.046 0.018-0.069 1.052-3.988 4.203-7.082 8.226-8.075 3.784-0.934 7.761 0.133 10.555 2.79-0.914 0.87-1.489 2.092-1.489 3.439 0 2.613 2.154 4.763 4.77 4.763s4.769-2.15 4.769-4.763c0-2.613-2.152-4.763-4.769-4.763-0.142 0-0.283 0.008-0.422 0.021-0.045-0.065-0.095-0.127-0.15-0.184-2.654-2.872-6.336-4.493-10.152-4.595zM27.231 8.409c1.005 0 1.788 0.782 1.788 1.786s-0.783 1.786-1.788 1.786-1.79-0.782-1.79-1.786 0.784-1.786 1.79-1.786z"></path>
<path d="M4.769 17.042c-2.616 0-4.769 2.15-4.769 4.763s2.152 4.763 4.769 4.763c0.142 0 0.282-0.009 0.421-0.022 0.045 0.065 0.096 0.127 0.151 0.184 2.655 2.872 6.336 4.494 10.152 4.596 1.272 0.034 2.559-0.102 3.828-0.415 5.076-1.253 9.063-5.168 10.391-10.2 0.228-0.787-0.228-1.608-1.019-1.836s-1.617 0.227-1.845 1.013c-0.007 0.023-0.013 0.046-0.018 0.070-1.052 3.988-4.203 7.082-8.226 8.075-3.784 0.934-7.761-0.133-10.555-2.79 0.914-0.87 1.489-2.092 1.489-3.439 0-2.612-2.154-4.762-4.77-4.762v0zM4.769 20.018c1.005 0 1.79 0.782 1.79 1.786s-0.784 1.786-1.79 1.786c-1.005 0-1.788-0.782-1.788-1.786s0.783-1.786 1.788-1.786z"></path>
</svg>
