<!-- Generated by IcoMoon.io -->
<svg version="1.1" xmlns="http://www.w3.org/2000/svg" width="32" height="32" viewBox="0 0 32 32">
<title>resolution</title>
<path fill="#dfaf46" d="M11.994 0.693c-0.618 0.166-0.706 0.24-2.789 2.32-2.206 2.203-2.213 2.211-2.345 3.035-0.277 1.721 1.535 3.218 3.152 2.603 0.234-0.089 0.283-0.059 0.854 0.52l0.562 0.57-5.119 5.126c-5.247 5.254-5.357 5.372-5.538 5.909-0.612 1.817 1.124 3.604 2.966 3.053 0.559-0.167 0.647-0.249 5.919-5.513l5.177-5.169 1.203 1.162-0.108 0.318c-0.669 1.981 1.441 3.782 3.367 2.875 0.564-0.265 4.163-3.89 4.438-4.469 0.911-1.919-0.926-3.997-2.93-3.313l-0.265 0.091-5.755-5.756 0.087-0.249c0.622-1.785-1.057-3.604-2.876-3.114zM12.934 2.336c0.358 0.17 0.527 0.643 0.357 1-0.126 0.265-3.543 3.654-3.788 3.756-0.618 0.258-1.242-0.396-0.962-1.009 0.113-0.249 3.45-3.612 3.721-3.751 0.199-0.102 0.452-0.101 0.672 0.004zM16.525 8.103l2.778 2.778-2.202 2.2-5.58-5.58 1.087-1.088c0.598-0.599 1.099-1.088 1.114-1.088s1.276 1.25 2.804 2.778zM8.653 17.026c-2.774 2.775-5.121 5.094-5.216 5.154-0.641 0.402-1.453-0.388-1.054-1.024 0.048-0.076 2.371-2.413 5.163-5.194l5.076-5.055 1.075 1.074-5.043 5.045zM22.006 11.346c0.226 0.148 0.325 0.376 0.304 0.702l-0.019 0.298-1.814 1.819c-1.007 1.010-1.887 1.851-1.979 1.891-0.63 0.274-1.287-0.438-0.965-1.044 0.121-0.228 3.568-3.633 3.767-3.721 0.204-0.090 0.522-0.065 0.706 0.055zM15.872 20.208c-1.072 0.179-1.867 1.035-2.004 2.155-0.171 1.402-0.013 2.297 0.446 2.521 0.296 0.145 9.947 0.161 10.226 0.017 0.44-0.227 0.456-0.291 0.436-1.766l-0.016-1.202-0.192-0.388c-0.315-0.638-0.905-1.112-1.61-1.296-0.278-0.072-6.876-0.11-7.286-0.041zM23.023 21.942c0.255 0.186 0.375 0.499 0.375 0.981v0.424h-7.936l0.002-0.397c0.003-0.599 0.148-0.918 0.484-1.068 0.294-0.131 6.89-0.075 7.075 0.060z"></path>
</svg>
