<!-- Generated by IcoMoon.io -->
<svg version="1.1" xmlns="http://www.w3.org/2000/svg" width="32" height="32" viewBox="0 0 32 32">
<title>rotate</title>
<path d="M16.001 32c-7.994 0-14.497-6.51-14.497-14.502 0-7.993 6.503-14.499 14.497-14.499 0.531 0 1.068 0.031 1.601 0.091v-2.344c0-0.301 0.186-0.575 0.46-0.692 0.285-0.111 0.601-0.049 0.819 0.168l5.137 5.148c0.292 0.292 0.292 0.759 0 1.055l-5.134 5.159c-0.218 0.213-0.535 0.278-0.821 0.162-0.274-0.118-0.46-0.389-0.46-0.689v-2.599c-0.531-0.097-1.065-0.142-1.601-0.142-5.064 0-9.185 4.12-9.185 9.183 0 5.062 4.122 9.185 9.185 9.185s9.183-4.124 9.183-9.185c0-0.411 0.334-0.747 0.749-0.747h3.814c0.413 0 0.749 0.336 0.749 0.747 0 7.992-6.508 14.502-14.496 14.502z"></path>
</svg>
