<!-- Generated by IcoMoon.io -->
<svg version="1.1" xmlns="http://www.w3.org/2000/svg" width="32" height="32" viewBox="0 0 32 32">
<title>rubbish-bin</title>
<path fill="#d80027" d="M26.465 3.768h-4.273v-2.776c0-0.559-0.451-0.992-1.010-0.992-0.054 0-0.090 0.018-0.108 0.036-0.018-0.018-0.054-0.036-0.072-0.036h-10.186c-0.559 0-0.992 0.433-0.992 0.992v2.776h-4.291c-1.226 0-2.182 0.955-2.182 2.182v3.57h1.893v20.318c0 1.226 0.937 2.163 2.163 2.163h17.181c1.226 0 2.181-0.937 2.181-2.163v-20.318h1.875v-3.57c0-1.226-0.956-2.182-2.181-2.182zM11.808 1.983h8.383v1.785h-8.383v-1.785zM24.771 29.837c0 0.127-0.054 0.18-0.18 0.18h-17.181c-0.126 0-0.18-0.054-0.18-0.18v-20.318h17.541v20.318zM26.646 7.536h-21.291v-1.587c0-0.126 0.054-0.198 0.18-0.198h20.931c0.126 0 0.18 0.072 0.18 0.198v1.587z"></path>
<path fill="#d80027" d="M19.633 11.845h2.001v16.405h-2.001v-16.405z"></path>
<path fill="#d80027" d="M15.018 11.845h2.001v16.405h-2.001v-16.405z"></path>
<path fill="#d80027" d="M10.402 11.845h2.001v16.405h-2.001v-16.405z"></path>
</svg>
