<!-- Generated by IcoMoon.io -->
<svg version="1.1" xmlns="http://www.w3.org/2000/svg" width="26" height="32" viewBox="0 0 26 32">
<title>s_tab11</title>
<path fill="#555" d="M9.31 0.766c-0.058 0.011-0.082 0.038-0.067 0.076 0.014 0.036-0.002 0.059-0.041 0.059-0.083 0-0.125-0.069-0.058-0.096 0.028-0.011 0.012-0.022-0.036-0.024-0.097-0.004-0.195 0.089-0.148 0.139 0.017 0.018-0.012 0.019-0.064 0.003s-0.117-0.010-0.146 0.014c-0.067 0.056-0.278 0.072-0.351 0.027-0.038-0.024-0.047-0.020-0.027 0.013 0.017 0.027-0 0.059-0.039 0.074-0.037 0.014-0.083 0.003-0.1-0.026-0.041-0.066-0.127-0.017-0.099 0.057 0.024 0.062-0.134 0.12-0.17 0.062-0.013-0.020-0.061-0.001-0.108 0.043-0.065 0.060-0.104 0.070-0.161 0.040-0.060-0.032-0.070-0.027-0.051 0.022 0.015 0.039 0.001 0.062-0.038 0.062-0.034 0-0.070 0.023-0.080 0.051-0.013 0.040-0.033 0.038-0.086-0.006-0.060-0.050-0.066-0.048-0.043 0.010 0.019 0.050 0.003 0.067-0.063 0.067-0.049 0-0.078 0.018-0.064 0.040s-0.022 0.051-0.078 0.065c-0.056 0.014-0.124 0.052-0.15 0.083-0.064 0.077-0.134 0.073-0.104-0.006 0.015-0.039 0.007-0.053-0.019-0.037-0.024 0.015-0.032 0.056-0.019 0.091 0.025 0.066-0.040 0.131-0.134 0.132-0.029 0-0.041-0.020-0.026-0.044 0.018-0.028-0.008-0.026-0.068 0.006-0.089 0.048-0.091 0.053-0.019 0.079 0.069 0.024 0.064 0.036-0.048 0.116-0.141 0.101-0.194 0.114-0.149 0.038 0.016-0.028-0.011-0.015-0.062 0.030-0.053 0.046-0.072 0.087-0.046 0.096 0.033 0.011 0.033 0.031-0.002 0.072-0.026 0.031-0.064 0.047-0.085 0.034s-0.035-0.008-0.032 0.011c0.013 0.077-0.007 0.112-0.038 0.063-0.025-0.039-0.053-0.029-0.112 0.040-0.078 0.092-0.078 0.092 0.002 0.032s0.080-0.060 0 0.069c-0.173 0.278-0.317 0.43-0.354 0.374-0.022-0.033-0.026-0.011-0.010 0.059 0.022 0.096 0.013 0.113-0.060 0.113-0.048 0-0.086 0.026-0.086 0.058s-0.023 0.067-0.051 0.077c-0.040 0.015-0.038 0.032 0.006 0.075 0.036 0.036 0.047 0.037 0.028 0.005-0.016-0.028-0.009-0.051 0.014-0.051s0.043-0.028 0.043-0.061c0-0.034 0.020-0.061 0.045-0.061s-0.006 0.088-0.067 0.195c-0.14 0.242-0.159 0.262-0.124 0.133 0.026-0.098 0.025-0.099-0.035-0.024-0.037 0.047-0.053 0.117-0.039 0.174 0.015 0.061 0.006 0.096-0.026 0.096-0.027 0-0.039 0.027-0.027 0.060s0.008 0.070-0.011 0.081-0.048 0.081-0.065 0.155c-0.017 0.074-0.036 0.156-0.042 0.183-0.016 0.070-0.103 0.35-0.131 0.422-0.013 0.034-0.020 0.083-0.016 0.11s-0.014 0.062-0.041 0.078c-0.032 0.020-0.037 0.012-0.015-0.024s0.017-0.044-0.014-0.024c-0.063 0.039-0.060 0.135 0.004 0.161 0.041 0.017 0.041 0.021 0 0.024-0.028 0.002-0.051 0.023-0.051 0.047s0.020 0.031 0.045 0.016c0.031-0.019 0.031-0.001-0.002 0.060-0.026 0.048-0.036 0.106-0.022 0.128s0.007 0.040-0.015 0.040-0.049-0.023-0.060-0.051c-0.011-0.028-0.018 0.041-0.016 0.154s0.011 0.173 0.020 0.133 0.035-0.072 0.058-0.072c0.025 0 0.030 0.030 0.012 0.072-0.017 0.039-0.028 0.12-0.025 0.18 0.003 0.063-0.020 0.118-0.056 0.132-0.034 0.013-0.062 0.053-0.062 0.089 0 0.040 0.020 0.054 0.051 0.036 0.041-0.023 0.041-0.018 0 0.026-0.028 0.030-0.051 0.074-0.051 0.098s0.018 0.015 0.040-0.018c0.027-0.043 0.036-0.005 0.030 0.129-0.005 0.105-0.023 0.182-0.040 0.172s-0.031 0.011-0.031 0.048c0 0.038 0.019 0.054 0.045 0.038 0.032-0.020 0.033-0.005 0.002 0.052-0.049 0.092-0.047 0.262 0.003 0.231 0.018-0.011 0.021-0.040 0.006-0.065-0.016-0.027-0.008-0.033 0.020-0.015 0.026 0.016 0.048 0.079 0.048 0.139 0 0.273 0.027 0.567 0.055 0.613 0.018 0.030 0.009 0.050-0.023 0.051-0.043 0-0.042 0.008 0.002 0.036 0.041 0.026 0.043 0.043 0.008 0.064-0.036 0.022-0.036 0.043 0.001 0.087 0.035 0.042 0.035 0.058 0.002 0.058-0.025 0-0.046 0.018-0.046 0.041s0.028 0.041 0.061 0.041c0.074 0 0.083 0.148 0.010 0.178-0.041 0.017-0.041 0.021 0 0.024 0.028 0.002 0.051 0.023 0.051 0.047s-0.023 0.032-0.051 0.017c-0.028-0.014-0.023-0.002 0.012 0.028 0.097 0.084 0.164 0.352 0.118 0.473-0.034 0.089-0.029 0.099 0.032 0.076 0.039-0.015 0.059-0.015 0.044-0s-0.010 0.071 0.010 0.125c0.027 0.070 0.023 0.098-0.013 0.099-0.035 0-0.032 0.012 0.007 0.037 0.032 0.020 0.046 0.066 0.031 0.104-0.015 0.040-0.009 0.057 0.014 0.043 0.022-0.014 0.040 0.002 0.040 0.035s-0.023 0.070-0.051 0.081c-0.031 0.012-0.022 0.022 0.020 0.024 0.066 0.003 0.091 0.070 0.075 0.198-0.004 0.028 0.017 0.052 0.046 0.052 0.041 0.001 0.040 0.009-0.003 0.036s-0.046 0.062-0.013 0.153c0.034 0.092 0.044 0.1 0.049 0.035 0.004-0.054 0.026-0.026 0.065 0.079 0.040 0.109 0.046 0.175 0.018 0.203-0.023 0.023-0.041 0.061-0.041 0.084s0.019 0.015 0.041-0.018c0.056-0.085 0.121 0.014 0.122 0.185 0 0.074 0.035 0.153 0.084 0.196 0.046 0.039 0.073 0.090 0.059 0.111s-0.009 0.040 0.010 0.040c0.019 0 0.037 0.037 0.041 0.083 0.004 0.053-0.011 0.073-0.042 0.055-0.028-0.016-0.034-0.012-0.015 0.009 0.019 0.020 0.055 0.037 0.081 0.037s0.053 0.032 0.061 0.072c0.008 0.039-0.005 0.072-0.029 0.072s-0.032 0.029-0.018 0.065c0.020 0.052 0.032 0.054 0.060 0.010s0.043-0.043 0.076 0.007c0.051 0.077 0.053 0.135 0.004 0.105-0.020-0.013-0.028 0.014-0.016 0.059s0.036 0.072 0.055 0.061c0.018-0.011 0.047 0.001 0.063 0.027 0.019 0.030 0.012 0.037-0.018 0.019-0.028-0.017-0.047-0.003-0.047 0.035 0 0.036 0.035 0.064 0.080 0.064s0.093 0.022 0.109 0.048c0.020 0.032 0.007 0.039-0.039 0.021-0.058-0.022-0.062-0.014-0.026 0.054 0.024 0.044 0.059 0.076 0.079 0.071 0.044-0.012 0.241 0.211 0.272 0.308 0.013 0.039 0.041 0.072 0.064 0.072s0.028 0.021 0.012 0.046c-0.019 0.030-0.046 0.014-0.079-0.046-0.027-0.051-0.060-0.077-0.072-0.057s0.034 0.101 0.102 0.18 0.112 0.122 0.098 0.095c-0.015-0.027-0.010-0.059 0.011-0.071 0.047-0.029 0.169 0.154 0.169 0.254 0 0.094 0.183 0.273 0.241 0.237 0.050-0.031 0.229 0.135 0.189 0.175-0.015 0.015-0.053-0.008-0.085-0.052s-0.058-0.059-0.058-0.034c0 0.067 0.211 0.222 0.27 0.199 0.028-0.011 0.149 0.053 0.269 0.142s0.269 0.184 0.331 0.211c0.062 0.027 0.113 0.064 0.113 0.082s0.028 0.032 0.061 0.032 0.061 0.018 0.061 0.040c0 0.022 0.031 0.028 0.069 0.013 0.053-0.020 0.062-0.010 0.040 0.047-0.024 0.061-0.012 0.069 0.072 0.048 0.055-0.014 0.112-0.007 0.126 0.016s-0.008 0.043-0.049 0.044c-0.045 0.002-0.054 0.011-0.021 0.024 0.029 0.012 0.078-0 0.11-0.026 0.045-0.037 0.076-0.029 0.142 0.037 0.047 0.047 0.085 0.066 0.085 0.044s0.020-0.041 0.043-0.041c0.024 0 0.033 0.017 0.020 0.038-0.035 0.056 0.060 0.101 0.109 0.052 0.048-0.048 0.166-0.017 0.134 0.035-0.011 0.019 0.001 0.047 0.027 0.063 0.029 0.018 0.037 0.012 0.020-0.015-0.015-0.024-0.010-0.055 0.011-0.068 0.057-0.035 0.259 0.052 0.229 0.1-0.036 0.059 0.076 0.051 0.141-0.010 0.045-0.042 0.049-0.040 0.023 0.010-0.024 0.046-0.020 0.050 0.017 0.016 0.055-0.050 0.25-0.027 0.25 0.029 0 0.020 0.020 0.036 0.043 0.036s0.031-0.020 0.016-0.044c-0.035-0.057 0.154-0.034 0.196 0.024 0.019 0.025 0.030 0.021 0.031-0.010 0-0.029 0.053-0.051 0.123-0.051s0.123 0.022 0.123 0.051c0 0.034 0.014 0.031 0.040-0.010s0.040-0.044 0.040-0.010c0 0.028 0.020 0.051 0.044 0.051s0.032-0.018 0.018-0.041c-0.014-0.023 0.013-0.041 0.059-0.041s0.085 0.023 0.085 0.051c0 0.035 0.010 0.037 0.031 0.007 0.048-0.071 0.431-0.131 0.536-0.085 0.071 0.032 0.102 0.024 0.145-0.034 0.034-0.047 0.074-0.062 0.108-0.041 0.035 0.022 0.044 0.017 0.024-0.014-0.016-0.026-0.011-0.047 0.011-0.047s0.049 0.023 0.061 0.051c0.013 0.033 0.022 0.027 0.024-0.016 0.003-0.073 0.208-0.134 0.208-0.063 0 0.024 0.026 0.007 0.058-0.036s0.073-0.080 0.092-0.081c0.019-0.001 0.078-0.026 0.131-0.055 0.057-0.032 0.086-0.035 0.069-0.009-0.045 0.073 0.011 0.052 0.1-0.037 0.045-0.045 0.119-0.082 0.164-0.082s0.082-0.018 0.082-0.041c0-0.023 0.017-0.036 0.038-0.031s0.068-0.027 0.105-0.072c0.047-0.058 0.073-0.067 0.088-0.031 0.028 0.068 0.1 0.066 0.074-0.002-0.011-0.029 0.036-0.106 0.104-0.171s0.124-0.109 0.124-0.098 0.085-0.061 0.19-0.16c0.119-0.114 0.2-0.165 0.218-0.136s0.071 0.001 0.146-0.078c0.065-0.068 0.104-0.123 0.087-0.123s0.021-0.048 0.084-0.106c0.063-0.058 0.092-0.094 0.064-0.079s-0.051 0.007-0.051-0.017 0.026-0.043 0.057-0.043c0.031 0 0.054-0.032 0.051-0.072-0.003-0.042 0.023-0.072 0.063-0.072 0.038-0 0.084-0.016 0.102-0.034s0.015-0.027-0.007-0.020c-0.023 0.008-0.046-0-0.051-0.017-0.027-0.080-0.002-0.113 0.085-0.113 0.068 0 0.114-0.040 0.163-0.143 0.050-0.104 0.055-0.143 0.018-0.144-0.038-0-0.037-0.009 0.003-0.034 0.029-0.019 0.049-0.051 0.044-0.071-0.018-0.070 0.096-0.254 0.184-0.296 0.048-0.023 0.064-0.044 0.035-0.045-0.041-0.002-0.042-0.022-0.006-0.090 0.038-0.071 0.054-0.077 0.087-0.031 0.032 0.044 0.036 0.042 0.018-0.014-0.012-0.039-0.004-0.082 0.019-0.096s0.032-0.052 0.020-0.083c-0.031-0.082 0.118-0.409 0.201-0.441 0.054-0.021 0.059-0.040 0.024-0.083-0.058-0.070-0.004-0.222 0.115-0.322 0.047-0.039 0.087-0.095 0.089-0.123 0.007-0.117 0.035-0.208 0.075-0.248 0.029-0.029 0.020-0.060-0.028-0.1-0.052-0.042-0.057-0.063-0.019-0.079 0.028-0.012 0.041-0.038 0.028-0.059s0.005-0.049 0.040-0.062c0.035-0.013 0.054-0.040 0.043-0.058s-0.002-0.045 0.021-0.060 0.041-0.048 0.041-0.075c-0-0.030-0.017-0.025-0.043 0.013-0.032 0.045-0.036 0.024-0.017-0.082 0.042-0.23 0.064-0.289 0.102-0.266 0.019 0.012 0.049 0 0.065-0.026 0.019-0.030 0.012-0.037-0.018-0.019s-0.047-0.002-0.047-0.055c0-0.046 0.016-0.084 0.037-0.084s0.047-0.027 0.059-0.059c0.016-0.042 0.003-0.052-0.044-0.034-0.052 0.020-0.060 0.009-0.035-0.053 0.017-0.043 0.041-0.148 0.053-0.232s0.038-0.143 0.057-0.131 0.036 0.004 0.036-0.018c0-0.022-0.021-0.047-0.047-0.056-0.035-0.012-0.035-0.036 0.003-0.096 0.040-0.064 0.046-0.065 0.028-0.008-0.012 0.039-0.006 0.072 0.015 0.072s0.034-0.063 0.029-0.139c-0.004-0.077-0.022-0.131-0.039-0.12s-0.031-0.011-0.031-0.047c0-0.040 0.019-0.055 0.047-0.037 0.033 0.020 0.040 0.002 0.024-0.059-0.013-0.049-0.008-0.079 0.011-0.067 0.068 0.042 0.094-0.156 0.027-0.205-0.066-0.048-0.051-0.245 0.015-0.204 0.018 0.011 0.047-0.001 0.063-0.027 0.019-0.030 0.012-0.037-0.018-0.019-0.083 0.051-0.102-0.098-0.023-0.185 0.063-0.069 0.066-0.089 0.017-0.119-0.050-0.031-0.050-0.051-0-0.144 0.035-0.066 0.042-0.119 0.019-0.136-0.050-0.036-0.062-0.171-0.014-0.171 0.020 0 0.036-0.041 0.036-0.092-0.001-0.076-0.008-0.081-0.043-0.031-0.033 0.048-0.040 0.034-0.034-0.061 0.004-0.068-0.007-0.156-0.024-0.197s-0.011-0.12 0.015-0.177c0.028-0.061 0.030-0.092 0.005-0.077-0.043 0.026-0.048 0.005-0.058-0.205-0.003-0.068-0.020-0.146-0.038-0.174s-0.015-0.051 0.005-0.051c0.021 0 0.036-0.054 0.033-0.119s-0.020-0.116-0.040-0.113c-0.020 0.004-0.045-0.019-0.057-0.050-0.013-0.035-0.003-0.046 0.026-0.028 0.026 0.016 0.046 0.003 0.046-0.031 0-0.033-0.030-0.071-0.066-0.085-0.041-0.016-0.058-0.055-0.045-0.105 0.011-0.044-0-0.088-0.026-0.099s-0.016-0.021 0.021-0.022c0.083-0.004 0.057-0.14-0.042-0.217-0.060-0.047-0.061-0.045-0.010 0.020 0.031 0.040 0.045 0.085 0.031 0.099-0.046 0.046-0.082-0.025-0.085-0.172-0.002-0.079-0.016-0.143-0.033-0.143s-0.027-0.065-0.024-0.144-0.010-0.157-0.028-0.174c-0.018-0.017-0.023 0.011-0.011 0.062 0.031 0.124-0.027 0.117-0.085-0.010-0.026-0.056-0.030-0.102-0.010-0.102s0.026-0.038 0.014-0.085c-0.017-0.063-0.031-0.071-0.055-0.032-0.025 0.041-0.040 0.036-0.062-0.021-0.016-0.041-0.009-0.087 0.016-0.102 0.029-0.018 0.031-0.049 0.007-0.088-0.032-0.050-0.038-0.047-0.039 0.016s-0.011 0.068-0.062 0.026c-0.068-0.056-0.085-0.143-0.021-0.103 0.023 0.014 0.030-0.002 0.016-0.038-0.013-0.035-0.039-0.054-0.057-0.043s-0.044-0.009-0.057-0.045c-0.036-0.094-0.031-0.107 0.026-0.073 0.032 0.019 0.029 0.001-0.009-0.049-0.092-0.122-0.098-0.126-0.071-0.049 0.014 0.039 0.007 0.072-0.015 0.072-0.055 0-0.119-0.178-0.074-0.207 0.020-0.013 0.007-0.059-0.029-0.102s-0.054-0.058-0.040-0.031c0.043 0.086-0.046 0.095-0.121 0.012-0.040-0.045-0.053-0.081-0.029-0.081s0.053 0.023 0.065 0.051c0.014 0.034 0.022 0.029 0.024-0.013 0.004-0.073-0.174-0.257-0.211-0.219-0.031 0.031-0.219-0.155-0.204-0.201 0.006-0.019-0.025-0.044-0.070-0.056s-0.093-0.057-0.107-0.099-0.042-0.068-0.062-0.055c-0.021 0.013-0.080-0.019-0.133-0.071s-0.144-0.12-0.204-0.152c-0.060-0.032-0.1-0.072-0.089-0.089s-0.001-0.045-0.026-0.061c-0.025-0.016-0.062-0.003-0.082 0.028-0.027 0.042-0.036 0.035-0.036-0.031-0.001-0.090-0.104-0.162-0.143-0.099-0.035 0.057-0.185-0.002-0.189-0.074-0.002-0.039-0.012-0.046-0.023-0.018-0.022 0.055-0.137 0.025-0.137-0.035 0-0.021 0.018-0.028 0.041-0.014s0.041 0.008 0.041-0.013c0-0.021-0.035-0.048-0.079-0.059-0.059-0.015-0.073-0.004-0.054 0.043 0.016 0.042 0.008 0.053-0.024 0.034-0.026-0.016-0.049-0.061-0.051-0.099-0.002-0.043-0.011-0.050-0.024-0.018-0.011 0.028-0.048 0.051-0.081 0.051s-0.050-0.017-0.037-0.037c0.013-0.020-0.015-0.027-0.061-0.015-0.057 0.015-0.127-0.016-0.214-0.096-0.071-0.065-0.107-0.089-0.081-0.054 0.042 0.056 0.032 0.062-0.070 0.047-0.088-0.013-0.113-0.035-0.098-0.085 0.013-0.041 0.008-0.051-0.013-0.025-0.042 0.052-0.23 0.069-0.198 0.018 0.013-0.020-0.042-0.029-0.122-0.018s-0.145 0.001-0.145-0.020-0.068-0.034-0.151-0.027c-0.212 0.017-0.404-0.031-0.389-0.097 0.010-0.044-0.002-0.043-0.059 0.003-0.046 0.037-0.061 0.040-0.041 0.007s0.007-0.051-0.036-0.051-0.055 0.019-0.036 0.051c0.021 0.035 0.009 0.033-0.039-0.005s-0.086-0.043-0.121-0.016c-0.028 0.022-0.162 0.041-0.297 0.042-0.209 0.002-0.224-0.003-0.102-0.030l0.143-0.031-0.131-0.005c-0.072-0.003-0.142 0.013-0.156 0.036s-0.071 0.041-0.128 0.041c-0.058 0-0.091-0.018-0.077-0.041s-0.023-0.040-0.090-0.038c-0.101 0.003-0.105 0.007-0.033 0.038 0.068 0.029 0.059 0.036-0.054 0.038-0.098 0.002-0.127-0.011-0.106-0.048 0.017-0.028-0.007-0.019-0.052 0.020-0.089 0.078-0.178 0.095-0.178 0.034 0-0.021 0.032-0.046 0.072-0.057 0.092-0.024-0.017-0.024-0.141 0zM5.107 4.086c-0.038 0.067-0.070 0.358-0.033 0.297 0.021-0.034 0.047-0.121 0.059-0.195 0.020-0.129 0.011-0.166-0.026-0.102zM5.060 8.11c0.012 0.079 0.022 0.18 0.022 0.225 0 0.062 0.009 0.068 0.036 0.025 0.031-0.051 0.015-0.147-0.056-0.332-0.013-0.034-0.014 0.003-0.002 0.082zM14.177 11.395c-0.018 0.050-0.059 0.097-0.091 0.106-0.044 0.012-0.043 0.006 0.004-0.028 0.034-0.024 0.045-0.044 0.026-0.044s-0.013-0.028 0.015-0.062c0.071-0.085 0.085-0.077 0.046 0.029zM7.045 12.282c0 0.048-0.019 0.042-0.082-0.025-0.045-0.048-0.082-0.11-0.082-0.137 0-0.030 0.032-0.020 0.082 0.025 0.045 0.041 0.082 0.102 0.082 0.137zM13.575 12.21c-0.080 0.088-0.155 0.104-0.129 0.027 0.009-0.028 0.043-0.052 0.075-0.053s0.053-0.025 0.047-0.054 0.009-0.040 0.033-0.025c0.030 0.019 0.022 0.053-0.026 0.105zM12.917 12.748c-0.042 0.069 0.028 0.088 0.091 0.026 0.056-0.056 0.056-0.062-0.003-0.062-0.036 0-0.075 0.017-0.088 0.037zM5.939 13.057c0 0.041-0.031 0.053-0.103 0.040-0.075-0.014-0.092-0.007-0.063 0.028s-0.038 0.078-0.235 0.155c-0.198 0.077-0.283 0.094-0.305 0.059s-0.030-0.031-0.031 0.008c-0 0.032-0.026 0.046-0.060 0.033-0.040-0.015-0.052-0.003-0.037 0.037s-0.004 0.059-0.054 0.059c-0.043 0-0.118 0.029-0.168 0.064s-0.11 0.052-0.132 0.039c-0.023-0.014-0.041-0.003-0.041 0.023 0 0.035-0.017 0.034-0.064-0.005-0.051-0.042-0.061-0.042-0.051-0.001 0.007 0.031-0.063 0.075-0.172 0.109-0.218 0.067-0.246 0.070-0.164 0.017 0.053-0.034 0.051-0.040-0.010-0.040-0.039-0-0.072 0.028-0.072 0.063s-0.018 0.052-0.041 0.039c-0.023-0.014-0.041-0.006-0.041 0.018s-0.019 0.043-0.043 0.043c-0.024 0-0.033-0.017-0.020-0.037 0.030-0.049-0.099-0.030-0.134 0.021-0.015 0.021-0.081 0.063-0.147 0.091-0.112 0.050-0.116 0.048-0.063-0.021 0.033-0.043 0.014-0.035-0.048 0.019-0.058 0.051-0.158 0.109-0.224 0.129s-0.154 0.050-0.198 0.067c-0.055 0.022-0.070 0.017-0.049-0.016 0.019-0.031 0.008-0.039-0.032-0.024-0.036 0.014-0.051 0.051-0.037 0.092 0.013 0.038 0.010 0.055-0.007 0.040s-0.059-0.001-0.093 0.032c-0.044 0.044-0.076 0.049-0.113 0.018-0.075-0.062-0.196-0.004-0.173 0.083 0.015 0.058-0.001 0.069-0.078 0.055s-0.091-0.004-0.070 0.052c0.020 0.053 0.010 0.063-0.044 0.042-0.045-0.017-0.061-0.011-0.044 0.017 0.036 0.058-0.111 0.191-0.248 0.225-0.079 0.020-0.104 0.048-0.090 0.101 0.011 0.041-0.006 0.084-0.038 0.096s-0.057 0.003-0.057-0.020-0.020-0.030-0.045-0.015c-0.029 0.018-0.031 0.041-0.004 0.068s0.013 0.068-0.039 0.12c-0.044 0.044-0.068 0.097-0.055 0.119s0.005 0.039-0.019 0.039c-0.024 0-0.044 0.023-0.045 0.051-0.002 0.062-0.141 0.236-0.19 0.236-0.063 0-0.146 0.171-0.104 0.213 0.072 0.072 0.007 0.201-0.089 0.178-0.048-0.012-0.064-0.011-0.036 0.002s0.051 0.042 0.051 0.063c0 0.022-0.023 0.026-0.051 0.009-0.040-0.024-0.041-0.018-0.002 0.030 0.057 0.071 0.004 0.185-0.066 0.142-0.033-0.021-0.039 0.018-0.020 0.134 0.023 0.142 0.016 0.162-0.050 0.157-0.057-0.005-0.079 0.025-0.088 0.116-0.009 0.099-0.003 0.111 0.035 0.061 0.039-0.051 0.042-0.048 0.021 0.017-0.014 0.043-0.044 0.161-0.067 0.261s-0.082 0.216-0.132 0.258c-0.050 0.042-0.068 0.077-0.040 0.077s0.051-0.020 0.051-0.046c0-0.026 0.010-0.038 0.021-0.026 0.032 0.032-0.025 0.159-0.062 0.136-0.018-0.011-0.041 0.015-0.052 0.059-0.015 0.058-0.004 0.072 0.043 0.054 0.050-0.019 0.057-0.007 0.032 0.054-0.017 0.043-0.041 0.134-0.053 0.202s-0.026 0.151-0.032 0.184-0.029 0.058-0.050 0.053c-0.021-0.004-0.039 0.019-0.039 0.051s0.015 0.059 0.034 0.059c0.058 0 0.038 0.113-0.046 0.263-0.072 0.127-0.073 0.14-0.010 0.116 0.061-0.023 0.063-0.017 0.014 0.043-0.031 0.038-0.040 0.070-0.020 0.070s0.003 0.020-0.036 0.043c-0.082 0.048-0.097 0.16-0.020 0.162 0.031 0.001 0.023 0.023-0.020 0.056-0.075 0.057-0.101 0.13-0.031 0.087 0.022-0.014 0.032-0.001 0.022 0.028s-0.028 0.155-0.040 0.279c-0.066 0.677-0.125 1.012-0.195 1.098-0.040 0.050-0.040 0.058-0.001 0.034 0.028-0.017 0.051-0.013 0.051 0.009s-0.023 0.051-0.051 0.064c-0.041 0.019-0.041 0.029 0 0.048 0.074 0.034 0.063 0.129-0.020 0.176-0.057 0.032-0.061 0.051-0.020 0.092 0.060 0.060 0.069 0.133 0.012 0.098-0.040-0.024-0.027 0.11 0.018 0.182 0.013 0.022-0.012 0.075-0.056 0.12-0.067 0.067-0.070 0.084-0.020 0.103 0.075 0.029 0.058 0.158-0.026 0.195-0.050 0.023-0.048 0.028 0.010 0.031 0.039 0.002 0.072 0.023 0.072 0.048s-0.024 0.036-0.053 0.025c-0.033-0.013-0.056 0.016-0.061 0.078-0.004 0.054 0.010 0.098 0.032 0.098s0.040 0.020 0.040 0.043c0 0.024-0.018 0.032-0.041 0.018s-0.041-0.007-0.041 0.015c0 0.022 0.023 0.050 0.051 0.061 0.037 0.016 0.032 0.034-0.018 0.065-0.042 0.026-0.068 0.093-0.065 0.169 0.002 0.069 0.017 0.104 0.033 0.077s0.021-0.083 0.009-0.125c-0.011-0.043 0-0.077 0.026-0.077 0.063 0 0.060 0.502-0.003 0.565-0.038 0.038-0.033 0.049 0.023 0.049 0.040 0 0.060 0.019 0.046 0.042s-0.046 0.029-0.070 0.014c-0.026-0.016-0.033-0.008-0.016 0.018 0.015 0.025 0.055 0.035 0.088 0.022s0.060-0.004 0.060 0.019c0 0.023-0.019 0.048-0.043 0.056-0.051 0.017-0.007 0.156 0.050 0.156 0.021 0 0.026-0.023 0.010-0.051-0.017-0.030-0.014-0.037 0.008-0.017 0.020 0.019 0.039 0.046 0.041 0.061 0.012 0.093 0.072 0.173 0.099 0.13 0.021-0.034 0.051-0.026 0.104 0.027 0.041 0.041 0.081 0.070 0.088 0.065 0.025-0.019 0.3 0.128 0.3 0.159 0 0.018 0.024 0.023 0.052 0.012s0.089 0.009 0.133 0.046c0.080 0.065 0.080 0.066-0.001 0.039-0.064-0.021-0.071-0.015-0.032 0.024 0.036 0.037 0.064 0.038 0.104 0.004 0.061-0.050 0.296 0.012 0.413 0.109 0.035 0.029 0.084 0.041 0.107 0.027 0.047-0.029 0.329 0.060 0.329 0.104 0 0.015-0.046 0.018-0.102 0.007s-0.102-0.037-0.102-0.058c0-0.021-0.020-0.026-0.044-0.012-0.063 0.039-0.031 0.058 0.2 0.119 0.131 0.035 0.22 0.040 0.245 0.015 0.058-0.058 0.377 0.037 0.377 0.112 0 0.033 0.019 0.060 0.043 0.060s0.033-0.017 0.021-0.037c-0.013-0.021 0.040-0.022 0.126-0.003 0.082 0.018 0.163 0.055 0.179 0.082 0.023 0.037 0.034 0.035 0.048-0.004 0.011-0.032 0.046-0.042 0.091-0.025 0.040 0.015 0.064 0.054 0.052 0.085-0.022 0.056 0.284 0.137 0.333 0.088 0.012-0.012-0.009-0.022-0.046-0.022s-0.068-0.016-0.068-0.035 0.082-0.017 0.183 0.007c0.1 0.023 0.174 0.056 0.163 0.073s0.002 0.045 0.028 0.061c0.030 0.019 0.037 0.012 0.019-0.018-0.048-0.078 0.079-0.054 0.195 0.037 0.075 0.059 0.101 0.066 0.084 0.024-0.028-0.072 0.096-0.068 0.141 0.005 0.017 0.027 0.051 0.032 0.084 0.012 0.031-0.019 0.113-0.017 0.183 0.004 0.157 0.048 0.35 0.083 0.445 0.081 0.039-0.001 0.091 0.035 0.114 0.078 0.050 0.094 0.122 0.105 0.122 0.018 0-0.034 0.028-0.061 0.061-0.061 0.074 0 0.082 0.068 0.011 0.092-0.028 0.009-0.008 0.028 0.044 0.041 0.072 0.019 0.089 0.011 0.071-0.036s-0.003-0.055 0.068-0.033c0.051 0.016 0.098 0.045 0.106 0.064s0.032 0.036 0.054 0.036 0.029-0.018 0.016-0.039c-0.013-0.022 0.026-0.013 0.088 0.019 0.078 0.040 0.121 0.045 0.14 0.014 0.033-0.053 0.201-0.007 0.201 0.055 0 0.027 0.023 0.024 0.061-0.007 0.072-0.059 0.19-0.026 0.175 0.050-0.006 0.030 0.037 0.058 0.102 0.065 0.081 0.009 0.113-0.005 0.113-0.053 0-0.051 0.017-0.057 0.077-0.025 0.042 0.023 0.091 0.028 0.109 0.012s0.021 0.003 0.007 0.042c-0.031 0.086 0.156 0.106 0.19 0.020 0.016-0.039 0.021-0.039 0.024-0.001 0.002 0.029 0.031 0.039 0.071 0.024 0.051-0.020 0.059-0.012 0.033 0.032-0.030 0.049-0.024 0.049 0.037-0.001 0.063-0.051 0.077-0.051 0.11 0s0.044 0.050 0.082-0.003c0.024-0.034 0.052-0.043 0.061-0.020s0.096 0.039 0.191 0.036c0.096-0.003 0.193 0.006 0.215 0.019 0.042 0.026 0.064 0.030 0.205 0.042 0.062 0.005 0.069 0.015 0.026 0.042-0.038 0.024-0.019 0.035 0.061 0.034 0.064-0 0.094-0.009 0.066-0.019s-0.042-0.034-0.029-0.054c0.012-0.020 0.049-0.025 0.082-0.013s0.052 0.036 0.043 0.051c-0.010 0.015 0.027 0.032 0.082 0.036s0.099-0.006 0.099-0.024c0-0.060 0.235-0.050 0.287 0.012 0.028 0.034 0.090 0.060 0.138 0.058 0.078-0.004 0.077-0.007-0.015-0.037-0.085-0.027-0.071-0.033 0.082-0.036 0.133-0.003 0.167 0.008 0.123 0.036-0.034 0.022-0.047 0.040-0.030 0.040s0.066-0.021 0.109-0.048c0.060-0.038 0.1-0.038 0.174 0l0.096 0.049-0.102-0.023c-0.091-0.020-0.094-0.017-0.027 0.025 0.055 0.034 0.088 0.035 0.121 0.002 0.025-0.025 0.129-0.044 0.232-0.042 0.142 0.002 0.167 0.011 0.104 0.038-0.060 0.026-0.024 0.036 0.136 0.038 0.135 0.002 0.208-0.013 0.192-0.038-0.014-0.023 0.019-0.041 0.076-0.041 0.056 0 0.11 0.023 0.12 0.051 0.015 0.041 0.036 0.041 0.105 0 0.104-0.061 0.293-0.068 0.293-0.010 0 0.023 0.038 0.041 0.084 0.041 0.051 0 0.073-0.018 0.056-0.045-0.020-0.032 0.023-0.037 0.146-0.016 0.141 0.024 0.168 0.019 0.143-0.026s-0.021-0.046 0.024-0.004c0.030 0.028 0.075 0.051 0.098 0.051s0.015-0.018-0.018-0.040c-0.048-0.031-0.036-0.040 0.054-0.040 0.066-0 0.104 0.017 0.090 0.040-0.014 0.023-0.007 0.041 0.015 0.041s0.049-0.023 0.061-0.051c0.016-0.040 0.021-0.040 0.024 0.001s0.024 0.039 0.095-0.006c0.051-0.032 0.138-0.061 0.195-0.064s0.222-0.009 0.369-0.014c0.146-0.005 0.279-0.026 0.294-0.047 0.016-0.022 0.058-0.014 0.1 0.020 0.045 0.037 0.061 0.040 0.042 0.008-0.022-0.037 0.010-0.051 0.117-0.051 0.087 0 0.138 0.017 0.123 0.041s0.002 0.030 0.038 0.016c0.035-0.013 0.056-0.037 0.046-0.052-0.028-0.045 0.146-0.045 0.229-0.001 0.058 0.031 0.075 0.026 0.075-0.023 0-0.039 0.037-0.063 0.099-0.063 0.054 0 0.131-0.012 0.171-0.028 0.058-0.022 0.066-0.012 0.044 0.051-0.026 0.075-0.025 0.075 0.030 0.005 0.036-0.047 0.067-0.058 0.084-0.031 0.050 0.080 0.273 0.051 0.297-0.038 0.020-0.078 0.135-0.119 0.135-0.048 0 0.019 0.027 0.034 0.060 0.034s0.051-0.013 0.041-0.030c-0.010-0.016 0.009-0.040 0.041-0.053s0.071-0.005 0.084 0.016c0.013 0.022 0.055 0.039 0.093 0.039 0.060-0.001 0.061-0.006 0.008-0.043-0.045-0.032-0.025-0.036 0.077-0.015 0.096 0.019 0.13 0.014 0.11-0.018-0.017-0.027 0.004-0.045 0.053-0.045 0.044 0 0.090 0.023 0.102 0.051 0.012 0.030 0.022 0.020 0.024-0.023 0.002-0.041 0.022-0.063 0.045-0.048s0.029 0.046 0.014 0.070c-0.017 0.027-0.008 0.033 0.020 0.015 0.026-0.016 0.038-0.046 0.026-0.065-0.044-0.071 0.075-0.092 0.126-0.023 0.058 0.080 0.14 0.053 0.14-0.046 0-0.046 0.026-0.057 0.090-0.040 0.050 0.013 0.114 0.004 0.143-0.021 0.033-0.028 0.053-0.029 0.053-0.003 0 0.022 0.046 0.041 0.102 0.041s0.093-0.015 0.081-0.033c-0.011-0.018-0.003-0.044 0.018-0.057s0.050-0.005 0.065 0.018 0.044 0.042 0.067 0.042c0.023 0 0.030-0.018 0.016-0.041s-0.020-0.042-0.013-0.043c0.264-0.043 0.368-0.042 0.339 0.004-0.021 0.034-0.015 0.042 0.016 0.022 0.026-0.016 0.039-0.045 0.027-0.063s0.008-0.045 0.042-0.058c0.036-0.014 0.053-0.007 0.039 0.015s0.031 0.008 0.099-0.031c0.105-0.060 0.137-0.063 0.211-0.017 0.065 0.040 0.079 0.041 0.056 0.003-0.022-0.035-0.011-0.043 0.034-0.026 0.036 0.014 0.075 0.003 0.085-0.024 0.015-0.038 0.028-0.038 0.055 0 0.042 0.059 0.158 0 0.12-0.061-0.015-0.024 0.005-0.036 0.046-0.028 0.040 0.008 0.081 0.015 0.092 0.017s-0.007 0.023-0.041 0.047c-0.055 0.039-0.055 0.042 0 0.027 0.034-0.009 0.062-0.043 0.062-0.075 0-0.037 0.034-0.053 0.092-0.045 0.052 0.007 0.092-0.009 0.092-0.038 0-0.028 0.011-0.039 0.025-0.026s0.072 0.007 0.13-0.015c0.077-0.029 0.114-0.026 0.139 0.013s0.034 0.034 0.034-0.019c0-0.060 0.013-0.064 0.077-0.024 0.097 0.061 0.227 0.015 0.195-0.069-0.020-0.051-0.009-0.054 0.062-0.016 0.064 0.034 0.097 0.033 0.132-0.005s0.034-0.044-0.004-0.022c-0.028 0.016-0.051 0.007-0.051-0.019 0-0.029 0.040-0.041 0.102-0.029 0.056 0.011 0.102 0.006 0.102-0.011 0-0.040 0.209-0.125 0.344-0.14 0.059-0.006 0.107 0.002 0.107 0.020 0 0.063 0.164-0.013 0.167-0.078 0.002-0.043 0.011-0.048 0.024-0.016 0.032 0.080 0.096 0.060 0.066-0.020-0.024-0.065-0.020-0.066 0.050-0.010 0.045 0.036 0.064 0.040 0.046 0.010-0.028-0.046 0.074-0.076 0.192-0.055 0.019 0.003 0.022-0.012 0.009-0.035-0.030-0.049 0.259-0.177 0.334-0.148 0.029 0.011 0.051 0.007 0.049-0.009-0.011-0.075 0.010-0.097 0.057-0.058 0.037 0.030 0.080 0.018 0.154-0.043 0.063-0.052 0.075-0.075 0.031-0.059-0.074 0.027 0.056-0.22 0.207-0.392 0.049-0.056 0.052-0.084 0.015-0.121-0.068-0.068-0.060-0.194 0.013-0.222 0.079-0.030 0.079-0.097 0-0.097-0.044 0-0.061-0.046-0.061-0.164 0-0.094 0.020-0.164 0.046-0.164 0.030 0 0.026-0.024-0.010-0.069-0.031-0.038-0.036-0.057-0.012-0.043 0.029 0.017 0.047-0.030 0.051-0.134 0.005-0.135-0.005-0.157-0.065-0.138-0.065 0.021-0.065 0.017 0.003-0.038 0.051-0.042 0.058-0.066 0.024-0.077-0.028-0.009-0.054-0.053-0.058-0.096s-0.020-0.15-0.034-0.236c-0.020-0.119-0.014-0.149 0.025-0.125s0.041 0.017 0.005-0.028c-0.062-0.079-0.090-0.402-0.036-0.424 0.023-0.010 0.019-0.019-0.009-0.021s-0.051-0.023-0.051-0.047c0-0.024 0.015-0.034 0.034-0.022s0.034-0.006 0.034-0.039c0-0.033-0.015-0.060-0.034-0.060s-0.034-0.020-0.034-0.043 0.017-0.033 0.037-0.020c0.020 0.013 0.028-0.014 0.016-0.059s-0.035-0.073-0.051-0.063c-0.016 0.010-0.029-0.008-0.029-0.040s0.012-0.050 0.027-0.041c0.015 0.009 0.027-0.009 0.027-0.041s-0.013-0.050-0.030-0.039c-0.035 0.022-0.091-0.106-0.060-0.137 0.012-0.012 0.021 0 0.021 0.026s0.018 0.048 0.040 0.048c0.024 0 0.026-0.035 0.004-0.092-0.020-0.051-0.052-0.089-0.072-0.085s-0.039-0.033-0.043-0.081c-0.005-0.070 0.001-0.076 0.032-0.028 0.023 0.037 0.039 0.042 0.039 0.012 0-0.027-0.017-0.060-0.039-0.073s-0.029-0.049-0.018-0.080c0.012-0.031 0.002-0.068-0.021-0.082-0.029-0.018-0.027-0.054 0.007-0.112 0.039-0.066 0.039-0.089 0.002-0.103-0.027-0.010-0.039-0.044-0.026-0.077s0.002-0.059-0.023-0.059-0.045-0.029-0.045-0.064c0-0.035 0.019-0.052 0.043-0.038 0.028 0.017 0.033-0.013 0.014-0.087-0.016-0.062-0.032-0.16-0.036-0.218-0.022-0.293-0.014-0.274-0.079-0.185-0.065 0.088-0.070 0.002-0.005-0.101 0.025-0.039 0.021-0.048-0.011-0.028-0.026 0.016-0.049 0.014-0.051-0.004-0.019-0.192-0.030-0.249-0.059-0.316-0.024-0.056-0.020-0.070 0.014-0.049 0.032 0.020 0.048-0.006 0.048-0.078 0-0.059-0.017-0.097-0.037-0.085s-0.047-0.004-0.059-0.036c-0.012-0.032-0.003-0.065 0.022-0.073 0.059-0.020 0.002-0.197-0.060-0.184-0.026 0.005-0.050-0.030-0.053-0.079s-0.018-0.12-0.033-0.159c-0.015-0.039-0.006-0.096 0.020-0.127 0.038-0.046 0.034-0.052-0.020-0.031-0.037 0.014-0.067 0.006-0.067-0.020s0.020-0.045 0.044-0.045c0.024 0 0.015-0.029-0.020-0.064-0.071-0.071-0.088-0.16-0.023-0.12 0.023 0.014 0.041-0.003 0.041-0.037 0-0.036-0.024-0.053-0.057-0.041-0.078 0.030-0.166-0.22-0.104-0.295 0.025-0.030 0.030-0.077 0.011-0.107s-0.034-0.065-0.034-0.080c-0-0.015-0.017-0.043-0.038-0.061-0.022-0.020-0.025-0.013-0.008 0.017 0.016 0.028 0.013 0.051-0.007 0.051s-0.059-0.048-0.086-0.107c-0.042-0.092-0.040-0.104 0.014-0.083 0.038 0.015 0.063 0.001 0.063-0.035 0-0.038-0.024-0.050-0.068-0.033-0.046 0.018-0.058 0.011-0.038-0.022 0.017-0.027 0.002-0.059-0.035-0.073-0.052-0.020-0.055-0.037-0.016-0.084s0.037-0.056-0.009-0.046c-0.042 0.009-0.055-0.021-0.046-0.105 0.010-0.094-0.001-0.113-0.052-0.093-0.072 0.027-0.164-0.15-0.127-0.245 0.011-0.029-0-0.066-0.025-0.081-0.026-0.016-0.034-0.010-0.018 0.016 0.015 0.024 0.009 0.056-0.014 0.070-0.039 0.024-0.060-0.033-0.044-0.118 0.015-0.083-0.041-0.168-0.075-0.113-0.024 0.039-0.062 0.017-0.141-0.083-0.059-0.075-0.147-0.179-0.194-0.231s-0.091-0.126-0.096-0.164c-0.010-0.070-0.049-0.080-0.098-0.025-0.015 0.017-0.001 0.015 0.030-0.003 0.039-0.023 0.048-0.018 0.028 0.015-0.037 0.060-0.108 0.021-0.086-0.047 0.009-0.027-0.036-0.091-0.1-0.142l-0.117-0.092 0.024 0.092c0.023 0.088 0.021 0.089-0.048 0.020-0.039-0.039-0.094-0.072-0.12-0.072-0.029-0-0.024-0.018 0.013-0.045 0.049-0.035 0.043-0.040-0.031-0.024-0.051 0.011-0.092 0.002-0.092-0.021s-0.028-0.031-0.061-0.018c-0.034 0.013-0.061 0.007-0.061-0.013s-0.023-0.044-0.051-0.054 0.004-0.011 0.072-0.003c0.086 0.010 0.053-0.014-0.11-0.079-0.128-0.051-0.246-0.106-0.263-0.123s-0.059-0.029-0.095-0.027c-0.039 0.002-0.026 0.018 0.033 0.042 0.054 0.022 0.087 0.050 0.074 0.064-0.030 0.030-0.438-0.113-0.438-0.154 0-0.016-0.054-0.057-0.12-0.090-0.1-0.050-0.116-0.050-0.098-0.003 0.013 0.034-0.005 0.057-0.044 0.057-0.036 0-0.066-0.014-0.066-0.032s-0.039-0.035-0.087-0.039c-0.048-0.004-0.119-0.036-0.158-0.071s-0.1-0.054-0.135-0.040c-0.035 0.013-0.075 0.005-0.089-0.018s-0.053-0.032-0.086-0.019c-0.033 0.013-0.060 0.003-0.060-0.022s-0.036-0.045-0.079-0.045c-0.044 0-0.091-0.019-0.105-0.042s-0.042-0.032-0.061-0.020c-0.019 0.012-0.047 0.003-0.061-0.020s-0.045-0.031-0.067-0.017c-0.023 0.014-0.035-0.007-0.028-0.046s-0.010-0.080-0.038-0.089c-0.034-0.012-0.042 0.006-0.024 0.054 0.019 0.049 0.012 0.062-0.020 0.042-0.026-0.016-0.048-0.061-0.049-0.099-0-0.051-0.009-0.056-0.034-0.017-0.018 0.029-0.064 0.041-0.102 0.026s-0.058-0.042-0.046-0.062-0.006-0.025-0.041-0.012c-0.041 0.016-0.064 0.001-0.064-0.039 0-0.088-0.079-0.128-0.137-0.070-0.036 0.037-0.031 0.042 0.024 0.021 0.042-0.016 0.072-0.008 0.072 0.018 0 0.064-0.068 0.056-0.183-0.019-0.104-0.068-0.312 0.030-0.366 0.173-0.012 0.030-0.049 0.055-0.084 0.055s-0.058 0.023-0.052 0.051c0.006 0.032-0.036 0.051-0.113 0.051-0.099 0-0.124 0.018-0.128 0.093-0.006 0.123-0.052 0.165-0.099 0.090-0.030-0.047-0.038-0.039-0.039 0.037-0 0.074-0.018 0.092-0.077 0.077-0.042-0.011-0.074 0.001-0.072 0.026s-0.012 0.049-0.032 0.052c-0.021 0.004-0.054 0.036-0.074 0.073s-0.055 0.055-0.076 0.042c-0.021-0.013-0.027-0.044-0.012-0.069 0.017-0.027 0.008-0.033-0.023-0.014-0.028 0.017-0.040 0.056-0.028 0.088 0.027 0.069-0.121 0.161-0.16 0.098-0.014-0.023-0.043-0.031-0.065-0.018s-0.030 0.037-0.020 0.054c0.010 0.017-0.017 0.052-0.059 0.079-0.066 0.041-0.075 0.038-0.058-0.023 0.013-0.047 0.005-0.043-0.024 0.012-0.071 0.133-0.45 0.318-0.45 0.22 0-0.026 0.030-0.034 0.072-0.018 0.055 0.021 0.060 0.016 0.024-0.021-0.058-0.058-0.137-0.017-0.137 0.070 0 0.040-0.023 0.055-0.064 0.039-0.035-0.013-0.054-0.008-0.041 0.011 0.023 0.038-0.539 0.225-0.812 0.27-0.112 0.019-0.17 0.010-0.194-0.028-0.026-0.041-0.034-0.037-0.035 0.016-0 0.043-0.023 0.062-0.058 0.048-0.032-0.012-0.069-0.002-0.084 0.022-0.035 0.056-0.104 0.057-0.104 0 0-0.024 0.021-0.030 0.047-0.014 0.029 0.018 0.036 0.011 0.018-0.018-0.037-0.061-0.147-0.062-0.147-0.002 0 0.027-0.042 0.038-0.101 0.026-0.056-0.011-0.092-0.005-0.081 0.013 0.049 0.079-0.221 0.096-0.277 0.018-0.019-0.027-0.058-0.023-0.112 0.010-0.104 0.064-0.257 0.066-0.32 0.004-0.036-0.036-0.063-0.035-0.111 0.005-0.050 0.041-0.063 0.041-0.063 0.001 0-0.039-0.017-0.037-0.069 0.005-0.038 0.031-0.058 0.037-0.044 0.014 0.016-0.026-0.039-0.045-0.142-0.049-0.092-0.004-0.182-0.031-0.201-0.060-0.027-0.043-0.049-0.043-0.116-0.002-0.112 0.069-0.19 0.068-0.132-0.002 0.034-0.040 0.019-0.055-0.064-0.062-0.059-0.005-0.119 0.009-0.132 0.030-0.015 0.024-0.065 0.016-0.125-0.019-0.191-0.109-0.212-0.114-0.248-0.057-0.028 0.045-0.036 0.046-0.037 0.003-0-0.035-0.029-0.045-0.083-0.028-0.088 0.028-0.116-0.041-0.031-0.076 0.028-0.012-0.006-0.011-0.077 0.001s-0.172-0.002-0.225-0.032c-0.053-0.030-0.123-0.048-0.154-0.042-0.035 0.007-0.048-0.011-0.034-0.049 0.036-0.093-0.017-0.117-0.083-0.037-0.055 0.066-0.057 0.067-0.037 0.001 0.012-0.039 0.002-0.083-0.024-0.098-0.029-0.018-0.034-0.009-0.013 0.025 0.025 0.041 0.007 0.047-0.081 0.025-0.12-0.030-0.237-0.123-0.201-0.159 0.012-0.012-0.012-0.018-0.053-0.015s-0.071-0.014-0.066-0.038c0.004-0.024-0.018-0.044-0.049-0.044s-0.047 0.017-0.034 0.037c0.013 0.021-0.032 0.009-0.099-0.026s-0.133-0.092-0.147-0.127c-0.013-0.035-0.039-0.061-0.056-0.058-0.085 0.014-0.134-0.010-0.134-0.067 0-0.034-0.028-0.073-0.061-0.086s-0.052-0.039-0.040-0.057c0.011-0.019-0.001-0.047-0.027-0.063-0.031-0.019-0.037-0.012-0.016 0.022 0.022 0.036 0.008 0.046-0.045 0.035-0.042-0.009-0.071-0.041-0.065-0.070 0.007-0.033-0.012-0.045-0.050-0.030-0.036 0.014-0.092-0.015-0.135-0.069-0.040-0.051-0.087-0.096-0.104-0.101s-0.068-0.044-0.113-0.089c-0.077-0.077-0.072-0.101 0.017-0.084 0.021 0.004 0.014-0.021-0.015-0.057-0.059-0.071-0.103-0.087-0.063-0.023 0.014 0.023 0.009 0.041-0.010 0.041-0.049 0-0.134-0.090-0.133-0.141 0-0.024 0.020-0.015 0.044 0.018 0.034 0.049 0.040 0.049 0.028 0.003-0.021-0.078-0.195-0.089-0.195-0.012zM1.655 15.661c-0.024 0.062-0.099 0.096-0.099 0.045 0-0.029 0.099-0.136 0.114-0.123 0.006 0.006-0 0.041-0.015 0.078zM0.616 19.352c-0.027 0.033-0.043 0.081-0.034 0.107s0.038-0.001 0.064-0.060c0.055-0.12 0.044-0.137-0.030-0.047zM0.573 19.589c-0 0.028-0.012 0.096-0.027 0.15-0.015 0.058-0.010 0.089 0.012 0.075 0.040-0.025 0.073-0.276 0.037-0.276-0.012 0-0.021 0.023-0.022 0.051zM12.269 24.778c-0.013 0.021 0.013 0.036 0.059 0.032s0.083-0.021 0.083-0.038c0-0.045-0.113-0.040-0.142 0.006z"></path>
</svg>
