<!-- Generated by IcoMoon.io -->
<svg version="1.1" xmlns="http://www.w3.org/2000/svg" width="40" height="32" viewBox="0 0 40 32">
<title>s_tab12</title>
<path fill="#555" d="M7.27 3.309c-0.068 0.036-0.169 0.069-0.225 0.073s-0.125 0.010-0.152 0.013c-0.029 0.003-0.039 0.034-0.024 0.073 0.016 0.042 0.010 0.058-0.017 0.042-0.056-0.035-0.298 0.087-0.328 0.164-0.017 0.044-0.031 0.047-0.053 0.012-0.019-0.030-0.046-0.001-0.074 0.078-0.024 0.070-0.054 0.127-0.066 0.127s-0.009-0.032 0.006-0.072c0.024-0.063 0.018-0.065-0.042-0.015-0.038 0.031-0.069 0.082-0.069 0.113s-0.032 0.057-0.072 0.057c-0.060 0.001-0.062 0.007-0.011 0.039 0.052 0.033 0.050 0.042-0.010 0.065-0.039 0.015-0.071 0.054-0.071 0.087s-0.015 0.050-0.033 0.039c-0.018-0.011-0.067 0.036-0.108 0.106s-0.054 0.114-0.028 0.098 0.047-0.011 0.047 0.011c0 0.022-0.019 0.046-0.041 0.054-0.101 0.034-0.167 0.934-0.076 1.046 0.038 0.047 0.040 0.059 0.005 0.038-0.028-0.017-0.051-0.012-0.051 0.010s0.020 0.053 0.045 0.069c0.088 0.054 0.157 0.279 0.105 0.343-0.037 0.046-0.036 0.052 0.003 0.028 0.036-0.021 0.051 0.001 0.051 0.072 0 0.057 0.023 0.118 0.051 0.136 0.075 0.048 0.19 0.201 0.119 0.158-0.037-0.022-0.032 0.003 0.015 0.074 0.039 0.059 0.086 0.097 0.106 0.085s0.024 0.011 0.009 0.052c-0.015 0.041-0.012 0.061 0.005 0.045 0.032-0.029 0.172 0.085 0.158 0.128-0.004 0.013 0.033 0.046 0.082 0.073s0.075 0.050 0.057 0.051c-0.018 0.001 0.007 0.043 0.054 0.094l0.086 0.092-0.106 0.013c-0.058 0.007-0.096 0.028-0.085 0.047s-0.016 0.025-0.061 0.013c-0.045-0.012-0.082-0.002-0.082 0.022s-0.064 0.056-0.143 0.071c-0.079 0.015-0.133 0.043-0.12 0.063s-0.006 0.036-0.041 0.036-0.064 0.018-0.064 0.041c0 0.023-0.014 0.039-0.031 0.036-0.095-0.015-0.173 0.011-0.164 0.056 0.006 0.030-0.033 0.052-0.092 0.054-0.060 0.002-0.098 0.024-0.091 0.054 0.006 0.028-0.005 0.041-0.026 0.029s-0.084 0.024-0.142 0.082c-0.065 0.064-0.126 0.093-0.159 0.075-0.029-0.017-0.041-0.017-0.026-0 0.034 0.037-0.12 0.198-0.164 0.171-0.017-0.011-0.076 0.053-0.131 0.142s-0.118 0.162-0.141 0.162c-0.065 0.001-0.226 0.188-0.226 0.262 0 0.037-0.027 0.077-0.059 0.090s-0.050 0.047-0.038 0.076-0.002 0.068-0.029 0.085c-0.034 0.021-0.041 0.013-0.020-0.027 0.016-0.032 0.001-0.022-0.035 0.022s-0.064 0.111-0.064 0.149-0.029 0.081-0.064 0.094c-0.043 0.016-0.056 0.052-0.038 0.107 0.016 0.052 0.008 0.082-0.024 0.082-0.028 0-0.039 0.012-0.025 0.026s0.006 0.063-0.018 0.107c-0.035 0.065-0.032 0.075 0.012 0.048 0.046-0.027 0.046-0.022 0.002 0.032s-0.043 0.069 0 0.087c0.040 0.016 0.041 0.022 0.002 0.024-0.071 0.005-0.065 0.256 0.009 0.354 0.033 0.044 0.061 0.064 0.061 0.045 0.001-0.032 0.283 0.121 0.329 0.178 0.036 0.046 0.17 0.083 0.143 0.040-0.014-0.022-0.005-0.040 0.018-0.040s0.043 0.018 0.043 0.039c0 0.021 0.064 0.051 0.143 0.066s0.143 0.045 0.143 0.068c0 0.025 0.057 0.030 0.143 0.014 0.089-0.017 0.143-0.011 0.143 0.016 0 0.025 0.060 0.035 0.143 0.024 0.079-0.010 0.143-0.001 0.143 0.019s0.051 0.037 0.113 0.036c0.304-0.003 0.769 0.047 0.781 0.085 0.008 0.023 0.060 0.043 0.116 0.043 0.066 0 0.091-0.016 0.072-0.047-0.020-0.033-0.011-0.036 0.028-0.010 0.069 0.044 0.447 0.050 0.42 0.006-0.010-0.017 0-0.031 0.024-0.031s0.043 0.015 0.043 0.032c0 0.052 0.385 0.022 0.402-0.031 0.022-0.065-0.202-0.295-0.264-0.271-0.027 0.010-0.060-0.008-0.073-0.042-0.016-0.040-0.006-0.051 0.027-0.032 0.028 0.016 0.006-0.020-0.049-0.080s-0.116-0.109-0.136-0.109c-0.059 0-0.153-0.11-0.121-0.142 0.016-0.016 0.010-0.025-0.012-0.021-0.087 0.018-0.147-0.003-0.123-0.042 0.014-0.023 0.009-0.041-0.010-0.041-0.139 0-0.189-0.112-0.1-0.225 0.049-0.062 0.078-0.13 0.065-0.152s0.010-0.065 0.052-0.096c0.042-0.032 0.060-0.058 0.040-0.059s-0.010-0.032 0.020-0.071c0.048-0.060 0.048-0.065-0.005-0.038-0.034 0.017-0.028 0.004 0.013-0.029s0.073-0.072 0.072-0.085c-0.002-0.013-0-0.033 0.002-0.045s0.010-0.039 0.015-0.061c0.006-0.023 0.013-0.060 0.015-0.084s0.026-0.030 0.053-0.014c0.032 0.020 0.040 0.001 0.024-0.059-0.013-0.049-0.008-0.079 0.010-0.068s0.044-0.008 0.057-0.043c0.013-0.035 0.007-0.053-0.014-0.040s-0.035-0.014-0.032-0.060c0.004-0.050 0.028-0.076 0.059-0.064 0.047 0.018 0.074-0.056 0.056-0.154-0.003-0.019 0.013-0.022 0.036-0.008 0.043 0.027 0.046 0.021 0.062-0.132 0.005-0.050 0.028-0.115 0.051-0.143s0.036-0.098 0.029-0.154c-0.007-0.056-0.003-0.079 0.009-0.051s0.039 0.051 0.060 0.051c0.023 0 0.021-0.034-0.005-0.083-0.024-0.046-0.031-0.104-0.016-0.129 0.018-0.029 0.010-0.035-0.021-0.016s-0.058-0-0.072-0.055c-0.012-0.047-0.037-0.076-0.056-0.065s-0.043 0.006-0.054-0.013c-0.011-0.018 0.043-0.038 0.12-0.043 0.084-0.006 0.141 0.009 0.141 0.038 0 0.032 0.022 0.029 0.068-0.009 0.078-0.065 0.094-0.063 0.142 0.012 0.026 0.041 0.035 0.042 0.035 0.004 0-0.028 0.037-0.051 0.083-0.051 0.097 0 0.11 0.103 0.018 0.139-0.035 0.013-0.053 0.043-0.039 0.066s0.004 0.041-0.023 0.041c-0.035 0-0.036 0.015-0.004 0.054 0.025 0.030 0.049 0.111 0.054 0.181s0.024 0.119 0.041 0.108 0.044 0.032 0.059 0.095c0.015 0.063 0.038 0.133 0.051 0.155 0.024 0.041 0.029 0.064 0.040 0.193 0.004 0.040 0.029 0.062 0.061 0.049 0.030-0.012 0.058 0.008 0.061 0.042s0.010 0.091 0.014 0.125c0.004 0.034 0.030 0.061 0.058 0.061 0.030 0 0.046 0.042 0.040 0.102-0.006 0.056 0.006 0.102 0.027 0.102s0.028 0.015 0.017 0.034c-0.011 0.018 0.006 0.085 0.039 0.148s0.059 0.137 0.059 0.165c0 0.028 0.037 0.084 0.082 0.125 0.111 0.101 0.103 0.163-0.041 0.314-0.068 0.071-0.123 0.113-0.123 0.095s-0.045 0.009-0.101 0.061c-0.055 0.052-0.097 0.107-0.092 0.122 0.011 0.036-0.24 0.289-0.285 0.288-0.019-0-0.006-0.018 0.028-0.040s0.041-0.040 0.017-0.040c-0.078-0.001-0.1 0.051-0.047 0.116 0.041 0.050 0.040 0.057-0.001 0.032-0.030-0.018-0.061-0.006-0.075 0.031-0.013 0.034-0.046 0.053-0.073 0.043-0.029-0.011-0.051 0.020-0.054 0.074-0.003 0.051 0.003 0.073 0.013 0.048 0.012-0.030 0.074-0.035 0.18-0.016 0.11 0.020 0.163 0.015 0.163-0.016s0.010-0.032 0.031-0.003c0.041 0.058 0.464 0.059 0.432 0.001-0.013-0.024 0-0.021 0.031 0.007 0.064 0.059 0.203 0.069 0.203 0.014 0-0.021 0.088-0.040 0.195-0.044s0.262-0.008 0.344-0.010c0.095-0.003 0.143-0.022 0.131-0.052-0.010-0.026 0.001-0.097 0.023-0.157 0.026-0.067 0.027-0.109 0.003-0.109-0.023 0-0.025-0.038-0.006-0.092 0.018-0.051 0.057-0.225 0.087-0.388 0.032-0.175 0.071-0.285 0.095-0.27 0.023 0.014 0.029 0.006 0.015-0.017s0.029-0.147 0.097-0.274 0.112-0.251 0.097-0.274 0.045-0.109 0.132-0.19 0.13-0.131 0.097-0.111c-0.063 0.036 0.104-0.157 0.286-0.333 0.083-0.080 0.089-0.098 0.032-0.098-0.038 0-0.090-0.037-0.114-0.083s-0.060-0.074-0.079-0.062c-0.019 0.012-0.044-0.016-0.056-0.060-0.013-0.049-0.056-0.081-0.107-0.081s-0.086-0.026-0.086-0.064c0-0.035-0.017-0.053-0.038-0.040s-0.057-0.009-0.081-0.049c-0.023-0.040-0.043-0.055-0.044-0.034s-0.030 0.003-0.066-0.041c-0.036-0.044-0.053-0.052-0.038-0.018 0.018 0.041 0.007 0.038-0.032-0.010-0.032-0.039-0.070-0.059-0.084-0.045s-0.037-0.005-0.052-0.043c-0.020-0.053-0.039-0.058-0.083-0.021s-0.057 0.032-0.057-0.019c0-0.039-0.034-0.066-0.082-0.066-0.045 0-0.082-0.018-0.082-0.040s-0.028-0.029-0.061-0.016c-0.034 0.013-0.071-0.003-0.084-0.036-0.015-0.039-0.059-0.053-0.129-0.039-0.081 0.015-0.098 0.007-0.073-0.034 0.024-0.039 0.014-0.047-0.035-0.028-0.037 0.014-0.068 0.007-0.068-0.016s-0.017-0.032-0.037-0.019c-0.021 0.013-0.033-0.008-0.027-0.045s0.044-0.073 0.085-0.079c0.041-0.006 0.113-0.053 0.16-0.103s0.057-0.075 0.022-0.054c-0.041 0.025-0.038 0.015 0.008-0.028 0.040-0.037 0.060-0.078 0.046-0.092s0.002-0.026 0.036-0.026 0.096-0.038 0.138-0.084c0.074-0.082 0.074-0.083-0.004-0.060-0.057 0.017-0.053 0.010 0.013-0.025 0.064-0.034 0.085-0.072 0.069-0.124-0.016-0.050-0.003-0.075 0.038-0.075 0.034 0 0.075-0.021 0.091-0.047 0.020-0.032 0.011-0.036-0.028-0.012-0.031 0.019-0.016-0.017 0.034-0.080s0.082-0.13 0.070-0.149-0.002-0.045 0.021-0.059c0.023-0.014 0.042-0.063 0.042-0.108 0-0.052 0.017-0.071 0.048-0.052s0.040 0.008 0.024-0.034c-0.013-0.035-0.004-0.084 0.022-0.109 0.034-0.034 0.033-0.046-0.006-0.046-0.031 0-0.039-0.020-0.020-0.051 0.055-0.088 0.057-0.195 0.003-0.195-0.037-0-0.038-0.009-0.004-0.031 0.054-0.034 0.067-0.097 0.060-0.288-0.003-0.081-0.022-0.125-0.047-0.11-0.023 0.014-0.038 0.011-0.033-0.008s-0.003-0.089-0.018-0.157-0.037-0.194-0.049-0.281c-0.027-0.186-0.054-0.241-0.106-0.209-0.021 0.013-0.026-0.008-0.011-0.047 0.016-0.042 0.011-0.060-0.014-0.045-0.023 0.014-0.072-0.038-0.109-0.116s-0.086-0.142-0.109-0.142c-0.023 0-0.076-0.032-0.117-0.072-0.212-0.2-0.343-0.291-0.393-0.272-0.031 0.012-0.066-0.012-0.080-0.053-0.017-0.054-0.070-0.077-0.189-0.084-0.098-0.006-0.201-0.043-0.254-0.092-0.088-0.082-0.305-0.119-0.259-0.044 0.024 0.039-0.072 0.030-0.232-0.021-0.064-0.020-0.076-0.013-0.050 0.029 0.028 0.046 0.022 0.046-0.032 0.002-0.046-0.038-0.074-0.040-0.093-0.008-0.018 0.029-0.044 0.031-0.075 0.006s-0.090-0.017-0.17 0.026zM17.538 3.282c-0.049 0.018-0.089 0.023-0.089 0.012s-0.039 0.006-0.087 0.039c-0.048 0.033-0.115 0.050-0.15 0.036-0.045-0.017-0.054-0.009-0.030 0.031 0.025 0.041 0.015 0.048-0.039 0.027-0.040-0.015-0.098-0.008-0.128 0.017s-0.077 0.032-0.104 0.015c-0.031-0.019-0.038-0.013-0.020 0.017 0.016 0.026 0.012 0.047-0.009 0.047s-0.1 0.054-0.176 0.12c-0.076 0.066-0.147 0.106-0.159 0.088s-0.058 0.005-0.103 0.050c-0.045 0.045-0.059 0.069-0.031 0.053 0.035-0.020 0.043-0.008 0.025 0.037-0.014 0.036-0.051 0.056-0.081 0.044s-0.056-0.005-0.056 0.015c0 0.020-0.032 0.069-0.072 0.108s-0.072 0.088-0.072 0.107c0 0.019-0.027 0.052-0.060 0.072s-0.049 0.049-0.034 0.063-0.005 0.062-0.042 0.106c-0.038 0.044-0.070 0.093-0.072 0.109s-0.018 0.062-0.035 0.102-0.024 0.127-0.014 0.195c0.010 0.067 0.005 0.122-0.011 0.122s-0.028 0.092-0.028 0.204c0 0.139 0.015 0.195 0.046 0.176 0.025-0.015 0.022 0.002-0.007 0.038-0.043 0.053-0.043 0.069 0 0.087 0.042 0.017 0.042 0.022 0.001 0.024-0.039 0.003-0.037 0.027 0.011 0.1 0.037 0.056 0.051 0.128 0.035 0.171s-0.012 0.064 0.011 0.050c0.021-0.013 0.042 0.007 0.045 0.044 0.011 0.141 0.040 0.214 0.127 0.323 0.081 0.101 0.109 0.179 0.095 0.268-0.003 0.017 0.030 0.031 0.073 0.031 0.056 0 0.072 0.021 0.058 0.077-0.011 0.043 0.003 0.091 0.031 0.109 0.036 0.022 0.041 0.014 0.016-0.026-0.029-0.049-0.024-0.049 0.035-0.001 0.038 0.031 0.069 0.087 0.069 0.124s0.069 0.103 0.154 0.147c0.174 0.090 0.326 0.226 0.252 0.226-0.026 0-0.073-0.032-0.102-0.072-0.050-0.066-0.053-0.064-0.038 0.018 0.012 0.069 0.001 0.084-0.049 0.065-0.047-0.018-0.056-0.010-0.032 0.029 0.025 0.041 0.007 0.049-0.074 0.033-0.073-0.014-0.13 0.004-0.178 0.057-0.039 0.043-0.094 0.068-0.123 0.057s-0.079 0.006-0.11 0.038c-0.032 0.032-0.069 0.046-0.083 0.032s-0.025-0.004-0.025 0.022c0 0.026-0.036 0.048-0.080 0.048-0.116 0-0.363 0.157-0.392 0.249-0.014 0.043-0.043 0.079-0.066 0.079s-0.028-0.020-0.013-0.045c0.020-0.032 0.002-0.031-0.059 0.001-0.048 0.026-0.087 0.075-0.087 0.109s-0.017 0.052-0.038 0.039c-0.021-0.013-0.088 0.019-0.149 0.072-0.117 0.1-0.091 0.274 0.040 0.274 0.031 0 0.053 0.032 0.050 0.071s0.022 0.072 0.056 0.074c0.034 0.002 0.057 0.025 0.051 0.052s0.008 0.049 0.031 0.049c0.023 0 0.041 0.031 0.041 0.068s0.012 0.056 0.027 0.041c0.044-0.044 0.137 0.057 0.137 0.148 0 0.046 0.032 0.121 0.072 0.166 0.051 0.059 0.054 0.072 0.010 0.047-0.054-0.030-0.054-0.025 0 0.044 0.096 0.122 0.212 0.345 0.18 0.345-0.016 0 0.006 0.040 0.049 0.089s0.053 0.074 0.021 0.056c-0.040-0.023-0.049-0.016-0.031 0.024 0.014 0.031 0.037 0.089 0.051 0.129s0.042 0.072 0.063 0.072c0.023 0 0.024 0.026 0.001 0.067-0.021 0.037-0.024 0.127-0.007 0.201s0.021 0.185 0.009 0.246c-0.026 0.136 0.056 0.192 0.318 0.214 0.101 0.009 0.207 0.035 0.236 0.058 0.037 0.030 0.051 0.027 0.052-0.014 0-0.044 0.009-0.043 0.040 0.005 0.035 0.055 0.040 0.055 0.041 0 0.001-0.050 0.008-0.051 0.037-0.006 0.028 0.045 0.039 0.045 0.053 0.003 0.012-0.036 0.037-0.040 0.077-0.015 0.081 0.052 0.325 0.052 0.326-0.001 0-0.028 0.011-0.029 0.031-0.002 0.047 0.064 0.142 0.071 0.18 0.012 0.024-0.037 0.044-0.040 0.065-0.010 0.041 0.059 0.235 0.045 0.316-0.022 0.055-0.045 0.061-0.044 0.042 0.007-0.027 0.072 0.307 0.083 0.359 0.012 0.020-0.027 0.030-0.025 0.031 0.003 0.001 0.048 0.144 0.051 0.191 0.004 0.015-0.015 0.048-0.028 0.073-0.028s0.017 0.018-0.017 0.040c-0.054 0.035-0.054 0.040 0.002 0.040 0.035 0 0.088-0.022 0.119-0.051 0.044-0.041 0.049-0.041 0.026 0-0.016 0.028-0.009 0.051 0.014 0.051s0.043-0.018 0.043-0.041c0-0.023 0.020-0.041 0.043-0.041s0.032 0.018 0.018 0.041c-0.015 0.024 0.035 0.041 0.123 0.041s0.138-0.017 0.123-0.041c-0.023-0.037 0.123-0.062 0.259-0.043 0.030 0.004 0.081-0.014 0.113-0.041 0.033-0.028 0.058-0.031 0.058-0.008 0 0.042 0.187 0.033 0.369-0.016 0.056-0.015 0.112-0.030 0.123-0.032s0.045-0.020 0.075-0.039c0.032-0.020 0.073-0.016 0.1 0.011 0.057 0.057 0.125 0.060 0.090 0.003-0.017-0.027 0.013-0.035 0.080-0.023 0.065 0.012 0.097 0.003 0.081-0.022-0.014-0.023-0.001-0.037 0.030-0.032s0.129-0.006 0.219-0.026 0.178-0.032 0.196-0.027c0.018 0.005 0.043-0.019 0.056-0.053s0.041-0.062 0.063-0.062c0.021 0 0.028 0.018 0.014 0.040s0.002 0.030 0.038 0.016c0.035-0.013 0.053-0.041 0.040-0.062s0.033-0.057 0.103-0.082 0.126-0.062 0.126-0.083c0-0.022 0.022-0.026 0.048-0.010 0.032 0.020 0.039 0.008 0.022-0.037-0.014-0.037-0.011-0.076 0.008-0.088s0.025-0.072 0.015-0.134c-0.015-0.093-0.009-0.102 0.030-0.052 0.041 0.052 0.044 0.050 0.024-0.014-0.013-0.041-0.024-0.111-0.024-0.156 0-0.049-0.018-0.070-0.045-0.053-0.031 0.019-0.037-0.010-0.018-0.096 0.018-0.080 0.009-0.135-0.022-0.155-0.034-0.021-0.039-0.014-0.017 0.023 0.021 0.034 0.017 0.044-0.012 0.026-0.025-0.015-0.038-0.064-0.029-0.109 0.009-0.047-0.027-0.127-0.084-0.189-0.107-0.115-0.128-0.159-0.056-0.115 0.024 0.015 0.020-0.012-0.010-0.059s-0.069-0.086-0.087-0.086-0.023-0.016-0.011-0.036c0.012-0.020-0.023-0.067-0.079-0.103s-0.102-0.094-0.102-0.127-0.029-0.060-0.064-0.060c-0.035 0-0.052-0.018-0.039-0.041s-0.013-0.041-0.059-0.041c-0.075 0-0.104-0.042-0.089-0.133 0.003-0.017-0.018-0.026-0.046-0.020s-0.047-0.013-0.041-0.041c0.006-0.028-0.015-0.051-0.046-0.051s-0.087-0.047-0.125-0.104c-0.037-0.057-0.086-0.093-0.107-0.080s-0.039 0.003-0.039-0.024c0-0.026-0.025-0.038-0.055-0.026s-0.103-0.023-0.162-0.078c-0.059-0.054-0.125-0.099-0.148-0.099s-0.061-0.037-0.085-0.082c-0.024-0.045-0.066-0.082-0.094-0.081-0.032 0-0.028 0.016 0.012 0.045 0.051 0.037 0.049 0.040-0.014 0.020-0.041-0.013-0.084-0.024-0.095-0.024s-0.006-0.021 0.010-0.047c0.019-0.031 0.011-0.036-0.023-0.015-0.030 0.019-0.066 0.009-0.085-0.022-0.019-0.030-0.086-0.056-0.149-0.058s-0.112-0.023-0.107-0.047c0.005-0.025-0.038-0.036-0.102-0.026-0.077 0.012-0.094 0.006-0.056-0.021 0.043-0.030 0.036-0.043-0.029-0.060-0.046-0.012-0.090-0.002-0.098 0.023-0.010 0.031-0.024 0.029-0.045-0.004-0.017-0.027-0.010-0.049 0.015-0.049s0.034-0.019 0.020-0.042c-0.014-0.023-0.002-0.037 0.026-0.031s0.053-0.016 0.054-0.050c0.001-0.034 0.033-0.062 0.072-0.062s0.094-0.027 0.123-0.060c0.044-0.049 0.042-0.053-0.011-0.020-0.035 0.021-0.003-0.013 0.072-0.078s0.135-0.153 0.135-0.197c0-0.050 0.018-0.069 0.047-0.051s0.036 0.011 0.019-0.016c-0.034-0.056 0.058-0.213 0.124-0.213 0.026 0 0.060-0.072 0.075-0.161s0.055-0.171 0.089-0.184c0.045-0.017 0.054-0.057 0.035-0.147-0.015-0.071-0.010-0.123 0.013-0.123s0.047-0.064 0.056-0.143c0.010-0.083-0.001-0.144-0.026-0.144-0.024-0-0.019-0.016 0.011-0.035 0.043-0.027 0.045-0.090 0.009-0.317-0.025-0.156-0.044-0.338-0.043-0.406 0.001-0.095-0.008-0.109-0.039-0.061-0.043 0.065-0.062 0.017-0.045-0.113 0.004-0.028-0.015-0.051-0.040-0.051s-0.037-0.027-0.024-0.059c0.014-0.035-0.008-0.069-0.053-0.083-0.053-0.017-0.070-0.051-0.056-0.115 0.015-0.069 0.010-0.077-0.021-0.033-0.032 0.046-0.044 0.037-0.055-0.041-0.009-0.066-0.039-0.097-0.088-0.093-0.048 0.004-0.067-0.014-0.053-0.051 0.012-0.031-0.001-0.052-0.028-0.047s-0.045-0.013-0.040-0.040c0.006-0.031-0.016-0.040-0.058-0.024-0.053 0.020-0.062 0.010-0.040-0.047 0.021-0.054 0.012-0.067-0.034-0.049-0.034 0.013-0.062 0.008-0.062-0.011s-0.064-0.066-0.143-0.103c-0.079-0.037-0.143-0.086-0.143-0.107s-0.014-0.037-0.031-0.034c-0.017 0.003-0.040 0.001-0.051-0.003-0.045-0.018-0.191-0.044-0.297-0.053-0.068-0.006-0.113-0.034-0.113-0.071-0.001-0.051-0.007-0.052-0.036-0.005-0.023 0.036-0.056 0.044-0.092 0.021-0.073-0.046-0.446-0.053-0.56-0.011zM18.268 7.339c0 0.030-0.065 0.048-0.092 0.026-0.006-0.005-0.062 0.044-0.126 0.107-0.111 0.111-0.134 0.356-0.026 0.289 0.022-0.013 0.040 0.013 0.040 0.060s0.020 0.084 0.043 0.084c0.024 0 0.032 0.018 0.018 0.041s-0.008 0.041 0.014 0.041c0.022 0 0.029 0.040 0.016 0.088-0.017 0.066-0.009 0.080 0.031 0.055s0.048-0.011 0.031 0.055c-0.013 0.049-0.008 0.079 0.010 0.068s0.045 0.029 0.060 0.089c0.015 0.060 0.064 0.156 0.11 0.214s0.064 0.111 0.043 0.118c-0.023 0.008-0.014 0.064 0.021 0.135 0.033 0.067 0.074 0.113 0.089 0.103s0.032 0.018 0.037 0.061c0.017 0.176 0.025 0.202 0.058 0.202 0.019 0 0.034 0.036 0.034 0.079s0.021 0.093 0.047 0.109c0.032 0.020 0.036 0.010 0.014-0.028-0.018-0.032-0.018-0.043 0.002-0.026 0.077 0.070 0.053 0.342-0.025 0.294-0.021-0.013-0.038-0.004-0.038 0.020s-0.018 0.043-0.041 0.043c-0.066 0-0.207 0.134-0.273 0.259-0.039 0.075-0.083 0.108-0.122 0.093-0.033-0.013-0.051-0.007-0.039 0.013s-0.009 0.061-0.047 0.092c-0.047 0.038-0.059 0.040-0.038 0.005 0.048-0.080 0.006-0.060-0.080 0.038-0.049 0.056-0.055 0.076-0.017 0.054 0.043-0.024 0.040-0.010-0.011 0.049-0.063 0.072-0.125 0.085-0.288 0.059-0.018-0.003-0.022-0.024-0.008-0.046s-0.004-0.041-0.041-0.041c-0.036 0-0.055-0.018-0.041-0.041s0.006-0.041-0.018-0.041c-0.024 0-0.080-0.037-0.125-0.082s-0.069-0.082-0.054-0.082c0.016 0-0.007-0.026-0.051-0.058s-0.093-0.049-0.111-0.038c-0.018 0.011-0.027-0.004-0.021-0.034s-0.013-0.049-0.043-0.043c-0.030 0.006-0.043-0.007-0.029-0.029s-0.031-0.069-0.099-0.104c-0.068-0.035-0.124-0.074-0.124-0.086s0.023-0.009 0.051 0.008c0.028 0.016 0.005-0.021-0.051-0.083s-0.098-0.12-0.093-0.13c0.033-0.063 0.119-0.127 0.148-0.11 0.019 0.011 0.030-0.014 0.026-0.056-0.015-0.137 0-0.184 0.049-0.154 0.032 0.020 0.039 0.007 0.022-0.039-0.014-0.037-0.011-0.068 0.008-0.068 0.032 0 0.095-0.223 0.075-0.265-0.005-0.010 0.028-0.048 0.073-0.085s0.060-0.055 0.032-0.041c-0.034 0.017-0.031-0.011 0.010-0.089 0.033-0.063 0.060-0.136 0.060-0.163s0.021-0.062 0.048-0.078c0.031-0.019 0.036-0.011 0.014 0.024-0.020 0.033-0.017 0.044 0.009 0.028 0.040-0.024 0.111-0.258 0.099-0.325-0.003-0.017 0.031-0.068 0.076-0.113 0.090-0.090 0.111-0.185 0.031-0.14-0.041 0.023-0.041 0.018-0.001-0.025 0.037-0.040 0.038-0.069 0.005-0.108s-0.032-0.054 0.003-0.054c0.027 0 0.037-0.019 0.023-0.042s-0.041-0.032-0.060-0.021c-0.037 0.023-0.098-0.101-0.065-0.134 0.011-0.011 0.049 0.003 0.084 0.032s0.075 0.041 0.090 0.026c0.014-0.014 0.002-0.026-0.028-0.026s-0.044-0.011-0.031-0.024c0.013-0.013 0.064-0.002 0.114 0.025 0.061 0.033 0.081 0.034 0.063 0.003-0.017-0.028 0.008-0.045 0.067-0.044 0.076 0 0.083 0.008 0.033 0.040-0.091 0.059-0.026 0.049 0.096-0.014 0.119-0.062 0.232-0.072 0.232-0.020zM12.607 7.804c-0.018 0.019-0.294 0.064-0.432 0.071-0.051 0.003-0.092 0.017-0.092 0.031s-0.041 0.022-0.092 0.018c-0.051-0.004-0.115 0.010-0.143 0.032s-0.051 0.026-0.051 0.009c0-0.017-0.034 0.008-0.076 0.056s-0.117 0.088-0.166 0.088c-0.055 0-0.079 0.017-0.062 0.045 0.019 0.031-0.001 0.036-0.064 0.016-0.060-0.019-0.083-0.014-0.066 0.013 0.030 0.049-0.019 0.087-0.147 0.111-0.050 0.010-0.119 0.048-0.154 0.085-0.046 0.049-0.047 0.059-0.006 0.035 0.039-0.022 0.048-0.017 0.028 0.015-0.016 0.026-0.044 0.039-0.062 0.028-0.033-0.020-0.252 0.188-0.263 0.25-0.003 0.019-0.021 0.030-0.040 0.023s-0.022 0.008-0.008 0.031c0.033 0.053-0.080 0.171-0.126 0.132-0.019-0.016-0.007 0.007 0.026 0.051 0.054 0.071 0.053 0.077-0.009 0.053-0.046-0.017-0.063-0.009-0.050 0.024 0.011 0.028-0.019 0.092-0.066 0.142s-0.072 0.112-0.056 0.138c0.018 0.029 0.011 0.036-0.018 0.018-0.026-0.016-0.049-0.014-0.050 0.004s-0.012 0.070-0.022 0.115c-0.010 0.045-0.030 0.151-0.043 0.236s-0.037 0.154-0.053 0.154c-0.041 0-0.038 0.135 0.005 0.19 0.023 0.030 0.014 0.055-0.026 0.070-0.034 0.013-0.062 0.072-0.062 0.13s0.016 0.096 0.036 0.084c0.041-0.025 0.091 0.123 0.054 0.16-0.046 0.046-0.050 0.2-0.007 0.228 0.024 0.015 0.048 0.095 0.052 0.177s0.023 0.15 0.041 0.15c0.018 0 0.023 0.017 0.011 0.036s0.006 0.060 0.040 0.088c0.039 0.033 0.056 0.095 0.044 0.169-0.010 0.065-0.002 0.107 0.019 0.094s0.040-0.004 0.043 0.020 0.010 0.057 0.016 0.074c0.006 0.017 0.024 0.072 0.041 0.123s0.056 0.092 0.087 0.092 0.057 0.037 0.057 0.082c0 0.045 0.020 0.082 0.043 0.082s0.032 0.018 0.018 0.041c-0.014 0.023 0.003 0.041 0.039 0.041s0.064 0.020 0.064 0.043c0 0.024-0.020 0.031-0.045 0.016-0.033-0.020-0.033-0.007-0.001 0.049 0.087 0.149 0.208 0.267 0.249 0.241 0.023-0.014 0.042-0.002 0.042 0.028s0.038 0.078 0.084 0.106c0.046 0.029 0.072 0.070 0.059 0.092-0.022 0.036 0.033 0.057 0.113 0.044 0.017-0.003 0.026 0.017 0.020 0.044s0.026 0.050 0.071 0.051c0.045 0.001 0.087 0.033 0.095 0.070 0.009 0.046-0.011 0.065-0.060 0.058-0.040-0.006-0.098 0.014-0.128 0.044s-0.077 0.055-0.103 0.054c-0.028-0-0.023-0.017 0.013-0.040s0.041-0.040 0.013-0.040c-0.026-0-0.104 0.047-0.173 0.105-0.082 0.069-0.152 0.097-0.204 0.080-0.044-0.014-0.093-0.003-0.11 0.024-0.020 0.033-0.011 0.039 0.027 0.019 0.032-0.016 0.023-0.001-0.020 0.033s-0.093 0.053-0.113 0.042c-0.019-0.012-0.035 0.002-0.036 0.032-0 0.039-0.011 0.037-0.040-0.008-0.035-0.054-0.058-0.031-0.047 0.048 0.002 0.015-0.041 0.020-0.097 0.010-0.081-0.015-0.095-0.005-0.074 0.051 0.018 0.046 0.011 0.059-0.021 0.039-0.026-0.016-0.048-0.011-0.048 0.011s-0.041 0.055-0.092 0.072c-0.090 0.030-0.123 0.038-0.225 0.050-0.028 0.003-0.051 0.027-0.051 0.053 0 0.066-0.128 0.155-0.225 0.157-0.061 0.001-0.068 0.011-0.027 0.037 0.052 0.033-0.079 0.104-0.167 0.091-0.017-0.002-0.031 0.013-0.031 0.034s-0.037 0.050-0.082 0.064c-0.045 0.014-0.082 0.049-0.082 0.077 0 0.057-0.109 0.179-0.238 0.268-0.047 0.032-0.076 0.073-0.065 0.092s-0.013 0.021-0.053 0.007c-0.041-0.015-0.060-0.012-0.044 0.007s-0.009 0.067-0.057 0.109c-0.048 0.042-0.071 0.076-0.050 0.076s0.013 0.016-0.016 0.034c-0.029 0.018-0.087 0.096-0.13 0.174s-0.1 0.134-0.128 0.127c-0.041-0.010-0.040 0.001 0.001 0.051 0.043 0.052 0.041 0.068-0.012 0.088-0.035 0.014-0.076 0.060-0.089 0.103s-0.040 0.069-0.059 0.058-0.044 0.006-0.057 0.039c-0.013 0.033-0.003 0.072 0.022 0.088 0.030 0.019 0.020 0.047-0.030 0.083-0.042 0.030-0.060 0.055-0.042 0.055s0.008 0.031-0.023 0.069c-0.046 0.057-0.046 0.063-0.001 0.036s0.046-0.017 0.009 0.054c-0.026 0.048-0.069 0.087-0.096 0.088-0.035 0-0.034 0.011 0.005 0.035 0.063 0.040 0.057 0.084-0.022 0.163-0.039 0.039-0.043 0.071-0.014 0.106 0.023 0.028 0.029 0.063 0.014 0.079-0.050 0.050-0.050 0.165 0 0.227 0.039 0.048 0.038 0.054-0.006 0.027s-0.046-0.017-0.014 0.044c0.059 0.11 0.193 0.224 0.281 0.238 0.041 0.007 0.070 0.036 0.063 0.064-0.008 0.032 0.017 0.043 0.069 0.030 0.048-0.012 0.090 0.002 0.103 0.036 0.012 0.031 0.076 0.057 0.142 0.057 0.071 0 0.13 0.026 0.144 0.064 0.018 0.048 0.061 0.058 0.171 0.041 0.080-0.013 0.137-0.009 0.126 0.009-0.019 0.031 0.063 0.048 0.248 0.050 0.050 0.001 0.103 0.022 0.119 0.048 0.019 0.031 0.010 0.035-0.025 0.014s-0.044-0.017-0.023 0.016c0.024 0.038 0.044 0.038 0.091-0.001 0.049-0.040 0.068-0.040 0.094 0.003 0.019 0.031 0.055 0.040 0.085 0.022 0.035-0.021 0.042-0.016 0.021 0.017-0.023 0.037 0.022 0.045 0.178 0.031 0.115-0.010 0.209-0.002 0.209 0.019s0.049 0.028 0.109 0.018c0.060-0.011 0.129-0.007 0.153 0.008s0.154 0.033 0.287 0.040c0.133 0.007 0.271 0.035 0.305 0.063 0.050 0.040 0.056 0.040 0.032-0.001-0.021-0.035-0.001-0.051 0.064-0.051 0.077 0 0.083 0.008 0.033 0.042-0.043 0.029 0.042 0.038 0.287 0.031 0.191-0.006 0.374 0.006 0.406 0.026 0.037 0.024 0.048 0.021 0.031-0.007-0.016-0.026 0.013-0.041 0.072-0.037 0.054 0.003 0.090 0.020 0.079 0.037s0.011 0.031 0.047 0.031c0.036 0 0.055-0.018 0.041-0.041-0.028-0.045 0.032-0.057 0.074-0.015 0.034 0.034 0.873 0.029 0.929-0.005 0.023-0.014 0.042-0.006 0.042 0.018s0.041 0.042 0.092 0.041c0.088-0.003 0.088-0.004 0.010-0.038-0.081-0.035-0.081-0.035 0.002-0.038 0.046-0.002 0.109 0.020 0.139 0.048 0.044 0.041 0.049 0.041 0.024-0.004-0.024-0.042 0.002-0.052 0.107-0.043 0.076 0.007 0.164-0.004 0.195-0.023 0.035-0.022 0.047-0.020 0.032 0.005s0.076 0.039 0.239 0.037c0.145-0.002 0.264-0.016 0.264-0.032s0.051-0.027 0.113-0.025c0.062 0.003 0.242-0.009 0.399-0.025s0.351-0.031 0.43-0.032c0.079-0.002 0.166-0.021 0.195-0.043s0.051-0.027 0.051-0.010 0.029 0.006 0.065-0.023c0.053-0.044 0.071-0.044 0.097-0.001 0.024 0.040 0.040 0.041 0.062 0.005 0.016-0.026 0.056-0.038 0.089-0.025 0.038 0.014 0.049 0.006 0.030-0.024-0.020-0.032-0.001-0.040 0.059-0.024 0.049 0.013 0.097 0.009 0.108-0.009s0.066-0.023 0.123-0.012c0.057 0.011 0.103 0.001 0.103-0.022s0.032-0.037 0.072-0.031c0.039 0.006 0.109-0.008 0.154-0.033s0.108-0.039 0.139-0.032c0.031 0.006 0.070-0.009 0.086-0.035s0.055-0.052 0.086-0.058c0.189-0.037 0.279-0.079 0.255-0.117-0.017-0.028-0.001-0.034 0.043-0.017 0.042 0.016 0.060 0.011 0.045-0.014-0.014-0.022 0.004-0.041 0.039-0.041s0.059-0.022 0.054-0.049c-0.006-0.027 0.017-0.051 0.051-0.052 0.040-0.002 0.058-0.037 0.051-0.099-0.008-0.074 0.002-0.086 0.041-0.054s0.053-0.010 0.059-0.199c0.004-0.133-0.010-0.242-0.031-0.242s-0.038-0.075-0.038-0.166c0-0.099-0.016-0.156-0.041-0.141s-0.030-0.002-0.015-0.040c0.014-0.036-0.005-0.098-0.042-0.139s-0.054-0.086-0.039-0.101-0.013-0.062-0.063-0.105c-0.065-0.056-0.075-0.084-0.037-0.099 0.040-0.016 0.041-0.022 0.002-0.024-0.028-0.002-0.051-0.026-0.051-0.055s-0.069-0.115-0.154-0.193c-0.084-0.078-0.121-0.129-0.081-0.113 0.113 0.043 0.023-0.098-0.164-0.255-0.085-0.072-0.129-0.117-0.097-0.101 0.038 0.020 0.047 0.014 0.028-0.017-0.016-0.026-0.051-0.047-0.079-0.047s-0.068-0.039-0.090-0.088c-0.022-0.048-0.055-0.085-0.072-0.081-0.034 0.007-0.146-0.085-0.144-0.118 0.004-0.078-0.016-0.094-0.050-0.041-0.026 0.041-0.040 0.044-0.040 0.010-0-0.028-0.027-0.051-0.059-0.051s-0.070-0.037-0.085-0.082c-0.023-0.074-0.069-0.1-0.121-0.072-0.010 0.006-0.066-0.053-0.123-0.131s-0.105-0.114-0.107-0.082c-0.002 0.036-0.016 0.028-0.038-0.023-0.019-0.045-0.036-0.057-0.038-0.026-0.002 0.045-0.015 0.046-0.064 0.006-0.034-0.028-0.049-0.070-0.034-0.094 0.017-0.027 0.001-0.033-0.043-0.017-0.042 0.016-0.078 0.004-0.092-0.031-0.012-0.032-0.057-0.051-0.101-0.043-0.047 0.009-0.096-0.017-0.121-0.064-0.023-0.044-0.070-0.080-0.103-0.080s-0.060-0.021-0.060-0.046c0-0.026-0.042-0.038-0.1-0.027-0.062 0.012-0.109-0.002-0.122-0.037-0.012-0.031-0.036-0.054-0.053-0.051-0.057 0.009-0.216-0.054-0.216-0.084 0-0.016-0.061-0.026-0.135-0.021-0.167 0.011-0.368-0.127-0.272-0.188 0.033-0.021 0.082-0.038 0.11-0.038s0.051-0.019 0.051-0.042 0.029-0.041 0.064-0.041c0.035 0 0.052-0.018 0.039-0.041s0.003-0.041 0.039-0.041c0.035 0 0.064-0.020 0.064-0.044 0-0.047 0.082-0.141 0.133-0.154 0.017-0.004 0.030-0.018 0.028-0.031s0.047-0.066 0.108-0.118c0.061-0.052 0.098-0.115 0.082-0.14s-0.001-0.045 0.033-0.045c0.034 0 0.072-0.053 0.087-0.12s0.054-0.13 0.088-0.143c0.034-0.013 0.051-0.040 0.039-0.060s0.002-0.057 0.033-0.082c0.033-0.027 0.047-0.090 0.034-0.155-0.018-0.092-0.009-0.104 0.052-0.081 0.059 0.023 0.064 0.017 0.025-0.030-0.037-0.045-0.034-0.063 0.017-0.083 0.036-0.014 0.053-0.044 0.038-0.068s-0.004-0.070 0.024-0.103c0.049-0.059 0.064-0.131 0.075-0.358 0.003-0.065 0.023-0.104 0.046-0.090s0.041 0.006 0.041-0.018-0.018-0.043-0.041-0.043c-0.023 0-0.041-0.029-0.041-0.064s0.014-0.055 0.031-0.045c0.044 0.027 0.038-0.228-0.007-0.298-0.025-0.039-0.022-0.065 0.010-0.075 0.027-0.009 0.048-0.034 0.048-0.056s-0.017-0.029-0.038-0.016c-0.021 0.013-0.039-0.018-0.040-0.069-0.004-0.207-0.010-0.236-0.049-0.236-0.022 0-0.029-0.018-0.016-0.041s-0.002-0.092-0.035-0.154c-0.082-0.153-0.122-0.267-0.114-0.323 0.004-0.026-0.022-0.058-0.058-0.071s-0.053-0.044-0.038-0.068c0.038-0.062-0.065-0.17-0.136-0.143-0.049 0.019-0.051 0.012-0.012-0.036s0.033-0.064-0.036-0.086c-0.047-0.015-0.075-0.043-0.063-0.062s-0.016-0.047-0.061-0.061c-0.046-0.015-0.073-0.042-0.061-0.061s-0.015-0.047-0.061-0.061c-0.045-0.014-0.082-0.043-0.082-0.064s-0.025-0.038-0.055-0.038c-0.030 0-0.12-0.063-0.199-0.14s-0.221-0.163-0.315-0.191c-0.114-0.034-0.153-0.062-0.118-0.084 0.031-0.019-0.003-0.026-0.081-0.016-0.074 0.009-0.124 0.001-0.113-0.017 0.036-0.058-0.107-0.088-0.511-0.109-0.214-0.011-0.41-0.027-0.436-0.035s-0.055-0.008-0.063 0.001zM2.758 10.521c-0.014 0.052-0.051 0.072-0.119 0.065-0.055-0.006-0.090 0.004-0.079 0.022s-0.008 0.044-0.043 0.058c-0.035 0.014-0.052 0.044-0.037 0.067 0.017 0.027-0.013 0.036-0.079 0.024-0.076-0.014-0.118 0.003-0.148 0.060-0.023 0.044-0.067 0.079-0.097 0.079s-0.078 0.027-0.106 0.061-0.067 0.051-0.086 0.039c-0.051-0.032-0.284 0.151-0.255 0.2 0.014 0.022 0.005 0.028-0.019 0.013s-0.056-0.008-0.071 0.015-0.043 0.032-0.064 0.019c-0.021-0.013-0.038-0.004-0.038 0.021s-0.046 0.062-0.102 0.083-0.102 0.060-0.102 0.086-0.035 0.037-0.082 0.025c-0.045-0.012-0.073-0.007-0.062 0.011 0.019 0.031-0.129 0.097-0.195 0.087-0.018-0.003-0.042 0.023-0.055 0.057s-0.039 0.052-0.057 0.041-0.045-0.002-0.060 0.021c-0.014 0.023-0.002 0.042 0.028 0.043 0.033 0.001 0.026 0.017-0.018 0.043-0.040 0.023-0.089 0.032-0.109 0.019s-0.045 0-0.054 0.028c-0.009 0.028-0.052 0.051-0.096 0.051-0.074 0-0.079 0.037-0.079 0.635v0.635l8.847 0.001-8.806-0.042 8.872-0.020 0.13-0.121c0.092-0.086 0.139-0.107 0.161-0.072 0.024 0.037 0.032 0.036 0.032-0.004 0-0.030 0.019-0.042 0.042-0.028s0.041 0.006 0.041-0.018c0-0.024 0.037-0.043 0.082-0.043s0.082-0.018 0.082-0.040c0-0.022-0.032-0.031-0.072-0.019s0.011-0.020 0.113-0.070 0.217-0.089 0.256-0.088c0.039 0.001 0.072-0.014 0.072-0.034s-0.020-0.036-0.045-0.036c-0.025 0-0.034-0.029-0.021-0.064 0.014-0.036 0.007-0.053-0.016-0.039s-0.040 0.005-0.040-0.018-0.032-0.045-0.072-0.047c-0.043-0.002-0.051-0.012-0.020-0.024 0.073-0.029 0.063-0.096-0.014-0.096-0.036 0-0.058-0.021-0.049-0.048s-0.024-0.091-0.073-0.143l-0.088-0.095-4.337-0.002c-3.856-0.002-4.325-0.009-4.225-0.063 0.062-0.033 0.113-0.075 0.113-0.093s0.045-0.057 0.101-0.087c0.056-0.030 0.089-0.073 0.075-0.096-0.016-0.025 0.001-0.031 0.042-0.016 0.045 0.017 0.084-0.004 0.116-0.065 0.048-0.090 0.27-0.316 0.31-0.316 0.012 0-0.002 0.032-0.030 0.072-0.053 0.075 0.1-0.090 0.267-0.288 0.053-0.062 0.12-0.109 0.15-0.102 0.033 0.007 0.053-0.025 0.051-0.081-0.004-0.099 0.045-0.124 0.079-0.041 0.012 0.031 0.022 0.022 0.024-0.020s0.036-0.072 0.085-0.072c0.045 0 0.083-0.014 0.085-0.031s0.009-0.063 0.017-0.102c0.018-0.096-0.022-0.092-0.047 0.004zM22.83 10.586c-0.032 0.082 0.016 0.146 0.088 0.119 0.035-0.013 0.060 0.001 0.060 0.034 0 0.074 0.156 0.207 0.207 0.176 0.021-0.013 0.039-0.004 0.039 0.021 0 0.056 0.233 0.287 0.261 0.259 0.011-0.011 0.072 0.027 0.136 0.086s0.099 0.107 0.080 0.107c-0.019 0-0.013 0.027 0.015 0.061s0.064 0.052 0.081 0.042c0.017-0.010 0.097 0.050 0.178 0.134 0.184 0.191 0.288 0.28 0.307 0.262 0.008-0.008 0.025-0.003 0.039 0.010s-1.934 0.024-4.326 0.024c-3.821 0-4.353 0.007-4.373 0.061-0.013 0.034-0.038 0.052-0.056 0.041-0.035-0.022-0.128 0.206-0.097 0.237 0.010 0.010-0.036 0.071-0.104 0.135-0.144 0.136-0.115 0.205 0.104 0.246 0.077 0.014 0.159 0.061 0.182 0.103s0.065 0.077 0.093 0.077c0.028 0 0.075 0.023 0.103 0.051 0.050 0.050 0.067 0.056 0.19 0.067 0.034 0.003 0.062 0.037 0.062 0.077 0 0.052 0.010 0.058 0.034 0.020 0.025-0.040 0.051-0.033 0.108 0.031 0.078 0.086 8.867 0.137 8.87 0.052 0.016-0.425 0.013-1.186-0.005-1.175-0.013 0.008-0.078-0.035-0.143-0.096-0.218-0.203-0.334-0.29-0.261-0.195 0.054 0.070 0.054 0.075-0.001 0.043-0.034-0.020-0.086-0.070-0.116-0.112-0.046-0.064-0.065-0.068-0.12-0.023-0.049 0.040-0.058 0.040-0.035 0.002 0.020-0.033-0.006-0.065-0.074-0.091-0.058-0.022-0.105-0.051-0.105-0.064s0.021-0.011 0.047 0.005c0.030 0.019 0.036 0.011 0.016-0.022-0.017-0.028-0.064-0.042-0.104-0.032-0.048 0.013-0.088-0.014-0.117-0.078-0.025-0.055-0.080-0.097-0.126-0.097-0.094 0-0.336-0.137-0.334-0.19 0.001-0.020-0.035-0.030-0.080-0.023-0.049 0.008-0.077-0.008-0.070-0.039 0.006-0.029-0.012-0.055-0.040-0.059s-0.071-0.009-0.095-0.012c-0.024-0.003-0.032-0.023-0.018-0.046s-0.002-0.030-0.039-0.016c-0.042 0.016-0.064 0.001-0.064-0.043 0-0.042-0.028-0.063-0.072-0.056-0.042 0.007-0.067-0.010-0.060-0.042 0.006-0.030-0.008-0.043-0.031-0.028s-0.042 0.004-0.042-0.022c0-0.026-0.029-0.037-0.064-0.023-0.036 0.014-0.053 0.007-0.039-0.016s0.005-0.040-0.020-0.040-0.055 0.027-0.068 0.059zM22.886 13.097c-1.211 0.006-3.192 0.006-4.403 0s-0.22-0.011 2.202-0.011c2.422 0 3.412 0.005 2.202 0.011z"></path>
</svg>
