<!-- Generated by IcoMoon.io -->
<svg version="1.1" xmlns="http://www.w3.org/2000/svg" width="32" height="32" viewBox="0 0 32 32">
<title>s_tab5</title>
<path fill="#555" d="M6.515 0.623c-0.253 0.044-0.737 0.274-0.796 0.38-0.023 0.040-0.074 0.073-0.114 0.073-0.041 0-0.061 0.031-0.045 0.071 0.015 0.039-0.017 0.103-0.072 0.141s-0.098 0.088-0.098 0.111c0.003 0.097-0.138 0.387-0.177 0.363-0.023-0.015-0.043 0.031-0.043 0.101s-0.033 0.161-0.074 0.202-0.064 0.085-0.052 0.097c0.013 0.013-0.035 0.142-0.105 0.287s-0.128 0.289-0.128 0.319-0.027 0.038-0.059 0.018c-0.036-0.022-0.045-0.014-0.024 0.020 0.019 0.031 0.013 0.098-0.014 0.149s-0.079 0.165-0.115 0.254c-0.036 0.090-0.084 0.151-0.106 0.138s-0.040 0.031-0.040 0.1c0 0.158-0.125 0.404-0.18 0.354-0.023-0.021-0.027 0.002-0.010 0.050s-0.003 0.122-0.045 0.165c-0.042 0.042-0.074 0.083-0.070 0.091 0.023 0.055-0.073 0.29-0.11 0.268-0.025-0.015-0.033 0.005-0.017 0.045s-0.004 0.105-0.043 0.144c-0.039 0.039-0.063 0.095-0.053 0.124s-0.029 0.103-0.086 0.164c-0.057 0.061-0.101 0.129-0.097 0.151 0.019 0.117-0.012 0.221-0.058 0.193-0.029-0.018-0.049-0.013-0.045 0.010 0.022 0.127-0.011 0.224-0.065 0.19-0.039-0.024-0.050-0.010-0.030 0.041 0.017 0.043-0.014 0.151-0.068 0.24s-0.098 0.197-0.098 0.24c0 0.043-0.018 0.067-0.041 0.053s-0.044 0.022-0.048 0.080-0.049 0.152-0.1 0.21c-0.056 0.064-0.063 0.088-0.018 0.062 0.041-0.024 0.018 0.035-0.051 0.132s-0.119 0.181-0.112 0.188c0.040 0.040 0.004 0.167-0.040 0.14-0.029-0.018-0.049-0.013-0.045 0.010 0.021 0.12-0.011 0.224-0.059 0.194-0.030-0.019-0.048-0.003-0.040 0.035 0.022 0.105-0.168 0.557-0.22 0.525-0.025-0.016-0.041-0.009-0.035 0.014 0.023 0.090-0.070 0.374-0.115 0.347-0.026-0.016-0.031 0.011-0.013 0.059 0.023 0.060 0.015 0.076-0.027 0.050-0.034-0.021-0.056-0.019-0.050 0.004 0.024 0.092-0.071 0.374-0.116 0.346-0.027-0.016-0.045-0.011-0.041 0.012 0.021 0.12-0.011 0.224-0.059 0.194-0.030-0.019-0.048-0.003-0.039 0.035 0.019 0.086-0.109 0.402-0.163 0.402-0.022 0-0.038 0.029-0.036 0.064 0.006 0.105-0.124 0.397-0.177 0.397-0.027 0-0.036 0.021-0.021 0.046s-0.006 0.112-0.048 0.192-0.076 0.176-0.077 0.213c-0 0.037-0.024 0.052-0.053 0.035s-0.049-0.013-0.045 0.010c0.022 0.126-0.011 0.224-0.064 0.191-0.034-0.021-0.045-0.014-0.026 0.017 0.043 0.070-0.089 0.385-0.14 0.334-0.022-0.022-0.035-0.016-0.029 0.012 0.024 0.116-0.005 0.234-0.050 0.207-0.026-0.016-0.045 0.013-0.041 0.065 0.009 0.117-0.155 0.471-0.218 0.471-0.025 0-0.038 0.041-0.028 0.091s-0.010 0.144-0.045 0.207c-0.087 0.163-0.006 0.797 0.13 1.017 0.057 0.093 0.092 0.169 0.077 0.169-0.048 0 0.393 0.431 0.451 0.441 0.101 0.018 0.49 0.207 0.469 0.229-0.012 0.012 0.035 0.024 0.103 0.029s0.187 0.049 0.264 0.1c0.077 0.051 0.163 0.095 0.191 0.097s0.14 0.043 0.249 0.092c0.109 0.048 0.216 0.088 0.239 0.088s0.048 0.023 0.058 0.052c0.009 0.028 0.073 0.062 0.141 0.076s0.137 0.042 0.153 0.063c0.016 0.022 0.086 0.046 0.156 0.054s0.144 0.046 0.166 0.085c0.022 0.039 0.082 0.059 0.134 0.046s0.135 0.015 0.183 0.063c0.048 0.049 0.138 0.095 0.2 0.103s0.187 0.025 0.28 0.037 0.157 0.011 0.142-0.004c-0.014-0.014 0.048-0.086 0.139-0.16l0.165-0.134-0.011-2.342c-0.006-1.288 0.006-2.342 0.028-2.342s0.043-0.052 0.046-0.115c0.012-0.202 0.048-0.379 0.092-0.451 0.024-0.038 0.049-0.126 0.056-0.195s0.043-0.144 0.080-0.167 0.068-0.059 0.069-0.081c0.007-0.118 0.088-0.267 0.139-0.257 0.032 0.006 0.060-0.011 0.063-0.039 0.009-0.114 0.137-0.282 0.19-0.25 0.032 0.019 0.042 0.012 0.024-0.017s0.013-0.093 0.069-0.144c0.056-0.050 0.103-0.071 0.105-0.045s0.021 0.001 0.043-0.055c0.022-0.056 0.091-0.113 0.153-0.128s0.113-0.050 0.112-0.078c-0.002-0.1 0.605-0.359 1.121-0.478 0.070-0.016 2.956-0.030 6.413-0.032s6.285-0.018 6.285-0.037c0-0.019 0.044-0.049 0.097-0.066 0.234-0.074 0.074-0.62-0.161-0.551-0.021 0.006-0.038-0.013-0.038-0.043s-0.023-0.040-0.051-0.023c-0.028 0.017-0.051 0.008-0.051-0.021s-0.035-0.039-0.077-0.023c-0.044 0.017-0.077 0.001-0.077-0.036 0-0.036-0.015-0.050-0.034-0.031s-0.088-0.001-0.154-0.044c-0.066-0.043-0.119-0.066-0.119-0.051s-0.086-0.019-0.191-0.076c-0.105-0.056-0.218-0.103-0.251-0.103s-0.073-0.035-0.089-0.077c-0.016-0.043-0.048-0.073-0.070-0.068-0.074 0.018-0.452-0.109-0.553-0.185-0.055-0.042-0.142-0.077-0.193-0.078-0.057-0.001-0.079-0.024-0.056-0.061 0.025-0.040 0.009-0.049-0.048-0.027-0.047 0.018-0.085 0.010-0.085-0.017s-0.017-0.047-0.038-0.044c-0.115 0.018-0.22-0.013-0.192-0.057 0.018-0.029-0.003-0.038-0.048-0.020-0.044 0.017-0.079 0.006-0.079-0.025s-0.038-0.040-0.085-0.022c-0.062 0.024-0.074 0.014-0.043-0.035 0.028-0.044 0.022-0.056-0.016-0.032-0.032 0.020-0.11 0.003-0.174-0.036s-0.26-0.124-0.436-0.187c-0.187-0.068-0.306-0.138-0.287-0.169 0.018-0.029 0.009-0.038-0.021-0.020-0.057 0.035-0.43-0.102-0.476-0.175-0.015-0.024-0.073-0.053-0.128-0.064-0.157-0.031-0.5-0.19-0.608-0.283-0.054-0.046-0.082-0.056-0.061-0.021 0.025 0.043 0.011 0.053-0.042 0.033-0.044-0.017-0.079-0.048-0.079-0.071s-0.081-0.055-0.181-0.074c-0.099-0.019-0.167-0.056-0.151-0.083s-0.016-0.049-0.072-0.049-0.117-0.023-0.134-0.051c-0.017-0.028-0.088-0.051-0.157-0.051s-0.125-0.019-0.125-0.043c0-0.023-0.032-0.043-0.071-0.043-0.114 0-0.39-0.127-0.39-0.18 0-0.026-0.023-0.034-0.051-0.016s-0.051 0.005-0.051-0.027c0-0.032-0.029-0.048-0.064-0.035s-0.122-0.005-0.192-0.039c-0.070-0.034-0.232-0.112-0.358-0.173s-0.261-0.111-0.297-0.111-0.054-0.020-0.039-0.046c0.016-0.025-0.007-0.060-0.051-0.076-0.045-0.017-0.066-0.009-0.048 0.020s-0.003 0.037-0.049 0.020c-0.044-0.017-0.079-0.051-0.079-0.076s-0.050-0.046-0.111-0.046c-0.061 0-0.216-0.063-0.346-0.139s-0.258-0.141-0.286-0.144c-0.146-0.013-0.329-0.092-0.304-0.132 0.015-0.025-0.008-0.031-0.052-0.015s-0.079 0.006-0.079-0.025c0-0.030-0.038-0.040-0.085-0.022-0.062 0.024-0.074 0.014-0.043-0.035 0.028-0.046 0.022-0.056-0.019-0.030-0.034 0.021-0.089 0.016-0.123-0.011s-0.212-0.108-0.395-0.181c-0.458-0.182-0.614-0.259-0.614-0.302-0-0.020-0.039-0.022-0.086-0.004-0.062 0.024-0.074 0.014-0.043-0.035 0.028-0.044 0.022-0.056-0.016-0.032-0.032 0.020-0.116-0.003-0.187-0.049s-0.129-0.072-0.129-0.057c0 0.015-0.105-0.028-0.233-0.097s-0.268-0.124-0.31-0.124c-0.046 0-0.062-0.024-0.040-0.060 0.025-0.040 0.009-0.049-0.048-0.027-0.047 0.018-0.085 0.010-0.085-0.017s-0.017-0.046-0.038-0.041c-0.096 0.021-0.316-0.076-0.286-0.125 0.021-0.034 0.002-0.042-0.050-0.022-0.046 0.018-0.113 0.004-0.149-0.030s-0.088-0.062-0.117-0.062c-0.1-0.001-0.538-0.194-0.538-0.237 0-0.024-0.044-0.044-0.099-0.044s-0.132-0.033-0.173-0.074-0.083-0.067-0.093-0.058c-0.010 0.009-0.134 0.002-0.275-0.017s-0.354-0.017-0.474 0.004zM7.513 8.299c-0.050 0.029-0.113 0.038-0.141 0.021s-0.051-0.010-0.051 0.017c0 0.046-0.189 0.128-0.269 0.117-0.021-0.003-0.038 0.019-0.038 0.049s-0.027 0.038-0.059 0.018c-0.034-0.021-0.045-0.014-0.027 0.016 0.018 0.029-0.059 0.116-0.171 0.194-0.196 0.136-0.273 0.22-0.14 0.152 0.035-0.018 0.019 0.004-0.035 0.048s-0.103 0.131-0.107 0.193c-0.005 0.062-0.032 0.121-0.062 0.131s-0.041 0.066-0.025 0.126c0.019 0.073 0.009 0.096-0.030 0.072-0.044-0.027-0.058 1.38-0.057 5.586 0.002 6.008 0.001 5.979 0.246 6.224 0.032 0.032 0.058 0.082 0.058 0.112s0.046 0.083 0.102 0.118c0.056 0.035 0.102 0.096 0.102 0.135s0.036 0.085 0.080 0.101c0.054 0.021 0.067 0.010 0.042-0.033-0.020-0.035 0.007-0.026 0.061 0.020 0.19 0.161 0.525 0.302 0.738 0.311 0.042 0.002 0.541 0 1.109-0.004l1.032-0.007-0.016-0.742c-0.009-0.408-0.001-0.742 0.018-0.742s0.033-0.086 0.033-0.192v-0.192l-1.638-0.051v-5.12l14.541-0.026-0.014 2.56-0.014 2.56h-1.574l0.014 0.87c0.008 0.479-0.006 0.87-0.031 0.87s-0.040 0.059-0.034 0.131l0.011 0.131 1.077-0.024c1.22-0.028 1.409-0.041 1.409-0.1 0-0.023 0.021-0.028 0.048-0.012s0.061 0.007 0.078-0.020c0.017-0.027 0.068-0.035 0.114-0.018 0.056 0.021 0.071 0.012 0.047-0.028-0.032-0.053-0.001-0.070 0.102-0.056 0.017 0.002 0.112-0.084 0.211-0.192s0.163-0.164 0.141-0.124c-0.026 0.048-0.020 0.060 0.019 0.035 0.032-0.020 0.059-0.076 0.059-0.124s0.047-0.128 0.105-0.178c0.058-0.049 0.090-0.113 0.072-0.142s-0.001-0.089 0.036-0.135c0.115-0.139 0.095-11.74-0.021-11.74-0.021 0-0.039-0.041-0.039-0.091s-0.047-0.131-0.105-0.181c-0.059-0.050-0.089-0.117-0.069-0.152s0.017-0.046-0.006-0.025c-0.057 0.052-0.186-0.062-0.145-0.128 0.018-0.029 0.009-0.039-0.020-0.021s-0.154-0.042-0.277-0.133c-0.123-0.091-0.27-0.175-0.326-0.187-0.233-0.051-16.079-0.050-16.167 0.001zM22.81 10.983v0.845l-14.541-0.026-0.014-0.766c-0.008-0.421-0.003-0.796 0.011-0.832 0.021-0.054 1.393-0.066 7.285-0.066h7.259v0.845zM14.846 17.245c-0.154 0.037-0.314 0.074-0.356 0.082s-0.111 0.029-0.154 0.045-0.123 0.037-0.179 0.046c-0.056 0.008-0.125 0.042-0.154 0.076s-0.097 0.068-0.154 0.077c-0.056 0.009-0.133 0.045-0.171 0.081s-0.093 0.049-0.123 0.031c-0.030-0.019-0.043-0.013-0.028 0.012s-0.052 0.098-0.148 0.161c-0.097 0.063-0.161 0.086-0.143 0.051s-0.017-0.006-0.079 0.065c-0.061 0.070-0.094 0.093-0.074 0.051s-0.048 0.021-0.153 0.141c-0.105 0.12-0.215 0.218-0.245 0.218-0.072 0-0.245 0.203-0.245 0.286 0 0.036-0.027 0.082-0.059 0.102-0.039 0.024-0.045 0.014-0.018-0.030s0.021-0.055-0.015-0.032c-0.031 0.019-0.044 0.069-0.028 0.11s0.009 0.075-0.015 0.075-0.075 0.069-0.112 0.154c-0.037 0.085-0.090 0.14-0.116 0.124s-0.045-0.011-0.041 0.013c0.004 0.023 0.002 0.059-0.005 0.081-0.021 0.065-0.038 0.138-0.044 0.195-0.004 0.030-0.030 0.040-0.059 0.022s-0.049-0.013-0.044 0.010c0.017 0.090-0.072 0.375-0.117 0.375-0.026 0-0.034 0.022-0.018 0.049s-0.013 0.171-0.065 0.32c-0.053 0.149-0.089 0.358-0.080 0.463s-0.007 0.192-0.034 0.192c-0.028 0-0.036 0.092-0.018 0.218 0.017 0.12 0.035 0.315 0.040 0.433s0.024 0.23 0.042 0.248c0.018 0.018 0.020 0.065 0.005 0.105s-0.004 0.101 0.025 0.136c0.029 0.035 0.068 0.15 0.088 0.255s0.058 0.192 0.084 0.192 0.035 0.021 0.019 0.048c-0.016 0.026-0.004 0.063 0.026 0.082s0.043 0.068 0.027 0.109c-0.016 0.042-0.006 0.060 0.022 0.043 0.048-0.030 0.059-0.007 0.071 0.141 0.003 0.035 0.047 0.095 0.097 0.133s0.083 0.095 0.073 0.128c-0.011 0.032 0.035 0.102 0.102 0.155s0.11 0.108 0.095 0.122c-0.015 0.015 0.030 0.071 0.1 0.126s0.114 0.121 0.098 0.147c-0.016 0.026 0.001 0.047 0.037 0.047s0.136 0.076 0.221 0.168c0.388 0.42 1.363 0.959 1.736 0.959 0.049 0 0.077 0.020 0.062 0.044s0.030 0.038 0.099 0.030c0.069-0.008 0.136 0.002 0.148 0.022s0.116 0.030 0.231 0.024 0.209 0.006 0.209 0.028c0 0.022 0.075 0.033 0.166 0.025 0.54-0.047 0.688-0.065 0.768-0.097 0.049-0.020 0.123-0.023 0.163-0.007s0.081 0.012 0.090-0.007c0.027-0.059 0.552-0.222 0.606-0.189 0.028 0.017 0.050 0.010 0.050-0.015 0-0.047 0.242-0.184 0.333-0.188 0.028-0.001 0.088-0.037 0.133-0.079 0.145-0.136 0.369-0.282 0.413-0.269 0.023 0.007 0.037-0.014 0.030-0.047s0.045-0.076 0.115-0.097c0.070-0.021 0.107-0.040 0.082-0.043-0.058-0.007 0.214-0.261 0.279-0.261 0.027 0 0.049-0.047 0.049-0.105s0.017-0.095 0.038-0.082c0.046 0.028 0.135-0.070 0.156-0.173 0.009-0.041 0.049-0.1 0.090-0.132s0.074-0.084 0.074-0.117c0-0.067 0.152-0.32 0.221-0.369 0.024-0.017 0.042-0.046 0.040-0.064-0.015-0.115 0.002-0.189 0.038-0.166 0.023 0.014 0.045-0.001 0.048-0.035s0.042-0.2 0.087-0.369c0.172-0.642 0.184-1.36 0.032-1.908-0.033-0.12-0.044-0.245-0.025-0.277 0.021-0.034 0.013-0.044-0.019-0.024s-0.069-0.033-0.090-0.133c-0.019-0.092-0.068-0.219-0.109-0.284s-0.060-0.139-0.043-0.166c0.017-0.027 0.006-0.050-0.025-0.050s-0.070-0.040-0.088-0.090c-0.017-0.049-0.065-0.128-0.105-0.175s-0.078-0.12-0.084-0.163-0.095-0.154-0.197-0.248c-0.102-0.093-0.184-0.193-0.182-0.221s-0.040-0.075-0.094-0.103c-0.053-0.028-0.188-0.136-0.299-0.24s-0.221-0.177-0.244-0.163c-0.023 0.014-0.055-0.008-0.070-0.050s-0.086-0.090-0.155-0.107c-0.076-0.019-0.112-0.055-0.091-0.089 0.022-0.036 0.012-0.043-0.026-0.020-0.034 0.021-0.093 0.012-0.132-0.021-0.078-0.065-0.58-0.265-0.68-0.271-0.035-0.002-0.064-0.021-0.064-0.042s-0.046-0.026-0.102-0.011-0.102 0.005-0.102-0.021c0-0.027-0.069-0.038-0.154-0.026s-0.154 0.003-0.154-0.022c0-0.069-0.92-0.052-1.231 0.023zM15.77 18.444c0 0.022 0.029 0.034 0.064 0.027 0.045-0.009 0.063 0.061 0.059 0.231-0.005 0.242-0.004 0.244 0.205 0.304 0.115 0.033 0.221 0.064 0.235 0.068s0.113 0.026 0.219 0.048c0.189 0.039 0.35 0.212 0.26 0.278-0.024 0.018-0.051 0.101-0.060 0.185-0.034 0.321-0.238 0.452-0.475 0.304-0.075-0.047-0.146-0.064-0.341-0.084-0.063-0.006-0.115-0.027-0.115-0.045 0-0.028-0.187-0.001-0.498 0.072-0.145 0.034-0.232 0.495-0.094 0.495 0.040 0 0.103 0.030 0.14 0.066s0.148 0.099 0.247 0.139 0.21 0.102 0.247 0.139 0.090 0.053 0.117 0.037c0.092-0.057 0.735 0.36 0.683 0.443-0.014 0.023 0.019 0.066 0.073 0.095 0.204 0.109 0.332 0.972 0.16 1.079-0.035 0.022-0.051 0.061-0.034 0.088 0.035 0.056-0.503 0.586-0.549 0.541-0.017-0.017-0.031-0.006-0.031 0.025s-0.070 0.071-0.155 0.090c-0.211 0.046-0.3 0.204-0.28 0.493l0.017 0.238h-0.329c-0.181 0-0.33-0.015-0.332-0.033-0.011-0.132-0.050-0.504-0.057-0.549-0.005-0.030-0.074-0.060-0.154-0.065-0.297-0.020-0.35-0.030-0.35-0.068 0-0.021-0.038-0.024-0.085-0.006-0.062 0.024-0.074 0.014-0.043-0.035 0.031-0.051 0.015-0.061-0.065-0.040-0.224 0.059-0.406-0.204-0.255-0.368 0.035-0.038 0.040-0.055 0.010-0.039-0.031 0.017-0.021-0.075 0.026-0.22 0.054-0.169 0.104-0.245 0.157-0.235 0.236 0.046 0.354 0.099 0.325 0.147-0.019 0.031-0.008 0.038 0.026 0.017 0.033-0.020 0.088-0.018 0.123 0.003 0.171 0.107 0.765 0.115 0.892 0.012 0.076-0.062 0.082-0.061 0.045 0.006-0.024 0.042 0.003 0.030 0.059-0.028 0.17-0.174 0.179-0.377 0.024-0.531-0.074-0.073-0.131-0.145-0.126-0.161s-0.034-0.031-0.086-0.035c-0.052-0.004-0.193-0.055-0.313-0.113s-0.251-0.106-0.289-0.106c-0.039 0-0.057-0.021-0.042-0.046s-0.007-0.060-0.051-0.076c-0.054-0.021-0.067-0.010-0.041 0.033 0.043 0.071-0.139-0.059-0.197-0.141-0.020-0.028-0.056-0.051-0.079-0.051-0.056 0-0.337-0.281-0.283-0.283 0.022-0.001-0-0.025-0.050-0.054s-0.077-0.074-0.061-0.101c0.016-0.026 0.006-0.048-0.023-0.048s-0.054-0.075-0.055-0.166c-0.001-0.092-0.004-0.201-0.006-0.243s0.007-0.123 0.021-0.179c0.014-0.056 0.033-0.137 0.043-0.179s0.041-0.093 0.069-0.113c0.028-0.020 0.054-0.060 0.058-0.090s0.009-0.076 0.013-0.104c0.004-0.028 0.042-0.051 0.086-0.051s0.067-0.021 0.052-0.046c-0.015-0.025 0.032-0.085 0.106-0.133 0.092-0.060 0.123-0.066 0.098-0.018-0.020 0.038 0.002 0.023 0.047-0.033s0.094-0.096 0.107-0.089c0.183 0.106 0.37-0.238 0.333-0.611-0.005-0.047 0.032-0.093 0.082-0.102 0.17-0.032 0.478-0.019 0.478 0.020z"></path>
</svg>
