<!-- Generated by IcoMoon.io -->
<svg version="1.1" xmlns="http://www.w3.org/2000/svg" width="46" height="32" viewBox="0 0 46 32">
<title>s_tab10</title>
<path fill="#555" d="M8.704 0.526c-0.034 0.009-0.063 0.032-0.063 0.050s-0.014 0.029-0.031 0.024c-0.040-0.012-0.327 0.251-0.327 0.3 0 0.020-0.023 0.060-0.050 0.087-0.091 0.091-0.098 0.689-0.086 7.698l0.011 6.911-0.215-0c-0.334-0-0.305 0.544-0.305-5.761v-5.568h-2.492c-1.494 0-2.492 0.013-2.492 0.033 0 0.018-0.048 0.044-0.108 0.057s-0.108 0.038-0.108 0.057c0 0.018-0.020 0.033-0.045 0.033s-0.077 0.040-0.117 0.089-0.1 0.124-0.134 0.166c-0.034 0.043-0.063 0.115-0.063 0.162s-0.016 0.084-0.036 0.084c-0.024 0-0.033 1.748-0.027 5.324l0.009 5.324-1.453-0 0.010 0.941 0.010 0.941h24.417l0.010-0.941 0.010-0.941h-1.364l-0.003-5.333c-0.003-5.727 0.002-5.433-0.090-5.534-0.034-0.038-0.050-0.069-0.036-0.069s-0.022-0.048-0.081-0.108c-0.059-0.059-0.125-0.108-0.146-0.108s-0.039-0.014-0.039-0.031c0-0.138-0.225-0.149-2.798-0.14l-2.49 0.009-0.009 5.602c-0.006 3.693-0.021 5.602-0.045 5.602-0.020 0-0.036 0.024-0.036 0.054 0 0.042-0.049 0.054-0.224 0.054h-0.224l0.007-7.108c0.006-6.869-0.001-7.483-0.091-7.513-0.023-0.008-0.041-0.036-0.041-0.063 0-0.053-0.28-0.329-0.313-0.309-0.011 0.007-0.033-0.010-0.049-0.036-0.029-0.047-8.079-0.087-8.252-0.041zM13.159 0.963c0 0.017 0.107 0.042 0.238 0.055s0.272 0.048 0.313 0.077c0.041 0.029 0.111 0.052 0.156 0.052s0.082 0.016 0.082 0.036c0 0.020 0.012 0.033 0.027 0.030 0.035-0.008 0.235 0.075 0.259 0.107 0.038 0.050 0.25 0.186 0.291 0.186 0.023 0 0.095 0.056 0.16 0.125s0.138 0.125 0.163 0.125c0.024 0 0.035 0.009 0.024 0.020s0.031 0.072 0.094 0.134c0.145 0.146 0.309 0.367 0.309 0.417 0 0.021 0.015 0.038 0.033 0.038s0.045 0.036 0.059 0.079c0.014 0.043 0.047 0.101 0.074 0.128s0.049 0.072 0.049 0.1 0.017 0.051 0.037 0.051c0.021 0 0.034 0.020 0.030 0.045s0.011 0.090 0.034 0.146c0.023 0.055 0.042 0.133 0.042 0.172s0.015 0.062 0.033 0.051c0.018-0.011 0.044 0.105 0.058 0.258s0.044 0.301 0.066 0.33c0.032 0.041 0.030 0.046-0.013 0.022s-0.045-0.021-0.009 0.018c0.051 0.055 0.062 0.485 0.014 0.515-0.017 0.011-0.042 0.133-0.056 0.271s-0.039 0.252-0.056 0.252c-0.017 0-0.042 0.072-0.056 0.16s-0.046 0.179-0.074 0.202c-0.027 0.023-0.050 0.068-0.050 0.101s-0.056 0.145-0.126 0.25c-0.069 0.105-0.126 0.197-0.126 0.205s-0.028 0.044-0.063 0.081c-0.034 0.036-0.125 0.141-0.202 0.233-0.155 0.185-0.681 0.598-0.763 0.598-0.029 0-0.044 0.014-0.033 0.032s-0.035 0.042-0.102 0.055c-0.067 0.013-0.14 0.045-0.162 0.072s-0.117 0.060-0.21 0.074c-0.093 0.014-0.181 0.044-0.195 0.067-0.018 0.029-0.232 0.041-0.709 0.041s-0.692-0.012-0.709-0.041c-0.014-0.023-0.102-0.053-0.195-0.067s-0.187-0.047-0.21-0.074c-0.022-0.027-0.096-0.059-0.164-0.072s-0.115-0.031-0.105-0.041c0.010-0.010-0.034-0.045-0.098-0.077-0.227-0.116-0.64-0.479-0.823-0.723-0.102-0.136-0.198-0.248-0.214-0.248s-0.028-0.022-0.028-0.049c0-0.027-0.032-0.090-0.072-0.14s-0.072-0.12-0.072-0.154c0-0.035-0.024-0.090-0.053-0.122-0.052-0.057-0.082-0.163-0.088-0.303-0.001-0.038-0.015-0.056-0.030-0.042s-0.048-0.116-0.074-0.29c-0.070-0.469-0.089-0.765-0.050-0.765 0.019 0 0.033-0.028 0.031-0.063-0.007-0.137 0.054-0.51 0.086-0.53 0.019-0.012 0.034-0.051 0.034-0.088s0.019-0.113 0.042-0.168c0.023-0.056 0.038-0.121 0.034-0.146s0.008-0.045 0.026-0.045c0.018 0 0.044-0.040 0.056-0.090s0.038-0.090 0.058-0.090c0.019 0 0.035-0.021 0.035-0.047 0-0.073 0.34-0.538 0.482-0.659 0.070-0.060 0.127-0.127 0.127-0.15s0.024-0.041 0.052-0.041c0.029 0 0.069-0.030 0.089-0.068s0.077-0.078 0.127-0.090c0.050-0.012 0.091-0.039 0.091-0.058s0.023-0.035 0.051-0.035 0.075-0.024 0.105-0.054c0.043-0.044 0.161-0.105 0.274-0.144 0.108-0.037 0.177-0.065 0.261-0.108 0.055-0.028 0.204-0.062 0.332-0.075s0.232-0.038 0.232-0.055c0-0.017 0.161-0.031 0.359-0.031s0.359 0.014 0.359 0.031zM12.011 2.562v0.593h-1.184l0.010 0.812 0.010 0.812 1.165-0.014v1.188h1.578v-1.188l1.165 0.014 0.010-0.812 0.010-0.812h-1.184v-1.178l-1.578-0.007v0.593zM4.589 7.117v0.592h-1.147v-1.183h1.147v0.592zM6.526 7.117v0.592h-1.147v-1.183h1.147v0.592zM20.544 7.117v0.592h-1.111v-1.183h1.111v0.592zM22.517 7.117v0.592h-1.147v-1.183h1.147v0.592zM4.589 9.25v0.574h-1.147v-1.147h1.147v0.574zM6.526 9.25v0.574h-1.147v-1.147h1.147v0.574zM20.544 9.25v0.574h-1.111v-1.147h1.111v0.574zM22.517 9.25v0.574h-1.147v-1.147h1.147v0.574zM6.526 11.439v0.572h-1.147l-0-0.583-0-0.583 1.147 0.021v0.572zM20.552 11.42l-0.011 0.592h-1.108v-1.146l0.565-0.011c0.311-0.006 0.565-0.014 0.565-0.019s-0.005 0.258-0.011 0.584zM4.589 11.438v0.574h-1.147v-1.147h1.147v0.574zM22.517 11.438v0.574h-1.147v-1.147h1.147v0.574zM14.664 13.302v2.259h-3.514v-4.518h3.514v2.259z"></path>
</svg>
