<!-- Generated by IcoMoon.io -->
<svg version="1.1" xmlns="http://www.w3.org/2000/svg" width="32" height="32" viewBox="0 0 32 32">
<title>s_tab4</title>
<path fill="#555" d="M4.953 1.168c-0.084 0.010-0.128 0.038-0.108 0.071s0.003 0.044-0.038 0.030c-0.039-0.013-0.102 0.013-0.139 0.057-0.052 0.063-0.059 0.064-0.029 0.004 0.034-0.067 0.027-0.067-0.049-0.006-0.048 0.039-0.076 0.083-0.061 0.098s-0.025 0.054-0.088 0.086c-0.063 0.033-0.109 0.087-0.102 0.12s-0.010 0.060-0.038 0.060c-0.028 0-0.048 0.017-0.045 0.038s0.002 0.050-0.004 0.064c-0.005 0.014-0.020 0.083-0.033 0.154s-0.040 0.134-0.060 0.141c-0.029 0.010-0.047 16.493-0.018 17.078 0.004 0.082 0.029 0.13 0.058 0.112s0.051 0 0.051 0.040c0 0.039 0.034 0.071 0.075 0.071s0.063-0.019 0.048-0.043c-0.015-0.023 0-0.043 0.033-0.043s0.046-0.035 0.029-0.079c-0.017-0.045 0.002-0.091 0.045-0.108 0.042-0.016 0.064-0.048 0.050-0.070-0.042-0.067 0.032-0.206 0.090-0.17 0.030 0.019 0.039 0.009 0.019-0.022s-0.014-0.068 0.011-0.084c0.025-0.015 0.060-0.099 0.077-0.186s0.055-0.144 0.083-0.126c0.031 0.019 0.038-0.003 0.018-0.056-0.023-0.059-0.014-0.076 0.026-0.051s0.048 0.008 0.026-0.051-0.014-0.076 0.026-0.051c0.037 0.023 0.049 0.011 0.033-0.032-0.014-0.038 0.015-0.114 0.065-0.169 0.086-0.095 0.091-0.508 0.091-8.011v-7.91l4.324-0.013c2.378-0.007 4.343 0.007 4.367 0.031s0.051 0.675 0.060 1.447c0.017 1.476 0.020 1.531 0.093 1.531 0.025 0 0.033 0.021 0.017 0.046s0.030 0.060 0.101 0.078c0.071 0.018 0.117 0.053 0.101 0.079-0.017 0.027 0.474 0.049 1.188 0.052 1.336 0.006 1.422 0.011 1.422 0.091 0 0.030 0.017 0.072 0.038 0.093s0.038 1.763 0.038 3.87v3.832h0.869l0.013-4.259c0.015-4.709 0.041-4.268-0.278-4.619-0.049-0.054-0.077-0.117-0.062-0.141s-0.010-0.043-0.056-0.043c-0.050 0-0.068-0.024-0.046-0.059s0.014-0.045-0.018-0.025c-0.030 0.019-0.103-0.030-0.161-0.107s-0.129-0.169-0.158-0.203c-0.028-0.034-0.052-0.086-0.052-0.115s-0.031-0.053-0.069-0.053-0.111-0.046-0.162-0.102c-0.051-0.056-0.074-0.102-0.052-0.102s-0.020-0.057-0.094-0.126-0.136-0.147-0.136-0.173c0-0.026-0.040-0.079-0.090-0.118-0.083-0.065-0.084-0.063-0.014 0.032 0.056 0.076 0.039 0.070-0.064-0.022-0.076-0.068-0.129-0.134-0.117-0.146s-0.030-0.072-0.094-0.132-0.131-0.15-0.149-0.2c-0.018-0.050-0.086-0.11-0.151-0.135s-0.15-0.105-0.189-0.178c-0.039-0.074-0.091-0.134-0.114-0.134s-0.043-0.032-0.043-0.071-0.039-0.102-0.087-0.141c-0.075-0.060-0.081-0.060-0.047 0.007 0.022 0.042-0.019 0.008-0.091-0.077s-0.166-0.194-0.209-0.243c-0.043-0.049-0.078-0.11-0.078-0.135s-0.040-0.077-0.090-0.115c-0.083-0.065-0.084-0.063-0.015 0.032 0.043 0.059 0.010 0.043-0.079-0.038l-0.154-0.14-4.708-0.014c-2.59-0.007-4.772-0.006-4.85 0.003zM15.013 3.072c0.022 0 0.039 0.032 0.039 0.071s0.040 0.102 0.090 0.141c0.082 0.065 0.084 0.062 0.019-0.032-0.039-0.056-0.004-0.031 0.077 0.056 0.217 0.233 0.303 0.347 0.343 0.45 0.019 0.051 0.082 0.104 0.14 0.119s0.138 0.093 0.18 0.174c0.042 0.081 0.096 0.147 0.12 0.147s0.056 0.046 0.071 0.102c0.026 0.098 0.002 0.102-0.634 0.102h-0.661l0.001-0.806c0.001-0.781 0.004-0.802 0.089-0.666 0.048 0.077 0.105 0.141 0.127 0.141zM6.478 6.347c-0.017 0.027-0.068 0.035-0.114 0.017-0.052-0.020-0.071-0.012-0.050 0.022 0.032 0.052-0.101 0.142-0.183 0.125-0.021-0.004-0.036 0.009-0.032 0.030 0.016 0.098-0.010 0.17-0.052 0.144-0.050-0.031-0.028 0.336 0.031 0.507 0.020 0.057 0.037 0.12 0.038 0.138s0.024 0.053 0.049 0.077c0.027 0.025 0.031 0.011 0.009-0.034-0.024-0.048-0.010-0.044 0.035 0.012 0.068 0.083 0.376 0.089 4.669 0.090 2.528 0.001 4.617 0.014 4.642 0.030s0.060-0.008 0.076-0.051c0.017-0.044 0.048-0.069 0.069-0.056 0.035 0.021 0.163-0.231 0.222-0.434 0.012-0.042-0.008-0.137-0.046-0.211s-0.056-0.146-0.041-0.161c0.015-0.015-0.1-0.087-0.255-0.16l-0.282-0.133h-4.378c-2.73 0-4.389 0.018-4.408 0.049zM1.565 8.094c-0.1 0.054-0.183 0.086-0.183 0.071s-0.104 0.082-0.23 0.214c-0.127 0.132-0.23 0.261-0.23 0.286s-0.029 0.028-0.064 0.008c-0.035-0.020-0.048-0.019-0.028 0.003s0.005 0.116-0.034 0.209c-0.039 0.093-0.057 0.182-0.041 0.198s0.009 0.030-0.017 0.030c-0.028 0-0.047 2.782-0.047 6.976 0 7.267 0.004 7.398 0.209 7.568 0.040 0.033 0.072 0.089 0.072 0.125s0.036 0.079 0.080 0.096c0.045 0.017 0.064 0.057 0.043 0.090-0.022 0.036-0.014 0.046 0.020 0.024 0.031-0.019 0.079 0.008 0.107 0.060s0.144 0.123 0.259 0.157c0.114 0.034 0.208 0.080 0.208 0.102 0 0.087 17.736 0.073 17.945-0.015 0.105-0.044 0.215-0.065 0.245-0.047 0.033 0.021 0.038 0.008 0.013-0.033-0.027-0.044-0.017-0.058 0.029-0.042 0.039 0.013 0.148-0.052 0.243-0.145s0.198-0.163 0.229-0.157c0.031 0.006 0.057-0.020 0.058-0.057s0.042-0.097 0.091-0.133c0.049-0.036 0.074-0.080 0.055-0.098s-0.006-0.033 0.026-0.033c0.033 0 0.055-0.017 0.050-0.038-0.021-0.080 0.068-0.261 0.143-0.289 0.043-0.017 0.064-0.053 0.046-0.082s-0.008-0.052 0.021-0.052 0.039-0.035 0.023-0.077c-0.016-0.042-0.004-0.077 0.027-0.077s0.057-0.045 0.057-0.1c0-0.055 0.033-0.118 0.073-0.141s0.071-0.052 0.069-0.067c-0.011-0.074 0.085-0.278 0.171-0.365 0.054-0.054 0.113-0.167 0.129-0.251s0.052-0.152 0.078-0.152c0.026 0 0.035-0.020 0.020-0.045s0.018-0.103 0.074-0.174c0.056-0.071 0.102-0.163 0.102-0.205s0.035-0.104 0.077-0.139 0.077-0.094 0.077-0.131c0-0.037 0.036-0.103 0.080-0.147s0.067-0.080 0.051-0.080c-0.031 0 0.23-0.519 0.283-0.563 0.017-0.014 0.046-0.089 0.065-0.166s0.055-0.141 0.081-0.141c0.025 0 0.073-0.081 0.105-0.179s0.082-0.179 0.109-0.179c0.028 0 0.036-0.023 0.018-0.052s0.003-0.065 0.045-0.081 0.066-0.058 0.053-0.092c-0.013-0.035 0.025-0.119 0.085-0.188 0.14-0.161 0.283-0.431 0.201-0.38-0.075 0.047 0.095-0.221 0.223-0.349 0.051-0.052 0.081-0.128 0.065-0.169s0.004-0.087 0.044-0.103c0.040-0.015 0.061-0.058 0.047-0.094s0.012-0.080 0.058-0.098 0.069-0.054 0.052-0.081c-0.033-0.053 0.049-0.22 0.185-0.375 0.046-0.053 0.133-0.23 0.193-0.394s0.143-0.311 0.184-0.327c0.043-0.016 0.062-0.063 0.045-0.108-0.017-0.043-0.005-0.079 0.026-0.079s0.057-0.035 0.057-0.077c0-0.042 0.023-0.077 0.051-0.077s0.045-0.018 0.038-0.039c-0.021-0.063 0.177-0.473 0.228-0.473 0.026 0 0.032-0.023 0.015-0.052s0.004-0.065 0.048-0.082c0.044-0.017 0.067-0.051 0.051-0.077s0.008-0.082 0.052-0.126 0.080-0.122 0.080-0.173c0-0.051 0.035-0.121 0.077-0.156s0.077-0.095 0.077-0.134c0-0.039 0.022-0.071 0.050-0.071s0.035-0.038 0.017-0.085c-0.024-0.062-0.014-0.074 0.035-0.043 0.039 0.024 0.055 0.022 0.039-0.005s-0.012-0.14 0.009-0.255c0.035-0.193-0.135-0.738-0.231-0.738-0.015 0-0.011 0.029 0.009 0.064s-0.014 0.012-0.076-0.051c-0.061-0.063-0.14-0.116-0.174-0.116s-1.133-0-2.443 0.001l-2.381 0.002 0.015-1.037c0.008-0.57-0.007-1.084-0.033-1.14-0.067-0.146-0.182-0.556-0.169-0.606 0.006-0.023-0.010-0.030-0.034-0.015s-0.075-0.029-0.112-0.099c-0.037-0.069-0.087-0.126-0.11-0.126s-0.043-0.035-0.043-0.077-0.017-0.074-0.038-0.071c-0.102 0.016-0.169-0.011-0.141-0.057 0.018-0.029-0.003-0.038-0.048-0.020-0.044 0.017-0.079 0.009-0.079-0.018s-0.029-0.051-0.064-0.054c-0.107-0.009-0.215-0.038-0.269-0.072-0.034-0.021-0.051 0.546-0.051 1.665v1.698l-5.076 0.012c-2.791 0.007-5.119 0.027-5.171 0.045-0.276 0.094-0.472 0.196-0.449 0.234 0.014 0.023-0.021 0.042-0.079 0.042s-0.1 0.019-0.093 0.041c0.016 0.052-0.23 0.419-0.282 0.419-0.021 0-0.038 0.044-0.038 0.096s-0.034 0.125-0.076 0.159c-0.042 0.035-0.064 0.084-0.048 0.109s0.002 0.045-0.029 0.045c-0.032 0-0.045 0.020-0.030 0.044 0.041 0.066-0.148 0.426-0.199 0.38-0.024-0.022-0.028-0.013-0.009 0.021s0.014 0.073-0.011 0.088c-0.025 0.015-0.060 0.099-0.077 0.186-0.021 0.103-0.053 0.145-0.091 0.121-0.035-0.022-0.046-0.015-0.026 0.018 0.042 0.068-0.014 0.226-0.069 0.192-0.022-0.014-0.054 0.011-0.071 0.054-0.020 0.053-0.010 0.067 0.033 0.043 0.035-0.020 0.006 0.028-0.065 0.108s-0.099 0.128-0.065 0.108c0.043-0.025 0.053-0.011 0.033 0.043-0.017 0.044-0.051 0.079-0.076 0.079s-0.046 0.044-0.046 0.099c0 0.054-0.035 0.134-0.079 0.177s-0.076 0.092-0.072 0.108c0.011 0.053-0.181 0.486-0.216 0.486-0.019 0-0.050 0.070-0.068 0.154s-0.051 0.143-0.072 0.13c-0.021-0.013-0.039 0.004-0.039 0.038-0 0.11-0.375 0.855-0.43 0.855-0.029 0-0.040 0.021-0.024 0.047s-0.007 0.083-0.052 0.128c-0.044 0.044-0.067 0.081-0.051 0.081s-0.007 0.058-0.053 0.128c-0.046 0.070-0.070 0.128-0.053 0.128s-0.020 0.098-0.082 0.217c-0.062 0.119-0.118 0.25-0.124 0.289s-0.037 0.088-0.069 0.108c-0.032 0.020-0.063 0.073-0.070 0.118s-0.057 0.133-0.112 0.196c-0.061 0.070-0.070 0.097-0.023 0.070 0.055-0.031 0.052-0.014-0.013 0.059-0.049 0.056-0.090 0.13-0.090 0.164 0 0.103-0.203 0.468-0.26 0.468-0.029 0-0.040 0.021-0.024 0.047 0.036 0.059-0.074 0.311-0.137 0.311-0.025 0-0.033 0.020-0.018 0.045s-0.006 0.074-0.048 0.108c-0.042 0.035-0.064 0.081-0.050 0.104s-0.008 0.075-0.049 0.116c-0.041 0.041-0.061 0.089-0.043 0.107s0.003 0.032-0.031 0.032-0.048 0.023-0.031 0.051c0.017 0.028 0.008 0.051-0.021 0.051s-0.039 0.034-0.023 0.076c0.017 0.044-0.006 0.090-0.052 0.108-0.045 0.017-0.070 0.050-0.056 0.073 0.039 0.063-0.030 0.207-0.084 0.174-0.026-0.016-0.042-0.010-0.035 0.013s-0.014 0.088-0.045 0.145c-0.058 0.104-0.067 0.136-0.067 0.233 0 0.030-0.023 0.040-0.051 0.023-0.030-0.019-0.037 0.004-0.017 0.057 0.023 0.059 0.014 0.076-0.026 0.051s-0.048-0.008-0.026 0.051c0.025 0.064 0.016 0.077-0.034 0.046-0.044-0.027-0.056-0.022-0.033 0.015 0.159 0.256-0.833 0.394-1.27 0.176-0.36-0.179-0.337 0.299-0.336-6.969 0.001-5.729 0.011-6.565 0.077-6.631 0.042-0.042 0.076-0.099 0.076-0.128s0.027-0.068 0.059-0.088c0.039-0.024 0.046-0.012 0.021 0.035-0.021 0.040 0.006 0.017 0.061-0.049 0.090-0.11 0.148-0.123 0.67-0.148l0.571-0.027v-1.116l-0.816 0.007c-0.697 0.006-0.842 0.021-0.998 0.104zM6.324 9.871c-0.014 0.036-0.066 0.060-0.116 0.051-0.054-0.009-0.084 0.013-0.076 0.054 0.008 0.038-0.015 0.105-0.051 0.149-0.078 0.093-0.098 0.534-0.022 0.488 0.028-0.017 0.038 0.002 0.022 0.044-0.020 0.053 0.058 0.116 0.265 0.214l0.294 0.139 4.373-0.018c4.761-0.020 4.48-0.011 4.624-0.145 0.055-0.052 0.123-0.094 0.151-0.094s0.036-0.015 0.018-0.032c-0.018-0.018-0.006-0.081 0.026-0.141 0.085-0.16 0.082-0.349-0.008-0.454-0.044-0.051-0.079-0.121-0.079-0.155s-0.030-0.062-0.066-0.062c-0.036 0-0.082-0.023-0.102-0.051-0.060-0.084-9.219-0.069-9.251 0.015zM6.436 13.27c-0.031 0.019-0.078 0.021-0.105 0.005-0.029-0.018-0.032-0.002-0.007 0.038 0.030 0.049 0.019 0.059-0.043 0.035-0.047-0.018-0.079-0.016-0.073 0.004 0.015 0.046-0.143 0.273-0.171 0.246-0.012-0.011-0.026 0.071-0.033 0.183-0.015 0.258 0.134 0.47 0.405 0.578 0.284 0.114 0.339 0.101 0.423-0.1 0.041-0.099 0.099-0.179 0.129-0.179s0.054-0.035 0.054-0.077 0.024-0.077 0.052-0.077 0.075-0.060 0.103-0.133c0.028-0.073 0.096-0.145 0.152-0.159s0.089-0.046 0.074-0.070c-0.015-0.024 0.030-0.058 0.099-0.076s0.14-0.067 0.156-0.11c0.019-0.050 0.069-0.068 0.139-0.049 0.064 0.017 0.090 0.010 0.063-0.017-0.055-0.054-1.337-0.092-1.418-0.042z"></path>
</svg>
