<!-- Generated by IcoMoon.io -->
<svg version="1.1" xmlns="http://www.w3.org/2000/svg" width="32" height="32" viewBox="0 0 32 32">
<title>s_tab9</title>
<path fill="#555" d="M12.42 1.616c-0.044 0.044-0.084 0.125-0.087 0.18-0.009 0.141-0.030 0.301-0.042 0.316-0.005 0.007-0.020 0.093-0.031 0.192s-0.038 0.237-0.057 0.307c-0.020 0.070-0.042 0.163-0.049 0.205s-0.033 0.157-0.056 0.256c-0.065 0.271-0.051 0.591 0.025 0.576 0.035-0.007 0.064 0.012 0.064 0.042s0.040 0.050 0.090 0.045 0.101-0.005 0.115 0.001c0.050 0.019 0.233 0.052 0.461 0.084 0.127 0.017 0.3 0.043 0.384 0.057 0.206 0.034 1.78 0.053 1.839 0.022 0.026-0.013 0.107-0.029 0.179-0.036 0.893-0.078 1.094-0.174 1.058-0.504-0.035-0.318-0.075-0.543-0.114-0.645-0.016-0.042-0.039-0.18-0.050-0.307s-0.055-0.317-0.096-0.423c-0.042-0.106-0.078-0.209-0.081-0.23-0.021-0.159-0.079-0.166-0.612-0.080-0.54 0.087-1.943 0.127-1.943 0.055 0-0.021-0.052-0.030-0.115-0.019s-0.151 0-0.195-0.022c-0.044-0.023-0.171-0.050-0.283-0.060s-0.23-0.035-0.262-0.055-0.095 0-0.14 0.045zM14.465 2.406c-0.001 0.102 0.028 0.131 0.14 0.144 0.235 0.027 0.217 0.573-0.019 0.573-0.138 0-0.157 0.016-0.138 0.115 0.021 0.108 0.005 0.115-0.266 0.115s-0.287-0.007-0.266-0.115c0.018-0.096-0.001-0.115-0.112-0.115-0.193 0-0.21-0.545-0.019-0.572 0.085-0.012 0.115-0.050 0.114-0.144-0.001-0.121 0.014-0.128 0.283-0.128s0.284 0.007 0.283 0.128zM12.093 4.315c-0.132 0.158-0.173 0.954-0.061 1.164 0.026 0.049 0.033 0.103 0.015 0.121-0.035 0.035 0.052 0.228 0.199 0.448 0.049 0.074 0.073 0.152 0.053 0.175s-0.010 0.026 0.022 0.007c0.035-0.020 0.080 0.026 0.111 0.115 0.029 0.082 0.1 0.164 0.159 0.183s0.094 0.056 0.078 0.082c-0.016 0.026-0.002 0.048 0.032 0.048s0.087 0.033 0.118 0.074c0.031 0.041 0.091 0.081 0.133 0.090s0.1 0.044 0.128 0.079c0.028 0.035 0.101 0.070 0.162 0.079s0.143 0.044 0.184 0.077c0.040 0.034 0.087 0.048 0.102 0.033s0.14 0.004 0.277 0.044c0.136 0.040 0.329 0.065 0.427 0.057 0.335-0.029 0.456-0.049 0.489-0.082 0.018-0.018 0.065-0.021 0.105-0.005s0.072 0.006 0.072-0.021 0.029-0.048 0.064-0.048c0.119 0 0.473-0.19 0.599-0.321 0.069-0.072 0.145-0.125 0.17-0.117s0.030-0.011 0.011-0.042c-0.020-0.032 0.012-0.068 0.071-0.084 0.058-0.015 0.12-0.071 0.137-0.125s0.052-0.097 0.079-0.097 0.048-0.033 0.048-0.072c0-0.040 0.026-0.081 0.057-0.092s0.064-0.083 0.073-0.16c0.009-0.078 0.038-0.169 0.067-0.203 0.075-0.091 0.17-0.672 0.137-0.839-0.016-0.079-0.041-0.236-0.056-0.349-0.032-0.245-0.085-0.309-0.209-0.255-0.388 0.167-1.902 0.293-2.576 0.214-0.155-0.018-0.391-0.044-0.525-0.057s-0.263-0.036-0.287-0.051c-0.024-0.015-0.122-0.038-0.217-0.052s-0.221-0.039-0.28-0.056c-0.063-0.019-0.13-0.002-0.166 0.041zM12.186 7.616c-0.070 0.010-0.163 0.032-0.205 0.049s-0.092 0.033-0.111 0.036c-0.106 0.014-0.364 0.267-0.487 0.478-0.078 0.134-0.171 0.274-0.207 0.311s-0.066 0.098-0.066 0.136-0.058 0.157-0.129 0.265c-0.071 0.108-0.128 0.214-0.128 0.235s-0.046 0.085-0.104 0.143c-0.057 0.057-0.091 0.126-0.074 0.154s0.005 0.049-0.027 0.049c-0.031 0-0.043 0.023-0.026 0.051s0.013 0.051-0.010 0.051c-0.023 0-0.075 0.075-0.115 0.166s-0.104 0.197-0.14 0.234c-0.037 0.037-0.067 0.098-0.067 0.135s-0.038 0.082-0.084 0.1c-0.046 0.018-0.070 0.046-0.053 0.064s-0.011 0.092-0.063 0.165c-0.052 0.074-0.11 0.184-0.128 0.244s-0.068 0.139-0.109 0.173c-0.041 0.034-0.075 0.103-0.075 0.154s-0.020 0.1-0.046 0.109c-0.025 0.009-0.131 0.178-0.235 0.375s-0.211 0.371-0.237 0.388-0.059 0.086-0.072 0.154c-0.013 0.068-0.053 0.147-0.089 0.175-0.073 0.057-0.215 0.337-0.201 0.397 0.005 0.021-0.011 0.038-0.036 0.038s-0.111 0.132-0.191 0.294-0.158 0.306-0.172 0.32c-0.114 0.112-0.175 0.222-0.103 0.185 0.042-0.022 0.032-0.003-0.023 0.041s-0.081 0.081-0.058 0.081 0.010 0.039-0.029 0.087c-0.048 0.059-0.050 0.074-0.006 0.048 0.035-0.021 0.064-0.020 0.064 0.003 0 0.042 0.24 0.169 0.319 0.169 0.024 0 0.093 0.046 0.153 0.102s0.142 0.102 0.182 0.102 0.139 0.048 0.222 0.106c0.434 0.309 0.915 0.458 0.782 0.242-0.014-0.022 0.001-0.041 0.032-0.041s0.044-0.021 0.029-0.046c-0.016-0.025 0-0.057 0.036-0.070s0.096-0.114 0.135-0.223c0.039-0.109 0.085-0.21 0.102-0.224s0.075-0.106 0.129-0.205c0.054-0.099 0.167-0.283 0.251-0.41s0.154-0.259 0.154-0.294c0-0.035 0.021-0.064 0.046-0.064s0.032-0.022 0.016-0.048c-0.016-0.026 0-0.067 0.037-0.090s0.093-0.099 0.126-0.17c0.101-0.218 0.080 0.029-0.038 0.456-0.057 0.207-0.093 0.388-0.080 0.401s0.001 0.085-0.028 0.16c-0.051 0.13-0.082 0.273-0.11 0.494-0.007 0.056-0.031 0.131-0.053 0.166s-0.027 0.085-0.010 0.112c0.016 0.026 0.008 0.061-0.019 0.078s-0.047 0.070-0.045 0.119c0.002 0.049-0.012 0.169-0.032 0.268-0.038 0.187 0.13 0.358 0.351 0.358 0.046 0 0.097 0.035 0.113 0.077s0.065 0.077 0.11 0.077c0.044 0 0.119 0.035 0.167 0.078s0.142 0.089 0.209 0.102c0.067 0.013 0.146 0.053 0.174 0.088 0.064 0.079 0.26 0.193 0.333 0.193 0.030 0 0.104 0.046 0.164 0.102s0.142 0.102 0.182 0.102 0.2 0.070 0.357 0.156c0.157 0.086 0.298 0.135 0.315 0.108s0.111-0.061 0.209-0.077c0.099-0.016 0.317-0.065 0.486-0.111s0.353-0.092 0.41-0.104c0.056-0.012 0.137-0.029 0.179-0.037s0.1-0.030 0.128-0.048 0.132-0.045 0.23-0.062c0.099-0.017 0.306-0.067 0.461-0.111s0.349-0.091 0.432-0.103c0.083-0.012 0.221-0.045 0.307-0.073 0.485-0.157 0.946-0.279 1.095-0.291 0.093-0.007 0.242-0.049 0.329-0.092s0.197-0.067 0.244-0.052c0.113 0.036 0.112-0.070-0.004-0.5-0.051-0.191-0.095-0.358-0.096-0.371s-0.005-0.031-0.007-0.038c-0.002-0.007-0.012-0.070-0.023-0.141-0.043-0.299-0.069-0.403-0.126-0.51-0.033-0.062-0.048-0.146-0.032-0.186s0.002-0.136-0.029-0.214c-0.031-0.077-0.062-0.175-0.067-0.217s-0.029-0.157-0.052-0.256c-0.023-0.099-0.046-0.214-0.052-0.256s-0.029-0.169-0.053-0.282c-0.060-0.283-0.060-0.28-0.073-0.294-0.007-0.007-0.020-0.081-0.030-0.164l-0.018-0.151 0.091 0.139c0.050 0.076 0.11 0.122 0.134 0.1s0.028-0.013 0.010 0.019c-0.030 0.052 0.036 0.146 0.312 0.45 0.066 0.073 0.069 0.088 0.012 0.060-0.042-0.021-0.026 0.008 0.036 0.063s0.1 0.113 0.085 0.128c-0.141 0.141 0.796 0.341 1.030 0.22 0.081-0.042 0.17-0.063 0.197-0.046s0.035 0.007 0.017-0.023c-0.019-0.031 0.039-0.082 0.133-0.118 0.091-0.035 0.178-0.069 0.192-0.076s0.077-0.029 0.141-0.050 0.115-0.058 0.115-0.083c0-0.025 0.029-0.046 0.064-0.046s0.122-0.046 0.192-0.101c0.070-0.055 0.165-0.101 0.21-0.101s0.123-0.047 0.174-0.104c0.051-0.056 0.122-0.102 0.157-0.102 0.082 0 0.4-0.166 0.424-0.221 0.010-0.023 0.079-0.067 0.154-0.098s0.147-0.061 0.161-0.068 0.077-0.028 0.141-0.049c0.063-0.021 0.115-0.059 0.115-0.085s0.069-0.072 0.154-0.101c0.084-0.029 0.142-0.073 0.127-0.097s0.007-0.062 0.049-0.085c0.184-0.103 0.299-0.924 0.138-0.978-0.032-0.011-0.057-0.050-0.057-0.087 0-0.088-0.402-0.384-0.522-0.384-0.083 0-0.116-0.056-0.098-0.166 0.003-0.021-0.017-0.038-0.045-0.038s-0.051-0.035-0.051-0.077c0-0.042-0.019-0.077-0.043-0.077s-0.074-0.058-0.112-0.129c-0.084-0.158-0.492-0.417-0.681-0.432-0.224-0.018-0.511-0.012-0.675 0.015-0.084 0.014-0.169 0.027-0.187 0.030-0.087 0.013-0.604 0.479-0.578 0.521 0.016 0.026 0.010 0.048-0.014 0.048-0.126 0-0.28 0.75-0.168 0.819 0.035 0.021 0.181-0.025 0.333-0.106 0.149-0.079 0.281-0.134 0.294-0.121s0.050-0.063 0.082-0.169c0.14-0.462 1.008-0.548 1.122-0.112 0.014 0.054 0.046 0.085 0.070 0.070s0.030 0.010 0.012 0.057-0.011 0.1 0.014 0.118c0.028 0.020 0.022 0.127-0.014 0.264-0.034 0.127-0.063 0.21-0.065 0.184s-0.047 0.003-0.1 0.064c-0.053 0.061-0.122 0.11-0.154 0.11s-0.058 0.027-0.058 0.060c0 0.033-0.015 0.045-0.032 0.027s-0.072-0.011-0.121 0.015-0.104 0.032-0.123 0.014c-0.090-0.090-0.533-0.112-0.586-0.029-0.019 0.030-0.109 0.070-0.2 0.090s-0.166 0.052-0.166 0.072c0 0.020-0.052 0.040-0.114 0.045s-0.122 0.033-0.132 0.062c-0.010 0.029-0.057 0.053-0.105 0.053s-0.135 0.034-0.194 0.075c-0.059 0.041-0.122 0.060-0.139 0.043s-0.032-0.004-0.032 0.030c0 0.034-0.029 0.056-0.064 0.049s-0.122 0.020-0.192 0.059-0.173 0.080-0.229 0.089c-0.055 0.009-0.153 0.051-0.218 0.093s-0.117 0.064-0.117 0.048c0-0.016-0.052 0-0.115 0.035s-0.142 0.058-0.175 0.052c-0.033-0.007-0.073 0.009-0.090 0.036s-0.076 0.036-0.132 0.021c-0.057-0.015-0.102-0.002-0.102 0.030 0 0.121-1.013-0.018-1.331-0.183-0.070-0.037-0.151-0.067-0.179-0.067s-0.118-0.058-0.2-0.128c-0.082-0.070-0.165-0.128-0.185-0.128s-0.117-0.103-0.215-0.229c-0.098-0.126-0.193-0.218-0.212-0.205s-0.024 0.011-0.012-0.005c0.011-0.016-0.058-0.168-0.154-0.338s-0.174-0.351-0.174-0.403c0-0.196-0.099-0.354-0.241-0.385-0.078-0.017-0.189-0.051-0.245-0.075s-0.155-0.059-0.218-0.076c-0.064-0.018-0.103-0.054-0.087-0.080s-0.001-0.047-0.038-0.048c-0.094-0-0.468-0.342-0.483-0.441-0.007-0.045-0.057-0.131-0.112-0.191s-0.089-0.138-0.076-0.174c0.013-0.035 0.002-0.064-0.024-0.064s-0.050-0.029-0.053-0.064c-0.057-0.597-0.076-0.641-0.267-0.615zM13.050 7.615c-0.003 0.022-0.002 0.062 0.004 0.090s0.018 0.118 0.029 0.201c0.026 0.207 0.128 0.44 0.193 0.44 0.029 0 0.039 0.015 0.020 0.033-0.098 0.098 0.523 0.476 0.795 0.484 0.406 0.011 0.828-0.106 0.881-0.243 0.016-0.041 0.052-0.061 0.080-0.043s0.052-0.004 0.052-0.048 0.021-0.080 0.048-0.080c0.026 0 0.062-0.046 0.081-0.103s0.054-0.090 0.080-0.074c0.042 0.026 0.069-0.050 0.035-0.097-0.007-0.010 0.013-0.050 0.044-0.090s0.054-0.164 0.051-0.277l-0.005-0.205-1.19-0.014c-0.655-0.008-1.193 0.004-1.196 0.026zM16.142 7.622c-0.043 0.028-0.076 0.269-0.072 0.531 0.001 0.049-0.024 0.090-0.055 0.090s-0.041 0.015-0.023 0.034c0.018 0.019 0.008 0.065-0.023 0.102s-0.041 0.069-0.022 0.069c0.019 0-0.007 0.063-0.058 0.141s-0.12 0.187-0.152 0.243c-0.033 0.056-0.084 0.096-0.115 0.089s-0.056 0.018-0.056 0.055c0 0.037-0.063 0.101-0.141 0.141s-0.158 0.098-0.178 0.13c-0.021 0.032-0.173 0.101-0.339 0.153l-0.301 0.095 0.094 0.218c0.051 0.12 0.081 0.218 0.066 0.218s0.025 0.075 0.089 0.166c0.105 0.15 0.22 0.267 0.489 0.499 0.126 0.109 0.333 0.211 0.364 0.181 0.014-0.014 0.055-0.002 0.090 0.027 0.21 0.175 1.61-0.015 1.61-0.218 0-0.023 0.035-0.041 0.079-0.041s0.133-0.035 0.199-0.079 0.14-0.074 0.165-0.069c0.094 0.021 0.531-0.22 0.531-0.293 0-0.043-0.023-0.063-0.051-0.046s-0.051-0.003-0.051-0.046c0-0.043-0.043-0.119-0.094-0.169s-0.138-0.172-0.192-0.271c-0.054-0.099-0.135-0.214-0.18-0.256s-0.12-0.146-0.167-0.23c-0.148-0.267-0.209-0.355-0.327-0.471-0.063-0.062-0.115-0.137-0.115-0.167s-0.023-0.054-0.051-0.054c-0.028 0-0.045-0.023-0.038-0.050 0.024-0.096-0.389-0.562-0.576-0.65-0.177-0.083-0.338-0.113-0.396-0.075zM3.321 9.854c-0.014 0.014-0.126 0.039-0.248 0.054s-0.247 0.044-0.278 0.064c-0.055 0.035-0.082 0.044-0.181 0.057-0.026 0.004-0.078 0.035-0.115 0.070s-0.153 0.121-0.257 0.191c-0.104 0.070-0.213 0.179-0.242 0.243s-0.074 0.116-0.1 0.116c-0.041 0-0.345 0.466-0.325 0.498 0.004 0.007-0.028 0.11-0.071 0.23-0.086 0.239-0.107 0.931-0.030 1.028 0.049 0.063 0.135 0.342 0.123 0.401-0.004 0.018 0.027 0.062 0.068 0.096s0.075 0.089 0.075 0.121c0 0.073 0.243 0.339 0.309 0.339 0.027 0 0.049 0.035 0.049 0.077s0.021 0.077 0.048 0.077c0.026 0 0.078 0.029 0.115 0.064 0.116 0.11 0.672 0.348 0.887 0.38 0.369 0.054 1.009 0.006 1.126-0.084 0.028-0.022 0.108-0.057 0.178-0.079 0.135-0.042 0.425-0.229 0.453-0.294 0.009-0.021 0.038-0.026 0.064-0.010s0.047 0.001 0.047-0.032c0-0.034 0.054-0.11 0.12-0.169 0.192-0.173 0.392-0.468 0.392-0.577 0-0.055 0.022-0.122 0.048-0.149 0.118-0.119 0.164-1.103 0.053-1.141-0.028-0.009-0.050-0.058-0.050-0.109 0-0.409-0.771-1.227-1.241-1.316-0.092-0.017-0.19-0.050-0.218-0.071-0.061-0.047-0.762-0.114-0.8-0.076zM5.565 13.928c-0.13 0.049-0.273 0.127-0.318 0.172s-0.115 0.083-0.154 0.083-0.096 0.046-0.126 0.102c-0.030 0.056-0.083 0.102-0.117 0.102-0.065 0-0.344 0.406-0.344 0.5 0 0.030-0.022 0.062-0.048 0.071-0.124 0.044-0.181 0.897-0.078 1.152 0.036 0.089 0.052 0.176 0.036 0.192s-0.005 0.030 0.024 0.030 0.068 0.056 0.085 0.124c0.017 0.068 0.096 0.189 0.176 0.269s0.155 0.168 0.166 0.196c0.028 0.067 0.335 0.281 0.403 0.281 0.029 0 0.053 0.024 0.053 0.054s0.022 0.041 0.048 0.024c0.026-0.016 0.067-0 0.090 0.035s0.145 0.12 0.272 0.187c0.127 0.067 0.356 0.188 0.511 0.269s0.313 0.147 0.354 0.147c0.041 0 0.059 0.015 0.041 0.033-0.038 0.038 0.198 0.171 0.304 0.171 0.039 0 0.071 0.018 0.071 0.041 0 0.054 0.489 0.317 0.59 0.317 0.043 0 0.092 0.035 0.108 0.077s0.065 0.077 0.11 0.077c0.044 0 0.116 0.033 0.161 0.073s0.115 0.080 0.157 0.090c0.042 0.009 0.107 0.051 0.145 0.094 0.060 0.068 0.064 0.068 0.035 0s-0.026-0.068 0.035 0c0.037 0.042 0.102 0.084 0.145 0.094s0.115 0.051 0.162 0.093c0.075 0.067 0.171 0.103 0.315 0.116 0.023 0.002 0.025 0.033 0.005 0.068s-0.019 0.048 0.004 0.027c0.034-0.031 0.46 0.178 0.539 0.265 0.050 0.055 0.43 0.233 0.471 0.22 0.023-0.007 0.041 0.010 0.041 0.037s0.069 0.086 0.154 0.129 0.154 0.064 0.154 0.045c0-0.019 0.046 0.007 0.102 0.058s0.102 0.073 0.102 0.049c0-0.024 0.029-0.008 0.064 0.035s0.145 0.11 0.243 0.148 0.191 0.085 0.205 0.104c0.034 0.048 0.614 0.359 0.614 0.33 0-0.013 0.121 0.039 0.269 0.114 0.421 0.214 0.91 0.192 1.818-0.083 0.092-0.028 0.166-0.038 0.166-0.022s0.029 0.007 0.064-0.018c0.035-0.026 0.133-0.053 0.218-0.061 0.196-0.019 0.672-0.148 0.87-0.237 0.084-0.038 0.257-0.084 0.384-0.102s0.403-0.079 0.614-0.136 0.413-0.105 0.448-0.108c0.035-0.003 0.064-0.022 0.064-0.043s0.156-0.064 0.346-0.097c0.53-0.091 1.037-0.22 1.037-0.264 0-0.080 0.756 0.114 0.955 0.245 0.066 0.043 0.12 0.064 0.12 0.046s0.066 0.001 0.147 0.043c0.081 0.042 0.163 0.060 0.182 0.041s0.051-0.009 0.070 0.022c0.020 0.032 0.105 0.065 0.189 0.075s0.166 0.035 0.182 0.056c0.016 0.021 0.090 0.044 0.166 0.050s0.138 0.031 0.138 0.054 0.022 0.029 0.049 0.013c0.027-0.017 0.136 0.007 0.243 0.053s0.217 0.088 0.245 0.094 0.099 0.037 0.158 0.069c0.058 0.032 0.162 0.066 0.23 0.076s0.147 0.031 0.175 0.047 0.189 0.070 0.358 0.119c0.169 0.049 0.486 0.157 0.704 0.241s0.418 0.139 0.444 0.123c0.026-0.016 0.055-0.007 0.064 0.021 0.038 0.111 0.954 0.060 1.105-0.062 0.035-0.028 0.064-0.034 0.064-0.012s0.046-0.002 0.102-0.053c0.056-0.051 0.102-0.076 0.102-0.056s0.068-0.004 0.151-0.053c0.083-0.049 0.14-0.106 0.127-0.127s0.023-0.053 0.080-0.071c0.057-0.018 0.103-0.056 0.103-0.085s0.083-0.154 0.185-0.278 0.168-0.226 0.147-0.226c-0.021 0-0.012-0.031 0.019-0.069s0.062-0.13 0.069-0.205c0.006-0.075 0.027-0.136 0.046-0.136s0.030-0.156 0.026-0.346c-0.009-0.342-0.153-0.832-0.246-0.832-0.026 0-0.033-0.023-0.016-0.051s0.006-0.051-0.026-0.051c-0.032 0-0.043-0.023-0.026-0.051s0.011-0.051-0.014-0.051c-0.025 0-0.076-0.058-0.114-0.128s-0.079-0.118-0.091-0.105c-0.012 0.012-0.083-0.034-0.157-0.102-0.153-0.142-0.418-0.279-0.54-0.279-0.045 0-0.082-0.027-0.082-0.060s-0.013-0.046-0.030-0.030c-0.016 0.016-0.106-0.002-0.198-0.041s-0.183-0.056-0.201-0.038c-0.018 0.018-0.032 0.004-0.032-0.031s-0.021-0.050-0.046-0.034c-0.025 0.016-0.11-0.005-0.188-0.046s-0.161-0.062-0.185-0.048c-0.023 0.014-0.042 0.003-0.042-0.024s-0.075-0.066-0.166-0.085c-0.092-0.019-0.339-0.092-0.55-0.163s-0.407-0.134-0.435-0.14c-0.249-0.057-0.524-0.153-0.623-0.218-0.066-0.043-0.12-0.064-0.12-0.046s-0.070-0.003-0.155-0.047c-0.085-0.044-0.176-0.068-0.2-0.052s-0.053 0.007-0.063-0.019c-0.009-0.026-0.086-0.055-0.171-0.064s-0.166-0.035-0.182-0.056c-0.016-0.021-0.090-0.044-0.166-0.050s-0.138-0.031-0.138-0.054-0.022-0.029-0.049-0.013c-0.027 0.017-0.136-0.007-0.243-0.053s-0.217-0.088-0.245-0.094-0.097-0.036-0.154-0.067c-0.056-0.031-0.194-0.071-0.305-0.089s-0.215-0.049-0.23-0.070c-0.042-0.057-0.621-0.090-0.802-0.046-0.060 0.015-0.189 0.040-0.287 0.055s-0.245 0.054-0.327 0.085c-0.081 0.031-0.159 0.055-0.173 0.054-0.057-0.005-0.442 0.105-0.54 0.154-0.058 0.029-0.184 0.060-0.282 0.070s-0.177 0.022-0.177 0.026-0.035 0.016-0.077 0.025c-0.042 0.009-0.134 0.029-0.205 0.045s-0.255 0.065-0.41 0.11c-0.155 0.045-0.358 0.094-0.451 0.109s-0.231 0.059-0.307 0.099c-0.076 0.040-0.178 0.072-0.227 0.072-0.102 0-0.424 0.076-0.935 0.219-0.197 0.055-0.358 0.096-0.358 0.091s-0.063 0.014-0.139 0.043c-0.103 0.039-0.15 0.037-0.179-0.009-0.040-0.062-0.226-0.169-0.808-0.463-0.169-0.085-0.319-0.168-0.333-0.185-0.034-0.039-0.371-0.194-0.429-0.197-0.025-0.001-0.060-0.024-0.077-0.050-0.049-0.075-0.512-0.319-0.605-0.319-0.046 0-0.069-0.014-0.051-0.032 0.035-0.035-0.307-0.232-0.412-0.238-0.035-0.002-0.064-0.024-0.064-0.049s-0.023-0.031-0.052-0.014c-0.028 0.018-0.065-0.004-0.082-0.048s-0.065-0.080-0.107-0.080c-0.042 0-0.135-0.046-0.206-0.102s-0.174-0.102-0.229-0.102-0.084-0.023-0.067-0.051c0.017-0.028-0.010-0.052-0.061-0.052s-0.15-0.046-0.221-0.101c-0.070-0.055-0.172-0.101-0.226-0.101s-0.083-0.016-0.065-0.034c0.038-0.038-0.198-0.171-0.304-0.171-0.039 0-0.071-0.018-0.071-0.041 0-0.054-0.489-0.317-0.59-0.317-0.043 0-0.092-0.035-0.108-0.077s-0.073-0.077-0.126-0.077-0.097-0.021-0.097-0.048c0-0.039-0.138-0.11-0.256-0.131-0.014-0.003-0.099-0.044-0.189-0.092s-0.207-0.087-0.26-0.087c-0.053 0-0.114-0.017-0.135-0.038-0.078-0.079-0.779-0.051-1.019 0.040zM1.382 16.475c-0.099 0.048-0.187 0.105-0.196 0.126s-0.040 0.038-0.068 0.038c-0.055 0-0.197 0.128-0.197 0.178 0 0.017-0.050 0.099-0.111 0.181-0.133 0.18-0.156 0.921-0.029 0.921 0.024 0 0.031 0.020 0.016 0.043s0.014 0.087 0.064 0.141c0.050 0.053 0.106 0.138 0.125 0.188s0.090 0.112 0.159 0.138c0.068 0.026 0.139 0.072 0.158 0.102s0.080 0.054 0.136 0.054 0.091 0.019 0.076 0.043c-0.014 0.023 0.082 0.093 0.215 0.155s0.31 0.157 0.395 0.212c0.202 0.131 0.502 0.275 0.552 0.264 0.022-0.005 0.053 0.026 0.070 0.069s0.063 0.077 0.105 0.077c0.041 0 0.11 0.035 0.152 0.077s0.099 0.064 0.125 0.048c0.026-0.016 0.061 0.007 0.078 0.051s0.057 0.081 0.089 0.081c0.032 0.001 0.115 0.044 0.183 0.097s0.161 0.083 0.205 0.068c0.044-0.016 0.063-0.010 0.042 0.013s0.071 0.097 0.205 0.164c0.133 0.067 0.312 0.167 0.396 0.221 0.205 0.132 0.502 0.273 0.552 0.263 0.022-0.005 0.053 0.026 0.069 0.069s0.063 0.077 0.105 0.077c0.041 0 0.11 0.035 0.152 0.077s0.096 0.066 0.119 0.052c0.023-0.014 0.055 0.009 0.071 0.051s0.066 0.076 0.111 0.076 0.117 0.035 0.159 0.077c0.042 0.042 0.125 0.077 0.184 0.077s0.092 0.015 0.074 0.033c-0.018 0.018 0.087 0.091 0.235 0.161s0.28 0.142 0.294 0.159c0.033 0.040 0.209 0.151 0.307 0.193 0.381 0.163 0.52 0.24 0.655 0.364 0.039 0.035 0.089 0.053 0.112 0.039s0.055 0.009 0.071 0.051c0.016 0.042 0.066 0.076 0.111 0.076s0.117 0.035 0.159 0.077c0.042 0.042 0.125 0.077 0.184 0.077s0.093 0.015 0.075 0.033c-0.018 0.018 0.065 0.080 0.184 0.138s0.228 0.121 0.242 0.14c0.032 0.044 0.492 0.282 0.678 0.351 0.077 0.029 0.141 0.076 0.141 0.105s0.043 0.052 0.096 0.052c0.053 0 0.125 0.034 0.159 0.076s0.084 0.064 0.109 0.048c0.025-0.016 0.060 0.008 0.076 0.052s0.072 0.080 0.123 0.080c0.051 0 0.101 0.024 0.111 0.054 0.015 0.047 0.111 0.081 0.262 0.096 0.023 0.002 0.029 0.024 0.013 0.050s0.031 0.061 0.104 0.079c0.073 0.018 0.18 0.078 0.238 0.132s0.124 0.087 0.146 0.074c0.022-0.014 0.054-0.001 0.072 0.027 0.046 0.074 12.911 0.071 12.957-0.003 0.018-0.030 0.067-0.042 0.107-0.026s0.087-0.006 0.103-0.047c0.016-0.042 0.049-0.063 0.073-0.048s0.073-0.020 0.109-0.077c0.036-0.057 0.096-0.104 0.133-0.104s0.053-0.023 0.036-0.051c-0.017-0.028-0.007-0.051 0.023-0.051s0.054-0.033 0.054-0.073c0-0.040 0.023-0.080 0.052-0.090 0.055-0.018 0.091-0.151 0.127-0.468 0.024-0.214-0.099-0.586-0.227-0.686-0.044-0.034-0.059-0.063-0.033-0.064 0.070-0.002-0.242-0.257-0.315-0.258-0.035-0-0.064-0.020-0.064-0.045s-0.109-0.063-0.243-0.085c-0.134-0.022-0.278-0.047-0.32-0.055s-2.761-0.017-6.042-0.018c-3.718-0.002-5.994-0.021-6.042-0.052-0.042-0.027-0.054-0.049-0.026-0.050s-0.053-0.056-0.179-0.124c-0.126-0.068-0.253-0.11-0.281-0.094s-0.033 0.009-0.010-0.016c0.022-0.025-0.070-0.097-0.205-0.161s-0.315-0.163-0.399-0.219c-0.149-0.099-0.288-0.168-0.525-0.261-0.063-0.025-0.115-0.069-0.115-0.098s-0.046-0.052-0.102-0.052c-0.056 0-0.102-0.024-0.102-0.054s-0.023-0.040-0.051-0.023c-0.028 0.017-0.051 0.006-0.051-0.026s-0.023-0.043-0.052-0.025c-0.028 0.018-0.065-0.004-0.082-0.048s-0.057-0.081-0.089-0.081c-0.032-0.001-0.115-0.044-0.183-0.097s-0.161-0.083-0.205-0.068c-0.044 0.016-0.063 0.010-0.043-0.013s-0.072-0.095-0.205-0.162c-0.133-0.066-0.311-0.166-0.396-0.221-0.199-0.131-0.501-0.276-0.552-0.265-0.022 0.005-0.053-0.026-0.069-0.069s-0.071-0.077-0.122-0.077-0.101-0.024-0.111-0.054c-0.010-0.030-0.060-0.060-0.111-0.068s-0.108-0.035-0.127-0.061c-0.056-0.078-0.35-0.227-0.448-0.227-0.050 0-0.075-0.015-0.057-0.033s-0.079-0.085-0.216-0.148-0.264-0.141-0.284-0.172c-0.019-0.031-0.080-0.056-0.134-0.056s-0.099-0.023-0.099-0.050c0-0.052-0.352-0.228-0.424-0.213-0.022 0.005-0.053-0.026-0.069-0.069s-0.063-0.077-0.105-0.077c-0.041 0-0.11-0.035-0.152-0.077s-0.096-0.066-0.119-0.052c-0.023 0.014-0.055-0.009-0.071-0.051s-0.066-0.076-0.111-0.076-0.117-0.035-0.159-0.077c-0.042-0.042-0.125-0.077-0.184-0.077s-0.092-0.015-0.074-0.033c0.018-0.018-0.079-0.085-0.216-0.148s-0.264-0.141-0.284-0.172c-0.019-0.031-0.080-0.056-0.134-0.056s-0.099-0.023-0.099-0.050c0-0.052-0.352-0.228-0.424-0.213-0.022 0.005-0.053-0.026-0.070-0.069s-0.063-0.077-0.105-0.077c-0.041 0-0.11-0.035-0.152-0.077s-0.098-0.064-0.124-0.048c-0.026 0.016-0.047 0.004-0.047-0.026s-0.063-0.081-0.141-0.113c-0.358-0.147-0.848-0.171-1.088-0.053z"></path>
</svg>
