<!-- Generated by IcoMoon.io -->
<svg version="1.1" xmlns="http://www.w3.org/2000/svg" width="36" height="32" viewBox="0 0 36 32">
<title>s_tab7</title>
<path fill="#555" d="M12.177 0.577c-0.032 0.038-0.086 0.069-0.122 0.069-0.107 0-0.591 0.522-0.701 0.755-0.163 0.347-0.126 1.413 0.049 1.413 0.020 0 0.037 0.026 0.038 0.058 0.011 0.419 1.133 0.948 1.695 0.799 0.134-0.036 0.248-0.064 0.254-0.062 0.278 0.066 0.99-0.728 1.068-1.19 0.058-0.343 0.068-0.48 0.036-0.481-0.018-0-0.036-0.073-0.041-0.162-0.020-0.397-0.411-0.925-0.86-1.162-0.247-0.13-1.314-0.158-1.415-0.037zM6.058 2.882c-0.106 0.026-0.208 0.063-0.227 0.082s-0.072 0.034-0.119 0.034c-0.046 0-0.085 0.021-0.085 0.046s-0.023 0.046-0.052 0.046c-0.077 0-0.438 0.392-0.509 0.552-0.034 0.077-0.075 0.14-0.090 0.14-0.060 0-0.145 0.566-0.12 0.805 0.157 1.518 2.28 1.928 2.976 0.575 0.11-0.214 0.244-0.713 0.214-0.799-0.010-0.028-0.026-0.102-0.037-0.165-0.159-0.929-1.057-1.535-1.951-1.315zM18.888 2.881c-0.393 0.102-1.037 0.638-1.037 0.863 0 0.043-0.021 0.092-0.046 0.107s-0.046 0.105-0.047 0.199c-0 0.094-0.017 0.196-0.037 0.227-0.036 0.056 0.034 0.547 0.103 0.727 0.501 1.306 2.44 1.297 2.933-0.013 0.14-0.37 0.102-1.255-0.054-1.255-0.021 0-0.039-0.038-0.039-0.083 0-0.143-0.551-0.621-0.832-0.722-0.283-0.101-0.667-0.122-0.944-0.050zM10.701 4.053c-0.487 0.089-1.338 0.633-1.338 0.856 0 0.031-0.051 0.105-0.113 0.163s-0.109 0.119-0.104 0.135-0.014 0.091-0.042 0.167c-0.136 0.369-0.156 0.626-0.156 2.006v1.428l-0.127 0.028c-0.217 0.047-0.608 0.212-0.728 0.306l-0.114 0.090v-0.825c0-0.648-0.016-0.874-0.077-1.053-0.424-1.257-2.047-1.484-2.804-0.391-0.248 0.358-0.254 0.432-0.255 2.96l-0 2.335-0.242 0.274c-0.449 0.508-0.429 0.52-0.411-0.257 0.026-1.107-0.1-1.602-0.51-1.994-0.794-0.758-2.032-0.506-2.513 0.512-0.133 0.282-0.152 0.661-0.152 3.063 0 2.392-0.002 2.461-0.092 2.565-0.114 0.132-0.143 1.486-0.033 1.554 0.032 0.020 0.098 0.125 0.145 0.233 0.099 0.225 0.46 0.584 0.768 0.764 0.453 0.265 0.396 0.261 3.76 0.262l3.095 0-0.022 0.735c-0.024 0.823 0.009 1.215 0.112 1.317 0.038 0.038 0.053 0.069 0.034 0.069s0.044 0.070 0.14 0.156c0.238 0.212 0.666 0.335 0.741 0.213 0.016-0.025 0.070-0.046 0.12-0.046 0.114 0 0.386-0.261 0.433-0.415 0.019-0.063 0.055-0.14 0.079-0.171s0.040-0.124 0.034-0.208c-0.006-0.084-0.008-0.489-0.004-0.902l0.007-0.75h0.22l0.018 1.534c0.010 0.844 0.034 1.56 0.054 1.591 0.028 0.045 0.533 0.058 2.271 0.058h2.234v-3.183h0.254l-0.007 0.75c-0.013 1.465 0.118 1.685 0.981 1.641 0.63-0.032 0.708-0.201 0.709-1.549l0-0.842h3.074c2.136 0 3.131-0.016 3.263-0.052 0.589-0.161 1.029-0.514 1.344-1.076l0.168-0.3-0.015-0.635c-0.014-0.602-0.022-0.644-0.139-0.814l-0.124-0.179-0.004-2.439c-0.005-3.014-0.024-3.123-0.618-3.568-0.493-0.369-1.391-0.443-1.646-0.136-0.031 0.037-0.090 0.067-0.133 0.067-0.104 0-0.435 0.349-0.545 0.577-0.175 0.359-0.202 0.568-0.187 1.441 0.008 0.463 0.009 0.842 0.002 0.842-0.012 0-0.069-0.061-0.464-0.495l-0.2-0.22 0.004-2.271c0.004-2.201-0.017-2.617-0.142-2.754-0.022-0.024-0.040-0.074-0.040-0.11s-0.052-0.114-0.115-0.173c-0.063-0.059-0.115-0.125-0.115-0.147 0-0.058-0.184-0.216-0.346-0.297-0.076-0.038-0.201-0.103-0.277-0.145-0.33-0.179-1.007-0.095-1.407 0.176-0.582 0.394-0.695 0.71-0.696 1.948l-0.001 0.747-0.214-0.136c-0.118-0.075-0.247-0.136-0.288-0.136s-0.094-0.019-0.118-0.043c-0.024-0.023-0.106-0.049-0.182-0.058l-0.138-0.015-0.028-1.591c-0.015-0.875-0.049-1.669-0.076-1.763-0.122-0.437-0.641-1.045-1.029-1.205-0.113-0.047-0.278-0.119-0.367-0.161-0.168-0.079-4.173-0.131-4.567-0.059zM2.168 6.487c-0.279 0.107-0.546 0.267-0.623 0.372-0.050 0.069-0.127 0.161-0.17 0.206-0.633 0.649-0.328 1.916 0.571 2.372 0.256 0.13 1.097 0.177 1.206 0.069 0.027-0.027 0.079-0.050 0.115-0.050 0.246 0 0.734-0.566 0.879-1.018 0.096-0.301 0.027-1.104-0.095-1.104-0.020 0-0.037-0.037-0.037-0.082 0-0.435-1.3-0.974-1.845-0.764zM22.567 6.516c-0.108 0.026-0.196 0.065-0.196 0.087s-0.030 0.040-0.066 0.040c-0.324 0-0.844 0.941-0.798 1.445 0.184 2.020 3.095 1.951 3.152-0.075 0.030-1.060-0.961-1.769-2.092-1.497zM10.687 6.586c0.039 0.025 0.059 0.336 0.069 1.083l0.014 1.048-0.231-0 0.009-1.026c0.005-0.564 0.010-1.052 0.012-1.084 0.002-0.065 0.046-0.072 0.126-0.021zM15.143 7.671l0.023 1.052-0.245-0.028-0.012-0.999c-0.011-0.879-0.003-1.008 0.064-1.075 0.13-0.13 0.146-0.032 0.17 1.051zM13.060 9.365c3.718 0.003 3.668 0 4.158 0.26 0.243 0.129 6.906 6.722 6.906 6.833 0 0.026 0.027 0.075 0.059 0.109 0.138 0.142 0.241 0.912 0.131 0.98-0.022 0.014-0.053 0.090-0.069 0.169-0.061 0.304-0.524 0.742-0.88 0.831-0.115 0.029-1.367 0.050-3.244 0.056l-3.057 0.009 0.003-1.499c0.004-1.982-0.026-2.133-0.542-2.782-0.141-0.177-0.547-0.493-0.634-0.493-0.039 0-0.071-0.016-0.071-0.036 0-0.323-5.51-0.357-5.904-0.036-0.038 0.031-0.145 0.1-0.238 0.153-0.318 0.181-0.774 0.701-0.806 0.92-0.006 0.041-0.035 0.089-0.064 0.107s-0.054 0.051-0.055 0.074c-0.001 0.023-0.021 0.092-0.044 0.153s-0.047 0.856-0.052 1.765l-0.009 1.653-3.090-0c-3.259-0-3.276-0.001-3.58-0.225-0.637-0.468-0.788-1.366-0.333-1.978 0.061-0.082 1.35-1.394 2.865-2.916s2.905-2.921 3.089-3.109c0.632-0.646 0.934-0.841 1.464-0.944 0.341-0.066 0.498-0.087 0.537-0.069 0.016 0.007 1.573 0.015 3.459 0.016zM12.546 9.652c0 0.019-0.015 0.030-0.035 0.025-0.406-0.107-1.229 0.699-1.373 1.347-0.107 0.478 0.103 1.315 0.357 1.422 0.020 0.008 0.036 0.034 0.036 0.058 0 0.266 0.776 0.617 1.361 0.615 0.688-0.002 1.594-0.634 1.615-1.127 0.001-0.013 0.021-0.054 0.046-0.092 0.064-0.098 0.074-0.811 0.014-0.96-0.057-0.141-0.224-0.493-0.287-0.604-0.095-0.17-0.536-0.489-0.816-0.592-0.287-0.105-0.919-0.169-0.919-0.093zM10.563 17.453v1.17h-0.111c-0.155 0-0.164-0.059-0.165-1.124-0.001-1.105 0.015-1.217 0.167-1.217h0.11v1.171zM15.36 17.386c0 0.607 0.012 1.135 0.027 1.173 0.021 0.054-0.006 0.069-0.115 0.066l-0.142-0.004v-1.138c0-1.172 0.003-1.2 0.146-1.2 0.080 0 0.085 0.064 0.085 1.103z"></path>
</svg>
