<!-- Generated by IcoMoon.io -->
<svg version="1.1" xmlns="http://www.w3.org/2000/svg" width="40" height="32" viewBox="0 0 40 32">
<title>s_tab2</title>
<path fill="#555" d="M6.975 0.71c-0.012 0.019-0.055 0.025-0.097 0.015-0.091-0.024-0.225 0.065-0.188 0.125 0.015 0.024 0.001 0.053-0.030 0.065-0.042 0.016-0.058 0.124-0.063 0.422-0.007 0.478 0.050 0.415-0.392 0.429-0.203 0.006-0.428 0.035-0.5 0.065-0.095 0.039-0.139 0.041-0.159 0.007-0.019-0.031-0.040-0.026-0.064 0.017-0.019 0.035-0.068 0.058-0.107 0.053s-0.096 0.019-0.126 0.055c-0.030 0.036-0.043 0.042-0.028 0.014 0.031-0.062 0.017-0.063-0.122-0.010-0.066 0.025-0.096 0.059-0.078 0.088s0.011 0.036-0.018 0.018c-0.026-0.016-0.047-0.009-0.047 0.017s-0.015 0.036-0.034 0.025c-0.034-0.021-0.195 0.141-0.18 0.18 0.005 0.011-0.005 0.021-0.022 0.021-0.062 0.001-0.134 0.068-0.112 0.103 0.013 0.020-0.014 0.060-0.059 0.088-0.066 0.041-0.072 0.063-0.032 0.111 0.040 0.050 0.037 0.056-0.023 0.034-0.065-0.025-0.091 0.011-0.077 0.104 0.003 0.017-0.016 0.031-0.040 0.031s-0.035 0.026-0.023 0.057c0.012 0.032-0.004 0.092-0.037 0.133-0.056 0.073-0.058 0.072-0.035-0.006 0.022-0.076 0.020-0.076-0.024-0.008-0.036 0.057-0.035 0.089 0.007 0.141 0.039 0.048 0.040 0.059 0.003 0.036-0.033-0.020-0.051-0.006-0.051 0.039 0 0.039-0.045 0.13-0.101 0.202s-0.089 0.143-0.075 0.157c0.014 0.014 0.004 0.026-0.022 0.026s-0.046 0.014-0.043 0.031c0.016 0.103-0.014 0.175-0.077 0.177-0.046 0.002-0.052 0.011-0.019 0.024 0.037 0.015 0.021 0.051-0.054 0.12-0.058 0.054-0.096 0.116-0.083 0.137s0.005 0.049-0.018 0.064c-0.023 0.014-0.042 0.052-0.042 0.085s-0.038 0.097-0.084 0.143c-0.052 0.052-0.075 0.113-0.060 0.16 0.013 0.042 0.005 0.088-0.018 0.103s-0.043 0.002-0.044-0.027c-0.001-0.029-0.026 0.002-0.056 0.069s-0.046 0.138-0.035 0.156c0.010 0.018-0.017 0.064-0.061 0.102s-0.071 0.093-0.062 0.121c0.010 0.028-0.002 0.051-0.027 0.051s-0.042 0.014-0.039 0.031c0.011 0.070-0.008 0.13-0.056 0.181-0.028 0.030-0.079 0.109-0.113 0.177s-0.080 0.136-0.102 0.153c-0.024 0.018-0.017 0.030 0.018 0.031 0.042 0 0.036 0.017-0.020 0.059-0.044 0.032-0.082 0.073-0.085 0.092-0.017 0.106-0.071 0.218-0.104 0.218-0.021 0-0.027 0.018-0.014 0.041 0.027 0.044-0.031 0.174-0.075 0.168-0.065-0.009-0.069 0.001-0.028 0.076 0.035 0.065 0.027 0.084-0.043 0.106-0.059 0.019-0.079 0.051-0.065 0.105 0.011 0.043 0.004 0.078-0.017 0.078s-0.037 0.026-0.037 0.057c0 0.031-0.029 0.068-0.065 0.082s-0.057 0.048-0.048 0.075c0.009 0.028-0.013 0.078-0.050 0.113s-0.043 0.046-0.013 0.027c0.084-0.056 0.062 0.004-0.034 0.093-0.051 0.047-0.077 0.108-0.063 0.145 0.015 0.040-0.013 0.088-0.077 0.13-0.056 0.036-0.101 0.087-0.1 0.113s0.018 0.019 0.040-0.015c0.034-0.053 0.040-0.052 0.040 0.008 0 0.038-0.038 0.081-0.085 0.096-0.064 0.020-0.081 0.052-0.067 0.124 0.010 0.053 0.005 0.089-0.012 0.078s-0.056 0.012-0.086 0.050c-0.048 0.059-0.047 0.064 0.006 0.035 0.034-0.019 0.020 0.006-0.031 0.055-0.095 0.092-0.123 0.151-0.051 0.107 0.023-0.014 0.041-0.006 0.041 0.018s-0.018 0.043-0.039 0.043c-0.022 0-0.059 0.074-0.083 0.163s-0.061 0.159-0.082 0.154c-0.051-0.013-0.209 0.299-0.177 0.351 0.014 0.023 0.006 0.029-0.018 0.015s-0.054 0.001-0.067 0.035-0.003 0.061 0.022 0.061c0.025 0-0.001 0.047-0.058 0.104-0.062 0.062-0.096 0.134-0.084 0.179s-0.007 0.085-0.044 0.1c-0.040 0.015-0.054 0.050-0.037 0.094 0.018 0.047 0.011 0.060-0.021 0.040-0.029-0.018-0.048-0.004-0.048 0.034 0 0.097-0.010 0.119-0.090 0.205-0.041 0.044-0.069 0.103-0.064 0.131s-0.027 0.081-0.072 0.118c-0.045 0.037-0.054 0.055-0.020 0.040 0.051-0.022 0.050-0.017-0.003 0.028-0.073 0.062-0.142 0.216-0.079 0.177 0.022-0.014 0.040 0.005 0.040 0.041s-0.018 0.055-0.040 0.041c-0.023-0.014-0.030 0.002-0.016 0.039 0.013 0.035 0.004 0.064-0.022 0.064-0.055 0-0.062 8.217-0.007 8.251 0.019 0.012 0.034 0.068 0.034 0.126s0.035 0.133 0.077 0.168 0.052 0.050 0.023 0.035c-0.045-0.023-0.045-0.013-0 0.058 0.030 0.047 0.066 0.086 0.081 0.086s0.038 0.044 0.051 0.097c0.014 0.056 0.076 0.119 0.148 0.148 0.068 0.028 0.123 0.068 0.123 0.089s-0.021 0.025-0.047 0.009c-0.030-0.019-0.036-0.011-0.016 0.022 0.017 0.028 0.066 0.042 0.109 0.031 0.058-0.015 0.077 0.002 0.078 0.068 0 0.064 0.010 0.073 0.035 0.033 0.027-0.043 0.058-0.031 0.143 0.053 0.059 0.059 0.108 0.088 0.108 0.064 0-0.032 0.024-0.032 0.083 0 0.046 0.024 0.074 0.059 0.063 0.076s0.007 0.032 0.040 0.032c0.033 0 0.060-0.012 0.060-0.026s0.069-0.017 0.154-0.007c0.141 0.018 0.145 0.022 0.051 0.049-0.056 0.016 4.825 0.032 10.847 0.034 6.539 0.002 10.94-0.011 10.926-0.033-0.013-0.020 0.012-0.028 0.054-0.017 0.049 0.013 0.1-0.013 0.141-0.071 0.042-0.060 0.091-0.084 0.145-0.070 0.057 0.015 0.087-0.003 0.103-0.063 0.019-0.074 0.030-0.077 0.093-0.026 0.039 0.032 0.059 0.037 0.043 0.011-0.026-0.043 0.17-0.245 0.364-0.375 0.043-0.029 0.056-0.042 0.027-0.028s-0.051 0.007-0.051-0.015c0-0.021 0.026-0.049 0.058-0.061s0.070-0.078 0.085-0.147c0.015-0.069 0.044-0.136 0.065-0.148s0.027 0.010 0.013 0.051c-0.020 0.061-0.016 0.063 0.019 0.013 0.024-0.034 0.028-0.077 0.009-0.096s-0.004-0.093 0.032-0.164c0.126-0.245 0.094-8.566-0.032-8.488-0.019 0.012-0.046-0.005-0.058-0.038s-0.003-0.072 0.022-0.088c0.030-0.019 0.019-0.047-0.032-0.085-0.043-0.031-0.080-0.070-0.083-0.086-0.020-0.107-0.071-0.213-0.102-0.213-0.020 0-0.036-0.020-0.036-0.043s0.020-0.031 0.045-0.015c0.025 0.015 0.015-0.019-0.023-0.076s-0.099-0.116-0.136-0.13c-0.059-0.023-0.060-0.031-0.008-0.065 0.050-0.032 0.050-0.045 0.006-0.074-0.030-0.019-0.054-0.052-0.054-0.072s-0.029-0.030-0.066-0.022c-0.053 0.011-0.057 0.002-0.019-0.044 0.028-0.034 0.033-0.074 0.012-0.096-0.020-0.021-0.043-0.075-0.051-0.12s-0.033-0.080-0.055-0.078c-0.048 0.005-0.159-0.227-0.146-0.305 0.005-0.030-0.010-0.043-0.034-0.029-0.026 0.016-0.034 0.002-0.019-0.037 0.013-0.035 0.004-0.064-0.021-0.064s-0.045-0.037-0.045-0.082-0.032-0.114-0.072-0.154c-0.12-0.121-0.22-0.296-0.194-0.339 0.014-0.022-0.004-0.051-0.039-0.065s-0.064-0.042-0.064-0.064 0.018-0.028 0.041-0.014c0.023 0.014 0.030-0.002 0.016-0.038-0.013-0.035-0.039-0.054-0.057-0.043-0.034 0.021-0.1-0.099-0.087-0.158 0.004-0.019-0.023-0.058-0.062-0.086-0.042-0.030-0.059-0.078-0.044-0.118 0.014-0.037 0.009-0.067-0.011-0.067s-0.050-0.041-0.066-0.092c-0.016-0.051-0.057-0.112-0.090-0.137s-0.052-0.071-0.042-0.102c0.011-0.032-0.001-0.080-0.025-0.108-0.119-0.135-0.148-0.176-0.123-0.176 0.015 0 0.002-0.031-0.029-0.069-0.048-0.060-0.048-0.065 0.005-0.038 0.040 0.020 0.037 0.011-0.008-0.026-0.038-0.031-0.075-0.083-0.082-0.114s-0.050-0.090-0.095-0.129c-0.045-0.040-0.061-0.072-0.035-0.073s0.038-0.036 0.026-0.083c-0.012-0.045-0.038-0.071-0.058-0.059s-0.036-0.008-0.036-0.046c0-0.037-0.047-0.124-0.105-0.193-0.072-0.085-0.090-0.134-0.058-0.154s0.027-0.037-0.018-0.054c-0.036-0.014-0.065-0.051-0.065-0.083s-0.030-0.070-0.066-0.084c-0.048-0.019-0.054-0.039-0.023-0.077 0.045-0.054 0.004-0.162-0.059-0.155-0.020 0.002-0.039-0.037-0.041-0.087s-0.044-0.117-0.092-0.149c-0.048-0.032-0.087-0.091-0.087-0.132s-0.019-0.086-0.042-0.1c-0.023-0.014-0.039-0.048-0.036-0.074 0.013-0.102-0.005-0.154-0.045-0.13-0.023 0.014-0.041-0.007-0.041-0.046s-0.032-0.108-0.072-0.153c-0.039-0.045-0.047-0.068-0.017-0.050 0.045 0.026 0.045 0.017 0.002-0.052-0.029-0.046-0.065-0.076-0.080-0.066s-0.038-0.019-0.049-0.064c-0.012-0.045-0.006-0.072 0.012-0.061s0.012-0.025-0.014-0.082c-0.026-0.056-0.073-0.102-0.103-0.102-0.036-0-0.048-0.030-0.034-0.086 0.017-0.065 0.007-0.079-0.042-0.060-0.056 0.021-0.057 0.015-0.007-0.046 0.038-0.047 0.040-0.060 0.006-0.039-0.031 0.018-0.051 0.009-0.051-0.024 0-0.030-0.049-0.126-0.108-0.213s-0.087-0.146-0.061-0.13c0.085 0.053 0.048-0.043-0.055-0.139-0.056-0.052-0.091-0.111-0.079-0.13 0.033-0.054-0.025-0.203-0.068-0.176-0.021 0.013-0.038-0.005-0.038-0.040s-0.029-0.064-0.064-0.064c-0.035 0-0.054-0.016-0.041-0.036s-0.015-0.046-0.062-0.058c-0.053-0.014-0.079-0.049-0.071-0.097 0.009-0.054-0.040-0.1-0.182-0.168-0.107-0.051-0.195-0.113-0.195-0.138s-0.029-0.034-0.064-0.020c-0.036 0.014-0.053 0.007-0.039-0.016s-0.013-0.040-0.059-0.040-0.084-0.018-0.084-0.041c0-0.023-0.028-0.041-0.061-0.041s-0.061 0.020-0.061 0.044c0 0.024-0.035 0.033-0.079 0.019-0.238-0.076-0.382-0.096-0.71-0.1l-0.276-0.003v-0.325c0-0.187-0.019-0.337-0.044-0.352-0.024-0.015-0.034-0.053-0.022-0.084s0.009-0.057-0.008-0.057-0.054-0.039-0.084-0.086c-0.045-0.071-0.045-0.081 0-0.056 0.032 0.018 0.028 0.002-0.010-0.038-0.071-0.075-12.022-0.127-12.069-0.052zM18.145 2.662v1.024h-10.568v-2.048h10.568v1.024zM6.595 3.261v0.434l-0.324-0.015c-0.178-0.008-0.317-0.004-0.309 0.009s-0.011 0.024-0.043 0.024-0.047-0.018-0.033-0.039c0.013-0.022-0.001-0.030-0.032-0.019s-0.052 0.041-0.047 0.067c0.006 0.025-0.004 0.044-0.020 0.041s-0.045-0-0.061 0.005c-0.017 0.006-0.054 0.012-0.082 0.015s-0.053 0.033-0.055 0.067c-0.007 0.133-0.070 0.328-0.106 0.328-0.022 0-0.033 0.527-0.026 1.286 0.007 0.708 0.001 1.269-0.012 1.248-0.039-0.063-0.644-0.036-0.669 0.030-0.012 0.031-0.069 0.056-0.128 0.056-0.060 0-0.095 0.018-0.081 0.041s-0.001 0.041-0.034 0.041-0.070 0.029-0.084 0.064c-0.014 0.036-0.007 0.053 0.016 0.039s0.040 0.004 0.040 0.039-0.019 0.064-0.043 0.064c-0.024 0-0.040 0.023-0.036 0.051s0.004 0.443 0.002 0.922l-0.005 0.87h-0.917c-1.002 0-1.063-0.015-0.861-0.217 0.068-0.068 0.091-0.124 0.072-0.174-0.019-0.050-0.013-0.064 0.020-0.044 0.028 0.017 0.048 0.005 0.048-0.029 0-0.032 0.028-0.082 0.061-0.11 0.072-0.060 0.084-0.141 0.014-0.098-0.053 0.033-0.025-0.021 0.098-0.191 0.042-0.058 0.079-0.143 0.083-0.19 0.004-0.049 0.028-0.077 0.056-0.066 0.033 0.013 0.043-0.009 0.028-0.066-0.016-0.062-0.003-0.085 0.048-0.085 0.044 0 0.062-0.022 0.048-0.058-0.012-0.032 0.003-0.068 0.033-0.079 0.035-0.013 0.047-0.055 0.032-0.112-0.014-0.053-0.007-0.081 0.015-0.067 0.022 0.013 0.063-0.013 0.091-0.059 0.043-0.069 0.042-0.078-0.002-0.052-0.030 0.017-0.022-0.005 0.017-0.050s0.072-0.113 0.072-0.152c0-0.038 0.026-0.080 0.059-0.092s0.050-0.045 0.039-0.073c-0.011-0.028 0.030-0.1 0.090-0.16s0.089-0.11 0.063-0.11-0.010-0.037 0.035-0.082c0.045-0.045 0.082-0.12 0.082-0.166s0.017-0.074 0.037-0.062c0.055 0.034 0.086-0.083 0.035-0.134-0.032-0.032-0.026-0.052 0.024-0.071 0.038-0.014 0.068-0.051 0.068-0.081s0.032-0.074 0.072-0.097c0.039-0.023 0.049-0.042 0.022-0.043-0.029-0.001-0.039-0.029-0.025-0.066 0.020-0.053 0.032-0.055 0.064-0.010 0.028 0.039 0.033 0.029 0.019-0.035-0.012-0.053 0.003-0.098 0.037-0.111 0.031-0.012 0.057-0.060 0.057-0.107s0.016-0.076 0.036-0.063c0.020 0.012 0.046-0.014 0.058-0.059s0.004-0.081-0.018-0.081c-0.022 0-0.028-0.019-0.014-0.042s0.041-0.032 0.060-0.020c0.019 0.012 0.030-0.011 0.024-0.051s0.037-0.116 0.096-0.169c0.059-0.053 0.079-0.082 0.045-0.064-0.053 0.029-0.054 0.024-0.005-0.036 0.031-0.038 0.044-0.069 0.029-0.069-0.025 0 0.020-0.064 0.124-0.175 0.025-0.026 0.036-0.081 0.026-0.121s0-0.073 0.024-0.073 0.066-0.064 0.094-0.141c0.028-0.078 0.069-0.13 0.092-0.116 0.024 0.015 0.030-0.003 0.015-0.042-0.014-0.037 0.001-0.094 0.034-0.127s0.060-0.089 0.060-0.125c0-0.036 0.026-0.076 0.058-0.088s0.069-0.050 0.081-0.083c0.013-0.034 0.005-0.049-0.017-0.035s-0.040 0.006-0.040-0.018 0.014-0.043 0.031-0.043c0.017 0 0.063-0.074 0.102-0.164s0.089-0.164 0.111-0.164c0.022 0 0.028-0.031 0.014-0.068-0.019-0.048-0.011-0.059 0.026-0.036 0.039 0.024 0.045 0.009 0.023-0.060-0.019-0.059-0.014-0.083 0.012-0.066 0.023 0.014 0.111-0.042 0.197-0.125 0.088-0.085 0.162-0.13 0.171-0.103 0.011 0.033 0.034 0.029 0.077-0.014 0.044-0.044 0.153-0.061 0.386-0.061h0.325v0.434zM19.825 2.877c0 0.034 0.014 0.031 0.040-0.010 0.034-0.052 0.040-0.050 0.040 0.013 0 0.041 0.020 0.062 0.043 0.048s0.069-0.005 0.101 0.022 0.080 0.034 0.107 0.018 0.038-0.013 0.023 0.013c-0.015 0.024 0.015 0.054 0.065 0.067s0.125 0.091 0.167 0.176c0.061 0.124 0.063 0.142 0.010 0.098-0.098-0.081-0.077-0.018 0.028 0.084 0.051 0.049 0.064 0.074 0.031 0.055-0.053-0.030-0.054-0.025-0.006 0.034 0.031 0.038 0.071 0.059 0.090 0.048s0.026 0.024 0.016 0.079c-0.013 0.074 0.003 0.107 0.064 0.127 0.045 0.014 0.082 0.057 0.082 0.095-0 0.059-0.006 0.060-0.040 0.007-0.022-0.034-0.040-0.041-0.040-0.015s0.044 0.076 0.098 0.111c0.072 0.047 0.093 0.089 0.075 0.154-0.015 0.058-0.008 0.080 0.020 0.063s0.036 0.003 0.023 0.052c-0.013 0.051 0.009 0.098 0.061 0.13 0.045 0.028 0.072 0.076 0.060 0.107s-0.005 0.053 0.014 0.049c0.083-0.015 0.104 0.007 0.059 0.061-0.038 0.046-0.032 0.063 0.032 0.083 0.055 0.017 0.073 0.051 0.059 0.106-0.012 0.046-0.001 0.080 0.027 0.080 0.026 0 0.037 0.017 0.024 0.038s0.009 0.057 0.049 0.081c0.044 0.026 0.052 0.043 0.019 0.044-0.029 0.001-0.042 0.020-0.028 0.043s0.041 0.032 0.060 0.021c0.042-0.026 0.092 0.095 0.060 0.147-0.013 0.021 0.001 0.033 0.031 0.027 0.032-0.007 0.049 0.018 0.042 0.061-0.007 0.040 0.017 0.084 0.054 0.097s0.056 0.051 0.043 0.084c-0.012 0.032-0.006 0.048 0.014 0.036s0.047 0.005 0.060 0.039c0.013 0.034 0.001 0.063-0.026 0.064-0.038 0.002-0.038 0.008 0.001 0.024 0.028 0.011 0.051 0.039 0.051 0.061s0.028 0.068 0.062 0.102c0.034 0.034 0.051 0.079 0.039 0.1s-0.006 0.038 0.015 0.038c0.043 0 0.102 0.155 0.091 0.24-0.004 0.034 0.012 0.043 0.043 0.024 0.035-0.022 0.043-0.011 0.024 0.037-0.017 0.044-0.005 0.068 0.034 0.068 0.033 0 0.057 0.014 0.053 0.031-0.016 0.065 0.103 0.375 0.136 0.355 0.019-0.012 0.037-0.002 0.040 0.022s0.009 0.057 0.014 0.074c0.059 0.213 0.081 0.256 0.132 0.256 0.033 0 0.049 0.017 0.036 0.038s-0.004 0.050 0.019 0.064 0.033 0.041 0.022 0.060c-0.011 0.018 0.006 0.055 0.038 0.082s0.048 0.076 0.035 0.109c-0.015 0.039 0.008 0.069 0.063 0.084 0.048 0.012 0.076 0.040 0.062 0.062s0.019 0.087 0.072 0.145c0.053 0.058 0.069 0.091 0.035 0.072s-0.022 0.011 0.026 0.065c0.048 0.054 0.082 0.131 0.075 0.171s0.005 0.061 0.025 0.049c0.021-0.013 0.039 0.038 0.041 0.112s0.013 0.112 0.024 0.084 0.039-0.040 0.060-0.027c0.024 0.015 0.018 0.050-0.014 0.090-0.040 0.049-0.040 0.058-0.002 0.035 0.034-0.021 0.051-0.003 0.051 0.055 0 0.047 0.026 0.095 0.057 0.107s0.048 0.055 0.038 0.096c-0.012 0.047 0.030 0.12 0.117 0.202l0.137 0.128-1.992 0 0.013-0.952c0.011-0.806 0.004-0.961-0.048-1.007-0.055-0.048-0.055-0.051 0-0.025 0.034 0.016 0.021-0.010-0.029-0.058s-0.119-0.088-0.154-0.088c-0.035 0-0.063-0.028-0.063-0.061 0-0.050-0.068-0.061-0.369-0.061h-0.369v-1.288c0-0.857-0.014-1.297-0.043-1.314-0.024-0.015-0.036-0.048-0.026-0.074 0.019-0.055-0.133-0.288-0.167-0.255-0.012 0.012-0.049 0-0.081-0.026-0.038-0.032-0.186-0.045-0.424-0.038l-0.365 0.011v-0.866h0.307c0.218 0 0.307 0.015 0.308 0.051zM19.292 5.652v1.024h-12.78v-2.048h12.78v1.024zM20.357 8.315v0.614l-1.362 0.005c-0.749 0.003-1.39 0.002-1.423-0.002-0.050-0.005-0.051 0-0.006 0.031 0.043 0.029 0.044 0.045 0.006 0.068-0.028 0.017-0.065 0.006-0.085-0.026-0.027-0.044-0.062-0.027-0.157 0.077-0.115 0.126-0.247 0.187-0.184 0.086 0.018-0.030 0.011-0.036-0.019-0.018-0.026 0.016-0.037 0.047-0.024 0.068s0.004 0.038-0.020 0.038-0.043 0.028-0.043 0.061c0 0.034-0.029 0.061-0.064 0.061s-0.053 0.017-0.040 0.038c0.013 0.021 0.004 0.050-0.021 0.066s-0.036 0.049-0.026 0.075c0.021 0.055-0.073 0.157-0.111 0.12-0.014-0.014-0.025 0.014-0.025 0.062s-0.019 0.098-0.042 0.112c-0.023 0.014-0.032 0.042-0.020 0.061s0.004 0.046-0.018 0.060c-0.022 0.014-0.029 0.052-0.017 0.085 0.014 0.037-0.002 0.060-0.043 0.060-0.077 0-0.091 0.081-0.015 0.083 0.028 0.001 0.005 0.037-0.051 0.081s-0.086 0.081-0.067 0.081c0.020 0.001 0.014 0.028-0.014 0.061s-0.038 0.079-0.023 0.102c0.015 0.024-0.007 0.043-0.048 0.043-0.051 0-0.059 0.010-0.024 0.033 0.037 0.024 0.027 0.052-0.036 0.106-0.048 0.041-0.070 0.086-0.050 0.1 0.066 0.048 0.064 0.14-0.003 0.115-0.034-0.013-0.061-0.011-0.058 0.005 0.015 0.098-0.012 0.214-0.049 0.214-0.024 0-0.035-0.014-0.024-0.031s-1.464-0.026-3.276-0.021c-1.998 0.006-3.286-0.005-3.272-0.028 0.013-0.021-0.015-0.065-0.062-0.098-0.051-0.036-0.068-0.071-0.043-0.086s0.010-0.059-0.043-0.111c-0.062-0.062-0.072-0.094-0.036-0.116 0.034-0.021 0.015-0.057-0.062-0.118-0.061-0.048-0.092-0.088-0.069-0.088s0.033-0.037 0.021-0.081-0.039-0.070-0.061-0.057c-0.022 0.014-0.036-0.010-0.032-0.052 0.014-0.13-0.001-0.161-0.047-0.097-0.035 0.049-0.040 0.042-0.023-0.033 0.013-0.057-0.001-0.103-0.033-0.115-0.030-0.011-0.063-0.056-0.075-0.1-0.013-0.048-0.004-0.069 0.022-0.053 0.024 0.015 0.034 0.002 0.022-0.031-0.011-0.031-0.041-0.052-0.067-0.047s-0.046-0.043-0.046-0.115c0-0.072-0.017-0.115-0.040-0.1s-0.030-0.002-0.017-0.037c0.026-0.068-0.152-0.27-0.238-0.27-0.030 0-0.072-0.041-0.094-0.092s-0.056-0.083-0.074-0.072-0.052-0.012-0.074-0.051c-0.022-0.039-0.059-0.072-0.081-0.072s-0.028 0.023-0.011 0.051c0.017 0.028-0.011 0.015-0.062-0.029-0.072-0.063-0.098-0.069-0.125-0.026-0.023 0.038-0.042 0.040-0.061 0.009s-0.424-0.045-1.336-0.045h-1.308v-1.229h14.909v0.614zM7.965 10.107c0.016 0.062 0.056 0.144 0.090 0.182s0.051 0.087 0.037 0.109 0.003 0.068 0.037 0.102c0.069 0.069 0.083 0.127 0.021 0.088-0.023-0.014-0.030 0.002-0.016 0.039 0.013 0.035 0.036 0.064 0.051 0.064s0.054 0.060 0.088 0.133c0.059 0.129 0.067 0.156 0.077 0.269 0.003 0.030 0.023 0.042 0.046 0.028s0.041 0.021 0.041 0.082 0.018 0.096 0.041 0.082 0.041-0.006 0.041 0.018c0 0.088 0.007 0.107 0.075 0.184 0.038 0.043 0.046 0.065 0.018 0.049s-0.051-0.010-0.051 0.015 0.028 0.055 0.061 0.068c0.034 0.013 0.061 0.049 0.061 0.081s0.021 0.057 0.048 0.057c0.026 0 0.037 0.010 0.025 0.023-0.028 0.028 0.159 0.235 0.226 0.25 0.027 0.006 0.086 0.019 0.131 0.028s0.077 0.040 0.070 0.068c-0.007 0.029 0.013 0.041 0.046 0.028 0.032-0.012 0.076-0.005 0.097 0.017 0.042 0.042 6.936 0.054 7.159 0.013 0.068-0.012 0.179-0.077 0.248-0.143s0.153-0.12 0.188-0.12c0.068 0 0.191-0.116 0.196-0.184 0.008-0.107 0.095-0.306 0.126-0.287 0.019 0.012 0.049-0.039 0.066-0.112s0.035-0.147 0.039-0.164c0.004-0.017 0.010-0.058 0.013-0.092s0.032-0.061 0.064-0.061c0.038 0 0.053-0.031 0.043-0.084-0.009-0.049 0.010-0.094 0.046-0.108 0.034-0.013 0.052-0.050 0.040-0.081s0.014-0.088 0.058-0.126c0.059-0.051 0.067-0.077 0.030-0.101-0.034-0.022-0.026-0.032 0.026-0.033 0.060-0.001 0.067-0.013 0.031-0.056s-0.026-0.073 0.036-0.129c0.045-0.041 0.082-0.116 0.082-0.168s0.018-0.105 0.041-0.119 0.041-0.006 0.041 0.018c0 0.030 0.843 0.040 2.775 0.034l2.775-0.010-5.53-0.043 2.775-0.010c1.586-0.006 2.775 0.006 2.775 0.026s0.041 0.047 0.092 0.059c0.089 0.022 0.089 0.021 0.013-0.036-0.044-0.033-0.057-0.059-0.030-0.059s0.081 0.037 0.119 0.082c0.039 0.045 0.094 0.082 0.122 0.082s0.052 0.018 0.052 0.041c0 0.023 0.028 0.041 0.061 0.041s0.061 0.037 0.061 0.083c0 0.046 0.028 0.094 0.061 0.107s0.052 0.039 0.040 0.058c-0.012 0.019-0.020 1.768-0.020 3.887l0.001 3.853-0.101 0.088c-0.056 0.049-0.091 0.105-0.078 0.126s-0.015 0.048-0.062 0.060c-0.047 0.012-0.076 0.038-0.064 0.058s-0.007 0.025-0.042 0.011-0.089-0.004-0.119 0.021c-0.073 0.061-21.224 0.040-21.468-0.021-0.090-0.023-0.159-0.063-0.154-0.090s-0.008-0.049-0.031-0.049-0.036-0.022-0.031-0.049-0.017-0.050-0.051-0.051c-0.054-0.002-0.061-0.465-0.061-3.914 0-2.151-0.014-3.922-0.031-3.935s0.034-0.093 0.113-0.179c0.079-0.086 0.144-0.177 0.144-0.202 0-0.027 0.015-0.024 0.036 0.009 0.029 0.046 0.043 0.046 0.087 0 0.042-0.045 0.56-0.055 2.883-0.054l2.831 0.001-5.489-0.044 5.582-0.020 0.028 0.113zM10.187 13.829c-0.015 0.015-0.079 0.031-0.141 0.036-0.202 0.014-0.221 0.020-0.195 0.062 0.014 0.023-0.008 0.052-0.049 0.065-0.143 0.046-0.259 0.113-0.259 0.149 0 0.020 0.021 0.024 0.047 0.008s0.005 0.027-0.046 0.096-0.081 0.144-0.066 0.167c0.014 0.023-0.006 0.061-0.046 0.085-0.049 0.028-0.054 0.043-0.016 0.044 0.043 0.001 0.045 0.014 0.009 0.058-0.073 0.088-0.057 1.7 0.019 1.802 0.031 0.043 0.047 0.093 0.035 0.113s-0 0.035 0.026 0.035c0.026 0 0.037 0.028 0.024 0.061s-0.008 0.061 0.011 0.061c0.019 0 0.045 0.039 0.057 0.086s0.042 0.074 0.066 0.059c0.024-0.015 0.044-0.006 0.044 0.019s0.018 0.034 0.041 0.020c0.023-0.014 0.041 0.005 0.041 0.043 0 0.042 0.022 0.060 0.058 0.046 0.032-0.012 0.068 0.003 0.080 0.034s0.058 0.054 0.103 0.050c0.045-0.003 0.072-0.021 0.061-0.039s-0.001-0.032 0.023-0.032c0.024 0 0.043 0.014 0.043 0.031 0 0.038 5.516 0.023 5.577-0.014 0.024-0.015 0.057-0.005 0.074 0.023 0.022 0.036 0.038 0.031 0.057-0.018 0.014-0.037 0.044-0.056 0.067-0.042s0.041 0.005 0.041-0.020 0.018-0.035 0.039-0.022 0.068-0.032 0.103-0.1c0.035-0.068 0.085-0.124 0.111-0.124s0.035-0.012 0.020-0.027c-0.015-0.015-0.004-0.055 0.024-0.090 0.042-0.052 0.040-0.057-0.011-0.027-0.045 0.026-0.042 0.013 0.009-0.046 0.063-0.072 0.071-0.192 0.068-1.129l-0.002-1.048-0.099-0.093c-0.055-0.051-0.099-0.116-0.099-0.144 0-0.072-0.209-0.228-0.272-0.204-0.029 0.011-0.063 0.004-0.075-0.016-0.026-0.042-5.561-0.059-5.603-0.017zM9.451 15.862c-0.007 0.231-0.013 0.042-0.013-0.42s0.006-0.651 0.013-0.42c0.007 0.231 0.007 0.609 0 0.84zM15.319 15.462v0.594h-4.833v-1.188h4.833v0.594z"></path>
</svg>
