<!-- Generated by IcoMoon.io -->
<svg version="1.1" xmlns="http://www.w3.org/2000/svg" width="32" height="32" viewBox="0 0 32 32">
<title>s_tab1</title>
<path fill="#555" d="M12.066 0.545c-0.005 0.004-0.308 0.023-0.674 0.043-0.913 0.048-1.061 0.062-1.167 0.105-0.050 0.020-0.102 0.026-0.116 0.013s-0.169 0.004-0.347 0.037c-0.178 0.033-0.396 0.059-0.486 0.056s-0.163 0.010-0.163 0.029c0 0.019-0.058 0.028-0.128 0.020s-0.128 0.008-0.128 0.034c0 0.026-0.063 0.044-0.141 0.039s-0.152-0.005-0.166 0c-0.046 0.017-0.228 0.057-0.333 0.074-0.056 0.009-0.102 0.021-0.102 0.027s-0.035 0.018-0.077 0.027c-0.042 0.009-0.227 0.056-0.41 0.105s-0.388 0.096-0.455 0.104c-0.14 0.017-0.233 0.131-0.149 0.183 0.031 0.019 0.042 0.071 0.024 0.117s-0.012 0.082 0.012 0.082 0.060 0.086 0.080 0.192c0.020 0.106 0.049 0.25 0.063 0.32s0.032 0.163 0.039 0.205c0.007 0.042 0.027 0.111 0.044 0.154s0.040 0.123 0.051 0.179c0.010 0.056 0.035 0.14 0.055 0.187s0.030 0.115 0.023 0.154c-0.008 0.038 0.009 0.115 0.038 0.172s0.050 0.137 0.047 0.179 0.013 0.090 0.036 0.106c0.023 0.016 0.050 0.124 0.062 0.239s0.048 0.26 0.081 0.322c0.033 0.061 0.048 0.155 0.034 0.209s-0.002 0.097 0.026 0.097c0.029 0 0.037 0.038 0.019 0.085s-0.007 0.102 0.025 0.121c0.032 0.020 0.058 0.12 0.058 0.222s0.017 0.186 0.037 0.186c0.032 0 0.157 0.517 0.17 0.704 0.005 0.072 0.090 0.089 0.090 0.019 0-0.025 0.046-0.057 0.102-0.072s0.092-0.009 0.078 0.012c-0.013 0.021 0.033 0.028 0.102 0.015s0.111-0.048 0.093-0.077c-0.021-0.033 0.017-0.043 0.103-0.027 0.075 0.014 0.136 0.006 0.136-0.018s0.056-0.044 0.125-0.044c0.069 0 0.18-0.021 0.248-0.047s0.225-0.055 0.349-0.064c0.124-0.009 0.237-0.032 0.252-0.051 0.024-0.032 0.458-0.091 0.883-0.12 0.106-0.007 0.198-0.018 0.205-0.024 0.12-0.103 2.969-0.13 3.725-0.035 0.127 0.016 0.35 0.039 0.496 0.052s0.342 0.041 0.435 0.062c0.286 0.066 0.369 0.078 0.515 0.078 0.077-0 0.141 0.022 0.141 0.049s0.055 0.036 0.122 0.019 0.138-0.005 0.157 0.025c0.019 0.031 0.056 0.043 0.081 0.027s0.145-0.002 0.265 0.030c0.12 0.032 0.253 0.066 0.296 0.074 0.238 0.048 0.392 0.096 0.449 0.142 0.049 0.038 0.057 0.030 0.033-0.033-0.019-0.048-0.007-0.084 0.028-0.084 0.037 0 0.048-0.040 0.028-0.102-0.019-0.061-0.009-0.102 0.026-0.102s0.045-0.041 0.026-0.102c-0.019-0.061-0.009-0.102 0.026-0.102s0.045-0.041 0.026-0.102c-0.019-0.061-0.009-0.102 0.026-0.102s0.045-0.041 0.026-0.102c-0.019-0.061-0.009-0.102 0.026-0.102s0.045-0.041 0.026-0.102c-0.018-0.056-0.014-0.102 0.009-0.102s0.045-0.063 0.049-0.141c0.012-0.228 0.118-0.652 0.167-0.668 0.025-0.008 0.033-0.060 0.019-0.115s-0-0.1 0.032-0.1c0.034 0 0.049-0.053 0.035-0.128-0.013-0.070-0.006-0.128 0.014-0.128s0.040-0.084 0.043-0.186c0.003-0.102 0.027-0.2 0.054-0.218s0.043-0.071 0.035-0.119c-0.018-0.119 0.082-0.502 0.132-0.502 0.022 0 0.028-0.046 0.013-0.102s-0.006-0.102 0.020-0.102c0.026 0 0.048-0.063 0.050-0.141s0.027-0.25 0.055-0.384c0.050-0.236 0.048-0.243-0.070-0.243-0.067 0-0.121-0.019-0.121-0.043s-0.029-0.045-0.064-0.048c-0.227-0.021-0.499-0.082-0.499-0.112 0-0.020-0.052-0.031-0.115-0.026s-0.148-0.016-0.187-0.047-0.080-0.051-0.090-0.044c-0.010 0.007-0.023 0.010-0.031 0.007s-0.082-0.012-0.166-0.019c-0.084-0.007-0.154-0.017-0.154-0.022s-0.125-0.018-0.277-0.030c-0.152-0.012-0.294-0.048-0.314-0.081s-0.060-0.046-0.088-0.028c-0.028 0.017-0.29-0.003-0.582-0.046s-0.715-0.089-0.94-0.103-0.467-0.039-0.538-0.055c-0.107-0.025-2.192-0.060-2.219-0.037zM13.251 1.805l-0.016 0.525 0.973-0.032v0.928h-0.947v1.079l-0.896-0.030-0.029-1.050h-0.973l0.030-0.896h0.973l-0.016-0.525-0.016-0.525h0.935l-0.016 0.525zM12.109 6.157c-0.038 0.021-0.23 0.032-0.427 0.024s-0.351-0.001-0.34 0.015c0.010 0.016-0.067 0.031-0.17 0.033s-0.258 0.016-0.342 0.031c-0.193 0.035-0.863 0.138-1.101 0.169-0.099 0.013-0.323 0.060-0.498 0.104s-0.342 0.065-0.371 0.047c-0.029-0.018-0.053-0.008-0.053 0.023s-0.056 0.045-0.128 0.032c-0.070-0.013-0.128-0.004-0.128 0.020 0 0.038-0.286 0.112-0.512 0.132-0.042 0.004-0.1 0.013-0.128 0.021s-0.068 0.011-0.090 0.008-0.038 0.016-0.038 0.044c0 0.027-0.035 0.036-0.077 0.020-0.055-0.021-0.068-0.006-0.046 0.053 0.017 0.045 0.010 0.082-0.016 0.082s-0.048 0.075-0.049 0.166c-0.003 0.298-0.036 0.602-0.065 0.602-0.051-0 0.010 1.144 0.074 1.382 0.019 0.070 0.041 0.209 0.051 0.307s0.022 0.185 0.028 0.192 0.017 0.036 0.024 0.064c0.007 0.028 0.018 0.068 0.025 0.090s0.010 0.056 0.006 0.077c-0.003 0.021 0.019 0.038 0.051 0.038s0.043 0.035 0.027 0.077c-0.016 0.042-0.005 0.077 0.026 0.077s0.042 0.033 0.027 0.073c-0.015 0.040 0.006 0.101 0.048 0.136s0.065 0.092 0.051 0.128c-0.014 0.036-0.009 0.073 0.011 0.081 0.041 0.019 0.226 0.392 0.246 0.497 0.007 0.039 0.042 0.089 0.077 0.111s0.069 0.078 0.076 0.126 0.060 0.12 0.119 0.161c0.058 0.041 0.106 0.12 0.106 0.177s0.023 0.088 0.051 0.071c0.047-0.029 0.069 0.032 0.038 0.109-0.007 0.018 0.040 0.052 0.106 0.076s0.104 0.067 0.086 0.096 0.004 0.066 0.048 0.083c0.044 0.017 0.080 0.061 0.080 0.099s0.027 0.085 0.059 0.105c0.040 0.025 0.045 0.013 0.016-0.035-0.037-0.061-0.030-0.061 0.043-0.002 0.047 0.038 0.071 0.094 0.053 0.123s-0.011 0.040 0.017 0.023c0.027-0.017 0.149 0.060 0.27 0.171s0.299 0.25 0.395 0.309c0.096 0.059 0.203 0.134 0.239 0.167s0.095 0.066 0.133 0.074c0.038 0.008 0.141 0.070 0.229 0.137 0.163 0.124 0.176 0.13 0.317 0.13 0.044 0 0.069 0.018 0.055 0.041s0.015 0.044 0.064 0.047c0.049 0.004 0.231 0.055 0.404 0.113s0.363 0.106 0.42 0.106 0.104 0.020 0.104 0.044c0 0.024 0.062 0.037 0.138 0.029s0.162-0 0.192 0.018c0.065 0.040 1.257 0.050 1.257 0.010 0-0.015 0.075-0.034 0.166-0.040s0.243-0.037 0.336-0.067c0.093-0.030 0.182-0.043 0.196-0.029s0.102-0.005 0.195-0.044c0.093-0.039 0.187-0.054 0.209-0.034s0.027 0.013 0.011-0.016c-0.016-0.029 0.139-0.12 0.35-0.204 0.209-0.083 0.38-0.171 0.38-0.194s0.021-0.030 0.046-0.014c0.025 0.016 0.060-0.009 0.078-0.056s0.046-0.070 0.062-0.054c0.016 0.016 0.077-0.014 0.135-0.068s0.13-0.083 0.161-0.065c0.031 0.018 0.039 0.013 0.019-0.010-0.046-0.051 0.266-0.29 0.328-0.251 0.025 0.015 0.039-0.003 0.031-0.040s0.015-0.062 0.050-0.055 0.064-0.022 0.064-0.064c0-0.042 0.020-0.077 0.044-0.077s0.106-0.058 0.182-0.128c0.076-0.070 0.12-0.128 0.097-0.128s0.018-0.052 0.090-0.115c0.072-0.063 0.147-0.155 0.165-0.205s0.071-0.090 0.117-0.090c0.054 0 0.073-0.028 0.054-0.077-0.016-0.042-0.009-0.077 0.017-0.077s0.061-0.046 0.079-0.103c0.018-0.057 0.050-0.092 0.071-0.079s0.067-0.056 0.102-0.153c0.035-0.097 0.087-0.176 0.115-0.176s0.039-0.019 0.025-0.042c-0.014-0.023 0.019-0.116 0.074-0.206s0.1-0.199 0.1-0.243c0-0.046 0.024-0.064 0.059-0.042 0.037 0.023 0.045 0.014 0.022-0.024-0.021-0.033 0.009-0.158 0.066-0.277s0.115-0.277 0.128-0.352c0.013-0.075 0.048-0.181 0.077-0.235s0.054-0.143 0.055-0.196c0.001-0.054 0.026-0.282 0.056-0.507 0.073-0.552 0.093-1.151 0.040-1.184-0.024-0.015-0.033-0.043-0.021-0.062 0.020-0.033-0.031-0.382-0.098-0.663-0.015-0.064-0.049-0.104-0.074-0.089s-0.061 0.005-0.079-0.024-0.054-0.040-0.080-0.023-0.048 0.011-0.048-0.012-0.063-0.044-0.141-0.047c-0.077-0.003-0.198-0.022-0.269-0.041s-0.197-0.048-0.282-0.063c-0.084-0.015-0.161-0.048-0.171-0.074s-0.039-0.033-0.066-0.017c-0.050 0.031-0.522-0.062-0.659-0.13-0.042-0.021-0.122-0.031-0.177-0.023s-0.129-0.009-0.164-0.038c-0.035-0.029-0.088-0.038-0.118-0.019s-0.131 0.008-0.225-0.023c-0.094-0.031-0.329-0.069-0.524-0.084-0.438-0.034-0.602-0.052-0.635-0.070-0.014-0.008-0.21-0.020-0.435-0.028-1.254-0.044-1.627-0.047-1.689-0.012zM17.031 12.865c-0.017 0.065-0.049 0.085-0.093 0.060-0.037-0.021-0.052-0.022-0.033-0 0.043 0.048-0.208 0.336-0.293 0.336-0.034 0-0.094 0.045-0.132 0.1s-0.105 0.107-0.147 0.115-0.107 0.056-0.144 0.106c-0.037 0.050-0.089 0.077-0.115 0.061s-0.048-0.005-0.048 0.024c0 0.071-0.386 0.265-0.437 0.219-0.022-0.020-0.026-0.011-0.008 0.020 0.039 0.068-0.205 0.189-0.284 0.141-0.031-0.019-0.041-0.011-0.022 0.020 0.038 0.061-0.104 0.131-0.176 0.087-0.026-0.016-0.047-0.007-0.047 0.020 0 0.055-0.31 0.176-0.349 0.137-0.014-0.014-0.056 0-0.094 0.032s-0.069 0.037-0.069 0.012c-0-0.025-0.018-0.018-0.038 0.014s-0.13 0.073-0.242 0.091-0.285 0.060-0.384 0.094c-0.119 0.041-0.471 0.058-1.050 0.051-1.086-0.014-1.101-0.015-1.101-0.063 0-0.035-0.114-0.053-0.371-0.057-0.049-0.001-0.090-0.022-0.090-0.048s-0.033-0.034-0.073-0.018c-0.040 0.015-0.126-0.002-0.192-0.038s-0.136-0.061-0.158-0.055c-0.021 0.006-0.038-0.014-0.038-0.043s-0.022-0.041-0.049-0.024c-0.027 0.017-0.090 0.007-0.141-0.022s-0.224-0.109-0.386-0.178-0.294-0.152-0.294-0.183c0-0.031-0.023-0.043-0.051-0.025s-0.051 0.007-0.051-0.023c0-0.030-0.034-0.054-0.076-0.054-0.101 0-0.372-0.167-0.365-0.226 0.003-0.025-0.035-0.052-0.084-0.059-0.13-0.019-0.5-0.325-0.5-0.414 0-0.042-0.020-0.063-0.044-0.048s-0.086-0.018-0.136-0.074c-0.087-0.096-0.209-0.144-0.162-0.063 0.012 0.021-0.001 0.096-0.030 0.166s-0.059 0.16-0.067 0.2c-0.008 0.039-0.033 0.085-0.056 0.102-0.047 0.034-0.076 0.176-0.071 0.351 0.002 0.063-0.014 0.115-0.035 0.115-0.035 0-0.046 0.081-0.066 0.499-0.004 0.092-0.023 0.166-0.041 0.166s-0.036 0.239-0.039 0.53l-0.005 0.53 0.249 0.068c0.137 0.037 0.248 0.090 0.248 0.118s0.013 0.037 0.030 0.021c0.016-0.016 0.075 0.015 0.13 0.070s0.119 0.088 0.142 0.074 0.086 0.014 0.141 0.062c0.055 0.048 0.131 0.095 0.169 0.103s0.153 0.099 0.254 0.202c0.101 0.102 0.152 0.167 0.112 0.143-0.049-0.029-0.060-0.024-0.035 0.017 0.020 0.033 0.057 0.048 0.081 0.033 0.053-0.033 0.257 0.216 0.257 0.314 0 0.038 0.036 0.070 0.080 0.070s0.068 0.019 0.054 0.042c-0.014 0.023 0.025 0.098 0.087 0.167 0.218 0.243 0.276 0.328 0.189 0.28-0.042-0.024-0.025 0.007 0.038 0.069 0.126 0.123 0.152 0.187 0.051 0.128-0.035-0.021-0.024 0.009 0.026 0.065s0.074 0.118 0.055 0.137c-0.019 0.019-0.009 0.034 0.021 0.034 0.048 0 0.208 0.392 0.237 0.578 0.005 0.034 0.028 0.091 0.050 0.127 0.039 0.063 0.081 0.234 0.109 0.447 0.007 0.056 0.018 0.102 0.023 0.102s0.018 0.069 0.029 0.154c0.011 0.084 0.041 0.278 0.067 0.429 0.054 0.314 0.041 1.546-0.020 1.805-0.022 0.095-0.043 0.195-0.046 0.224-0.030 0.264-0.098 0.538-0.133 0.538-0.024 0-0.031 0.035-0.014 0.077s0.010 0.077-0.014 0.077c-0.024 0-0.048 0.063-0.052 0.139s-0.032 0.147-0.061 0.157c-0.029 0.010-0.040 0.051-0.025 0.091s-0.001 0.073-0.037 0.073c-0.036 0-0.051 0.014-0.033 0.032 0.085 0.085-0.309 0.61-0.485 0.647-0.033 0.007-0.101 0.046-0.151 0.086-0.098 0.079-0.215 0.114-0.375 0.112-0.055-0.001-0.125 0.019-0.155 0.044-0.063 0.053-0.385 0.054-0.385 0.001 0-0.019-0.029-0.035-0.065-0.035-0.065 0-0.498-0.268-0.498-0.309 0-0.012 0.029-0.006 0.064 0.014s0.012-0.014-0.051-0.076c-0.063-0.061-0.118-0.128-0.122-0.148s-0.014-0.082-0.022-0.139c-0.008-0.056-0.028-0.159-0.044-0.228-0.035-0.156 0.067-0.517 0.173-0.608 0.067-0.058 0.067-0.063 0.002-0.035-0.042 0.018-0.022-0.015 0.044-0.073s0.102-0.106 0.080-0.106c-0.084 0 0.161-0.15 0.247-0.152 0.049-0.001 0.090-0.021 0.090-0.044s0.029-0.045 0.064-0.047 0.133-0.015 0.218-0.028c0.084-0.013 0.261 0.004 0.393 0.038 0.261 0.067 0.341-0.002 0.378-0.33 0.008-0.070 0.029-0.255 0.047-0.41s0.032-0.374 0.032-0.486c-0.001-0.252-0.040-0.922-0.054-0.922-0.018 0-0.068-0.253-0.074-0.371-0.003-0.063-0.020-0.115-0.037-0.115s-0.027-0.052-0.023-0.115c0.005-0.063-0.011-0.142-0.034-0.174s-0.037-0.085-0.029-0.118c0.015-0.059-0.486-0.295-0.727-0.342-0.070-0.014-0.139-0.042-0.154-0.063s-0.073-0.040-0.129-0.043c-0.056-0.002-0.16-0.020-0.23-0.039-0.187-0.051-1.536-0.064-1.536-0.014 0 0.023-0.075 0.037-0.166 0.031s-0.215 0.015-0.274 0.047c-0.098 0.053-0.358 0.101-0.599 0.11-0.056 0.002-0.078 0.027-0.056 0.063s0.014 0.045-0.023 0.022c-0.033-0.020-0.097 0.001-0.142 0.046s-0.116 0.070-0.156 0.055c-0.040-0.015-0.059-0.005-0.042 0.023s0.008 0.051-0.021 0.051-0.039 0.035-0.023 0.077c0.016 0.042 0.003 0.077-0.030 0.077s-0.048 0.020-0.033 0.044c0.031 0.051-0.091 0.688-0.126 0.654-0.028-0.028-0.043 0.282-0.047 0.967-0.003 0.507 0.007 0.623 0.076 0.922 0.020 0.084 0.047 0.229 0.062 0.321 0.018 0.116 0.044 0.154 0.084 0.122 0.131-0.104 0.586-0.182 0.667-0.115 0.043 0.035 0.099 0.051 0.125 0.035s0.076 0.005 0.11 0.046 0.083 0.063 0.108 0.048c0.025-0.015 0.045-0.004 0.045 0.026s0.031 0.054 0.069 0.054c0.086 0 0.266 0.194 0.222 0.238-0.018 0.018 0.002 0.058 0.044 0.089 0.191 0.139 0.090 1.106-0.115 1.106-0.040 0-0.059 0.021-0.043 0.047 0.036 0.059-0.223 0.269-0.285 0.231-0.025-0.015-0.045-0.007-0.045 0.018 0 0.054-0.089 0.068-0.435 0.070-0.268 0.001-0.776-0.168-0.757-0.253 0.006-0.027-0.029-0.046-0.077-0.043s-0.082-0.022-0.075-0.057-0.026-0.064-0.072-0.064c-0.047 0-0.071-0.014-0.053-0.032s-0.015-0.070-0.073-0.117c-0.058-0.047-0.109-0.145-0.113-0.219s-0.025-0.124-0.046-0.11-0.038-0.001-0.038-0.031c0-0.090-0.002-0.098-0.075-0.272-0.082-0.197-0.283-1.042-0.282-1.191 0-0.056-0.009-0.46-0.020-0.896s-0.001-0.818 0.022-0.847c0.024-0.029 0.042-0.099 0.041-0.154s0.011-0.181 0.028-0.279c0.017-0.099 0.042-0.268 0.057-0.376s0.061-0.264 0.104-0.346c0.042-0.082 0.065-0.149 0.051-0.149-0.046 0 0.181-0.533 0.271-0.636 0.047-0.054 0.057-0.082 0.022-0.061-0.043 0.025-0.053 0.011-0.033-0.042 0.017-0.044 0.051-0.066 0.076-0.051s0.046-0.008 0.046-0.052 0.024-0.080 0.054-0.080c0.030 0 0.039-0.024 0.021-0.054s0.009-0.093 0.061-0.141c0.052-0.048 0.101-0.117 0.108-0.155 0.024-0.113 0.23-0.365 0.276-0.337 0.024 0.015 0.043-0.021 0.043-0.079s0.019-0.105 0.042-0.105c0.023 0 0.172-0.123 0.332-0.274 0.273-0.258 0.93-0.64 0.993-0.578 0.101 0.101 0.213-0.086 0.216-0.364 0.007-0.546 0.037-1.061 0.077-1.293 0.021-0.127 0.038-0.271 0.037-0.321s0.015-0.080 0.036-0.067c0.021 0.013 0.038-0.033 0.038-0.101 0-0.151 0.014-0.15-0.25-0.012-0.119 0.062-0.248 0.118-0.288 0.125s-0.093 0.049-0.118 0.093c-0.025 0.044-0.069 0.080-0.099 0.080s-0.123 0.058-0.206 0.128-0.185 0.128-0.224 0.128c-0.040 0-0.136 0.065-0.214 0.146s-0.208 0.189-0.291 0.242c-0.172 0.111-0.29 0.21-0.652 0.546-0.144 0.133-0.279 0.231-0.302 0.217s-0.058 0.002-0.078 0.035c-0.025 0.040-0.015 0.046 0.031 0.018 0.038-0.023-0.054 0.087-0.204 0.246s-0.297 0.283-0.327 0.277c-0.030-0.006-0.057 0.013-0.061 0.041-0.016 0.12-0.091 0.23-0.157 0.23-0.039 0-0.066 0.029-0.058 0.064s-0.016 0.058-0.051 0.051c-0.035-0.007-0.058 0.016-0.051 0.051s-0.022 0.056-0.064 0.047c-0.042-0.009-0.060-0-0.040 0.020 0.039 0.039-0.133 0.288-0.192 0.279-0.019-0.003-0.080 0.080-0.136 0.185s-0.134 0.223-0.174 0.262c-0.040 0.040-0.072 0.095-0.072 0.123s-0.024 0.036-0.052 0.018c-0.029-0.018-0.047-0.013-0.040 0.010 0.021 0.073-0.121 0.303-0.33 0.532-0.049 0.054-0.090 0.131-0.090 0.17s-0.035 0.085-0.077 0.101c-0.042 0.016-0.077 0.064-0.077 0.106s-0.058 0.161-0.128 0.265-0.128 0.221-0.128 0.261c0 0.040-0.023 0.058-0.051 0.041-0.044-0.027-0.076 0.096-0.038 0.144 0.007 0.009-0.028 0.057-0.077 0.106s-0.090 0.134-0.090 0.188c0 0.054-0.018 0.099-0.040 0.099-0.037 0-0.151 0.246-0.143 0.309 0.002 0.015-0.037 0.090-0.087 0.166s-0.078 0.139-0.063 0.139-0.023 0.098-0.086 0.218c-0.063 0.12-0.108 0.237-0.102 0.261s-0.011 0.072-0.040 0.107-0.037 0.078-0.019 0.097c0.019 0.018 0.011 0.034-0.017 0.034s-0.053 0.029-0.056 0.064c-0.009 0.132-0.063 0.313-0.101 0.342-0.036 0.027-0.046 0.069-0.076 0.324-0.006 0.049-0.030 0.090-0.054 0.090s-0.029 0.023-0.012 0.051 0.010 0.051-0.015 0.051c-0.026 0-0.035 0.061-0.021 0.136s0.005 0.123-0.020 0.107c-0.025-0.016-0.049 0.021-0.054 0.082-0.010 0.139-0.101 0.571-0.12 0.571-0.004 0-0.016 0.092-0.026 0.205s-0.041 0.35-0.070 0.527c-0.029 0.177-0.043 0.35-0.032 0.384s0.030 0.181 0.042 0.327c0.013 0.158 0.066 0.326 0.131 0.418 0.060 0.084 0.109 0.178 0.109 0.209s0.018 0.056 0.039 0.056c0.021 0 0.062 0.050 0.090 0.111s0.097 0.118 0.153 0.125c0.056 0.008 0.152 0.076 0.212 0.151s0.134 0.122 0.163 0.104 0.068-0.010 0.085 0.019c0.018 0.029 0.088 0.052 0.157 0.052s0.125 0.017 0.125 0.038c0 0.029 21.498 0.025 21.978-0.004 0.049-0.003 0.090-0.023 0.090-0.046s0.017-0.038 0.038-0.034c0.11 0.017 0.22-0.012 0.195-0.052-0.016-0.025 0.007-0.060 0.051-0.076 0.049-0.019 0.066-0.009 0.045 0.025-0.023 0.038 0.001 0.037 0.076-0.003 0.060-0.032 0.097-0.080 0.081-0.106s0.063-0.111 0.175-0.189c0.192-0.133 0.339-0.315 0.196-0.243-0.035 0.018-0.023-0.001 0.025-0.041s0.077-0.085 0.063-0.099 0.008-0.054 0.049-0.088c0.041-0.034 0.062-0.095 0.047-0.135s-0.007-0.073 0.018-0.073c0.054 0 0.067-0.109 0.065-0.538-0.002-0.461-0.020-0.64-0.063-0.64-0.022 0-0.028-0.062-0.014-0.139s0.003-0.153-0.025-0.17c-0.028-0.017-0.056-0.127-0.063-0.245s-0.032-0.214-0.057-0.214c-0.024-0-0.033-0.058-0.020-0.129s0.003-0.143-0.023-0.159-0.036-0.061-0.021-0.1c0.015-0.039 0.004-0.084-0.023-0.101s-0.037-0.052-0.020-0.078c0.016-0.026 0.009-0.048-0.015-0.048-0.047 0-0.196-0.49-0.184-0.605 0.004-0.037-0.006-0.054-0.022-0.038-0.029 0.029-0.275-0.606-0.282-0.726-0.002-0.035-0.020-0.064-0.040-0.064-0.040 0-0.121-0.302-0.103-0.384 0.006-0.028-0.007-0.034-0.028-0.012-0.048 0.048-0.185-0.261-0.145-0.326 0.016-0.025 0.005-0.046-0.024-0.046-0.063 0-0.229-0.304-0.188-0.345 0.016-0.016-0.007-0.055-0.050-0.086s-0.084-0.092-0.091-0.133c-0.007-0.041-0.087-0.178-0.178-0.303s-0.154-0.259-0.139-0.297 0.004-0.055-0.024-0.038c-0.028 0.017-0.051-0.001-0.051-0.041s-0.046-0.114-0.103-0.165c-0.056-0.051-0.093-0.102-0.082-0.114s-0.034-0.080-0.101-0.152-0.11-0.15-0.096-0.173c0.014-0.023-0.015-0.065-0.065-0.094s-0.070-0.053-0.045-0.054c0.025-0.001-0.009-0.055-0.077-0.121s-0.157-0.164-0.2-0.218c-0.042-0.054-0.163-0.204-0.268-0.334s-0.174-0.254-0.154-0.277 0.013-0.027-0.018-0.010c-0.062 0.035-0.287-0.193-0.238-0.242 0.017-0.016-0.012-0.030-0.064-0.030s-0.081-0.013-0.065-0.029c0.016-0.016-0.124-0.169-0.311-0.341-0.406-0.372-0.477-0.444-0.341-0.344 0.095 0.069 0.097 0.068 0.032-0.016-0.039-0.050-0.159-0.14-0.267-0.2s-0.184-0.13-0.17-0.153-0-0.043-0.033-0.043c-0.033 0-0.13-0.075-0.217-0.166s-0.139-0.135-0.117-0.097c0.027 0.046-0.004 0.040-0.093-0.018-0.074-0.048-0.119-0.112-0.101-0.141s0.009-0.039-0.020-0.021c-0.029 0.018-0.14-0.036-0.246-0.121s-0.276-0.204-0.377-0.266c-0.101-0.062-0.214-0.142-0.252-0.178s-0.099-0.066-0.138-0.066c-0.039 0-0.106-0.051-0.15-0.114-0.1-0.143-0.111-0.101-0.058 0.234 0.101 0.647 0.145 3.022 0.066 3.567-0.101 0.692-0.135 1.13-0.086 1.1 0.023-0.014 0.073 0.005 0.11 0.043s0.1 0.058 0.139 0.045c0.040-0.014 0.056-0 0.037 0.031-0.018 0.030 0.018 0.071 0.082 0.091 0.145 0.046 0.401 0.283 0.366 0.339-0.014 0.023 0.010 0.056 0.054 0.072s0.068 0.049 0.055 0.071 0.011 0.054 0.055 0.071 0.065 0.054 0.048 0.082c-0.017 0.028-0.009 0.052 0.018 0.052s0.066 0.075 0.086 0.166c0.020 0.092 0.061 0.197 0.091 0.235 0.072 0.089 0.091 0.782 0.024 0.865-0.028 0.035-0.039 0.096-0.024 0.136s0.012 0.088-0.007 0.107c-0.019 0.019-0.036 0.050-0.038 0.069-0.015 0.18-0.105 0.384-0.218 0.497-0.076 0.076-0.138 0.155-0.138 0.176s-0.075 0.115-0.166 0.209c-0.092 0.094-0.166 0.153-0.166 0.133s-0.050 0.010-0.112 0.067c-0.099 0.092-0.164 0.115-0.279 0.1-0.018-0.002-0.049 0.023-0.070 0.056s-0.117 0.066-0.214 0.072c-0.097 0.007-0.2 0.027-0.229 0.045s-0.143 0.021-0.253 0.006c-0.11-0.015-0.253-0.025-0.318-0.024s-0.105-0.018-0.090-0.044-0.021-0.033-0.082-0.017c-0.076 0.020-0.099 0.010-0.074-0.030 0.024-0.038-0.006-0.059-0.084-0.059-0.066 0-0.145-0.024-0.174-0.053s-0.132-0.096-0.228-0.149c-0.096-0.053-0.168-0.123-0.16-0.155s-0.009-0.045-0.038-0.027c-0.029 0.018-0.079-0.027-0.112-0.099s-0.080-0.131-0.106-0.131c-0.025 0-0.033-0.021-0.018-0.046s-0.007-0.059-0.051-0.076c-0.043-0.017-0.075-0.059-0.070-0.095 0.017-0.128-0.004-0.198-0.051-0.169-0.092 0.057-0.17-0.352-0.172-0.894-0.001-0.372 0.044-0.532 0.286-1.018 0.092-0.184 0.449-0.573 0.498-0.543 0.024 0.015 0.067-0.014 0.096-0.064s0.054-0.068 0.055-0.040 0.022 0.021 0.045-0.016c0.023-0.037 0.131-0.098 0.24-0.135 0.207-0.071 0.315-0.262 0.341-0.602 0.006-0.083 0.026-0.159 0.043-0.17s0.027-0.125 0.022-0.253c-0.005-0.129 0.005-0.244 0.024-0.255 0.038-0.023 0.024-2.242-0.016-2.562-0.038-0.308-0.13-1.15-0.151-1.382-0.015-0.165-0.047-0.22-0.167-0.282-0.082-0.042-0.16-0.091-0.174-0.107-0.056-0.068-0.199-0.023-0.223 0.070zM7.168 16.656c0 0.025-0.036 0.033-0.080 0.016-0.051-0.019-0.067-0.010-0.044 0.027 0.021 0.034 0.007 0.048-0.035 0.034-0.039-0.013-0.116 0.020-0.173 0.072s-0.155 0.109-0.219 0.125c-0.064 0.016-0.116 0.059-0.116 0.096s-0.029 0.078-0.064 0.092c-0.035 0.014 0.074 0.013 0.243-0.002 0.811-0.072 1.617-0.051 2.061 0.055 0.063 0.015 0.115 0.006 0.115-0.021s-0.036-0.048-0.080-0.048c-0.044 0-0.066-0.023-0.048-0.051s-0.011-0.051-0.062-0.051c-0.052 0-0.126-0.045-0.166-0.1s-0.091-0.088-0.114-0.074-0.042 0.001-0.042-0.028c0-0.030-0.053-0.054-0.118-0.054s-0.145-0.028-0.179-0.062c-0.072-0.072-0.88-0.095-0.88-0.025zM18.172 19.476c-0.012 0.012-0.136 0.029-0.274 0.037-0.281 0.017-0.592 0.259-0.592 0.459 0 0.057-0.017 0.093-0.038 0.080-0.059-0.037-0.027 0.528 0.035 0.602 0.030 0.036 0.039 0.080 0.020 0.099s-0.007 0.034 0.026 0.034c0.033 0 0.060 0.038 0.060 0.085s0.015 0.071 0.032 0.053c0.042-0.042 0.234 0.060 0.203 0.109-0.013 0.021 0.015 0.040 0.063 0.042s0.172 0.017 0.277 0.033c0.105 0.016 0.205 0.007 0.221-0.020s0.053-0.034 0.081-0.016 0.086-0.017 0.128-0.077c0.042-0.060 0.101-0.093 0.132-0.074 0.032 0.020 0.041 0.011 0.022-0.021-0.019-0.030 0.001-0.090 0.043-0.132s0.077-0.112 0.077-0.155c0-0.043 0.019-0.089 0.041-0.103 0.161-0.1-0.137-0.861-0.365-0.932-0.061-0.019-0.125-0.055-0.141-0.080s-0.039-0.035-0.051-0.023z"></path>
</svg>
