<!-- Generated by IcoMoon.io -->
<svg version="1.1" xmlns="http://www.w3.org/2000/svg" width="26" height="32" viewBox="0 0 26 32">
<title>s_tab6</title>
<path fill="#555" d="M2.809 0.593c-0.028 0.018-0.068 0.022-0.088 0.009s-0.065 0.013-0.1 0.055c-0.035 0.043-0.051 0.054-0.037 0.025 0.033-0.064-0.046-0.071-0.086-0.007-0.016 0.025-0.064 0.036-0.108 0.025s-0.079-0.004-0.079 0.017-0.026 0.038-0.058 0.038c-0.032 0-0.082 0.029-0.112 0.065s-0.076 0.056-0.103 0.046c-0.027-0.010-0.107 0.035-0.178 0.101s-0.139 0.109-0.152 0.096-0.036 0.027-0.052 0.089c-0.019 0.074-0.049 0.105-0.088 0.090-0.034-0.013-0.049-0.005-0.034 0.019s-0.005 0.054-0.042 0.068-0.058 0.053-0.045 0.086c0.013 0.033 0.004 0.048-0.019 0.034s-0.042-0.005-0.042 0.021-0.024 0.033-0.053 0.017c-0.029-0.017-0.038-0.015-0.021 0.005s0.006 0.065-0.026 0.101c-0.032 0.037-0.091 0.171-0.132 0.298s-0.092 0.254-0.114 0.282c-0.022 0.028-0.035 0.123-0.028 0.211s-0.003 0.184-0.020 0.212c-0.042 0.069-0.024 0.509 0.026 0.64 0.022 0.058 0.047 0.169 0.055 0.247s0.047 0.178 0.087 0.223c0.040 0.044 0.077 0.11 0.083 0.146s0.049 0.093 0.097 0.126c0.048 0.034 0.087 0.086 0.087 0.117s0.031 0.068 0.069 0.083c0.038 0.015 0.057 0.039 0.042 0.054-0.039 0.039 0.19 0.181 0.244 0.151 0.025-0.014 0.032-0.011 0.017 0.006-0.042 0.047 0.128 0.224 0.243 0.253 0.055 0.014 0.1 0.044 0.1 0.066s0.037 0.041 0.082 0.041 0.092 0.017 0.105 0.037c0.022 0.036 0.255 0.087 0.414 0.092 0.046 0.001 0.063 0.021 0.045 0.052-0.022 0.037-0.013 0.036 0.034-0.002 0.050-0.040 0.075-0.040 0.114-0.001s0.069 0.039 0.129 0.001c0.043-0.027 0.092-0.036 0.108-0.020 0.039 0.039 0.316 0.041 0.316 0.002 0-0.017 0.033-0.030 0.074-0.030 0.097 0.002 0.25-0.036 0.315-0.077 0.029-0.018 0.086-0.027 0.126-0.021s0.074-0.009 0.074-0.035 0.022-0.034 0.049-0.017c0.028 0.017 0.037 0.012 0.021-0.014-0.015-0.024 0.001-0.067 0.036-0.096 0.050-0.041 0.063-0.041 0.063 0.002 0 0.040 0.019 0.038 0.074-0.009 0.040-0.035 0.109-0.076 0.153-0.092s0.069-0.039 0.056-0.052c-0.036-0.036 0.106-0.185 0.175-0.185 0.033 0 0.050-0.011 0.036-0.025s0.007-0.058 0.046-0.099c0.156-0.166 0.218-0.261 0.195-0.299-0.014-0.022 0.004-0.040 0.039-0.040 0.040 0 0.055-0.024 0.040-0.063-0.013-0.035-0.003-0.063 0.022-0.063s0.047-0.038 0.047-0.084c0-0.046 0.024-0.084 0.053-0.085 0.039-0 0.038-0.010-0.004-0.036-0.045-0.028-0.041-0.041 0.016-0.063 0.055-0.021 0.066-0.058 0.046-0.155-0.014-0.070-0.009-0.117 0.011-0.105 0.042 0.026 0.054-0.814 0.012-0.879-0.015-0.024-0.030-0.076-0.033-0.117s-0.010-0.078-0.014-0.084c-0.005-0.006-0.015-0.046-0.024-0.090s-0.032-0.091-0.052-0.105c-0.052-0.035-0.109-0.182-0.098-0.25 0.005-0.031-0.007-0.046-0.028-0.034s-0.069-0.014-0.107-0.059c-0.039-0.045-0.059-0.082-0.044-0.082s0.005-0.025-0.021-0.056c-0.026-0.031-0.038-0.069-0.026-0.084s0.010-0.020-0.004-0.010c-0.039 0.028-0.227-0.152-0.202-0.193 0.012-0.020-0.002-0.032-0.033-0.025s-0.049-0.017-0.042-0.052c0.008-0.035-0-0.049-0.017-0.032s-0.094-0.017-0.172-0.076c-0.077-0.059-0.14-0.094-0.14-0.077s-0.033 0.001-0.074-0.034c-0.040-0.035-0.126-0.076-0.191-0.092s-0.107-0.045-0.094-0.066c0.013-0.021-0.048-0.038-0.135-0.038-0.25 0-0.305-0.009-0.305-0.047 0-0.020-0.069-0.017-0.153 0.006s-0.165 0.026-0.179 0.007c-0.033-0.045-0.197-0.051-0.264-0.010zM15.89 0.58c-0.184 0.015-0.378 0.090-0.378 0.145 0 0.023-0.032 0.016-0.071-0.016-0.048-0.039-0.061-0.041-0.040-0.005 0.020 0.033 0.007 0.053-0.035 0.053-0.037 0-0.077 0.027-0.090 0.060s-0.056 0.054-0.097 0.046c-0.041-0.008-0.101 0.003-0.133 0.023-0.050 0.032-0.050 0.038 0.004 0.039s0.054 0.007 0.004 0.039c-0.033 0.021-0.083 0.028-0.111 0.017s-0.087 0.038-0.128 0.109c-0.042 0.071-0.101 0.129-0.13 0.129s-0.054 0.020-0.054 0.044-0.022 0.031-0.049 0.015c-0.030-0.019-0.037-0.012-0.019 0.018 0.017 0.027-0.022 0.099-0.087 0.164-0.064 0.064-0.113 0.13-0.107 0.147s-0.009 0.032-0.032 0.032c-0.023 0-0.040 0.014-0.037 0.032 0.010 0.072-0.060 0.221-0.104 0.221-0.026 0-0.019 0.019 0.015 0.041 0.055 0.036 0.055 0.041-0.004 0.041-0.037 0-0.069 0.024-0.072 0.053s-0.021 0.128-0.041 0.221c-0.078 0.371-0.025 1.105 0.089 1.219 0.041 0.041 0.066 0.11 0.055 0.153s-0.003 0.078 0.018 0.078 0.038 0.027 0.038 0.061c0 0.111 0.095 0.273 0.175 0.298 0.043 0.014 0.069 0.040 0.057 0.059s0.008 0.046 0.044 0.060c0.036 0.014 0.056 0.041 0.043 0.061-0.028 0.045 0.201 0.217 0.288 0.217 0.036 0 0.065 0.029 0.065 0.066s0.019 0.054 0.042 0.040c0.023-0.014 0.043-0.011 0.043 0.008s0.053 0.071 0.116 0.116c0.106 0.076 0.11 0.076 0.051 0.004-0.059-0.074-0.058-0.075 0.029-0.021 0.051 0.031 0.084 0.071 0.073 0.087-0.022 0.035 0.336 0.128 0.478 0.124 0.053-0.001 0.088 0.011 0.078 0.029s0.13 0.031 0.313 0.031c0.183 0 0.332-0.014 0.332-0.032s0.066-0.032 0.147-0.032c0.081 0 0.147-0.020 0.147-0.045s0.017-0.034 0.038-0.021c0.060 0.037 0.299-0.024 0.299-0.077 0-0.026 0.038-0.071 0.084-0.1 0.054-0.034 0.084-0.037 0.084-0.008 0 0.025 0.044-0.003 0.099-0.062s0.111-0.094 0.126-0.079c0.015 0.015 0.027 0.005 0.027-0.022s0.030-0.049 0.068-0.049c0.044 0 0.059-0.023 0.043-0.065-0.014-0.036-0.009-0.055 0.012-0.042 0.046 0.028 0.14-0.079 0.102-0.117-0.015-0.015 0.003-0.028 0.041-0.028s0.060-0.024 0.049-0.053 0.033-0.088 0.098-0.131c0.065-0.043 0.121-0.116 0.124-0.162s0.035-0.105 0.069-0.132 0.069-0.105 0.076-0.174c0.007-0.069 0.029-0.138 0.049-0.153 0.063-0.046 0.079-0.961 0.018-1.037-0.045-0.055-0.044-0.061 0.005-0.031 0.044 0.027 0.050 0.021 0.022-0.023-0.020-0.032-0.032-0.092-0.025-0.133 0.007-0.044-0.014-0.074-0.054-0.074-0.036 0-0.066-0.020-0.066-0.045s0.019-0.033 0.042-0.019c0.023 0.014 0.042 0.006 0.042-0.019s-0.019-0.044-0.043-0.044c-0.055 0-0.14-0.197-0.161-0.37-0.004-0.030-0.021-0.048-0.038-0.039s-0.073-0.028-0.125-0.082c-0.053-0.056-0.071-0.098-0.042-0.1 0.028-0.001 0.007-0.020-0.046-0.042s-0.085-0.058-0.071-0.081c0.014-0.023-0.014-0.042-0.063-0.042s-0.077-0.019-0.063-0.042 0.005-0.042-0.021-0.042c-0.026 0-0.034-0.022-0.017-0.049 0.017-0.028 0.012-0.037-0.013-0.022-0.024 0.015-0.088-0.018-0.143-0.072s-0.161-0.112-0.236-0.129-0.137-0.047-0.137-0.068c0-0.021-0.028-0.039-0.063-0.039s-0.063-0.023-0.063-0.050c0-0.036-0.013-0.038-0.046-0.005-0.059 0.059-0.215 0.020-0.177-0.044 0.016-0.026-0.003-0.022-0.043 0.010-0.053 0.043-0.071 0.044-0.071 0.006 0-0.028-0.024-0.043-0.053-0.032s-0.090 0.006-0.137-0.011c-0.046-0.017-0.108-0.012-0.137 0.011s-0.053 0.025-0.053 0.003c0-0.039-0.072-0.044-0.336-0.023zM1.621 5.628c-0.016 0.026-0.066 0.046-0.112 0.046s-0.142 0.030-0.212 0.067c-0.071 0.037-0.117 0.048-0.103 0.025 0.015-0.025-0.009-0.032-0.059-0.019-0.047 0.012-0.097 0.042-0.112 0.066-0.016 0.027-0.004 0.031 0.032 0.012 0.032-0.017 0.012 0.007-0.045 0.053s-0.118 0.075-0.136 0.065c-0.018-0.011-0.021 0.010-0.007 0.046 0.018 0.048 0.007 0.059-0.042 0.040-0.047-0.018-0.080 0.009-0.111 0.091-0.024 0.064-0.077 0.146-0.116 0.183s-0.078 0.104-0.086 0.149c-0.008 0.045-0.044 0.104-0.080 0.13-0.042 0.031-0.058 0.087-0.044 0.158 0.012 0.061 0.005 0.101-0.014 0.089s-0.035 3.865-0.036 8.616c-0 6.137 0.013 8.646 0.045 8.666 0.025 0.015 0.036 0.064 0.025 0.107s-0.005 0.079 0.014 0.079 0.078 0.086 0.13 0.191c0.059 0.117 0.116 0.182 0.15 0.169 0.030-0.012 0.055 0.002 0.056 0.030s0.051 0.099 0.113 0.156c0.062 0.058 0.098 0.082 0.081 0.053-0.021-0.035-0.010-0.044 0.034-0.027 0.036 0.014 0.055 0.042 0.042 0.062s0.004 0.027 0.038 0.014c0.034-0.013 0.075-0.001 0.091 0.026 0.023 0.037 0.040 0.035 0.067-0.008 0.029-0.047 0.036-0.045 0.037 0.006 0.001 0.081 0.499 0.113 0.634 0.040 0.051-0.027 0.080-0.030 0.065-0.006-0.016 0.025 0.008 0.033 0.058 0.020 0.046-0.012 0.075-0.037 0.063-0.055s0.007-0.043 0.040-0.056c0.033-0.013 0.069-0 0.080 0.027s0.022 0.016 0.024-0.026c0.002-0.042 0.022-0.064 0.046-0.050 0.056 0.035 0.368-0.282 0.345-0.35-0.010-0.029 0.007-0.047 0.037-0.041s0.057-0.007 0.060-0.030c0.015-0.12 0.074-0.27 0.1-0.255 0.050 0.031 0.052-0.162 0.060-4.937l0.007-4.645 0.483 0.028 0.015 4.694c0.017 5.108 0.013 4.855 0.079 4.814 0.031-0.019 0.038 0.004 0.021 0.067-0.018 0.068 0.004 0.122 0.077 0.19 0.056 0.052 0.102 0.126 0.102 0.164s0.018 0.069 0.040 0.069c0.022 0 0.091 0.047 0.153 0.105s0.131 0.105 0.152 0.105c0.021 0 0.028 0.017 0.015 0.037s0.015 0.047 0.061 0.059c0.046 0.012 0.073 0.005 0.060-0.016s0.006-0.026 0.042-0.013 0.056 0.040 0.044 0.058c-0.011 0.018 0.009 0.044 0.044 0.058 0.044 0.017 0.055 0.008 0.034-0.027-0.024-0.040-0.017-0.041 0.029-0.004 0.15 0.118 0.821 0.038 0.912-0.11 0.029-0.047 0.081-0.085 0.116-0.085s0.063-0.016 0.063-0.035c0-0.019 0.047-0.060 0.105-0.091s0.105-0.083 0.105-0.115c0-0.032 0.019-0.047 0.042-0.032 0.038 0.023 0.060-0.032 0.047-0.116-0.003-0.017 0.016-0.032 0.042-0.032s0.036-0.028 0.023-0.062c-0.013-0.034 0.005-0.091 0.040-0.126 0.056-0.056 0.065-0.756 0.072-6.044l0.008-5.98-0.095 0.005c-0.052 0.003-0.095-0.011-0.095-0.032 0-0.047-0.094-0.029-0.14 0.026-0.022 0.027-0.042 0.024-0.056-0.010-0.013-0.032-0.060-0.043-0.123-0.027-0.062 0.015-0.102 0.007-0.102-0.021 0-0.029-0.082-0.043-0.221-0.038-0.121 0.005-0.24-0.002-0.263-0.015s-0.193-0.027-0.377-0.030c-0.246-0.004-0.344-0.022-0.369-0.068-0.027-0.048-0.059-0.052-0.148-0.019-0.062 0.024-0.1 0.030-0.083 0.013 0.053-0.053-0.109-0.142-0.169-0.092-0.041 0.034-0.047 0.028-0.028-0.023 0.018-0.046-0.015-0.092-0.104-0.146-0.071-0.043-0.117-0.091-0.102-0.107s-0.001-0.028-0.035-0.028c-0.060 0-0.161-0.159-0.187-0.293-0.006-0.034-0.045-0.086-0.085-0.116-0.044-0.032-0.052-0.054-0.021-0.054 0.029 0 0.041-0.019 0.026-0.043s-0.044-0.032-0.066-0.019c-0.022 0.013-0.039 0.006-0.039-0.017s0.021-0.048 0.048-0.057c0.033-0.011 0.029-0.035-0.013-0.077-0.033-0.034-0.073-0.094-0.088-0.135s-0.048-0.074-0.074-0.074-0.034-0.019-0.020-0.042c0.014-0.023 0.004-0.042-0.022-0.042s-0.040-0.023-0.031-0.052c0.009-0.028-0.027-0.099-0.081-0.157-0.103-0.111-0.132-0.195-0.049-0.144 0.030 0.019 0.037 0.012 0.018-0.018-0.017-0.027-0.062-0.050-0.101-0.052s-0.049-0.012-0.023-0.023c0.026-0.011 0.038-0.056 0.027-0.101s-0.035-0.073-0.052-0.063c-0.017 0.010-0.085-0.103-0.152-0.253s-0.134-0.271-0.151-0.271-0.042-0.057-0.057-0.126c-0.015-0.069-0.046-0.126-0.067-0.126s-0.056-0.043-0.076-0.095c-0.12-0.311-0.189-0.452-0.22-0.452-0.020 0-0.036-0.019-0.036-0.043s0.054-0.015 0.126 0.022c0.136 0.070 0.174 0.132 0.053 0.086-0.056-0.021-0.051-0.007 0.019 0.059 0.051 0.048 0.103 0.087 0.115 0.087 0.041 0 0.612 0.592 0.612 0.635 0 0.023 0.014 0.035 0.032 0.026 0.033-0.018 0.181 0.12 0.176 0.164-0.002 0.014 0.055 0.061 0.126 0.105s0.124 0.1 0.119 0.126c-0.006 0.026 0.046 0.081 0.115 0.122s0.122 0.093 0.117 0.117c-0.005 0.024 0.057 0.074 0.137 0.112 0.155 0.073 0.195 0.12 0.072 0.082-0.040-0.012-0.023 0.007 0.039 0.043s0.125 0.105 0.14 0.153c0.015 0.048 0.038 0.078 0.050 0.066s0.070 0.035 0.128 0.104c0.058 0.069 0.132 0.116 0.163 0.104s0.057 0.001 0.057 0.029c0 0.075 0.235 0.167 0.341 0.134 0.056-0.018 0.080-0.013 0.064 0.013-0.014 0.023 0.003 0.053 0.039 0.067 0.037 0.014 0.054 0.007 0.039-0.017-0.043-0.069 0.268-0.047 0.38 0.026 0.057 0.037 0.104 0.050 0.104 0.028s0.028-0.040 0.063-0.040 0.063 0.013 0.063 0.028c0 0.015 0.024 0.028 0.053 0.028s0.123 0.014 0.21 0.030c0.116 0.022 0.158 0.015 0.158-0.025 0-0.038 0.010-0.040 0.032-0.008 0.017 0.026 0.144 0.061 0.283 0.078s0.284 0.048 0.323 0.069c0.039 0.021 0.080 0.023 0.091 0.005 0.029-0.047 0.465-0.016 0.482 0.034 0.008 0.023 0.045 0.041 0.084 0.041 0.061-0.001 0.062-0.006 0.007-0.046-0.052-0.038-0.050-0.041 0.014-0.020 0.042 0.014 0.127 0.026 0.189 0.028 0.101 0.003 0.104 0.007 0.028 0.040-0.067 0.030-0.055 0.036 0.063 0.032 0.081-0.003 0.174-0.026 0.208-0.050 0.046-0.034 0.053-0.032 0.029 0.007-0.017 0.029-0.016 0.055 0.002 0.057 0.078 0.011 0.473 0.039 0.728 0.051 0.388 0.019 0.876-0.166 0.765-0.289-0.016-0.018 0.003-0.021 0.041-0.007 0.051 0.018 0.089-0.015 0.139-0.119 0.038-0.079 0.085-0.144 0.106-0.144s0.030-0.038 0.021-0.084c-0.009-0.046 0.003-0.084 0.026-0.084s0.031-0.018 0.018-0.039c-0.013-0.021-0.006-0.050 0.015-0.063 0.068-0.042 0.021-0.479-0.059-0.538-0.025-0.018-0.017-0.031 0.019-0.032 0.049-0.001 0.047-0.011-0.008-0.053-0.038-0.029-0.075-0.081-0.082-0.116s-0.046-0.088-0.087-0.118c-0.041-0.030-0.064-0.072-0.051-0.092 0.024-0.039-0.123-0.136-0.156-0.103-0.011 0.011-0.054-0.018-0.096-0.065s-0.111-0.084-0.154-0.084-0.078-0.016-0.078-0.035c0-0.019-0.043-0.031-0.095-0.027s-0.13-0.010-0.173-0.032c-0.060-0.031-0.071-0.028-0.046 0.013s0.012 0.045-0.047 0.020c-0.139-0.057-0.404-0.099-0.768-0.12-0.193-0.011-0.372-0.041-0.397-0.067-0.056-0.056-0.17-0.062-0.136-0.007 0.026 0.041-0.186-0.007-0.277-0.064-0.034-0.021-0.039-0.012-0.016 0.028 0.027 0.048 0.023 0.049-0.023 0.007-0.031-0.029-0.086-0.052-0.122-0.052-0.057 0.001-0.058 0.006-0.002 0.041 0.038 0.024 0.043 0.041 0.013 0.041-0.028 0-0.061-0.017-0.074-0.038s-0.081-0.032-0.15-0.023c-0.069 0.009-0.126-0.003-0.126-0.026 0-0.026-0.031-0.025-0.084 0.003-0.049 0.026-0.084 0.029-0.084 0.005 0-0.022-0.048-0.035-0.106-0.028s-0.116-0.004-0.128-0.023-0.12-0.033-0.241-0.031c-0.233 0.005-0.421-0.051-0.475-0.141-0.023-0.038-0.008-0.036 0.048 0.007 0.081 0.062 0.081 0.061 0.001-0.032-0.044-0.052-0.089-0.085-0.099-0.075s-0.081-0.046-0.156-0.126c-0.075-0.080-0.159-0.145-0.187-0.145s-0.039-0.018-0.025-0.040c0.024-0.038-0.138-0.233-0.193-0.233-0.014 0-0.090-0.065-0.168-0.145s-0.104-0.118-0.058-0.084c0.079 0.058 0.081 0.057 0.021-0.019-0.035-0.044-0.125-0.106-0.2-0.137s-0.139-0.076-0.142-0.099c-0.010-0.083-0.018-0.105-0.049-0.155-0.018-0.028-0.058-0.041-0.090-0.028-0.035 0.013-0.070-0.016-0.089-0.075-0.017-0.054-0.094-0.158-0.172-0.231s-0.141-0.145-0.141-0.158c0-0.046 0.069-0.023 0.15 0.050 0.045 0.040 0.1 0.075 0.124 0.077 0.097 0.007 0.314 0.113 0.294 0.144-0.028 0.045 0.101 0.092 0.157 0.057 0.026-0.016 0.032-0.008 0.015 0.021s-0.003 0.049 0.036 0.049c0.036 0 0.066 0.017 0.066 0.038s0.038 0.028 0.084 0.016c0.049-0.013 0.084-0.001 0.084 0.027 0 0.027 0.019 0.038 0.042 0.023s0.042 0.003 0.042 0.038c0 0.039 0.024 0.055 0.061 0.041 0.035-0.014 0.11 0.027 0.175 0.096 0.062 0.066 0.1 0.096 0.083 0.067s-0.010-0.053 0.014-0.053c0.024 0 0.045 0.020 0.045 0.045s0.017 0.034 0.038 0.021c0.021-0.013 0.046-0.002 0.055 0.025s0.091 0.056 0.182 0.065c0.091 0.009 0.173 0.036 0.181 0.059 0.009 0.026 0.037 0.023 0.074-0.007 0.043-0.035 0.059-0.036 0.059-0.002 0 0.026 0.020 0.047 0.045 0.047s0.035-0.016 0.022-0.036c-0.028-0.046 0.19-0.008 0.257 0.045 0.028 0.022 0.070 0.028 0.095 0.013 0.059-0.036 0.059-0.933-0-0.969-0.030-0.018-0.026-0.049 0.011-0.095s0.039-0.058 0.004-0.037c-0.037 0.022-0.046-0.010-0.032-0.118 0.010-0.082 0.002-0.149-0.019-0.149s-0.062-0.071-0.090-0.158c-0.029-0.087-0.080-0.178-0.115-0.204-0.038-0.028-0.050-0.068-0.029-0.101 0.022-0.036 0.018-0.045-0.015-0.025s-0.049-0.005-0.049-0.067c-0.001-0.078-0.009-0.085-0.041-0.034-0.041 0.064-0.066 0.009-0.045-0.102 0.004-0.021-0.026-0.012-0.066 0.021-0.065 0.053-0.070 0.051-0.046-0.014 0.020-0.054 0.006-0.074-0.055-0.074-0.048 0-0.083-0.028-0.083-0.068 0-0.044-0.023-0.059-0.065-0.043s-0.055 0.008-0.035-0.024c0.020-0.033 0.007-0.040-0.042-0.021-0.040 0.015-0.062 0.011-0.049-0.009 0.031-0.051-0.079-0.088-0.264-0.089-0.113-0-0.137-0.011-0.092-0.040 0.040-0.025-0.485-0.040-1.44-0.042-1.187-0.002-1.502 0.008-1.503 0.051-0.001 0.040-0.009 0.039-0.037-0.004-0.025-0.040-0.045-0.043-0.065-0.011zM14.629 5.636c-0.035 0.020-0.143 0.057-0.242 0.081s-0.179 0.063-0.179 0.085-0.025 0.040-0.056 0.040c-0.030 0-0.097 0.048-0.148 0.107s-0.111 0.095-0.134 0.082c-0.022-0.014-0.041 0.002-0.041 0.036s-0.028 0.072-0.063 0.085c-0.035 0.013-0.063 0.045-0.063 0.070s0.019 0.034 0.042 0.020c0.024-0.015 0.031 0.002 0.017 0.040-0.014 0.036-0.053 0.065-0.088 0.065-0.037 0-0.054 0.024-0.040 0.059 0.012 0.032-0.010 0.089-0.050 0.125-0.044 0.040-0.070 0.117-0.064 0.193 0.005 0.070-0.009 0.127-0.032 0.127s-0.036 0.033-0.031 0.074c0.005 0.040-0.006 0.108-0.024 0.149s-0.021 0.16-0.007 0.263c0.024 0.178 0.021 0.187-0.079 0.187-0.057 0-0.104 0.020-0.104 0.045s-0.017 0.034-0.038 0.021c-0.021-0.013-0.092 0.021-0.158 0.075s-0.171 0.112-0.235 0.127c-0.066 0.016-0.116 0.057-0.116 0.095 0 0.042-0.023 0.058-0.063 0.043-0.035-0.013-0.063-0.010-0.063 0.007s-0.052 0.054-0.116 0.081c-0.151 0.065-0.27 0.144-0.329 0.217-0.026 0.032-0.067 0.046-0.092 0.031s-0.101 0.028-0.17 0.097c-0.069 0.069-0.176 0.134-0.239 0.145s-0.137 0.051-0.164 0.089c-0.027 0.037-0.068 0.062-0.091 0.055-0.052-0.017-0.275 0.155-0.248 0.191 0.011 0.015 0.007 0.017-0.009 0.005s-0.074 0.009-0.13 0.046-0.151 0.076-0.211 0.086c-0.141 0.026-0.178 0.050-0.178 0.118 0 0.031-0.029 0.067-0.065 0.081-0.042 0.016-0.055 0.008-0.036-0.023 0.040-0.065-0.244 0.096-0.307 0.175-0.057 0.070-0.032 0.209 0.048 0.273 0.029 0.023 0.068 0.118 0.087 0.21s0.041 0.197 0.049 0.231c0.037 0.158 0.039 0.673 0.002 0.673-0.022 0-0.018 0.027 0.009 0.059 0.028 0.034 0.033 0.069 0.011 0.083-0.021 0.013-0.050 0.082-0.065 0.154s-0.045 0.118-0.069 0.104c-0.023-0.014-0.045 0.003-0.048 0.039-0.008 0.102-0.015 0.125-0.050 0.181-0.018 0.029-0.022 0.053-0.008 0.053s0.004 0.038-0.021 0.085c-0.025 0.047-0.067 0.072-0.092 0.057-0.028-0.017-0.035-0.009-0.017 0.020 0.033 0.053-0.023 0.179-0.084 0.189-0.021 0.004-0.034 0.021-0.028 0.038 0.010 0.030-0.056 0.048-0.129 0.035-0.019-0.003-0.024 0.037-0.011 0.090s0.013 0.072-0 0.043c-0.038-0.082-0.101-0.062-0.101 0.032 0 0.106 0.068 0.109 0.132 0.006 0.029-0.047 0.080-0.070 0.126-0.058 0.043 0.011 0.078-0.001 0.078-0.027s0.039-0.047 0.087-0.047 0.075-0.019 0.061-0.042c-0.014-0.023 0.027-0.064 0.092-0.090 0.345-0.141 0.475-0.209 0.475-0.249 0-0.024 0.017-0.034 0.039-0.020s0.075-0.023 0.12-0.079c0.063-0.081 0.093-0.092 0.132-0.053 0.028 0.028 0.048 0.031 0.043 0.008-0.017-0.092 0.004-0.151 0.046-0.125 0.055 0.034 0.259-0.014 0.237-0.055-0.026-0.048 0.118-0.164 0.19-0.154 0.036 0.005 0.125-0.045 0.199-0.112 0.143-0.13 0.215-0.163 0.127-0.058-0.044 0.054-0.042 0.060 0.016 0.038 0.063-0.024 0.086-0.072 0.074-0.153-0.002-0.017 0.022-0.020 0.055-0.007s0.099-0.017 0.147-0.065 0.114-0.087 0.146-0.087c0.112 0 0.264-0.106 0.243-0.169-0.018-0.055-0.011-0.055 0.057 0.001 0.059 0.047 0.069 0.049 0.043 0.005-0.024-0.040-0.017-0.052 0.023-0.039 0.032 0.011 0.077 0.003 0.1-0.016s0.088-0.073 0.143-0.118c0.055-0.045 0.117-0.072 0.137-0.060s0.037-0.007 0.037-0.043c0-0.042 0.038-0.066 0.103-0.066 0.057 0 0.14-0.039 0.185-0.087 0.052-0.056 0.091-0.071 0.109-0.042 0.015 0.025 0.008 0.045-0.017 0.045-0.063 0-0.056 0.241 0.008 0.266 0.041 0.017 0.041 0.022 0.001 0.025-0.058 0.004-0.067 1.031-0.018 1.986 0.015 0.293 0.014 0.524-0.003 0.513s-0.031 0.712-0.032 1.606c-0.001 1.533 0.003 1.623 0.072 1.594 0.041-0.017 0.097-0.032 0.124-0.033s0.043-0.015 0.033-0.031c-0.024-0.038 0.186-0.133 0.231-0.104 0.020 0.012 0.064-0.007 0.099-0.042 0.037-0.037 0.074-0.047 0.089-0.023 0.016 0.026 0.063 0.026 0.132 0 0.058-0.022 0.167-0.040 0.24-0.040h0.134l-0.007-0.42c-0.004-0.231 0.011-0.431 0.032-0.444s0.028-0.041 0.015-0.062c-0.032-0.051 0.068-0.379 0.108-0.354 0.017 0.011 0.043-0.010 0.056-0.046 0.017-0.044 0.008-0.055-0.027-0.033-0.029 0.017 0.061-0.081 0.2-0.219s0.259-0.247 0.267-0.242c0.040 0.023 0.218-0.243 0.192-0.286-0.019-0.031-0.012-0.038 0.018-0.019 0.031 0.019 0.048-0.004 0.048-0.067-0.001-0.078-0.009-0.085-0.041-0.034-0.035 0.054-0.041 0.052-0.041-0.011-0-0.040 0.021-0.074 0.046-0.074 0.027 0 0.039-0.044 0.027-0.105-0.011-0.058-0.006-0.105 0.010-0.105 0.042 0 0.107-0.46 0.12-0.854 0.005-0.14 0.021-0.193 0.055-0.172s0.041-0.006 0.025-0.090c-0.013-0.066-0.003-0.168 0.021-0.227 0.058-0.141 0.062-0.226 0.010-0.265-0.027-0.021-0.026-0.042 0.005-0.063 0.118-0.079 0.161-1.407 0.056-1.734-0.004-0.012-0.006-0.101-0.004-0.198s-0.017-0.189-0.040-0.203c-0.027-0.017-0.024-0.047 0.007-0.085 0.035-0.043 0.036-0.059 0.002-0.059-0.026 0-0.047-0.020-0.047-0.044s0.021-0.032 0.046-0.016c0.032 0.020 0.034 0.005 0.007-0.050-0.022-0.043-0.036-0.15-0.032-0.236s-0.008-0.158-0.028-0.158c-0.056 0-0.041-0.117 0.017-0.14 0.035-0.014 0.037-0.022 0.004-0.025-0.029-0.002-0.039-0.040-0.025-0.094 0.018-0.068 0.010-0.082-0.031-0.057-0.037 0.023-0.045 0.018-0.025-0.014 0.054-0.087 0.178 0.1 0.156 0.235-0.005 0.029 0.007 0.053 0.026 0.053 0.031 0 0.048 0.065 0.062 0.242 0.002 0.029 0.017 0.053 0.031 0.053s0.051 0.095 0.081 0.21 0.067 0.21 0.083 0.21 0.032 0.033 0.035 0.074c0.009 0.119 0.114 0.389 0.151 0.389 0.019 0 0.023 0.018 0.009 0.041-0.022 0.036 0.042 0.225 0.2 0.59 0.025 0.058 0.041 0.129 0.036 0.158s0.010 0.053 0.033 0.053c0.023 0 0.032 0.029 0.018 0.064s-0.006 0.087 0.016 0.116c0.067 0.087 0.177 0.398 0.15 0.425-0.014 0.014-0.030 0.087-0.036 0.162s-0.023 0.194-0.038 0.263c-0.015 0.069-0.027 0.178-0.028 0.242s-0.023 0.116-0.051 0.116c-0.029 0-0.024 0.017 0.013 0.041 0.035 0.022 0.042 0.041 0.017 0.041s-0.049 0.053-0.051 0.116c-0.014 0.335-0.031 0.463-0.061 0.445-0.018-0.011-0.032 0.033-0.032 0.099 0.001 0.215-0.046 0.495-0.107 0.629-0.070 0.155-0.078 0.231-0.015 0.141 0.033-0.048 0.036-0.037 0.012 0.042-0.018 0.058-0.030 0.148-0.028 0.2s-0.009 0.095-0.025 0.095-0.031 0.061-0.034 0.137c-0.013 0.38-0.034 0.412-0.276 0.417-0.153 0.003-0.536 0.16-0.393 0.161 0.020 0 0.011 0.031-0.020 0.068-0.132 0.158-0.163 0.377-0.163 1.141l-0.001 0.767h-0.486c-0.267 0-0.524-0.020-0.57-0.045-0.068-0.037-0.112-0.023-0.236 0.071-0.083 0.064-0.138 0.093-0.121 0.066s0.020-0.050 0.007-0.050c-0.013 0-0.054 0.076-0.091 0.168s-0.086 0.156-0.11 0.141c-0.028-0.017-0.030-0.003-0.006 0.039 0.020 0.037 0.027 0.909 0.016 1.962-0.018 1.647-0.013 1.905 0.042 1.964 0.056 0.060 0.056 0.064 0 0.032-0.067-0.037-0.027 0.027 0.127 0.199 0.14 0.157 0.238 0.162 3.251 0.159 3.020-0.003 3.18-0.008 3.18-0.107 0-0.032 0.047-0.069 0.105-0.084s0.108-0.048 0.11-0.074c0.003-0.026 0.015-0.105 0.026-0.174 0.046-0.278 0.054-3.804 0.009-3.804-0.025 0-0.034-0.018-0.021-0.039s0.005-0.051-0.019-0.066-0.042-0.049-0.042-0.076c0-0.030 0.017-0.025 0.041 0.013 0.025 0.039 0.041 0.044 0.041 0.012 0-0.028-0.029-0.075-0.064-0.105s-0.098-0.086-0.137-0.125c-0.102-0.1-0.317-0.178-0.336-0.121-0.009 0.028-0.206 0.045-0.537 0.045h-0.522l-0.005-0.82c-0.005-0.764-0.009-0.869-0.037-0.925-0.006-0.012-0.013-0.039-0.016-0.061-0.017-0.127-0.343-0.345-0.496-0.331l-0.157 0.015 0.020-0.169c0.011-0.093 0.029-0.262 0.040-0.377s0.035-0.218 0.054-0.231c0.019-0.013 0.031-0.099 0.027-0.192s0.010-0.191 0.032-0.219c0.022-0.028 0.049-0.141 0.059-0.252s0.028-0.259 0.039-0.328c0.023-0.149 0.043-0.333 0.053-0.496 0.004-0.067 0.026-0.107 0.050-0.092s0.042-0.004 0.042-0.040-0.019-0.066-0.042-0.066c-0.023 0-0.042-0.020-0.042-0.044s0.021-0.032 0.047-0.016c0.032 0.020 0.037-0.001 0.017-0.066-0.019-0.060-0.014-0.085 0.012-0.068s0.040-0.045 0.036-0.163c-0.003-0.104 0.007-0.189 0.023-0.189 0.031 0 0.036-0.046 0.037-0.315 0.001-0.328-0.012-0.441-0.047-0.419-0.020 0.012-0.028-0.016-0.019-0.063s-0.001-0.085-0.022-0.085-0.027-0.028-0.014-0.063c0.013-0.035 0.005-0.063-0.018-0.063s-0.054-0.066-0.069-0.147c-0.015-0.081-0.044-0.147-0.064-0.147s-0.031-0.047-0.025-0.105c0.006-0.058-0.005-0.105-0.025-0.105s-0.036-0.043-0.036-0.097-0.019-0.116-0.042-0.139c-0.023-0.023-0.071-0.154-0.107-0.291s-0.084-0.261-0.109-0.276c-0.024-0.015-0.043-0.044-0.042-0.064 0.004-0.089-0.049-0.227-0.088-0.227-0.023 0-0.032-0.038-0.020-0.084s0.005-0.095-0.017-0.108c-0.021-0.013-0.029-0.040-0.017-0.059 0.032-0.052-0.023-0.172-0.067-0.145-0.021 0.013-0.038-0.025-0.038-0.084s-0.018-0.108-0.041-0.108c-0.022 0-0.030-0.028-0.017-0.063s0.005-0.063-0.018-0.063c-0.023 0-0.040-0.067-0.038-0.15s-0.020-0.165-0.051-0.184c-0.039-0.024-0.041-0.043-0.008-0.063 0.026-0.016 0.047-0.008 0.047 0.018s0.022 0.034 0.049 0.017c0.030-0.019 0.037-0.012 0.018 0.019-0.017 0.028-0.001 0.060 0.038 0.075 0.037 0.014 0.058 0.053 0.045 0.086s-0.008 0.051 0.010 0.039c0.018-0.011 0.070 0.063 0.115 0.166s0.104 0.186 0.132 0.187c0.027 0 0.062 0.039 0.077 0.086s0.073 0.134 0.128 0.194c0.056 0.060 0.091 0.126 0.078 0.146s-0.003 0.037 0.022 0.037 0.045 0.043 0.045 0.095c0 0.071 0.010 0.080 0.038 0.036 0.036-0.057 0.085-0.006 0.136 0.142 0.008 0.023 0.030 0.037 0.049 0.030s0.025 0.004 0.013 0.024 0.015 0.091 0.060 0.159c0.045 0.069 0.081 0.095 0.081 0.060s0.005-0.633 0.011-1.331c0.007-0.764-0.004-1.258-0.028-1.244-0.021 0.013-0.027-0.006-0.014-0.042 0.024-0.062-0.104-0.372-0.198-0.483-0.072-0.084-0.125-0.159-0.174-0.245-0.026-0.045-0.089-0.088-0.141-0.096s-0.105-0.050-0.116-0.095c-0.023-0.089-0.095-0.111-0.095-0.029 0 0.028-0.029 0.009-0.065-0.042-0.043-0.061-0.109-0.093-0.192-0.093-0.090 0-0.117-0.015-0.095-0.053 0.021-0.036 0.009-0.034-0.040 0.005-0.042 0.034-0.071 0.039-0.071 0.013 0-0.057-0.179-0.047-0.22 0.011-0.020 0.029-0.031 0.025-0.032-0.010-0.001-0.064-2.751-0.069-2.859-0.006zM17.869 16.165l0.008 0.418-1.357 0.023v-0.462c0-0.393 0.009-0.459 0.063-0.438 0.035 0.013 0.063 0.040 0.063 0.060s0.028 0.025 0.063 0.012c0.035-0.013 0.063-0.004 0.063 0.021 0 0.044 0.402 0.121 0.483 0.092 0.023-0.008 0.099-0.017 0.169-0.019 0.116-0.004 0.181-0.039 0.327-0.178 0.083-0.079 0.108 0.019 0.117 0.471zM13.413 22.971c0.005 0.612 0.022 1.104 0.039 1.094s0.020 0.031 0.008 0.092c-0.016 0.083-0.008 0.102 0.034 0.076 0.039-0.024 0.048-0.015 0.030 0.032-0.015 0.039 0.001 0.076 0.038 0.091 0.035 0.013 0.053 0.040 0.041 0.060s0.020 0.073 0.071 0.118c0.051 0.045 0.131 0.133 0.177 0.196s0.101 0.113 0.121 0.113 0.065 0.033 0.098 0.074c0.039 0.048 0.051 0.052 0.033 0.011-0.015-0.035 0.003-0.026 0.039 0.019s0.066 0.062 0.066 0.038 0.028-0.043 0.061-0.043c0.034 0 0.053 0.014 0.042 0.031s0.010 0.042 0.046 0.056c0.044 0.017 0.055 0.008 0.034-0.027-0.024-0.041-0.018-0.041 0.030-0.002 0.095 0.077 0.648 0.045 0.745-0.042 0.043-0.039 0.107-0.071 0.142-0.071s0.098-0.038 0.14-0.084c0.042-0.046 0.101-0.084 0.131-0.084 0.032 0 0.045-0.027 0.031-0.063-0.013-0.035-0.003-0.063 0.022-0.063s0.047-0.028 0.047-0.063c0-0.035 0.024-0.058 0.053-0.053s0.053-0.018 0.053-0.053c0-0.083 0.074-0.165 0.123-0.136 0.022 0.013 0.026-0.010 0.010-0.052s-0.011-0.097 0.010-0.122c0.021-0.026 0.036-0.465 0.032-0.984l-0.006-0.936-0.883-0.017c-0.753-0.014-0.989-0.026-1.164-0.060-0.016-0.003-0.060-0.037-0.098-0.075-0.059-0.059-0.076-0.061-0.107-0.011-0.030 0.048-0.038 0.045-0.038-0.014-0.001-0.066-0.047-0.093-0.137-0.079-0.017 0.003-0.032-0.014-0.032-0.037s-0.020-0.042-0.045-0.042c-0.031 0-0.042 0.349-0.036 1.112zM16.464 22.678c0.004 0.277 0.011 0.648 0.017 0.824s-0.005 0.344-0.024 0.374c-0.022 0.035-0.017 0.044 0.012 0.026s0.044 0.013 0.041 0.088c-0.009 0.221 0.010 0.286 0.115 0.399 0.058 0.063 0.101 0.137 0.095 0.164s0.031 0.073 0.083 0.1c0.052 0.027 0.085 0.059 0.074 0.070s0.027 0.046 0.084 0.077c0.058 0.031 0.105 0.072 0.105 0.091s0.044 0.035 0.097 0.035 0.119 0.022 0.146 0.049c0.071 0.071 0.71 0.079 0.874 0.011 0.074-0.031 0.149-0.043 0.167-0.026s0.020 0.007 0.004-0.021c-0.028-0.049 0.127-0.167 0.194-0.148 0.017 0.005 0.027-0.014 0.021-0.042s0.014-0.052 0.044-0.053c0.064-0.002 0.138-0.11 0.109-0.158-0.011-0.018 0.011-0.034 0.049-0.034 0.044 0 0.061-0.023 0.047-0.061s0.010-0.071 0.062-0.088c0.066-0.021 0.080-0.051 0.060-0.128-0.014-0.056-0.009-0.101 0.011-0.101s0.031-0.076 0.024-0.169c-0.007-0.093 0-0.161 0.017-0.152s0.029-0.349 0.029-0.798v-0.816l-2.564-0.020 0.007 0.504z"></path>
</svg>
