<!-- Generated by IcoMoon.io -->
<svg version="1.1" xmlns="http://www.w3.org/2000/svg" width="23" height="32" viewBox="0 0 23 32">
<title>s_tab3</title>
<path fill="#555" d="M12.307 0.617c-0.010 0.010-2.269 0.019-5.020 0.019s-5.010 0.015-5.021 0.032c-0.011 0.017-0.121 0.053-0.244 0.079s-0.217 0.060-0.207 0.076c0.010 0.016-0.039 0.039-0.108 0.052s-0.164 0.057-0.211 0.098c-0.047 0.041-0.106 0.074-0.132 0.074s-0.056 0.025-0.068 0.056c-0.012 0.031-0.040 0.056-0.063 0.056-0.052 0-0.407 0.356-0.496 0.496-0.036 0.057-0.057 0.103-0.047 0.103s-0.023 0.044-0.072 0.097c-0.050 0.053-0.11 0.159-0.135 0.234s-0.067 0.17-0.095 0.21-0.061 0.154-0.074 0.253c-0.013 0.099-0.038 0.179-0.056 0.179s-0.033 4.373-0.033 10.068c0 6.687 0.013 10.068 0.037 10.068 0.021 0 0.037 0.049 0.037 0.11s0.020 0.157 0.043 0.215c0.024 0.058 0.040 0.128 0.035 0.156s0.009 0.039 0.031 0.026c0.024-0.015 0.040 0.011 0.040 0.064 0 0.078 0.046 0.16 0.305 0.544 0.082 0.122 0.529 0.569 0.569 0.57 0.017 0 0.074 0.034 0.127 0.075s0.127 0.075 0.166 0.075 0.080 0.024 0.091 0.052c0.011 0.029 0.082 0.064 0.158 0.078s0.154 0.036 0.175 0.049c0.021 0.013 0.055 0.027 0.075 0.032s0.088 0.022 0.15 0.038c0.212 0.057 14.164 0.037 14.2-0.020 0.017-0.027 0.042-0.048 0.055-0.046 0.074 0.011 0.323-0.050 0.323-0.079 0-0.019 0.017-0.024 0.037-0.012s0.037 0.007 0.037-0.012c0-0.020 0.045-0.047 0.099-0.061 0.192-0.048 0.694-0.464 0.866-0.717 0.026-0.039 0.037-0.047 0.022-0.018-0.017 0.035-0.011 0.043 0.018 0.025 0.024-0.015 0.036-0.040 0.027-0.055s0.023-0.075 0.072-0.132 0.1-0.153 0.113-0.213c0.013-0.060 0.040-0.1 0.058-0.088s0.034-0.020 0.034-0.070c0-0.050 0.024-0.111 0.054-0.136s0.054-0.073 0.053-0.108c-0-0.035 0.017-0.13 0.039-0.213 0.027-0.102 0.040-2.7 0.040-8.222l0.001-8.072-0.094-0.074c-0.051-0.040-0.094-0.086-0.094-0.101 0-0.039-0.183-0.205-0.226-0.205-0.020 0-0.035-0.025-0.035-0.055s-0.051-0.081-0.112-0.113-0.112-0.067-0.112-0.078c0-0.011 0.016-0.010 0.035 0.002s-0.368-0.382-0.861-0.876c-0.493-0.494-0.896-0.913-0.896-0.932s-0.035-0.044-0.079-0.055c-0.043-0.011-0.069-0.037-0.057-0.056s-0.036-0.075-0.106-0.123c-0.071-0.048-0.136-0.118-0.146-0.154s-0.044-0.066-0.077-0.066-0.060-0.017-0.060-0.038c0-0.047-0.329-0.374-0.376-0.374-0.019 0-0.035-0.018-0.035-0.039s-0.366-0.406-0.814-0.854-0.898-0.906-1.001-1.018c-0.103-0.112-0.199-0.199-0.214-0.194s-0.043-0.021-0.062-0.057c-0.042-0.078-0.379-0.445-0.379-0.412 0 0.013-0.059-0.035-0.132-0.105-0.139-0.135-0.145-0.139-0.174-0.109zM11.756 4.070c0.002 0.983 0.001 1.818-0.003 1.855s0.010 0.088 0.031 0.113c0.021 0.025 0.046 0.091 0.056 0.147s0.045 0.139 0.077 0.185c0.032 0.046 0.059 0.108 0.059 0.137 0 0.089 0.341 0.483 0.523 0.604 0.046 0.031 0.104 0.075 0.128 0.098s0.11 0.065 0.192 0.093c0.082 0.029 0.16 0.069 0.175 0.090 0.017 0.024 0.693 0.041 1.881 0.048l1.854 0.011v0.111c0 0.061 0.017 0.111 0.038 0.111 0.025 0 0.037 2.503 0.037 7.506-0 4.674-0.014 7.498-0.036 7.484-0.019-0.012-0.046 0.038-0.060 0.11s-0.040 0.132-0.059 0.132c-0.019 0-0.053 0.041-0.075 0.090s-0.102 0.121-0.177 0.159c-0.075 0.038-0.148 0.086-0.163 0.106-0.045 0.063-13.637 0.070-13.761 0.007-0.239-0.121-0.435-0.271-0.435-0.333 0-0.015-0.034-0.065-0.075-0.112-0.116-0.132-0.137-19.747-0.022-19.97 0.084-0.163 0.305-0.411 0.381-0.427 0.029-0.006 0.064-0.026 0.077-0.045 0.058-0.080 0.55-0.089 4.832-0.093l4.519-0.004 0.004 1.787zM3.541 3.5c-0.039 0.029-0.085 0.045-0.101 0.035s-0.049 0.016-0.071 0.058c-0.023 0.042-0.057 0.067-0.077 0.055s-0.036-0.005-0.036 0.015c0 0.020-0.029 0.066-0.066 0.102-0.111 0.111-0.12 4.431-0.010 4.673 0.042 0.093 0.102 0.169 0.132 0.169s0.055 0.014 0.055 0.030c0 0.017 0.059 0.059 0.131 0.093 0.146 0.069 4.323 0.098 4.323 0.030 0-0.018 0.055-0.044 0.122-0.057 0.141-0.028 0.328-0.246 0.328-0.383 0-0.048 0.016-0.088 0.036-0.088 0.069 0 0.050-4.047-0.020-4.287-0.033-0.112-0.072-0.204-0.088-0.204s-0.051-0.042-0.078-0.094c-0.028-0.051-0.057-0.086-0.066-0.078s-0.073-0.016-0.143-0.056c-0.171-0.096-4.245-0.111-4.372-0.016zM6.999 6.119v1.329h-2.62v-2.657h2.62v1.329zM3.49 10.207c-0.046 0.009-0.084 0.032-0.084 0.051s-0.018 0.035-0.040 0.035c-0.050 0-0.147 0.095-0.147 0.144 0 0.020-0.021 0.044-0.047 0.053-0.037 0.012-0.049 0.491-0.058 2.183-0.011 2.127-0 2.509 0.070 2.466 0.019-0.012 0.035 0.002 0.035 0.030 0 0.079 0.149 0.195 0.338 0.264 0.2 0.074 4.165 0.097 4.209 0.025 0.013-0.021 0.055-0.037 0.094-0.037 0.108 0 0.262-0.081 0.262-0.137 0-0.028 0.015-0.050 0.033-0.050 0.043 0 0.133-0.219 0.127-0.306-0.003-0.037 0.011-0.068 0.031-0.068 0.065 0 0.043-4.093-0.023-4.218-0.030-0.058-0.055-0.125-0.055-0.149s-0.042-0.077-0.093-0.117c-0.051-0.040-0.083-0.082-0.071-0.094 0.086-0.086-4.161-0.156-4.58-0.075zM6.999 12.8v1.347h-2.62v-2.695h2.62v1.347zM3.433 16.905c-0.036 0.009-0.057 0.032-0.046 0.049s-0.014 0.043-0.056 0.056c-0.042 0.013-0.11 0.099-0.151 0.19-0.094 0.206-0.101 4.579-0.008 4.61 0.026 0.009 0.047 0.030 0.047 0.048 0 0.058 0.166 0.208 0.281 0.254 0.154 0.062 3.468 0.046 3.488-0.017 0.008-0.023-0.025-0.052-0.072-0.064s-0.094-0.027-0.104-0.033c-0.010-0.006-0.274-0.267-0.586-0.581l-0.568-0.571h-1.28v-2.695h2.62v0.348c0 0.221 0.016 0.364 0.045 0.393 0.025 0.025 0.031 0.045 0.015 0.045s0.035 0.066 0.114 0.146c0.079 0.080 0.157 0.138 0.172 0.129s0.028 0.001 0.028 0.022c0 0.104 0.148 0.015 0.383-0.232 0.142-0.149 0.334-0.348 0.426-0.442l0.168-0.17-0.006-0.494c-0.003-0.272-0.021-0.494-0.039-0.494s-0.034-0.041-0.034-0.092c0-0.057-0.061-0.157-0.161-0.262l-0.161-0.17-2.225 0.004c-1.224 0.002-2.255 0.012-2.291 0.022zM9.965 17.58c-0.046 0.009-0.084 0.028-0.084 0.042s-0.052 0.049-0.115 0.077c-0.063 0.028-0.129 0.087-0.147 0.131s-0.108 0.139-0.201 0.211c-0.093 0.072-0.19 0.168-0.215 0.214s-0.060 0.074-0.077 0.063c-0.017-0.011-0.032-0.005-0.032 0.012s-0.242 0.279-0.538 0.582c-0.296 0.303-0.532 0.551-0.524 0.551s-0.057 0.063-0.145 0.14c-0.088 0.077-0.165 0.155-0.173 0.173s-0.056 0.068-0.108 0.112c-0.052 0.044-0.113 0.099-0.136 0.123-0.031 0.032-0.164-0.080-0.513-0.43-0.26-0.26-0.51-0.502-0.558-0.537-0.119-0.088-0.589-0.074-0.642 0.019-0.019 0.035-0.060 0.063-0.090 0.063s-0.054 0.016-0.054 0.035c0 0.019-0.029 0.063-0.063 0.098-0.068 0.068-0.113 0.431-0.073 0.59 0.012 0.049 0.141 0.211 0.285 0.359s0.263 0.277 0.263 0.285c0 0.024 0.448 0.465 0.471 0.464 0.011-0.001 0.066 0.055 0.121 0.123 0.13 0.16 0.409 0.433 0.509 0.498s0.589 0.057 0.611-0.010c0.009-0.026 0.035-0.047 0.059-0.047s0.33-0.295 0.68-0.655 0.995-1.017 1.433-1.459c0.438-0.443 0.787-0.805 0.774-0.805s0.003-0.026 0.036-0.059c0.032-0.032 0.059-0.109 0.059-0.171 0-0.076 0.014-0.103 0.044-0.085 0.031 0.019 0.035 0.006 0.015-0.045-0.016-0.039-0.035-0.105-0.043-0.146-0.046-0.232-0.066-0.279-0.158-0.367-0.167-0.159-0.378-0.206-0.672-0.15z"></path>
</svg>
