<!-- Generated by IcoMoon.io -->
<svg version="1.1" xmlns="http://www.w3.org/2000/svg" width="32" height="32" viewBox="0 0 32 32">
<title>scales-of-justice</title>
<path d="M23.385 30.73v1.231h-14.769v-1.231c0-0.678 0.553-1.231 1.231-1.231h2.478c0.065-1.536 1.062-2.818 2.446-3.31v-14.431c-0.649-0.41-1.083-1.129-1.083-1.953h4.628c0 0.825-0.434 1.543-1.083 1.953v14.43c1.383 0.491 2.38 1.774 2.446 3.31h2.478c0.678 0.001 1.231 0.554 1.231 1.232zM32 19.652c-0.902 2.54-3.305 4.373-6.154 4.373s-5.252-1.834-6.154-4.373h1.42l4.158-11.019c0.18-0.48 0.971-0.48 1.152 0l4.158 11.019h1.42zM29.264 19.652l-3.418-9.057-3.418 9.058h6.836zM6.154 7.358c0.558 0 1.012-0.373 1.169-0.879 0.407-0.155 0.825-0.364 1.253-0.581 0.942-0.475 2.009-1.015 3.116-1.015 1.063 0 1.728 0.491 2.108 0.91-0.015 0.106-0.032 0.212-0.032 0.321 0 1.232 0.999 2.231 2.231 2.231s2.231-0.999 2.231-2.231c0-0.11-0.017-0.214-0.032-0.32 0.379-0.417 1.044-0.911 2.108-0.911 1.108 0 2.175 0.539 3.115 1.014 0.43 0.217 0.847 0.426 1.254 0.581 0.158 0.506 0.612 0.879 1.169 0.879 0.687 0 1.243-0.556 1.243-1.243s-0.556-1.243-1.243-1.243c-0.354 0-0.671 0.153-0.897 0.391-0.304-0.128-0.633-0.292-0.971-0.463-1.063-0.538-2.268-1.147-3.67-1.147-1.226 0-2.080 0.466-2.66 0.969-0.26-0.287-0.592-0.501-0.97-0.623 0.459-0.246 0.782-0.715 0.782-1.27 0-0.806-1.46-2.688-1.46-2.688s-1.46 1.882-1.46 2.688c0 0.556 0.322 1.024 0.782 1.27-0.378 0.121-0.71 0.336-0.97 0.623-0.58-0.502-1.434-0.969-2.66-0.969-1.402 0-2.608 0.609-3.671 1.147-0.338 0.172-0.666 0.336-0.97 0.463-0.226-0.238-0.543-0.391-0.897-0.391-0.687 0-1.243 0.556-1.243 1.243s0.556 1.244 1.243 1.244zM6.154 24.026c-2.849 0-5.252-1.834-6.154-4.373h1.42l4.158-11.019c0.18-0.48 0.971-0.48 1.152 0l4.158 11.019h1.42c-0.902 2.539-3.305 4.373-6.154 4.373zM9.572 19.652l-3.418-9.057-3.418 9.058h6.836z"></path>
</svg>
