<!-- Generated by IcoMoon.io -->
<svg version="1.1" xmlns="http://www.w3.org/2000/svg" width="32" height="32" viewBox="0 0 32 32">
<title>searcher</title>
<path d="M19.86 25.715c0.311-0.394 0.72-0.693 1.183-0.869-0.568-0.971-0.88-2.087-0.894-3.223-0.002-0.138 0.003-0.276 0.010-0.413l-1.69-0.674-1.496-1.261c-0.395-0.334-0.979-0.309-1.345 0.055l-2.080 2.068-2.086-2.069c-0.367-0.364-0.949-0.387-1.344-0.055l-1.496 1.261-6.389 2.548c-2.057 0.819-2.056 8.105-2.232 8.774h17.515c-0.258-0.369-0.423-0.798-0.477-1.257-0.087-0.732 0.117-1.454 0.574-2.033l2.249-2.852z"></path>
<path d="M26.657 28.062c-0 0-0 0-0 0-0.639-0-1.28-0.096-1.892-0.281-0.064 0.491-0.259 0.959-0.57 1.352l-2.148 2.724h5.047c-0.081-0.304-0.125-1.982-0.343-3.797-0.031 0.001-0.062 0.001-0.093 0.001z"></path>
<path d="M9.089 6.521c1.182 0.561 2.765 0.871 4.458 0.871s3.275-0.309 4.457-0.871c0.73-0.347 1.242-0.764 1.486-1.197-0.008-0.003-0.015-0.005-0.022-0.008-0.716-8.697-5.061-3.8-5.921-3.8s-5.205-4.896-5.921 3.8c-0.008 0.003-0.015 0.005-0.022 0.008 0.243 0.433 0.756 0.85 1.486 1.197z"></path>
<path d="M7.177 10.582c0.28 5.161 2.968 8.2 6.368 8.2s6.086-3.038 6.367-8.199c1.649-0.651 2.671-1.554 2.671-2.552 0-0.886-0.807-1.698-2.143-2.325-0.33 0.667-1.013 1.264-2 1.733-1.316 0.625-3.054 0.969-4.894 0.969s-3.579-0.344-4.895-0.969c-0.987-0.469-1.669-1.066-2-1.733-1.337 0.627-2.143 1.438-2.143 2.325 0 0.997 1.020 1.899 2.668 2.55z"></path>
<path d="M29.97 17.359c-2.311-1.822-5.673-1.425-7.495 0.885-1.57 1.99-1.492 4.762 0.037 6.656l-0.764 0.969c-0.366 0.067-0.709 0.261-0.958 0.576l-2.249 2.852c-0.541 0.686-0.423 1.68 0.262 2.221s1.68 0.423 2.221-0.262l2.249-2.852c0.248-0.315 0.357-0.694 0.337-1.066l0.764-0.969c2.199 1.045 4.911 0.475 6.481-1.515 1.822-2.31 1.425-5.673-0.885-7.495zM29.614 23.875c-1.282 1.626-3.648 1.905-5.274 0.623s-1.905-3.648-0.623-5.274c1.282-1.626 3.648-1.905 5.274-0.623s1.905 3.648 0.623 5.274z"></path>
</svg>
