<!-- Generated by IcoMoon.io -->
<svg version="1.1" xmlns="http://www.w3.org/2000/svg" width="32" height="32" viewBox="0 0 32 32">
<title>sedan-car-model</title>
<path d="M5.586 16.864c-1.333 0-2.415 1.081-2.415 2.415 0 0.103 0.008 0.204 0.021 0.303 0.15 1.19 1.163 2.111 2.393 2.111 1.264 0 2.3-0.971 2.405-2.208 0.005-0.068 0.010-0.136 0.010-0.206 0-1.333-1.081-2.414-2.414-2.414zM4.377 18.369l0.492 0.492c-0.038 0.066-0.068 0.136-0.088 0.212h-0.694c0.036-0.263 0.136-0.502 0.289-0.705zM4.084 19.492h0.699c0.020 0.074 0.049 0.145 0.088 0.21l-0.493 0.493c-0.153-0.2-0.256-0.44-0.294-0.703zM5.377 20.779c-0.262-0.037-0.499-0.139-0.7-0.291l0.491-0.491c0.065 0.038 0.135 0.066 0.21 0.085v0.697zM5.377 18.476c-0.076 0.020-0.147 0.050-0.213 0.089l-0.492-0.492c0.202-0.154 0.442-0.255 0.705-0.292v0.695zM5.795 17.78c0.263 0.037 0.503 0.139 0.705 0.292l-0.491 0.492c-0.066-0.039-0.138-0.069-0.213-0.089l-0-0.695zM5.795 20.778v-0.696c0.074-0.020 0.145-0.047 0.209-0.085l0.491 0.491c-0.201 0.152-0.439 0.253-0.7 0.29zM6.795 20.196l-0.495-0.496c0.039-0.065 0.070-0.134 0.090-0.209h0.694c-0.037 0.261-0.135 0.503-0.289 0.705zM6.391 19.073c-0.020-0.076-0.049-0.146-0.088-0.212l0.493-0.492c0.152 0.202 0.253 0.442 0.289 0.705h-0.694z"></path>
<path d="M25.636 16.864c-1.333 0-2.415 1.081-2.415 2.415 0 0.103 0.008 0.204 0.021 0.303 0.15 1.19 1.163 2.111 2.393 2.111 1.264 0 2.3-0.971 2.405-2.208 0.006-0.068 0.010-0.136 0.010-0.206 0.001-1.333-1.081-2.414-2.414-2.414zM24.427 18.369l0.492 0.492c-0.038 0.066-0.068 0.136-0.088 0.212h-0.694c0.036-0.263 0.136-0.502 0.29-0.705zM24.135 19.492h0.699c0.020 0.074 0.049 0.145 0.088 0.21l-0.493 0.493c-0.154-0.2-0.257-0.44-0.294-0.703zM25.427 20.779c-0.262-0.037-0.499-0.139-0.7-0.291l0.491-0.491c0.065 0.038 0.135 0.066 0.21 0.085v0.697zM25.427 18.476c-0.076 0.020-0.147 0.050-0.213 0.089l-0.492-0.492c0.202-0.154 0.442-0.255 0.705-0.292v0.695zM25.845 17.78c0.263 0.037 0.503 0.139 0.705 0.292l-0.492 0.492c-0.066-0.039-0.138-0.070-0.213-0.089v-0.695zM25.845 20.778v-0.696c0.074-0.020 0.145-0.047 0.209-0.085l0.491 0.491c-0.201 0.152-0.439 0.253-0.7 0.29zM26.845 20.196l-0.495-0.495c0.039-0.065 0.070-0.134 0.090-0.209h0.694c-0.037 0.261-0.135 0.503-0.289 0.704zM26.441 19.073c-0.020-0.076-0.049-0.146-0.088-0.212l0.492-0.492c0.153 0.202 0.253 0.442 0.289 0.705h-0.694z"></path>
<path d="M31.434 15.614v-1.787c0-0.287-0.209-0.531-0.493-0.575-0.681-0.107-1.889-0.308-2.432-0.475-0.778-0.24-3.784-1.513-4.825-1.752s-5.735-1.515-10.231 0.044c-0.761 0.264-4.183 1.9-6.196 2.75-0.593 0.013-6.459 1.236-6.771 2.074s-0.41 1.245-0.468 1.458 0 1.231 0.436 1.94c0.444 0.251 1.3 0.42 2.288 0.533-0.011-0.060-0.024-0.12-0.031-0.181-0.017-0.131-0.025-0.25-0.025-0.364 0-1.599 1.3-2.9 2.9-2.9s2.9 1.301 2.9 2.9c0 0.082-0.005 0.164-0.012 0.244-0.015 0.179-0.048 0.354-0.094 0.522 0.002 0 0.008 0 0.008 0l14.394-0.29c-0.006-0.037-0.015-0.074-0.020-0.112-0.017-0.13-0.025-0.25-0.025-0.364 0-1.599 1.3-2.9 2.9-2.9s2.9 1.3 2.9 2.9c0 0.006-0.001 0.011-0.001 0.017l0.061-0.005 2.461-0.463c0 0 0.943-0.502 0.943-1.883 0-0.921-0.566-1.332-0.566-1.332zM17.155 13.92l-5.376 0.165c0.099-0.805-0.378-0.986-0.378-0.986 2.137-1.94 6.444-2.005 6.444-2.005l-0.69 2.827zM23.188 13.674l-4.899 0.165 0.444-2.745c2.532-0.033 3.978 0.526 3.978 0.526l0.723 1.167-0.247 0.888zM25.95 13.657h-1.365l-1.364-1.874c1.024 0.407 1.843 0.809 2.331 1.063 0.296 0.154 0.458 0.483 0.398 0.811z"></path>
</svg>
