<!-- Generated by IcoMoon.io -->
<svg version="1.1" xmlns="http://www.w3.org/2000/svg" width="32" height="32" viewBox="0 0 32 32">
<title>select-document</title>
<path fill="#555" d="M2.706 1.777c-0.157 0.024-0.393 0.267-0.519 0.535-0.139 0.296-0.128 20.747 0.011 21.061 0.096 0.216 0.468 0.521 0.563 0.462 0.030-0.018 0.054-0.009 0.054 0.021 0 0.060 7.926 0.052 8.115-0.008 0.056-0.018 0.119-0.034 0.139-0.037 0.092-0.010 0.399-0.332 0.399-0.419 0-0.053 0.025-0.097 0.055-0.097 0.192 0 0-0.739-0.25-0.964-0.257-0.231-0.033-0.218-3.901-0.229l-3.456-0.010v-18.586l14.72-0.026 0.006 5.005c0.003 2.753 0.003 5.025-0.002 5.049-0.064 0.353 0.614 0.925 0.99 0.835 0.059-0.014 0.159-0.038 0.223-0.053 0.193-0.045 0.407-0.249 0.518-0.494 0.117-0.259 0.148-11.292 0.032-11.469-0.028-0.042-0.051-0.092-0.051-0.111-0.001-0.065-0.303-0.395-0.339-0.372-0.020 0.013-0.072-0.012-0.114-0.054-0.072-0.072-16.734-0.113-17.193-0.042zM7.041 7.026c-0.584 0.293-0.644 1.12-0.111 1.536l0.179 0.14 4.27 0.003c4.576 0.003 4.37 0.014 4.649-0.258 0.337-0.327 0.387-0.849 0.108-1.115-0.075-0.072-0.102-0.111-0.060-0.088 0.123 0.067 0.040-0.008-0.181-0.163l-0.203-0.144-4.224-0.007c-4.127-0.007-4.229-0.005-4.427 0.095zM7.219 11.887c0 0.033-0.015 0.045-0.032 0.027s-0.081-0.005-0.141 0.028-0.126 0.055-0.147 0.049c-0.021-0.006-0.038 0.008-0.038 0.031s-0.043 0.088-0.095 0.144c-0.165 0.177-0.285 0.839-0.152 0.839 0.024 0 0.043 0.040 0.044 0.090 0.002 0.099 0.221 0.371 0.299 0.371 0.027 0 0.059 0.029 0.071 0.064 0.017 0.051 0.943 0.064 4.403 0.064h4.381l0.173-0.179c0.241-0.25 0.449-0.87 0.292-0.87-0.023 0-0.030-0.033-0.015-0.073s-0.020-0.121-0.078-0.179c-0.058-0.059-0.106-0.125-0.106-0.148s-0.075-0.098-0.166-0.166l-0.166-0.125-4.262-0.013c-3.22-0.010-4.262 0.002-4.262 0.047zM22.37 15.465c-0.186 0.050-0.41 0.205-0.376 0.26 0.016 0.025-0.006 0.059-0.048 0.075s-0.241 0.218-0.441 0.448-0.461 0.516-0.579 0.636c-0.118 0.12-0.216 0.235-0.217 0.256s-0.082 0.119-0.179 0.218c-0.396 0.404-0.721 0.766-0.686 0.766 0.021 0-0.075 0.103-0.213 0.229s-0.239 0.23-0.223 0.23c0.015 0.001-0.173 0.214-0.418 0.474s-0.435 0.489-0.423 0.509c0.012 0.020-0.021 0.059-0.073 0.088s-0.251 0.231-0.44 0.451c-0.189 0.22-0.441 0.502-0.558 0.627s-0.209 0.245-0.202 0.267c0.047 0.153-0.192 0.13-0.352-0.034-0.095-0.098-0.201-0.178-0.236-0.178s-0.064-0.036-0.064-0.078c0-0.043-0.057-0.104-0.126-0.136s-0.114-0.077-0.099-0.101c0.015-0.024 0.007-0.044-0.018-0.044s-0.347-0.297-0.716-0.661c-0.369-0.363-0.684-0.648-0.7-0.631s-0.029-0.006-0.029-0.050c0-0.044-0.052-0.114-0.115-0.156s-0.182-0.135-0.263-0.206c-0.188-0.163-0.398-0.206-0.665-0.133-0.116 0.031-0.222 0.057-0.236 0.057-0.338 0.003-0.643 0.897-0.409 1.2 0.151 0.196 0.236 0.289 0.478 0.521 0.137 0.131 0.496 0.487 0.799 0.789s0.562 0.55 0.576 0.55c0.014 0 0.133 0.104 0.263 0.23s0.223 0.23 0.205 0.23c-0.018 0 0.046 0.065 0.142 0.145s0.366 0.333 0.602 0.563c0.236 0.23 0.447 0.406 0.47 0.392s0.057-0.001 0.076 0.030c0.038 0.062 0.445 0.054 0.631-0.012 0.118-0.042 1.084-1.007 1.066-1.065-0.005-0.016 0.089-0.118 0.21-0.227s0.21-0.207 0.2-0.217 0.075-0.117 0.191-0.237c0.116-0.12 0.309-0.332 0.431-0.473s0.317-0.353 0.435-0.473c0.118-0.12 0.215-0.235 0.217-0.256s0.105-0.142 0.23-0.268c0.125-0.127 0.317-0.334 0.426-0.461s0.305-0.344 0.435-0.483c0.131-0.139 0.237-0.265 0.237-0.28s0.086-0.105 0.19-0.2c0.105-0.095 0.187-0.187 0.183-0.206s0.094-0.141 0.219-0.271c0.125-0.131 0.319-0.345 0.431-0.477s0.302-0.333 0.421-0.448c0.119-0.115 0.203-0.23 0.187-0.256s0.017-0.060 0.073-0.074c0.468-0.122 0.191-1.4-0.303-1.4-0.053 0-0.096-0.018-0.096-0.040 0-0.050-0.34-0.056-0.516-0.009zM7.080 16.704c-0.227 0.122-0.426 0.301-0.394 0.354 0.015 0.024 0.006 0.043-0.019 0.043-0.052 0-0.060 0.033-0.083 0.379-0.017 0.249 0.010 0.334 0.195 0.61 0.175 0.261 0.292 0.279 1.831 0.287 0.936 0.005 1.428-0.011 1.45-0.046 0.018-0.029 0.054-0.041 0.079-0.025 0.066 0.041 0.444-0.334 0.508-0.503 0.129-0.344-0.011-0.794-0.321-1.030l-0.181-0.138-1.449-0.010c-1.292-0.009-1.467-0-1.616 0.080z"></path>
</svg>
