<!-- Generated by IcoMoon.io -->
<svg version="1.1" xmlns="http://www.w3.org/2000/svg" width="39" height="32" viewBox="0 0 39 32">
<title>Server-External</title>
<path d="M22.977 0.65v0.662l0.742 0.024c1.544 0.056 2.703 0.333 3.97 0.95 2.731 1.335 4.68 3.942 5.189 6.937 0.044 0.249 0.124 0.894 0.124 0.982 0 0.020-0.184-0.144-0.413-0.373l-0.409-0.409-0.918 0.918 1.175 1.203c0.65 0.666 1.199 1.207 1.223 1.207 0.040 0 1.067-1.023 2.069-2.057l0.341-0.349-0.922-0.922-0.85 0.85-0.024-0.401c-0.112-1.684-0.766-3.553-1.772-5.061-0.457-0.686-0.794-1.099-1.363-1.664-1.48-1.48-3.272-2.458-5.321-2.903-0.549-0.116-1.267-0.197-2.105-0.229l-0.734-0.028v0.662z"></path>
<path d="M6.372 3.914c-0.449 0.136-0.782 0.505-0.878 0.966-0.028 0.136-0.040 0.581-0.032 1.227 0.012 0.962 0.016 1.019 0.108 1.223 0.12 0.265 0.453 0.577 0.71 0.666 0.136 0.048 0.341 0.064 0.726 0.064h0.533v0.79l-0.549 0.020c-0.485 0.016-0.581 0.028-0.774 0.12-0.285 0.128-0.505 0.349-0.638 0.63l-0.104 0.225v2.286l0.104 0.221c0.136 0.281 0.357 0.505 0.638 0.634 0.192 0.092 0.289 0.104 0.774 0.12l0.549 0.020v0.79h-0.533c-0.385 0-0.589 0.016-0.726 0.064-0.257 0.088-0.589 0.401-0.71 0.666-0.092 0.209-0.096 0.237-0.096 1.359v1.147l0.14 0.277c0.265 0.517 0.642 0.698 1.456 0.698h0.469v0.794l-0.589 0.016c-0.525 0.012-0.614 0.024-0.766 0.104-0.265 0.14-0.477 0.353-0.598 0.602l-0.112 0.229-0.012 1.043c-0.012 0.87-0.004 1.083 0.052 1.283 0.080 0.293 0.225 0.517 0.453 0.69 0.257 0.192 0.505 0.253 1.079 0.253h0.493v1.263c0 1.359 0.012 1.464 0.205 1.6 0.084 0.060 0.525 0.064 4.972 0.064h4.88l0.012 0.469c0.016 0.429 0.028 0.489 0.124 0.662 0.317 0.533 1.183 1.011 2.39 1.311 1.315 0.329 2.807 0.473 4.439 0.433 3.064-0.084 5.345-0.762 5.895-1.756l0.12-0.217v-11.914l-0.14-0.233c-0.245-0.409-0.858-0.822-1.612-1.087l-0.313-0.108-0.008-3.93-0.012-3.93-0.132-0.116-0.128-0.116h-5.165l-0.016-0.393c-0.012-0.321-0.036-0.425-0.12-0.593-0.124-0.241-0.373-0.473-0.63-0.593l-0.184-0.084-7.779-0.008c-6.653-0.004-7.808 0-7.964 0.052zM21.975 4.792c0.064 0.032 0.136 0.096 0.16 0.136 0.024 0.048 0.040 0.461 0.040 1.055v0.978l-0.245 0.237-7.567 0.012c-5.418 0.008-7.611 0-7.719-0.032-0.1-0.028-0.18-0.088-0.229-0.172-0.072-0.116-0.080-0.209-0.080-1.067v-0.934l0.273-0.273h7.623c6.725 0 7.639 0.008 7.743 0.060zM27.629 9.905c0 1.917-0.012 3.489-0.028 3.489-0.020 0-0.221-0.036-0.453-0.076-1.023-0.188-1.52-0.225-3.048-0.225-1.536 0-2.077 0.040-3.1 0.225-1.857 0.333-3.068 0.946-3.344 1.692-0.032 0.096-0.048 1.412-0.048 5.149l-0.004 5.025h-9.183v-2.045l8.132-0.020 0.104-0.096c0.204-0.192 0.168-0.541-0.072-0.69-0.12-0.072-0.301-0.076-5.025-0.076-3.437 0-4.928-0.012-4.997-0.044-0.209-0.096-0.229-0.192-0.229-1.179 0-0.958 0.020-1.087 0.197-1.183 0.052-0.028 1.684-0.040 4.944-0.040 3.292 0 4.912-0.016 5.017-0.044 0.321-0.088 0.405-0.501 0.148-0.73l-0.12-0.108h-8.1v-0.802h4.022c3.862 0 4.022-0.004 4.142-0.076 0.241-0.148 0.277-0.497 0.072-0.69l-0.104-0.096-9.985-0.040-0.116-0.132-0.116-0.128v-0.926c0-1.035 0.020-1.119 0.261-1.223 0.116-0.048 0.894-0.056 5.045-0.056h4.904l0.092-0.084c0.197-0.184 0.204-0.465 0.016-0.654l-0.104-0.104h-8.128v-0.802h6.729c5.827 0 6.757-0.008 6.957-0.060 0.389-0.1 0.642-0.305 0.842-0.678 0.084-0.156 0.088-0.221 0.1-1.295 0.008-0.69-0.004-1.191-0.028-1.283-0.096-0.357-0.429-0.71-0.798-0.85-0.084-0.028-0.385-0.064-0.698-0.072l-0.553-0.024v-0.782l0.614-0.016c0.589-0.012 0.618-0.016 0.826-0.132 0.433-0.241 0.646-0.63 0.646-1.183v-0.321h4.571v3.489zM20.090 8.461v0.401h-11.669v-0.802h11.669v0.401zM21.947 9.788c0.221 0.112 0.229 0.136 0.229 1.203v0.986l-0.096 0.104c-0.052 0.056-0.14 0.116-0.192 0.128-0.048 0.012-3.517 0.016-7.703 0.012l-7.615-0.012-0.116-0.132-0.12-0.132 0.012-0.978c0.012-0.91 0.016-0.978 0.092-1.063 0.044-0.048 0.116-0.104 0.16-0.124 0.132-0.052 15.246-0.044 15.35 0.008zM26.346 14.071c1.496 0.204 2.763 0.622 3.204 1.051 0.213 0.204 0.213 0.309 0.004 0.513-0.461 0.445-1.8 0.874-3.332 1.067-1.496 0.184-3.409 0.152-4.848-0.084-1.56-0.253-2.887-0.826-2.887-1.239 0-0.417 1.359-0.99 2.947-1.247 0.906-0.144 1.412-0.172 2.867-0.156 1.171 0.008 1.532 0.028 2.045 0.096zM18.655 16.718c0.581 0.341 1.969 0.71 3.28 0.866 0.73 0.088 2.807 0.124 3.593 0.064 1.62-0.128 3.028-0.445 3.858-0.862 0.16-0.080 0.297-0.144 0.309-0.144s0.020 0.577 0.020 1.283v1.279l-0.12 0.14c-0.132 0.148-0.666 0.437-1.063 0.577-0.642 0.225-1.464 0.405-2.386 0.517-0.834 0.104-3.256 0.104-4.090 0-1.592-0.197-2.875-0.589-3.38-1.031l-0.188-0.168v-1.299c0-0.714 0.008-1.299 0.016-1.299 0.012 0 0.080 0.036 0.152 0.076zM19.372 20.752c1.796 0.626 4.636 0.834 7.114 0.521 1.119-0.144 2.274-0.445 2.911-0.758 0.16-0.080 0.297-0.144 0.305-0.144s0.012 0.589 0.012 1.311v1.307l-0.164 0.156c-0.461 0.441-1.837 0.866-3.404 1.055-0.73 0.088-2.574 0.124-3.368 0.064-1.913-0.144-3.513-0.569-4.11-1.095l-0.18-0.16v-2.639l0.233 0.116c0.128 0.064 0.421 0.184 0.654 0.265zM18.827 24.297c1.271 0.602 3.417 0.926 5.714 0.874 2.097-0.052 3.826-0.373 4.888-0.906 0.132-0.068 0.253-0.124 0.265-0.124s0.020 0.589 0.020 1.311v1.307l-0.152 0.144c-0.557 0.529-2.218 0.986-4.118 1.127-2.799 0.204-5.903-0.301-6.797-1.107l-0.16-0.144v-1.323c0-0.726 0.012-1.315 0.032-1.307 0.016 0.008 0.156 0.076 0.309 0.148z"></path>
<path d="M20.367 5.129c-0.381 0.076-0.646 0.381-0.67 0.778-0.012 0.213 0 0.281 0.1 0.469 0.309 0.585 1.167 0.589 1.492 0.008 0.116-0.213 0.124-0.569 0.024-0.786-0.092-0.197-0.361-0.417-0.537-0.449-0.080-0.012-0.172-0.028-0.204-0.036-0.032-0.004-0.124 0.004-0.204 0.016z"></path>
<path d="M7.274 5.67c-0.108 0.108-0.136 0.168-0.136 0.297 0 0.18 0.1 0.337 0.269 0.405 0.084 0.032 1.239 0.044 4.415 0.036l4.307-0.012 0.116-0.132c0.124-0.14 0.156-0.377 0.076-0.533-0.112-0.205 0.052-0.197-4.596-0.197h-4.315l-0.136 0.136z"></path>
<path d="M17.327 5.638c-0.152 0.128-0.192 0.313-0.108 0.513 0.1 0.241 0.225 0.273 1.095 0.257l0.742-0.012 0.116-0.132c0.088-0.096 0.116-0.168 0.116-0.293 0-0.393-0.112-0.437-1.079-0.437-0.758 0-0.762 0-0.882 0.104z"></path>
<path d="M7.35 15.635c-0.261 0.16-0.293 0.453-0.076 0.67l0.136 0.136h4.315c4.648 0 4.483 0.008 4.596-0.197 0.080-0.156 0.048-0.393-0.076-0.533l-0.116-0.132-4.327-0.012c-4.227-0.008-4.327-0.008-4.451 0.068z"></path>
<path d="M7.443 20.612c-0.164 0.052-0.261 0.152-0.289 0.305-0.036 0.184 0.008 0.325 0.132 0.441l0.104 0.096h8.738l0.116-0.116c0.233-0.233 0.124-0.634-0.197-0.726-0.184-0.048-8.433-0.048-8.605 0z"></path>
<path d="M20.126 10.238c-0.096 0.052-0.229 0.172-0.297 0.265-0.108 0.156-0.12 0.2-0.12 0.485s0.012 0.329 0.12 0.485c0.305 0.429 0.986 0.485 1.327 0.108 0.313-0.341 0.297-0.914-0.032-1.223-0.241-0.229-0.694-0.281-0.998-0.12z"></path>
<path d="M7.394 10.586c-0.265 0.108-0.337 0.469-0.14 0.69l0.116 0.132 4.307 0.012c2.366 0.004 4.347 0 4.395-0.012 0.353-0.088 0.397-0.646 0.060-0.818-0.104-0.052-8.605-0.060-8.738-0.004z"></path>
<path d="M17.395 10.611c-0.124 0.064-0.233 0.245-0.233 0.385 0 0.132 0.144 0.349 0.265 0.393 0.144 0.056 1.524 0.052 1.632-0.004 0.156-0.080 0.229-0.204 0.229-0.397s-0.072-0.317-0.229-0.397c-0.14-0.072-1.528-0.056-1.664 0.020z"></path>
<path d="M35.364 18.723l-0.116 0.116v6.881l-0.95-0.97c-0.922-0.938-0.958-0.974-1.107-0.97-0.233 0-0.389 0.172-0.389 0.421 0 0.188 0.008 0.197 0.453 0.658 0.249 0.257 0.83 0.858 1.295 1.335 0.461 0.477 0.89 0.89 0.954 0.914 0.237 0.088 0.313 0.024 1.652-1.367 0.702-0.726 1.291-1.359 1.311-1.412 0.092-0.249-0.128-0.549-0.405-0.549-0.14 0-0.197 0.048-1.079 0.95l-0.93 0.954-0.012-3.421-0.012-3.425-0.132-0.116c-0.176-0.16-0.373-0.16-0.533 0z"></path>
<path d="M1.183 20.451l-1.203 1.203 0.942 0.942 0.834-0.834 0.024 0.237c0.112 1.067 0.261 1.805 0.533 2.623 1.203 3.641 4.347 6.432 8.056 7.154 0.646 0.124 1.127 0.172 2.013 0.209l0.69 0.028v-1.323l-0.71-0.024c-0.393-0.012-0.922-0.052-1.175-0.088-3.557-0.489-6.532-3-7.655-6.452-0.233-0.71-0.445-1.764-0.445-2.193v-0.136l0.802 0.802 0.942-0.942-1.203-1.203c-0.662-0.662-1.211-1.203-1.223-1.203s-0.561 0.541-1.223 1.203z"></path>
</svg>
