<!-- Generated by IcoMoon.io -->
<svg version="1.1" xmlns="http://www.w3.org/2000/svg" width="32" height="32" viewBox="0 0 32 32">
<title>Server</title>
<path d="M20.267 2.695c0 0.589-0.478 1.067-1.067 1.067s-1.067-0.478-1.067-1.067c0-0.589 0.478-1.067 1.067-1.067s1.067 0.478 1.067 1.067z"></path>
<path d="M13.333 2.162h-10.667c-0.295 0-0.533 0.239-0.533 0.533s0.239 0.533 0.533 0.533h10.667c0.295 0 0.533-0.239 0.533-0.533s-0.239-0.533-0.533-0.533z"></path>
<path d="M17.067 2.162h-1.6c-0.295 0-0.533 0.239-0.533 0.533s0.239 0.533 0.533 0.533h1.6c0.295 0 0.533-0.239 0.533-0.533s-0.239-0.533-0.533-0.533z"></path>
<path d="M20.267 9.095c0 0.589-0.478 1.067-1.067 1.067s-1.067-0.478-1.067-1.067c0-0.589 0.478-1.067 1.067-1.067s1.067 0.478 1.067 1.067z"></path>
<path d="M13.333 8.562h-10.667c-0.295 0-0.533 0.239-0.533 0.533s0.239 0.533 0.533 0.533h10.667c0.295 0 0.533-0.239 0.533-0.533s-0.239-0.533-0.533-0.533z"></path>
<path d="M17.067 8.562h-1.6c-0.295 0-0.533 0.239-0.533 0.533s0.239 0.533 0.533 0.533h1.6c0.295 0 0.533-0.239 0.533-0.533s-0.239-0.533-0.533-0.533z"></path>
<path d="M13.333 14.962h-10.667c-0.295 0-0.533 0.239-0.533 0.533s0.239 0.533 0.533 0.533h10.667c0.295 0 0.533-0.239 0.533-0.533s-0.239-0.533-0.533-0.533z"></path>
<path d="M13.333 21.362h-10.667c-0.295 0-0.533 0.239-0.533 0.533s0.239 0.533 0.533 0.533h10.667c0.295 0 0.533-0.239 0.533-0.533s-0.239-0.533-0.533-0.533z"></path>
<path d="M32 14.695c0-0.978-1.074-1.717-2.667-2.21v-9.79c0-0.295-0.239-0.533-0.533-0.533h-6.4v-0.533c0-0.884-0.716-1.6-1.6-1.6h-19.2c-0.884 0-1.6 0.716-1.6 1.6v2.133c0 0.884 0.716 1.6 1.6 1.6h1.067v1.067h-1.067c-0.884 0-1.6 0.716-1.6 1.6v2.133c0 0.884 0.716 1.6 1.6 1.6h1.067v1.067h-1.067c-0.884 0-1.6 0.716-1.6 1.6v2.133c0 0.884 0.716 1.6 1.6 1.6h1.067v1.067h-1.067c-0.884 0-1.6 0.716-1.6 1.6v2.133c0 0.884 0.716 1.6 1.6 1.6h1.067v3.2c0 0.295 0.239 0.533 0.533 0.533h12.267v0.781c0 1.901 4.16 2.895 8.267 2.895s8.267-0.995 8.267-2.895v-4.514h-0.039c0.024-0.093 0.037-0.189 0.039-0.286v-4.514h-0.039c0.024-0.093 0.037-0.189 0.039-0.286v-4.514h-0.036c0.021-0.087 0.033-0.177 0.036-0.267zM1.6 4.295c-0.295 0-0.533-0.239-0.533-0.533v-2.133c0-0.295 0.239-0.533 0.533-0.533h19.2c0.295 0 0.533 0.239 0.533 0.533v2.133c0 0.295-0.239 0.533-0.533 0.533h-19.2zM18.667 5.362v1.067h-14.933v-1.067h14.933zM1.6 10.695c-0.295 0-0.533-0.239-0.533-0.533v-2.133c0-0.295 0.239-0.533 0.533-0.533h19.2c0.295 0 0.533 0.239 0.533 0.533v2.133c0 0.295-0.239 0.533-0.533 0.533h-19.2zM15.467 14.695c0.003 0.090 0.015 0.179 0.036 0.267h-0.036v4.514c0.002 0.096 0.015 0.192 0.039 0.286h-0.039v4.514c0.002 0.096 0.015 0.192 0.039 0.286h-0.039v2.667h-11.733v-2.667h10.133c0.295 0 0.533-0.239 0.533-0.533s-0.239-0.533-0.533-0.533h-12.267c-0.295 0-0.533-0.239-0.533-0.533v-2.133c0-0.295 0.239-0.533 0.533-0.533h12.267c0.295 0 0.533-0.239 0.533-0.533s-0.239-0.533-0.533-0.533h-10.133v-1.067h10.133c0.295 0 0.533-0.239 0.533-0.533s-0.239-0.533-0.533-0.533h-12.267c-0.295 0-0.533-0.239-0.533-0.533v-2.133c0-0.295 0.239-0.533 0.533-0.533h12.267c0.295 0 0.533-0.239 0.533-0.533s-0.239-0.533-0.533-0.533h-10.133v-1.067h17.067c0.884 0 1.6-0.716 1.6-1.6v-2.133c0-0.884-0.716-1.6-1.6-1.6h-1.067v-1.067h1.067c0.884 0 1.6-0.716 1.6-1.6v-0.533h5.867v8.98c-1.492-0.306-3.011-0.455-4.533-0.446-4.107 0-8.267 1.008-8.267 2.933zM30.933 29.076c0 0.621-2.541 1.829-7.2 1.829s-7.2-1.208-7.2-1.829v-3.302c1.498 0.922 4.36 1.398 7.2 1.398s5.702-0.476 7.2-1.398v3.302zM30.933 24.276c0 0.621-2.541 1.829-7.2 1.829s-7.2-1.208-7.2-1.829v-3.302c1.498 0.922 4.36 1.398 7.2 1.398s5.702-0.476 7.2-1.398v3.302zM30.933 19.476c0 0.621-2.541 1.829-7.2 1.829s-7.2-1.208-7.2-1.829v-3.263c1.498 0.936 4.36 1.416 7.2 1.416s5.702-0.48 7.2-1.416v3.263zM23.733 16.562c-4.659 0-7.2-1.233-7.2-1.867s2.541-1.867 7.2-1.867 7.2 1.234 7.2 1.867c0 0.634-2.541 1.867-7.2 1.867z"></path>
</svg>
