<!-- Generated by IcoMoon.io -->
<svg version="1.1" xmlns="http://www.w3.org/2000/svg" width="32" height="32" viewBox="0 0 32 32">
<title>shapes</title>
<path d="M9.749 19.373c-1.32-1.514-1.506-3.889-2.405-5.031-0.755-0.959-1.952-0.494-2.095 0.344-0.221 1.298 1.172 5.123 1.875 6.349 0.175 0.305-0.139 0.87-0.681 0.384s-2.696-5.435-1.857-8.701c0.411-1.599-0.649-3.271-2.006-2.426s-2.147 7.882-0.131 12c1.701 3.475 5.291 5.773 5.914 6.166 0.424 0.267 0.596 1.816 0.662 2.78 0.031 0.454 0.156 0.763 0.659 0.762 0.554-0.001 1.68 0.001 3.242 0.001 0.815 0 0.843-0.489 0.843-0.723-0.006-6.14 0.326-6.919-4.020-11.904z"></path>
<path d="M22.251 19.373c1.32-1.514 1.506-3.889 2.405-5.031 0.755-0.959 1.952-0.494 2.095 0.344 0.221 1.298-1.172 5.123-1.875 6.349-0.175 0.305 0.139 0.87 0.68 0.384s2.696-5.435 1.857-8.701c-0.411-1.599 0.649-3.271 2.006-2.426s2.147 7.882 0.131 12c-1.701 3.475-5.291 5.773-5.914 6.166-0.424 0.267-0.596 1.816-0.663 2.78-0.031 0.454-0.156 0.763-0.659 0.762-0.554-0.001-1.68 0.001-3.242 0.001-0.815 0-0.843-0.489-0.843-0.723 0.006-6.14-0.325-6.919 4.020-11.904z"></path>
<path d="M20.23 0c-1.67 0-3.184 0.666-4.293 1.747-1.109-1.080-2.622-1.747-4.293-1.747-3.399 0-6.154 2.755-6.154 6.154 0 1.319 0.417 2.541 1.123 3.543 0.282 0.44 0.62 0.841 1.005 1.191l6.384 6.394c0.639 0.64 1.279 1.279 1.918 1.279 0.005 0 0.011-0.001 0.016-0.001s0.011 0.001 0.016 0.001c0.639 0 1.279-0.639 1.918-1.279l6.384-6.394c0.385-0.35 0.724-0.751 1.005-1.191 0.707-1.002 1.123-2.223 1.123-3.543 0-3.399-2.755-6.154-6.154-6.154z"></path>
</svg>
