<!-- Generated by IcoMoon.io -->
<svg version="1.1" xmlns="http://www.w3.org/2000/svg" width="32" height="32" viewBox="0 0 32 32">
<title>shapes-1</title>
<path d="M8.634 15.719c1.169-0.539 2.288-0.809 3.355-0.809h14.17v-2.725c0-1.045-0.375-1.942-1.124-2.691s-1.646-1.124-2.691-1.124h-9.265v-0.545c0-1.045-0.375-1.942-1.124-2.691s-1.646-1.124-2.691-1.124h-5.45c-1.045 0-1.942 0.375-2.691 1.124s-1.124 1.646-1.124 2.691v16.349c0 0.046 0.003 0.117 0.009 0.213s0.009 0.167 0.009 0.213l0.085-0.102 5.739-6.745c0.693-0.818 1.624-1.496 2.793-2.035z"></path>
<path d="M31.549 17.311c-0.301-0.148-0.644-0.222-1.030-0.222h-18.529c-0.749 0-1.564 0.202-2.444 0.605s-1.564 0.894-2.052 1.473l-5.722 6.744c-0.352 0.397-0.528 0.772-0.528 1.124 0 0.34 0.151 0.585 0.451 0.732s0.644 0.222 1.030 0.222h18.53c0.749 0 1.563-0.202 2.443-0.605s1.564-0.894 2.052-1.473l5.722-6.744c0.352-0.397 0.528-0.772 0.528-1.124 0-0.34-0.15-0.584-0.451-0.732z"></path>
</svg>
