<!-- Generated by IcoMoon.io -->
<svg version="1.1" xmlns="http://www.w3.org/2000/svg" width="32" height="32" viewBox="0 0 32 32">
<title>sharethis-logo</title>
<path d="M11.294 16c0 0.11-0.025 0.212-0.031 0.322l11.466 5.731c0.982-0.831 2.238-1.35 3.625-1.35 3.119 0.001 5.647 2.528 5.647 5.647 0 3.122-2.528 5.65-5.647 5.65-3.122 0-5.647-2.528-5.647-5.65 0-0.113 0.025-0.213 0.031-0.322l-11.466-5.731c-0.985 0.828-2.238 1.347-3.625 1.347-3.119 0-5.647-2.525-5.647-5.644 0-3.122 2.528-5.65 5.647-5.65 1.387 0 2.641 0.522 3.625 1.35l11.466-5.731c-0.006-0.11-0.031-0.213-0.031-0.325 0-3.116 2.525-5.644 5.647-5.644 3.119 0 5.647 2.528 5.647 5.644 0 3.122-2.528 5.65-5.647 5.65-1.391 0-2.644-0.522-3.625-1.353l-11.466 5.734c0.006 0.11 0.031 0.213 0.031 0.325z"></path>
</svg>
