<!-- Generated by IcoMoon.io -->
<svg version="1.1" xmlns="http://www.w3.org/2000/svg" width="32" height="32" viewBox="0 0 32 32">
<title>social</title>
<path d="M9.411 18.718h-5.148l6.89-5.512h-7.511c-0.329 0-0.598-0.266-0.598-0.595s0.267-0.596 0.598-0.596h9.002l1.545-1.237h-10.547c-0.329 0-0.598-0.266-0.598-0.595s0.267-0.596 0.598-0.596h12.038l3.749-2.999v-0.895c0-1.336-1.093-2.429-2.429-2.429h-14.573c-1.336 0-2.429 1.093-2.429 2.429v18.216c0 1.336 1.093 2.429 2.429 2.429h6.983c-0 0-0-7.618-0-7.618zM3.643 7.158h12.144c0.329 0 0.598 0.267 0.598 0.596s-0.267 0.595-0.598 0.595h-12.144c-0.329 0-0.598-0.266-0.598-0.595s0.268-0.596 0.598-0.596z"></path>
<path d="M27.272 14.027v-5.059h-2.732v2.872l-5.111-4.086-12.57 10.054h3.462v10.929h18.216v-10.929h3.464l-4.728-3.78zM27.266 27.466h-4.598v-8.444h-6.476v8.444h-4.599v-10.26l7.839-6.27 7.836 6.27-0.002 10.26z"></path>
<path d="M17.607 17.23h3.643v0.961h-3.643v-0.961z"></path>
</svg>
