<!-- Generated by IcoMoon.io -->
<svg version="1.1" xmlns="http://www.w3.org/2000/svg" width="33" height="32" viewBox="0 0 33 32">
<title>ssa</title>
<path d="M2.189 0.039c-0.269 0.039-0.814 0.258-1.039 0.41-0.578 0.399-0.982 1.022-1.089 1.69-0.079 0.46-0.079 6.692-0.006 7.147 0.028 0.18 0.129 0.488 0.219 0.685l0.168 0.359h32.55l0.14-0.298c0.079-0.157 0.174-0.393 0.208-0.517 0.039-0.152 0.062-1.375 0.062-3.795 0-3.402-0.006-3.593-0.112-3.935-0.264-0.859-0.954-1.488-1.864-1.701-0.309-0.073-2.223-0.084-14.726-0.073-7.905 0-14.434 0.017-14.512 0.028zM6.484 3.397c0.949 0.247 1.656 1.011 1.836 1.976 0.281 1.505-1.235 2.981-2.79 2.723-0.831-0.135-1.516-0.64-1.886-1.387-0.18-0.371-0.191-0.421-0.191-0.982 0-0.545 0.011-0.618 0.18-0.971 0.505-1.067 1.729-1.651 2.852-1.359zM19.312 4.575c0.303 0.303 0.067 0.837-0.371 0.837-0.163 0-0.241-0.039-0.365-0.18-0.191-0.213-0.208-0.393-0.045-0.595 0.23-0.292 0.522-0.309 0.78-0.062zM21.389 4.463c0.399 0.208 0.382 0.73-0.034 0.904-0.163 0.067-0.219 0.067-0.382 0-0.41-0.168-0.432-0.691-0.045-0.898 0.197-0.107 0.258-0.107 0.46-0.006zM23.764 4.609c0.197 0.213 0.191 0.393-0.011 0.623-0.129 0.146-0.202 0.18-0.371 0.174-0.561-0.017-0.685-0.758-0.168-0.977 0.174-0.073 0.376-0.006 0.55 0.18zM25.858 4.486c0.365 0.225 0.331 0.713-0.056 0.876-0.449 0.191-0.876-0.281-0.646-0.707 0.056-0.107 0.337-0.269 0.472-0.275 0.034 0 0.135 0.051 0.23 0.107zM28.003 4.441c0.466 0.163 0.449 0.769-0.022 0.954-0.163 0.056-0.449-0.039-0.578-0.197-0.185-0.225-0.051-0.646 0.247-0.769 0.152-0.062 0.157-0.062 0.354 0.011zM20.385 6.153c0.286 0.258 0.197 0.724-0.168 0.842-0.241 0.079-0.354 0.051-0.539-0.129-0.152-0.152-0.185-0.393-0.084-0.578 0.14-0.264 0.567-0.337 0.792-0.135zM22.552 6.119c0.533 0.326 0.090 1.106-0.488 0.865-0.331-0.14-0.404-0.584-0.135-0.814 0.219-0.185 0.382-0.202 0.623-0.051zM24.853 6.187c0.342 0.32 0.095 0.859-0.393 0.842-0.202-0.006-0.488-0.275-0.488-0.46 0-0.191 0.123-0.382 0.303-0.472 0.202-0.107 0.404-0.073 0.578 0.090zM26.947 6.091c0.399 0.208 0.382 0.73-0.034 0.904-0.163 0.067-0.219 0.067-0.382 0-0.41-0.168-0.432-0.691-0.045-0.898 0.197-0.107 0.258-0.107 0.46-0.006zM29.165 6.091c0.331 0.157 0.399 0.488 0.157 0.758-0.281 0.314-0.764 0.191-0.881-0.219-0.039-0.146-0.028-0.208 0.062-0.331 0.107-0.14 0.32-0.292 0.427-0.292 0.028 0 0.135 0.039 0.236 0.084z"></path>
<path d="M0.275 11.756c-0.090 0.197-0.191 0.505-0.219 0.685-0.079 0.455-0.073 6.686 0.006 7.152 0.028 0.197 0.135 0.511 0.236 0.702l0.18 0.337 32.472 0.028 0.14-0.236c0.314-0.55 0.314-0.545 0.314-4.435 0-3.481-0.006-3.593-0.118-3.93-0.062-0.191-0.168-0.421-0.225-0.505l-0.112-0.157h-32.505l-0.168 0.359zM6.321 13.648c1.297 0.236 2.218 1.505 1.993 2.728-0.174 0.954-0.881 1.701-1.83 1.954-1.123 0.292-2.302-0.253-2.818-1.308-0.208-0.41-0.213-0.449-0.213-1.022 0-0.561 0.011-0.612 0.191-0.982 0.404-0.82 1.28-1.392 2.173-1.426 0.095-0.006 0.32 0.022 0.505 0.056zM19.279 14.832c0.219 0.197 0.241 0.438 0.067 0.646s-0.387 0.269-0.606 0.18c-0.174-0.073-0.326-0.303-0.326-0.5 0-0.067 0.073-0.197 0.163-0.286 0.208-0.208 0.494-0.219 0.702-0.039zM21.53 14.849c0.185 0.18 0.185 0.472 0.006 0.685-0.107 0.123-0.18 0.157-0.371 0.157-0.298 0-0.505-0.213-0.505-0.511 0-0.432 0.561-0.646 0.87-0.331zM23.77 14.883c0.225 0.264 0.168 0.567-0.14 0.747-0.219 0.129-0.455 0.073-0.646-0.152-0.174-0.208-0.152-0.449 0.067-0.646 0.219-0.191 0.533-0.168 0.719 0.051zM25.892 14.771c0.157 0.084 0.281 0.404 0.219 0.567-0.118 0.303-0.449 0.444-0.73 0.303-0.32-0.168-0.387-0.533-0.14-0.786 0.163-0.157 0.444-0.197 0.651-0.084zM28.205 14.883c0.236 0.281 0.18 0.589-0.14 0.758-0.421 0.213-0.909-0.236-0.702-0.646 0.112-0.213 0.23-0.281 0.494-0.286 0.157 0 0.236 0.039 0.348 0.174zM20.244 16.365c0.135 0.056 0.219 0.14 0.281 0.281 0.079 0.191 0.073 0.219-0.022 0.382-0.197 0.348-0.556 0.399-0.831 0.123-0.152-0.152-0.18-0.444-0.056-0.601 0.056-0.079 0.348-0.269 0.415-0.269 0.006 0 0.101 0.039 0.213 0.084zM22.619 16.455c0.253 0.236 0.219 0.606-0.067 0.786-0.427 0.264-0.932-0.14-0.741-0.601 0.135-0.331 0.55-0.427 0.808-0.185zM24.904 16.511c0.213 0.236 0.079 0.662-0.253 0.786-0.298 0.118-0.679-0.168-0.679-0.505 0-0.152 0.258-0.444 0.41-0.466 0.174-0.028 0.404 0.056 0.522 0.185zM26.919 16.359c0.213 0.090 0.309 0.236 0.309 0.466 0 0.342-0.365 0.595-0.674 0.466-0.438-0.18-0.46-0.747-0.039-0.926 0.225-0.101 0.18-0.095 0.404-0.006zM29.333 16.517c0.185 0.219 0.18 0.393-0.022 0.618-0.23 0.258-0.517 0.253-0.747-0.006-0.135-0.152-0.163-0.219-0.135-0.359 0.045-0.213 0.129-0.32 0.331-0.404 0.225-0.095 0.41-0.045 0.573 0.152z"></path>
<path d="M0.281 22.024c-0.095 0.191-0.197 0.517-0.23 0.719-0.034 0.225-0.051 1.662-0.039 3.784 0.022 3.846 0.006 3.688 0.449 4.351 0.264 0.399 0.73 0.769 1.213 0.966l0.32 0.129 14.512 0.017c10.683 0.011 14.602 0 14.849-0.051 0.78-0.146 1.448-0.657 1.808-1.387l0.213-0.427v-7.641l-0.393-0.786-32.528-0.028-0.174 0.354zM6.54 23.983c0.393 0.095 0.865 0.387 1.162 0.713 0.876 0.96 0.859 2.319-0.051 3.245-0.808 0.831-2.128 0.982-3.093 0.359-1.886-1.229-1.291-3.98 0.943-4.385 0.275-0.051 0.685-0.022 1.039 0.067zM19.284 25.117c0.185 0.185 0.225 0.376 0.118 0.584-0.23 0.444-0.887 0.331-0.971-0.168-0.028-0.18-0.006-0.23 0.14-0.382 0.219-0.219 0.517-0.23 0.713-0.034zM21.524 25.128c0.208 0.208 0.197 0.483-0.017 0.702-0.112 0.112-0.219 0.163-0.342 0.163-0.253 0-0.505-0.264-0.505-0.522 0-0.438 0.55-0.657 0.865-0.342zM23.753 25.145c0.18 0.185 0.202 0.326 0.084 0.561-0.079 0.152-0.298 0.286-0.46 0.286-0.168 0-0.399-0.168-0.472-0.337-0.056-0.135-0.056-0.202 0-0.337 0.152-0.371 0.567-0.455 0.848-0.174zM25.909 25.072c0.168 0.112 0.264 0.376 0.197 0.55-0.067 0.191-0.326 0.371-0.517 0.371-0.23 0-0.494-0.269-0.494-0.505 0-0.387 0.483-0.634 0.814-0.415zM28.188 25.145c0.202 0.202 0.213 0.444 0.039 0.651-0.185 0.208-0.477 0.241-0.679 0.084-0.225-0.18-0.281-0.354-0.185-0.584 0.152-0.359 0.545-0.427 0.825-0.152zM20.334 26.672c0.062 0.034 0.146 0.146 0.191 0.247 0.095 0.236 0.039 0.41-0.185 0.589-0.303 0.236-0.803-0.006-0.803-0.393 0-0.247 0.247-0.505 0.488-0.505 0.107 0 0.241 0.028 0.309 0.062zM22.63 26.773c0.258 0.258 0.208 0.595-0.118 0.764-0.219 0.112-0.348 0.107-0.528-0.034-0.219-0.174-0.275-0.354-0.18-0.578 0.152-0.359 0.545-0.427 0.825-0.152zM24.837 26.734c0.084 0.073 0.163 0.213 0.18 0.309 0.034 0.157 0.006 0.213-0.163 0.382-0.107 0.107-0.247 0.197-0.314 0.197-0.292 0-0.567-0.269-0.567-0.561 0-0.067 0.073-0.197 0.163-0.286 0.208-0.208 0.494-0.219 0.702-0.039zM27.082 26.756c0.292 0.298 0.118 0.775-0.314 0.848-0.18 0.028-0.23 0.006-0.382-0.14-0.123-0.123-0.168-0.225-0.168-0.365 0-0.438 0.55-0.657 0.865-0.342zM29.311 26.773c0.18 0.185 0.202 0.326 0.084 0.561-0.079 0.152-0.298 0.286-0.46 0.286s-0.399-0.163-0.466-0.326c-0.213-0.517 0.444-0.921 0.842-0.522z"></path>
</svg>
