<!-- Generated by IcoMoon.io -->
<svg version="1.1" xmlns="http://www.w3.org/2000/svg" width="27" height="32" viewBox="0 0 27 32">
<title>Subcontractors</title>
<path d="M2.944 0.066c-0.362 0.093-0.896 0.38-1.192 0.64-0.313 0.282-0.627 0.755-0.772 1.161-0.15 0.415-0.185 1.178-0.079 1.638 0.216 0.918 0.967 1.726 1.88 2.017 0.402 0.132 1.161 0.163 1.545 0.066 1.174-0.291 2.004-1.223 2.163-2.414 0.177-1.315-0.6-2.578-1.863-3.032-0.274-0.097-0.41-0.115-0.874-0.128-0.375-0.004-0.636 0.009-0.808 0.053z"></path>
<path d="M20.171 0.066c-0.508 0.137-0.883 0.362-1.28 0.768-0.424 0.428-0.609 0.75-0.75 1.311-0.384 1.492 0.578 3.085 2.074 3.434 0.159 0.040 0.468 0.071 0.684 0.071 0.812 0 1.421-0.252 1.991-0.817 0.388-0.388 0.574-0.675 0.733-1.148 0.084-0.26 0.102-0.397 0.102-0.883-0.004-0.508-0.018-0.614-0.119-0.896-0.3-0.839-0.909-1.452-1.748-1.766-0.247-0.093-0.388-0.115-0.87-0.124-0.41-0.013-0.64 0-0.817 0.049z"></path>
<path d="M1.479 6.638c-0.746 0.185-1.32 0.817-1.439 1.571-0.026 0.185-0.035 4.246-0.031 11.454l0.013 11.167 0.097 0.207c0.11 0.238 0.406 0.578 0.631 0.719 0.446 0.282 1.134 0.322 1.593 0.097 0.38-0.185 0.591-0.393 0.777-0.772l0.168-0.335 0.026-6.201c0.013-3.416 0.026-6.21 0.031-6.219 0.004-0.004 0.159-0.009 0.34-0.009h0.331l0.009 6.254 0.013 6.259 0.097 0.212c0.146 0.309 0.499 0.658 0.821 0.808 0.243 0.115 0.322 0.128 0.715 0.128s0.468-0.013 0.684-0.119c0.388-0.19 0.596-0.397 0.781-0.777l0.168-0.335-0.004-7.759c0-4.268-0.018-7.773-0.031-7.79-0.018-0.013-0.591-0.093-1.28-0.177-1.148-0.132-1.267-0.154-1.523-0.282-0.203-0.097-0.322-0.194-0.415-0.327-0.075-0.106-0.521-0.914-0.993-1.796s-0.936-1.748-1.028-1.924c-0.097-0.172-0.159-0.318-0.146-0.318 0.018 0 0.719 0.684 1.558 1.518 1.271 1.271 1.562 1.54 1.766 1.633 0.212 0.097 0.538 0.146 2.737 0.402 1.602 0.19 2.591 0.287 2.759 0.274 0.914-0.071 1.492-1.064 1.126-1.92-0.132-0.309-0.499-0.644-0.808-0.737-0.128-0.040-1.209-0.185-2.406-0.327l-2.176-0.252-2.622-2.622 2.441 1.276 1.024 0.124v-0.755c0-0.499-0.022-0.834-0.062-0.98-0.177-0.662-0.706-1.187-1.373-1.359-0.216-0.057-0.583-0.071-2.207-0.066-1.386 0-2.004 0.018-2.163 0.057z"></path>
<path d="M18.737 6.638c-0.521 0.128-1.024 0.534-1.271 1.037-0.128 0.265-0.141 0.331-0.159 0.786l-0.013 0.499-1.907 1.086c-1.046 0.6-2.035 1.165-2.198 1.262l-0.3 0.172 0.11 0.221c0.243 0.472 0.327 1.187 0.203 1.717-0.106 0.455-0.38 0.949-0.715 1.289-0.168 0.172-0.305 0.318-0.305 0.331 0 0.031 0.388-0.185 2.719-1.514 1.298-0.737 2.361-1.342 2.37-1.342 0.004 0 0.004 1.796-0.004 3.994l-0.009 3.994 0.207-0.132c0.26-0.168 0.556-0.256 0.949-0.296l0.3-0.026v-0.446c0-0.503 0.079-0.945 0.221-1.218 0.128-0.247 0.455-0.596 0.693-0.737 0.106-0.062 0.19-0.124 0.19-0.137s0.137-0.887 0.309-1.938l0.309-1.916-0.154-1.704c-0.079-0.94-0.146-1.713-0.141-1.717 0.022-0.022 1.404 3.942 1.399 4.021 0 0.049-0.15 1.011-0.331 2.136-0.181 1.13-0.331 2.066-0.331 2.088 0 0.018-0.115 0.035-0.26 0.035-0.282 0-0.472 0.097-0.64 0.322-0.088 0.119-0.093 0.19-0.106 1.249l-0.013 1.121h-0.772c-0.552 0-0.812 0.018-0.914 0.062-0.185 0.075-0.366 0.291-0.428 0.503-0.062 0.23-0.062 4.851 0.004 5.102 0.026 0.106 0.097 0.243 0.159 0.313 0.238 0.252 0.071 0.243 4.348 0.243h3.942l0.177-0.102c0.115-0.062 0.212-0.163 0.278-0.296l0.097-0.194v-5.045l-0.102-0.19c-0.071-0.132-0.163-0.225-0.296-0.296-0.177-0.097-0.243-0.102-0.98-0.102h-0.786v-1.095c0-1.046-0.004-1.099-0.102-1.262-0.119-0.207-0.34-0.335-0.591-0.335-0.141 0-0.19-0.018-0.19-0.066 0-0.040 0.15-0.993 0.331-2.127 0.181-1.13 0.331-2.163 0.331-2.295 0-0.216-0.424-1.474-1.527-4.537-0.035-0.097-0.049-0.154-0.022-0.132 0.022 0.026 0.415 0.6 0.87 1.28l0.834 1.236 0.013-0.397c0.009-0.221 0.009-1.015 0-1.766l-0.013-1.368-0.141-0.3c-0.168-0.349-0.503-0.719-0.799-0.883-0.441-0.243-0.565-0.252-2.679-0.247-1.364 0-2.008 0.018-2.163 0.057zM22.201 20.017c0.287 0 0.375-0.022 0.627-0.146 0.159-0.075 0.3-0.141 0.318-0.141 0.013 0 0.026 0.256 0.026 0.574v0.574h-1.854v-1.134l0.274 0.137c0.234 0.115 0.322 0.137 0.609 0.137z"></path>
<path d="M17.267 29.294l0.013 1.492 0.141 0.291c0.172 0.349 0.45 0.618 0.799 0.781 0.221 0.106 0.309 0.119 0.693 0.119 0.41 0 0.463-0.009 0.737-0.146 0.344-0.168 0.609-0.441 0.781-0.803 0.115-0.243 0.115-0.252 0.128-1.51l0.013-1.262-1.249-0.018c-1.156-0.013-1.267-0.022-1.487-0.11-0.128-0.053-0.313-0.15-0.41-0.212l-0.172-0.115 0.013 1.492z"></path>
<path d="M21.283 29.519l0.013 1.271 0.141 0.287c0.172 0.349 0.45 0.618 0.799 0.781 0.221 0.106 0.309 0.119 0.693 0.119 0.41 0 0.463-0.009 0.733-0.141 0.349-0.172 0.618-0.45 0.781-0.799 0.119-0.252 0.119-0.252 0.132-1.523l0.013-1.267h-3.319l0.013 1.271z"></path>
</svg>
