<!-- Generated by IcoMoon.io -->
<svg version="1.1" xmlns="http://www.w3.org/2000/svg" width="32" height="32" viewBox="0 0 32 32">
<title>symbol</title>
<path d="M24.772 19.925c-1.866 0-3.536 0.851-4.645 2.185l-7.21-4.093c0.224-0.631 0.347-1.309 0.347-2.016s-0.123-1.385-0.347-2.016l7.209-4.095c1.108 1.335 2.779 2.186 4.645 2.186 3.329 0 6.036-2.709 6.036-6.039s-2.708-6.037-6.036-6.037c-3.329 0-6.037 2.708-6.037 6.037 0 0.707 0.123 1.386 0.347 2.017l-7.21 4.095c-1.108-1.334-2.779-2.185-4.644-2.185-3.329 0-6.038 2.708-6.038 6.037s2.709 6.037 6.038 6.037c1.865 0 3.536-0.851 4.644-2.185l7.21 4.094c-0.224 0.631-0.348 1.31-0.348 2.017 0 3.329 2.708 6.037 6.037 6.037s6.036-2.708 6.036-6.037c0-3.329-2.708-6.038-6.036-6.038zM24.772 2.113c2.164 0 3.924 1.76 3.924 3.924 0 2.165-1.76 3.926-3.924 3.926s-3.925-1.761-3.925-3.926c0-2.164 1.761-3.924 3.925-3.924zM7.229 19.925c-2.164 0-3.925-1.761-3.925-3.924s1.761-3.925 3.925-3.925c2.164 0 3.924 1.76 3.924 3.925s-1.76 3.924-3.924 3.924zM24.772 29.887c-2.164 0-3.925-1.761-3.925-3.924s1.761-3.926 3.925-3.926c2.164 0 3.924 1.761 3.924 3.926s-1.76 3.924-3.924 3.924z"></path>
</svg>
