<!-- Generated by IcoMoon.io -->
<svg version="1.1" xmlns="http://www.w3.org/2000/svg" width="32" height="32" viewBox="0 0 32 32">
<title>technology</title>
<path d="M29.385 0.941h-26.771c-1.442 0-2.615 1.173-2.615 2.615v18.168c0 1.441 1.173 2.615 2.615 2.615h8.975v3.505h-1.416c-0.888 0-1.608 0.72-1.608 1.608s0.72 1.608 1.608 1.608h11.656c0.888 0 1.608-0.72 1.608-1.608s-0.72-1.608-1.608-1.608h-1.416v-3.505h8.973c1.442 0 2.615-1.173 2.615-2.615v-18.168c0-1.441-1.173-2.615-2.615-2.615zM25.567 22.731c-0.403 0-0.728-0.326-0.728-0.727 0-0.403 0.326-0.728 0.728-0.728 0.402 0 0.727 0.326 0.727 0.728 0 0.402-0.325 0.727-0.727 0.727zM28.782 22.905c-0.499 0-0.903-0.404-0.903-0.902 0-0.499 0.404-0.903 0.903-0.903 0.498 0 0.902 0.404 0.902 0.903 0 0.498-0.404 0.902-0.902 0.902zM29.856 20.188h-27.713v-16.633c0-0.26 0.211-0.471 0.471-0.471h26.771c0.26 0 0.471 0.211 0.471 0.471v16.633z"></path>
<path d="M17.195 11.896l1.179-0.714c0.1-0.061 0.156-0.174 0.144-0.29-0.012-0.117-0.090-0.216-0.201-0.254l-5.411-1.884c-0.109-0.038-0.231-0.010-0.313 0.072s-0.11 0.203-0.072 0.313l1.884 5.41c0.038 0.111 0.137 0.189 0.254 0.202s0.229-0.044 0.29-0.144l0.713-1.178 2.214 2.214c0.057 0.056 0.133 0.088 0.214 0.088s0.157-0.031 0.213-0.088l1.106-1.107c0.118-0.118 0.118-0.309 0-0.427l-2.213-2.213z"></path>
</svg>
