<!-- Generated by IcoMoon.io -->
<svg version="1.1" xmlns="http://www.w3.org/2000/svg" width="32" height="32" viewBox="0 0 32 32">
<title>terrorist-man-silhouette-with-bonnet-mask</title>
<path d="M27.352 22.962v6.913l-0.048-0.001-0.446 0.225c-0.224 0.113-3.855 1.901-10.123 1.901-1.656 0-3.5-0.128-5.512-0.442l-1.826-0.334c-1.353-0.276-2.769-0.629-4.254-1.093l-0.477-0.15-0.018-0.107v-6.913c0-3.949 2.703-7.27 6.354-8.235 1.311 1.224 3.065 1.98 4.997 1.98s3.685-0.756 4.997-1.98c2.838 0.75 5.098 2.928 5.965 5.715l0.355 1.769c0.022 0.247 0.034 0.499 0.034 0.751zM8.275 7.725c0-4.266 3.458-7.725 7.725-7.725s7.725 3.458 7.725 7.725-3.459 7.725-7.725 7.725c-4.267 0-7.725-3.458-7.725-7.725zM18.69 12.106c0-0.854-1.205-1.547-2.69-1.547-1.486 0-2.69 0.692-2.69 1.547s1.204 1.546 2.69 1.546c1.485 0 2.69-0.692 2.69-1.546zM13.281 9.171c1.088 0 2.061-0.352 2.719-0.905 0.658 0.553 1.63 0.905 2.718 0.905 1.981 0 3.587-1.162 3.587-2.594s-1.606-2.595-3.587-2.595c-1.088 0-2.061 0.352-2.718 0.905-0.658-0.554-1.631-0.905-2.719-0.905-1.981 0-3.587 1.162-3.587 2.595s1.606 2.594 3.587 2.594z"></path>
</svg>
