<!-- Generated by IcoMoon.io -->
<svg version="1.1" xmlns="http://www.w3.org/2000/svg" width="32" height="32" viewBox="0 0 32 32">
<title>Timeline</title>
<path d="M6.893 3.998c0-0.259-0.21-0.469-0.469-0.469h-3.034c-0.259 0-0.469 0.21-0.469 0.469s0.21 0.469 0.469 0.469h3.033c0.259 0 0.469-0.21 0.469-0.469z"></path>
<path d="M3.998 5.349c-0.259 0-0.469 0.21-0.469 0.469s0.21 0.469 0.469 0.469h1.82c0.259 0 0.469-0.21 0.469-0.469s-0.21-0.469-0.469-0.469h-1.82z"></path>
<path d="M31.531 29.849h-2.824c-0.16-0.551-0.595-0.986-1.146-1.146v-18.91c2.487-0.237 4.439-2.337 4.439-4.885 0-0.947-0.27-1.867-0.782-2.659-0.14-0.217-0.431-0.28-0.648-0.139s-0.28 0.431-0.14 0.648c0.413 0.64 0.632 1.384 0.632 2.15 0 2.189-1.781 3.97-3.97 3.97s-3.97-1.781-3.97-3.97c0-2.189 1.781-3.97 3.97-3.97 0.866 0 1.689 0.274 2.379 0.791 0.207 0.155 0.501 0.113 0.656-0.094s0.113-0.501-0.094-0.656c-0.854-0.64-1.871-0.979-2.941-0.979-2.706 0-4.908 2.202-4.908 4.908 0 2.548 1.952 4.648 4.439 4.885v18.91c-0.551 0.16-0.986 0.595-1.146 1.146h-7.862c-0.16-0.551-0.595-0.986-1.146-1.146v-9.81c2.487-0.237 4.439-2.337 4.439-4.885 0-1.174-0.421-2.31-1.186-3.199-0.757-0.879-1.801-1.464-2.941-1.646-0.256-0.041-0.496 0.133-0.537 0.389s0.133 0.496 0.389 0.537c1.934 0.31 3.337 1.958 3.337 3.92 0 2.189-1.781 3.97-3.97 3.97s-3.97-1.781-3.97-3.97c0-1.916 1.365-3.558 3.247-3.905 0.255-0.047 0.423-0.291 0.376-0.546s-0.291-0.423-0.546-0.376c-2.326 0.428-4.014 2.458-4.014 4.827 0 2.548 1.952 4.648 4.439 4.885v9.81c-0.551 0.16-0.986 0.595-1.146 1.146h-7.862c-0.16-0.551-0.595-0.986-1.146-1.146v-18.91c0.903-0.085 1.754-0.414 2.485-0.966 0.207-0.156 0.248-0.45 0.092-0.657s-0.45-0.248-0.657-0.092c-0.693 0.523-1.519 0.799-2.389 0.799-2.189 0-3.97-1.781-3.97-3.97s1.781-3.97 3.97-3.97 3.97 1.781 3.97 3.97c0 0.731-0.2 1.446-0.579 2.066-0.135 0.221-0.065 0.509 0.156 0.644s0.509 0.065 0.644-0.156c0.469-0.768 0.717-1.651 0.717-2.555 0-2.706-2.202-4.908-4.908-4.908s-4.908 2.202-4.908 4.908c0 2.548 1.952 4.648 4.439 4.885v18.91c-0.551 0.16-0.986 0.595-1.146 1.146h-2.824c-0.259 0-0.469 0.21-0.469 0.469s0.21 0.469 0.469 0.469h2.824c0.204 0.7 0.85 1.213 1.615 1.213s1.412-0.513 1.615-1.213h7.862c0.204 0.7 0.85 1.213 1.615 1.213s1.412-0.513 1.615-1.213h7.862c0.203 0.7 0.85 1.213 1.615 1.213s1.412-0.513 1.615-1.213h2.824c0.259 0 0.469-0.21 0.469-0.469s-0.21-0.469-0.469-0.469zM4.908 31.063c-0.411 0-0.745-0.334-0.745-0.745s0.334-0.745 0.745-0.745c0.411 0 0.745 0.334 0.745 0.745s-0.334 0.745-0.745 0.745zM16 31.063c-0.411 0-0.744-0.334-0.745-0.744 0-0 0-0 0-0s0-0 0-0c0-0.41 0.334-0.744 0.745-0.744s0.745 0.334 0.745 0.745-0.334 0.745-0.745 0.745zM27.092 31.063c-0.411 0-0.745-0.334-0.745-0.745s0.334-0.745 0.745-0.745c0.411 0 0.745 0.334 0.745 0.745s-0.334 0.745-0.745 0.745z"></path>
<path d="M27.092 4.439c-0.259 0-0.469 0.21-0.469 0.469s0.21 0.469 0.469 0.469h0.061c0.259 0 0.469-0.21 0.469-0.469s-0.21-0.469-0.469-0.469h-0.061z"></path>
<path d="M25.545 4.439c-0.259 0-0.469 0.21-0.469 0.469s0.21 0.469 0.469 0.469h0.061c0.259 0 0.469-0.21 0.469-0.469s-0.21-0.469-0.469-0.469h-0.061z"></path>
<path d="M15.090 14.449c-0.259 0-0.469 0.21-0.469 0.469s0.21 0.469 0.469 0.469h1.82c0.259 0 0.469-0.21 0.469-0.469s-0.21-0.469-0.469-0.469h-1.82z"></path>
<path d="M28.579 4.439c-0.259 0-0.469 0.21-0.469 0.469s0.21 0.469 0.469 0.469h0.061c0.259 0 0.469-0.21 0.469-0.469s-0.21-0.469-0.469-0.469h-0.061z"></path>
<path d="M17.985 13.098c0-0.259-0.21-0.469-0.469-0.469h-3.033c-0.259 0-0.469 0.21-0.469 0.469s0.21 0.469 0.469 0.469h3.033c0.259 0 0.469-0.21 0.469-0.469z"></path>
</svg>
