<!-- Generated by IcoMoon.io -->
<svg version="1.1" xmlns="http://www.w3.org/2000/svg" width="32" height="32" viewBox="0 0 32 32">
<title>tools</title>
<path d="M31.854 23.094l-4.337-4.337c-0.105-0.105-0.251-0.158-0.399-0.144l-4.148 0.377c-0.116 0.011-0.226 0.062-0.308 0.144l-0.401 0.401-4.637-4.637 4.747-4.747 0.778 0.778c0.098 0.098 0.226 0.146 0.354 0.146s0.256-0.049 0.354-0.146l3.205-3.205c0.042-0.042 0.077-0.092 0.102-0.147l1.885-4.148c0.086-0.19 0.046-0.413-0.102-0.56l-1.508-1.508c-0.147-0.147-0.371-0.188-0.56-0.102l-4.148 1.886c-0.055 0.025-0.104 0.059-0.147 0.102l-3.205 3.205c-0.195 0.195-0.195 0.512 0 0.707l0.778 0.778-4.747 4.747-2.811-2.811 0.401-0.401c0.083-0.083 0.134-0.192 0.144-0.308l0.377-4.148c0.013-0.148-0.039-0.294-0.144-0.399l-4.337-4.337c-0.195-0.195-0.512-0.195-0.707 0l-1.885 1.885c-0.195 0.195-0.195 0.512 0 0.707l3.229 3.229-3.441 3.441-3.229-3.229c-0.195-0.195-0.512-0.195-0.707 0l-1.886 1.886c-0.195 0.195-0.195 0.512 0 0.707l4.337 4.337c0.094 0.094 0.221 0.146 0.354 0.146 0.015 0 0.030-0.001 0.045-0.002l4.148-0.377c0.116-0.011 0.226-0.062 0.308-0.144l0.401-0.401 2.811 2.811-1.947 1.946-0.589-0.589c-0.145-0.144-0.363-0.186-0.55-0.106l-2.631 1.127c-0 0-0.001 0-0.001 0l-0.008 0.003c-0.004 0.002-0.007 0.004-0.011 0.006-0.010 0.005-0.020 0.009-0.030 0.015-0.006 0.003-0.012 0.007-0.018 0.011-0.008 0.005-0.016 0.009-0.023 0.015s-0.015 0.011-0.023 0.017c-0.005 0.004-0.011 0.008-0.016 0.012-0.009 0.008-0.018 0.015-0.026 0.024-0.003 0.003-0.006 0.005-0.009 0.008l-0.006 0.006c-0.001 0.001-0.001 0.001-0.002 0.002l-5.829 5.829c-0 0-0 0-0 0l-0.008 0.008c-0.003 0.003-0.006 0.006-0.009 0.010-0.007 0.008-0.015 0.016-0.022 0.024-0.005 0.006-0.010 0.013-0.015 0.019s-0.010 0.013-0.014 0.020c-0.006 0.009-0.012 0.018-0.017 0.027-0.002 0.004-0.005 0.007-0.007 0.011l-0.006 0.010c-0 0-0 0-0 0l-0.937 1.687c-0.108 0.195-0.074 0.439 0.084 0.596l4.148 4.148c0.096 0.096 0.224 0.146 0.354 0.146 0.083 0 0.166-0.021 0.243-0.063l1.697-0.943c0.004-0.002 0.008-0.005 0.012-0.007 0.009-0.005 0.018-0.011 0.026-0.016 0.007-0.005 0.013-0.010 0.020-0.015s0.013-0.009 0.019-0.014c0.008-0.007 0.016-0.014 0.024-0.022 0.003-0.003 0.007-0.006 0.010-0.009l0.008-0.008c0-0 0-0 0-0l5.837-5.837c0.007-0.006 0.012-0.013 0.018-0.020 0.004-0.005 0.008-0.009 0.012-0.014 0.001-0.001 0.003-0.003 0.004-0.004 0.012-0.015 0.024-0.031 0.034-0.047 0.002-0.004 0.004-0.007 0.006-0.011 0.011-0.018 0.021-0.037 0.029-0.055 0.001-0.002 0.002-0.003 0.002-0.005l0.003-0.008c0-0.001 0.001-0.001 0.001-0.002l1.127-2.63c0.081-0.188 0.039-0.406-0.106-0.55l-0.589-0.589 1.947-1.947 4.637 4.637-0.401 0.401c-0.083 0.083-0.134 0.192-0.144 0.308l-0.377 4.148c-0.013 0.148 0.039 0.294 0.144 0.399l4.337 4.337c0.098 0.098 0.226 0.146 0.354 0.146s0.256-0.049 0.354-0.146l1.885-1.885c0.195-0.195 0.195-0.512 0-0.707l-3.229-3.229 3.441-3.441 3.229 3.229c0.195 0.195 0.512 0.195 0.707 0l1.885-1.885c0.196-0.196 0.196-0.512 0-0.707zM23.227 4.017l3.75-1.705 1.018 1.018-1.705 3.75-2.788 2.788-3.064-3.064 2.788-2.788zM20.863 8.643l0.801 0.801-4.747 4.747-0.801-0.801 4.747-4.747zM9.652 11.404l-0.626 0.626-3.735 0.339-3.818-3.818 1.178-1.178 3.229 3.229c0.195 0.195 0.512 0.195 0.707 0l4.148-4.148c0.195-0.195 0.195-0.512 0-0.707l-3.229-3.229 1.178-1.178 3.817 3.818-0.339 3.735-2.512 2.512zM7.288 18.825l0.424 0.424-5.138 5.138-0.424-0.424 5.138-5.138zM3.894 25.707l-0.613-0.613 5.138-5.138 0.613 0.613-5.138 5.138zM9.739 21.276l0.613 0.613-5.138 5.138-0.613-0.613 5.138-5.138zM4.735 29.188l-3.615-3.615 0.438-0.788 3.965 3.965-0.788 0.438zM6.345 28.158l-0.424-0.424 5.138-5.138 0.424 0.424-5.138 5.138zM12.021 22.145l-1.926-1.925c-0.001-0.001-0.002-0.002-0.003-0.003s-0.002-0.002-0.003-0.003l-1.926-1.926 1.65-0.707 2.915 2.915-0.707 1.65zM12.379 18.731l-0.801-0.801 1.947-1.947 0.801 0.801-1.946 1.947zM15.386 16.431l-4.673-4.673 1.178-1.178 9.663 9.663-1.178 1.178-4.99-4.99zM29.615 24.626l-3.229-3.229c-0.195-0.195-0.512-0.195-0.707 0l-4.148 4.148c-0.195 0.195-0.195 0.512 0 0.707l3.229 3.229-1.178 1.178-3.818-3.817 0.34-3.735 2.512-2.512c0-0 0-0 0-0l0.626-0.626 3.735-0.34 3.817 3.818-1.178 1.178z"></path>
</svg>
