<!-- Generated by IcoMoon.io -->
<svg version="1.1" xmlns="http://www.w3.org/2000/svg" width="32" height="32" viewBox="0 0 32 32">
<title>tool</title>
<path d="M19.369 32v0l-6.739-0.001c-0.505 0-0.915-0.409-0.915-0.915v-2.654c-0.505-0.174-0.998-0.378-1.477-0.611l-1.876 1.876c-0.172 0.172-0.405 0.269-0.647 0.269v0c-0.242 0-0.475-0.097-0.646-0.269l-4.765-4.765c-0.357-0.358-0.357-0.935 0-1.293l1.876-1.877c-0.234-0.478-0.438-0.972-0.612-1.477h-2.654c-0.242 0-0.475-0.097-0.646-0.268-0.172-0.171-0.268-0.405-0.268-0.646v-6.74c0-0.504 0.409-0.914 0.915-0.914h2.654c0.174-0.505 0.378-0.998 0.612-1.477l-1.877-1.876c-0.171-0.171-0.268-0.403-0.268-0.646 0-0.242 0.097-0.475 0.268-0.647l4.766-4.765c0.171-0.172 0.404-0.268 0.646-0.268v0c0.242 0 0.475 0.096 0.647 0.268l1.876 1.876c0.478-0.234 0.972-0.438 1.477-0.611v-2.654c0-0.505 0.409-0.915 0.915-0.915h6.738c0.505 0 0.914 0.41 0.914 0.915v2.655c0.505 0.173 0.999 0.377 1.478 0.611l1.876-1.876c0.358-0.357 0.935-0.357 1.293 0.001l4.766 4.765c0.171 0.171 0.268 0.404 0.268 0.646s-0.097 0.475-0.268 0.647l-1.877 1.876c0.234 0.479 0.438 0.972 0.612 1.477h2.654c0.505 0 0.915 0.409 0.915 0.915v6.739c0 0.242-0.097 0.475-0.268 0.646-0.172 0.172-0.405 0.268-0.647 0.268v0h-2.654c-0.174 0.505-0.378 0.999-0.612 1.477l1.877 1.877c0.358 0.356 0.358 0.935 0 1.293l-4.766 4.765c-0.171 0.172-0.404 0.268-0.646 0.268v0c-0.242 0-0.475-0.097-0.647-0.268l-1.876-1.876c-0.479 0.234-0.973 0.438-1.477 0.611v2.655c0 0.242-0.097 0.475-0.268 0.646-0.171 0.17-0.403 0.267-0.647 0.267zM13.544 30.17h4.911v-2.411c0-0.408 0.271-0.768 0.663-0.88 0.825-0.235 1.623-0.566 2.371-0.981 0.358-0.198 0.803-0.136 1.091 0.151l1.704 1.704 3.472-3.472-1.704-1.704c-0.287-0.288-0.351-0.734-0.152-1.091 0.415-0.747 0.746-1.544 0.982-2.371 0.111-0.393 0.471-0.663 0.879-0.663v0h2.412v-4.911h-2.412c-0.408 0-0.767-0.271-0.879-0.664-0.236-0.827-0.567-1.624-0.982-2.371-0.198-0.357-0.135-0.803 0.152-1.091l1.704-1.704-3.472-3.472-1.704 1.704c-0.288 0.288-0.734 0.35-1.091 0.152-0.748-0.414-1.545-0.745-2.372-0.982-0.393-0.111-0.663-0.47-0.663-0.879v-2.411h-4.911v2.411c0 0.409-0.271 0.767-0.662 0.879-0.828 0.237-1.626 0.568-2.372 0.982-0.354 0.201-0.8 0.14-1.089-0.149l-1.704-1.705-3.472 3.473 1.704 1.704c0.288 0.287 0.351 0.734 0.152 1.091-0.415 0.747-0.746 1.543-0.982 2.371-0.111 0.393-0.471 0.663-0.879 0.663h-2.411l-0.001 4.911h2.412c0.408 0 0.767 0.271 0.879 0.663 0.236 0.827 0.567 1.625 0.982 2.372 0.198 0.356 0.136 0.8-0.152 1.090l-1.704 1.702 3.472 3.473 1.705-1.705c0.287-0.287 0.733-0.35 1.091-0.151 0.746 0.414 1.543 0.745 2.371 0.981 0.393 0.112 0.662 0.471 0.662 0.88v2.41z"></path>
<path d="M16 22.947c-3.832 0-6.948-3.117-6.948-6.948s3.117-6.948 6.948-6.948c3.832 0 6.948 3.117 6.948 6.948s-3.117 6.948-6.948 6.948zM16 10.881c-2.823 0-5.119 2.296-5.119 5.119 0 2.824 2.296 5.12 5.119 5.12s5.12-2.296 5.12-5.12c0-2.823-2.297-5.119-5.12-5.119z"></path>
</svg>
