<!-- Generated by IcoMoon.io -->
<svg version="1.1" xmlns="http://www.w3.org/2000/svg" width="32" height="32" viewBox="0 0 32 32">
<title>tools-1</title>
<path d="M31.45 27.758l-7.020-7.019 0.445-1.186c0.083-0.221 0.029-0.471-0.138-0.638l-1.047-1.047c-0.235-0.235-0.617-0.235-0.852 0l-1.316 1.316-2.751-2.751 6.099-6.099c0.586-0.586 1.327-1.035 2.143-1.298 0.697-0.224 1.34-0.617 1.859-1.136 0.898-0.898 1.381-2.092 1.361-3.362s-0.542-2.449-1.47-3.319c-0.151-0.142-0.365-0.196-0.566-0.143s-0.36 0.205-0.422 0.403l-0.764 2.45c-0.094 0.302-0.301 0.55-0.582 0.697s-0.603 0.176-0.905 0.082c-0.499-0.156-0.834-0.611-0.834-1.132 0-0.119 0.018-0.239 0.055-0.355l0.755-2.421c0.062-0.199 0.017-0.417-0.12-0.574s-0.346-0.234-0.552-0.2c-0.862 0.14-1.661 0.516-2.311 1.088-1.144 1.006-1.726 2.507-1.556 4.016 0.173 1.549-0.38 3.089-1.515 4.225l-3.878 3.878-8.372-8.372-0.152-1.642c-0.017-0.187-0.121-0.355-0.28-0.455l-4.255-2.669c-0.238-0.149-0.548-0.114-0.746 0.084l-1.587 1.587c-0.199 0.199-0.234 0.508-0.084 0.746l2.669 4.255c0.1 0.159 0.268 0.263 0.455 0.28l1.642 0.152 8.373 8.373-6.099 6.098c-0.586 0.586-1.327 1.035-2.144 1.298-0.706 0.227-1.331 0.61-1.859 1.137-0.898 0.898-1.381 2.092-1.361 3.362s0.542 2.448 1.47 3.319c0.151 0.142 0.365 0.196 0.566 0.143s0.36-0.205 0.422-0.403l0.765-2.449c0.094-0.303 0.301-0.551 0.582-0.698 0.274-0.144 0.586-0.175 0.882-0.089 0.008 0.003 0.015 0.005 0.023 0.008 0.625 0.195 0.974 0.862 0.78 1.487l-0.755 2.421c-0.062 0.199-0.017 0.417 0.12 0.574 0.115 0.133 0.282 0.208 0.455 0.208 0.032 0 0.064-0.003 0.097-0.008 0.861-0.14 1.659-0.516 2.311-1.087 1.142-1.005 1.724-2.507 1.556-4.017-0.173-1.548 0.379-3.088 1.515-4.224l3.878-3.877 2.751 2.751-1.316 1.316c-0.235 0.235-0.235 0.617 0 0.852l1.047 1.047c0.167 0.167 0.417 0.221 0.638 0.138l1.186-0.445 7.019 7.019c0.367 0.367 0.848 0.55 1.33 0.55s0.963-0.183 1.33-0.55l1.033-1.033c0.733-0.733 0.733-1.926-0-2.66zM20.299 10.205c1.396-1.396 2.074-3.295 1.861-5.211-0.125-1.118 0.306-2.231 1.155-2.977 0.21-0.185 0.443-0.343 0.691-0.47l-0.41 1.314c-0.073 0.232-0.109 0.473-0.109 0.714 0 1.051 0.675 1.968 1.68 2.283 1.259 0.393 2.604-0.312 2.996-1.571l0.426-1.365c0.279 0.494 0.431 1.051 0.44 1.635 0.015 0.941-0.343 1.825-1.008 2.491-0.39 0.39-0.853 0.673-1.376 0.842-0.998 0.322-1.906 0.873-2.626 1.594l-6.099 6.098-1.498-1.498 3.878-3.877zM11.703 21.796c-1.397 1.397-2.075 3.296-1.861 5.21 0.125 1.119-0.307 2.232-1.154 2.978-0.211 0.185-0.443 0.342-0.691 0.469l0.41-1.313c0.389-1.249-0.3-2.58-1.539-2.986-0.011-0.004-0.022-0.008-0.033-0.011-0.61-0.19-1.258-0.131-1.824 0.166s-0.982 0.796-1.172 1.406l-0.426 1.365c-0.279-0.494-0.431-1.051-0.441-1.635-0.015-0.941 0.343-1.825 1.008-2.49 0.391-0.391 0.854-0.674 1.376-0.842 0.998-0.321 1.906-0.872 2.627-1.593l6.099-6.098 1.498 1.498-3.878 3.877zM5.496 6.13c-0.118-0.118-0.272-0.176-0.426-0.176-0.067 0-0.135 0.011-0.199 0.034l-1.247-0.115-2.255-3.596 0.908-0.908 3.596 2.256 0.115 1.247c-0.022 0.064-0.034 0.131-0.034 0.199 0 0.16 0.064 0.313 0.176 0.426l14.54 14.54-0.634 0.634-14.54-14.54zM20.556 23.212l-1.064 0.399-0.347-0.347 4.118-4.118 0.347 0.347-0.399 1.064-2.656 2.655zM30.598 29.565l-1.033 1.033c-0.263 0.263-0.692 0.263-0.955 0l-6.868-6.868 1.988-1.988 6.868 6.868c0.263 0.263 0.263 0.692 0 0.955z"></path>
</svg>
