<!-- Generated by IcoMoon.io -->
<svg version="1.1" xmlns="http://www.w3.org/2000/svg" width="32" height="32" viewBox="0 0 32 32">
<title>transfer</title>
<path d="M31.466 25.020c0-0.445-0.36-0.805-0.805-0.805h-27.388l4.814-4.814c0.314-0.314 0.314-0.818 0-1.132s-0.818-0.314-1.132 0l-6.182 6.182c-0.314 0.314-0.314 0.818 0 1.132l6.182 6.182c0.157 0.157 0.36 0.235 0.569 0.235s0.412-0.078 0.569-0.235c0.314-0.314 0.314-0.818 0-1.132l-4.814-4.814h27.395c0.432 0 0.791-0.353 0.791-0.798z"></path>
<path d="M31.231 6.41l-6.182-6.175c-0.314-0.314-0.818-0.314-1.132 0s-0.314 0.818 0 1.132l4.814 4.814h-27.395c-0.445 0-0.805 0.36-0.805 0.805s0.36 0.805 0.805 0.805h27.395l-4.814 4.801c-0.314 0.314-0.314 0.818 0 1.132 0.157 0.157 0.36 0.236 0.569 0.236s0.412-0.079 0.569-0.236l6.182-6.182c0.307-0.307 0.307-0.818-0.007-1.132z"></path>
</svg>
