<!-- Generated by IcoMoon.io -->
<svg version="1.1" xmlns="http://www.w3.org/2000/svg" width="32" height="32" viewBox="0 0 32 32">
<title>university-with-a-flag-1</title>
<path d="M28.333 29.481h-1.333v-15.852c0-0.667-0.593-1.259-1.259-1.259h-2.593c-0.593-2.741-2.963-4.815-6-5.333v-0.963h4.222c0.667 0 1.259-0.519 1.259-1.259v-2.741c0-0.667-0.593-1.259-1.259-1.259h-4.296c-0.148-0.444-0.593-0.815-1.185-0.815-0.667 0-1.259 0.593-1.259 1.259v5.778c-3.037 0.444-5.481 2.593-6 5.333h-2.593c-0.667 0-1.259 0.593-1.259 1.259v15.852h-1.185c-0.667 0-1.259 0.519-1.259 1.259s0.593 1.259 1.259 1.259h24.815c0.667 0 1.259-0.593 1.259-1.259s-0.593-1.259-1.333-1.259zM13.963 14.889h4v2.815h-4v-2.815zM13.963 25.704h4v2.815h-4v-2.815zM20.407 25.704h4.074v2.815h-4.074v-2.815zM24.556 23.185h-4.148v-3.037h4.074v3.037h0.074zM17.963 20.148v3.037h-4v-3.037h4zM11.519 23.185h-4.074v-3.037h4.074v3.037zM7.37 25.704h4.148v2.815h-4.074v-2.815h-0.074zM24.556 17.704h-4.148v-2.815h4.074v2.815h0.074zM7.37 14.889h4.148v2.815h-4.074v-2.815h-0.074z"></path>
</svg>
