<!-- Generated by IcoMoon.io -->
<svg version="1.1" xmlns="http://www.w3.org/2000/svg" width="32" height="32" viewBox="0 0 32 32">
<title>users-checked-user-icon</title>
<path d="M12.156 0.231c-3.731 0.469-5.906 3.194-5.906 7.394 0 2.9 1.081 5.988 2.8 7.981 0.444 0.512 0.575 0.881 0.575 1.587 0 0.331-0.037 0.481-0.194 0.794-0.275 0.55-0.563 0.769-1.519 1.144-2.575 1.012-4.769 2.262-6.106 3.469-0.762 0.688-1.137 1.169-1.45 1.825l-0.2 0.419v1.125c0 1.094 0.006 1.137 0.169 1.488 0.294 0.631 0.994 1.262 1.906 1.719 0.619 0.313 1.969 0.731 3.019 0.938 2.156 0.425 4.306 0.581 7.887 0.587 1.4 0 2.631-0.019 2.738-0.044l0.2-0.044-0.463-0.337c-0.25-0.181-0.819-0.525-1.269-0.75-1.044-0.538-1.438-0.813-1.838-1.256-0.906-1.012-1.162-2.512-0.65-3.831 0.156-0.4 0.9-1.563 1.431-2.25 0.481-0.619 1.25-1.094 2.075-1.288 0.669-0.156 1.769-0.094 2.488 0.144 0.688 0.225 1.45 0.631 2.087 1.113l0.469 0.35 0.219-0.262c0.119-0.144 0.406-0.488 0.644-0.762 0.231-0.281 0.419-0.525 0.419-0.544 0-0.056-1.425-0.781-2.25-1.144-0.431-0.188-1.175-0.488-1.656-0.669-0.931-0.344-1.137-0.481-1.363-0.906-0.181-0.356-0.219-1.131-0.075-1.731 0.1-0.4 0.169-0.525 0.563-1.019 0.531-0.669 0.731-0.956 1.1-1.625 0.725-1.3 1.269-2.925 1.5-4.5 0.125-0.844 0.113-2.794-0.025-3.531-0.512-2.737-2.137-4.638-4.544-5.331-0.831-0.244-2.012-0.35-2.781-0.25z"></path>
<path d="M31 17.369c-2.725 1.137-4.688 2.444-6.663 4.413-1.413 1.406-2.444 2.775-3.163 4.188-0.181 0.363-0.344 0.656-0.363 0.656-0.019-0.006-0.2-0.231-0.406-0.512-0.738-0.994-1.931-2.081-2.75-2.5-0.369-0.194-1.019-0.363-1.381-0.363-0.219 0-0.419 0.050-0.656 0.169-0.3 0.156-0.394 0.256-0.875 0.956-0.581 0.85-0.681 1.069-0.681 1.469 0 0.613 0.281 0.919 1.331 1.444 1.838 0.919 3.119 2.031 4.231 3.681 0.531 0.794 1.031 1.038 1.587 0.794 0.369-0.169 0.481-0.35 1.137-1.825 1.45-3.288 1.881-4.144 2.831-5.675 1.581-2.55 3.694-4.906 6.025-6.719 0.469-0.369 0.6-0.488 0.531-0.481-0.012 0.006-0.344 0.137-0.738 0.306z"></path>
</svg>
