<!-- Generated by IcoMoon.io -->
<svg version="1.1" xmlns="http://www.w3.org/2000/svg" width="32" height="32" viewBox="0 0 32 32">
<title>volkswagen-car-side-view</title>
<path d="M31.328 18.608h-0.892c-0.22-1.114-0.613-2.638-1.237-3.446-2.916-3.781-6.576-5.811-11.178-5.811-2.982 0-4.924 0.292-5.935 0.891-0.136 0.081-0.539 0.319-1.626 2.506-1.587 0.025-5.786 0.313-7.799 2.582-1.010 1.139-1.412 2.362-1.567 3.277h-0.421c-0.372 0-0.673 0.302-0.673 0.673s0.301 0.673 0.673 0.673h0.336c0.003 0.036 0.006 0.064 0.006 0.073 0.036 0.341 0.325 0.602 0.668 0.602h0.848c0.521 1.188 1.705 2.021 3.083 2.021s2.562-0.833 3.084-2.021h12.845c0.52 1.188 1.705 2.021 3.083 2.021s2.563-0.833 3.083-2.021h2.27c0.005 0 0.009 0 0.013 0 0.372 0 0.674-0.302 0.674-0.673h0.662c0.371 0 0.672-0.302 0.672-0.673 0-0.373-0.301-0.673-0.672-0.673zM5.614 21.302c-1.114 0-2.020-0.906-2.020-2.021s0.906-2.022 2.020-2.022c1.115 0 2.022 0.907 2.022 2.022s-0.907 2.021-2.022 2.021zM17.556 13.467c0 0.186-0.15 0.337-0.337 0.337h-5.232c-0.115 0-0.223-0.060-0.284-0.159s-0.068-0.222-0.017-0.326c0.247-0.508 0.694-1.387 0.908-1.57 0.713-0.453 2.141-0.668 4.282-0.668 0.117 0 0.233 0.001 0.351 0.004 0.182 0.004 0.328 0.154 0.328 0.337l0.001 2.044zM18.231 13.467v-1.949c0-0.096 0.042-0.188 0.113-0.252s0.167-0.096 0.263-0.083c2.371 0.279 4.194 1.063 4.88 2.098 0.069 0.104 0.074 0.236 0.016 0.346s-0.173 0.178-0.297 0.178h-4.639c-0.184 0-0.336-0.151-0.336-0.337zM24.627 21.302c-1.114 0-2.021-0.906-2.021-2.021s0.907-2.022 2.021-2.022 2.021 0.907 2.021 2.022c0 1.115-0.907 2.021-2.021 2.021z"></path>
</svg>
