<!-- Generated by IcoMoon.io -->
<svg version="1.1" xmlns="http://www.w3.org/2000/svg" width="32" height="32" viewBox="0 0 32 32">
<title>warning2</title>
<path d="M31.717 26.992l-13.902-24.083c-0.806-1.395-2.824-1.395-3.629 0l-13.902 24.083c-0.806 1.395 0.203 3.145 1.815 3.145h27.804c1.612 0 2.621-1.749 1.815-3.145zM16.020 10.326c0.891 0 1.612 0.74 1.585 1.631l-0.262 9.146c-0.020 0.721-0.609 1.291-1.33 1.291s-1.31-0.577-1.33-1.291l-0.255-9.146c-0.020-0.891 0.694-1.631 1.592-1.631zM16 26.868c-0.911 0-1.651-0.74-1.651-1.651s0.74-1.651 1.651-1.651 1.651 0.74 1.651 1.651-0.74 1.651-1.651 1.651z"></path>
</svg>
