<!-- Generated by IcoMoon.io -->
<svg version="1.1" xmlns="http://www.w3.org/2000/svg" width="32" height="32" viewBox="0 0 32 32">
<title>warning</title>
<path d="M31.652 26.346l-13.429-23.259c-0.988-1.712-3.458-1.713-4.447 0l-13.429 23.259c-0.988 1.712 0.246 3.851 2.223 3.851h26.857c1.977 0 3.212-2.138 2.223-3.851zM29.429 27.844h-26.857c-0.167 0-0.27-0.177-0.186-0.322l13.429-23.259c0.083-0.145 0.288-0.145 0.372 0l13.429 23.259c0.084 0.145-0.019 0.322-0.186 0.322z"></path>
<path d="M16 11.562c-0.65 0-1.176 0.527-1.176 1.176v6.743c0 0.65 0.527 1.176 1.176 1.176s1.176-0.527 1.176-1.176v-6.743c0-0.65-0.527-1.176-1.176-1.176z"></path>
<path d="M16 22.186c-0.65 0-1.176 0.527-1.176 1.176v0.702c0 0.65 0.527 1.176 1.176 1.176s1.176-0.527 1.176-1.176v-0.702c0-0.65-0.527-1.176-1.176-1.176z"></path>
</svg>
