<!-- Generated by IcoMoon.io -->
<svg version="1.1" xmlns="http://www.w3.org/2000/svg" width="32" height="32" viewBox="0 0 32 32">
<title>wrench</title>
<path d="M30.628 5.327l-0.028-0.028c-0.308-0.307-0.806-0.307-1.114 0.001l-3.734 3.734-2.786-2.786 3.734-3.734c0.308-0.308 0.308-0.807 0-1.115l-0.028-0.028c-1.828-1.828-4.803-1.828-6.632 0l-1.774 1.774c-1.442 1.442-1.684 3.67-0.671 5.353l-9.097 9.097c-1.683-1.012-3.91-0.771-5.353 0.672l-1.774 1.774c-1.828 1.828-1.828 4.803 0.001 6.632l0.028 0.028c0.308 0.307 0.806 0.307 1.114-0.001l3.734-3.734 2.786 2.786-3.734 3.734c-0.308 0.308-0.308 0.807 0 1.115l0.028 0.028c0.914 0.914 2.115 1.371 3.316 1.371s2.402-0.457 3.316-1.371l1.774-1.774c1.448-1.448 1.667-3.702 0.619-5.411l9.091-9.091c1.709 1.049 3.964 0.829 5.411-0.619l1.774-1.774c1.828-1.828 1.828-4.803-0.001-6.632zM29.514 10.845l-1.774 1.774c-1.040 1.040-2.735 1.086-3.859 0.105-0.312-0.273-0.782-0.257-1.076 0.036l-10.045 10.045c-0.293 0.293-0.309 0.763-0.036 1.076 0.981 1.124 0.935 2.819-0.105 3.859l-1.774 1.774c-1.031 1.031-2.612 1.186-3.809 0.465l3.669-3.669c0.148-0.148 0.231-0.348 0.231-0.557s-0.083-0.41-0.231-0.557l-3.901-3.901c-0.148-0.148-0.348-0.231-0.557-0.231s-0.409 0.083-0.557 0.231l-3.669 3.669c-0.721-1.197-0.566-2.777 0.465-3.809l1.774-1.774c1.022-1.022 2.729-1.093 3.805-0.16 0.312 0.271 0.781 0.255 1.074-0.038l10.045-10.045c0.293-0.293 0.309-0.761 0.038-1.074-0.934-1.076-0.862-2.783 0.16-3.805l1.774-1.774c1.031-1.031 2.612-1.186 3.809-0.465l-3.669 3.67c-0.148 0.148-0.231 0.348-0.231 0.557s0.083 0.409 0.231 0.557l3.901 3.901c0.148 0.148 0.348 0.231 0.557 0.231s0.409-0.083 0.557-0.231l3.669-3.67c0.721 1.197 0.566 2.778-0.465 3.809z"></path>
<path d="M20.96 11.040c-0.308-0.308-0.807-0.308-1.115 0l-8.805 8.805c-0.308 0.308-0.308 0.807 0 1.115 0.154 0.154 0.356 0.231 0.557 0.231s0.403-0.077 0.557-0.231l8.805-8.805c0.308-0.308 0.308-0.807 0-1.115z"></path>
</svg>
