<!-- Generated by IcoMoon.io -->
<svg version="1.1" xmlns="http://www.w3.org/2000/svg" width="32" height="32" viewBox="0 0 32 32">
<title>xlsx-file-format-extension</title>
<path d="M28.377 11.446h-0.768v-3.708c0-0.023-0.004-0.046-0.006-0.070-0.001-0.147-0.048-0.292-0.149-0.406l-6.17-7.048c-0.002-0.002-0.004-0.002-0.005-0.004-0.037-0.041-0.080-0.075-0.125-0.105-0.013-0.009-0.027-0.017-0.041-0.024-0.039-0.021-0.081-0.039-0.124-0.052-0.012-0.003-0.022-0.008-0.034-0.011-0.047-0.011-0.095-0.018-0.144-0.018h-15.163c-0.692 0-1.255 0.563-1.255 1.255v10.191h-0.768c-0.99 0-1.794 0.803-1.794 1.794v9.327c0 0.99 0.803 1.794 1.794 1.794h0.768v6.385c0 0.692 0.563 1.255 1.255 1.255h20.706c0.692 0 1.255-0.563 1.255-1.255v-6.385h0.768c0.99 0 1.793-0.803 1.793-1.794v-9.327c0-0.991-0.803-1.794-1.793-1.794zM5.647 1.255h14.536v6.42c0 0.347 0.281 0.627 0.627 0.627h5.543v3.143h-20.706v-10.191zM18.36 18.365c-1.233-0.43-2.037-1.112-2.037-2.191 0-1.266 1.057-2.235 2.808-2.235 0.836 0 1.453 0.176 1.893 0.374l-0.374 1.354c-0.297-0.143-0.826-0.352-1.552-0.352s-1.079 0.33-1.079 0.716c0 0.474 0.419 0.683 1.376 1.046 1.31 0.485 1.927 1.167 1.927 2.213 0 1.244-0.958 2.302-2.995 2.302-0.848 0-1.684-0.22-2.103-0.452l0.341-1.387c0.452 0.231 1.145 0.463 1.861 0.463 0.771 0 1.178-0.319 1.178-0.804 0-0.462-0.352-0.727-1.244-1.046zM15.52 20.071v1.41h-4.636v-7.422h1.685v6.012h2.951zM5.5 21.481h-1.916l2.147-3.756-2.070-3.667h1.927l0.649 1.355c0.22 0.451 0.386 0.814 0.562 1.233h0.021c0.177-0.474 0.32-0.804 0.506-1.233l0.628-1.355h1.916l-2.092 3.622 2.203 3.8h-1.938l-0.672-1.344c-0.275-0.517-0.451-0.903-0.66-1.332h-0.022c-0.154 0.43-0.341 0.815-0.573 1.332l-0.616 1.344zM26.353 30.405h-20.706v-6.045h20.706v6.045zM26.364 21.481l-0.672-1.344c-0.275-0.517-0.451-0.903-0.661-1.332h-0.021c-0.154 0.43-0.342 0.815-0.574 1.332l-0.616 1.344h-1.916l2.147-3.756-2.070-3.667h1.927l0.65 1.355c0.22 0.451 0.385 0.814 0.561 1.233h0.022c0.176-0.474 0.319-0.804 0.506-1.233l0.628-1.355h1.916l-2.092 3.622 2.202 3.8-1.938 0.001z"></path>
</svg>
